<svg viewBox="0 0 44 26" fill="none" xmlns="http://www.w3.org/2000/svg">
    <path fill-rule="evenodd" clip-rule="evenodd" d="M31.32.259c3.81.884 5.266 3.111 7.093 6.177H31.32V.259zM9.06 6.693c.745 0 1.287.36 1.287 1.201 0 .71-.575 1.286-1.284 1.288H1.287a1.287 1.287 0 000 2.574h11.584a1.287 1.287 0 11.005 2.574H1.287a1.287 1.287 0 100 2.574H4.12v3.862c0 .71.576 1.287 1.287 1.287h2.587a4.936 4.936 0 009.67 0h13.07a4.936 4.936 0 009.67 0h2.244c.71 0 1.287-.576 1.287-1.287v-7.723c0-3.777-3.983-4.027-3.987-4.033h-9.914c-.71 0-1.287-.576-1.287-1.287V0H5.406c-.711 0-1.287.576-1.287 1.287V4.12H2.574a1.287 1.287 0 100 2.574H9.06zm28.176 12.704a2.36 2.36 0 010 3.338c-1.482 1.482-4.028.428-4.028-1.669 0-2.096 2.546-3.15 4.028-1.669zm-22.739 0a2.36 2.36 0 010 3.338c-1.482 1.482-4.028.428-4.028-1.669 0-2.096 2.546-3.15 4.028-1.669z" fill="#FF5C00"/>
</svg>
