<svg viewBox="0 0 100 100" fill="none" xmlns="http://www.w3.org/2000/svg">
    <g filter="url(#filter0_d)">
        <path d="M77.423 22.55l-9.972-9.973c-3.436-3.438-9.03-3.434-12.466 0L22.577 44.985c-3.434 3.436-3.434 9.03 0 12.465l9.973 9.973A8.786 8.786 0 0038.78 70c2.259 0 4.516-.86 6.234-2.577l32.408-32.408c3.434-3.436 3.434-9.03 0-12.466z" fill="#66BD21"/>
        <path d="M77.423 22.55l-9.972-9.973c-3.436-3.438-9.03-3.434-12.465 0L38.78 28.781 61.22 51.22l16.204-16.204c3.434-3.436 3.434-9.03 0-12.466z" fill="#5DAD1D"/>
        <path d="M47.838 54.5a1.755 1.755 0 01-1.827.957l-12.215-1.746 6.232 6.232a1.762 1.762 0 11-2.493 2.493l-9.97-9.971a1.763 1.763 0 011.495-2.992l12.216 1.746-6.234-6.234a1.762 1.762 0 112.493-2.492l9.972 9.972c.538.537.67 1.357.33 2.035zM57.478 44.985l-4.985 4.987a1.757 1.757 0 01-1.246.517c-.451 0-.902-.172-1.247-.517L40.028 40a1.762 1.762 0 010-2.493l4.987-4.985a1.762 1.762 0 112.493 2.493l-3.74 3.739 2.493 2.493 3.74-3.74A1.762 1.762 0 1152.492 40l-3.74 3.74 2.493 2.493 3.74-3.74a1.762 1.762 0 112.492 2.492z" fill="#FEDB41"/>
        <path d="M50 37.507l-1.246 1.247 2.492 2.492L52.493 40A1.762 1.762 0 1050 37.507zM54.985 42.493l-1.246 1.246 2.493 2.493 1.246-1.247a1.762 1.762 0 10-2.493-2.492zM46.26 36.26l1.247-1.245a1.762 1.762 0 10-2.492-2.493l-1.247 1.246 2.493 2.493zM70.072 32.377a1.757 1.757 0 01-1.933.569l-4.133-1.378 1.377 4.135a1.762 1.762 0 01-2.579 2.07l-12.465-7.48a1.763 1.763 0 011.814-3.023l8.379 5.028-.985-2.96a1.762 1.762 0 012.23-2.229l2.957.985-5.027-8.376a1.763 1.763 0 113.023-1.815l7.478 12.464c.38.633.326 1.434-.136 2.01z" fill="#FC3"/>
    </g>
    <defs>
        <filter id="filter0_d" x="0" y="0" width="100" height="100" filterUnits="userSpaceOnUse" color-interpolation-filters="sRGB">
            <feFlood flood-opacity="0" result="BackgroundImageFix"/>
            <feColorMatrix in="SourceAlpha" values="0 0 0 0 0 0 0 0 0 0 0 0 0 0 0 0 0 0 127 0"/>
            <feOffset dy="10"/>
            <feGaussianBlur stdDeviation="10"/>
            <feColorMatrix values="0 0 0 0 0 0 0 0 0 0 0 0 0 0 0 0 0 0 0.25 0"/>
            <feBlend in2="BackgroundImageFix" result="effect1_dropShadow"/>
            <feBlend in="SourceGraphic" in2="effect1_dropShadow" result="shape"/>
        </filter>
    </defs>
</svg>
