<svg viewBox="0 0 100 115" fill="none" xmlns="http://www.w3.org/2000/svg">
    <g filter="url(#filter0_d)">
        <path d="M70.212 37.92c-12.67-13.993-15.548-24.876-15.548-24.876s-2.194.979-4.664 3.222l-3.11 35.647L50 82.377c15.282 0 27.67-12.389 27.67-27.67 0-6.313-3.525-12.443-7.458-16.787z" fill="#FF6200"/>
        <path d="M45.336 22.372c-1.585 3.17-1.959 6.744-1.943 9.486a5.557 5.557 0 01-9.49 3.958l-2.56-2.56s-3.796 5.234-4.447 6.219a27.544 27.544 0 00-4.565 15.442c.113 15.244 12.425 27.46 27.669 27.46v-66.11c-1.616 1.467-3.35 3.475-4.664 6.105z" fill="#FD7D21"/>
        <path d="M71.833 36.453c-6.322-6.983-10.08-13.13-12.118-17.056-2.208-4.254-2.932-6.891-2.937-6.912L56.12 10l-2.348 1.047c-.133.06-1.74.792-3.773 2.367l-1.555 2.74L50 19.376a20.226 20.226 0 013.476-3.087c1.644 4.183 5.813 12.824 15.115 23.098 2.072 2.288 6.892 8.363 6.892 15.319C75.483 68.758 64.051 80.19 50 80.19l-1.555 2.818L50 84.563c16.463 0 29.856-13.393 29.856-29.856 0-5.97-2.924-12.623-8.023-18.255z" fill="#FFB62D"/>
        <path d="M32.031 72.811c-4.795-4.758-7.463-11.119-7.514-17.91a25.363 25.363 0 014.203-14.22c.34-.516 1.706-2.42 2.891-4.065l.746.747a7.73 7.73 0 006.996 2.118 7.756 7.756 0 006.226-7.634c-.013-2.289.274-5.62 1.712-8.497A18.223 18.223 0 0150 19.377v-5.963c-2.142 1.659-4.756 4.252-6.62 7.98-1.824 3.65-2.19 7.711-2.174 10.476a3.376 3.376 0 01-2.71 3.323 3.367 3.367 0 01-3.047-.923l-4.372-4.372-1.504 2.074c-.156.215-3.832 5.285-4.501 6.297a29.725 29.725 0 00-4.928 16.665c.06 7.953 3.187 15.404 8.807 20.981 5.62 5.577 13.095 8.648 21.049 8.648V80.19c-6.792 0-13.174-2.62-17.969-7.379z" fill="#FDCB02"/>
        <path d="M50 37.135h-.057l-4.26 20 4.26 20H50c11.046 0 20-8.954 20-20s-8.954-20-20-20z" fill="#ED3800"/>
        <path d="M30 57.135c0 11.027 8.923 19.969 19.943 20v-40c-11.02.031-19.943 8.973-19.943 20z" fill="#FF4B00"/>
    </g>
    <path d="M40.602 51.142v1.766h-.263c-1.195.018-2.15.346-2.865.985-.715.638-1.14 1.544-1.275 2.715.686-.72 1.562-1.08 2.628-1.08 1.131 0 2.022.398 2.672 1.195.656.797.984 1.825.984 3.085 0 1.3-.383 2.355-1.151 3.164-.762.802-1.764 1.204-3.006 1.204-1.277 0-2.314-.472-3.111-1.415-.791-.944-1.187-2.18-1.187-3.71v-.729c0-2.244.545-4.002 1.635-5.273 1.096-1.272 2.669-1.907 4.72-1.907h.22zM38.31 57.25c-.47 0-.9.132-1.292.395-.387.264-.671.616-.853 1.055v.65c0 .95.2 1.706.598 2.268.398.557.914.835 1.547.835.632 0 1.133-.237 1.503-.712.369-.474.553-1.098.553-1.872 0-.773-.187-1.403-.562-1.89-.375-.486-.873-.729-1.494-.729zm14.22 1.362c0 1.84-.345 3.229-1.037 4.166-.685.932-1.731 1.398-3.137 1.398-1.383 0-2.426-.454-3.13-1.363-.697-.914-1.054-2.264-1.072-4.051v-2.215c0-1.84.343-3.22 1.029-4.14.691-.92 1.743-1.38 3.155-1.38 1.4 0 2.443.449 3.129 1.345.691.897 1.046 2.238 1.063 4.026v2.214zm-2.135-2.39c0-1.202-.164-2.08-.493-2.637-.328-.563-.85-.844-1.564-.844-.697 0-1.21.267-1.538.8-.328.527-.501 1.354-.519 2.479v2.9c0 1.195.167 2.086.501 2.672.334.586.859.879 1.574.879.685 0 1.192-.27 1.52-.809.328-.545.501-1.394.519-2.549v-2.891zm3.937-2.558c0-.773.25-1.406.747-1.898.498-.498 1.151-.747 1.96-.747.82 0 1.477.249 1.969.747.498.492.747 1.14.747 1.942v.633c0 .767-.25 1.397-.747 1.89-.492.492-1.143.738-1.951.738-.791 0-1.445-.24-1.96-.721-.51-.486-.765-1.14-.765-1.96v-.624zm1.494.677c0 .404.111.732.334.984.229.246.528.37.897.37.363 0 .656-.124.879-.37.222-.252.334-.592.334-1.02v-.64c0-.405-.115-.733-.343-.985-.223-.252-.519-.378-.888-.378-.37 0-.665.129-.888.386-.216.252-.325.586-.325 1.002v.65zm4.658 6.521c0-.785.255-1.42.765-1.907.51-.486 1.16-.73 1.951-.73.797 0 1.448.244 1.951.73.51.486.765 1.143.765 1.969v.624c0 .762-.246 1.392-.738 1.89-.487.492-1.14.738-1.96.738-.82 0-1.483-.243-1.986-.73-.499-.492-.748-1.14-.748-1.942v-.642zm1.495.686c0 .398.114.726.342.984.235.252.533.378.897.378.375 0 .668-.12.879-.36.216-.246.325-.59.325-1.028v-.66c0-.41-.114-.738-.343-.984a1.146 1.146 0 00-.879-.37c-.363 0-.659.124-.887.37-.223.246-.334.586-.334 1.02v.65zm-4.483 1.494l-1.098-.633 6.248-10.002 1.1.633-6.25 10.002z" fill="#fff"/>
    <defs>
        <filter id="filter0_d" x="0" y="0" width="100" height="114.563" filterUnits="userSpaceOnUse" color-interpolation-filters="sRGB">
            <feFlood flood-opacity="0" result="BackgroundImageFix"/>
            <feColorMatrix in="SourceAlpha" values="0 0 0 0 0 0 0 0 0 0 0 0 0 0 0 0 0 0 127 0"/>
            <feOffset dy="10"/>
            <feGaussianBlur stdDeviation="10"/>
            <feColorMatrix values="0 0 0 0 0 0 0 0 0 0 0 0 0 0 0 0 0 0 0.25 0"/>
            <feBlend in2="BackgroundImageFix" result="effect1_dropShadow"/>
            <feBlend in="SourceGraphic" in2="effect1_dropShadow" result="shape"/>
        </filter>
    </defs>
</svg>
