<svg viewBox="0 0 119 40" fill="none" xmlns="http://www.w3.org/2000/svg">
    <g clip-path="url(#clip0)">
        <path d="M115.783 11.12c-10.254-4.817-21.695-7.823-32.869-9.6-3.264-.517-6.553-.9-9.85-1.104-6.64-.45-13.322-.637-19.946.071-3.9.416-7.81.941-11.565 2.103-2.723.832-8.006 2.543-8.918 5.686-1.02 3.518 3.83 2.732 5.712 2.378 4.4-.833 8.626-2.378 13.043-3.169 10.675-1.919 21.865-1.274 32.636-.657 6.007.341 11.998.99 17.947 1.894 2.29.344 4.577.723 6.861 1.136 2.078.35 5.046.367 6.949 1.262z" fill="#EF0303"/>
        <path d="M47.244 36.311a3.111 3.111 0 01-.13.75c-.095.416-.157.662-.178.75-.033.39-.108.957-.23 1.706a.387.387 0 01-.416.291 5.583 5.583 0 01-.62-.062 46.894 46.894 0 00-6.195-.296c-.79 0-1.986.025-3.58.067-1.595.042-2.785.067-3.576.067-.358 0-.537-.159-.537-.475 0-1.211.066-3.04.204-5.47.137-2.432.204-4.26.204-5.475 0-1.216-.067-3.539-.196-6.91 0-.871-.083-2.166-.179-3.89v-.228c0-.246.13-.37.416-.37.762 0 1.899 0 3.418.062 1.52.062 2.657.066 3.414.066.758 0 1.815 0 3.264-.066 1.449-.067 2.531-.063 3.26-.063.508 0 .787.154.832.47.163.882.277 1.771.342 2.665 0 .25-.12.375-.358.375-.919 0-2.315-.052-4.188-.154-1.874-.103-3.288-.149-4.243-.138-.886 0-1.448.121-1.665.358-.216.238-.35.833-.35 1.774v2.406c-.016.385.001.771.05 1.153.096.338.38.504.833.504H37.947c2.124 0 4.032-.039 5.725-.116.663-.02 1.443-.074 2.34-.163.228 0 .34.075.34.292a14.924 14.924 0 01-.12 1.594c-.079.716-.12 1.25-.12 1.611 0 .196-.163.292-.488.292-.133 0-.616-.038-1.448-.113-.608-.066-1.974-.095-4.101-.095-1.786 0-2.914 0-3.397.062a.74.74 0 00-.75.683V33.88c0 1.128.175 1.836.52 2.115.271.229.95.341 2.032.341h1.79c.758 0 2.89-.129 6.395-.387h.242c.229-.066.337.071.337.362zM69.788 28.052a12.452 12.452 0 01-2.602 7.91c-1.888 2.42-4.306 3.63-7.257 3.63-.562 0-1.411-.025-2.544-.067a78.676 78.676 0 00-2.543-.066c-.562 0-1.278.025-2.302.066a64.468 64.468 0 01-2.303.067.362.362 0 01-.416-.416c0-1.183.047-2.966.142-5.35.094-2.384.14-4.174.137-5.37 0-1.258-.043-3.15-.13-5.675-.085-2.526-.13-4.417-.132-5.674 0-.23.141-.342.416-.342h7.011c3.758 0 6.56.71 8.405 2.128a9.966 9.966 0 013.077 4.117 12.74 12.74 0 011.04 5.042zm-3.984 0c0-2.343-.668-4.251-2.003-5.725-1.388-1.532-3.242-2.297-5.562-2.294-1.918 0-2.692-.01-2.323-.033-1.27.062-1.907.3-1.907.7 0 .832-.018 2.081-.054 3.746a223.466 223.466 0 00-.058 3.747c0 .833.02 2.07.058 3.71.038 1.665.054 2.88.054 3.705 0 .416.654.653 1.953.716h2.377a9.294 9.294 0 002.977-.387 5.702 5.702 0 002.452-1.799 9.234 9.234 0 002.035-6.086zM91.061 17.12c0 1.262-.05 3.146-.154 5.653-.102 2.506-.152 4.39-.15 5.653v3.676c0 2.265-.21 3.836-.632 4.713-.65 1.343-1.912 2.255-3.789 2.735a20.878 20.878 0 01-4.862.417c-3.797 0-6.285-.629-7.465-1.886-.913-.974-1.37-2.926-1.37-5.854v-1.815-2.006c0-1.283-.054-3.642-.162-7.078 0-.888-.049-2.216-.146-3.984v-.258c0-.23.142-.342.417-.342h3.592c.25 0 .375.1.375.296 0 1.649-.036 4.126-.108 7.431-.072 3.306-.107 5.783-.104 7.432 0 1.865.416 3.129 1.249 3.792.716.583 2.031.879 3.95.879 1.75 0 2.99-.242 3.748-.716.932-.6 1.398-1.71 1.398-3.33 0-1.716-.027-4.289-.083-7.72-.055-3.43-.082-6.003-.079-7.718 0-.17.154-.279.47-.325.325-.03.65-.03.975 0l.716.067c.194 0 .49-.017.887-.05.395-.034.69-.046.886-.046.304.03.441.146.441.383zM112.406 38.818c0 .508-.158.766-.47.766h-3.747c-.311 0-1.128-1.156-2.452-3.468a46.451 46.451 0 01-2.232-4.226c-.366-.832-.578-1.303-.632-1.399a1.514 1.514 0 00-1.137-.861h-1.091c-1.365 0-2.048.167-2.048.503 0 .995.033 2.498.104 4.472.07 1.973.104 3.472.104 4.458 0 .358-.133.537-.416.537-.208 0-.516 0-.929-.05-.412-.05-.72-.05-.928-.05-.208 0-.483 0-.87.05s-.675.05-.87.05c-.27 0-.416-.125-.416-.374 0-1.197.056-2.988.17-5.375.114-2.387.17-4.18.17-5.379 0-1.257-.056-3.146-.17-5.666-.116-2.523-.17-4.409-.17-5.67 0-.238.133-.354.416-.354.195 0 .495 0 .895.046.4.045.704.05.912.05.208 0 .487 0 .878-.05s.683-.046.879-.046c.195 0 .374.096.374.291 0 .92-.029 2.31-.091 4.163a131.429 131.429 0 00-.088 4.164c-.02.267.007.536.08.795.087.195.307.295.665.295 2.107 0 3.647-.39 4.622-1.174.832-.69 1.627-1.965 2.373-3.821a321.524 321.524 0 001.627-4.36.672.672 0 01.504-.37 11.41 11.41 0 011.724-.066c1.195 0 1.79.166 1.79.503a19.749 19.749 0 01-.75 2.636 18.909 18.909 0 01-2.277 4.812 15.71 15.71 0 01-2.456 2.848.91.91 0 00-.387.616c0 .194.438 1.166 1.315 2.914a33.504 33.504 0 002.082 3.627c.683.832 1.637 2.117 2.864 3.855.053.094.08.2.079.308zM118.743 39.242c0 .225-.158.342-.471.342-.195 0-.495 0-.895-.05-.399-.05-.699-.05-.895-.05-.195 0-.512 0-.912.05-.399.05-.699.05-.895.05-.27 0-.416-.125-.416-.375 0-1.238.057-3.1.171-5.587.114-2.487.17-4.355.17-5.604 0-1.204-.056-3.008-.17-5.412-.114-2.403-.171-4.207-.171-5.412 0-.27.125-.416.375-.416s.52 0 .941.046c.42.045.741.05.961.05.221 0 .487 0 .879-.05.391-.05.683-.046.878-.046.279 0 .416.108.416.324 0 1.213-.043 3.034-.129 5.462-.086 2.43-.129 4.251-.129 5.467 0 1.246.046 3.117.138 5.612.091 2.495.143 4.361.154 5.6zM28.843 38.772c0 .833-.25 1.249-.754 1.249h-5.995c-.505 0-1.817-1.85-3.934-5.55a74.871 74.871 0 01-3.568-6.777c-.591-1.337-.933-2.082-1.016-2.24-.524-.87-1.132-1.328-1.823-1.382-.209-.017-.791-.025-1.749-.025-2.184 0-3.278.269-3.28.807 0 1.599.055 3.987.166 7.165.111 3.178.174 5.55.187 7.115 0 .575-.216.862-.649.862-.333 0-.833-.03-1.486-.08-.654-.05-1.158-.078-1.487-.078-.328 0-.778.025-1.394.079a17.06 17.06 0 01-1.395.079C.222 39.999 0 39.8 0 39.4c0-1.909.092-4.773.275-8.592.183-3.82.273-6.69.27-8.61 0-2.015-.09-5.041-.27-9.08C.095 9.08.003 6.046 0 4.018c0-.384.216-.575.65-.575.316 0 .79.025 1.436.08.645.053 1.128.078 1.457.078.329 0 .783-.029 1.407-.079.625-.05 1.095-.079 1.407-.079.417 0 .6.158.6.47 0 1.474-.047 3.695-.142 6.662-.094 2.966-.146 5.2-.154 6.702-.03.43.014.863.13 1.278.14.313.495.467 1.07.467 3.366 0 5.832-.625 7.397-1.874 1.34-1.11 2.61-3.151 3.805-6.124l2.615-6.982a1.077 1.077 0 01.803-.599 18.817 18.817 0 012.765-.112c1.912 0 2.868.277 2.868.832 0 .314-.4 1.721-1.199 4.222a30.37 30.37 0 01-3.647 7.71 25.646 25.646 0 01-3.934 4.58 1.453 1.453 0 00-.625.974c0 .313.704 1.869 2.111 4.667a53.659 53.659 0 003.306 5.828c1.096 1.313 2.63 3.365 4.6 6.157a.987.987 0 01.117.47z" fill="#fff"/>
    </g>
    <defs>
        <clipPath id="clip0">
            <path fill="#fff" d="M0 0h118.743v40H0z"/>
        </clipPath>
    </defs>
</svg>
