<svg viewBox="0 0 100 19" fill="none" xmlns="http://www.w3.org/2000/svg">
    <g clip-path="url(#clip0)">
        <path d="M85.745 17.996a.975.975 0 01-.952-1.194l1.181-5.204-4.007-3.515a.976.976 0 01.553-1.709l5.303-.481L89.92.987a.976.976 0 011.795 0l2.096 4.906 5.302.481a.975.975 0 01.554 1.709l-4.007 3.513 1.182 5.204a.976.976 0 01-1.452 1.056l-4.573-2.733-4.572 2.734a.97.97 0 01-.5.139zm5.071-4.05c.174 0 .346.047.501.139l4.315 2.58-1.115-4.912a.975.975 0 01.309-.951l3.784-3.32-5.006-.454a.972.972 0 01-.81-.59l-1.978-4.63-1.978 4.63a.971.971 0 01-.81.59l-5.006.454 3.784 3.319a.975.975 0 01.31.952L86 16.666l4.315-2.581a.982.982 0 01.501-.139zM87.782 5.99zm6.068-.003v.001z" fill="#444"/>
    </g>
    <g clip-path="url(#clip1)">
        <path d="M65.337 17.996a.976.976 0 01-.952-1.194l1.181-5.204-4.007-3.515a.976.976 0 01.553-1.709l5.303-.481L69.51.987a.976.976 0 011.796 0L73.4 5.892l5.303.481a.975.975 0 01.554 1.709l-4.007 3.513 1.182 5.204a.976.976 0 01-1.452 1.056l-4.573-2.733-4.572 2.734a.97.97 0 01-.5.139zm5.071-4.05c.174 0 .346.047.5.139l4.316 2.58-1.115-4.912a.975.975 0 01.309-.951l3.784-3.32-5.007-.454a.972.972 0 01-.81-.59l-1.977-4.63-1.978 4.63a.971.971 0 01-.81.59l-5.006.454 3.784 3.319a.975.975 0 01.31.952l-1.116 4.913 4.315-2.581a.982.982 0 01.501-.139zM67.374 5.99zm6.068-.003v.001z" fill="#444"/>
    </g>
    <g clip-path="url(#clip2)">
        <path d="M44.928 17.996a.976.976 0 01-.952-1.194l1.182-5.204-4.008-3.515a.976.976 0 01.554-1.709l5.303-.481L49.102.987a.976.976 0 011.796 0l2.095 4.906 5.302.481a.975.975 0 01.554 1.709l-4.006 3.513 1.182 5.204a.976.976 0 01-1.452 1.056L50 15.123l-4.572 2.734a.97.97 0 01-.5.139zM50 13.946c.174 0 .346.047.5.139l4.316 2.58-1.116-4.912a.975.975 0 01.31-.951l3.783-3.32-5.006-.454a.972.972 0 01-.81-.59L50 1.807l-1.978 4.63a.971.971 0 01-.81.59l-5.006.454L45.99 10.8a.975.975 0 01.309.952l-1.115 4.913 4.315-2.581a.982.982 0 01.501-.139zM46.965 5.99zm6.069-.003v.001z" fill="#444"/>
    </g>
    <g clip-path="url(#clip3)">
        <path d="M24.52 17.996a.976.976 0 01-.952-1.194l1.182-5.204-4.008-3.515a.976.976 0 01.554-1.709l5.303-.481L28.694.987a.976.976 0 011.796 0l2.095 4.906 5.302.481a.975.975 0 01.554 1.709l-4.006 3.513 1.181 5.204a.976.976 0 01-1.451 1.056l-4.573-2.733-4.572 2.734a.97.97 0 01-.5.139zm5.072-4.05c.174 0 .346.047.5.139l4.315 2.58-1.115-4.912a.975.975 0 01.31-.951l3.783-3.32-5.006-.454a.972.972 0 01-.81-.59l-1.977-4.63-1.979 4.63a.971.971 0 01-.81.59l-5.005.454L25.58 10.8a.975.975 0 01.31.952l-1.115 4.913 4.315-2.581a.982.982 0 01.5-.139zM26.557 5.99zm6.069-.003v.001z" fill="#444"/>
    </g>
    <g clip-path="url(#clip4)">
        <path d="M4.112 17.996a.976.976 0 01-.952-1.194l1.181-5.204L.334 8.083a.976.976 0 01.553-1.709l5.303-.481L8.286.987a.976.976 0 011.795 0l2.096 4.906 5.302.481a.975.975 0 01.554 1.709l-4.006 3.513 1.181 5.204a.976.976 0 01-1.452 1.056l-4.572-2.733-4.572 2.734a.97.97 0 01-.5.139zm5.072-4.05c.173 0 .345.047.5.139L14 16.665l-1.115-4.912a.975.975 0 01.31-.951l3.783-3.32-5.006-.454a.972.972 0 01-.81-.59l-1.977-4.63-1.979 4.63a.971.971 0 01-.81.59l-5.005.454L5.173 10.8a.975.975 0 01.31.952l-1.116 4.913 4.315-2.581a.983.983 0 01.502-.139zM6.149 5.99zm6.068-.003v.001z" fill="#444"/>
    </g>
    <defs>
        <clipPath id="clip0">
            <path fill="#fff" transform="translate(81.633)" d="M0 0h18.367v18.367H0z"/>
        </clipPath>
        <clipPath id="clip1">
            <path fill="#fff" transform="translate(61.225)" d="M0 0h18.367v18.367H0z"/>
        </clipPath>
        <clipPath id="clip2">
            <path fill="#fff" transform="translate(40.816)" d="M0 0h18.367v18.367H0z"/>
        </clipPath>
        <clipPath id="clip3">
            <path fill="#fff" transform="translate(20.408)" d="M0 0h18.367v18.367H0z"/>
        </clipPath>
        <clipPath id="clip4">
            <path fill="#fff" d="M0 0h18.367v18.367H0z"/>
        </clipPath>
    </defs>
</svg>
