<svg viewBox="0 0 80 80" fill="none" xmlns="http://www.w3.org/2000/svg">
    <g filter="url(#filter0_d)">
        <path d="M60 42.552c0 .647-.525 1.172-1.172 1.172H27.811a2.36 2.36 0 01-2.338-2.064l-.332-2.658a2.358 2.358 0 012.329-2.648l5.03-.026a1.171 1.171 0 01.006 2.344c-5.226.027-5.035.02-5.04.035.356 2.856.328 2.673.345 2.673h31.017c.647 0 1.172.525 1.172 1.172z" fill="#00357B"/>
        <path d="M60 42.552c0 .647-.525 1.172-1.172 1.172H43.75v-2.343h15.078c.647 0 1.172.524 1.172 1.171z" fill="#001737"/>
        <path d="M33.724 41.38a4.315 4.315 0 00-4.31 4.31 4.315 4.315 0 004.31 4.31 4.315 4.315 0 004.31-4.31 4.315 4.315 0 00-4.31-4.31z" fill="#00357B"/>
        <path d="M52.552 41.38a4.315 4.315 0 00-4.31 4.31 4.315 4.315 0 004.31 4.31 4.315 4.315 0 004.31-4.31 4.315 4.315 0 00-4.31-4.31z" fill="#001737"/>
        <path d="M28.702 18.62a1.172 1.172 0 01-1.152-.963l-.954-5.257c-.016-.087.247-.056-5.424-.056a1.172 1.172 0 010-2.344h5.356a2.41 2.41 0 012.373 1.981l.955 5.258c.13.716-.42 1.381-1.154 1.381z" fill="#00357B"/>
        <path d="M57.13 16.325l-28.425-.05c-.726 0-1.27.648-1.16 1.354l3.138 20.083c.09.57.581.991 1.158.991h24.395c2.101 0 3.686-1.592 3.686-3.703V19.121a2.8 2.8 0 00-2.791-2.796z" fill="#FFEC00"/>
        <path d="M60 19.121V35c0 2.11-1.587 3.703-3.692 3.703H43.75V16.302l13.455.023A2.802 2.802 0 0160 19.121z" fill="#FFD92E"/>
        <path d="M50.637 24.347l-4.634 4.637a3.172 3.172 0 01-4.488 0l-4.634-4.637c-1.111-1.113-.322-3.019 1.252-3.019h1.955v-7.5c0-1.379 1.122-2.5 2.5-2.5h2.342c1.378 0 2.5 1.121 2.5 2.5v7.5h1.956c1.573 0 2.362 1.906 1.25 3.019z" fill="#58B354"/>
        <path d="M50.637 24.347l-4.634 4.637c-.6.599-1.396.93-2.244.93-.014 0-.01.882-.01-18.586h1.18c1.379 0 2.5 1.121 2.5 2.5v7.5h1.957c1.572 0 2.362 1.906 1.25 3.019z" fill="#00A963"/>
    </g>
    <defs>
        <filter id="filter0_d" x="0" y="0" width="80" height="80" filterUnits="userSpaceOnUse" color-interpolation-filters="sRGB">
            <feFlood flood-opacity="0" result="BackgroundImageFix"/>
            <feColorMatrix in="SourceAlpha" values="0 0 0 0 0 0 0 0 0 0 0 0 0 0 0 0 0 0 127 0"/>
            <feOffset dy="10"/>
            <feGaussianBlur stdDeviation="10"/>
            <feColorMatrix values="0 0 0 0 0 0 0 0 0 0 0 0 0 0 0 0 0 0 0.25 0"/>
            <feBlend in2="BackgroundImageFix" result="effect1_dropShadow"/>
            <feBlend in="SourceGraphic" in2="effect1_dropShadow" result="shape"/>
        </filter>
    </defs>
</svg>
