<svg viewBox="0 0 81 80" fill="none" xmlns="http://www.w3.org/2000/svg">
    <g filter="url(#filter0_d)">
        <path d="M57.753 24.402v19.534c0 1.576-1.182 2.86-2.634 2.86-2.57 0-2.384-.012-2.392.021 0 .049-.471.22-.676.681-.537 1.26-1.666 1.875-3.125 1.875H24.554c-2.131 0-3.125-1.002-3.125-3.125 0-24.433-.656-22.744-.553-23.335.4-2.285 2.454-4.084 4.99-4.084h2.532c.647 0 1.172.525 1.172 1.172h17.716c0-.647.525-1.172 1.171-1.172h4.31c2.75 0 4.986 2.5 4.986 5.573z" fill="#E9F3FF"/>
        <path d="M49.63 11.174V27.5c0 .647-.526 1.172-1.172 1.172H28.46a1.172 1.172 0 01-1.172-1.172V11.174c0-.647.525-1.172 1.172-1.172h19.998c.646 0 1.171.525 1.171 1.172z" fill="#58B354"/>
        <path d="M49.63 11.174V27.5c0 .647-.526 1.172-1.173 1.172H38.302v-18.67h10.155c.647 0 1.172.525 1.172 1.172z" fill="#00A963"/>
        <path d="M43.458 15.08h-10c-.646 0-1.17.525-1.17 1.171v11.25c0 .646.524 1.171 1.17 1.171h10c.647 0 1.172-.525 1.172-1.172V16.252c0-.647-.525-1.172-1.172-1.172zm-1.172 11.248H39.63v-3.827a1.172 1.172 0 00-2.343 0v3.827H34.63v-8.905h7.655v8.905z" fill="#ECF9FD"/>
        <path d="M44.63 16.252V27.5c0 .647-.525 1.172-1.172 1.172h-5.156V21.34a1.172 1.172 0 011.328 1.16v3.828h2.656v-8.905h-3.984V15.08h5.156c.647 0 1.172.525 1.172 1.171z" fill="#D9F3FC"/>
        <path d="M52.754 47.335a2.666 2.666 0 01-2.663 2.663H24.655c-2.13 0-3.851-1.8-3.851-3.922 0-24.433-.03-22.572.072-23.163.51 2.498 3.617 3.415 4.99 3.415h25.716c.647 0 1.172.526 1.172 1.172v19.835z" fill="#FFEC00"/>
        <path d="M52.754 47.335a2.666 2.666 0 01-2.663 2.663H38.302v-23.67h13.28c.647 0 1.172.526 1.172 1.172v19.835z" fill="#FFD92E"/>
        <path d="M60.8 33.125v7.499c0 .647-.525 1.172-1.172 1.172H47.587a3.58 3.58 0 01-3.582-3.569v-2.706a3.579 3.579 0 013.581-3.568h12.042c.647 0 1.172.525 1.172 1.172z" fill="#FCBE00"/>
    </g>
    <defs>
        <filter id="filter0_d" x=".8" y=".002" width="80" height="79.996" filterUnits="userSpaceOnUse" color-interpolation-filters="sRGB">
            <feFlood flood-opacity="0" result="BackgroundImageFix"/>
            <feColorMatrix in="SourceAlpha" values="0 0 0 0 0 0 0 0 0 0 0 0 0 0 0 0 0 0 127 0"/>
            <feOffset dy="10"/>
            <feGaussianBlur stdDeviation="10"/>
            <feColorMatrix values="0 0 0 0 0 0 0 0 0 0 0 0 0 0 0 0 0 0 0.25 0"/>
            <feBlend in2="BackgroundImageFix" result="effect1_dropShadow"/>
            <feBlend in="SourceGraphic" in2="effect1_dropShadow" result="shape"/>
        </filter>
    </defs>
</svg>
