<svg viewBox="0 0 83 80" fill="none" xmlns="http://www.w3.org/2000/svg">
    <g filter="url(#filter0_d)">
        <path d="M62.693 38.545c-.535 1.478-1.902 2.25-2.062 2.25l-7.51 3.36C38.57 50.09 38.839 50.36 36.9 49.633c-2.14-.806-.836.761-11.738-18.585-.764-1.332-.911-3.562.137-5.237 7.262-12.884 8.398-15.696 11.431-15.727.2.014-1.351-.31 15.123 3.322 1.388.324 3.096 1.632 3.926 3.435.032.069-.483-1.34 6.799 18.674.43.967.471 2.041.115 3.031z" fill="#E9F3FF"/>
        <path d="M53.488 26.71v19.118c0 2.253-1.824 4.086-4.066 4.086h-25.09c-2.241 0-4.065-1.833-4.065-4.086V26.711c0-1.798.755-3.525 2.074-4.738 12.472-11.48 12.378-11.87 14.389-11.89 2.327 0 1.602-.152 14.683 11.89a6.453 6.453 0 012.075 4.738z" fill="#FFEC00"/>
        <path d="M53.488 26.711V45.83c0 2.253-1.824 4.085-4.065 4.085H36.877V10.083c2.153-.005 1.756.126 14.537 11.89a6.454 6.454 0 012.074 4.738z" fill="#FFD92E"/>
        <path d="M38.13 17.998c0 1.653-2.505 1.652-2.505 0 0-1.653 2.504-1.653 2.504 0z" fill="#37065E"/>
        <path d="M41.1 27.156l-6.086 14.503a1.25 1.25 0 11-2.306-.967l6.086-14.503a1.25 1.25 0 012.305.967z" fill="#FF2828"/>
        <path d="M41.1 27.156l-4.223 10.062v-6.462l1.917-4.567a1.25 1.25 0 012.305.967z" fill="#C00"/>
        <path d="M34.572 29.122c0-2.413-1.767-4.376-3.939-4.376s-3.939 1.963-3.939 4.376c0 2.412 1.767 4.375 3.939 4.375s3.939-1.963 3.939-4.375zm-3.939 1.875c-.78 0-1.439-.859-1.439-1.875 0-1.017.659-1.876 1.439-1.876s1.439.86 1.439 1.876-.659 1.875-1.439 1.875z" fill="#FF2828"/>
        <path d="M43.246 34.663c-2.171 0-3.938 1.962-3.938 4.375 0 2.412 1.767 4.375 3.938 4.375 2.172 0 3.94-1.963 3.94-4.375 0-2.413-1.767-4.375-3.94-4.375zm0 6.25c-.78 0-1.438-.859-1.438-1.875 0-1.017.659-1.875 1.438-1.875.78 0 1.44.858 1.44 1.875 0 1.016-.66 1.875-1.44 1.875z" fill="#C00"/>
    </g>
    <defs>
        <filter id="filter0_d" x=".267" y=".081" width="82.667" height="79.838" filterUnits="userSpaceOnUse" color-interpolation-filters="sRGB">
            <feFlood flood-opacity="0" result="BackgroundImageFix"/>
            <feColorMatrix in="SourceAlpha" values="0 0 0 0 0 0 0 0 0 0 0 0 0 0 0 0 0 0 127 0"/>
            <feOffset dy="10"/>
            <feGaussianBlur stdDeviation="10"/>
            <feColorMatrix values="0 0 0 0 0 0 0 0 0 0 0 0 0 0 0 0 0 0 0.25 0"/>
            <feBlend in2="BackgroundImageFix" result="effect1_dropShadow"/>
            <feBlend in="SourceGraphic" in2="effect1_dropShadow" result="shape"/>
        </filter>
    </defs>
</svg>
