<svg xmlns="http://www.w3.org/2000/svg" viewBox="0 0 47.94 47.94">
    <path d="M25.664 8.253l3.955 8.015c.275.557.807.944 1.422 1.033l8.846 1.285c1.55.226 2.167 2.13 1.047 3.221l-6.4 6.24a1.889 1.889 0 00-.544 1.671l1.511 8.81c.265 1.542-1.355 2.719-2.74 1.99l-7.912-4.158a1.89 1.89 0 00-1.758 0l-7.91 4.159c-1.386.729-3.006-.449-2.741-1.991l1.51-8.81a1.889 1.889 0 00-.542-1.672l-6.4-6.239c-1.122-1.092-.504-2.996 1.046-3.22l8.845-1.286a1.888 1.888 0 001.423-1.033l3.955-8.015c.692-1.404 2.694-1.404 3.387 0z" data-original="#ED8A19" class="active-path" fill="#ED8A19"/>
</svg>
