<svg version="1.1" id="&#x421;&#x43B;&#x43E;&#x439;_1" xmlns="http://www.w3.org/2000/svg" x="0" y="0" viewBox="0 0 336 479.55" xml:space="preserve">
    <style>
        .st0{fill:#fff}
    </style>
    <g id="outline_3_">
        <path class="st0" d="M168-.45C75.26-.34.11 74.81 0 167.55v240c0 22.09 17.91 40 40 40s40-17.91 40-40v-8c14.22 10.69 33.78 10.69 48 0v40c0 22.09 17.91 40 40 40s40-17.91 40-40v-72c14.22 10.69 33.78 10.69 48 0v56c0 22.09 17.91 40 40 40s40-17.91 40-40v-256c-.11-92.74-75.26-167.89-168-168zm152 424c0 13.25-10.75 24-24 24s-24-10.75-24-24v-88h-16c0 13.25-10.75 24-24 24s-24-10.75-24-24h-16v104c0 13.25-10.75 24-24 24s-24-10.75-24-24v-72h-16c0 13.25-10.75 24-24 24s-24-10.75-24-24H64v40c0 13.25-10.75 24-24 24s-24-10.75-24-24v-240c0-83.95 68.05-152 152-152s152 68.05 152 152v256z"/>
        <path class="st0" d="M64 335.55h16v16H64zM256 303.55h16v16h-16zM168 79.55c-57.44 0-104 46.56-104 104s46.56 104 104 104 104-46.56 104-104c-.07-57.41-46.59-103.93-104-104zm0 192c-45.48-.05-83.45-34.71-87.64-80h16.11c4.55 39.5 40.25 67.84 79.76 63.3 33.25-3.83 59.47-30.05 63.3-63.3h16.11c-4.19 45.29-42.16 79.95-87.64 80zm0-48c19-.02 35.37-13.39 39.2-32h16.24c-4.39 30.61-32.77 51.87-63.39 47.48-24.61-3.53-43.94-22.87-47.48-47.48h16.22c3.83 18.61 20.21 31.98 39.21 32zm-22.64-32h45.26c-4.41 12.5-18.12 19.06-30.62 14.64a23.982 23.982 0 01-14.64-14.64zm-65-16c4.39-48.4 47.19-84.08 95.59-79.69 42.32 3.84 75.85 37.37 79.69 79.69H80.36z"/>
        <path class="st0" d="M104 159.55h16c0-31.49 46.06-32 48-32v-16c-22.14 0-64 10.03-64 48zM168 31.55v16c.67 0 67.82.8 97.06 52l13.89-7.94C245.03 32.23 171.13 31.55 168 31.55z"/>
    </g>
</svg>
