<svg version="1.1" id="&#x421;&#x43B;&#x43E;&#x439;_1" xmlns="http://www.w3.org/2000/svg" x="0" y="0" viewBox="0 0 320 467" xml:space="preserve">
    <style>
        .st1{fill:#46a5c6}
    </style>
    <g id="flat">
        <path d="M320 163C320 74.63 248.37 3 160 3S0 74.63 0 163v240c0 17.67 14.33 32 32 32s32-14.33 32-32v-40c0 17.67 14.33 32 32 32s32-14.33 32-32v72c0 17.67 14.33 32 32 32s32-14.33 32-32V331c0 17.67 14.33 32 32 32s32-14.33 32-32v88c0 17.67 14.33 32 32 32s32-14.33 32-32V163z" fill="#083a4f"/>
        <path class="st1" d="M56 331h16v16H56zM248 299h16v16h-16zM257.05 95c-29.25-51.2-96.39-52-97.06-52V27c3.14 0 77.03.68 110.94 60l-13.88 8z"/>
    </g>
</svg>
