<svg version="1.1" id="_x31_" xmlns="http://www.w3.org/2000/svg" x="0" y="0" viewBox="0 0 174 190" xml:space="preserve">
    <style>
        .st0{fill:#552e6d}.st1{fill:#ba9bc9}.st2{fill:#cbacdd}.st3{fill:#fff}
    </style>
    <g id="robot_2_">
        <path class="st0" d="M103.8 155.5v9.9c0 13.9-6 25.1-13.4 25.1h-6.7c-7.4 0-13.4-11.2-13.4-25.1v-9.9h33.5zM87.1 20.6c-5.5 0-10-1.5-10-3.4V3.9c0-1.8 4.5-3.4 10-3.4s10 1.5 10 3.4v13.4c0 1.8-4.5 3.3-10 3.3zM157.9 103.9h2.8c7.4 0 13.4-6 13.4-13.4v-20c0-7.4-173.9-7.4-173.9 0v20.1c0 7.4 6 13.4 13.4 13.4l144.3-.1z"/>
        <path class="st1" d="M160.6 83.8c0 40.6-33 73.6-73.6 73.6s-73.6-33-73.6-73.6 33-73.6 73.6-73.6c40.7.1 73.6 33 73.6 73.6z"/>
        <path class="st2" d="M160.6 83.8c0 19.5-7.7 38.2-21.5 52s-32.5 21.5-52 21.5v-147c40.6 0 73.5 32.9 73.5 73.5z"/>
        <path class="st1" d="M43.6 170.8h86.9c3.7 0 6.7 3 6.7 6.7v13.4H36.9v-13.4c0-3.7 3-6.7 6.7-6.7z"/>
        <path class="st2" d="M137.2 177.5v13.4H87.1v-20.1h43.5c3.6 0 6.6 3 6.6 6.7z"/>
        <path class="st0" d="M62 53.7c-2.2 0-4-1.5-4-3.4V13c0-1.8 1.8-3.4 4-3.4s4 1.5 4 3.4v37.3c0 1.9-1.8 3.4-4 3.4zM112.1 53.7c-2.2 0-4-1.5-4-3.4V13c0-1.8 1.8-3.4 4-3.4s4 1.5 4 3.4v37.3c0 1.9-1.8 3.4-4 3.4z"/>
        <path class="st3" d="M67 87.2c0 7.4-6 13.4-13.4 13.4s-13.4-6-13.4-13.4 6-13.4 13.4-13.4S67 79.8 67 87.2zM133.9 87.2c0 7.4-6 13.4-13.4 13.4s-13.4-6-13.4-13.4 6-13.4 13.4-13.4 13.4 6 13.4 13.4z"/>
        <path class="st0" d="M63.7 87.2c0 5.5-4.5 10-10 10s-10-4.5-10-10 4.5-10 10-10 10 4.4 10 10zM130.5 87.2c0 5.5-4.5 10-10 10s-10-4.5-10-10 4.5-10 10-10 10 4.4 10 10zM87.1 120.6c-23.2 0-23.4-12.8-23.4-13.4 0-1.8 1.5-3.4 3.3-3.4 1.8 0 3.4 1.5 3.4 3.3.2 2.4 3.9 6.8 16.7 6.8 12.8 0 16.5-4.4 16.7-6.8.2-1.8 1.7-3.2 3.5-3.2s3.2 1.5 3.2 3.3c0 .6-.3 13.4-23.4 13.4zM43.6 149.7c-2.2 0-4-1.5-4-3.4V131c0-1.8 1.8-3.4 4-3.4s4 1.5 4 3.4v15.4c0 1.8-1.8 3.3-4 3.3zM130.5 149.7c-2.2 0-4-1.5-4-3.4V131c0-1.8 1.8-3.4 4-3.4s4 1.5 4 3.4v15.4c0 1.8-1.8 3.3-4 3.3z"/>
        <path class="st3" d="M57.2 87.2c0 2.2-1.8 4-4 4s-4-1.8-4-4 1.8-4 4-4 4 1.8 4 4zM124.2 87.2c0 2.2-1.8 4-4 4s-4-1.8-4-4 1.8-4 4-4 4 1.8 4 4z"/>
    </g>
</svg>
