<svg viewBox="0 0 85 85" fill="none" xmlns="http://www.w3.org/2000/svg">
    <path fill-rule="evenodd" clip-rule="evenodd" d="M20.442 9.005c3.64 2.023 5.76 4.364 8.123 7.72-.03-.586-.055 1.56-.038-1.756.017-3.317-1.9-8.688.713-11.377 1.026-1.048 6.044-3.02 7.25-3.33 2.31-.594 4.983-.195 7.85 1.37 4.345 2.38 8.294 7.012 11.153 12.582 2.859 5.57 4.666 14.88 4.666 18.24 0 3.36 0 1.162-.051 1.726 2.422-.73 4.594-.717 8.335 1.35 3.742 2.065 8.454 7.176 11.377 12.844 2.923 5.667 4.768 12.348 4.78 18.55 0 4.844-1.094 8.691-2.968 11.35-1.876 2.66-5.553 4.272-8.15 5.134-7.44 2.583-21.781-12.501-29.349-16.786L20.158 53.048c-4.331-2.452-8.213-7.122-10.995-12.7-2.783-5.578-4.45-12.051-4.39-18.096.03-3.534-2.546-8.832.788-11.372 5.171-3.929 10.72-4.175 14.881-1.875z" fill="#8D6DFC"/>
    <path fill-rule="evenodd" clip-rule="evenodd" d="M16.234 10.833c3.635 2.01 5.764 4.365 8.123 7.72-.03-.585-.055 1.56-.038-1.76.017-3.322 1.82-10.576 4.666-12.99 2.846-2.413 6.787-2.723 11.14-.343 4.351 2.38 8.292 7.012 11.151 12.582 2.86 5.57 4.666 14.88 4.666 18.24 0 3.36 0 1.162-.05 1.726 2.421-.73 4.593-.72 8.335 1.35 3.741 2.07 8.454 7.177 11.376 12.844 2.923 5.667 4.768 12.301 4.781 18.55.013 6.248-1.799 10.872-4.73 13.315-2.93 2.443-6.973 2.664-11.427.144l-24.315-13.76-23.971-13.575c-4.335-2.451-8.217-7.122-11-12.7C2.16 36.598.48 30.138.54 24.093c.059-6.045 1.828-10.541 4.666-12.934 2.838-2.392 7.393-2.337 11.029-.326z" fill="url(#paint0_linear)"/>
    <path fill-rule="evenodd" clip-rule="evenodd" d="M24.633 40.793l-7.457-4.305L28.9 56.794l11.801-6.723-7.453-4.306.022-19.118-8.616-4.976-.02 19.122z" fill="#fff"/>
    <path fill-rule="evenodd" clip-rule="evenodd" d="M50.466 49.074l7.453 4.301-11.724-20.302-11.797 6.724 7.449 4.301-.022 19.123 8.62 4.971.021-19.118z" fill="#fff"/>
    <defs>
        <linearGradient id="paint0_linear" x1="19.364" y1="-12.642" x2="48.264" y2="68.552" gradientUnits="userSpaceOnUse">
            <stop stop-color="#FD90DA"/>
            <stop offset="1" stop-color="#8E6DFD"/>
        </linearGradient>
    </defs>
</svg>
