<svg viewBox="0 0 180 356" fill="none" xmlns="http://www.w3.org/2000/svg">
    <path fill-rule="evenodd" clip-rule="evenodd" d="M92.482 2.015c-5.587-.848-10.002 2.97-12.238 8.11-2.613 5.999-2.486 13.77-1.366 17.846 3.64 13.252-2.774 19.025-5.132 25.197-1.04 2.724-1.493 6.287-1.362 10.215.157 4.747 2.893 7.211 5.184 11.453.58 4.34 1.645 8.36 3.342 11.75 6.282 12.569 27.424 18.639 47.717 17.71 16.243-.742 31.942-6.49 39.047-13.095 7.801-7.25 8.806-25.65-4.293-27.525-3.05-.425-6.604-1.103-9.209-4.242-1.794-2.172-.063-7.894.369-15.513.424-7.38-1.272-15.143-11.992-17.731-4.11-.993-8.114-1.4-11.542-3.652-7.491-4.917-4.751-14.05-12.874-19.428-4.904-3.245-12.798-3.95-21.422-1.557-1.391.127-2.804.305-4.229.462z" fill="url(#paint0_linear)"/>
    <path fill-rule="evenodd" clip-rule="evenodd" d="M87.633 8.959c-.466 3.601.849 6.74 2.995 9.756 4.993 7.046 7.636 6.495 10.351 15.47 4.492-2.998 7.571-3.457 8.869-.513 2.083 4.734.768 7.534 1.273 12.433.789 7.962 10.304-2.969 17.765 3.148 7.334 5.998 2.299 10.21 5.133 18.702 1.06 3.178 1.883 7.356 4.852 8.76 9.227 4.37 12.76 15.364-3.669 20.828-10.18 3.393-24.951 2.545-37.295-1.697-16.301-5.557-26.355-29.604-22.193-41.028 1.697-4.725 6.363-8.259 6.392-11.953.064-12.663-2.405-20.803 5.528-33.906z" fill="#22043D"/>
    <path fill-rule="evenodd" clip-rule="evenodd" d="M13.68 20.209c-2.485.806-1.166 3.69-.211 4.51 1.433 1.42 4.326 2.345 4.076 3.817-.28 1.697 9.056 4.912 9.035 4.776-1.378-4.543-3.792-7.211-4.305-7.572-5.01-3.313-4.437-1.175-8.594-5.531z" fill="url(#paint1_linear)"/>
    <path fill-rule="evenodd" clip-rule="evenodd" d="M20.213 39.458c5.366 7.156 9.608 20.976 14.995 27.42 1.697 2.032 4.242 5.387 7.173 4.874 15.27-2.651 1.37-8.565 3.003-12.726-2.57-8.98-13.49-13.998-17.977-23.937a17.869 17.869 0 00-.819-2.01c-1.853-3.776-3.618-4.926-10.804-6.287-2.091-.395-2.795-1.086-4.085-2.121l-4.708-4.666c-1.557-1.273-2.872-1.697-3.521-1.345-.721.373-2.668 4.11-2.728 6.125-.263.76.569 2.121 2.41 3.572l5.845 8.17.513.072c6.516.887 9.108 1.51 10.703 2.859z" fill="#FFA698"/>
    <path fill-rule="evenodd" clip-rule="evenodd" d="M44.706 74.793c10.558-1.043 25.688-2.719 33.863-6.931 5.315-2.74 14.897-14.507 9.501-21.04-1.136-3.058-11.33 3.368-16.348 5.273-9.06 3.444-15.063 5.06-24.45 7.461-2.545-7.156-9.298-12.819-14.635-19.478a8.175 8.175 0 00-2.969-2.397 12.681 12.681 0 01-1.697-2.545c-.903-.365-6.63 2.015-8.127 4.857.424.547 1.298 1.79 1.697 2.4.568.87.424 1.948.89 2.97 1.544 3.394 8.84 18.24 13.689 24.047 1.845 2.206 4.547 6.109 7.754 5.553l.832-.17z" fill="url(#paint2_linear)"/>
    <path opacity=".5" fill-rule="evenodd" clip-rule="evenodd" d="M44.706 74.793c10.558-1.043 25.689-2.719 33.863-6.931 4.59-2.371 12.37-11.453 10.919-18.117-1.977-1.862-3.169-2.86-4.849-2.787-2.12.093-4.666 2.358-9.506 4.87-7.36 3.817-14.278 4.004-19.966 10.74-4.2 4.972-11.208 9.264-17.155 9.078 1.633 1.879 3.636 3.686 5.888 3.296l.806-.149z" fill="#7E41DF"/>
    <path opacity=".5" fill-rule="evenodd" clip-rule="evenodd" d="M54.492 324.747l66.547-37.902c7.254-3.313 17.638-5.938 25.027-2.121 6.736 3.508 17.816 10.681 22.737 13.477 3.724 2.121 16.658 9.875 8.602 14.253-23.699 12.887-47.148 27.381-71.213 40.472-4.551 2.473-11.211 3.368-18.197 2.787-6.987-.581-14.096-2.605-19.708-5.867l-11.801-6.872c-5.222-3.037-7.988-6.63-8.264-9.955-.267-3.233 1.82-6.24 6.27-8.272z" fill="#BB6CE9"/>
    <path fill-rule="evenodd" clip-rule="evenodd" d="M125.739 270.553c-.357 1.573.644 3.86.822 4.11 3.856 5.604-.738 5.133-.538 13.15 0 .734-3.245 13.366-3.245 13.366s-7.699 1.862-8.272 1.761c-.573-.102-5.247-1.905-5.247-1.905.394-.683.92-2.354 1.238-2.969 2.219-4.314 3.394-9.553 4.242-14.809.564-3.474 1.625-8.874.908-12.526l10.092-.178z" fill="#FFA698"/>
    <path fill-rule="evenodd" clip-rule="evenodd" d="M109.013 300.921a34.408 34.408 0 00-2.159 5.09c-.138.33-.2.687-.182 1.044.017.358.114.707.284 1.022 1.76 2.545 11.135-1.667 14.32-4.293 2.058-1.697 2.164-3.78 2.719-6.312.849-3.818.972-4.242 2.02-8.123l.678 10.702.849.56c.335-4.339.984-10.07 1.786-13.761.313-1.472.848-3.143.92-3.962.543-4.818-1.765-7.275-3.915-8.708.704 2.969-1.922 7.673-3.093 13.654-1.404 7.25-7.8 13.133-14.227 13.087z" fill="#161F69"/>
    <path fill-rule="evenodd" clip-rule="evenodd" d="M75.035 123.143c.73 3.283-2.63 14.63-1.769 18.995.819 14.367 3.339 26.524 13.023 55.255 0 .327 8.844 17.896 9.434 19.737 6.028 18.741 13.54 39.09 19.937 58.026 2.367 1.832 9.527 1.272 10.443-3.19-1.972-18.919.179-37.567-3.062-50.509-2.473-9.862-5.714-14.359-11.029-21.667-1.633-18.593-2.804-55.883-7.037-70.179l-29.94-6.468z" fill="url(#paint3_linear)"/>
    <path fill-rule="evenodd" clip-rule="evenodd" d="M75.035 123.143c.73 3.283 2.897 9.37 3.754 13.735 2.702 6.613 8.386 15.665 12.225 23.271 1.15 9.222.849 21.473 6.588 38.559l5.209 39.505c4.289 12.369 8.789 24.942 12.84 36.943 2.367 1.832 9.528 1.272 10.444-3.19-1.973-18.919.178-37.567-3.063-50.509-2.473-9.862-5.714-14.359-11.029-21.667-1.633-18.593-2.804-55.883-7.037-70.179l-29.93-6.468z" fill="#1E2353" opacity=".3"/>
    <path fill-rule="evenodd" clip-rule="evenodd" d="M118.155 289.718c-.179 1.748.627 3.517.848 5.256.425 3.081.616 6.189.573 9.298a82.57 82.57 0 01-2.075 16.718c-.53 2.328-1.569 3.325-2.265 6.511l-13.714 2.235c1.349-5.187 3.207-15.695 4.611-24.484l2.617-16.441 9.405.907z" fill="#FFA698"/>
    <path fill-rule="evenodd" clip-rule="evenodd" d="M118.859 294.058c.793 2.753 1.696 4.242 1.819 7.974.123 3.733-1.616 9.625-1.472 14.274l.234 7.377c.131 4.297-.959 7.279-5.841 10.834-4.429 3.22-8.739 4.539-11.08 3.393-1.731-.848-3.11-3.881-.463-11.907 2.206-6.685 2.775-13.217 4.068-20.471-.453 7.131-.627 9.51-2.345 16.493-.48 1.951-.764 5.217 1.552 5.548 9.578 1.366 10.062-1.209 10.851-4.166 2.121-7.894 3.656-21.96 2.677-29.349z" fill="#161F69"/>
    <path fill-rule="evenodd" clip-rule="evenodd" d="M122.388 134.49c10.643 13.328 10.914 20.713 8.607 36.726-1.544 10.711-4.688 23.704-5.472 42.521.924 9.706 2.659 20.573 1.336 35.632-.971 11.093-4.089 30.118-6.444 43.581-2.21 4.162-12.67 2.35-14.38.208.497-19.283.191-32.505-.729-48.077-.9-15.148-2.702-29.202-3.818-44.142-.937-12.365-4.692-29.176-5.188-42.533-1.993-6.295-20.844-27.148-16.916-26.877l43.004 2.961z" fill="url(#paint4_linear)"/>
    <path fill-rule="evenodd" clip-rule="evenodd" d="M121.094 104.504c-4.78 11.063 3.347 17.184.424 24.802l.904 5.163c-8.726 6.261-39.93 6.727-47.747-5.689l-.165-6.193c-1.35-2.969-.463-10.46-.064-12.437 1.273-6.291.666-9.625 1.353-16.9.174-1.837.518-2.995.687-4.857-6.944-5.192-6.507-15.237-2.392-21.252a52.604 52.604 0 005.404-9.544c.283-1.846.685-3.67 1.205-5.464a9.057 9.057 0 011.455-2.969c1.98-2.83 5.188-3.169 11.737-1.667 12.98 2.97 26.347 9.718 32.311 16.072 4.339 4.62 4.165 9.757 1.696 20.832-1.624 7.106-4.381 14.482-6.808 20.103z" fill="url(#paint5_linear)"/>
    <path opacity=".5" fill-rule="evenodd" clip-rule="evenodd" d="M121.187 104.436c-4.78 11.063 3.148 17.392.221 25.002l.903 5.091c-8.721 6.787-39.925 6.468-47.747-5.939l.166-5.404c0-.217 15.317 13.574 32.756 5.913 3.788-1.667 7.211-9.956 2.316-25.787-.467-1.506-6.028-1.607-13.897-7.406 5.812 2.465 16.769 5.841 17.307-8.946.242-6.61 1.214-11.58 4.599-16.175 1.641-2.227 11.262 9.46 9.794 15.063a140.038 140.038 0 01-6.418 18.588z" fill="#7E41DF"/>
    <path fill-rule="evenodd" clip-rule="evenodd" d="M125.323 128.95c-1.586.963-4.475 1.896-5.637 2.592-.603.356-4.917 3.041-7.343 4.666-2.596 1.744-3.33 4.242-4.878 7.054-1.112 2.283-1.587 3.928-1.744 5.069-.157 1.142 2.825 3.445 4.098 3.165 2.893-.641 5.841-4.191 6.605-4.586 6.473-3.355 9.574-3.686 11.915-6.362.997-1.141 1.612-4.476 3.674-7.475l-3.971-3.593-2.719-.53z" fill="url(#paint6_linear)"/>
    <path fill-rule="evenodd" clip-rule="evenodd" d="M126.112 62.734c9.617 6.058 20.243 22.767 29.766 37.635 1.883 2.422 1.399 5.603.424 7.385a18.4 18.4 0 01-1.875 3.368c-4.522 6.651-8.942 12.581-18.614 20.785-.725.615-1.739.874-2.816 1.171-.607.5-1.459 1.404-2.121 1.93.802-1.035-4.009-6.219-6.193-5.871a45.85 45.85 0 001.696-2.248c.077-.993 0-1.608.391-2.456 3.147-7.165 7.156-14.363 12.153-19.84-8.675-9.383-13.642-11.656-21.723-21.498-9.803-11.936 2.537-24.378 8.912-20.36z" fill="url(#paint7_linear)"/>
    <path fill-rule="evenodd" clip-rule="evenodd" d="M106.065 38.267c-1.001 5.713-.475 11.126 1.298 16.67-4.666 4.331-12.997 2.49-14.931-1.433.424-2.546.882-4.87 1.158-7.479l12.475-7.758z" fill="#FFA698"/>
    <path fill-rule="evenodd" clip-rule="evenodd" d="M106.065 38.267a32.584 32.584 0 00-.424 8.06c-1.375 5.548-11.75 9.293-12.832 4.882.293-1.697.581-3.394.772-5.188l12.484-7.754z" fill="url(#paint8_linear)"/>
    <path fill-rule="evenodd" clip-rule="evenodd" d="M86.739 14.083c-2.333 3.707-3.576 7.423-3.037 12.692a5.464 5.464 0 01-.424 3.037c-2.185 4.92-1.99 6.448-.908 10.393 1.052 3.839.98 5.845 2.29 7.16 1.311 1.315 3.352 1.667 5.057 1.773 3.49.22 9.489-2.083 12.971-3.991 2.584-1.413 2.486-2.376 3.576-4.828 3.648-3.169 1.273-5.485.064-5.722-3.508-.683-4.072 3.355-6.151 4.242.34-7.088-13.18-19.055-13.438-24.756z" fill="#FFA698"/>
    <path fill-rule="evenodd" clip-rule="evenodd" d="M85.19 16.925c-1.297 2.846-1.891 5.938-1.488 9.85a5.464 5.464 0 01-.424 3.037c-2.185 4.92-1.99 6.447-.908 10.392.47 1.723.717 3.076.963 4.162a3.27 3.27 0 004.076 1.179c1.46-.65 2.893-2.376 3.254-5.247.254-2.04 4.437-3.394 5.302-5.464.713-1.718-1.217-3.64-2.388-4.632-4.119-3.47-6.664-8.178-8.386-13.277z" fill="url(#paint9_linear)"/>
    <path fill-rule="evenodd" clip-rule="evenodd" d="M86.74 14.083c1.959 8.709 13.336 15.3 13.429 24.764-3.11-9.832-14.143-16.564-13.43-24.764z" fill="#FF8F7F"/>
    <defs>
        <linearGradient id="paint0_linear" x1="127.287" y1="45.172" x2="107.227" y2="83.74" gradientUnits="userSpaceOnUse">
            <stop stop-color="#5A2D68"/>
            <stop offset="1" stop-color="#22043D"/>
        </linearGradient>
        <linearGradient id="paint1_linear" x1="13878.1" y1="8607.01" x2="13921" y2="8571.34" gradientUnits="userSpaceOnUse">
            <stop stop-color="#FF8A78"/>
            <stop offset="1" stop-color="#FFA799"/>
        </linearGradient>
        <linearGradient id="paint2_linear" x1="68935.7" y1="29021.5" x2="76206.5" y2="26143.4" gradientUnits="userSpaceOnUse">
            <stop stop-color="#965CF2"/>
            <stop offset="1" stop-color="#FF8ADC"/>
        </linearGradient>
        <linearGradient id="paint3_linear" x1="84.397" y1="151.814" x2="129.696" y2="240.168" gradientUnits="userSpaceOnUse">
            <stop stop-color="#3E4795"/>
            <stop offset="1" stop-color="#273088"/>
        </linearGradient>
        <linearGradient id="paint4_linear" x1="58733.7" y1="162195" x2="76183.7" y2="168574" gradientUnits="userSpaceOnUse">
            <stop stop-color="#3E4795"/>
            <stop offset="1" stop-color="#273088"/>
        </linearGradient>
        <linearGradient id="paint5_linear" x1="67078.8" y1="81185.3" x2="70323.5" y2="68972.4" gradientUnits="userSpaceOnUse">
            <stop stop-color="#965CF2"/>
            <stop offset="1" stop-color="#FF8ADC"/>
        </linearGradient>
        <linearGradient id="paint6_linear" x1="31867.6" y1="21069" x2="31759.8" y2="20841.8" gradientUnits="userSpaceOnUse">
            <stop stop-color="#FF8A78"/>
            <stop offset="1" stop-color="#FFA799"/>
        </linearGradient>
        <linearGradient id="paint7_linear" x1="54905.8" y1="63135.4" x2="51824.2" y2="55372.7" gradientUnits="userSpaceOnUse">
            <stop stop-color="#965CF2"/>
            <stop offset="1" stop-color="#FF8ADC"/>
        </linearGradient>
        <linearGradient id="paint8_linear" x1="15459.4" y1="10430.3" x2="15496.4" y2="10595" gradientUnits="userSpaceOnUse">
            <stop stop-color="#FF8A78"/>
            <stop offset="1" stop-color="#FFA799"/>
        </linearGradient>
        <linearGradient id="paint9_linear" x1="16352.2" y1="18943.3" x2="16898.1" y2="19387.8" gradientUnits="userSpaceOnUse">
            <stop stop-color="#FFB89E"/>
            <stop offset="1" stop-color="#FFA799"/>
        </linearGradient>
    </defs>
</svg>
