<svg viewBox="0 0 395 563" fill="none" xmlns="http://www.w3.org/2000/svg">
    <path fill-rule="evenodd" clip-rule="evenodd" d="M125.894 22.481c-3.046-1.73-6.618-2.376-9.96-1.116l-7.479 2.923C105.74 38.342 263.314 553.47 266.771 557.046l6.673-2.52c4.382-1.726 6.681-6.286 7.326-10.723l56.353-384.669a.148.148 0 000-.042c.917-6.469-1.03-13.206-4.585-18.61-1.917-2.914-4.433-5.582-7.529-7.258L125.894 22.481z" fill="url(#paint0_linear)"/>
    <path fill-rule="evenodd" clip-rule="evenodd" d="M317.674 136.071L118.521 25.328c-8.119-4.501-15.852-.183-17.286 9.612L44.877 419.613c-1.434 9.799 3.966 21.4 12.085 25.875L256.1 556.236c8.119 4.501 15.873.187 17.307-9.608l56.353-384.673c1.438-9.773-3.987-21.383-12.085-25.884z" fill="url(#paint1_linear)"/>
    <path fill-rule="evenodd" clip-rule="evenodd" d="M317.674 136.071L118.521 25.328c-8.119-4.501-15.852-.183-17.286 9.612l-2.867 19.7 228.498 127.082 2.893-19.746c1.438-9.794-3.987-21.404-12.085-25.905z" fill="#4A9FF8"/>
    <path fill-rule="evenodd" clip-rule="evenodd" d="M116.841 52.6c-2.545-2.122-4.097-6.504-3.423-9.812.674-3.309 3.292-4.268 5.858-2.155 2.566 2.112 4.098 6.507 3.428 9.807-.671 3.3-3.301 4.28-5.863 2.16zM133.126 62.504c-2.545-2.12-4.098-6.503-3.423-9.807.674-3.305 3.291-4.272 5.858-2.16 2.566 2.113 4.097 6.508 3.427 9.808-.67 3.3-3.291 4.272-5.862 2.16zM149.411 72.395c-2.546-2.121-4.098-6.503-3.424-9.807.675-3.305 3.296-4.272 5.858-2.16 2.563 2.113 4.098 6.507 3.428 9.812-.67 3.304-3.296 4.267-5.862 2.155z" fill="#4C68E5"/>
    <path opacity=".5" fill-rule="evenodd" clip-rule="evenodd" d="M305.678 229.383c-.869-.483-1.735 0-1.887 1.048a3.011 3.011 0 001.315 2.863c.916.51 1.764.001 1.921-1.068a2.975 2.975 0 00-1.349-2.843zM79.182 281.627l1.544.848 16.267-111.061-1.54-.849-16.271 111.062zm17.816-116.165c-.849-.483-1.735 0-1.892 1.086a3.006 3.006 0 001.315 2.846c.916.509 1.777.026 1.938-1.043a3.013 3.013 0 00-1.361-2.889zm6.592 135.453l1.544.848 16.272-111.078-1.544-.849-16.26 111.079h-.012zm17.845-116.178c-.886-.492-1.747 0-1.909 1.078a3.007 3.007 0 001.332 2.855c.9.5 1.765 0 1.922-1.052a3.015 3.015 0 00-1.345-2.881zm11.237 103.63l1.557.849 16.285-111.058-1.557-.848-16.272 111.057h-.013zm17.871-116.147c-.899-.501-1.764-.022-1.926 1.068a3.017 3.017 0 001.349 2.864c.87.483 1.735 0 1.892-1.069a3.007 3.007 0 00-1.315-2.863zm11.254 103.638l1.51.848 16.289-111.104-1.514-.848-16.268 111.091-.017.013zm17.816-116.186c-.904-.501-1.735 0-1.896 1.103a2.966 2.966 0 001.319 2.829c.916.509 1.748 0 1.9-1.043a2.971 2.971 0 00-1.323-2.889zm8.144 124.835l1.54.848 16.272-111.065-1.54-.849-16.242 111.053-.03.013zm17.846-116.16c-.886-.488-1.752 0-1.913 1.077a3 3 0 001.336 2.855c.9.5 1.761.021 1.918-1.048a3.008 3.008 0 00-1.341-2.884zm5.795 140.742l1.561.848 16.272-111.078-1.557-.849-16.247 111.066-.029.013zm17.875-116.169c-.87-.484-1.731-.021-1.892 1.086a2.967 2.967 0 001.319 2.825c.917.509 1.765.021 1.918-1.031a2.969 2.969 0 00-1.345-2.88zm5.039 146.032l1.544.848 16.272-111.066-1.544-.848-16.272 111.066zM252.171 222.8c-.899-.496-1.765 0-1.922 1.069a3.016 3.016 0 001.345 2.868c.886.487 1.748 0 1.909-1.061a3.015 3.015 0 00-1.332-2.876zm6.583 135.287l1.527.848 16.272-111.082-1.527-.849-16.272 111.083zm17.842-116.156c-.887-.492-1.731-.021-1.888 1.048a2.97 2.97 0 001.315 2.863c.904.501 1.765.021 1.926-1.069a2.976 2.976 0 00-1.353-2.842zm11.241 103.609l1.557.848 16.271-111.079-1.556-.848-16.272 111.079z" fill="#3856D8"/>
    <path opacity=".5" fill-rule="evenodd" clip-rule="evenodd" d="M315.388 240.324a2.625 2.625 0 00-1.022-1.077 1.331 1.331 0 00-1.477 0c-3.779 2.914-7.236 5.434-10.477 7.61-3.241 2.176-6.202 4.009-8.984 5.557-12.968 7.075-22.36 7.576-31.603 2.447-9.043-5.209-17.769-16.195-29.163-31.653-12.725-17.298-23.988-29.01-35.314-35.288a46.84 46.84 0 00-5.026-2.426c-13.048-5.379-26.3-3.509-42.203 5.412-1.65.882-3.241 1.837-4.832 2.753-12.22 7.08-23.678 13.702-36.056 6.851-6.43-3.568-13.103-10.775-20.255-23.466a2.69 2.69 0 00-1.014-1.069 1.322 1.322 0 00-1.493.042c-.712.581-.806 1.99-.174 3.097 7.988 14.189 15.373 22.193 22.448 26.117 13.324 7.385 25.545.289 38.602-7.258 1.616-.899 3.202-1.815 4.823-2.715 15.152-8.53 27.721-10.367 39.946-5.344a42.462 42.462 0 014.53 2.193c10.686 5.938 21.473 17.171 33.779 33.871 11.822 15.996 20.899 27.416 30.719 33.087.187.11.378.216.565.318 9.735 5.4 19.937 4.938 33.71-2.545 2.856-1.552 5.929-3.443 9.218-5.671 3.27-2.24 6.787-4.798 10.575-7.716.767-.594.831-1.947.178-3.127z" fill="#3856D8"/>
    <path fill-rule="evenodd" clip-rule="evenodd" d="M313.267 232.163a2.617 2.617 0 00-1.027-1.064 1.336 1.336 0 00-1.476.029 211.674 211.674 0 01-10.477 7.754c-3.241 2.24-6.202 4.098-8.985 5.685-12.967 7.257-22.359 7.89-31.602 2.888-9.044-5.09-17.769-15.949-29.163-31.246-12.726-17.12-23.988-28.675-35.314-34.783a47.028 47.028 0 00-5.027-2.359c-13.048-5.192-26.299-3.139-42.202 6.007-1.65.903-3.241 1.879-4.828 2.816-12.225 7.25-23.682 14.033-36.056 7.356-6.431-3.474-13.103-10.605-20.255-23.182a2.627 2.627 0 00-1.014-1.056 1.312 1.312 0 00-1.493.063c-.713.59-.806 1.998-.174 3.101 7.988 14.079 15.373 21.977 22.448 25.799 13.324 7.212 25.545-.067 38.602-7.792 1.616-.92 3.202-1.862 4.823-2.783 15.152-8.742 27.721-10.753 39.946-5.904a41.744 41.744 0 014.53 2.121c10.685 5.773 21.473 16.87 33.778 33.4 11.823 15.835 20.9 27.149 30.72 32.663l.564.31c9.757 5.26 19.937 4.666 33.711-3.033 2.856-1.59 5.929-3.522 9.218-5.799 3.27-2.286 6.787-4.895 10.575-7.86.767-.607.827-1.96.178-3.131z" fill="#6BB6FF"/>
    <path fill-rule="evenodd" clip-rule="evenodd" d="M310.764 231.128c-6.206 4.874-12.607 9.528-19.462 13.439-12.967 7.258-22.359 7.89-31.602 2.888-9.044-5.09-17.769-15.949-29.163-31.245-10.083-13.549-24.132-30.72-40.341-37.155-17.391-6.919-31.971-.085-47.03 8.823-12.225 7.249-23.682 14.032-36.056 7.355-6.431-3.474-13.103-10.604-20.255-23.182a2.626 2.626 0 00-1.014-1.056c2.028 5.213 11.131 20.688 19.937 25.452 13.324 7.211 24.781.886 37.825-6.843 14.55-8.284 29.583-15.733 46.39-9.069 15.271 6.096 29.948 23.912 39.45 36.676 11.822 15.835 20.327 26.647 30.147 32.175 8.182 4.589 15.042 4.339 22.257 1.645 7.559-2.829 25.074-13.875 28.917-19.903z" fill="#0FF"/>
    <path style="mix-blend-mode:multiply" opacity=".5" fill-rule="evenodd" clip-rule="evenodd" d="M194.943 259.099L77.888 194.236 61.493 306.155l118.192 65.495c8.28 4.585 16.183.191 17.646-9.795l9.952-76.354c1.467-9.973-4.06-21.812-12.34-26.402z" fill="url(#paint2_linear)"/>
    <path fill-rule="evenodd" clip-rule="evenodd" d="M192.809 282.777l-11.355 77.203 1.361.165 3.72-1.446c4.077-1.604 6.219-5.85 6.817-9.981l9.086-69.687a.148.148 0 000-.042c.849-6.019-.954-12.301-4.267-17.32-1.782-2.71-4.123-5.196-7.003-6.757L42.082 172.258c-2.838-1.611-6.16-2.21-9.273-1.035l-3.28 1.273c-1.65.619-2.163 1.116-2.15 1.217 1.548 14.44 167.602 94.264 165.43 109.064z" fill="#E5EDFF"/>
    <path fill-rule="evenodd" clip-rule="evenodd" d="M187.418 256.375l-149.086-82.64c-3.313-1.837-6.558-2.096-9.269-1.04-3.474 1.354-6.074 4.87-6.825 9.99l-9.082 69.707c-1.34 9.12 3.687 19.937 11.246 24.107l149.09 82.624c7.559 4.191 14.774.178 16.119-8.938l9.082-69.694c1.332-9.116-3.716-19.925-11.275-24.116z" fill="#D1E7FF"/>
    <path opacity=".5" fill-rule="evenodd" clip-rule="evenodd" d="M190.192 285.433l-84.918-46.716a2.584 2.584 0 00-2.219-.25c-.827.322-1.451 1.166-1.629 2.388l-.568 3.436c-.318 2.18.882 4.763 2.689 5.764l84.919 46.717c1.807 1.001 3.533.042 3.851-2.121l.569-3.436c.318-2.193-.887-4.781-2.694-5.782zM187.117 306.459l-84.932-46.72a2.584 2.584 0 00-2.214-.246c-.849.322-1.45 1.162-1.633 2.388l-.569 3.436c-.318 2.176.883 4.759 2.69 5.76l84.923 46.721c1.807 1.001 3.529.042 3.851-2.121l.564-3.436c.331-2.197-.878-4.781-2.68-5.782zM132.892 298.744l-33.774-17.977a2.585 2.585 0 00-2.214-.251c-.848.323-1.455 1.167-1.633 2.393l-.569 3.419c-.318 2.18.883 4.763 2.69 5.764l33.778 17.99c1.807 1.001 3.529.043 3.852-2.121l.564-3.436c.322-2.193-.887-4.78-2.694-5.781z" fill="#fff"/>
    <path fill-rule="evenodd" clip-rule="evenodd" d="M24.614 217.186c-2.6 23.495 10.422 52.222 29.163 64.099 18.74 11.877 36.71-3.419 38.682-21.125 1.972-17.705-1.34-25.065-6.698-36.739a1289.67 1289.67 0 01-9.782 5.366c3.474 7.5 5.62 12.302 4.352 23.683-1.268 11.381-12.823 21.209-24.857 13.574-12.035-7.636-20.412-26.088-18.728-41.185a1910.63 1910.63 0 00-12.132-7.673z" fill="#22D2FB"/>
    <path fill-rule="evenodd" clip-rule="evenodd" d="M37.933 193.337c-7.003 3.818-12.004 12.051-13.32 23.827 4.052 2.57 8.128 5.137 12.133 7.69.848-7.55 4.034-12.874 8.543-15.317a4022.94 4022.94 0 01-7.356-16.2z" fill="#12A3EB"/>
    <path fill-rule="evenodd" clip-rule="evenodd" d="M63.3 196.031c-9.379-5.939-18.385-6.529-25.362-2.732 2.429 5.427 4.88 10.839 7.35 16.238 4.506-2.439 10.296-2.07 16.285 1.739 5.99 3.809 11.148 10.338 14.529 17.778a1317.26 1317.26 0 009.777-5.324c-5.264-11.614-13.2-21.765-22.58-27.699z" fill="#1C8DF3"/>
    <path style="mix-blend-mode:multiply" opacity=".5" fill-rule="evenodd" clip-rule="evenodd" d="M245.507 388.981c-17.176-13.693-27.441-42.139-22.941-63.552 4.501-21.413 22.058-27.674 39.242-13.977 17.184 13.697 27.445 42.147 22.94 63.552-4.504 21.405-22.074 27.662-39.241 13.977z" fill="url(#paint3_linear)"/>
    <path fill-rule="evenodd" clip-rule="evenodd" d="M226.376 310.083c3.117-3.254 10.961-5.12 15.355-5.358 5.12-.275 10.838 1.807 16.51 6.478 14.88 12.263 23.788 37.753 19.886 56.947-1.158 5.697-3.245 10.253-6.164 13.383-2.723 2.923-11.487 6.609-15.533 6.936-24.26 3.385-39.234-68.808-30.054-78.386z" fill="#D0E7FF"/>
    <path fill-rule="evenodd" clip-rule="evenodd" d="M238.202 382.194c-14.889-12.267-23.793-37.753-19.89-56.947 3.902-19.195 19.131-24.79 34.02-12.522 14.889 12.267 23.788 37.753 19.886 56.947-3.903 19.195-19.135 24.764-34.016 12.522z" fill="url(#paint4_linear)"/>
    <path fill-rule="evenodd" clip-rule="evenodd" d="M260.09 335.352l4.047 2.897-29.286 28.098-11.004-28.934 5.4 3.097 7.203 10.244 23.64-15.402z" fill="#fff"/>
    <path style="mix-blend-mode:multiply" opacity=".5" fill-rule="evenodd" clip-rule="evenodd" d="M296.405 446.434l-176.777-97.869c-3.215-1.782-6.363-2.032-8.997-1.006-3.372 1.311-5.896 4.726-6.626 9.697l-12.26 86.904c-1.272 8.853 3.585 19.335 10.92 23.403l162.677 90.056c1.777-.666 10.388-2.189 10.872-4.734l20.191-106.451z" fill="url(#paint5_linear)"/>
    <path fill-rule="evenodd" clip-rule="evenodd" d="M308.041 472.208l-13.799 89.873 1.273.153 3.448-1.341c.174-.068.34-.14.509-.22h.047c3.78-1.489 5.761-5.421 6.316-9.243l11.695-82.93a.097.097 0 000-.034c.793-5.578-.882-11.385-3.949-16.047-1.65-2.511-3.818-4.81-6.49-6.257l-178.559-98.836c-2.626-1.489-5.705-2.045-8.59-.959l-3.037 1.188c-.318.119-.59.233-.823.34-1.319.526-1.735.937-1.726 1.026 1.425 13.337 195.683 109.577 193.685 123.287z" fill="#D0E7FF"/>
    <path fill-rule="evenodd" clip-rule="evenodd" d="M303.048 447.753l-178.554-98.836c-3.067-1.697-6.075-1.943-8.586-.963-3.22 1.272-5.625 4.509-6.32 9.251l-11.695 82.93c-1.239 8.445 3.393 18.448 10.418 22.329L286.865 561.3c7.004 3.877 13.685.162 14.923-8.28l11.695-82.933c1.222-8.442-3.444-18.457-10.435-22.334z" fill="url(#paint6_linear)"/>
    <path fill-rule="evenodd" clip-rule="evenodd" d="M108.171 411.493c2.015-11.708 6.566-15.665 12.391-14.032.967.275 1.896.669 2.765 1.175 5.71 3.253 11.53 11.763 12.421 25.935.564 8.967 2.278 17.188 9.794 21.477 19.759 10.575 12.637-52.023 31.344-41.346 16.119 9.196 6.468 42.444 12.725 63.505 2.181 7.305 6.104 10.741 8.811 12.302 11.377 6.066 12.636-13.112 14.117-21.184 6.867-37.308 11.215-39.378 18.176-35.408 7.25 4.208 10.474 7.063 9.129 46.012-.551 15.929 0 30.19 11.207 36.905 12.514 7.143 13.617-7.491 19.174-14.618 3.3-4.242 7.584-5.09 11.499-2.867 4.242 2.414 8.03 8.445 9.676 17.756 2.77 15.623 1.493 37.227.675 44.77L103.708 445.233c1.6-11.428 2.72-23.619 4.463-33.74z" fill="#D0E7FF"/>
    <path style="mix-blend-mode:multiply" opacity=".5" fill-rule="evenodd" clip-rule="evenodd" d="M87.474 345.29L58.167 329.2l-12.692 86.616 29.643 16.276c8.254 4.573 16.119.191 17.587-9.757l7.07-50.72c1.46-9.96-4.05-21.761-12.3-26.325z" fill="url(#paint7_linear)"/>
    <path fill-rule="evenodd" clip-rule="evenodd" d="M85.532 368.655l-8.747 53.953 1.366.165 3.72-1.446c4.076-1.604 6.219-5.854 6.817-9.982l6.473-46.453a.121.121 0 000-.038c.848-6.023-.959-12.301-4.267-17.32-1.782-2.714-4.128-5.196-7.008-6.757l-57.117-31.36c-2.838-1.612-6.16-2.21-9.273-1.035l-3.28 1.272c-1.65.62-2.163 1.116-2.15 1.218 1.548 14.435 75.638 42.983 73.466 57.783z" fill="#D0E7FF"/>
    <path fill-rule="evenodd" clip-rule="evenodd" d="M80.128 342.252l-57.11-31.36c-3.312-1.837-6.557-2.096-9.268-1.039-3.474 1.353-6.074 4.865-6.825 9.989L.452 366.295c-1.336 9.121 3.69 19.937 11.245 24.107l57.126 31.361c7.563 4.191 14.775.178 16.12-8.938l6.472-46.457c1.332-9.116-3.716-19.929-11.287-24.116z" fill="#fff"/>
    <path fill-rule="evenodd" clip-rule="evenodd" d="M70.146 359.152c-.58 3.954-3.673 5.744-6.944 3.932-3.27-1.811-5.476-6.541-4.9-10.498.578-3.958 3.662-5.642 6.991-3.818 3.33 1.824 5.426 6.435 4.853 10.363v.021zm-17.952 35.136c.582-3.954 3.666-5.667 6.995-3.818 3.33 1.85 5.426 6.435 4.849 10.384-.577 3.95-3.673 5.744-6.948 3.933-3.275-1.812-5.472-6.541-4.896-10.495v-.004zM31.77 360.471c-.573 3.933-3.72 5.612-6.99 3.818-3.271-1.794-5.426-6.435-4.85-10.363.578-3.928 3.695-5.731 6.945-3.928 3.249 1.803 5.476 6.537 4.895 10.49v-.017zm34.27-16.713c-5.565-3.088-10.906-.208-11.877 6.524v.501l-19.424 3.054c-1.378-3.792-3.932-7.041-7.143-8.819-5.583-3.084-10.834-.153-11.818 6.592-.976 6.656 2.69 14.609 8.259 17.693 3.207 1.782 6.27 1.565 8.484-.242l15.644 22.559-.119.36c-.984 6.728 2.774 14.656 8.34 17.74 5.514 3.05 10.825.157 11.813-6.571.972-6.655-2.748-14.664-8.255-17.718-3.957-2.193-7.75-1.349-9.993 1.658L35.129 365.49a8.856 8.856 0 00.755-2.745c.18-1.056.219-2.132.115-3.198l18.448-3.156c1.086 4.874 4.085 9.459 8.06 11.652 5.514 3.05 10.825.136 11.813-6.596.989-6.732-2.782-14.639-8.288-17.689h.008z" fill="url(#paint8_linear)"/>
    <path style="mix-blend-mode:multiply" opacity=".5" fill-rule="evenodd" clip-rule="evenodd" d="M345.183 142.051l-64.345-33.405-6.711 3.22-9.434 68.537c-1.396 9.527 3.856 20.785 11.754 25.188l43.416 23.78 7.394-2.859 17.926-84.461z" fill="url(#paint9_linear)"/>
    <path fill-rule="evenodd" clip-rule="evenodd" d="M384.272 133.148l-16.675 110.515 1.426.174 3.885-1.511c4.242-1.675 6.499-6.112 7.126-10.426l14.3-102.68a.148.148 0 000-.042c.895-6.295-.997-12.845-4.458-18.1-1.863-2.834-4.31-5.43-7.322-7.059L306.59 62.397c-2.969-1.696-6.439-2.311-9.688-1.085l-3.407 1.34c-1.726.65-2.256 1.167-2.248 1.273 1.595 15.075 95.307 53.757 93.025 69.223z" fill="#D0E7FF"/>
    <path fill-rule="evenodd" clip-rule="evenodd" d="M378.652 105.559l-75.981-41.622c-3.462-1.917-6.851-2.189-9.685-1.086-3.631 1.413-6.363 5.09-7.13 10.44l-14.3 102.683c-1.395 9.528 3.856 20.786 11.754 25.189l75.981 41.621c7.899 4.378 15.437.183 16.832-9.332l14.3-102.688c1.4-9.531-3.873-20.828-11.771-25.205z" fill="#fff"/>
    <path fill-rule="evenodd" clip-rule="evenodd" d="M378.651 105.559L302.67 63.937c-3.461-1.917-6.85-2.189-9.684-1.086-3.631 1.413-6.363 5.09-7.131 10.44l-11.385 81.758 104.593 57.296 11.36-81.589c1.4-9.523-3.873-20.82-11.772-25.197z" fill="url(#paint10_linear)"/>
    <path opacity=".25" fill-rule="evenodd" clip-rule="evenodd" d="M282.759 168.793c.259-1.905 1.697-2.745 3.211-1.871l34.389 18.664c1.515.874 2.545 3.131 2.278 5.04l-.5 3.771c-.259 1.909-1.697 2.749-3.211 1.875l-34.39-18.665c-1.514-.874-2.545-3.13-2.277-5.039l.5-3.775zM280.57 185.34c.225-1.696 1.493-2.418 2.825-1.65 19.513 10.579 51.463 27.836 70.959 38.415 1.336.768 2.235 2.757 2.006 4.441l-.424 3.322c-.225 1.696-1.493 2.422-2.829 1.65-19.513-10.575-51.459-27.836-70.955-38.415-1.336-.768-2.235-2.757-2.006-4.437l.424-3.326z" fill="#6D6AFD"/>
    <path fill-rule="evenodd" clip-rule="evenodd" d="M366.846 127.396l-8.908 66.263 16.968 9.574 8.908-66.263-16.993-9.574h.025zm-48.353-48.921l-11.924 88.698 16.993 9.574 11.928-88.681-16.997-9.591zm23.436 29.544l16.993 9.57-9.858 73.534-16.968-9.57 9.867-73.517-.034-.017zm-51.955-21.447l16.993 9.57-8.908 66.263-16.967-9.57 8.882-66.263z" fill="#4A9EF8"/>
    <path fill-rule="evenodd" clip-rule="evenodd" d="M286.322 112.537c-.454-.453-.314-1.213.318-1.696.632-.484 1.506-.509 1.96-.055l15.271 15.3 7.971 3.054 18.626-4.975 12.615-12.921a1.664 1.664 0 011.99-.348.917.917 0 01.267.263l22.16 26.245 15.27 2.842c.773-.073 1.349.398 1.273 1.056a1.649 1.649 0 01-1.506 1.332l-15.928-2.774a1.232 1.232 0 01-1.129-.382l-21.633-25.617-11.691 11.975a1.846 1.846 0 01-.848.483l-19.623 5.243a1.521 1.521 0 01-.934-.029l-8.543-3.271a1.061 1.061 0 01-.462-.267l-15.424-15.458z" fill="#4164F3" opacity=".5"/>
    <path fill-rule="evenodd" clip-rule="evenodd" d="M286.284 112.889c-.424-.543-.284-1.434.357-1.998.64-.564 1.518-.581 1.959-.042l14.894 18.168 7.89 3.686 18.706-5.625 12.896-15.037c.555-.645 1.45-.819 1.998-.382.105.085.193.191.258.31l20.302 30.253 17.392-1.841a1.1 1.1 0 01.963.309 1.12 1.12 0 01.31.963 1.799 1.799 0 01-1.54 1.544l-18.079 1.914a1.13 1.13 0 01-1.12-.463l-19.797-29.506-11.95 13.93a1.814 1.814 0 01-.848.556l-19.716 5.938a1.322 1.322 0 01-.929-.046l-8.454-3.95a1.044 1.044 0 01-.454-.318l-15.038-18.363z" fill="#fff"/>
    <path style="mix-blend-mode:multiply" opacity=".5" fill-rule="evenodd" clip-rule="evenodd" d="M94.075 75.95l32.162 14.779c7.678 4.445 9.973 18.804 8.717 28.395l-6.533 48.142c-1.272 9.586-8.517 13.769-16.195 9.332l-29.13-17.697 1.154-7.975 9.825-74.976z" fill="url(#paint11_linear)"/>
    <path fill-rule="evenodd" clip-rule="evenodd" d="M13.182 40.513c.424-3.224-.458-5.175 1.145-6.999 1.018-1.162 4.242-2.66 5.583-3.164 2.6-.98 5.71-.675 8.907 1.17l91.931 53.741c7.406 4.284 12.437 15.271 11.224 24.531l-6.303 46.445c-.378 2.867-1.447 6.566-3.89 8.679-1.739 1.505-4.666 3.062-6.707 3.321-2.04.259-2.664-1.637-5.026-3.003l-91.948-53.745c-7.415-4.293-12.437-15.271-11.224-24.531l6.308-46.445z" fill="#D0E7FF"/>
    <path fill-rule="evenodd" clip-rule="evenodd" d="M10.687 41.993c1.213-9.251 8.208-13.285 15.619-8.992l91.952 53.736c7.402 4.289 12.433 15.271 11.22 24.535l-6.304 46.441c-1.213 9.251-8.212 13.281-15.619 8.997l-91.947-53.745C8.193 108.672 3.17 97.694 4.384 88.43l6.303-46.437z" fill="#fff"/>
    <path fill-rule="evenodd" clip-rule="evenodd" d="M10.688 41.994c1.213-9.252 8.208-13.286 15.618-8.997l91.952 53.745c7.402 4.288 12.433 15.271 11.22 24.535l-.568 4.352a25.061 25.061 0 00-2.482-1.654L10.136 46.015l.552-4.021z" fill="url(#paint12_linear)"/>
    <path opacity=".2" fill-rule="evenodd" clip-rule="evenodd" d="M26.922 70.415c9.361 2.147 16.543 13.294 16.064 24.909-.48 11.614-8.484 19.288-17.85 17.146-9.366-2.143-16.544-13.29-16.064-24.905.479-11.614 8.483-19.27 17.85-17.15z" fill="#6D6AFD"/>
    <path fill-rule="evenodd" clip-rule="evenodd" d="M26.51 80.12c5.047 1.155 8.908 7.17 8.662 13.426-.246 6.257-4.573 10.402-9.625 9.248-5.053-1.154-8.908-7.169-8.662-13.43.246-6.261 4.572-10.397 9.625-9.243zm-.225 5.316c-2.685-.598-4.972 1.586-5.12 4.916-.149 3.33 1.917 6.516 4.598 7.13 2.68.616 4.971-1.586 5.111-4.911.14-3.326-1.908-6.52-4.59-7.135z" fill="url(#paint13_linear)"/>
    <path opacity=".2" fill-rule="evenodd" clip-rule="evenodd" d="M48.602 92.778c.322-2.469 2.184-3.516 4.157-2.333l60.031 34.041c1.973 1.18 3.309 4.145 2.97 6.614l-.628 4.882c-.323 2.469-2.189 3.512-4.162 2.333l-60.01-34.041c-1.977-1.179-3.313-4.145-2.97-6.613l.612-4.883zM46.294 110.742c.191-1.459 1.273-2.079 2.456-1.379l35.458 20.099c1.163.699 1.951 2.447 1.76 3.906l-.368 2.885c-.191 1.455-1.273 2.074-2.456 1.378l-35.459-20.102c-1.162-.7-1.955-2.448-1.76-3.907l.37-2.88z" fill="#6D6AFD"/>
    <path fill-rule="evenodd" clip-rule="evenodd" d="M20.74 37.913c2.041.467 3.61 2.897 3.504 5.43-.106 2.532-1.849 4.203-3.89 3.737-2.04-.467-3.61-2.897-3.503-5.43.106-2.532 1.828-4.203 3.89-3.737zM30.014 43.266c2.044.467 3.61 2.897 3.503 5.425-.106 2.528-1.85 4.208-3.89 3.737-2.04-.47-3.61-2.897-3.503-5.425.106-2.528 1.85-4.216 3.89-3.737zM40.071 49.116c2.045.467 3.61 2.897 3.504 5.43-.106 2.532-1.85 4.204-3.89 3.737-2.04-.467-3.61-2.897-3.504-5.43.106-2.532 1.85-4.203 3.89-3.737z" fill="#fff"/>
    <defs>
        <linearGradient id="paint0_linear" x1="222.168" y1="180.759" x2="140.299" y2="488.408" gradientUnits="userSpaceOnUse">
            <stop stop-color="#C4E0F5"/>
            <stop offset="1" stop-color="#E1E8F6"/>
        </linearGradient>
        <linearGradient id="paint1_linear" x1="276.998" y1="340.637" x2="-6.111" y2="183.288" gradientUnits="userSpaceOnUse">
            <stop stop-color="#6D6AFE"/>
            <stop offset="1" stop-color="#3FB0F7"/>
        </linearGradient>
        <linearGradient id="paint2_linear" x1="121.575" y1="312.161" x2="162.115" y2="228.418" gradientUnits="userSpaceOnUse">
            <stop stop-color="#965CF2"/>
            <stop offset="1" stop-color="#FF8ADC"/>
        </linearGradient>
        <linearGradient id="paint3_linear" x1="56776.9" y1="79388.4" x2="63734.8" y2="72130.5" gradientUnits="userSpaceOnUse">
            <stop stop-color="#965CF2"/>
            <stop offset="1" stop-color="#FF8ADC"/>
        </linearGradient>
        <linearGradient id="paint4_linear" x1="50908.4" y1="62984.1" x2="46490.8" y2="69489.9" gradientUnits="userSpaceOnUse">
            <stop stop-color="#FD90DA"/>
            <stop offset="1" stop-color="#8E6DFD"/>
        </linearGradient>
        <linearGradient id="paint5_linear" x1="147805" y1="237205" x2="170382" y2="199205" gradientUnits="userSpaceOnUse">
            <stop stop-color="#965CF2"/>
            <stop offset="1" stop-color="#FF8ADC"/>
        </linearGradient>
        <linearGradient id="paint6_linear" x1="215.639" y1="490.452" x2="178.315" y2="357.909" gradientUnits="userSpaceOnUse">
            <stop stop-color="#1C8EF4"/>
            <stop offset="1" stop-color="#00CFDD"/>
        </linearGradient>
        <linearGradient id="paint7_linear" x1="58.133" y1="316.678" x2="74.778" y2="401.151" gradientUnits="userSpaceOnUse">
            <stop stop-color="#FD70CB"/>
            <stop offset="1" stop-color="#6E4DFD"/>
        </linearGradient>
        <linearGradient id="paint8_linear" x1="23425.5" y1="62451.4" x2="25217.6" y2="57179" gradientUnits="userSpaceOnUse">
            <stop stop-color="#6D6AFE"/>
            <stop offset="1" stop-color="#3FB0F7"/>
        </linearGradient>
        <linearGradient id="paint9_linear" x1="80432.8" y1="55124.1" x2="89837.1" y2="37009.2" gradientUnits="userSpaceOnUse">
            <stop stop-color="#965CF2"/>
            <stop offset="1" stop-color="#FF8ADC"/>
        </linearGradient>
        <linearGradient id="paint10_linear" x1="129352" y1="37172.4" x2="120501" y2="63457.7" gradientUnits="userSpaceOnUse">
            <stop stop-color="#6D6AFE"/>
            <stop offset="1" stop-color="#3FB0F7"/>
        </linearGradient>
        <linearGradient id="paint11_linear" x1="29665.5" y1="37897.6" x2="25572.8" y2="18472.9" gradientUnits="userSpaceOnUse">
            <stop stop-color="#965CF2"/>
            <stop offset="1" stop-color="#FF8ADC"/>
        </linearGradient>
        <linearGradient id="paint12_linear" x1="55848.6" y1="16685.6" x2="56419" y2="10181.7" gradientUnits="userSpaceOnUse">
            <stop stop-color="#6D6AFE"/>
            <stop offset="1" stop-color="#3FB0F7"/>
        </linearGradient>
        <linearGradient id="paint13_linear" x1="6621.71" y1="5521.58" x2="6924.01" y2="4484.88" gradientUnits="userSpaceOnUse">
            <stop stop-color="#6D6AFE"/>
            <stop offset="1" stop-color="#3FB0F7"/>
        </linearGradient>
    </defs>
</svg>
