<svg viewBox="0 0 543 426" fill="none" xmlns="http://www.w3.org/2000/svg">
    <path d="M332.276 165.445l-10.588-.244c3.403 4.412 4.165 8.479 2.049 11.919-2.118 3.507-7.187 6.391-14.754 8.567a136.85 136.85 0 005.513-76.93 136.768 136.768 0 00-36.962-67.677 136.935 136.935 0 00-70.503-37.54 136.864 136.864 0 00-79.439 8.195c-2.011.87-4.025 1.772-5.97 2.71h-.019c-5.884-1.797-11.609-3.27-17.135-4.391-27.889-5.655-47.688-1.74-55.729 11.038-7.653 12.155-3.477 30.449 11.7 51.784-2.049 3.785-3.89 7.678-5.59 11.707a130.201 130.201 0 00-3.478 9.138c-28.533 1.713-43.807 6.741-49.362 15.844-6.457 10.596 2.362 24.818 30.584 38.646 3.887 1.912 8.065 3.786 12.428 5.66a134.024 134.024 0 009.814 37.251 136.872 136.872 0 0050.115 60.623 136.697 136.697 0 0075.182 22.997 136.687 136.687 0 0075.413-22.227 136.876 136.876 0 0050.731-60.108c13.909-2.883 23.084-7.4 26.73-13.386 2.533-4.126 2.22-8.712-.73-13.576zm-32.666 22.411c-9.269 1.668-20.827 2.64-34.33 2.779-20.955.254-45.021-1.4-70.382-4.747a410.755 410.755 0 006.267-14.313 193.179 193.179 0 0022.791 6.201c8.345 1.695 15.961 2.533 22.758 2.533 15.931 0 27.345-4.603 32.984-13.561a23.401 23.401 0 002.268-4.693h-8.124c-.133.248-.275.492-.425.731-4.189 6.653-13.546 10.093-26.685 10.093-6.286 0-13.438-.784-21.3-2.383a186.022 186.022 0 01-21.45-5.806 463.348 463.348 0 005.692-14.956c4.952-13.654 9.189-27.206 12.618-40.212 15.624 2.305 32.393 3.464 50.216 3.464 11.093 0 22.586-.446 34.479-1.338a129.626 129.626 0 012.656 26.223 128.204 128.204 0 01-10.033 49.985zm-169.206 67.847c-3.951-1.435-5.955-7.108-6.942-11.609-1.559-7.124-1.84-17.134-.815-28.935.518-5.971 1.353-12.316 2.477-18.961a352.14 352.14 0 0147.835 16.572c-3.518 6.07-7.073 11.697-10.628 16.8-6.775 9.719-13.401 17.218-19.16 21.686-3.643 2.811-8.816 5.882-12.767 4.447zm46.139-49.299a358.675 358.675 0 00-50.111-17.367c.595-3.085 1.25-6.219 1.963-9.403a778.97 778.97 0 0014.351 3.114 739.052 739.052 0 0042.169 7.359 360.052 360.052 0 01-8.372 16.297zm-30.678-28.799a678.074 678.074 0 01-16.186-3.532c2.498-10.404 5.566-21.249 9.151-32.301 18.622 11.459 37.561 20.778 55.49 27.394a443.026 443.026 0 01-6.92 15.689 706.134 706.134 0 01-41.535-7.25zm-45.474-140.43a85.135 85.135 0 005.035 8.864c9.415 14.564 21.848 25.118 30.622 31.41a149.438 149.438 0 0016.111 10.04c-5.2 11.343-10.165 23.449-14.712 36.019a541.625 541.625 0 00-2.483 7.017c-27.203-17.723-50.237-38.063-65.347-57.746A129.43 129.43 0 0182.593 54.48a131.376 131.376 0 016.283-6.88l.904-.903a129.34 129.34 0 0110.601-9.523h.01zm116.318-19.641c3.948 1.432 5.955 7.108 6.955 11.614 1.559 7.124 1.84 17.134.803 28.936-1.124 12.923-3.711 27.602-7.557 43.229a248.07 248.07 0 01-13.607-2.72c-15.258-3.515-29.194-8.323-41.627-14.363 7.417-15.496 15.263-29.297 23.106-40.55 6.775-9.721 13.401-17.217 19.16-21.686 3.004-2.332 7.048-4.819 10.59-4.819a6.344 6.344 0 012.177.359zm-15.514 88.01a249.341 249.341 0 0013.925 2.813c-3.341 12.583-7.452 25.675-12.245 38.901a561.07 561.07 0 01-5.735 15.033c-18.002-6.616-37.112-16.077-55.906-27.766a499.42 499.42 0 013.007-8.546c4.451-12.286 9.285-24.114 14.351-35.187 12.778 6.192 27.016 11.14 42.592 14.752h.011zm70.724-58.855a128.458 128.458 0 0133.391 57.797c-29.691 2.174-56.895 1.491-81.213-2.032 3.858-15.782 6.458-30.628 7.597-43.741 1.257-14.481 1.105-31.632-4.761-41.286 1.359.525 2.712 1.07 4.06 1.638a127.84 127.84 0 0140.915 27.624h.011zM180.855 8.921c8.827-.008 17.631.89 26.275 2.678-10.116 4.409-20.446 16.679-28.289 27.929-8.025 11.512-16.05 25.608-23.609 41.382a142.95 142.95 0 01-14.474-8.998c-15.038-10.674-24.068-21.879-28.985-29.386a76.442 76.442 0 01-5.489-9.817 128.501 128.501 0 0116.649-10.053 124.03 124.03 0 017.222-3.36l.535-.23.123-.051c.535-.223 1.049-.437 1.573-.648l.422-.169a127.834 127.834 0 0148.047-9.277zM55.02 25.054c4.189-6.653 13.545-10.085 26.685-10.085 6.283 0 13.438.785 21.3 2.383 2.985.603 6.03 1.317 9.135 2.142a134.47 134.47 0 00-28.007 21.605 106.035 106.035 0 00-5.135 5.422c-2.084 2.291-4.064 4.69-5.97 7.121a137.54 137.54 0 00-8.472 12.125c-11.61-17.25-15.1-31.878-9.536-40.713zm7.115 62.632c1.145-2.64 2.325-5.245 3.608-7.783 15.913 19.887 39.364 40.234 66.763 57.904-3.884 11.834-7.198 23.464-9.873 34.612-19.933-4.819-38.409-10.289-54.597-16.136a319.528 319.528 0 01-9.86-3.719 201.834 201.834 0 01-5.518-2.257c-.268-2.779-.487-5.595-.556-8.409-.035-1.355-.07-2.677-.07-4.029 0-1.564.035-3.162.07-4.726a130.49 130.49 0 015.9-34.188 104.734 104.734 0 011.91-5.558 110.11 110.11 0 012.223-5.71zm-23.223 56.426c-24.61-12.021-35.86-23.627-30.829-31.859 4.064-6.669 18.85-11.186 41.485-12.851a133.123 133.123 0 00-5.138 28.914 147.308 147.308 0 00-.348 8.79v.765c0 2.945.105 5.906.268 8.835a285.604 285.604 0 01-5.438-2.594zm18.673 14.765a433.573 433.573 0 0010.242 3.719c16.117 5.59 34.183 10.784 53.498 15.394a348.633 348.633 0 00-1.942 9.263c-1.581-.382-3.159-.76-4.742-1.119-26.707-6.088-46.755-7.325-56.06-7.536a126.312 126.312 0 01-5.067-21.284l4.071 1.563zm4.547 29.153c-.291-.691-.575-1.384-.85-2.075 9.91.399 28.287 1.901 51.759 7.247 1.68.383 3.36.785 5.037 1.194-1.209 7.052-2.1 13.794-2.651 20.128-1.043 11.999-1.115 25.838 2.228 35.72a129.655 129.655 0 01-55.52-62.214h-.003zm168.848 68.618a129.15 129.15 0 01-89.184 4.115c9.528-4.998 19.102-16.481 26.482-27.059 3.803-5.456 7.602-11.494 11.355-18.01a364.044 364.044 0 0161.969 35.875 129.607 129.607 0 01-10.619 5.079h-.003zm40.926-27.621a127.755 127.755 0 01-23.427 18.585 371.802 371.802 0 00-65.297-38.266 366.01 366.01 0 009.258-18.205c20.912 2.773 41.017 4.439 59.383 4.867 4.79.139 9.442.139 13.955.105 11.7-.14 22.113-.833 31.028-2.083a128.05 128.05 0 01-24.898 34.997h-.002z" fill="#ADCBF9"/>
    <path d="M268.988 186.802l-18.909 225.037s-1.982 13.654 8.156 13.654c16.669.04 82.967 0 82.967 0s-12.548-2.841-12.396-9.229c.18-7.531 22.103-231.604 22.103-231.604l-81.921 2.142z" fill="#D86713"/>
    <path d="M346.581 421.425c-3.279 0-66.605.209-82.833 0-7.076-.088-8.317-6.296-8.376-10.315a20.063 20.063 0 01.217-3.349l.49-5.847 1.254-14.91 1.108-13.169 1.423-16.926 1.206-14.291 13.436-159.905 81.921-2.142s-9.233 93.774-15.765 162.033a15964.97 15964.97 0 00-2.063 21.705 8610.488 8610.488 0 00-2.244 23.993c-.268 2.761-.487 5.326-.701 7.673-.832 9.208-1.321 15.084-1.337 16.203a9.266 9.266 0 00.16 1.821c1.346 7.191 10.871 7.426 12.104 7.426z" fill="#EE9849"/>
    <path d="M70.037 64.347l46.061 185.178 6.305 25.361 21.453 86.251h398.557l-79.07-296.79H70.037z" fill="#F1A34F"/>
    <path d="M70.037 64.347l-6.383 2.13 71.717 301.101 8.488-6.441-73.822-296.79z" fill="#EE9849"/>
    <path d="M135.371 367.578h396.102l10.94-6.441H143.859l-8.488 6.441z" fill="#D86713"/>
    <path d="M360.234 421.514h-85.763v4.08h85.763v-4.08zM523.105 306.448l-64.67-238.176H69.4v-3.925h393.943l64.454 241.571-4.692.53z" fill="#F1A34F"/>
    <path d="M338.431 367.578l-.442 3.119-80.656 16.307 1.107-13.169.527-6.257h79.464z" fill="#D86713"/>
    <path opacity=".4" d="M346.581 421.425c-3.279 0-66.605.209-82.834 0-7.075-.088-8.316-6.296-8.375-10.315l80.274-15.116c-.832 9.207-1.321 15.084-1.337 16.203-.007.611.047 1.22.16 1.82 1.354 7.173 10.879 7.408 12.112 7.408zM318.936 301.057l-175.077 60.08-21.456-86.25 196.533 26.17z" fill="#D86713"/>
    <path d="M70.037 64.347h393.306l63.812 238.525H127.338L70.037 64.347z" fill="#699DEE"/>
    <path d="M351.756 340.906c3.564-3.93 2.588-10.628-2.18-14.96-4.768-4.332-11.523-4.657-15.088-.727-3.564 3.931-2.588 10.629 2.18 14.961 4.768 4.331 11.523 4.657 15.088.726z" fill="#D86713"/>
    <path d="M508.608 292.537H140.354L98.65 126.255l-3.196-12.752-2.729-10.877-6.395-25.504h362.943l7.024 25.504 2.996 10.877 3.512 12.752 45.803 166.282z" fill="#E9F3FE"/>
    <path d="M456.297 102.626H92.725L86.33 77.122h362.943l7.024 25.504z" fill="#AFCDFB"/>
    <path d="M103.735 85.462c-1.76 0-2.83 1.427-2.391 3.188.439 1.762 2.22 3.186 3.98 3.186 1.76 0 2.828-1.427 2.392-3.186-.436-1.758-2.223-3.188-3.981-3.188zM114.32 85.462c-1.76 0-2.83 1.427-2.392 3.188.439 1.762 2.221 3.186 3.978 3.186 1.757 0 2.83-1.427 2.391-3.186-.438-1.758-2.206-3.188-3.977-3.188zM129.695 88.65c-.439-1.761-2.22-3.188-3.98-3.188-1.76 0-2.83 1.427-2.392 3.188.439 1.762 2.221 3.186 3.981 3.186 1.76 0 2.83-1.416 2.391-3.186z" fill="#E9F3FE"/>
    <path d="M393.21 177.124c-2.659-10.671-13.506-19.356-24.179-19.356-5.146 0-9.533 1.989-12.35 5.598-2.942 3.748-3.814 8.778-2.479 14.136 2.659 10.674 13.505 19.356 24.178 19.356 5.147 0 9.531-1.989 12.348-5.598 2.945-3.759 3.819-8.779 2.482-14.136zm-3.713 13.175c-2.514 3.213-6.462 4.996-11.117 4.996-10.001 0-20.166-8.153-22.664-18.171-1.215-4.88-.433-9.424 2.196-12.797 2.517-3.213 6.465-4.996 11.119-4.996 10.002 0 20.167 8.152 22.662 18.171 1.228 4.88.447 9.426-2.185 12.797h-.011z" fill="#F1A34F"/>
    <path d="M376.171 181.683l-1.945-13.606-.152-.616h-5.476l.155.616 4.834 13.606h2.584zM372.985 184.084l1.228 4.923h4.98l-1.225-4.923h-4.983zM405.108 223.344c-2.659-10.671-13.506-19.354-24.179-19.354-5.146 0-9.53 1.987-12.35 5.596-2.942 3.748-3.814 8.778-2.479 14.136 2.659 10.674 13.505 19.356 24.178 19.356 5.147 0 9.534-1.986 12.35-5.595 2.935-3.759 3.815-8.782 2.48-14.139zm-3.713 13.175c-2.514 3.213-6.462 4.996-11.117 4.996-10.001 0-20.166-8.153-22.662-18.171-1.217-4.881-.436-9.424 2.197-12.797 2.514-3.213 6.462-4.993 11.116-4.993 10.002 0 20.167 8.149 22.662 18.168 1.217 4.88.436 9.426-2.196 12.797z" fill="#F1A34F"/>
    <path d="M388.058 227.903l-1.945-13.606-.152-.615h-5.476l.155.615 4.834 13.606h2.584zM384.872 230.305l1.228 4.923h4.981l-1.226-4.923h-4.983z" fill="#F1A34F"/>
    <path d="M445.86 171.18c1.209 0 1.953-.991 1.653-2.201a3.021 3.021 0 00-2.75-2.204h-39.19c-1.211 0-1.955.991-1.653 2.204a3.024 3.024 0 002.75 2.201h39.19zM441.008 139.89a3.01 3.01 0 00-2.747-2.201h-39.19c-1.212 0-1.956.991-1.654 2.201a3.016 3.016 0 002.748 2.201h39.19c1.201 0 1.955-.988 1.653-2.201zM447.949 179.573c1.212 0 1.955-.991 1.653-2.201a3.015 3.015 0 00-2.75-2.203h-39.198c-1.209 0-1.952.991-1.65 2.203a3.017 3.017 0 002.747 2.201h39.198zM451.691 185.757a3.018 3.018 0 00-2.747-2.2h-39.193c-1.209 0-1.952.99-1.65 2.2a3.02 3.02 0 002.75 2.204h39.19c1.214 0 1.953-.991 1.65-2.204zM457.747 217.4c1.212 0 1.956-.99 1.653-2.201a3.02 3.02 0 00-2.749-2.203h-39.19c-1.209 0-1.953.991-1.653 2.203a3.014 3.014 0 002.749 2.201h39.19zM459.839 225.791c1.209 0 1.953-.991 1.651-2.201a3.021 3.021 0 00-2.75-2.203h-39.19c-1.209 0-1.953.99-1.651 2.203a3.027 3.027 0 001.021 1.544 3.01 3.01 0 001.729.657h39.19zM463.578 231.981a3.008 3.008 0 00-2.747-2.204h-39.19c-1.211 0-1.955.991-1.653 2.204a3.014 3.014 0 002.75 2.2h39.19c1.209.008 1.953-.99 1.65-2.2zM439.36 130.633l-2.737-10.976c-.502-2.016-2.557-3.663-4.571-3.663H117.939c-2.012 0-3.247 1.647-2.745 3.663l2.734 10.976c.503 2.014 2.56 3.66 4.572 3.66h314.113c2.011 0 3.247-1.646 2.747-3.66z" fill="#AFCDFB"/>
    <path d="M340.611 115.99l4.547 18.302H122.51c-2.011 0-4.068-1.647-4.571-3.66l-2.734-10.977c-.503-2.016.733-3.662 2.745-3.662l222.661-.003z" fill="#F1A34F"/>
    <path d="M380.608 121.776l.351 1.406h3.477l-1.813 5.994h1.837l1.779-6.173-.305-1.227h-5.326zM390.094 121.65c-1.964 0-2.876 1.682-2.341 3.826.535 2.145 2.252 3.829 4.226 3.829 1.974 0 2.879-1.682 2.344-3.829-.535-2.147-2.274-3.826-4.229-3.826zm1.54 6.185c-.981 0-1.872-1.004-2.212-2.359-.34-1.354.046-2.356 1.017-2.356.971 0 1.872 1.015 2.214 2.356.343 1.341-.034 2.359-1.019 2.359zM404.014 127.366c-.268-1.057-1.191-1.892-2.258-1.892s-1.605.846-1.337 1.892c.267 1.047 1.19 1.893 2.257 1.893 1.067 0 1.597-.854 1.338-1.893zm-1.554.932c-.423 0-.803-.434-.929-.932-.125-.498 0-.929.444-.929s.803.434.929.929c.125.496 0 .935-.444.935v-.003zM400.625 121.776l-3.555 7.4h1.257l3.555-7.4h-1.257zM398.53 123.583c-.267-1.057-1.19-1.893-2.257-1.893-1.068 0-1.605.846-1.338 1.893.268 1.047 1.191 1.893 2.258 1.893s1.594-.857 1.337-1.893zm-2.482 0c-.128-.506 0-.929.444-.929s.802.434.928.929c.126.496 0 .932-.444.932s-.805-.434-.928-.932z" fill="#699DEE"/>
    <path d="M325.893 213.622c2.282 0 3.673-1.85 3.103-4.137-.569-2.283-2.881-4.133-5.162-4.133H140.673c-2.282 0-3.67 1.85-3.1 4.133.569 2.287 2.881 4.137 5.162 4.137h183.158zM329.314 227.351c2.282 0 3.67-1.85 3.101-4.134-.57-2.283-2.879-4.136-5.16-4.136H144.094c-2.282 0-3.67 1.853-3.103 4.136.567 2.284 2.881 4.134 5.163 4.134h183.16zM335.988 237.557c-.569-2.283-2.88-4.136-5.162-4.136H147.654c-2.281 0-3.67 1.853-3.1 4.136.57 2.284 2.892 4.129 5.173 4.129h183.159c2.279 0 3.672-1.845 3.102-4.129zM225.665 191.305c.714 2.872 3.619 5.199 6.487 5.199h20.431c2.867 0 4.611-2.327 3.897-5.199l-9.876-39.64c-.714-2.87-3.619-5.196-6.486-5.196h-20.429c-2.87 0-4.614 2.326-3.9 5.196l9.876 39.64zM261.024 191.305c.715 2.872 3.62 5.199 6.487 5.199h20.428c2.87 0 4.614-2.327 3.9-5.199l-9.875-39.64c-.715-2.87-3.62-5.196-6.487-5.196h-20.431c-2.867 0-4.611 2.326-3.897 5.196l9.875 39.64zM295.72 191.305c.717 2.872 3.622 5.199 6.49 5.199h20.428c2.867 0 4.614-2.327 3.9-5.199l-9.876-39.64c-.714-2.87-3.619-5.196-6.489-5.196h-20.428c-2.868 0-4.614 2.326-3.898 5.196l9.873 39.64zM218.74 187.792l-8.124-32.611c-1.198-4.82-6.067-8.712-10.876-8.712h-69.162c-4.815 0-7.734 3.898-6.535 8.712l8.123 32.611c1.202 4.819 6.07 8.712 10.877 8.712h69.162c4.809 0 7.733-3.901 6.535-8.712z" fill="#AFCDFB"/>
    <path d="M198.868 158.977c1.091 0 1.76-.894 1.487-1.983a2.717 2.717 0 00-2.474-1.984h-64.626c-1.088 0-1.757.894-1.487 1.984a2.728 2.728 0 002.477 1.983h64.623zM200.77 166.604c1.088 0 1.757-.891 1.487-1.983a2.72 2.72 0 00-2.477-1.984h-64.623c-1.091 0-1.76.894-1.487 1.984a2.713 2.713 0 002.474 1.983h64.626zM204.156 172.248a2.717 2.717 0 00-2.474-1.984h-64.626c-1.088 0-1.76.894-1.487 1.984a2.718 2.718 0 002.474 1.983h64.626c1.089 0 1.76-.891 1.487-1.983zM154.43 178.808h-15.247c-1.091 0-1.76.894-1.487 1.983a2.713 2.713 0 002.469 1.995h15.247c1.088 0 1.757-.894 1.487-1.984a2.723 2.723 0 00-2.469-1.994z" fill="#699DEE"/>
    <path d="M488.206 274.865l-4.261-17.116c-.629-2.525-3.183-4.57-5.703-4.57h-36.279c-2.523 0-4.056 2.045-3.427 4.57l4.261 17.105c.629 2.525 3.183 4.57 5.703 4.57h36.28c2.519.011 4.055-2.035 3.426-4.559z" fill="#AFCDFB"/>
    <path d="M477.782 259.752a.804.804 0 00.781-1.042 1.427 1.427 0 00-1.297-1.041h-33.899a.777.777 0 00-.664.315.781.781 0 00-.115.726 1.424 1.424 0 001.298 1.042h33.896zM478.78 263.752a.8.8 0 00.805-.666.794.794 0 00-.024-.375 1.422 1.422 0 00-1.3-1.039h-33.896a.777.777 0 00-.665.313.782.782 0 00-.116.726 1.426 1.426 0 001.3 1.041h33.896zM480.556 266.712a1.43 1.43 0 00-.481-.73 1.434 1.434 0 00-.817-.311H445.37a.78.78 0 00-.664.315.78.78 0 00-.114.726 1.425 1.425 0 001.297 1.039h33.899a.789.789 0 00.768-1.039zM454.465 270.152h-7.995a.804.804 0 00-.781 1.042 1.425 1.425 0 001.297 1.039H455a.791.791 0 00.664-.313.786.786 0 00.117-.726 1.431 1.431 0 00-1.316-1.042z" fill="#699DEE"/>
    <path d="M236.645 262.348c.859 0 1.383-.699 1.169-1.561a2.138 2.138 0 00-1.947-1.56H166.78c-.859 0-1.383.698-1.169 1.56a2.137 2.137 0 001.947 1.561h69.087zM237.935 267.526c.861 0 1.385-.699 1.169-1.561a2.144 2.144 0 00-1.948-1.558h-69.084c-.862 0-1.386.699-1.172 1.558a2.143 2.143 0 001.947 1.561h69.088zM238.504 269.814h-69.087c-.858 0-1.383.699-1.169 1.561a2.146 2.146 0 001.948 1.558h69.087c.858 0 1.383-.698 1.169-1.558a2.141 2.141 0 00-1.948-1.561zM325.803 262.348c.861 0 1.385-.699 1.171-1.561a2.138 2.138 0 00-1.947-1.56h-69.088c-.861 0-1.385.698-1.168 1.56a2.135 2.135 0 001.947 1.561h69.085zM327.094 267.526c.859 0 1.383-.699 1.169-1.561a2.146 2.146 0 00-.723-1.092 2.147 2.147 0 00-1.224-.466h-69.087c-.859 0-1.383.699-1.169 1.558a2.137 2.137 0 001.947 1.561h69.087zM327.675 269.814h-69.098c-.861 0-1.386.699-1.169 1.561.121.431.374.813.724 1.092.349.28.777.443 1.223.466h69.085c.861 0 1.386-.698 1.172-1.558a2.145 2.145 0 00-1.937-1.561zM412.218 262.348c.861 0 1.385-.699 1.171-1.561a2.138 2.138 0 00-1.947-1.56h-69.087c-.862 0-1.386.698-1.169 1.56a2.137 2.137 0 001.947 1.561h69.085zM413.51 267.526c.858 0 1.383-.699 1.169-1.561a2.144 2.144 0 00-1.948-1.558h-69.087c-.859 0-1.383.699-1.169 1.558a2.143 2.143 0 001.947 1.561h69.088zM416.027 271.375a2.141 2.141 0 00-1.948-1.561h-69.087c-.861 0-1.385.699-1.169 1.561a2.146 2.146 0 001.948 1.558h69.084c.862 0 1.386-.698 1.172-1.558z" fill="#F1A34F"/>
    <path d="M429.393 281.798h-266.42c-2.353 0-4.742-1.908-5.325-4.254l-5.321-21.356a3.809 3.809 0 01.602-3.296 3.574 3.574 0 012.9-1.339h266.42c2.351 0 4.742 1.907 5.325 4.255l5.321 21.356a3.808 3.808 0 01-.602 3.296 3.574 3.574 0 01-2.9 1.338zm-273.57-28.678a2.043 2.043 0 00-1.669.733 2.25 2.25 0 00-.318 1.957l5.32 21.357c.415 1.662 2.162 3.068 3.812 3.068h266.42a2.055 2.055 0 001.669-.736 2.243 2.243 0 00.318-1.955l-5.32-21.356c-.415-1.663-2.161-3.068-3.812-3.068h-266.42z" fill="#F1A34F"/>
    <path d="M165.041 32.425a.528.528 0 00-.209-.365.54.54 0 00-.409-.1l-5.973.835a6.246 6.246 0 00-3.039-4.71l-.361-.208a6.23 6.23 0 00-5.834-.214l-2.364-5.925a.546.546 0 00-.296-.301.547.547 0 00-.601.113.54.54 0 00-.165.389.547.547 0 00.04.211l2.426 6.085a6.31 6.31 0 00-1.07.962c-.254.293-.48.61-.674.945l-.655 1.132-5.478-3.2a.558.558 0 00-.417-.055.544.544 0 00-.334.255.542.542 0 00-.056.417.557.557 0 00.255.334l5.492 3.192-.374.642a6.194 6.194 0 00-.723 1.928l-7.508 1.052a.547.547 0 00-.471.582.549.549 0 00.548.51h.075l7.244-1.014a6.254 6.254 0 003.095 5.472l.361.209a6.237 6.237 0 006.056.107l2.573 6.463a.552.552 0 00.713.306.552.552 0 00.306-.713l-2.656-6.667a6.158 6.158 0 001.525-1.756l.372-.642 5.491 3.194a.55.55 0 10.551-.95l-5.481-3.198.656-1.132a6.162 6.162 0 00.824-2.712l6.098-.852a.55.55 0 00.447-.62z" fill="#AFCDFB"/>
    <path d="M157.661 36.607l-1.578 2.723a6.247 6.247 0 01-8.517 2.26l-.361-.209a6.255 6.255 0 01-2.261-8.522l1.581-2.723a6.19 6.19 0 01.674-.945l10.949 6.367a6.137 6.137 0 01-.487 1.05z" fill="#E57970"/>
    <path d="M39.813 104.074l-6.912-1.971a6.163 6.163 0 00-.46-2.278l-.267-.688 5.884-2.41a.55.55 0 00-.414-1.014l-5.885 2.41-.498-1.21a6.039 6.039 0 00-1.645-2.309l3.044-5.354a.547.547 0 00-.952-.536l-2.985 5.24a6.227 6.227 0 00-5.59-.45l-.386.158a6.224 6.224 0 00-3.726 4.498l-6.133-1.74a.548.548 0 10-.3 1.054l6.3 1.78a6.09 6.09 0 00.455 2.535l.494 1.214-5.885 2.409a.546.546 0 00.225 1.071.573.573 0 00.209-.04l5.884-2.409.268.688a6.17 6.17 0 001.086 1.748l-3.745 6.597a.549.549 0 00.955.535l3.608-6.366a6.24 6.24 0 006.22.881l.387-.158a6.238 6.238 0 003.775-4.739l6.687 1.898c.049.014.099.021.15.021a.54.54 0 10.15-1.07l.002.005z" fill="#AFCDFB"/>
    <path d="M31.259 96.912l1.193 2.913a6.259 6.259 0 01-3.403 8.134l-.387.158a6.247 6.247 0 01-8.127-3.406l-1.193-2.913a6.075 6.075 0 01-.337-1.111l11.719-4.819c.211.33.39.68.535 1.044z" fill="#E57970"/>
    <path d="M109.023 301.171l-.152.118c-2.298 1.759-17.922 12.425-53.02 7.702a189.939 189.939 0 00-.67 4.016c-.108.664-.212 1.323-.308 1.976s-.193 1.288-.284 1.928v.034c-.09.643-.182 1.28-.267 1.917-.086.637-.172 1.272-.249 1.906-.078.635-.155 1.251-.23 1.875v.029c-.07.618-.142 1.234-.206 1.847s-.131 1.232-.193 1.845c-.061.613-.123 1.218-.174 1.823-.05.605-.11 1.202-.157 1.802-.038.436-.073.87-.105 1.304-.03.358-.056.717-.08 1.071-.021.305-.043.607-.061.91 0 .161-.022.319-.03.476-.032.509-.064 1.012-.09 1.519-.028.506-.06 1.07-.086 1.606 0 .104 0 .206-.014.308-.016.404-.037.803-.05 1.196 0 .316-.027.627-.035.94a164.274 164.274 0 00-.075 2.983c0 .452-.016.902-.019 1.338v3.218c0 .418 0 .836.016 1.248 0 .359 0 .712.021 1.071v.372c0 .367.022.734.035 1.098.014.364.027.779.04 1.167.014.388.038.835.06 1.248.02.484.045.963.074 1.443v.131c.027.474.056.94.088 1.405.032.466.067.98.107 1.462.04.482.078.967.12 1.443.043.477.084.953.132 1.424.048.472.09.895.139 1.339l.016.161c.048.433.096.862.147 1.29.05.429.11.902.169 1.339v.037c.058.442.115.886.179 1.339.064.452.123.881.192 1.32v.035l.201 1.274a.062.062 0 010 .021c.07.431.142.857.217 1.283.075.426.15.854.227 1.277.093.519.19 1.034.289 1.545.067.318.128.637.193.953.082.396.165.803.248 1.178 0 .051.024.101.035.152.078.367.16.737.244 1.095.088.402.179.804.267 1.189.193.803.39 1.606.596 2.391.094.359.19.712.29 1.071.098.358.2.733.307 1.097.072.268.15.536.23.804.08.267.152.535.233.787.061.206.126.409.19.615l.331 1.071c.23.704.464 1.399.701 2.086.115.343.236.68.356 1.017.12.338.243.672.364 1.002.337.905.68 1.791 1.032 2.658.105.268.212.517.319.774.153.369.308.736.465 1.1.123.284.246.568.374.849a86.532 86.532 0 002.092 4.385c.142.268.281.536.425.803.338.641.68 1.266 1.025 1.875.118.216.243.431.367.645.123.214.227.399.342.594l.398.677c.308.514.616 1.018.929 1.51.104.172.214.343.32.509.338.536.677 1.051 1.02 1.548.12.182.24.361.364.535a66.938 66.938 0 002.407 3.298l.444.571a67.972 67.972 0 002.295 2.76l.72.803a.675.675 0 01.061.067c.144.155.286.313.43.466a60.516 60.516 0 002.502 2.554l.401.383c.267.268.535.495.802.731.268.235.493.444.728.656.013.01.026.02.037.032.239.206.471.409.699.602.392.336.774.652 1.145.948l.307.243a44.748 44.748 0 001.873 1.414l.505.356a37.917 37.917 0 001.632 1.068c.235.145.444.268.626.381l.12.066.118.07c.422.244.655.356.655.356a88.701 88.701 0 006.516-2.409c13.273-5.561 23.772-14.005 32.08-23.788.024-.029.046-.053.064-.08 17.885-21.1 25.575-48.405 28.857-66.485.361-2.002.674-3.89.936-5.646-35.268-8.024-45.826-24.023-46.931-25.846z" fill="#588FE0"/>
    <path d="M149.976 335.374c-2.993 16.481-10.004 41.374-26.31 60.61a.772.772 0 01-.056.072c-7.576 8.921-17.146 16.618-29.248 21.686a78.042 78.042 0 01-5.94 2.206s-.212-.102-.597-.324l-.107-.064c-.035-.019-.072-.038-.11-.062-.166-.096-.356-.214-.57-.345a35.315 35.315 0 01-1.49-.975l-.46-.329a45.705 45.705 0 01-1.706-1.288l-.28-.224c-.338-.268-.686-.56-1.047-.863l-.634-.551-.035-.027a61.567 61.567 0 01-.663-.597c-.225-.206-.479-.436-.72-.669a53.229 53.229 0 01-2.648-2.677c-.13-.137-.267-.268-.393-.423a.549.549 0 00-.053-.062c-.22-.238-.439-.485-.658-.736a68.353 68.353 0 01-2.092-2.514l-.407-.52a66.797 66.797 0 01-2.19-3.009l-.332-.49c-.31-.46-.62-.929-.928-1.411-.097-.152-.196-.305-.292-.463-.286-.45-.564-.907-.848-1.376l-.36-.618-.314-.536a69.622 69.622 0 01-1.268-2.308c-.13-.246-.267-.492-.388-.744a80.016 80.016 0 01-1.907-3.997c-.115-.268-.227-.517-.34-.776-.144-.33-.286-.664-.425-1.002-.096-.235-.195-.468-.289-.704a97.135 97.135 0 01-.941-2.425 62.63 62.63 0 01-.332-.913c-.11-.308-.22-.616-.326-.927a78.632 78.632 0 01-.94-2.872c-.058-.188-.117-.375-.173-.563a21.896 21.896 0 01-.214-.717c-.067-.241-.142-.485-.209-.728-.096-.332-.19-.664-.28-1.002l-.268-.972c-.19-.714-.37-1.44-.535-2.179-.088-.359-.174-.72-.268-1.071-.093-.35-.15-.664-.219-.998l-.032-.14c-.078-.353-.153-.712-.227-1.07-.06-.29-.115-.579-.174-.871-.091-.465-.18-.931-.268-1.405a58.595 58.595 0 01-.208-1.165 75.459 75.459 0 01-.196-1.17.045.045 0 000-.018c-.059-.389-.12-.774-.181-1.162a.146.146 0 000-.035c-.062-.399-.12-.803-.174-1.202l-.166-1.21a.114.114 0 000-.033 94.007 94.007 0 01-.153-1.234l-.136-1.178c0-.048 0-.096-.014-.144a73.906 73.906 0 01-.128-1.224c-.04-.42-.083-.862-.118-1.298-.034-.437-.075-.873-.11-1.315-.034-.442-.066-.883-.098-1.338a85.37 85.37 0 01-.08-1.28v-.121a69.057 69.057 0 01-.067-1.317 80.78 80.78 0 01-.09-2.209c-.012-.366-.023-.666-.03-1.001v-.337c0-.322-.017-.645-.02-.969 0-.378-.013-.758-.013-1.138v-1.5-1.435c0-.406 0-.803.019-1.228.016-.897.037-1.8.07-2.718 0-.286.018-.57.029-.857.013-.361.032-.722.048-1.089v-.268a268.62 268.62 0 01.16-2.857c0-.144.02-.289.03-.433.016-.268.035-.554.056-.83.019-.324.043-.651.07-.977l.096-1.189a280.558 280.558 0 01.302-3.304c.056-.557.112-1.119.177-1.681.064-.562.126-1.122.187-1.687v-.027c.067-.567.134-1.135.209-1.708.075-.573.147-1.156.227-1.737.08-.581.158-1.162.24-1.748v-.033c.084-.583.172-1.167.268-1.756.096-.589.185-1.197.281-1.799.19-1.205.393-2.424.613-3.657 31.997 4.308 46.238-5.416 48.335-7.023.054-.04.099-.077.139-.104 1.009 1.668 10.633 16.248 42.799 23.56-.241 1.598-.533 3.32-.862 5.146z" fill="#AFCDFB"/>
    <path d="M108.173 306.539L87.825 419.626c-.211-.12-.476-.267-.787-.471a35.156 35.156 0 01-1.49-.974l-.46-.332a45.705 45.705 0 01-1.706-1.288l-.28-.225a52.11 52.11 0 01-1.047-.862l-.634-.552-.035-.026a62.543 62.543 0 01-.663-.597c-.225-.206-.479-.437-.72-.67a52.675 52.675 0 01-2.648-2.677c-.13-.136-.267-.268-.393-.423a67.524 67.524 0 01-2.803-3.312l-.407-.519a67.45 67.45 0 01-2.19-3.009l-.332-.49c-.31-.461-.62-.929-.928-1.411-.097-.153-.196-.305-.292-.463a74.16 74.16 0 01-.848-1.376l-.361-.619-.313-.535c-.112-.196-.225-.391-.334-.589a71.484 71.484 0 01-.934-1.719c-.13-.246-.267-.493-.388-.744a79.637 79.637 0 01-1.907-3.998c-.115-.267-.227-.516-.34-.776a49.249 49.249 0 01-.425-1.001c-.096-.236-.195-.469-.289-.704a98.748 98.748 0 01-.941-2.426c-.113-.3-.222-.605-.332-.913-.11-.308-.22-.616-.326-.926a80.126 80.126 0 01-.637-1.901 80.99 80.99 0 01-.302-.972 44.719 44.719 0 01-.174-.562 21.953 21.953 0 01-.214-.718c-.067-.241-.142-.484-.209-.728-.096-.332-.19-.664-.28-1.001-.092-.338-.177-.643-.268-.972-.19-.715-.37-1.44-.535-2.179-.088-.359-.174-.72-.268-1.071-.093-.351-.15-.664-.219-.999l-.032-.139c-.078-.353-.153-.712-.227-1.071-.06-.289-.115-.578-.174-.87-.091-.466-.18-.932-.268-1.406a57.226 57.226 0 01-.208-1.164 77.512 77.512 0 01-.196-1.17.05.05 0 000-.019c-.059-.388-.12-.774-.181-1.162a.146.146 0 000-.035c-.062-.399-.12-.803-.174-1.202l-.166-1.21a.107.107 0 000-.032 96.157 96.157 0 01-.153-1.234l-.136-1.178c0-.048 0-.097-.014-.145a74.92 74.92 0 01-.128-1.223c-.04-.421-.083-.862-.118-1.299-.034-.436-.075-.873-.11-1.314a164.57 164.57 0 01-.098-1.339 84.548 84.548 0 01-.08-1.28v-.12a69.477 69.477 0 01-.067-1.317 80.78 80.78 0 01-.09-2.209c-.012-.367-.023-.667-.03-1.001v-.338c0-.321-.017-.645-.02-.969 0-.377-.013-.758-.013-1.138v-1.499-1.435c0-.407 0-.803.019-1.229.016-.897.037-1.799.07-2.717 0-.287.018-.571.029-.857.013-.361.032-.723.048-1.09v-.267c.024-.49.05-.983.078-1.473.026-.49.053-.921.083-1.384 0-.145.018-.289.029-.434.016-.267.035-.554.056-.83.019-.324.043-.65.07-.977l.096-1.189a272.852 272.852 0 01.302-3.303c.056-.557.112-1.119.177-1.682.064-.562.126-1.121.187-1.686v-.027c.067-.568.134-1.135.209-1.708.075-.573.147-1.157.227-1.738.08-.581.158-1.162.24-1.748v-.032c.084-.584.172-1.167.268-1.756.096-.589.185-1.197.281-1.799.19-1.205.393-2.424.613-3.658 34.813 4.675 48.608-7.255 48.608-7.255z" fill="#699DEE"/>
</svg>
