<svg viewBox="0 0 163 308" fill="none" xmlns="http://www.w3.org/2000/svg">
    <path d="M52.269 126.812s-7.565 1.944-12.372.496c-4.806-1.449-13.08.931-14.412 2.677-1.332 1.746-.845 2.452 1.533 3.058 2.378.605 10.801 4.2 16.338 2.12 5.537-2.08 12.757-2.158 12.757-2.158l-3.844-6.193z" fill="#E49963"/>
    <path d="M117.627 61.062s-8.495 60.434-22.563 65.836c-6.954 2.678-37.617 8.725-46.692 9.333 0 0-2.223-1.804-1.68-9.151 0 0 32.139-11.809 36.705-18.232 6.794-9.56-4.219-39.05 4.309-48.027 8.527-8.977 22.886-12.824 29.921.24z" fill="#4A75CB"/>
    <path d="M116.541 294.031v-13.29h20.728a1.019 1.019 0 001.017-1.017v-2.113a1.019 1.019 0 00-1.017-1.017h-20.728v-75.001a3.828 3.828 0 00-3.822-3.825h-4.103a3.827 3.827 0 00-2.7 1.123 3.842 3.842 0 00-1.123 2.702v75.006H84.068a1.021 1.021 0 00-1.02 1.018v2.112a1.024 1.024 0 001.02 1.018h20.725v13.289c-14.998 1.136-27.016 6.541-30.381 13.523h72.511c-3.371-6.987-15.384-12.393-30.382-13.528z" fill="#2B478B"/>
    <path d="M114.763 188.384a105.967 105.967 0 01-8.293 11.884c-9.132 11.537-19.069 21.049-20.802 30.042a40.526 40.526 0 01-1.605 5.753 70.974 70.974 0 01-2.648 6.466c-3.874 8.422-9.67 17.862-15.453 26.443-10.002 14.832-19.407 27.206-19.407 27.206l-17.245-.733c.69-1.73 8.212-22.222 18.275-47.238 4.085-10.16 8.431-20.968 12.623-31.388l1.67-4.152 3.773-9.387c9.448-23.501 16.975-42.212 16.975-42.212s37.765-14.318 41.686-5.041c3.229 7.651.594 15.145-9.549 32.357z" fill="#163560"/>
    <path d="M46.012 293.041s-.845 14.312-3.598 14.516c-.366.029-31.497 0-31.497 0s.25-4.327 5.324-5.213c5.074-.886 13.567-4.455 16.64-11.167 3.234-7.06 13.131 1.864 13.131 1.864zM85.945 252.35s11.997 7.715 10.834 10.219c-.155.334-6.786 12.219-6.786 12.219l-8.56 15.121s-3.598-2.142-1.894-7.007c1.704-4.864 2.726-14.028-1.629-19.985-4.574-6.27 8.035-10.567 8.035-10.567z" fill="#163560"/>
    <path d="M70.017 154.107s-47.701 29.718-52.992 49.575c-5.291 19.857 63.052 62.228 63.052 62.228s7.49-6.618 8.827-11.475c0 0-30.892-37.043-37.593-45.347-4.116-5.087 60.852-17.654 68.791-30.012 7.939-12.359 5.095-22.757 5.095-22.757l-55.18-2.212z" fill="#1C468A"/>
    <path d="M159.174 192.218h-97.01a3.53 3.53 0 00-3.529 3.531v19.418a3.53 3.53 0 003.528 3.532h97.011a3.53 3.53 0 003.528-3.532v-19.418a3.53 3.53 0 00-3.528-3.531z" fill="#EE9849"/>
    <path d="M114.594 49.66s-18.823 10.532-30.18 7.592a26.812 26.812 0 017.221-6.548 101.005 101.005 0 01-.652-3.117c-1.086-5.55-1.282-8.778-1.282-8.778l8.672-7.778 5.832 1.237c.112.573.235 1.13.374 1.676 2.707 10.8 10.015 15.716 10.015 15.716z" fill="#E49963"/>
    <path d="M126.62 104.366c-1.626 21.898.514 55.198-1.337 60.964-1.605 4.977-19.739 2.019-26.982.359-2.675-.616-5.928-1.494-9.28-2.533-9.361-2.899-19.547-7.038-20.642-10.112a2.692 2.692 0 01-.099-.353 2.494 2.494 0 01-.042-.23 2.895 2.895 0 01.061-1.052c.364-1.567 1.768-3.261 1.934-7.141.185-4.329.158-9.429.321-14.912 0-.618.016-1.293.083-1.906v-.576c.158-6.115.479-12.545.848-18.92.236-4.016.508-7.973.821-11.78.803-9.81 1.916-18.532 3.37-24.044 2.379-8.99 7.621-14.854 12.396-19.15l3.45-2.965c3.853.844 8.408.284 12.527-1.67 4.457-2.118 5.997-3.636 6.773-3.063 10.312 7.954 17.719 32.317 15.798 59.084z" fill="#739AF0"/>
    <path d="M89.027 163.156c-9.362-2.9-19.548-7.039-20.642-10.112a2.751 2.751 0 01-.1-.354.715.715 0 00-.042-.23 2.895 2.895 0 01.062-1.052c.363-1.566 1.768-3.261 1.934-7.14.184-4.33.157-9.43.32-14.913 0-.618.017-1.293.084-1.906v-.576l35.345-16.039s2.036 28.497-16.961 52.322z" fill="#4A75CB"/>
    <path d="M104.579 33.943c-1.284 3.248-5.127 10.905-13.596 13.654-1.086-5.55-1.281-8.779-1.281-8.779l8.672-7.777 5.831 1.237c.112.562.235 1.119.374 1.665z" fill="#D68D5D"/>
    <path d="M86.27 38.722s18.608 2.102 19.737-9.517c1.129-11.62 4.28-19.172-7.543-21.006-11.823-1.834-14.576 2.377-15.894 6.158-1.319 3.78-1.11 23.52 3.7 24.365z" fill="#E49963"/>
    <path d="M105.927 30.008s-1.18-15.424-18.12-17.022c-11.6-1.092-5.133-11.09-3.894-12.682 0 0 8.888 1.218 17.999 2.725 19.126 3.165 5.893 24.577 4.015 26.979z" fill="#2B478B"/>
    <path d="M61.214 138.664l-46.11.986-13.11-40.381-1.629.527 13.859 42.692 47.051-1.007-.061-2.817z" fill="#4A75CB"/>
    <path d="M56.16 136.105s-7.302 2.766-12.24 1.856c-4.937-.91-12.9 2.369-14.03 4.259-1.128 1.89-.57 2.53 1.873 2.87 2.442.34 11.197 2.983 16.47.306 5.272-2.678 12.443-3.553 12.443-3.553l-4.515-5.738z" fill="#E49963"/>
    <path d="M113.877 63.54s-1.787 61.004-15.172 67.936c-6.604 3.421-36.427 12.824-45.38 14.43 0 0-2.407-1.547-2.674-8.91 0 0 30.64-15.284 34.474-22.17 5.7-10.251-8.496-38.346-1.009-48.21 7.487-9.862 21.33-15.284 29.761-3.076z" fill="#739AF0"/>
</svg>
