<svg viewBox="0 0 292 269" fill="none" xmlns="http://www.w3.org/2000/svg">
    <path d="M23.838 186.971c-5.304-3.06-5.328-8.031 0-11.091l84.49-48.915c5.293-3.06 13.871-3.048 19.175 0l136.335 78.976c5.304 3.06 5.327 8.032 0 11.092l-84.491 48.914c-5.28 3.061-13.858 3.049-19.163 0l-14.574-8.441s-12.052 4.819-13.683 1.782c-1.021-1.888 5.562-6.484 5.562-6.484L23.838 186.971z" fill="#9CE9FF"/>
    <path d="M258.123 211.651l-79.198 45.878c-5.21 3.013-13.695 3.013-18.928 0L25.281 179.491c-2.64-1.524-3.954-3.518-3.942-5.522v5.78c0 1.993 1.314 3.998 3.942 5.522l134.68 78.015c5.246 3.025 13.718 3.037 18.94 0l79.198-45.866c2.594-1.501 3.896-3.518 3.896-5.441v-5.78c.059 1.982-1.279 3.951-3.872 5.452z" fill="#004A73"/>
    <path d="M25.281 180.616c-5.245-3.036-5.269-7.937 0-10.962l79.198-45.867c5.222-3.024 13.695-3.013 18.94 0l134.704 77.617c5.234 3.025 5.269 8.359 0 11.384l-79.198 45.867c-5.21 3.025-13.695 3.013-18.928 0L25.281 180.616z" fill="#21AEFC"/>
    <path d="M25.281 179.467c-5.245-3.025-5.269-7.937 0-10.95l79.198-45.878c5.222-3.025 13.695-3.014 18.94 0l134.716 78.026c5.233 3.037 5.257 7.938 0 10.963l-79.198 45.878c-5.211 3.013-13.695 3.001-18.929 0L25.281 179.467z" fill="#1072A8"/>
    <path d="M113.093 226.506l-30.57-17.587c-1.83-1.066-1.83-2.79 0-3.845l20.032-11.619a7.405 7.405 0 016.665 0l30.57 17.587c1.842 1.067 1.842 2.79 0 3.845l-20.032 11.561a7.405 7.405 0 01-6.665.058z" fill="#3E9BD6"/>
    <path d="M185.144 235.206L63.83 165.081c-1.842-1.055-1.842-2.779 0-3.845l49.486-28.819a7.401 7.401 0 016.665 0l121.314 70.124c1.843 1.055 1.843 2.779 0 3.846l-49.485 28.819a7.42 7.42 0 01-6.666 0zM139.789 212.284l-30.569-17.586a7.339 7.339 0 00-6.665 0l-20.043 11.501a2.759 2.759 0 00-1.256 1.337c-.328-.879.082-1.829 1.256-2.509l20.043-11.572a7.405 7.405 0 016.665 0l30.569 17.587c1.174.68 1.596 1.641 1.256 2.509a2.749 2.749 0 00-1.256-1.267z" fill="#004A73"/>
    <path d="M155.502 214.559l-47.748-27.541c-.622-.364-.622-.938 0-1.29l5.797-3.341a2.413 2.413 0 012.229 0l47.702 27.552a.683.683 0 01.465.645.677.677 0 01-.465.645l-5.75 3.33a2.494 2.494 0 01-2.23 0zM135.248 153.591l-5.797-3.283a.688.688 0 01-.457-.65.694.694 0 01.457-.651l5.785-3.33a2.444 2.444 0 012.242 0l5.785 3.33c.622.363.622.938 0 1.29l-5.774 3.294a2.438 2.438 0 01-2.241 0zM145.739 159.688l-5.726-3.342a.662.662 0 01-.473-.639.668.668 0 01.473-.639l5.785-3.341a2.414 2.414 0 012.229 0l5.797 3.341a.67.67 0 010 1.278l-5.797 3.342a2.413 2.413 0 01-2.288 0zM156.23 165.738l-5.797-3.33a.684.684 0 01-.465-.645.683.683 0 01.465-.644l5.797-3.342a2.417 2.417 0 012.229 0l5.797 3.342a.678.678 0 010 1.289l-5.797 3.33a2.413 2.413 0 01-2.229 0zM166.721 171.8l-5.797-3.342c-.61-.363-.622-.938 0-1.29l5.797-3.341a2.417 2.417 0 012.23 0l5.797 3.341a.683.683 0 01.464.645.679.679 0 01-.464.645l-5.797 3.342a2.494 2.494 0 01-2.23 0zM177.2 177.849l-5.785-3.341c-.622-.364-.622-.938 0-1.29l5.785-3.341a2.442 2.442 0 012.241 0l5.786 3.341c.621.352.621.926 0 1.29l-5.786 3.341a2.502 2.502 0 01-2.241 0zM187.691 183.899l-5.785-3.341c-.622-.364-.622-.938 0-1.29l5.785-3.341a2.445 2.445 0 012.242 0l5.785 3.341c.622.352.622.926 0 1.29l-5.785 3.341a2.51 2.51 0 01-2.242 0zM198.182 189.937l-5.785-3.341c-.622-.364-.622-.938 0-1.29l5.785-3.341a2.482 2.482 0 012.229 0l5.797 3.341a.68.68 0 010 1.29l-5.797 3.341a2.477 2.477 0 01-2.229 0zM208.673 195.999l-5.797-3.341a.686.686 0 01-.465-.645.684.684 0 01.465-.645l5.797-3.342a2.425 2.425 0 012.229 0l5.797 3.342a.684.684 0 01.465.645.683.683 0 01-.465.645l-5.797 3.341a2.492 2.492 0 01-2.229 0zM219.164 202.049l-5.797-3.342c-.622-.363-.622-.938 0-1.289l5.797-3.342a2.495 2.495 0 012.229 0l5.797 3.342a.678.678 0 010 1.289l-5.797 3.342a2.49 2.49 0 01-2.229 0zM229.643 208.099l-5.785-3.342c-.622-.363-.622-.938 0-1.29l5.785-3.341a2.52 2.52 0 012.241 0l5.785 3.341c.622.352.622.927 0 1.29l-5.785 3.342a2.518 2.518 0 01-2.241 0zM124.581 159.794l-5.797-3.342a.684.684 0 01-.448-.639.68.68 0 01.448-.639l5.797-3.341a2.42 2.42 0 012.23 0l5.797 3.341a.683.683 0 01.448.639.677.677 0 01-.448.639l-5.797 3.342a2.432 2.432 0 01-2.23 0zM135.072 165.843l-5.797-3.329a.683.683 0 01-.464-.645.677.677 0 01.464-.645l5.797-3.341a2.418 2.418 0 012.23 0l5.797 3.341a.677.677 0 01.464.645.683.683 0 01-.464.645l-5.797 3.329a2.42 2.42 0 01-2.23 0zM145.563 171.893l-5.797-3.329c-.622-.364-.622-.938 0-1.29l5.797-3.342a2.432 2.432 0 012.23 0l5.785 3.342c.622.352.622.926 0 1.29l-5.785 3.329a2.417 2.417 0 01-2.23 0zM156.042 177.955l-5.785-3.342c-.622-.363-.622-.938 0-1.289l5.785-3.342a2.444 2.444 0 012.242 0l5.785 3.342c.622.351.622.926 0 1.289l-5.785 3.342a2.523 2.523 0 01-2.242 0zM166.533 184.005l-5.785-3.342c-.622-.363-.622-.938 0-1.29l5.785-3.341a2.44 2.44 0 012.241 0l5.786 3.341c.622.352.622.927 0 1.29l-5.786 3.342a2.515 2.515 0 01-2.241 0zM177.024 190.055l-5.797-3.342a.684.684 0 01-.465-.645.683.683 0 01.465-.645l5.797-3.341a2.414 2.414 0 012.229 0l5.797 3.341a.686.686 0 01.465.645.684.684 0 01-.465.645l-5.797 3.342a2.49 2.49 0 01-2.229 0zM187.515 196.104l-5.797-3.341a.677.677 0 01-.465-.645.677.677 0 01.465-.645l5.797-3.341a2.417 2.417 0 012.23 0l5.797 3.341a.683.683 0 01.464.645.679.679 0 01-.464.645l-5.797 3.341a2.482 2.482 0 01-2.23 0zM197.994 202.154l-5.785-3.341c-.622-.364-.622-.938 0-1.29l5.785-3.341a2.507 2.507 0 012.241 0l5.785 3.341c.622.352.622.926 0 1.29l-5.785 3.341a2.502 2.502 0 01-2.241 0zM208.485 208.204l-5.785-3.341c-.622-.364-.622-.938 0-1.29l5.785-3.342a2.519 2.519 0 012.241 0l5.786 3.342c.622.352.622.926 0 1.29l-5.786 3.341a2.502 2.502 0 01-2.241 0zM218.976 214.254l-5.797-3.341a.683.683 0 01-.336-1.043.681.681 0 01.336-.247l5.797-3.342a2.494 2.494 0 012.229 0l5.797 3.342c.622.352.622.926 0 1.29l-5.797 3.341a2.49 2.49 0 01-2.229 0zM113.914 165.949l-5.797-3.342a.664.664 0 01-.472-.639.671.671 0 01.472-.639l5.797-3.341a2.42 2.42 0 012.23 0l5.797 3.341a.686.686 0 01.448.639.678.678 0 01-.448.639l-5.797 3.342a2.417 2.417 0 01-2.23 0zM124.393 171.999l-5.785-3.33c-.622-.363-.622-.938 0-1.29l5.785-3.341a2.444 2.444 0 012.242 0l5.785 3.341c.622.352.622.927 0 1.29l-5.785 3.33a2.444 2.444 0 01-2.242 0zM134.885 178.06l-5.786-3.365c-.622-.363-.622-.938 0-1.289l5.786-3.342a2.437 2.437 0 012.241 0l5.785 3.342c.622.351.622.926 0 1.289l-5.785 3.342a2.512 2.512 0 01-2.241.023zM145.375 184.075l-5.797-3.341a.683.683 0 01-.464-.645.679.679 0 01.464-.645l5.797-3.342a2.432 2.432 0 012.23 0l5.797 3.342a.677.677 0 01.464.645.676.676 0 01-.464.645l-5.797 3.341a2.495 2.495 0 01-2.23 0zM155.866 190.16l-5.797-3.341a.683.683 0 01-.465-.645.677.677 0 01.465-.645l5.797-3.342a2.429 2.429 0 012.23 0l5.797 3.342a.677.677 0 01.464.645.683.683 0 01-.464.645l-5.797 3.341a2.495 2.495 0 01-2.23 0zM166.357 196.21l-5.797-3.342c-.622-.363-.622-.938 0-1.289l5.797-3.342a2.42 2.42 0 012.23 0l5.797 3.342a.681.681 0 01.336 1.042.675.675 0 01-.336.247l-5.797 3.342a2.494 2.494 0 01-2.23 0zM176.836 202.26l-5.785-3.342c-.622-.363-.622-.938 0-1.29l5.785-3.341a2.444 2.444 0 012.242 0l5.785 3.341c.622.352.622.927 0 1.29l-5.785 3.342a2.522 2.522 0 01-2.242 0zM187.327 208.31l-5.785-3.342c-.622-.363-.622-.938 0-1.29l5.785-3.341a2.52 2.52 0 012.242 0l5.785 3.341c.622.352.622.927 0 1.29l-5.785 3.342a2.519 2.519 0 01-2.242 0zM197.818 214.359l-5.797-3.318a.675.675 0 01-.464-.644.677.677 0 01.464-.645l5.797-3.342a2.494 2.494 0 012.23 0l5.797 3.342a.681.681 0 01.336 1.042.675.675 0 01-.336.247l-5.797 3.342a2.489 2.489 0 01-2.23-.024zM208.309 220.421l-5.797-3.341a.683.683 0 01-.336-1.043.681.681 0 01.336-.247l5.797-3.342a2.494 2.494 0 012.23 0l5.75 3.283a.677.677 0 01.464.645.679.679 0 01-.464.645l-5.75 3.4a2.495 2.495 0 01-2.23 0zM103.236 172.104l-5.786-3.271c-.622-.363-.622-.938 0-1.29l5.786-3.341a2.437 2.437 0 012.241 0l5.785 3.341c.622.352.622.927 0 1.29l-5.785 3.33a2.444 2.444 0 01-2.241-.059zM113.726 178.213l-5.785-3.342c-.622-.363-.622-.938 0-1.29l5.785-3.341a2.444 2.444 0 012.242 0l5.785 3.341c.622.352.622.927 0 1.29l-5.785 3.342a2.519 2.519 0 01-2.242 0zM124.218 184.216l-5.797-3.342a.68.68 0 010-1.29l5.797-3.341a2.413 2.413 0 012.229 0l5.797 3.341a.686.686 0 01.465.645.679.679 0 01-.465.645l-5.797 3.342a2.494 2.494 0 01-2.229 0zM134.708 190.266l-5.797-3.342a.681.681 0 010-1.29l5.797-3.341a2.42 2.42 0 012.23 0l5.797 3.341a.683.683 0 01.336 1.043.681.681 0 01-.336.247l-5.797 3.342a2.494 2.494 0 01-2.23 0zM145.187 196.315l-5.785-3.341c-.622-.363-.622-.938 0-1.29l5.785-3.341a2.444 2.444 0 012.242 0l5.785 3.341c.622.352.622.927 0 1.29l-5.785 3.341a2.507 2.507 0 01-2.242 0zM155.678 202.365l-5.785-3.341c-.622-.364-.622-.938 0-1.29l5.785-3.341a2.445 2.445 0 012.242 0l5.785 3.341c.622.352.622.926 0 1.29l-5.785 3.341a2.507 2.507 0 01-2.242 0zM166.169 208.415l-5.797-3.341a.683.683 0 01-.464-.645.679.679 0 01.464-.645l5.797-3.342a2.494 2.494 0 012.23 0l5.797 3.342c.622.352.622.926 0 1.29l-5.797 3.341a2.495 2.495 0 01-2.23 0zM176.66 214.465l-5.797-3.342a.675.675 0 01-.465-.644.678.678 0 01.465-.645l5.797-3.342a2.494 2.494 0 012.23 0l5.797 3.342a.681.681 0 01.336 1.042.675.675 0 01-.336.247l-5.797 3.342a2.494 2.494 0 01-2.23 0zM187.151 220.515l-5.797-3.342a.681.681 0 01-.336-1.042.675.675 0 01.336-.247l5.797-3.342a2.494 2.494 0 012.23 0l5.797 3.342a.675.675 0 01.464.644.684.684 0 01-.464.645l-5.797 3.342a2.494 2.494 0 01-2.23 0zM197.63 226.564l-5.785-3.341a.677.677 0 01-.465-.645.677.677 0 01.465-.645l5.785-3.341a2.507 2.507 0 012.242 0l5.785 3.341a.683.683 0 01.464.645.679.679 0 01-.464.645l-5.797 3.341a2.508 2.508 0 01-2.23 0zM92.569 178.271l-5.797-3.341a.678.678 0 01-.337-1.042.684.684 0 01.337-.248l5.797-3.341a2.416 2.416 0 012.23 0l5.796 3.341a.686.686 0 01.465.645.679.679 0 01-.465.645l-5.797 3.341a2.48 2.48 0 01-2.23 0zM103.059 184.321l-5.797-3.341a.678.678 0 01-.336-1.042.678.678 0 01.336-.248l5.797-3.341a2.42 2.42 0 012.23 0l5.797 3.341a.677.677 0 01.465.645.677.677 0 01-.465.645l-5.797 3.341a2.482 2.482 0 01-2.23 0zM114.677 141.667l-5.797-3.318a.675.675 0 01-.464-.644.677.677 0 01.464-.645l5.797-3.33a2.417 2.417 0 012.23 0l5.797 3.33a.681.681 0 01.336 1.042.675.675 0 01-.336.247l-5.797 3.342a2.426 2.426 0 01-2.23-.024zM125.168 147.729l-5.797-3.342a.662.662 0 01-.473-.639.668.668 0 01.473-.639l5.797-3.341a2.417 2.417 0 012.23 0l5.785 3.341a.67.67 0 010 1.278l-5.785 3.342a2.42 2.42 0 01-2.23 0zM103.998 147.823l-5.785-3.342a.669.669 0 010-1.278l5.785-3.341a2.444 2.444 0 012.242 0l5.785 3.341a.67.67 0 010 1.278l-5.785 3.342a2.444 2.444 0 01-2.242 0zM114.489 153.873l-5.785-3.33c-.622-.364-.622-.938 0-1.29l5.785-3.341a2.445 2.445 0 012.242 0l5.785 3.341c.622.352.622.926 0 1.29l-5.785 3.33a2.444 2.444 0 01-2.242 0zM93.331 153.978l-5.785-3.341c-.622-.352-.622-.926 0-1.29l5.785-3.33a2.44 2.44 0 012.242 0l5.785 3.33c.622.364.622.938 0 1.29l-5.785 3.341a2.442 2.442 0 01-2.242 0zM103.823 160.028l-5.797-3.33a.682.682 0 01-.465-.645.68.68 0 01.465-.644l5.797-3.342a2.413 2.413 0 012.229 0l5.797 3.342a.675.675 0 01.465.644.678.678 0 01-.465.645l-5.797 3.33a2.417 2.417 0 01-2.229 0zM82.665 160.133l-5.797-3.341a.684.684 0 01-.448-.639.678.678 0 01.448-.639l5.797-3.341a2.417 2.417 0 012.23 0l5.796 3.341a.684.684 0 01.448.639.678.678 0 01-.448.639l-5.832 3.341a2.42 2.42 0 01-2.194 0zM93.156 166.183l-5.797-3.341a.67.67 0 01-.342-1.037.669.669 0 01.342-.241l5.797-3.342a2.43 2.43 0 012.23 0l5.796 3.342a.675.675 0 01.448.639.68.68 0 01-.448.639l-5.761 3.341a2.417 2.417 0 01-2.265 0zM71.95 166.289l-5.75-3.318a.67.67 0 01-.341-1.037.669.669 0 01.342-.241l5.75-3.412a2.44 2.44 0 012.24 0l5.786 3.342a.662.662 0 01.473.639.666.666 0 01-.473.638l-5.785 3.342a2.443 2.443 0 01-2.241.047zM82.512 172.35l-5.867-3.341c-.622-.364-.622-.938 0-1.29l5.867-3.341a2.442 2.442 0 012.241 0l5.786 3.341c.622.352.622.926 0 1.29l-5.82 3.341a2.444 2.444 0 01-2.207 0zM165.982 220.62l-5.786-3.341c-.622-.364-.622-.938 0-1.29l5.786-3.341a2.502 2.502 0 012.241 0l5.785 3.341c.622.352.622.926 0 1.29l-5.832 3.341a2.513 2.513 0 01-2.194 0zM176.472 226.67l-5.785-3.341a.683.683 0 01-.464-.645.679.679 0 01.464-.645l5.785-3.341a2.51 2.51 0 012.242 0l5.785 3.341a.677.677 0 01.465.645.677.677 0 01-.465.645l-5.762 3.341a2.516 2.516 0 01-2.265 0zM186.951 232.72l-5.785-3.341a.683.683 0 01-.464-.645.679.679 0 01.464-.645l5.785-3.342a2.494 2.494 0 012.23 0l5.797 3.342c.622.352.622.926 0 1.29l-5.797 3.341a2.495 2.495 0 01-2.23 0z" fill="#3E9BD6"/>
    <path d="M206.901 175.469a.378.378 0 00-.262.358.374.374 0 00.262.357 1.367 1.367 0 001.243 0 .372.372 0 00.262-.357.375.375 0 00-.262-.358 1.366 1.366 0 00-1.243 0zM204.718 174.191a.375.375 0 000 .715 1.335 1.335 0 001.232 0 .37.37 0 00.189-.136.369.369 0 000-.443.375.375 0 00-.189-.136 1.347 1.347 0 00-1.232 0zM202.5 172.913a.375.375 0 000 .715 1.374 1.374 0 001.244 0 .376.376 0 00.19-.579.382.382 0 00-.19-.136 1.374 1.374 0 00-1.244 0zM200.282 171.635a.375.375 0 000 .716 1.386 1.386 0 001.244 0 .377.377 0 000-.716 1.45 1.45 0 00-1.244 0zM198.065 170.357a.378.378 0 00-.262.358.372.372 0 00.262.357 1.367 1.367 0 001.244 0 .372.372 0 00.189-.579.375.375 0 00-.189-.136 1.457 1.457 0 00-1.244 0zM195.858 169.079a.381.381 0 00-.262.358.378.378 0 00.262.358 1.347 1.347 0 001.232 0c.352-.188.352-.516 0-.716a1.427 1.427 0 00-1.232 0zM204.976 176.595a.375.375 0 000 .715 1.374 1.374 0 001.244 0 .375.375 0 000-.715 1.374 1.374 0 00-1.244 0zM202.758 175.317a.375.375 0 000 .715 1.374 1.374 0 001.244 0 .378.378 0 00.262-.358.374.374 0 00-.262-.357 1.367 1.367 0 00-1.244 0zM201.174 174.906c.486 0 .88-.225.88-.504 0-.278-.394-.504-.88-.504s-.88.226-.88.504c0 .279.394.504.88.504zM198.334 172.761a.375.375 0 000 .715 1.374 1.374 0 001.244 0 .375.375 0 000-.715 1.374 1.374 0 00-1.244 0zM196.116 171.483a.375.375 0 000 .715 1.374 1.374 0 001.244 0 .378.378 0 00.262-.357.375.375 0 00-.262-.358 1.437 1.437 0 00-1.244 0zM193.91 170.205c-.352.199-.352.528 0 .715a1.334 1.334 0 001.232 0 .378.378 0 00.262-.357.375.375 0 00-.262-.358 1.414 1.414 0 00-1.232 0zM203.028 177.72a.375.375 0 000 .716 1.386 1.386 0 001.244 0 .38.38 0 00.262-.358.377.377 0 00-.262-.358 1.38 1.38 0 00-1.244 0zM200.81 176.442a.375.375 0 000 .716 1.386 1.386 0 001.244 0 .372.372 0 00.19-.58.382.382 0 00-.19-.136 1.374 1.374 0 00-1.244 0zM198.604 175.164c-.352.2-.352.516 0 .716a1.35 1.35 0 001.233 0 .377.377 0 000-.716 1.35 1.35 0 00-1.233 0zM196.34 173.886a.378.378 0 00-.262.358.377.377 0 00.262.358 1.335 1.335 0 001.173 0c.352-.2.352-.516 0-.716a1.34 1.34 0 00-1.173 0zM194.169 172.609a.372.372 0 00-.262.357.377.377 0 00.262.358 1.367 1.367 0 001.243 0 .378.378 0 00.262-.358.372.372 0 00-.262-.357 1.366 1.366 0 00-1.243 0zM191.95 171.33a.381.381 0 00-.262.358.378.378 0 00.262.358 1.386 1.386 0 001.244 0 .378.378 0 00.262-.358.377.377 0 00-.262-.358 1.45 1.45 0 00-1.244 0zM172.529 155.62a.375.375 0 000 .715 1.374 1.374 0 001.244 0 .378.378 0 00.262-.358.374.374 0 00-.262-.357 1.367 1.367 0 00-1.244 0zM170.312 154.342a.372.372 0 00-.262.357.375.375 0 00.262.358 1.367 1.367 0 001.244 0 .375.375 0 000-.715 1.374 1.374 0 00-1.244 0zM168.106 153.064a.372.372 0 00-.262.357.375.375 0 00.262.358 1.331 1.331 0 001.232 0c.352-.199.352-.516 0-.715a1.337 1.337 0 00-1.232 0zM165.888 151.786a.376.376 0 00-.19.579.382.382 0 00.19.136 1.374 1.374 0 001.244 0 .375.375 0 000-.715 1.374 1.374 0 00-1.244 0zM163.67 150.508a.372.372 0 00-.262.357.375.375 0 00.262.358 1.367 1.367 0 001.244 0 .375.375 0 000-.715 1.374 1.374 0 00-1.244 0zM161.464 149.23c-.352.199-.352.516 0 .715a1.331 1.331 0 001.232 0 .375.375 0 000-.715 1.334 1.334 0 00-1.232 0zM170.582 156.745a.378.378 0 00-.262.358.374.374 0 00.262.357 1.37 1.37 0 001.244 0 .375.375 0 000-.715 1.374 1.374 0 00-1.244 0zM168.986 156.335c.486 0 .88-.226.88-.504 0-.279-.394-.505-.88-.505s-.881.226-.881.505c0 .278.395.504.881.504zM166.158 154.189c-.352.2-.352.516 0 .715a1.332 1.332 0 001.232 0 .373.373 0 000-.715 1.35 1.35 0 00-1.232 0zM163.94 152.911a.377.377 0 000 .716 1.344 1.344 0 001.232 0c.352-.2.352-.516 0-.716a1.35 1.35 0 00-1.232 0zM161.722 151.633a.377.377 0 000 .716 1.386 1.386 0 001.244 0 .375.375 0 000-.716 1.386 1.386 0 00-1.244 0zM159.504 150.355a.375.375 0 000 .716 1.386 1.386 0 001.244 0 .381.381 0 00.262-.358.378.378 0 00-.262-.358 1.386 1.386 0 00-1.244 0zM169.256 158.738c.486 0 .88-.225.88-.504 0-.278-.394-.504-.88-.504s-.881.226-.881.504c0 .279.395.504.881.504zM166.416 156.593a.378.378 0 00-.262.358.374.374 0 00.262.357 1.367 1.367 0 001.244 0 .375.375 0 000-.715 1.374 1.374 0 00-1.244 0zM164.82 156.182c.486 0 .88-.225.88-.504 0-.278-.394-.504-.88-.504-.487 0-.881.226-.881.504 0 .279.394.504.881.504zM162.602 154.904c.486 0 .88-.225.88-.504 0-.278-.394-.504-.88-.504s-.88.226-.88.504c0 .279.394.504.88.504zM160.396 153.626c.486 0 .88-.225.88-.504 0-.278-.394-.504-.88-.504s-.88.226-.88.504c0 .279.394.504.88.504zM158.178 152.349c.486 0 .88-.226.88-.505 0-.278-.394-.504-.88-.504s-.88.226-.88.504c0 .279.394.505.88.505zM130.988 130.752l7.581 4.373a1.042 1.042 0 001.044 0l2.265-1.301-8.907-5.147-2.006 1.172c-.622.575.023.903.023.903zM233.574 190.031l7.581 4.373a1.05 1.05 0 001.056 0l2.241-1.301-8.918-5.147-2.007 1.172c-.587.586.047.903.047.903z" fill="#104F75"/>
    <path d="M270.268 193.455l18.189-90.361c.998-6.026-.821-11.783-9.481-16.414L146.549 10.306a7.94 7.94 0 00-7.276-.645s.587-.2 2.922-1.348a7.88 7.88 0 017.545.54l132.427 76.385c8.672 4.596 10.491 10.352 9.482 16.414l-18.095 89.868c-.739 4.08-2.194 7.281-4.377 8.712a35.985 35.985 0 01-3.403 1.958c2.218-1.396 3.696-4.608 4.494-8.735z" fill="#177BB3"/>
    <path d="M264.894 202.635l-.129.07.129-.07z" fill="#575757"/>
    <path d="M147.84 9.626c-5.246-3.025-10.984-.598-12.533 6.964l-18.306 90.701c-1.854 9.474 4.236 13.366 9.481 16.415l134.845 77.792c5.55 2.72 8.918-1.7 10.174-8.7l18.248-90.396c.997-6.015-.822-11.725-9.482-16.414L147.84 9.626z" fill="#21AEFC"/>
    <path d="M146.549 10.306c-5.246-3.025-10.984-.598-12.533 7.035l-18.318 90.63c-1.842 9.474 4.236 13.366 9.493 16.415l134.845 77.792c5.539 2.696 8.907-1.689 10.233-8.723l18.188-90.361c.998-6.026-.821-11.783-9.481-16.414L146.549 10.306z" fill="#12608C"/>
    <path d="M144.542 15.71l-20.688 99.612 137.907 79.129 20.371-99.506-137.59-79.234z" fill="#2EC4FF"/>
    <path d="M125.473 109.132l-1.619 6.19 137.907 79.129 1.314-6.085-137.602-79.234z" fill="#0F89C7"/>
    <path d="M121.917 116.014L142.7 14.644l1.842 1.067-20.395 99.518-2.23.785z" fill="#177BB3"/>
    <path d="M124.147 115.229l137.614 79.222-.376 1.841-139.468-80.278 2.23-.785z" fill="#5CB1DB"/>
    <path d="M214.892 53.347a1.998 1.998 0 00.986 2.063 1.042 1.042 0 001.355-.373 1.05 1.05 0 00.159-.483 2.01 2.01 0 00-.986-2.063 1.033 1.033 0 00-1.514.856z" fill="#0A334A"/>
    <path d="M216.176 54.256c.236-.09.331-.417.212-.732-.119-.315-.408-.498-.644-.408-.236.09-.331.417-.212.732.119.315.407.498.644.408z" fill="#21AEFC"/>
    <path d="M149.4 31.774l-2.699-1.548a2.409 2.409 0 01-1.056-2.415l.892-4.397a1.09 1.09 0 011.725-.797l2.687 1.547a2.35 2.35 0 011.068 2.415l-.892 4.397a1.095 1.095 0 01-.634.891 1.107 1.107 0 01-1.091-.093zM146.619 44.471l-2.699-1.56a2.417 2.417 0 01-1.068-2.415l.892-4.384a1.095 1.095 0 01.63-.9 1.103 1.103 0 011.095.09l2.699 1.56a2.41 2.41 0 011.056 2.415l-.892 4.385a1.092 1.092 0 01-1.713.81zM143.814 57.157l-2.699-1.56a2.414 2.414 0 01-1.068-2.414l.904-4.385a1.092 1.092 0 011.713-.81l2.699 1.56a2.416 2.416 0 011.068 2.415l-.903 4.385a1.093 1.093 0 01-1.714.81z" fill="#0F89C7"/>
    <path d="M166.932 36.745l-1.161.645 93.725 142.91 1.162-.633 16.3-79.563-110.026-63.36z" fill="#199CCF"/>
    <path d="M272.885 114.9l-13.389 65.4-12.58-7.211-20.313-11.654-77.379-44.389 13.624-65.599L272.885 114.9z" fill="#DBF4FF"/>
    <path d="M166.732 53.534l-10.373 49.97 69.176 39.699 10.221-49.923-69.024-39.746z" fill="#13779E"/>
    <path d="M165.665 58.623l-7.651 37.096 69.176 39.688 7.499-37.038-69.024-39.746z" fill="#2EC4FF"/>
    <path d="M165.77 37.39l-1.267 6.12 110.072 63.16 1.209-5.921-110.014-63.36z" fill="#13779E"/>
    <path d="M164.503 43.51l-1.655 7.937L272.885 114.9l1.69-8.23-110.072-63.16z" fill="#73D7FF"/>
    <path d="M173.316 54.601l.516-2.474a.654.654 0 01.372-.459.657.657 0 01.59.026l83.083 47.718a.927.927 0 01.446.997l-.552 2.767a.67.67 0 01-.128.282.664.664 0 01-.846.163l-83.035-48.023a.951.951 0 01-.446-.997z" fill="#DBF4FF"/>
    <path d="M265.727 98.486a.933.933 0 01-.988.772.936.936 0 01-.431-.139 1.726 1.726 0 01-.587-1.9.935.935 0 01.991-.76c.152.01.299.058.429.14a1.675 1.675 0 01.586 1.887z" fill="#CCEFF3"/>
    <path d="M269.271 100.515a.94.94 0 01-1.42.633 1.661 1.661 0 01-.587-1.888.936.936 0 01.989-.772c.153.01.301.058.431.139a1.696 1.696 0 01.587 1.888z" fill="#C7F8FF"/>
    <path d="M272.768 102.496a.938.938 0 01-1.42.621 1.703 1.703 0 01-.587-1.888.955.955 0 01.989-.765c.152.009.3.054.431.132a1.7 1.7 0 01.587 1.9z" fill="#9EDEF0"/>
    <path d="M169.866 42.548l-3.38-2.028.129-.633 3.38 2.028-.129.633zM169.631 43.71l-3.38-2.03.13-.632 3.379 2.028-.129.633zM169.396 44.87l-3.379-2.017.129-.633 3.379 2.029-.129.621z" fill="#CCEFF3"/>
    <path d="M240.005 99.553l-3.051 14.679 20.324 11.654 2.993-14.655-20.266-11.678z" fill="#2EC4FF"/>
    <path d="M269.306 118.218l-7.651-4.584.282-1.43 7.651 4.584-.282 1.43zM268.661 121.771l-7.64-4.596.282-1.43 7.639 4.596-.281 1.43zM267.922 125.101l-7.651-4.585.293-1.43 7.639 4.584-.281 1.431z" fill="#73D7FF"/>
    <path d="M236.379 116.671l-3.051 14.679 20.324 11.654 3.004-14.667-20.277-11.666z" fill="#25A6D9"/>
    <path d="M265.68 135.336l-7.651-4.584.294-1.43 7.639 4.584-.282 1.43zM265.035 138.877l-7.639-4.584.281-1.431 7.64 4.585-.282 1.43zM264.296 142.219l-7.64-4.585.282-1.43 7.639 4.584-.281 1.431z" fill="#73D7FF"/>
    <path d="M232.401 134.246l-3.04 14.679 20.313 11.654 3.004-14.656-20.277-11.677z" fill="#2EC4FF"/>
    <path d="M261.702 152.923l-7.639-4.596.282-1.419 7.639 4.585-.282 1.43zM261.057 156.464l-7.64-4.596.282-1.419 7.651 4.584-.293 1.431zM260.318 159.793l-7.64-4.584.282-1.43 7.639 4.584-.281 1.43zM248.864 163.581l-1.948 9.508-20.312-11.654 1.983-9.532 20.277 11.678zM257.888 170.58l-7.639-4.596.282-1.419 7.639 4.585-.282 1.43zM257.243 174.121l-7.639-4.584.281-1.431 7.64 4.584-.282 1.431zM256.504 177.451l-7.64-4.585.282-1.43 7.639 4.584-.281 1.431z" fill="#73D7FF"/>
    <path d="M258.956 104.079l.587-2.709a.662.662 0 01.679-.522.655.655 0 01.295.089l5.867 3.329a.934.934 0 01.458.997l-.563 2.743a.649.649 0 01-.376.466.645.645 0 01-.303.056.641.641 0 01-.295-.088l-5.868-3.365a.936.936 0 01-.481-.996zM186.623 62.023l-11.031-6.554.235-1.395 11.031 6.554-.235 1.395zM208.016 128.548l-.317 1.559 8.449 4.866.317-1.559-8.449-4.866z" fill="#40AFDB"/>
    <path d="M163.412 102.777l-.352 1.689 44.639 25.641.317-1.559-44.604-25.771z" fill="#145070"/>
    <path d="M158.8 103.223l.727-3.436.81.481-.728 3.424-.809-.469zM160.337 104.032l.727-3.424.81.481-.727 3.423-.81-.48zM218.812 136.356l-.787-.457.329-1.618.786.457-.328 1.618zM220.138 135.453l.187-.973-.927.387-.328 1.653.598 1.278.212-1.055c.234 0 .445-.246.504-.586a.678.678 0 00-.246-.704zM224.726 140.249l-2.805-1.653a.199.199 0 01-.082-.188l.434-2.345a.196.196 0 01.039-.074.21.21 0 01.068-.05.193.193 0 01.163.007l2.793 1.665a.182.182 0 01.068.075c.014.032.019.067.014.101l-.434 2.345a.177.177 0 01-.258.117z" fill="#40AFDB"/>
    <path d="M186.975 127.469l-7.64-4.584.282-1.431 7.651 4.585-.293 1.43zM195.952 132.757l-7.651-4.584.282-1.431 7.651 4.584-.282 1.431zM195.401 136.415l-16.711-9.989.294-1.431 16.71 9.989-.293 1.431zM181.167 131.69l-3.216-1.935.282-1.43 3.215 1.934-.281 1.431zM185.602 134.234l-3.204-1.934.282-1.431 3.204 1.935-.282 1.43zM207.804 147.518l-20.97-12.686.282-1.43 20.97 12.686-.282 1.43zM208.591 144.153l-11.97-7.211.282-1.43 11.969 7.211-.281 1.43zM200.376 135.442l-3.215-1.935.281-1.43 3.216 1.934-.282 1.431zM209.389 140.753l-7.792-4.702.293-1.43 7.78 4.702-.281 1.43z" fill="#73D7FF"/>
    <path style="mix-blend-mode:multiply" d="M157.779 221.488c-7.135 4.174-23.247.106-42.152-11.666-18.904-11.771-28.28-15.453-27.353-24.246.621-5.945 9.786-10.494 25.675-8.067 8.215 1.267 61.268-14.292 71.277-18.759 0 0 2.418-47.074 3.075-46.675 2.112 1.325 24.443 4.619 27.553 6.87l-8.132 52.913c-3.274 2.685-51.457 30.296-48.723 33.356 6.525 7.27 2.476 14.117-1.22 16.274z" fill="url(#paint0_linear)"/>
    <path d="M218.53 113.575c-.34 4.514-2.159 7.574-4.835 8.864-2.675 1.29-29.09 15.629-29.09 15.629-7.499-5.089-18.928-26.486-18.271-35.514 0 0 24.22-13.553 28.011-14.984 3.602-1.371 7.099-2.755 11.734.434 7.581 5.089 13.12 16.544 12.451 25.571z" fill="url(#paint1_linear)"/>
    <path d="M184.402 138.202c5.771-2.786 6.536-13.14 1.708-23.129-4.829-9.988-13.422-15.827-19.194-13.042-5.771 2.786-6.536 13.14-1.708 23.129 4.829 9.988 13.422 15.827 19.194 13.042z" fill="#353536"/>
    <path d="M187.327 128.665c-.598 7.973-6.43 10.786-13.061 6.284-6.63-4.502-11.5-14.609-10.913-22.581.587-7.973 6.442-10.787 13.049-6.296 6.102 4.138 10.714 13.049 10.937 20.658.043.645.039 1.291-.012 1.935z" fill="#1E1E1F"/>
    <path d="M186.952 128.782c-.306 4.033-1.925 6.754-4.307 7.903-2.382 1.149-9.505 5.018-9.505 5.018-6.689-4.538-18.213-22.195-17.603-30.238 0-.61 6.513-4.596 9.881-5.862 3.368-1.266 6.337-2.451 10.561.387 6.584 4.537 11.512 14.773 10.973 22.792z" fill="#F1F1F3"/>
    <path d="M172.887 141.813c5.148-2.484 5.831-11.716 1.527-20.619-4.304-8.904-11.966-14.108-17.113-11.624s-5.831 11.715-1.527 20.619c4.304 8.903 11.966 14.108 17.113 11.624z" fill="#D9DCE1"/>
    <path d="M175.487 133.308c-.528 7.117-5.727 9.626-11.641 5.616s-10.256-13.038-9.74-20.143 5.75-9.626 11.641-5.616c5.445 3.693 9.564 11.643 9.752 18.419.031.575.027 1.15-.012 1.724z" fill="url(#paint2_linear)"/>
    <path d="M175.498 131.584a9.905 9.905 0 01-4.342 6.022 9.927 9.927 0 01-7.31 1.318c-6.936-1.642-10.256-13.038-9.74-20.143s5.75-9.626 11.641-5.616c5.445 3.693 9.564 11.643 9.751 18.419z" fill="url(#paint3_linear)"/>
    <path d="M182.551 134.691h-.059a.575.575 0 01-.504-.609l.317-3.154a.567.567 0 01.205-.382.568.568 0 01.624-.059.555.555 0 01.285.546l-.317 3.154a.55.55 0 01-.551.504z" fill="#C2C5C9"/>
    <path d="M184.346 128.97a7.223 7.223 0 01-2.57 4.021 4.162 4.162 0 01-.563-.281 1.17 1.17 0 01-.457-1.173 3.77 3.77 0 011.901-2.802 1.17 1.17 0 011.173 0c.165.094.337.173.516.235z" fill="#C2C5C9"/>
    <path d="M184.816 130.142a3.743 3.743 0 01-1.901 2.803c-.974.468-1.69 0-1.62-1.103a3.776 3.776 0 011.901-2.802c.974-.469 1.702.024 1.62 1.102z" fill="#D9DCE1"/>
    <path d="M169.443 126.449c-.657 3.236-3.391 6.202-4.87 9.755-3.367 8.09-5.726 8.992-8.026 9.825-15.995 5.862-6.489-9.028-5.762-18.97.728-9.943 4.987-17.716 9.505-17.388 4.518.328 11.16 6.894 9.153 16.778z" fill="#F7C494"/>
    <path d="M169.772 121.677c.281 3.518-8.66 6.472-10.151 9.239-3.673 6.8-.387 13.987-3.074 15.113-12.287 5.206-6.49-9.028-5.762-18.97.223-2.955 3.767-6.507 8.285-6.167 4.518.34 9.986-7.961 10.702.785z" fill="#EBB37E"/>
    <path style="mix-blend-mode:multiply" d="M151.383 150.309c-1.654.797-3.813 1.969-5.691 2.778-3.344 1.431-6.325 1.571-8.766.54-1.091-.68-2.922-1.677-4.494-2.767-1.561-1.091-2.852-2.275-2.781-3.283.07-1.009 1.901-4.971 2.088-6.449l1.596-22.464.364-5.1c-.129 1.735.88 3.517 3.051 5.018 1.6 1.05 3.384 1.79 5.257 2.181 1.675.373 3.39.531 5.105.469a15.78 15.78 0 006.208-1.431c2.347-1.172 3.684-2.825 3.814-4.549l-1.866 26.205c-.153 1.758-.165 7.351-3.885 8.852z" fill="url(#paint4_linear)"/>
    <path d="M137.489 108.944c-4.799 2.345-5.151 6.625-.774 9.614a18.378 18.378 0 0016.628 1.173c4.8-2.345 5.14-6.613.763-9.602a18.326 18.326 0 00-16.617-1.185z" fill="#fff"/>
    <path d="M136.762 122.474l-.693-3.2a.364.364 0 01.575-.282l2.77 1.97a.628.628 0 01.27.539l-.634 8.489s0 .305-.223.352a1.275 1.275 0 01-.469 0c-1.338.656-1.596-7.868-1.596-7.868z" fill="#730C06"/>
    <path d="M131.997 127.246l1.573-6.765 3.098 2.111-1.573 6.777a1.57 1.57 0 00.399 1.735l-3.098-2.134a1.57 1.57 0 01-.399-1.724z" fill="url(#paint5_linear)"/>
    <path d="M139.261 121.349l-3.098-2.122-2.593 1.254 3.098 2.111 2.593-1.243z" fill="#fff"/>
    <path d="M136.668 122.592l-1.573 6.776c-.352 1.489.505 2.345 1.784 1.7l1.748-.844.634-8.875-2.593 1.243z" fill="#9196A8"/>
    <g style="mix-blend-mode:multiply">
        <path d="M134.145 114.724c-5.867 2.861-5.527 10.928-.14 14.609 5.386 3.682 13.729 1.583 19.632-1.278 5.902-2.861 6.313-8.137.939-11.818-5.375-3.682-14.563-4.35-20.431-1.513z" fill="#FEFEFE" opacity=".01"/>
        <path d="M134.145 114.654c-5.867 2.849-5.527 10.904-.152 14.574 5.374 3.669 13.741 1.606 19.656-1.243 5.914-2.849 6.313-8.137.927-11.819-5.387-3.681-14.563-4.361-20.431-1.512z" fill="#FDFDFD" opacity=".02"/>
        <path d="M134.145 114.572c-5.867 2.861-5.539 10.881-.164 14.562 5.374 3.682 13.753 1.63 19.656-1.172 5.902-2.803 6.313-8.137.939-11.819-5.375-3.681-14.563-4.408-20.431-1.571z" fill="#FCFCFD" opacity=".03"/>
        <path d="M134.145 114.502c-5.867 2.849-5.539 10.845-.164 14.526 5.374 3.682 13.753 1.653 19.667-1.172 5.915-2.826 6.314-8.207.928-11.819-5.387-3.611-14.563-4.385-20.431-1.535z" fill="#FBFBFC" opacity=".04"/>
        <path d="M134.145 114.42c-5.867 2.861-5.55 10.821-.176 14.503 5.375 3.681 13.765 1.677 19.668-1.172 5.902-2.85 6.313-8.137.938-11.819-5.374-3.681-14.562-4.35-20.43-1.512z" fill="#FAFAFB" opacity=".05"/>
        <path d="M134.145 114.349c-5.867 2.849-5.562 10.799-.176 14.468 5.386 3.67 13.765 1.712 19.679-1.172 5.915-2.884 6.302-8.207.927-11.818-5.374-3.612-14.562-4.327-20.43-1.478z" fill="#F9F9FA" opacity=".06"/>
        <path d="M134.145 114.267c-5.867 2.849-5.574 10.775-.188 14.457 5.387 3.681 13.777 1.723 19.68-1.173 5.902-2.896 6.313-8.137.938-11.818-5.374-3.682-14.562-4.35-20.43-1.466z" fill="#F8F8FA" opacity=".06"/>
        <path d="M134.145 114.197c-5.867 2.849-5.574 10.739-.188 14.421 5.387 3.681 13.777 1.759 19.691-1.09 5.915-2.849 6.302-8.208.927-11.819-5.374-3.611-14.562-4.326-20.43-1.512z" fill="#F7F7F9" opacity=".07"/>
        <path d="M134.145 114.115c-5.867 2.849-5.586 10.716-.211 14.397 5.374 3.682 13.8 1.783 19.703-1.067 5.902-2.849 6.313-8.136.927-11.818-5.387-3.681-14.552-4.361-20.419-1.512z" fill="#F6F6F8" opacity=".08"/>
        <path d="M134.145 114.044c-5.867 2.85-5.586 10.693-.211 14.363 5.374 3.67 13.8 1.817 19.714-1.032 5.915-2.849 6.302-8.207.927-11.83-5.374-3.623-14.504-4.35-20.43-1.501z" fill="#F5F6F7" opacity=".09"/>
        <path d="M134.145 113.962c-5.867 2.849-5.597 10.67-.223 14.351 5.375 3.682 13.812 1.829 19.715-1.02 5.902-2.849 6.313-8.137.927-11.818-5.387-3.682-14.493-4.362-20.419-1.513z" fill="#F4F5F7" opacity=".1"/>
        <path d="M134.145 113.88c-5.867 2.861-5.597 10.646-.223 14.328 5.375 3.681 13.812 1.864 19.726-.997 5.915-2.861 6.302-8.137.927-11.818-5.374-3.682-14.492-4.35-20.43-1.513z" fill="#F3F4F6" opacity=".11"/>
        <path d="M134.145 113.81c-5.867 2.849-5.621 10.611-.235 14.292 5.387 3.682 13.824 1.888 19.727-.961 5.902-2.849 6.313-8.137.927-11.819-5.387-3.681-14.481-4.361-20.419-1.512z" fill="#F2F3F5" opacity=".12"/>
        <path d="M134.145 113.728c-5.867 2.861-5.621 10.552-.235 14.269 5.387 3.716 13.824 1.922 19.738-.938 5.915-2.861 6.302-8.137.927-11.819-5.374-3.681-14.48-4.349-20.43-1.512z" fill="#F1F2F4" opacity=".13"/>
        <path d="M134.204 113.657c-5.868 2.849-5.633 10.552-.247 14.246 5.387 3.693 13.836 1.934 19.738-.915 5.903-2.849 6.314-8.207.927-11.818-5.386-3.611-14.527-4.362-20.418-1.513z" fill="#F0F1F3" opacity=".14"/>
        <path d="M134.204 113.576c-5.868 2.86-5.633 10.552-.258 14.221 5.374 3.67 13.847 1.958 19.761-.891s6.302-8.137.927-11.818c-5.375-3.682-14.528-4.35-20.43-1.512z" fill="#EFF0F3" opacity=".15"/>
        <path d="M134.204 113.505c-5.868 2.849-5.633 10.552-.258 14.187 5.374 3.634 13.858 1.993 19.761-.856 5.903-2.849 6.313-8.207.927-11.818-5.386-3.612-14.528-4.362-20.43-1.513z" fill="#EEEFF2" opacity=".16"/>
        <path d="M134.215 113.423c-5.867 2.849-5.644 10.552-.269 14.163 5.374 3.611 13.858 2.017 19.773-.832 5.914-2.849 6.301-8.137.927-11.818-5.375-3.682-14.528-4.362-20.431-1.513z" fill="#EDEEF1" opacity=".17"/>
        <path d="M134.215 113.353c-5.867 2.849-5.644 10.458-.269 14.139 5.374 3.682 13.87 2.041 19.773-.809 5.902-2.849 6.313-8.207.927-11.818-5.387-3.611-14.528-4.361-20.431-1.512z" fill="#ECEDF0" opacity=".17"/>
        <path d="M134.227 113.271c-5.867 2.849-5.668 10.434-.281 14.069 5.386 3.635 13.87 2.064 19.784-.785 5.915-2.85 6.302-8.137.927-11.819-5.374-3.681-14.527-4.314-20.43-1.465z" fill="#EBECF0" opacity=".18"/>
        <path d="M134.227 113.2c-5.867 2.849-5.668 10.411-.281 14.07 5.386 3.658 13.87 2.098 19.784-.751 5.915-2.849 6.314-8.207.927-11.818-5.386-3.611-14.527-4.35-20.43-1.501z" fill="#EAEBEF" opacity=".19"/>
        <path d="M134.239 113.118c-5.867 2.849-5.68 10.388-.293 14.07 5.386 3.681 13.882 2.122 19.796-.727 5.914-2.849 6.302-8.137.927-11.819-5.374-3.681-14.527-4.373-20.43-1.524z" fill="#E9EAEE" opacity=".2"/>
        <path d="M134.239 113.048c-5.867 2.849-5.68 10.353-.305 14.069 5.374 3.717 13.894 2.146 19.808-.715 5.915-2.861 6.314-8.137.927-11.818-5.386-3.682-14.527-4.373-20.43-1.536z" fill="#E8E9ED" opacity=".21"/>
        <path d="M134.251 112.966c-5.868 2.849-5.692 10.329-.317 14.069 5.374 3.74 13.906 2.169 19.808-.68 5.903-2.849 6.314-8.137.939-11.818-5.375-3.682-14.528-4.42-20.43-1.571z" fill="#E7E8ED" opacity=".22"/>
        <path d="M134.251 112.884c-5.868 2.86-5.692 10.317-.317 13.987 5.374 3.67 13.906 2.204 19.82-.657 5.914-2.86 6.313-8.136.927-11.818-5.386-3.681-14.528-4.35-20.43-1.512z" fill="#E6E7EC" opacity=".23"/>
        <path d="M134.263 112.813c-5.868 2.849-5.715 10.283-.329 13.964 5.386 3.682 13.917 2.216 19.82-.633 5.903-2.849 6.313-8.207.939-11.818-5.375-3.611-14.54-4.362-20.43-1.513z" fill="#E5E6EB" opacity=".24"/>
        <path d="M134.263 112.731c-5.868 2.861-5.715 10.259-.329 13.941 5.386 3.681 13.917 2.251 19.832-.61 5.914-2.861 6.313-8.137.927-11.818-5.386-3.682-14.528-4.35-20.43-1.513z" fill="#E4E5EA" opacity=".25"/>
        <path d="M134.274 112.661c-5.867 2.849-5.726 10.224-.34 13.905 5.386 3.682 13.929 2.275 19.832-.574 5.902-2.849 6.313-8.149.939-11.819-5.375-3.669-14.54-4.361-20.431-1.512z" fill="#E3E5E9" opacity=".26"/>
        <path d="M134.274 112.555c-5.867 2.849-5.726 10.212-.34 13.882s13.929 2.345 19.844-.551c5.914-2.896 6.313-8.137.927-11.818-5.387-3.682-14.528-4.338-20.431-1.513z" fill="#E2E4E9" opacity=".27"/>
        <path d="M134.286 112.555c-5.868 2.849-5.739 10.177-.364 13.859 5.375 3.681 13.953 2.345 19.855-.528 5.903-2.872 6.314-8.207.939-11.818-5.375-3.611-14.539-4.409-20.43-1.513z" fill="#E1E3E8" opacity=".28"/>
        <path d="M134.286 112.426c-5.868 2.85-5.739 10.154-.364 13.835 5.375 3.682 13.953 2.345 19.867-.504 5.914-2.849 6.313-8.137.927-11.818-5.386-3.682-14.528-4.362-20.43-1.513z" fill="#E0E2E7" opacity=".28"/>
        <path d="M134.298 112.356c-5.868 2.849-5.75 10.118-.376 13.8 5.375 3.681 13.964 2.345 19.867-.469 5.903-2.814 6.313-8.207.939-11.818-5.375-3.612-14.54-4.362-20.43-1.513z" fill="#DFE1E6" opacity=".29"/>
        <path d="M134.298 112.274c-5.868 2.849-5.762 10.107-.376 13.776 5.386 3.67 13.964 2.345 19.879-.445 5.914-2.791 6.313-8.137.927-11.818-5.386-3.682-14.528-4.362-20.43-1.513z" fill="#DEE0E6" opacity=".3"/>
        <path d="M134.309 112.204c-5.867 2.849-5.773 10.071-.387 13.752 5.386 3.682 13.976 2.427 19.879-.433 5.903-2.861 6.313-8.137.939-11.819-5.375-3.681-14.54-4.349-20.431-1.5z" fill="#DDDFE5" opacity=".31"/>
        <path d="M134.309 112.122c-5.867 2.849-5.773 10.047-.387 13.729 5.386 3.681 13.976 2.45 19.891-.399 5.914-2.849 6.301-8.137.927-11.818-5.375-3.682-14.528-4.362-20.431-1.512z" fill="#DCDEE4" opacity=".32"/>
        <path d="M134.321 112.039c-5.867 2.861-5.785 10.025-.411 13.706 5.375 3.682 14 2.486 19.949-.375 5.95-2.861 6.314-8.137.939-11.818-5.374-3.682-14.586-4.35-20.477-1.513z" fill="#DBDDE3" opacity=".33"/>
        <path d="M134.321 111.969c-5.867 2.849-5.785 10.001-.411 13.671 5.375 3.67 14 2.509 19.949-.34 5.95-2.849 6.302-8.137.927-11.818-5.374-3.682-14.562-4.362-20.465-1.513z" fill="#DADCE2" opacity=".34"/>
        <path d="M134.333 111.887c-5.868 2.861-5.797 9.978-.423 13.659 5.375 3.682 14.012 2.533 19.949-.328 5.938-2.861 6.314-8.137.928-11.818-5.387-3.682-14.563-4.362-20.454-1.513z" fill="#D9DBE2" opacity=".35"/>
        <path d="M134.333 111.817c-5.868 2.849-5.797 9.942-.423 13.624 5.375 3.681 14.012 2.556 19.949-.294 5.938-2.849 6.302-8.148.928-11.818-5.375-3.67-14.552-4.361-20.454-1.512z" fill="#D8DAE1" opacity=".36"/>
        <path d="M134.345 111.735c-5.868 2.86-5.868 9.93-.435 13.6 5.434 3.67 14.023 2.579 19.95-.27 5.926-2.849 6.313-8.136.927-11.818-5.387-3.681-14.552-4.361-20.442-1.512z" fill="#D7D9E0" opacity=".37"/>
        <path d="M134.345 111.664c-5.868 2.85-5.868 9.896-.435 13.566 5.434 3.67 14.023 2.614 19.949-.235 5.927-2.849 6.302-8.207.928-11.818-5.375-3.611-14.54-4.362-20.442-1.513z" fill="#D6D8DF" opacity=".38"/>
        <path d="M134.356 111.582c-5.867 2.85-5.867 9.873-.446 13.554 5.422 3.682 14.082 2.626 19.95-.223 5.867-2.849 6.313-8.137.927-11.818-5.387-3.682-14.54-4.362-20.431-1.513z" fill="#D5D7DF" opacity=".39"/>
        <path d="M134.356 111.512c-5.867 2.849-5.867 9.837-.457 13.518 5.41 3.682 14.082 2.662 19.949-.187 5.867-2.849 6.302-8.207.927-11.819-5.375-3.611-14.516-4.361-20.419-1.512z" fill="#D4D6DE" opacity=".39"/>
        <path d="M134.368 111.383c-5.867 2.849-5.867 9.825-.469 13.495s14.082 2.685 19.949-.164c5.867-2.849 6.313-8.137.927-11.818-5.386-3.682-14.516-4.315-20.407-1.513z" fill="#D3D5DD" opacity=".4"/>
        <path d="M134.368 111.383c-5.867 2.849-5.867 9.79-.469 13.471 5.398 3.682 14.082 2.709 19.949-.14 5.867-2.849 6.302-8.149.927-11.83-5.374-3.682-14.504-4.374-20.407-1.501z" fill="#D2D4DC" opacity=".41"/>
        <path d="M134.368 111.277c-5.867 2.849-5.867 9.767-.469 13.448 5.398 3.682 14.082 2.732 19.949-.117 5.867-2.849 6.313-8.137.927-11.818-5.386-3.682-14.504-4.362-20.407-1.513z" fill="#D1D4DC" opacity=".42"/>
        <path d="M134.38 111.195c-5.868 2.861-5.868 9.743-.482 13.425 5.387 3.681 14.082 2.767 19.95-.094 5.867-2.861 6.301-8.137.927-11.818-5.375-3.682-14.493-4.35-20.395-1.513z" fill="#D0D3DB" opacity=".43"/>
        <path d="M134.38 111.125c-5.868 2.849-5.868 9.72-.482 13.389 5.387 3.67 14.082 2.791 19.95 0 5.867-2.79 6.313-8.136.927-11.818-5.387-3.681-14.493-4.42-20.395-1.571z" fill="#CFD2DA" opacity=".44"/>
        <path d="M134.391 111.043c-5.867 2.861-5.867 9.696-.492 13.378 5.374 3.681 14.081 2.814 19.949 0 5.867-2.814 6.301-8.137.927-11.819-5.375-3.681-14.481-4.396-20.384-1.559z" fill="#CED1D9" opacity=".45"/>
        <path d="M134.392 110.973c-5.868 2.849-5.868 9.661-.505 13.342 5.363 3.682 14.082 2.837 20.008 0 5.926-2.837 6.313-8.207.927-11.818-5.386-3.611-14.528-4.373-20.43-1.524z" fill="#CDD0D8" opacity=".46"/>
        <path d="M134.403 110.891c-5.867 2.86-5.867 9.637-.516 13.319 5.351 3.681 14.082 2.86 20.02 0 5.937-2.861 6.301-8.137.927-11.819-5.375-3.681-14.528-4.338-20.431-1.5z" fill="#CCCFD8" opacity=".47"/>
        <path d="M134.403 110.82c-5.867 2.849-5.867 9.614-.516 13.284s14.082 2.896 20.019 0c5.938-2.896 6.314-8.207.928-11.818-5.387-3.611-14.528-4.315-20.431-1.466z" fill="#CBCED7" opacity=".48"/>
        <path d="M134.415 110.738c-5.867 2.849-5.867 9.591-.528 13.272 5.339 3.682 14.082 2.908 20.02 0 5.937-2.907 6.313-8.136.938-11.818-5.374-3.681-14.527-4.326-20.43-1.454z" fill="#CACDD6" opacity=".49"/>
        <path d="M134.415 110.668c-5.867 2.849-5.867 9.555-.528 13.237 5.339 3.681 14.082 2.943 20.031.094 5.95-2.849 6.314-8.207.927-11.819-5.386-3.611-14.527-4.314-20.43-1.512z" fill="#C9CCD5" opacity=".5"/>
        <path d="M134.427 110.586c-5.868 2.849-5.926 9.532-.54 13.213 5.386 3.682 14.082 2.966 20.031.117 5.95-2.849 6.313-8.136.939-11.818-5.375-3.681-14.54-4.361-20.43-1.512z" fill="#C9CBD5" opacity=".5"/>
        <path d="M134.427 110.515c-5.868 2.849-5.926 9.509-.54 13.179s14.082 3.001 20.043.152c5.961-2.849 6.313-8.148.927-11.818-5.386-3.67-14.528-4.362-20.43-1.513z" fill="#C8CAD4" opacity=".51"/>
        <path d="M134.438 110.433c-5.867 2.849-5.938 9.485-.563 13.167 5.374 3.681 14.152 3.013 20.055.164 5.902-2.849 6.313-8.137.938-11.818-5.374-3.682-14.539-4.362-20.43-1.513z" fill="#C7C9D3" opacity=".52"/>
        <path d="M134.438 110.363c-5.867 2.849-5.938 9.45-.563 13.131 5.374 3.682 14.152 3.049 20.066.188 5.915-2.861 6.314-8.137.927-11.818-5.386-3.682-14.527-4.35-20.43-1.501z" fill="#C6C8D2" opacity=".53"/>
        <path d="M134.45 110.281c-5.867 2.849-5.949 9.38-.575 13.108 5.375 3.728 14.164 3.072 20.067.223 5.902-2.849 6.313-8.137.938-11.819-5.374-3.681-14.539-4.361-20.43-1.512z" fill="#C5C7D2" opacity=".54"/>
        <path d="M134.45 110.211c-5.867 2.86-5.949 9.379-.575 13.084 5.375 3.705 14.164 3.107 20.078.246 5.915-2.86 6.314-8.136.927-11.818-5.386-3.681-14.527-4.361-20.43-1.512z" fill="#C4C6D1" opacity=".55"/>
        <path d="M134.462 110.129c-5.868 2.849-5.973 9.379-.587 13.061 5.386 3.681 14.176 3.118 20.078.269 5.903-2.849 6.314-8.207.939-11.818-5.374-3.611-14.539-4.361-20.43-1.512z" fill="#C3C5D0" opacity=".56"/>
        <path d="M134.462 110.046c-5.868 2.861-5.973 9.38-.587 13.038 5.386 3.658 14.176 3.154 20.09.293 5.914-2.861 6.313-8.137.927-11.818-5.386-3.682-14.528-4.35-20.43-1.513z" fill="#C2C4CF" opacity=".57"/>
        <path d="M134.474 109.976c-5.868 2.849-5.985 9.38-.599 13.003 5.387 3.622 14.188 3.177 20.09.328 5.903-2.849 6.314-8.207.939-11.819-5.374-3.611-14.539-4.361-20.43-1.512z" fill="#C1C3CE" opacity=".58"/>
        <path d="M134.473 109.894c-5.867 2.849-5.984 9.309-.61 12.979 5.375 3.67 14.199 3.201 20.114.352 5.914-2.849 6.301-8.137.927-11.819-5.375-3.681-14.528-4.361-20.431-1.512z" fill="#C0C3CE" opacity=".59"/>
        <path d="M134.485 109.824c-5.867 2.849-5.996 9.274-.621 12.897 5.374 3.622 14.21 3.224 20.113.375 5.903-2.849 6.313-8.207.927-11.819-5.386-3.611-14.528-4.302-20.419-1.453z" fill="#BFC2CD" opacity=".6"/>
        <path d="M134.485 109.742c-5.867 2.849-5.996 9.25-.621 12.896 5.374 3.647 14.21 3.248 20.125.399 5.914-2.849 6.301-8.137.927-11.818-5.375-3.682-14.528-4.327-20.431-1.477z" fill="#BEC1CC" opacity=".61"/>
        <path d="M134.497 109.671c-5.867 2.849-6.02 9.228-.633 12.897 5.386 3.67 14.222 3.283 20.125.434 5.902-2.849 6.313-8.207.927-11.818-5.387-3.611-14.528-4.362-20.419-1.513z" fill="#BDC0CB" opacity=".61"/>
        <path d="M134.497 109.589c-5.867 2.849-6.02 9.204-.633 12.897 5.386 3.693 14.222 3.295 20.136.446 5.915-2.85 6.302-8.137.927-11.819-5.374-3.681-14.527-4.42-20.43-1.524z" fill="#BCBFCB" opacity=".62"/>
        <path d="M134.509 109.519c-5.868 2.849-6.032 9.168-.646 12.897 5.387 3.728 14.235 3.33 20.137.469 5.903-2.861 6.314-8.137.927-11.819-5.386-3.681-14.527-4.373-20.418-1.547z" fill="#BBBECA" opacity=".63"/>
        <path d="M134.509 109.437c-5.868 2.849-6.032 9.145-.646 12.826 5.387 3.682 14.235 3.354 20.149.504 5.914-2.849 6.302-8.136.927-11.818-5.375-3.681-14.528-4.361-20.43-1.512z" fill="#BABDC9" opacity=".64"/>
        <path d="M134.52 109.355c-5.867 2.86-6.043 9.133-.668 12.803 5.374 3.67 14.257 3.388 20.16.527 5.903-2.86 6.313-8.136.927-11.818-5.386-3.681-14.528-4.35-20.419-1.512z" fill="#B9BCC8" opacity=".65"/>
        <path d="M134.52 109.284c-5.867 2.849-6.043 9.099-.668 12.78 5.374 3.682 14.257 3.4 20.172.551 5.914-2.849 6.301-8.137.927-11.818-5.375-3.682-14.528-4.362-20.431-1.513z" fill="#B8BBC8" opacity=".66"/>
        <path d="M134.533 109.202c-5.868 2.861-6.056 9.075-.681 12.757 5.374 3.681 14.269 3.435 20.172.574 5.903-2.861 6.313-8.137.927-11.818-5.386-3.682-14.528-4.35-20.418-1.513z" fill="#B7BAC7" opacity=".67"/>
        <path d="M134.532 109.132c-5.867 2.849-6.067 9.039-.68 12.721 5.386 3.681 14.269 3.459 20.183.61 5.915-2.85 6.302-8.208.928-11.819-5.375-3.611-14.528-4.361-20.431-1.512z" fill="#B6B9C6" opacity=".68"/>
        <path d="M134.532 109.038c-5.867 2.861-6.067 9.028-.68 12.698 5.386 3.669 14.281 3.517 20.183.633 5.903-2.885 6.314-8.137.927-11.819-5.386-3.681-14.527-4.349-20.43-1.512z" fill="#B5B8C5" opacity=".69"/>
        <path d="M134.544 109.038c-5.867 2.849-6.078 8.993-.692 12.674 5.386 3.682 14.281 3.518 20.196.657 5.914-2.861 6.301-8.149.927-11.818-5.375-3.67-14.528-4.42-20.431-1.513z" fill="#B4B7C4" opacity=".7"/>
        <path d="M134.544 108.897c-5.867 2.849-6.079 8.97-.704 12.651 5.374 3.682 14.305 3.518 20.207.68 5.903-2.837 6.313-8.137.927-11.818-5.386-3.682-14.527-4.362-20.43-1.513z" fill="#B3B6C4" opacity=".71"/>
        <path d="M134.556 108.827c-5.868 2.849-6.091 8.934-.716 12.616 5.374 3.681 14.304 3.517 20.219.715 5.914-2.802 6.301-8.207.927-11.818-5.375-3.612-14.528-4.362-20.43-1.513z" fill="#B2B5C3" opacity=".72"/>
        <path d="M134.556 108.745c-5.868 2.849-6.091 8.922-.716 12.592 5.374 3.67 14.304 3.588 20.219.739 5.914-2.849 6.313-8.137.927-11.819-5.386-3.681-14.528-4.361-20.43-1.512z" fill="#B1B4C2" opacity=".72"/>
        <path d="M134.568 108.675c-5.868 2.849-6.102 8.887-.728 12.568 5.375 3.682 14.317 3.611 20.231.762 5.914-2.849 6.301-8.207.927-11.83-5.375-3.623-14.528-4.349-20.43-1.5z" fill="#B0B3C1" opacity=".73"/>
        <path d="M134.567 108.592c-5.867 2.85-6.113 8.864-.727 12.546 5.386 3.681 14.316 3.634 20.231.785 5.914-2.849 6.313-8.137.927-11.818-5.387-3.682-14.528-4.362-20.431-1.513z" fill="#AFB2C1" opacity=".74"/>
        <path d="M134.58 108.51c-5.868 2.861-6.126 8.852-.74 12.522s14.328 3.67 20.231.809c5.903-2.861 6.313-8.137.939-11.818-5.375-3.682-14.528-4.35-20.43-1.513z" fill="#AEB2C0" opacity=".75"/>
        <path d="M134.58 108.44c-5.868 2.849-6.126 8.817-.74 12.487s14.328 3.693 20.243.844c5.914-2.849 6.313-8.137.927-11.818-5.386-3.682-14.528-4.362-20.43-1.513z" fill="#ADB1BF" opacity=".76"/>
        <path d="M134.591 108.358c-5.868 2.861-6.137 8.793-.763 12.475 5.375 3.681 14.352 3.717 20.254.856 5.903-2.861 6.314-8.137.939-11.819-5.374-3.681-14.539-4.349-20.43-1.512z" fill="#ACB0BE" opacity=".77"/>
        <path d="M134.591 108.288c-5.868 2.849-6.137 8.758-.763 12.439 5.375 3.682 14.352 3.741 20.266.892 5.914-2.85 6.313-8.208.927-11.819-5.386-3.611-14.528-4.361-20.43-1.512z" fill="#ABAFBD" opacity=".78"/>
        <path d="M134.603 108.206c-5.867 2.86-6.149 8.746-.775 12.416 5.375 3.67 14.364 3.764 20.266.914 5.903-2.849 6.314-8.136.939-11.818-5.374-3.681-14.539-4.35-20.43-1.512z" fill="#AAAEBD" opacity=".79"/>
        <path d="M134.603 108.135c-5.867 2.849-6.149 8.712-.775 12.393 5.375 3.682 14.399 3.752 20.266.938 5.868-2.814 6.314-8.148.928-11.818-5.387-3.67-14.516-4.362-20.419-1.513z" fill="#A9ADBC" opacity=".8"/>
        <path d="M134.614 108.053c-5.867 2.849-6.172 8.688-.786 12.37 5.386 3.681 14.399 3.857 20.266.961 5.867-2.896 6.313-8.137.939-11.818-5.375-3.682-14.528-4.362-20.419-1.513z" fill="#A8ACBB" opacity=".81"/>
        <path d="M134.614 107.983c-5.867 2.849-6.172 8.653-.786 12.334 5.386 3.682 14.375 3.846 20.29.997 5.914-2.849 6.313-8.208.927-11.819-5.387-3.611-14.528-4.361-20.431-1.512z" fill="#A7ABBA" opacity=".82"/>
        <path d="M134.626 107.866c-5.867 2.849-6.184 8.641-.798 12.31 5.386 3.67 14.387 3.869 20.29 1.02 5.902-2.849 6.313-8.136.938-11.818-5.374-3.681-14.539-4.326-20.43-1.512z" fill="#A6AABA" opacity=".83"/>
        <path d="M134.626 107.866c-5.867 2.849-6.184 8.605-.809 12.287 5.374 3.681 14.398 3.892 20.312 1.043 5.915-2.849 6.314-8.207.928-11.818-5.387-3.611-14.528-4.397-20.431-1.512z" fill="#A5A9B9" opacity=".83"/>
        <path d="M134.638 107.748c-5.867 2.849-6.196 8.583-.821 12.264 5.374 3.682 14.41 3.916 20.312 1.067 5.903-2.849 6.314-8.137.939-11.818-5.374-3.682-14.539-4.362-20.43-1.513z" fill="#A4A8B8" opacity=".84"/>
        <path d="M134.638 107.678c-5.867 2.849-6.196 8.547-.821 12.229 5.374 3.681 14.41 3.951 20.324 1.09 5.915-2.861 6.302-8.137.927-11.818-5.374-3.682-14.527-4.35-20.43-1.501z" fill="#A3A7B7" opacity=".85"/>
        <path d="M134.65 107.596c-5.868 2.849-6.208 8.535-.834 12.205 5.375 3.67 14.423 3.975 20.325 1.173 5.903-2.803 6.313-8.137.927-11.819-5.386-3.681-14.527-4.408-20.418-1.559z" fill="#A2A6B7" opacity=".86"/>
        <path d="M134.65 107.514c-5.868 2.861-6.22 8.512-.833 12.194 5.386 3.681 14.422 3.998 20.336 1.172 5.914-2.826 6.302-8.137.927-11.818-5.374-3.682-14.528-4.385-20.43-1.548z" fill="#A1A5B6" opacity=".87"/>
        <path d="M134.662 107.444c-5.868 2.849-6.232 8.476-.845 12.158 5.386 3.681 14.433 4.021 20.336 1.172 5.903-2.849 6.313-8.207.927-11.818-5.386-3.611-14.528-4.362-20.418-1.512z" fill="#A0A4B5" opacity=".88"/>
        <path d="M134.662 107.361c-5.868 2.861-6.232 8.454-.845 12.135 5.386 3.682 14.433 4.045 20.348 1.173 5.914-2.873 6.301-8.137.927-11.819-5.375-3.681-14.528-4.326-20.43-1.489z" fill="#9FA3B4" opacity=".89"/>
        <path d="M134.673 107.291c-5.867 2.849-6.243 8.43-.868 12.1 5.374 3.67 14.457 4.08 20.36 1.172 5.902-2.907 6.313-8.148.927-11.818-5.387-3.67-14.528-4.303-20.419-1.454z" fill="#9EA2B3" opacity=".9"/>
        <path d="M134.673 107.209c-5.867 2.849-6.243 8.407-.868 12.088 5.374 3.682 14.457 4.092 20.371 1.243 5.915-2.849 6.302-8.137.927-11.818-5.374-3.682-14.527-4.374-20.43-1.513z" fill="#9DA1B3" opacity=".91"/>
        <path d="M134.685 107.139c-5.868 2.849-6.255 8.371-.88 12.053 5.374 3.681 14.469 4.127 20.371 1.278 5.903-2.85 6.314-8.208.927-11.819-5.386-3.611-14.527-4.303-20.418-1.512z" fill="#9CA1B2" opacity=".92"/>
        <path d="M134.685 107.057c-5.867 2.849-6.266 8.347-.88 12.029 5.386 3.681 14.469 4.15 20.383 1.301 5.915-2.849 6.302-8.136.927-11.818-5.374-3.681-14.527-4.361-20.43-1.512z" fill="#9BA0B1" opacity=".93"/>
        <path d="M134.697 106.986c-5.868 2.849-6.278 8.325-.892 11.994 5.386 3.67 14.481 4.186 20.383 1.337 5.903-2.849 6.314-8.207.927-11.818-5.386-3.611-14.527-4.362-20.418-1.513z" fill="#9A9FB0" opacity=".94"/>
        <path d="M134.697 106.904c-5.868 2.849-6.278 8.301-.892 11.983 5.386 3.681 14.481 4.197 20.395 1.348s6.302-8.137.927-11.818c-5.374-3.682-14.528-4.362-20.43-1.513z" fill="#999EB0" opacity=".94"/>
        <path d="M134.697 106.834c-5.868 2.849-6.278 8.207-.892 11.947 5.386 3.74 14.492 4.233 20.395 1.372 5.903-2.861 6.313-8.137.927-11.819-5.386-3.681-14.528-4.349-20.43-1.5z" fill="#989DAF" opacity=".95"/>
        <path d="M134.708 106.752c-5.867 2.849-6.29 8.207-.915 11.924 5.375 3.716 14.504 4.256 20.419 1.407 5.914-2.849 6.301-8.137.927-11.819-5.375-3.681-14.528-4.361-20.431-1.512z" fill="#979CAE" opacity=".96"/>
        <path d="M134.708 106.693c-5.867 2.861-6.29 8.207-.915 11.901 5.375 3.693 14.516 4.291 20.419 1.43 5.902-2.861 6.313-8.137.927-11.818-5.387-3.682-14.528-4.374-20.431-1.513z" fill="#969BAD" opacity=".97"/>
        <path d="M134.72 106.599c-5.867 2.849-6.301 8.207-.927 11.877 5.375 3.67 14.516 4.303 20.43 1.454 5.915-2.849 6.302-8.137.927-11.818-5.374-3.682-14.527-4.362-20.43-1.513z" fill="#959AAD" opacity=".98"/>
        <path d="M134.72 106.517c-5.867 2.861-6.313 8.207-.927 11.854 5.387 3.646 14.516 4.338 20.431 1.477 5.914-2.861 6.313-8.137.927-11.818-5.387-3.682-14.528-4.35-20.431-1.513z" fill="#9499AC" opacity=".99"/>
        <path d="M134.732 106.447c-5.867 2.849-6.325 8.148-.939 11.818 5.387 3.67 14.528 4.362 20.442 1.513 5.915-2.849 6.302-8.207.927-11.819-5.374-3.611-14.527-4.361-20.43-1.512z" fill="#9398AB"/>
    </g>
    <path d="M129.522 105.614l1.807 11.127c-.153 2.122 7.334 5.522 10.561 6.472 2.981.504 8.132-.727 14.082-3.588 2.347-.903 2.452-2.685 3.603-5.006l3.672-9.45c-.152 2.146-4.776 4.866-7.744 6.296-5.868 2.849-15.056 2.169-20.442-1.512-2.688-1.829-5.692-2.216-5.539-4.339z" fill="url(#paint6_linear)"/>
    <path d="M135.976 98.134c-5.867 2.849-6.313 8.137-.939 11.819 5.375 3.681 14.54 4.361 20.442 1.512 5.903-2.849 6.314-8.148.927-11.818-5.386-3.67-14.527-4.362-20.43-1.513z" fill="#fff"/>
    <path d="M146.525 145.748a2.915 2.915 0 011.96 3.341 3.577 3.577 0 01-2.711 3.178 17.285 17.285 0 01-6.665.48c-.528 0-1.068-.082-1.643-.152a10.786 10.786 0 01-4.271-1.36l-.763-.375c-1.561-1.091-2.852-2.275-2.781-3.283.07-1.009 1.901-4.971 2.088-6.449l1.596-22.464a13.07 13.07 0 005.68 1.935c1.103.082 2.112.129 3.028.164h.563c.868 0 1.666 0 2.347.105.728.047 1.451.161 2.159.34 1.96.528 2.969 1.782 3.039 4.843a2.65 2.65 0 01-.845 2.086 6.442 6.442 0 01-3.661 1.384c.317 0 .61.082.88.141 2.57.469 4.131 1.454 4.002 4.947a3.273 3.273 0 01-2.57 3.049c2.347.258 3.955 1.172 4.013 4.373.071 2.603-2.664 3.447-5.445 3.717z" fill="#D4A477"/>
    <path d="M148.227 147.975c-.235 3.095-4.072 3.94-10.667 3.213-2.734-.293-3.52-1.173-6.125-2.24-2.23-.914-2.981-3.517-2.007-6.706.07-.199.129-.375.188-.528 1.009-2.556 1.854 1.583 6.935 2.099 3.978.399 7.158.352 9.176.891 1.761.446 2.664 1.325 2.5 3.271z" fill="#F7C494"/>
    <path d="M145.751 144.704c-2.85.389-5.728.53-8.602.422-3.779-.281-6.689-1.923-7.51-3.412 1.009-2.556 1.854 1.583 6.935 2.099 3.978.399 7.158.399 9.177.891zM143.005 146.017c3.309-.316 3.391.633 3.52 2.251.176 1.853-.633 2.603-3.52 2.603-.974-.305-1.479-3.611 0-4.854z" fill="#EBB37E"/>
    <path d="M143.275 150.719a.69.69 0 01-.505-.469.995.995 0 01-.094-.223 4.937 4.937 0 01-.27-1.63v-.387c.027-.321.086-.639.176-.949.082-.2.153-.375.223-.528.086-.181.215-.337.376-.457 3.297-.328 3.415.539 3.591 2.157.176 1.841-.611 2.497-3.497 2.486z" fill="#FCDDC0"/>
    <path d="M143.427 148.304a2.342 2.342 0 01-.657 1.946.995.995 0 01-.094-.223 4.937 4.937 0 01-.27-1.63v-.387c.027-.321.086-.639.176-.949.082-.2.153-.375.223-.528.404.502.624 1.127.622 1.771zM146.525 148.268c-.117-1.254-.282-2.098-1.901-2.263 1.901.071 2.03.891 2.159 2.228.106 1.114-.152 1.782-.986 2.146a2.095 2.095 0 00.728-2.111z" fill="#FCE7D4"/>
    <path d="M138.182 146.615s0 .223-.059.551c-.058.329-.07.739-.117 1.173v.609c-.011.18-.011.36 0 .54v.539h-.164s-.059-.211-.141-.539a2.778 2.778 0 01-.059-.575 5.783 5.783 0 010-.645c0-.234.059-.457.094-.668a2.21 2.21 0 01.153-.539c.117-.305.211-.504.211-.504l.082.058zM138.839 145.818v.785c0 .469-.082 1.079-.117 1.7-.036.622-.106 1.232-.106 1.701a2.67 2.67 0 000 .551v.211h-.082l-.071-.2a2.52 2.52 0 01-.14-.574 8.98 8.98 0 010-1.735c.031-.579.101-1.155.211-1.724.094-.457.176-.762.176-.762l.129.047zM139.496 146.85c.044.137.076.278.094.422.031.319.031.641 0 .961a3.721 3.721 0 01-.07.516l-.129.434c-.083.246-.153.41-.153.41h-.153s0-.176.071-.422c.07-.246.059-.258.094-.41.012-.16.012-.321 0-.481v-.492-.423-.422l.246-.093z" fill="#EBB37E"/>
    <path d="M151.747 140.952c.059 3.741-6.36 3.811-13.753 3.26-7.393-.551-9.822-3.658-9.024-9.38 0-.211.07-.375.106-.516.727-2.989 3.403 2.345 11.359 2.427 3.074 0 5.515-.093 7.346.082 2.582.27 3.966 1.173 3.966 4.127z" fill="#F7C494"/>
    <path d="M147.793 136.849c-2.347.973-6.443.797-11.313.433-3.52-.258-5.961-1.301-7.393-2.942.728-2.99 3.403 2.344 11.36 2.427 3.086.035 5.515-.094 7.346.082zM145.246 138.455c3.709-.363 3.802.703 3.978 2.532.2 2.076-.715 2.932-3.966 2.92-1.115-.34-1.725-4.057-.012-5.452z" fill="#EBB37E"/>
    <path d="M145.539 143.743a.81.81 0 01-.563-.54 1.047 1.047 0 01-.105-.234 5.684 5.684 0 01-.306-1.841 2.858 2.858 0 010-.434c.026-.365.089-.726.188-1.078a7.39 7.39 0 01.258-.587c.097-.2.237-.377.411-.515 3.708-.364 3.849.609 4.037 2.438.211 2.087-.669 2.791-3.92 2.791z" fill="#FCDDC0"/>
    <path d="M145.715 141.022a2.646 2.646 0 01-.739 2.181 1.047 1.047 0 01-.105-.234 5.684 5.684 0 01-.306-1.841 2.858 2.858 0 010-.434c.026-.365.089-.726.188-1.078a7.08 7.08 0 01.258-.587 3.27 3.27 0 01.704 1.993zM149.201 140.987c-.141-1.418-.329-2.345-2.136-2.544 2.136.07 2.276.997 2.417 2.509.118 1.243-.164 1.993-1.091 2.345a2.34 2.34 0 00.81-2.31z" fill="#FCE7D4"/>
    <path d="M138.511 138.9s0 .247-.059.598c-.059.352-.082.809-.129 1.255a6.202 6.202 0 000 .668 3.731 3.731 0 000 .598v.586h-.176s-.071-.222-.153-.586a3.086 3.086 0 01-.07-.621v-.715l.105-.716c.029-.201.085-.398.165-.586.129-.34.234-.551.234-.551l.083.07zM139.261 138.021v.856c0 .516-.082 1.172-.129 1.864-.047.692-.105 1.348-.117 1.853a3.144 3.144 0 000 .598v.234h-.094l-.07-.223a2.334 2.334 0 01-.153-.621 9.89 9.89 0 01-.059-1.9 14.6 14.6 0 01.235-1.875c.05-.286.116-.567.2-.845l.187.059zM139.942 139.147c.052.152.087.309.106.469.045.35.065.702.058 1.055a6.854 6.854 0 01-.199 1.043c-.118.27-.2.434-.2.434l-.164-.07s0-.176.106-.434c.057-.329.092-.662.105-.997a9.192 9.192 0 000-.996v-.457l.188-.047z" fill="#EBB37E"/>
    <path d="M150.316 133.496c-.153 3.74-5.868 3.599-13.272 3.06-7.405-.54-9.728-4.421-9.036-10.13a4.67 4.67 0 01.235-1.044c1.056-2.614 4.787 2.345 11.488 2.884 2.887.223 5.151.293 6.841.622 2.652.48 3.861 1.536 3.744 4.608z" fill="#F7C494"/>
    <path d="M146.572 128.888c-2.534.645-6.512.469-10.843.152-3.755-.281-6.125-1.641-7.486-3.658 1.056-2.614 4.787 2.345 11.488 2.884 2.887.223 5.152.293 6.841.622zM144.167 130.435c4.036-.093 4.048 1.067 4.095 3.049.059 2.251-.997 3.107-4.494 2.849-1.186-.457-1.502-4.514.399-5.898z" fill="#EBB37E"/>
    <path d="M144.084 136.169a1.439 1.439 0 01-.669-.88 6.24 6.24 0 01-.187-2.005v-.469c.055-.401.157-.795.305-1.172.105-.223.211-.446.317-.621.123-.206.287-.386.481-.528 4.036-.106 4.107.961 4.177 2.943.082 2.286-.915 2.99-4.424 2.732z" fill="#FCDDC0"/>
    <path d="M144.483 133.249a2.849 2.849 0 01-.974 2.345.841.841 0 01-.094-.258 6.24 6.24 0 01-.187-2.005v-.469c.055-.401.157-.794.305-1.172.105-.223.211-.446.316-.621.443.638.666 1.404.634 2.18zM148.227 133.484c0-1.536-.164-2.58-2.112-2.92 2.347.246 2.347 1.266 2.429 2.896 0 1.36-.34 2.146-1.373 2.509a2.515 2.515 0 001.056-2.485z" fill="#FCE7D4"/>
    <path d="M137.959 131.115v.587c0 .351-.082.808-.129 1.254v.68a5.207 5.207 0 000 .586v.586h-.176s-.071-.234-.153-.586a3.334 3.334 0 01-.082-.621v-.715c0-.247.07-.493.094-.716.032-.206.092-.407.176-.597.117-.329.223-.552.223-.552l.047.094zM138.721 130.236v.856c0 .516-.093 1.172-.129 1.864-.035.692-.105 1.349-.117 1.853a3.144 3.144 0 000 .598v.234h-.082l-.082-.234a3.325 3.325 0 01-.153-.622 8.996 8.996 0 010-1.899c.034-.63.109-1.256.223-1.876.106-.504.2-.833.2-.833l.14.059zM139.402 131.315c.052.152.088.309.106.469.032.351.032.704 0 1.055a5.842 5.842 0 01-.199 1.032c-.106.269-.188.445-.188.445l-.164-.07.093-.446c.069-.324.108-.653.118-.985a9.968 9.968 0 000-1.008v-.457l.234-.035z" fill="#EBB37E"/>
    <path d="M127.268 117.011c-.422 5.733 1.596 10.446 9.001 10.997 7.405.552 13.741.692 13.671-3.036-.117-5.757-3.52-4.62-10.902-5.171-7.381-.551-11.347-8.523-11.77-2.79z" fill="#F7C494"/>
    <path d="M144.002 121.771c4.037-.105 4.049 1.055 4.096 3.037.058 2.263-.986 3.107-4.495 2.86-1.185-.457-1.502-4.56.399-5.897z" fill="#EBB37E"/>
    <path d="M143.92 127.504a.83.83 0 01-.575-.621 1.515 1.515 0 01-.094-.27 5.89 5.89 0 01-.176-2.005v-.469c.051-.401.149-.794.294-1.172.093-.213.199-.421.317-.621a1.81 1.81 0 01.481-.528c4.036-.106 4.107.961 4.177 2.943.082 2.286-.915 3.036-4.424 2.743z" fill="#FCDDC0"/>
    <path d="M144.319 124.585a2.847 2.847 0 01-.974 2.345 1.515 1.515 0 01-.094-.27 5.89 5.89 0 01-.176-2.005v-.469c.051-.401.149-.795.294-1.172.093-.213.199-.421.317-.622.449.64.672 1.412.633 2.193zM148.074 124.808c0-1.536-.164-2.568-2.112-2.908 2.347.246 2.347 1.254 2.429 2.896 0 1.348-.34 2.134-1.373 2.509a2.549 2.549 0 001.056-2.497z" fill="#FCE7D4"/>
    <path d="M137.665 122.439v.598c0 .352-.082.809-.129 1.255a6.765 6.765 0 000 .668 5.422 5.422 0 000 .598v.586h-.176s-.07-.223-.152-.586a3.102 3.102 0 01-.083-.621v-.716c0-.246.071-.48.094-.715.033-.202.092-.399.176-.586a5.16 5.16 0 01.223-.551l.047.07zM138.428 121.56v.856c0 .516-.094 1.172-.129 1.864-.035.692-.106 1.348-.117 1.852-.019.199-.019.4 0 .598v.235h-.082l-.083-.223a3.777 3.777 0 01-.152-.621 9.005 9.005 0 010-1.9c.034-.629.108-1.256.223-1.876.105-.515.199-.844.199-.844l.141.059zM139.109 122.697c.053.148.088.302.106.458.031.351.031.704 0 1.055a5.7 5.7 0 01-.2 1.043c-.105.27-.188.434-.188.434l-.164-.07s0-.176.094-.434a5.76 5.76 0 00.117-.997 9.192 9.192 0 000-.996v-.458l.235-.035z" fill="#EBB37E"/>
    <path d="M149.94 124.972c0-2.838-.915-3.998-2.652-4.514-2.534.996-3.884 2.345-3.626 4.854a3.304 3.304 0 001.725 2.837c2.84-.352 4.588-1.196 4.553-3.177z" fill="#EDC8A3"/>
    <path d="M166.028 124.339c-2.347.398-4.694 0-8.003 1.711-6.266 3.272-13.401 2.568-13.401-2.227 0-2.662 1.174-3.365 4.072-4.362a26.877 26.877 0 017.463-1.653c2.711-.152 6.138-4.971 7.816-5.241 1.866-.293 3.52 1.607 4.482 3.963 1.256 2.966 2.066 7.07-2.429 7.809z" fill="#FCD1A9"/>
    <path d="M167.12 115.545c0 2.111-5.398 3.94-9.106 4.033-3.709.094-7.698.376-7.64-.351.505-.751 3.004-.469 6.02-.868 4.694-.645 6.184-4.408 7.827-4.842a2.632 2.632 0 012.899 2.028z" fill="#FCD6B3"/>
    <path d="M151.125 119.332c-4.694 1.044-4.459 2.345-4.013 4.561.516 2.544 1.96 3.177 5.973 1.888a15.238 15.238 0 00-1.96-6.449z" fill="#F7C494"/>
    <path d="M152.663 125.241v.458c-4.025 1.289-5.375.785-5.868-1.736-.434-2.227-.61-3.435 4.107-4.478.057.105.104.215.141.328a18.744 18.744 0 011.62 5.428z" fill="#FCDDC0"/>
    <path d="M152.663 125.241a3.09 3.09 0 01-2.054-2.344c-.27-1.302-.246-2.416.423-3.025a18.776 18.776 0 011.631 5.369zM147.147 123.893c-.352-1.723-.458-2.919 1.725-3.845-2.629.926-2.464 2.075-2.089 3.916.305 1.512.927 2.345 2.23 2.345a2.782 2.782 0 01-1.866-2.416z" fill="#FCE7D4"/>
    <path d="M160.63 122.592l-.281-.645c-.141-.399-.376-.891-.575-1.384-.106-.246-.235-.492-.341-.727-.105-.234-.187-.457-.281-.644-.176-.364-.282-.634-.282-.634l.153-.105s.187.211.457.551c.149.19.279.394.388.61.129.234.269.469.387.738l.305.786c.081.224.139.456.176.692.07.422.106.703.106.703l-.212.059zM160.501 123.834s-.188-.351-.446-.902-.575-1.278-.903-2.005c-.329-.727-.646-1.466-.892-2.005a6.872 6.872 0 00-.34-.633l-.129-.235.07-.07.188.211c.18.175.337.372.469.586.405.625.762 1.279 1.068 1.958.305.674.575 1.362.81 2.064.187.574.281.973.281.973l-.176.058zM159.34 122.955a3.32 3.32 0 01-.329-.445 5.712 5.712 0 01-.598-1.079 4.291 4.291 0 01-.235-.61 7.38 7.38 0 01-.141-.551c-.035-.164-.105-.551-.105-.551h.176l.199.516.164.516a5.1 5.1 0 00.27.575c.106.187.165.386.259.574l.269.481.247.48-.176.094z" fill="#EBBB8D"/>
    <path d="M158.999 110.21a28.176 28.176 0 0013.92-6.487 28.138 28.138 0 008.442-12.819 28.132 28.132 0 00-7.212-28.635h-.528c-.751 0-1.631-.833-.892-1.337a38.731 38.731 0 00-1.314-1.032h-.599c-.845 0-1.713-.762-1.255-1.336-.552-.352-1.115-.657-1.678-.973h-.763c-1.068-.07-1.854-.669-1.725-1.173a28.105 28.105 0 00-29.654 5.124c-5.234 4.713 21.158 48.973 23.258 48.668z" fill="url(#paint7_linear)"/>
    <path d="M159.187 57.204l2.065 1.419c1.927-.471 3.89-.781 5.868-.927-1.068-.07-1.854-.668-1.725-1.172-2.086.043-4.163.27-6.208.68z" fill="url(#paint8_linear)"/>
    <path d="M162.579 59.478l2.065 1.407a35.046 35.046 0 016.149-.95c-.845 0-1.713-.761-1.256-1.336a44.335 44.335 0 00-6.958.88z" fill="url(#paint9_linear)"/>
    <path d="M165.97 61.765l2.053 1.419a25.339 25.339 0 015.598-.915c-.751 0-1.631-.832-.892-1.337-2.272.093-4.533.371-6.759.833z" fill="url(#paint10_linear)"/>
    <path d="M152.076 62.28c-10.151-6.893-19.128-2.625-20.055 9.521-.927 12.147 6.536 27.611 16.675 34.505 10.139 6.894 19.116 2.627 20.055-9.543.939-12.17-6.536-27.588-16.675-34.482z" fill="url(#paint11_linear)"/>
    <path d="M122.727 65.364c4.553-1.172 14.634-4.783 14.634-4.783 3.614-1.677 8.367-1.009 13.401 2.345 10.139 6.894 17.602 22.276 16.675 34.493-.446 5.792-2.723 9.79-6.067 11.643a.165.165 0 01-.07 0c-.223.129-.47.246-.704.351a146.096 146.096 0 00-22.297 13.835c-12.802 9.732-23.856 36.815-23.856 36.815-9.846-.727 13.248-16.344-9.024-57.274-21.123-38.691-40.075-34.517-39.594-41.036.047.035 40.532 7.785 56.902 3.611z" fill="url(#paint12_linear)"/>
    <path d="M83.686 68.788c-21.769-14.855-41.072-5.64-43.079 20.494-2.007 26.134 14.082 59.326 35.85 74.134 21.768 14.809 41.072 5.628 43.09-20.494 2.018-26.122-14.035-59.326-35.861-74.134z" fill="url(#paint13_linear)"/>
    <path d="M60.028 74.908l6.125-3.025c-6.078 2.955-10.22 9.872-10.995 20.096-1.584 20.553 11.054 46.675 28.163 58.318 8.637 5.862 16.758 6.952 22.907 3.963l-6.114 3.024c-6.149 2.99-14.281 1.912-22.906-3.951-17.157-11.654-29.783-37.764-28.164-58.33.763-10.211 4.905-17.14 10.984-20.095z" fill="url(#paint14_linear)"/>
    <path d="M94.247 89.106c2.722-1.313 6.313-.832 10.115 1.76 7.569 5.135 13.143 16.66 12.439 25.723-.34 4.514-2.171 7.562-4.847 8.864l-29.841 9.989c2.675-1.313 3.227-2.767 2.992-7.281-.41-8.5-3.415-15.242-8.79-19.428-3.625-2.849-5.867-3.517-8.554-2.18l26.486-17.447z" fill="url(#paint15_linear)"/>
    <path d="M76.469 107.584c-6.056-4.115-11.407-1.571-11.97 5.687-.563 7.257 3.908 16.414 9.963 20.576 6.055 4.162 11.394 1.571 11.958-5.686.563-7.258-3.908-16.473-9.951-20.577z" fill="#B31910"/>
    <path d="M67.315 115.182a18.745 18.745 0 007.393 15.242c4.495 3.048 8.484 1.172 8.895-4.221a18.746 18.746 0 00-7.393-15.242c-4.494-3.095-8.472-1.161-8.895 4.221zm2.183 1.477c.305-3.951 3.215-5.334 6.513-3.095a13.701 13.701 0 015.41 11.209c-.294 3.951-3.216 5.334-6.513 3.095a13.734 13.734 0 01-5.41-11.209z" fill="#fff"/>
    <path d="M60.72 60.721c7.816-3.798 18.154-2.415 29.126 5.03 21.792 14.82 37.833 48 35.826 74.146-.997 12.979-6.254 21.772-13.976 25.524l-6.125 3.025c7.721-3.752 12.978-12.545 13.976-25.524 2.006-26.146-14.082-59.326-35.838-74.134-10.96-7.457-21.299-8.84-29.126-5.042l6.137-3.025z" fill="url(#paint16_linear)"/>
    <path d="M119.547 142.922c-2.007 26.122-21.299 35.303-43.09 20.494-21.792-14.808-37.845-48-35.85-74.134 1.995-26.134 21.31-35.35 43.078-20.494 21.768 14.855 37.868 47.988 35.862 74.134zm-42.316 10.411c17.145 11.655 32.33 4.432 33.902-16.133 1.572-20.564-11.042-46.675-28.163-58.33-17.121-11.653-32.365-4.43-33.95 16.099-1.583 20.529 11.055 46.71 28.211 58.364z" fill="url(#paint17_linear)"/>
    <path d="M58.092 36.968l5.515 3.2c.716.41 1.174 1.818.716 4.08a17.778 17.778 0 01-3.004 6.484l-5.504-3.2a18.21 18.21 0 003.005-6.496c.398-2.251-.012-3.646-.728-4.069z" fill="url(#paint18_linear)"/>
    <path d="M76.797 1.173C73.394-.81 67.88-.187 61.66 3.4 51.356 9.286 43.013 21.104 43.036 29.816c0 3.376 1.303 5.674 3.462 6.929l5.504 3.2c-2.16-1.266-3.45-3.517-3.462-6.929 0-8.676 8.32-20.53 18.623-26.485 6.22-3.576 11.735-4.198 15.138-2.228l-5.504-3.13z" fill="url(#paint19_linear)"/>
    <path d="M67.163 6.53C77.478.587 85.856 2.803 85.938 11.479c0 7.21-5.726 16.602-13.577 22.992a20.353 20.353 0 01-2.347 7.434 20.044 20.044 0 01-7.604 8.3 9.99 9.99 0 01-1.032.528 17.78 17.78 0 003.004-6.484c.54-3.036-.376-4.525-1.55-4.162-8.073 2.533-14.21.305-14.234-7.035-.117-8.71 8.262-20.564 18.565-26.52z" fill="url(#paint20_linear)"/>
    <path d="M61.566 25.864a5.226 5.226 0 01-2.347 4.092c-1.303.75-2.347.14-2.347-1.36a5.214 5.214 0 012.347-4.092c1.29-.75 2.346-.14 2.346 1.36zM69.604 21.245a5.215 5.215 0 01-2.347 4.092c-1.303.75-2.347.14-2.347-1.36a5.2 5.2 0 012.347-4.045c1.255-.798 2.347-.188 2.347 1.313zM77.584 16.625a5.19 5.19 0 01-2.347 4.092c-1.303.75-2.347.141-2.347-1.36a5.203 5.203 0 012.347-4.091c1.29-.75 2.347-.141 2.347 1.36z" fill="#36F"/>
    <defs>
        <linearGradient id="paint0_linear" x1="95.526" y1="223.598" x2="198.384" y2="143.632" gradientUnits="userSpaceOnUse">
            <stop stop-color="#657C9E"/>
            <stop offset=".16" stop-color="#6D84A4"/>
            <stop offset=".41" stop-color="#839BB6"/>
            <stop offset=".73" stop-color="#A6BFD2"/>
            <stop offset=".86" stop-color="#B8D1E0"/>
        </linearGradient>
        <linearGradient id="paint1_linear" x1="202.934" y1="129.24" x2="184.986" y2="92.034" gradientUnits="userSpaceOnUse">
            <stop stop-color="#353536"/>
            <stop offset=".17" stop-color="#3D3D3E"/>
            <stop offset=".44" stop-color="#535355"/>
            <stop offset=".77" stop-color="#777779"/>
            <stop offset=".86" stop-color="#838385"/>
        </linearGradient>
        <linearGradient id="paint2_linear" x1="159.179" y1="136.501" x2="170.405" y2="115.572" gradientUnits="userSpaceOnUse">
            <stop offset=".14" stop-color="#C5C7CC"/>
            <stop offset=".3" stop-color="#B6B3B1"/>
            <stop offset=".46" stop-color="#AAA29A"/>
            <stop offset=".57" stop-color="#A69C92"/>
        </linearGradient>
        <linearGradient id="paint3_linear" x1="158.369" y1="111.612" x2="169.601" y2="138.394" gradientUnits="userSpaceOnUse">
            <stop offset=".08" stop-color="#B3865D"/>
            <stop offset=".39" stop-color="#CC9A6C"/>
            <stop offset=".75" stop-color="#E3AC79"/>
            <stop offset=".97" stop-color="#EBB37E"/>
        </linearGradient>
        <linearGradient id="paint4_linear" x1="130.659" y1="133.434" x2="155.704" y2="135.284" gradientUnits="userSpaceOnUse">
            <stop offset=".31" stop-color="#A11108"/>
            <stop offset=".36" stop-color="#A4130A"/>
            <stop offset=".41" stop-color="#AF180F"/>
            <stop offset=".45" stop-color="#C12219"/>
            <stop offset=".49" stop-color="#D92E25"/>
            <stop offset=".5" stop-color="#DA2E25"/>
            <stop offset=".52" stop-color="#EB352B"/>
            <stop offset=".56" stop-color="#F63A30"/>
            <stop offset=".61" stop-color="#FD3D32"/>
            <stop offset=".74" stop-color="#FF3E33"/>
            <stop offset=".82" stop-color="#FF4136"/>
            <stop offset=".89" stop-color="#FF4A3F"/>
            <stop offset=".94" stop-color="#FF594F"/>
            <stop offset=".99" stop-color="#FF6E66"/>
            <stop offset="1" stop-color="#FF736B"/>
        </linearGradient>
        <linearGradient id="paint5_linear" x1="133.102" y1="128.949" x2="137.424" y2="122.544" gradientUnits="userSpaceOnUse">
            <stop stop-color="#9195A8"/>
            <stop offset=".01" stop-color="#979BAE"/>
            <stop offset=".08" stop-color="#ACB1C2"/>
            <stop offset=".15" stop-color="#BDC2D2"/>
            <stop offset=".24" stop-color="#C8CDDE"/>
            <stop offset=".37" stop-color="#CFD4E4"/>
            <stop offset=".73" stop-color="#D1D6E6"/>
        </linearGradient>
        <linearGradient id="paint6_linear" x1="163.27" y1="114.764" x2="129.685" y2="112.411" gradientUnits="userSpaceOnUse">
            <stop stop-color="#730C06"/>
            <stop offset=".11" stop-color="#7B0E07"/>
            <stop offset=".28" stop-color="#92120B"/>
            <stop offset=".47" stop-color="#B41910"/>
            <stop offset=".51" stop-color="#C5231A"/>
            <stop offset=".57" stop-color="#D02920"/>
            <stop offset=".64" stop-color="#D72D24"/>
            <stop offset=".85" stop-color="#D92E25"/>
            <stop offset=".9" stop-color="#DB3128"/>
            <stop offset=".93" stop-color="#E03A31"/>
            <stop offset=".96" stop-color="#E84A41"/>
            <stop offset=".98" stop-color="#F56058"/>
            <stop offset="1" stop-color="#FF736B"/>
        </linearGradient>
        <linearGradient id="paint7_linear" x1="175.059" y1="103.865" x2="150.365" y2="53.188" gradientUnits="userSpaceOnUse">
            <stop stop-color="#780D07"/>
            <stop offset=".02" stop-color="#8E110A"/>
            <stop offset=".04" stop-color="#9F150D"/>
            <stop offset=".06" stop-color="#AA170F"/>
            <stop offset=".1" stop-color="#B11910"/>
            <stop offset=".19" stop-color="#B31910"/>
            <stop offset=".45" stop-color="#FF3E33"/>
            <stop offset=".52" stop-color="#FF4A40"/>
            <stop offset=".68" stop-color="#FF6158"/>
            <stop offset=".82" stop-color="#FF6E66"/>
            <stop offset=".94" stop-color="#FF736B"/>
        </linearGradient>
        <linearGradient id="paint8_linear" x1="163.816" y1="57.978" x2="163.538" y2="56.238" gradientUnits="userSpaceOnUse">
            <stop stop-color="#780D07"/>
            <stop offset=".02" stop-color="#8E110A"/>
            <stop offset=".04" stop-color="#9F150D"/>
            <stop offset=".07" stop-color="#AA170F"/>
            <stop offset=".11" stop-color="#B11910"/>
            <stop offset=".22" stop-color="#B31910"/>
            <stop offset=".37" stop-color="#D92E25"/>
            <stop offset=".42" stop-color="#E03128"/>
            <stop offset=".58" stop-color="#F2382E"/>
            <stop offset=".74" stop-color="#FC3D32"/>
            <stop offset=".94" stop-color="#FF3E33"/>
        </linearGradient>
        <linearGradient id="paint9_linear" x1="-766.958" y1="167.815" x2="-766.731" y2="164.289" gradientUnits="userSpaceOnUse">
            <stop stop-color="#780D07"/>
            <stop offset=".02" stop-color="#8E110A"/>
            <stop offset=".04" stop-color="#9F150D"/>
            <stop offset=".07" stop-color="#AA170F"/>
            <stop offset=".11" stop-color="#B11910"/>
            <stop offset=".22" stop-color="#B31910"/>
            <stop offset=".37" stop-color="#D92E25"/>
            <stop offset=".42" stop-color="#E03128"/>
            <stop offset=".58" stop-color="#F2382E"/>
            <stop offset=".74" stop-color="#FC3D32"/>
            <stop offset=".94" stop-color="#FF3E33"/>
        </linearGradient>
        <linearGradient id="paint10_linear" x1="-721.178" y1="172.497" x2="-720.942" y2="169.027" gradientUnits="userSpaceOnUse">
            <stop stop-color="#780D07"/>
            <stop offset=".02" stop-color="#8E110A"/>
            <stop offset=".04" stop-color="#9F150D"/>
            <stop offset=".07" stop-color="#AA170F"/>
            <stop offset=".11" stop-color="#B11910"/>
            <stop offset=".22" stop-color="#B31910"/>
            <stop offset=".37" stop-color="#D92E25"/>
            <stop offset=".42" stop-color="#E03128"/>
            <stop offset=".58" stop-color="#F2382E"/>
            <stop offset=".74" stop-color="#FC3D32"/>
            <stop offset=".94" stop-color="#FF3E33"/>
        </linearGradient>
        <linearGradient id="paint11_linear" x1="170.23" y1="85.431" x2="131.764" y2="82.736" gradientUnits="userSpaceOnUse">
            <stop offset=".04" stop-color="#FF736B"/>
            <stop offset=".22" stop-color="#D92E25"/>
        </linearGradient>
        <linearGradient id="paint12_linear" x1="150.396" y1="143.165" x2="114.087" y2="68.645" gradientUnits="userSpaceOnUse">
            <stop stop-color="#353536"/>
            <stop offset=".24" stop-color="#858586"/>
            <stop offset=".45" stop-color="#C7C7C7"/>
            <stop offset=".6" stop-color="#F0F0F0"/>
            <stop offset=".68" stop-color="#fff"/>
            <stop offset=".88" stop-color="#FDFDFE"/>
            <stop offset=".95" stop-color="#F6F8FA"/>
            <stop offset="1" stop-color="#EAEDF2"/>
        </linearGradient>
        <linearGradient id="paint13_linear" x1="106.25" y1="168.685" x2="55.122" y2="63.755" gradientUnits="userSpaceOnUse">
            <stop offset=".27" stop-color="#D9DCE1"/>
            <stop offset=".4" stop-color="#BEBFC3"/>
            <stop offset=".53" stop-color="#ABABAE"/>
            <stop offset=".61" stop-color="#A4A4A6"/>
            <stop offset=".88" stop-color="#575759"/>
        </linearGradient>
        <linearGradient id="paint14_linear" x1="91.968" y1="161.806" x2="51.703" y2="79.183" gradientUnits="userSpaceOnUse">
            <stop stop-color="#FF736B"/>
            <stop offset=".37" stop-color="#FE7169"/>
            <stop offset=".51" stop-color="#FA6A62"/>
            <stop offset=".61" stop-color="#F45F57"/>
            <stop offset=".68" stop-color="#EB4E46"/>
            <stop offset=".75" stop-color="#DF3930"/>
            <stop offset=".78" stop-color="#D92E25"/>
            <stop offset="1" stop-color="#850E07"/>
        </linearGradient>
        <linearGradient id="paint15_linear" x1="102.668" y1="129.919" x2="86.204" y2="92.914" gradientUnits="userSpaceOnUse">
            <stop stop-color="#730C06"/>
            <stop offset=".01" stop-color="#7C0F09"/>
            <stop offset=".09" stop-color="#A41C15"/>
            <stop offset=".16" stop-color="#C1261E"/>
            <stop offset=".22" stop-color="#D32C23"/>
            <stop offset=".26" stop-color="#D92E25"/>
            <stop offset=".35" stop-color="#E7342A"/>
            <stop offset=".51" stop-color="#FF3E33"/>
            <stop offset=".68" stop-color="#FF574E"/>
            <stop offset=".87" stop-color="#FF6C63"/>
            <stop offset=".98" stop-color="#FF736B"/>
        </linearGradient>
        <linearGradient id="paint16_linear" x1="124.453" y1="159.813" x2="73.295" y2="54.823" gradientUnits="userSpaceOnUse">
            <stop stop-color="#9E1008"/>
            <stop offset=".01" stop-color="#A4130B"/>
            <stop offset=".06" stop-color="#BB1F16"/>
            <stop offset=".12" stop-color="#CC271F"/>
            <stop offset=".17" stop-color="#D62C23"/>
            <stop offset=".25" stop-color="#D92E25"/>
            <stop offset=".29" stop-color="#DC332A"/>
            <stop offset=".34" stop-color="#E44239"/>
            <stop offset=".4" stop-color="#F15A51"/>
            <stop offset=".44" stop-color="#FF736B"/>
            <stop offset=".99" stop-color="#FF736B"/>
        </linearGradient>
        <linearGradient id="paint17_linear" x1="70.224" y1="64.498" x2="86.55" y2="145.671" gradientUnits="userSpaceOnUse">
            <stop stop-color="#DB2218"/>
            <stop offset=".3" stop-color="#EB2F24"/>
            <stop offset=".68" stop-color="#FA3A2F"/>
            <stop offset="1" stop-color="#FF3E33"/>
        </linearGradient>
        <linearGradient id="paint18_linear" x1="57.177" y1="48.34" x2="62.322" y2="39.414" gradientUnits="userSpaceOnUse">
            <stop stop-color="#A5A5A7"/>
            <stop offset=".04" stop-color="#B6B6B9"/>
            <stop offset=".07" stop-color="#C0C1C4"/>
            <stop offset=".11" stop-color="#C3C4C8"/>
            <stop offset=".57" stop-color="#A8A8AB"/>
            <stop offset="1" stop-color="#929294"/>
        </linearGradient>
        <linearGradient id="paint19_linear" x1="48.962" y1="38.187" x2="71.967" y2="-1.682" gradientUnits="userSpaceOnUse">
            <stop stop-color="#88888C"/>
            <stop offset=".12" stop-color="#B8B8BD"/>
            <stop offset=".22" stop-color="#D7D7DC"/>
            <stop offset=".28" stop-color="#E2E3E8"/>
            <stop offset=".46" stop-color="#F0F0F2"/>
            <stop offset=".99" stop-color="#fff"/>
        </linearGradient>
        <linearGradient id="paint20_linear" x1="54.571" y1="12.088" x2="79.535" y2="34.339" gradientUnits="userSpaceOnUse">
            <stop stop-color="#CCCDD1"/>
            <stop offset=".42" stop-color="#DDDFE4"/>
            <stop offset=".66" stop-color="#E9ECF2"/>
            <stop offset=".85" stop-color="#F4F5F8"/>
            <stop offset=".99" stop-color="#fff"/>
        </linearGradient>
    </defs>
</svg>
