<svg viewBox="0 0 520 343" fill="none" xmlns="http://www.w3.org/2000/svg">
    <g filter="url(#filter0_d)">
        <path d="M259.67 323c135.128 0 244.671-63.19 244.671-141.14 0-77.949-109.543-171.14-244.671-171.14C124.543 10.72 15 103.912 15 181.86 15 259.81 124.543 323 259.67 323z" fill="#9CE9FF"/>
        <path d="M259.67 323c135.128 0 244.671-63.19 244.671-141.14 0-77.949-109.543-171.14-244.671-171.14C124.543 10.72 15 103.912 15 181.86 15 259.81 124.543 323 259.67 323z" fill="url(#paint0_linear)"/>
    </g>
    <defs>
        <linearGradient id="paint0_linear" x1="487.875" y1="10.721" x2="420.945" y2="304" gradientUnits="userSpaceOnUse">
            <stop stop-color="#5855DB"/>
            <stop offset=".214" stop-color="#346AF0"/>
            <stop offset=".667" stop-color="#C5E9F2" stop-opacity=".51"/>
            <stop offset="1" stop-color="#fff" stop-opacity=".615"/>
        </linearGradient>
        <filter id="filter0_d" x="0" y=".721" width="519.341" height="342.279" filterUnits="userSpaceOnUse" color-interpolation-filters="sRGB">
            <feFlood flood-opacity="0" result="BackgroundImageFix"/>
            <feColorMatrix in="SourceAlpha" values="0 0 0 0 0 0 0 0 0 0 0 0 0 0 0 0 0 0 127 0"/>
            <feOffset dy="5"/>
            <feGaussianBlur stdDeviation="7.5"/>
            <feColorMatrix values="0 0 0 0 0 0 0 0 0 0 0 0 0 0 0 0 0 0 0.25 0"/>
            <feBlend in2="BackgroundImageFix" result="effect1_dropShadow"/>
            <feBlend in="SourceGraphic" in2="effect1_dropShadow" result="shape"/>
        </filter>
    </defs>
</svg>
