<svg viewBox="0 0 729 534" fill="none" xmlns="http://www.w3.org/2000/svg">
    <path d="M595.885 306.234l-466.217 18.025a3.547 3.547 0 01-2.542-.944 3.535 3.535 0 01-1.128-2.466L115.14 40.993a23.69 23.69 0 0122.758-24.583L561.139.036a23.668 23.668 0 0122.449 13.797 23.671 23.671 0 012.134 9.005l10.163 283.396z" fill="#270064"/>
    <path d="M153.1 303.389l413.121-15.961a12.157 12.157 0 0010.963-7.942c.554-1.502.806-3.098.742-4.697l-9.359-241.527a12.168 12.168 0 00-3.882-8.468 12.164 12.164 0 00-8.735-3.237l-413.144 15.94a12.182 12.182 0 00-11.683 12.638l9.316 241.549a12.19 12.19 0 003.904 8.478 12.175 12.175 0 008.757 3.227z" fill="#F5F5F5"/>
    <path opacity=".16" d="M153.794 303.346l411.689-15.874a12.902 12.902 0 0012.378-13.399L568.61 33.979a13.03 13.03 0 00-13.399-12.4L143.545 37.475a13.029 13.029 0 00-12.4 13.399l9.272 240.159a12.882 12.882 0 004.145 8.921 12.872 12.872 0 009.232 3.392z" fill="#F5F5F5"/>
    <path d="M592.888 315.464L128.495 333.38a14.07 14.07 0 00-11.596 6.992L52.186 452.58a14.004 14.004 0 005.484 19.303 14.006 14.006 0 007.176 1.675l600.225-23.193a13.986 13.986 0 0011.119-21.717l-71.119-106.952a13.969 13.969 0 00-12.183-6.232z" fill="#956DE4"/>
    <g style="mix-blend-mode:multiply" filter="url(#filter0_d)">
        <path d="M592.888 315.464L128.495 333.38a14.07 14.07 0 00-11.596 6.992L52.186 452.58a14.004 14.004 0 005.484 19.303 14.006 14.006 0 007.176 1.675l600.225-23.193a13.986 13.986 0 0011.119-21.717l-71.119-106.952a13.969 13.969 0 00-12.183-6.232z" fill="url(#paint0_linear)" style="mix-blend-mode:multiply"/>
    </g>
    <path d="M591.325 306.365l-461.983 17.829a8.106 8.106 0 00-6.645 4.082L52.338 452.58a8.055 8.055 0 007.383 12.009l609.716-23.541a8.053 8.053 0 007.807-8.431 8.069 8.069 0 00-1.293-4.012l-77.438-118.592a8.04 8.04 0 00-7.188-3.648z" fill="#D0A4FF"/>
    <path style="mix-blend-mode:color-burn" opacity=".11" d="M591.325 306.365l-461.983 17.829a8.106 8.106 0 00-6.645 4.082L52.338 452.58a8.055 8.055 0 007.383 12.009l609.716-23.541a8.053 8.053 0 007.807-8.431 8.069 8.069 0 00-1.293-4.012l-77.438-118.592a8.04 8.04 0 00-7.188-3.648z" fill="url(#paint1_linear)"/>
    <path opacity=".89" d="M242.373 394.228l-9.338 42.499a8.426 8.426 0 00.912 5.993 8.533 8.533 0 007.818 4.343l262.218-10.141a8.537 8.537 0 007.775-11.249l-13.377-40.001-.522-1.52a8.684 8.684 0 00-8.447-5.885l-239.091 9.229a8.682 8.682 0 00-7.948 6.732z" fill="#270064"/>
    <path d="M243.307 396.834l-9.317 42.477a8.232 8.232 0 000 3.41 8.54 8.54 0 007.818 4.343l262.219-10.142a8.53 8.53 0 007.774-11.249l-13.42-40.001a8.694 8.694 0 00-8.035-4.821l-239.091 9.23a8.555 8.555 0 00-7.948 6.753zM169.386 339.503l-.847 2.172a1.32 1.32 0 01-1.173.847l-23.192.89 1.802-4.104a1.35 1.35 0 011.151-.782l20.978-.803a1.297 1.297 0 011.362 1.14c.027.217-.001.437-.081.64zM197.161 336.637l21.021-.803a1.32 1.32 0 011.108.513 1.332 1.332 0 01.216 1.202l-.608 2.172a1.322 1.322 0 01-1.237.955l-21.108.825a1.34 1.34 0 01-1.381-1.137 1.336 1.336 0 01.056-.643l.717-2.172a1.32 1.32 0 011.216-.912zM173.751 337.505l17.221-.673a1.268 1.268 0 011.06.509 1.262 1.262 0 01.177 1.163l-.781 2.172a1.306 1.306 0 01-1.151.847l-17.373.673a1.284 1.284 0 01-1.29-1.123 1.271 1.271 0 01.074-.614l.869-2.172a1.284 1.284 0 011.194-.782zM225.544 335.508l20.63-.804a1.553 1.553 0 011.573 1.185c.058.231.062.472.012.704l-.391 1.694a1.565 1.565 0 01-1.455 1.195l-20.739.803a1.539 1.539 0 01-1.541-1.976l.477-1.672a1.546 1.546 0 011.434-1.129zM253.904 334.465l20.391-.782a1.694 1.694 0 011.738 1.998l-.239 1.368a1.761 1.761 0 01-1.607 1.412l-20.456.782a1.7 1.7 0 01-1.381-.601 1.702 1.702 0 01-.357-1.462l.326-1.39a1.72 1.72 0 011.585-1.325zM282.07 333.314l20.651-.803c.23-.008.458.034.67.122a1.584 1.584 0 01.959 1.659l-.174 1.607a1.588 1.588 0 01-1.52 1.39l-20.738.803a1.577 1.577 0 01-1.254-.535 1.588 1.588 0 01-.375-1.311l.282-1.607a1.564 1.564 0 011.499-1.325zM310.148 332.294l21.108-.804a1.342 1.342 0 011.411 1.455l-.13 2.02a1.346 1.346 0 01-1.303 1.281l-21.216.826a1.38 1.38 0 01-1.055-.437 1.364 1.364 0 01-.357-1.084l.217-2.041a1.368 1.368 0 011.325-1.216zM339.052 331.121l19.696-.76a2.175 2.175 0 012.172 2.171v.587a2.174 2.174 0 01-2.02 2.171l-19.74.761a2.17 2.17 0 01-2.171-2.172v-.586a2.17 2.17 0 012.063-2.172zM367.347 330.122l19.718-.76a2.174 2.174 0 012.172 1.976v.586a2.173 2.173 0 01-1.998 2.172l-19.761.76a2.173 2.173 0 01-2.172-2.171v-.587a2.172 2.172 0 012.041-1.976zM395.643 328.928l19.718-.76a2.173 2.173 0 012.172 1.867v.565c.021.285-.015.572-.106.843a2.157 2.157 0 01-1.093 1.259 2.196 2.196 0 01-.821.222l-19.718.76a2.17 2.17 0 01-2.171-1.955v-.564a2.17 2.17 0 012.019-2.237zM423.895 327.951l19.805-.76a2.017 2.017 0 012.172 1.672l.13.716a2.043 2.043 0 01-1.933 2.367l-19.848.761a2.001 2.001 0 01-2.172-1.781v-.695a2.029 2.029 0 01.433-1.537 2.01 2.01 0 011.413-.743zM451.801 326.756l20.478-.782a1.676 1.676 0 011.693 1.303l.326 1.39a1.692 1.692 0 01-1.585 2.063l-20.522.782a1.675 1.675 0 01-1.737-1.368l-.239-1.39a1.677 1.677 0 01.888-1.82c.217-.109.455-.17.698-.178zM480.14 325.779l20.369-.782a1.694 1.694 0 011.716 1.238l.369 1.303a1.72 1.72 0 01-.846 1.971c-.228.122-.481.19-.739.201l-20.413.781a1.742 1.742 0 01-1.738-1.324l-.325-1.303a1.738 1.738 0 011.607-2.085zM507.241 327.95l-.326-1.064a1.862 1.862 0 01.269-1.604 1.87 1.87 0 011.425-.785l20.066-.76a1.805 1.805 0 011.802 1.216l.369 1.065a1.83 1.83 0 01-.217 1.648 1.838 1.838 0 01-1.455.805l-20.109.782a1.824 1.824 0 01-1.824-1.303zM534.212 327.386l-.695-1.976a1.39 1.39 0 011.26-1.846l14.875-.586a1.412 1.412 0 011.347.89l.781 1.955a1.384 1.384 0 01-.134 1.262 1.386 1.386 0 01-1.103.627l-14.963.586a1.414 1.414 0 01-1.368-.912zM556.623 322.717l19.544-.76a2.172 2.172 0 011.976 1.237l.261.587a2.175 2.175 0 01-.872 2.609c-.282.177-.6.288-.931.322l-19.544.76a2.166 2.166 0 01-2.019-1.302l-.239-.609a2.162 2.162 0 01.232-1.858 2.165 2.165 0 011.592-.986zM560.032 329.275l18.676-.717a2.61 2.61 0 012.475 1.52l.434.956a2.607 2.607 0 01-.164 2.441 2.605 2.605 0 01-2.116 1.229l-18.719.738a2.61 2.61 0 01-2.519-1.628l-.391-.956a2.631 2.631 0 011.139-3.237 2.63 2.63 0 011.185-.346zM552.801 335.747l-37.134 1.433a1.83 1.83 0 01-1.803-1.281l-.781-2.498a1.8 1.8 0 011.672-2.367l36.917-1.433a1.842 1.842 0 011.759 1.151l.977 2.497a1.832 1.832 0 01-.161 1.663c-.157.244-.37.447-.622.592a1.813 1.813 0 01-.824.243zM542.312 337.18l39.805-1.542a2.31 2.31 0 012.172 1.368l.738 1.585a2.35 2.35 0 01-.133 2.207 2.347 2.347 0 01-1.908 1.116l-39.936 1.542a2.345 2.345 0 01-2.302-1.542l-.586-1.607a2.327 2.327 0 011.085-2.853 2.328 2.328 0 011.065-.274zM508.522 338.483l22.367-.869a1.977 1.977 0 011.933 1.325l.825 2.324a1.968 1.968 0 01-.235 1.77 1.982 1.982 0 01-1.567.857l-22.498.869a1.952 1.952 0 01-1.976-1.411l-.673-2.324a1.97 1.97 0 01.961-2.308c.266-.143.561-.222.863-.233zM499.423 345.149l-18.284.695a2.473 2.473 0 01-2.519-1.911l-.326-1.324a2.475 2.475 0 012.345-3.041l18.22-.716a2.478 2.478 0 012.497 1.802l.369 1.325a2.487 2.487 0 01-.383 2.142 2.504 2.504 0 01-1.919 1.028zM470.889 346.235l-18.372.717a2.496 2.496 0 01-2.541-2.041l-.239-1.347a2.5 2.5 0 012.346-2.91l18.306-.695a2.473 2.473 0 012.519 1.933l.304 1.325a2.481 2.481 0 01-.453 2.054 2.478 2.478 0 01-1.87.964zM442.506 347.343l-18.741.717a2.299 2.299 0 01-2.388-2.041l-.196-1.673a2.301 2.301 0 012.172-2.584l18.675-.716a2.298 2.298 0 012.367 1.932l.283 1.672a2.325 2.325 0 01-2.172 2.693zM414.08 348.429l-19.066.738a2.174 2.174 0 01-2.172-2.041l-.109-1.955a2.191 2.191 0 01.588-1.62 2.182 2.182 0 011.584-.681l18.958-.717a2.172 2.172 0 012.171 1.933l.218 1.954a2.187 2.187 0 01-.554 1.678 2.17 2.17 0 01-1.618.711zM385.285 349.667l-18.676.716a2.37 2.37 0 01-2.266-1.44 2.381 2.381 0 01-.188-.927v-1.563a2.344 2.344 0 012.281-2.368l18.588-.716a2.342 2.342 0 012.454 2.171v1.564a2.39 2.39 0 01-2.193 2.563zM358.379 350.579l-20.522.803a2.178 2.178 0 01-1.678-.639 2.169 2.169 0 01-.624-1.685v-1.911a2.17 2.17 0 012.172-2.171l20.413-.782a2.17 2.17 0 012.302 2.172v1.889a2.184 2.184 0 01-.542 1.596 2.181 2.181 0 01-1.521.728zM280.962 347.278l20.825-.825a1.975 1.975 0 012.042 2.172l-.283 2.41a1.974 1.974 0 01-1.889 1.716l-20.956.803a1.934 1.934 0 01-1.998-2.28l.391-2.389a1.958 1.958 0 011.868-1.607zM252.992 348.342l20.739-.803a1.992 1.992 0 011.581.684 2.011 2.011 0 01.46 1.661l-.413 2.324a2.018 2.018 0 01-1.889 1.65l-20.847.804a2.004 2.004 0 01-1.607-.721 1.99 1.99 0 01-.413-1.712l.521-2.323a2.02 2.02 0 011.868-1.564zM195.88 350.557l20.934-.804a1.795 1.795 0 011.517.687 1.81 1.81 0 01.307 1.637l-.76 2.671a1.828 1.828 0 01-1.694 1.325l-21.065.825a1.852 1.852 0 01-1.535-.746 1.842 1.842 0 01-.267-1.686l.89-2.671a1.847 1.847 0 011.673-1.238zM173.491 351.426l16.981-.674a1.126 1.126 0 011.126.949c.029.177.015.358-.04.528l-1.433 4.148a1.105 1.105 0 01-.999.738l-17.156.674a1.116 1.116 0 01-.931-.466 1.107 1.107 0 01-.133-1.033l1.586-4.169a1.059 1.059 0 01.999-.695zM169.125 360.72a1.387 1.387 0 011.238-.89l12.422-.478 6.362-.239 16.808-.651a1.39 1.39 0 011.39 1.802l-1.368 4.343a1.407 1.407 0 01-1.259.999l-18.068.695-6.515.239-11.401.434a1.38 1.38 0 01-1.181-.582 1.386 1.386 0 01-.165-1.307l1.737-4.365zM242.872 357.028l21.173-.803a1.957 1.957 0 011.997 1.46c.075.29.083.592.023.885l-.608 3.149a2 2 0 01-1.868 1.607l-21.325.825a1.967 1.967 0 01-2.009-1.545c-.067-.3-.063-.611.012-.909l.781-3.149a1.955 1.955 0 011.824-1.52zM271.95 355.921l21.064-.825a2.171 2.171 0 012.172 2.345l-.413 2.975a2.038 2.038 0 01-1.954 1.781l-21.195.825a2.178 2.178 0 01-1.635-.725 2.16 2.16 0 01-.536-1.707l.543-2.997a2.168 2.168 0 011.954-1.672zM301.049 354.792l20.913-.804a2.184 2.184 0 011.583.682 2.16 2.16 0 01.588 1.62l-.217 2.802a2.17 2.17 0 01-2.171 1.976l-21.043.825a2.174 2.174 0 01-2.088-1.521 2.178 2.178 0 01-.084-.911l.348-2.801a2.17 2.17 0 012.171-1.868zM330.365 353.663l20.283-.782a2.464 2.464 0 011.837.7 2.483 2.483 0 01.747 1.819v2.171a2.498 2.498 0 01-2.389 2.433l-20.391.781a2.499 2.499 0 01-1.888-.759 2.503 2.503 0 01-.696-1.912l.152-2.171a2.496 2.496 0 012.345-2.28zM360.181 352.511l20.022-.781a2.65 2.65 0 012.737 2.519v1.824a2.654 2.654 0 01-2.519 2.736l-20.131.782a2.628 2.628 0 01-2.714-2.671v-1.824a2.627 2.627 0 012.605-2.585zM389.997 351.361l20.825-.804a2.17 2.17 0 012.302 1.976l.261 2.65a2.178 2.178 0 01-.536 1.707 2.17 2.17 0 01-1.636.725l-20.955.825a2.168 2.168 0 01-2.125-1.309 2.15 2.15 0 01-.177-.862l-.131-2.65a2.178 2.178 0 011.32-2.085 2.17 2.17 0 01.852-.173zM419.9 350.21l20.413-.804a2.413 2.413 0 012.475 2.042l.37 2.171a2.443 2.443 0 01-.516 1.93 2.425 2.425 0 01-1.786.893l-20.522.782a2.413 2.413 0 01-2.497-2.171l-.261-2.172a2.416 2.416 0 01.578-1.844 2.403 2.403 0 011.746-.827zM448.782 349.08l20.847-.803a2.172 2.172 0 012.172 1.716l.586 2.692a2.177 2.177 0 01-1.125 2.411 2.183 2.183 0 01-.916.239l-20.978.825a2.172 2.172 0 01-2.171-1.824l-.457-2.715a2.172 2.172 0 012.042-2.541zM478.467 347.929l20.413-.781a2.37 2.37 0 012.367 1.737l.652 2.302a2.37 2.37 0 01-1.15 2.736 2.36 2.36 0 01-1.022.282l-20.521.804a2.387 2.387 0 01-2.411-1.846l-.521-2.324a2.36 2.36 0 01.413-1.97 2.37 2.37 0 011.78-.94zM507.675 346.8l29.382-1.129a2.282 2.282 0 012.171 1.476l.913 2.585a2.18 2.18 0 01-.208 2.038 2.171 2.171 0 01-1.812.958l-29.534 1.13a2.177 2.177 0 01-2.171-1.607l-.739-2.585a2.18 2.18 0 01.276-1.937 2.168 2.168 0 011.722-.929zM565.157 353.88l24.843-.978a2.476 2.476 0 012.323 1.412l.999 2.172a2.424 2.424 0 01-.135 2.331 2.432 2.432 0 01-2.036 1.143l-24.974.956a2.454 2.454 0 01-2.367-1.521l-.868-2.171a2.432 2.432 0 012.215-3.344zM552.062 361.459l-21.433.825a1.93 1.93 0 01-1.89-1.281l-1.064-3.258a1.923 1.923 0 01-.072-.869 1.925 1.925 0 01.97-1.393c.258-.142.545-.223.84-.235l21.259-.825a1.885 1.885 0 011.846 1.216l1.238 3.257a1.873 1.873 0 01-.832 2.331 1.87 1.87 0 01-.862.232zM565.7 364.543l.999 2.497a2.171 2.171 0 01-2.02 3.127l-23.04.89a2.172 2.172 0 01-2.172-1.52l-.868-2.497a2.163 2.163 0 01.206-2.073 2.18 2.18 0 011.857-.946l22.866-.89a2.169 2.169 0 012.172 1.412zM467.067 357.658l20.565-.803a2.326 2.326 0 012.323 1.737l.63 2.454a2.301 2.301 0 01-1.18 2.613 2.302 2.302 0 01-.992.254l-20.695.803a2.304 2.304 0 01-2.345-1.846l-.5-2.454a2.305 2.305 0 012.194-2.758zM500.053 372.664l-26.993 1.043a2.017 2.017 0 01-2.041-1.586l-.63-3.04a1.997 1.997 0 011.868-2.432l26.797-1.042a2.038 2.038 0 012.02 1.476l.825 3.04a2.005 2.005 0 01-.306 1.719 1.991 1.991 0 01-1.54.822zM405.893 360.025l20.131-.781a2.584 2.584 0 012.649 2.171l.261 1.933a2.597 2.597 0 01-.588 1.994 2.593 2.593 0 01-1.866.916l-20.239.782a2.608 2.608 0 01-2.672-2.367l-.152-1.955a2.566 2.566 0 012.476-2.693zM344.372 362.393l20.174-.782a2.563 2.563 0 012.65 2.541v1.976a2.523 2.523 0 01-2.433 2.562l-20.282.782a2.552 2.552 0 01-2.479-1.618 2.52 2.52 0 01-.17-1.031v-1.998a2.517 2.517 0 012.54-2.432zM302.939 371.079l-20.869.803a2.176 2.176 0 01-1.778-.729 2.173 2.173 0 01-.502-1.855l.434-2.649a2.171 2.171 0 012.171-1.846l20.717-.804a2.185 2.185 0 011.743.688 2.168 2.168 0 01.559 1.788l-.304 2.628a2.17 2.17 0 01-2.171 1.976zM220.418 367.17l22.346-.847a1.368 1.368 0 011.39 1.694l-1.021 4.343a1.404 1.404 0 01-.476.747 1.405 1.405 0 01-.827.317l-22.541.869a1.383 1.383 0 01-1.152-.534 1.396 1.396 0 01-.238-1.247l1.238-4.343c.085-.278.253-.524.483-.702.229-.179.508-.283.798-.297zM235.945 382.871l-22.606.868a1.565 1.565 0 01-1.606-1.28c-.045-.247-.031-.5.042-.739l1.173-3.996a1.569 1.569 0 011.455-1.108l22.411-.868a1.557 1.557 0 011.275.57 1.565 1.565 0 01.31 1.362l-.977 3.996a1.61 1.61 0 01-1.477 1.195zM268.193 381.633l-21.064.803a2.32 2.32 0 01-1.885-.85 2.334 2.334 0 01-.461-2.016l.565-2.433a2.347 2.347 0 012.172-1.802l20.934-.804a2.322 2.322 0 012.388 2.737l-.434 2.454a2.366 2.366 0 01-2.215 1.911zM461.464 374.163l-182.652 7.036a2.18 2.18 0 01-2.253-1.614 2.16 2.16 0 01-.027-.992l.456-2.628a2.173 2.173 0 012.172-1.868l181.653-7.057a2.17 2.17 0 012.171 1.802l.522 2.606a2.173 2.173 0 01-2.042 2.715zM498.772 356.442l20.369-.803a2.385 2.385 0 012.346 1.65l.738 2.324a2.372 2.372 0 01-.32 2.081 2.373 2.373 0 01-1.852 1.002l-20.499.804a2.407 2.407 0 01-2.389-1.759l-.608-2.324a2.359 2.359 0 011.193-2.708 2.364 2.364 0 011.022-.267zM534.038 365.759l.977 2.866a2.169 2.169 0 01-1.889 2.758l-23.887.934a2.172 2.172 0 01-2.172-1.52l-.803-2.867a2.168 2.168 0 011.932-2.671l23.714-.912a2.17 2.17 0 012.128 1.412zM436.491 358.831l20.109-.76a2.54 2.54 0 012.627 2.063l.369 1.955a2.557 2.557 0 01-1.354 2.763 2.573 2.573 0 01-1.056.277l-20.217.782a2.586 2.586 0 01-2.65-2.172l-.26-1.933a2.56 2.56 0 012.432-2.975zM375.079 361.198l19.913-.76a2.713 2.713 0 012.801 2.497v1.716a2.676 2.676 0 01-.687 1.978 2.697 2.697 0 01-1.897.888l-20 .76a2.666 2.666 0 01-2.554-1.593 2.69 2.69 0 01-.226-1.035v-1.715a2.713 2.713 0 012.65-2.736zM313.297 363.587l20.543-.782a2.335 2.335 0 011.763.7 2.34 2.34 0 01.669 1.776l-.13 2.388a2.348 2.348 0 01-2.172 2.172l-20.652.804a2.377 2.377 0 01-1.807-.751 2.365 2.365 0 01-.625-1.855l.239-2.389a2.368 2.368 0 012.172-2.063zM271.819 372.273l-20.999.826a2.165 2.165 0 01-.951-.197 2.159 2.159 0 01-1.207-1.459 2.17 2.17 0 01-.013-.972l.651-2.823a2.17 2.17 0 011.998-1.672l20.869-.804a2.17 2.17 0 012.172 2.519l-.5 2.823a2.174 2.174 0 01-2.02 1.759zM172.383 376.117l-38.633 1.498a3.083 3.083 0 01-2.931-4.343l.412-.934a3.064 3.064 0 012.693-1.802l38.546-1.477a3.079 3.079 0 013.179 2.657c.07.503.015 1.015-.161 1.491l-.347.912a3.045 3.045 0 01-2.758 1.998zM190.016 368.343l22.128-.847a1.452 1.452 0 011.455 1.867l-1.259 4.344a1.479 1.479 0 01-1.347 1.042l-22.323.847a1.455 1.455 0 01-1.434-1.933l1.455-4.213a1.497 1.497 0 011.325-1.107zM201.439 384.195l-28.991 1.173 1.043-2.91 28.86-1.151-.912 2.888zM149.929 383.327l-1.194 2.91-24.3.933 1.324-2.91 24.17-.933z" fill="#000"/>
    <path d="M174.207 385.237l-27.449 1.086 1.195-2.91 27.318-1.064-1.064 2.888zM596.406 363.109l1.39 2.954a2.048 2.048 0 01-.1 1.926 2.03 2.03 0 01-1.659.983l-21.976.847a2.17 2.17 0 01-1.955-1.259l-1.238-2.975a2.028 2.028 0 01.164-1.876 2.014 2.014 0 011.639-.926l21.824-.847a2.018 2.018 0 011.911 1.173zM548.067 345.324l37.612-1.455a2.581 2.581 0 012.475 1.498l.847 1.846a2.597 2.597 0 01-.119 2.414 2.609 2.609 0 01-2.053 1.278l-37.785 1.476a2.608 2.608 0 01-2.541-1.715l-.695-1.846a2.602 2.602 0 01.258-2.311 2.601 2.601 0 012.001-1.185zM212.861 358.201l21.955-.847a1.545 1.545 0 011.58 1.217c.051.236.045.482-.017.716l-.999 3.996a1.607 1.607 0 01-1.455 1.194l-22.15.847a1.58 1.58 0 01-1.595-1.285 1.563 1.563 0 01.032-.735l1.216-3.996a1.56 1.56 0 011.433-1.107zM224.066 349.471l21.608-.846a1.524 1.524 0 011.551 1.188c.052.231.048.471-.009.701l-.761 3.257a1.52 1.52 0 01-1.433 1.195l-21.716.847a1.55 1.55 0 01-1.267-.586 1.552 1.552 0 01-.274-1.369l.933-3.279a1.523 1.523 0 011.368-1.108zM164.934 359.113l-12.356.478a2.476 2.476 0 00-2.171 1.542l-2.172 4.886a2.472 2.472 0 01-2.172 1.542l-8.686.347a2.54 2.54 0 01-2.41-3.583l4.56-10.163a2.564 2.564 0 012.172-1.52l23.887-.912a2.522 2.522 0 012.185 1.047 2.527 2.527 0 01.291 2.406l-.891 2.301a2.58 2.58 0 01-2.237 1.629zM329.801 351.686l-20.521.804a2.162 2.162 0 01-2.095-1.536 2.176 2.176 0 01-.077-.918l.196-1.911a2.167 2.167 0 01.708-1.397 2.166 2.166 0 011.463-.558l20.435-.782a2.175 2.175 0 012.302 2.346l-.131 1.889a2.175 2.175 0 01-2.28 2.063zM508.761 337.44l-19.957.76a2.166 2.166 0 01-2.171-1.585l-.478-1.911a2.17 2.17 0 011.976-2.649l19.87-.76a2.174 2.174 0 012.172 1.498l.586 1.889a2.172 2.172 0 01-1.998 2.758zM481.833 338.483l-20.217.782a2.044 2.044 0 01-2.063-1.629l-.413-2.172a2.042 2.042 0 011.911-2.432l20.109-.76a2.018 2.018 0 012.041 1.52l.522 2.172a2.045 2.045 0 01-1.029 2.284 2.04 2.04 0 01-.861.235zM454.732 339.525l-20.174.782a2.172 2.172 0 01-2.171-1.781l-.283-2.019a2.172 2.172 0 011.976-2.368l20.044-.76a2.171 2.171 0 012.172 1.673l.391 1.997a2.17 2.17 0 01-1.116 2.223 2.152 2.152 0 01-.839.253zM424.547 340.698l-19.284.738a2.541 2.541 0 01-2.605-2.323v-1.13a2.535 2.535 0 011.436-2.468c.305-.146.636-.23.974-.246l19.219-.738a2.512 2.512 0 011.709.588c.477.402.789.966.875 1.583l.152 1.129a2.512 2.512 0 01-1.438 2.634c-.326.151-.679.23-1.038.233zM397.988 341.719l-20.326.781a1.988 1.988 0 01-1.51-.505 1.992 1.992 0 01-.661-1.449v-2.172a2.021 2.021 0 011.932-2.063l20.218-.781a2.01 2.01 0 011.474.482 2.012 2.012 0 01.697 1.385l.152 2.172a1.989 1.989 0 01-.521 1.504 2.003 2.003 0 01-1.455.646zM370.257 342.782l-19.088.739a2.599 2.599 0 01-1.945-.754 2.596 2.596 0 01-.769-1.939v-.956a2.587 2.587 0 012.519-2.519l19.023-.738a2.608 2.608 0 012.714 2.563v.955a2.606 2.606 0 01-2.454 2.649zM343.829 343.803l-20.348.782a1.977 1.977 0 01-2.041-2.172l.174-2.171a2.018 2.018 0 011.911-1.824l20.239-.782a1.972 1.972 0 011.931 1.259c.099.256.144.53.132.804v2.172a1.979 1.979 0 01-1.998 1.932zM296.25 339.46l20.999-.803a1.554 1.554 0 011.207.485 1.563 1.563 0 01.422 1.23l-.261 3.019a1.583 1.583 0 01-1.52 1.455l-21.151.803a1.589 1.589 0 01-1.629-1.781l.413-3.04a1.609 1.609 0 011.52-1.368zM269.757 340.481l19.87-.76a2.166 2.166 0 012.095 1.536c.09.297.117.61.076.918l-.282 1.889a2.172 2.172 0 01-2.041 1.846l-19.957.76a2.17 2.17 0 01-2.172-2.541l.348-1.911a2.167 2.167 0 012.063-1.737zM242.699 341.545l20.152-.782c.297-.012.594.044.866.163a1.971 1.971 0 011.154 2.183l-.456 2.171a1.981 1.981 0 01-1.868 1.607l-20.239.782a1.975 1.975 0 01-1.998-2.454l.543-2.172a1.952 1.952 0 011.846-1.498zM215.489 342.587l20.912-.803a1.558 1.558 0 011.286.577 1.562 1.562 0 01.299 1.377l-.781 3.062a1.543 1.543 0 01-1.455 1.173l-21.065.825a1.567 1.567 0 01-1.606-1.281 1.555 1.555 0 01.043-.739l.933-3.083a1.546 1.546 0 011.434-1.108zM207.628 349.059l-15.44.608a1.553 1.553 0 01-1.283-.629 1.54 1.54 0 01-.216-1.413l1.086-3.149a1.537 1.537 0 011.39-1.02l15.353-.608a1.56 1.56 0 011.555 1.276c.045.24.033.487-.035.722l-.977 3.148a1.54 1.54 0 01-1.433 1.065zM185.673 349.906l-42.889 1.65a1.448 1.448 0 01-1.231-.638 1.458 1.458 0 01-.137-1.381l1.499-3.345a1.434 1.434 0 011.259-.847l42.585-1.65a1.434 1.434 0 011.39 1.911l-1.173 3.344a1.409 1.409 0 01-1.303.956z" fill="#000"/>
    <path d="M363.482 435.88a1.458 1.458 0 011.195-1.673l15.505-.694a1.566 1.566 0 011.455 1.585 1.476 1.476 0 01-1.216 1.716l-15.505.608a1.542 1.542 0 01-1.434-1.542z" fill="#D0A4FF"/>
    <path d="M157.963 88.334L548.11 72.85a12.792 12.792 0 0012.248-13.16l-.435-14.506a12.764 12.764 0 00-8.323-11.57 12.769 12.769 0 00-4.945-.786L156.508 48.31a12.769 12.769 0 00-12.247 13.16l.434 14.485a12.757 12.757 0 004.053 8.956 12.768 12.768 0 009.215 3.422zM389.194 150.269l160.306-6.363a13.577 13.577 0 0013.03-13.963l-1.064-34.746a13.54 13.54 0 00-8.861-12.207 13.547 13.547 0 00-5.233-.823l-160.306 6.254a13.551 13.551 0 00-13.03 13.964l1.043 34.746a13.58 13.58 0 004.318 9.511 13.563 13.563 0 009.797 3.627zM389.194 218.219l160.306-6.363a13.573 13.573 0 0013.03-13.963l-1.065-34.746a13.551 13.551 0 00-14.093-13.03l-160.306 6.276a13.529 13.529 0 00-13.03 13.963l1.042 34.746a13.58 13.58 0 0014.116 13.117zM161.785 159.302l188.624-7.492a13.376 13.376 0 0012.834-13.768l-1.086-35.115a13.365 13.365 0 00-4.223-9.422 13.388 13.388 0 00-9.675-3.608l-188.645 7.558a13.375 13.375 0 00-12.813 13.768l1.065 35.115a13.383 13.383 0 004.253 9.388 13.395 13.395 0 009.666 3.576z" fill="#CEE7FF"/>
    <path d="M392.299 286.386l164.324-6.515a11.552 11.552 0 0011.075-11.9l-1.195-38.764a11.52 11.52 0 00-3.66-8.093 11.536 11.536 0 00-8.327-3.091l-164.323 6.515a11.531 11.531 0 00-11.075 11.901l1.172 38.763a11.534 11.534 0 0012.009 11.184z" fill="#78ACCF" opacity=".79"/>
    <path d="M168.626 295.376l185.062-7.34a15.196 15.196 0 0010.491-4.839 15.207 15.207 0 004.059-10.818l-2.954-87.299a15.191 15.191 0 00-4.856-10.573 15.185 15.185 0 00-10.909-4.042l-185.041 7.34a15.205 15.205 0 00-14.549 15.657l2.953 87.299a15.202 15.202 0 0015.744 14.615z" fill="#CEE7FF"/>
    <path d="M168.583 76.412l160.11-6.363a8.533 8.533 0 008.187-8.686 8.52 8.52 0 00-2.713-5.992 8.533 8.533 0 00-6.169-2.282l-160.089 6.276a8.535 8.535 0 00-8.295 8.795 8.542 8.542 0 002.751 6.01 8.548 8.548 0 006.218 2.242zM375.274 68.203l160.024-6.363a8.533 8.533 0 008.208-8.686 8.545 8.545 0 00-2.72-5.985 8.543 8.543 0 00-6.162-2.289L374.6 51.156a8.533 8.533 0 00-7.457 11.976 8.543 8.543 0 004.805 4.533 8.533 8.533 0 003.326.538z" fill="#fff"/>
    <defs>
        <linearGradient id="paint0_linear" x1="603.274" y1="566.955" x2="91.511" y2="330.76" gradientUnits="userSpaceOnUse">
            <stop stop-color="#53238D"/>
            <stop offset=".11" stop-color="#7746B1"/>
            <stop offset=".17" stop-color="#8352B8"/>
            <stop offset=".27" stop-color="#A271CB"/>
            <stop offset=".41" stop-color="#D4A4E8"/>
            <stop offset=".5" stop-color="#FACAFF"/>
            <stop offset=".67" stop-color="#B786D7"/>
            <stop offset=".79" stop-color="#8958BC"/>
            <stop offset=".85" stop-color="#7746B1"/>
            <stop offset="1" stop-color="#53238D"/>
        </linearGradient>
        <linearGradient id="paint1_linear" x1="3039720" y1="205094" x2="3200840" y2="205094" gradientUnits="userSpaceOnUse">
            <stop stop-color="#53238D"/>
            <stop offset=".11" stop-color="#7746B1"/>
            <stop offset=".17" stop-color="#8352B8"/>
            <stop offset=".27" stop-color="#A271CB"/>
            <stop offset=".41" stop-color="#D4A4E8"/>
            <stop offset=".5" stop-color="#FACAFF"/>
            <stop offset=".67" stop-color="#B786D7"/>
            <stop offset=".79" stop-color="#8958BC"/>
            <stop offset=".85" stop-color="#7746B1"/>
            <stop offset="1" stop-color="#53238D"/>
        </linearGradient>
        <filter id="filter0_d" x=".323" y="275.453" width="728.205" height="258.114" filterUnits="userSpaceOnUse" color-interpolation-filters="sRGB">
            <feFlood flood-opacity="0" result="BackgroundImageFix"/>
            <feColorMatrix in="SourceAlpha" values="0 0 0 0 0 0 0 0 0 0 0 0 0 0 0 0 0 0 127 0"/>
            <feOffset dy="10"/>
            <feGaussianBlur stdDeviation="25"/>
            <feColorMatrix values="0 0 0 0 0.772549 0 0 0 0 0.572549 0 0 0 0 1 0 0 0 1 0"/>
            <feBlend in2="BackgroundImageFix" result="effect1_dropShadow"/>
            <feBlend in="SourceGraphic" in2="effect1_dropShadow" result="shape"/>
        </filter>
    </defs>
</svg>
