<svg viewBox="0 0 111 78" fill="none" xmlns="http://www.w3.org/2000/svg">
    <path d="M99.42.967L19.634 3.29a6.232 6.232 0 00-6.058 6.515l.781 22.65a8.187 8.187 0 01-7.904 8.448 6.233 6.233 0 00-6.059 6.515l.912 26.407a4.191 4.191 0 004.343 4.039l101.522-3.084a3.612 3.612 0 002.526-1.14 3.609 3.609 0 00.97-2.595l-2.171-61.5A8.905 8.905 0 0099.419.967z" fill="#BC8BFF"/>
    <path d="M85.782 42.792a3.518 3.518 0 00-5.516.174L69.408 56.604a3.541 3.541 0 01-5.516.195L39.55 30.132a3.518 3.518 0 00-5.516.174L1.611 70.87c-.2.27-.307.598-.304.934v2.041a4.04 4.04 0 004.17 3.888l101.304-3.062a3.97 3.97 0 003.598-2.589 3.97 3.97 0 00.246-1.537 1.374 1.374 0 00-.369-.912L85.782 42.792z" fill="#FBFFFF" opacity=".7"/>
    <path d="M100.302 21.437c.653-5.285-3.16-10.106-8.515-10.769-5.357-.662-10.228 3.085-10.882 8.37-.654 5.285 3.159 10.106 8.515 10.769 5.356.662 10.228-3.085 10.882-8.37z" fill="#fff"/>
    <path d="M86.281 20.512a9.577 9.577 0 016.754-9.468c-.887-.223-1.8-.325-2.715-.305a9.664 9.664 0 00-9.424 9.925 9.814 9.814 0 0012.769 8.882 9.729 9.729 0 01-7.384-9.034z" fill="#D9EAFC"/>
</svg>
