<svg viewBox="0 0 164 95" fill="none" xmlns="http://www.w3.org/2000/svg">
    <path d="M163.701 86.01c0 1.194-1.281 2.17-2.932 2.17L6.934 94.306c-1.65 0-3.04-.847-3.083-2.042L.962 8.287c0-1.173 1.26-2.172 2.91-2.172l153.9-6.102c1.629 0 3.019.847 3.062 2.02l2.867 83.976z" fill="#FE3745"/>
    <path d="M51.06 27.462c0-2.367 2.172-3.43 5.104-2.367l51.445 18.959c2.888 1.064 2.953 2.996.152 4.343L57.814 71.373c-2.823 1.28-5.19.412-5.255-1.955L51.06 27.462z" fill="#fff"/>
    <path d="M62.96 27.614l-6.796-2.519c-2.889-1.064-5.19 0-5.104 2.367l1.455 41.89c0 2.368 2.433 3.237 5.256 1.955l6.514-3.04-1.324-40.652z" fill="#D9EAFC"/>
    <path d="M151.996 16.757c0 .716-.76 1.324-1.759 1.368l-12.552.5c-.999 0-1.824-.522-1.846-1.217l-.304-9.012c0-.695.76-1.303 1.737-1.346l12.574-.5c.977 0 1.824.5 1.846 1.216l.304 8.99zM152.56 32.848c0 .695-.781 1.325-1.759 1.346l-12.573.5c-.977 0-1.802-.5-1.846-1.216l-.304-8.99c0-.696.76-1.304 1.759-1.347l12.574-.5c.977 0 1.802.5 1.824 1.217l.325 8.99zM153.103 48.896c0 .695-.76 1.303-1.737 1.347l-12.574.5c-.999 0-1.824-.5-1.845-1.217l-.304-8.99c0-.717.76-1.325 1.737-1.347l12.573-.5c.999 0 1.824.5 1.846 1.195l.304 9.012zM153.668 64.966c0 .695-.76 1.303-1.759 1.347l-12.574.5c-.977 0-1.802-.5-1.824-1.217l-.325-8.99c0-.717.76-1.325 1.759-1.368l12.573-.5c.977 0 1.802.521 1.824 1.216l.326 9.012zM154.211 81.015c0 .716-.76 1.324-1.738 1.368l-12.573.5c-.999 0-1.824-.522-1.846-1.217l-.304-8.99c0-.717.76-1.325 1.737-1.368l12.574-.5c.999 0 1.824.521 1.846 1.216l.304 8.99zM26.89 21.73c0 .694-.76 1.302-1.736 1.346l-12.574.5c-.999 0-1.824-.5-1.846-1.217l-.304-9.056c0-.716.76-1.324 1.76-1.368l12.55-.477c1 0 1.825.5 1.847 1.194l.304 9.077zM27.477 37.8c0 .694-.76 1.302-1.759 1.346l-12.552.5c-.999 0-1.824-.5-1.846-1.217l-.325-8.99c0-.717.781-1.325 1.759-1.369l12.573-.5c.977 0 1.824.522 1.846 1.217l.304 9.012zM28.02 53.848c0 .717-.782 1.325-1.76 1.368l-12.573.5c-.977 0-1.824-.522-1.845-1.217l-.304-8.99c0-.717.76-1.325 1.759-1.368l12.551-.5c1 0 1.825.522 1.846 1.217l.326 8.99zM28.563 69.918c0 .716-.76 1.325-1.759 1.368l-12.552.5c-.998 0-1.824-.522-1.845-1.217l-.305-9.012c0-.695.76-1.303 1.738-1.346l12.573-.5c1 0 1.824.5 1.846 1.216l.304 8.99zM29.127 85.988c0 .716-.76 1.324-1.759 1.346l-12.573.5c-.977 0-1.803-.5-1.824-1.195l-.326-9.012c0-.695.76-1.303 1.759-1.346l12.573-.5c.978 0 1.803.5 1.825 1.216l.325 8.99z" fill="#B7092B"/>
</svg>
