<svg viewBox="0 0 145 53" fill="none" xmlns="http://www.w3.org/2000/svg">
    <path d="M12.7 52.73l120.436-4.778a11.442 11.442 0 0010.988-11.77l-.738-24.453a11.461 11.461 0 00-3.648-8.01 11.462 11.462 0 00-8.252-3.065L11.05 5.454A11.444 11.444 0 00.062 17.223l.76 24.43A11.423 11.423 0 0012.7 52.73z" fill="#F3CD55"/>
    <path d="M110.378 15.79a9.62 9.62 0 11-9.425 9.925 9.644 9.644 0 019.425-9.924zM71.81 17.245a9.62 9.62 0 11.382 19.236 9.62 9.62 0 01-.381-19.236zM30.246 18.809a9.62 9.62 0 11.381 19.237 9.62 9.62 0 01-.38-19.237z" fill="#fff"/>
</svg>
