<svg viewBox="0 0 132 132" fill="none" xmlns="http://www.w3.org/2000/svg">
    <path d="M21.287 33.126l.235-.236.225-.254.238-.25c.075-.087.154-.17.238-.25.025-.093.143-.161.238-.25.074-.083.152-.162.234-.236.073-.09.152-.173.238-.25l.476-.5.288-.222c.029-.107.064-.24.17-.211l.239-.25.238-.25.238-.25.235-.236.238-.25.238-.25.238-.25.195-.304.291-.236.239-.25c.075-.087.154-.17.238-.25.025-.093.143-.16.238-.25.074-.083.152-.162.234-.236a2.13 2.13 0 01.238-.25c.075-.087.155-.17.238-.25.075-.087.155-.17.238-.25l.222-.24c.028-.106.16-.171.238-.25.083-.079.163-.162.238-.25a11.886 11.886 0 017.233-3.423l50.933-5.644c6.081-.666 12.441 4.175 14.35 10.832l14.671 51.198a13.175 13.175 0 01-2.627 12.727l-.238.25-.238.25-.238.25-.234.237-.238.25-.238.25-.238.25-.238.25-.235.236-.238.25-.238.25-.238.25-.235.236a2.09 2.09 0 01-.238.25 2.09 2.09 0 01-.238.25c-.025.093-.156.158-.238.25-.082.092-.156.158-.221.24-.065.082-.173.168-.238.25l-.238.25-.238.25-.238.25-.235.236-.238.25-.238.25-.238.25-.238.25-.235.236-.238.25-.238.25-.238.25a9.641 9.641 0 01-4.754 3.004l-50.149 13.468c-7.41 2.007-15.263-2.849-17.353-10.852L18.162 45.321a12.285 12.285 0 013.125-12.195z" fill="#4B40C3"/>
    <path d="M58.31 107.651l50.157-13.552c5.964-1.61 9.083-8.517 7.098-15.422l-14.67-51.198c-1.91-6.657-8.322-11.512-14.35-10.832l-50.933 5.645c-7.511.839-12.05 7.721-10.107 15.371l15.438 59.132c2.09 8.003 9.957 12.863 17.367 10.856z" fill="#8969EA"/>
    <path d="M75.076 69.768A74.07 74.07 0 0097 20.832a15.617 15.617 0 013.921 6.654l14.644 51.191c1.985 6.906-1.135 13.812-7.099 15.422L58.31 107.651c-7.41 2.007-15.277-2.852-17.367-10.855l-2.106-8.107a73.45 73.45 0 0036.24-18.921z" fill="#6652D3"/>
    <path d="M72.015 66.082a5.357 5.357 0 003.975.437 4.642 4.642 0 002.525-1.761L96.442 38.72l9.345 32.547a1.962 1.962 0 01-.022 1.51 1.95 1.95 0 01-1.09 1.044l-.106-.029-53.318 12.363a2.465 2.465 0 01-2.872-1.839l-9.745-36.375 33.38 18.14z" fill="#fff"/>
    <path d="M95.16 34.883a1.377 1.377 0 01-.06 1.666L76.563 63.151a2.63 2.63 0 01-1.46 1.035c-.76.219-1.576.133-2.275-.239L38.725 45.313a1.817 1.817 0 01-1.105-1.622 2.3 2.3 0 011.954-1.972l.272-.056 52.707-7.85a2.604 2.604 0 012.608 1.07z" fill="#fff"/>
</svg>
