<svg viewBox="0 0 373 208" fill="none" xmlns="http://www.w3.org/2000/svg">
    <path d="M367.708 176.31c-.978 11.206-7.306 14.665-10.088 14.382-2.781-.284-19.049-6.509-19.403-4.228-.353 2.28 9.451 9.726 16.297 10.071 0 0-12.948 14.283-21.552 10.158-8.605-4.126-9.34-10.651-14.703-13.1-5.362-2.449-9.944-2.465-7.729.053 2.215 2.519 11.917 4.931 14.99 10.355.723 1.278 1.43 2.466 1.973 3.505l-18.117-.037c-5.753-2.876-10.585-6.792-10.947-11.037-.029-.324-.054-.632-.078-.928l-.559-6.53s-9.303-10.852-4.467-19.855a13.716 13.716 0 013.699-4.277s8.67-5.252 15.742-4.825c0 0-5.478 9.188-7.023 14.649-.542 1.924-.596 3.386.247 3.822.924.477 2.12-.908 3.357-3.131 3.098-5.568 6.455-16.396 6.455-16.396s5.215-.505 11.144-.579c2.663-.037 5.469 0 8.017.238 2.811.247 5.297.703 6.916 1.484 0 0-.354.287-.946.785-.887.743-2.305 1.943-3.883 3.34-4.676 4.138-10.757 9.973-8.485 10.499 1.841.411 7.614-3.004 12.738-6.41 4.787-3.168 9.04-6.316 9.04-6.316s18.356 3.09 17.365 14.308z" fill="#82B378"/>
    <path d="M358.693 176.597s-49.877-1.923-60.893 12.328c0 0-2.437 7.293-9.932 13.938l-1.167 3.184s8.629-9.114 11.736-9.664c0 .016-4.837-17.657 60.256-19.786z" fill="#82B378"/>
    <path d="M289.964 202.798c-.411.468-1.068 1.109-1.985 1.952-.315.296-.623.612-.924.949a18.4 18.4 0 00-1.332 1.668h-2.329a28.137 28.137 0 014.495-4.52c.168-.082 4.462-2.679 2.075-.049z" fill="#82B378"/>
    <path d="M243.35 170.38s20.135-11.271 10.733-26.565c0 0-7.511-9.39-15.561-11.806 0 0 4.29 22.81 0 23.344-4.29.534-2.955-25.756-2.955-25.756s-21.194-10.199-29.511-9.393c0 0 13.149 22.271 8.855 21.733-4.294-.539-19.054-23.073-19.054-23.073s-21.733-4.027-25.221 8.855c-3.489 12.882 2.149 19.313 5.366 20.135 3.217.822 23.882.538 23.344 3.217-.538 2.679-14.489 6.986-22.267 4.561 0 0 8.584 21.199 19.855 20.135s14.756-8.05 21.733-8.588c6.977-.538 12.072 1.344 8.584 3.221-3.489 1.878-15.294.617-20.928 5.404s-10.195 7.742.267 9.891 29.249.821 33.004-7.245l3.756-8.07z" fill="#A8D29F"/>
    <path d="M180.562 131.743s56.349 18.244 62.788 38.625c0 0-.267 9.123 5.366 19.588v4.023s-5.905-13.683-9.122-15.561c0 .012 12.611-17.698-59.032-46.675z" fill="#82B378"/>
    <path d="M253.935 207.346h-3.217c-.103-4.656-.641-9.887-2.232-13.869a15.794 15.794 0 00-.645-1.434c-.666-1.306-1.118-2.272-1.405-2.971-1.644-4.035 2.289.925 2.289.925a37.774 37.774 0 015.21 17.349z" fill="#82B378"/>
    <path d="M275.364 154.84s-26.524-14.858-14.148-35.018c0 0 9.903-12.376 20.517-15.561 0 0-5.658 30.063 0 30.769 5.658.707 3.891-33.953 3.891-33.953s27.942-13.441 38.905-12.377c0 0-17.332 29.356-11.674 28.649 5.659-.707 25.115-30.408 25.115-30.408s28.649-5.304 33.247 11.674c4.598 16.979-2.831 25.477-7.076 26.525-4.245 1.047-31.48.706-30.769 4.244.711 3.538 19.099 9.197 29.356 6.012 0 0-11.321 27.942-26.175 26.528-14.855-1.413-19.453-10.609-28.649-11.316-9.196-.707-15.915 1.767-11.317 4.245 4.599 2.477 20.16.821 27.589 7.125 7.429 6.303 13.437 10.203-.353 13.034-13.791 2.831-38.556 1.06-43.508-9.55l-4.951-10.622z" fill="#A8D29F"/>
    <path d="M358.129 103.909s-74.276 24.05-82.765 50.953c0 0 .353 12.023-7.072 25.817v5.305s7.783-18.039 12.023-20.513c0-.02-16.621-23.364 77.814-61.562z" fill="#82B378"/>
    <path d="M271.313 179.437c-.378.924-.974 2.198-1.858 3.928-.308.6-.587 1.233-.85 1.886-2.54 6.374-3.045 15.167-2.951 22.099h-4.261c-.509-15.438 6.912-26.709 6.912-26.709.102-.127 5.148-6.46 3.008-1.204z" fill="#82B378"/>
    <path d="M65.222 45.877s-17.336 8.859-4.7 27.9c0 0-14.896 1.722-18.643-2.56.293.977.707 1.913 1.232 2.786 0 0-14.427-1.89-19.596-7.359-5.17-5.47 10.943-78.209 49.37-63.325 0 0 34.168 3.114 24.475 41.625-9.694 38.51 3.04 40.655 3.04 40.655s-3.837 1.15-5.547.863c0 0-2.338-1.372-2.6-2.84 0 0 .13 2.257.653 3.054 0 0-13.972-1.007-19.963-7.347-5.99-6.34-11.032-25.727-7.72-33.452z" fill="#8E342E"/>
    <path d="M89.968 64.906l-1.389.189a11.378 11.378 0 01-12.796-9.677l-1.006-7.253a11.382 11.382 0 019.68-12.795l1.386-.194a11.378 11.378 0 0112.795 9.677l1.023 7.257a11.38 11.38 0 01-9.693 12.796z" fill="#ED7D2B"/>
    <path d="M93.908 123.057c-5.17 3.994-8.444 18.408-16.786 20.788-31.262 8.92-48.043-28.201-53.533-46.322A27.187 27.187 0 0134.14 93.68c2.272-.387 4.668-.687 6.653-.888 3.414-2.9 8.14-14.308 8.428-31.64l1.508.32 25.3 5.535s-.74 7.984-.917 15.504c-.136 5.884-.325 7.294.131 7.992 1.965.325 4.282 5.342 4.282 5.342a.05.05 0 000 .025 160.087 160.087 0 0114.382 27.186z" fill="#FFB27D"/>
    <path d="M76.03 67.009s-.744 7.98-.917 15.504c-14.197-.69-21.437-13.807-24.367-21.051l25.283 5.547z" fill="#ED985F"/>
    <path d="M204.612 198.126s-14.863.547-31.008.6h-5.752c-13.15-.053-26.069-.514-31.567-1.931-5.37-1.385-26.035-15.389-42.57-32.355-1.282 3.057-2.248 5.391-2.272 5.576a86.297 86.297 0 01-2.28 11.287 137.273 137.273 0 01-10.212 26.122h-8.855l-69.123-.099s13.034-20.138 9.52-71.662c-.09-1.303 12.036-42.875 12.036-42.875s9.418-1.643 20.307-2.523c1.028.937 3.14 28.283 16.761 29.865 2.215.259 16.437 21.963 16.437 21.963l4.302-22.189-5.091-29.417c6.533 1.915 10.116 2.601 15.548 4.77a17.172 17.172 0 018.67 7.701c9.513 17.39 40.393 73.471 43.557 74.786 2.951 1.233 14.074 3.447 25.846 5.597 15.747 2.876 32.656 5.608 32.656 5.608l3.09 9.176z" fill="#D2E3FC"/>
    <path d="M80.245 74.615s-33.616-.662-32.873-21.59c.744-20.927-3.114-35.107 18.38-35.572 21.495-.464 25.383 7.672 26.837 14.715 1.455 7.043-3.583 42.077-12.344 42.447z" fill="#FFB27D"/>
    <path d="M173.625 198.725h-5.753c-13.149-.054-26.068-.514-31.566-1.931-5.371-1.385-26.036-15.389-42.57-32.356 0 0 3.488-13.354 4.992-15.589 1.504-2.236 7.433 19.485 21.293 28.324 13.86 8.838 35.524 15.027 46.043 12.52 7.092-1.689 7.819 4.697 7.561 9.032z" fill="#B7D3F3"/>
    <path d="M73.643 62.964s.213 2.507 5.724 2.901c0 0 4.63.333 4.824-2.358 0 0-4.216-2.532-10.548-.543z" fill="#fff"/>
    <path d="M75.463 71.43C56.36 65.394 51.675 47.314 51.63 47.133l2.054-.505-1.019.25 1.02-.25c.04.172 4.474 17.13 22.427 22.801l.362.11-.646 2.01-.365-.119z" fill="#122544"/>
    <path d="M77.624 72.843l-1.796-.567a1.758 1.758 0 01-1.142-2.194 1.754 1.754 0 012.194-1.142l1.804.57a1.75 1.75 0 01.809 2.793 1.75 1.75 0 01-1.869.54z" fill="#ED7D2B"/>
    <path d="M82.152 14.68s-8.604 25.477-21.515 29.816c-12.911 4.339-17.193-.793-17.193-.793s9.513-8.745 10.606-22.876c0 0 20.858-16.572 28.102-6.147z" fill="#8E342E"/>
    <path d="M66.081 22.181s17.525-.982 22.764 4.006c3.777 3.6 3.699 5.478 3.982 10.273 0 0 7.664-11.826-.222-20.097-8.362-8.773-26.524 5.818-26.524 5.818z" fill="#8E342E"/>
    <path d="M81.408 17.373S77.016 41.766 60.97 50.629c0 0 15.54-15.906 15.82-31.82.28-15.915 4.618-1.434 4.618-1.434z" fill="#8E342E"/>
    <path d="M23.507 66.64c5.165 5.469 19.596 7.355 19.596 7.355-.661-.909-1.233-2.79-1.233-2.79 7.418 6.011 25.625 1.643 25.625 1.643-14.526-3.21-9.82-24.174-4.882-25.065C65.49 31.97 71.205 12.288 73.88 3.445c-.645-.106-1.01-.14-1.01-.14-38.412-14.87-54.532 57.873-49.363 63.334z" fill="#8E342E"/>
    <path d="M55.06 62.752l-1.388.193a11.378 11.378 0 01-12.796-9.677l-1.003-7.257A11.37 11.37 0 0149.55 33.22l1.385-.194a11.374 11.374 0 0112.796 9.677l1.003 7.253a11.374 11.374 0 01-9.673 12.796z" fill="#ED7D2B"/>
    <path d="M45.984 36.289c-.822-1.545 2.055-13.56 6.32-22.884 2.054-4.52 7.248-10.531 10.95-12.085 1.34-.563 3.12-.332 4.566 0 1.056.235 4.01 1.615 4.01 1.615-12.175 3.793-22.756 29.306-21.987 31.949a.944.944 0 00-.083-.19l-3.776 1.595z" fill="#ED7D2B"/>
    <path d="M52.27 55.54l-.69.094a5.67 5.67 0 01-6.377-4.824l-.501-3.612a5.67 5.67 0 014.828-6.377l.694-.095a5.666 5.666 0 016.374 4.824l.501 3.612a5.67 5.67 0 01-4.828 6.377z" fill="#F99746"/>
    <path d="M133.84 186.008s14.415-.822 15.816-.074c2.272 1.233 10.018 6.213 11.23 7.659 1.212 1.447 4.393 7.265 4.393 7.265s-1.377.382-1.997-.176c-.621-.559-5.342-5.556-5.342-5.556l4.832 7.339s-1.672-.074-2.334-.801c-.661-.728-5.177-5.342-5.177-5.342l-1.537-.304a16.727 16.727 0 012.416 2.395 14.75 14.75 0 011.414 2.359 11.323 11.323 0 01-1.808-.44c-.411-.205-4.475-3.747-4.475-3.747l2.145 2.93s-1.447-.074-1.923-.411c-.477-.337-3.629-3.226-4.187-3.222-.559.004-4.586-.16-6.316-1.076-1.73-.917-7.154-3.017-7.154-3.017l.004-5.781z" fill="#FFB27D"/>
    <path d="M44.83 86.25s-9.64 2.811-11.839 5.026c0 0 10.08 25.764 24.61 37.804l3.883-2.757v6.262l14.546 9.521s-31.944-48.06-31.2-55.855zM89.142 181.294a137.273 137.273 0 01-10.211 26.122h4.93H32.992s5.342 0 5.317-.037c-.123-.465 7.766-21.857-5.317-30.626-13.083-8.768-17.858-30.382-17.858-30.382l41.707-10.187s17.184 25.066 22.074 29.857c3.756 3.669 12.508 3.945 12.508 3.945l-2.28 11.308zM75.245 90.504s4.434 35.054.785 51.589c0 0 5.954-10.938 6.788-12.943l-.998-6.012 3.838 1.335s-3.386-27.941-6.452-32.848c-3.065-4.906-4.2-5.374-4.2-5.374l.24 4.252z" fill="#B7D3F3"/>
    <path d="M204.612 198.127s-18.598.686-36.777.6c-4.52-6.986 1.015-15.377 1.015-15.377 15.746 2.877 32.655 5.609 32.655 5.609l3.107 9.168z" fill="#FFB27D"/>
    <path d="M206.379 207.437h-68.737a5.469 5.469 0 013.38-5.064 5.486 5.486 0 012.097-.417h63.28l-.02 5.481z" fill="#ED7D2B"/>
    <path d="M312.451 132.573l-25.489 74.864H179.998l26.183-74.864h106.27z" fill="#ED7D2B"/>
    <path d="M312.451 132.573l-25.255 74.169-.234.695H181.563l26.18-74.864h104.708z" fill="#F99746"/>
    <path d="M256.719 169.325c-.657 2.876-3.513 5.177-6.373 5.177-2.86 0-4.643-2.318-3.982-5.177.662-2.86 3.514-5.178 6.374-5.178s4.643 2.301 3.981 5.178z" fill="#FFC397"/>
    <path d="M312.451 132.573l-25.255 74.169h-48.425l59.043-74.169h14.637z" fill="#ED7D2B"/>
    <path d="M133.853 191.826s-35.384 3.094-54.939 2.223v-19.218c12.812 3.538 54.926 11.172 54.926 11.172l.013 5.823z" fill="#FFB27D"/>
    <path d="M32.99 91.276s-20.232.46-26.499 7.224c-6.266 6.763 6.217 44.999 6.217 44.999s37.718 46.194 56.587 49.449c0 0 8.247 1.13 12.097 1.191 0 0-3.776-10.988 3.242-17.887 0 0-8.079-2.26-8.411-3.262-.333-1.003-43.232-81.714-43.232-81.714z" fill="#D2E3FC"/>
</svg>
