<svg viewBox="0 0 30 30" fill="none" xmlns="http://www.w3.org/2000/svg">
    <path d="M15 30c8.284 0 15-6.716 15-15 0-8.284-6.716-15-15-15C6.716 0 0 6.716 0 15c0 8.284 6.716 15 15 15z" fill="#039BE5"/>
    <path d="M6.864 14.674l14.462-5.576c.671-.242 1.258.164 1.04 1.179l.002-.002-2.463 11.602c-.183.822-.671 1.022-1.355.635l-3.75-2.764-1.809 1.742c-.2.2-.368.37-.756.37l.266-3.817 6.95-6.279c.303-.266-.067-.416-.466-.151l-8.589 5.407-3.702-1.154c-.804-.255-.822-.804.17-1.192z" fill="#fff"/>
</svg>
