<svg viewBox="0 0 132 136" fill="none" xmlns="http://www.w3.org/2000/svg">
    <path d="M84.762 56.176L107.6 43.555s5.664 9.745 6.843 16.348c1.094 6.249-2.599 14.757-9.27 33.221a130.218 130.218 0 01-5.131 12.709 7.516 7.516 0 01-3.935-.217c-6.362-2.365-9.78-30.996-11.345-49.44z" fill="#2E9FEE"/>
    <path d="M84.762 56.176c1.564 18.444 4.983 47.075 11.332 49.392a7.506 7.506 0 003.935.218c-2.773 5.677-6.276 10.564-11.339 13.009-8.66 4.172-12.258 2.399-27.743-3.219s-21.842-8.229-25.955-10.443c-4.114-2.215-11.61-15.04-11.61-15.04l61.38-33.917z" fill="#1C95EA"/>
    <path d="M38.177 31.716L22.256 76.33c-2.965 8.307 1.366 17.444 9.673 20.409L72.1 111.075c8.307 2.964 17.445-1.367 20.41-9.674l15.921-44.614c2.964-8.307-1.367-17.444-9.674-20.408l-40.17-14.336c-8.308-2.965-17.445 1.366-20.41 9.673z" fill="#3FB2FA"/>
    <path d="M67.023 71.656c7.225-6.373 6.785-8.894 5.419-10.854-1.366-1.96-3.936-6.335-.651-9.433 3.284-3.1 8.453-7.152 11.298-6.312 2.845.84 7.169 9.573 6.504 15.372-.665 5.798-11.845 16.857-19.56 21.66-7.714 4.805-17.01 10.638-24.365 5.62-7.356-5.017-8.213-8.765-5.489-11.509 2.725-2.743 8.735-8.986 11.529-8.044 2.793.942 5.284 6.59 8.327 6.458 3.044-.132 4.339-.625 6.988-2.958z" fill="#fff"/>
</svg>
