<svg viewBox="0 0 111 102" fill="none" xmlns="http://www.w3.org/2000/svg">
    <path d="M107.322 14.422c-.092-.107-.168-.214-.259-.306l-.274-.321-.259-.306c-.091-.107-.167-.215-.258-.306l-.259-.322c-.091-.091-.168-.199-.259-.306l-.274-.306-.259-.321c-.091-.092-.167-.2-.258-.306-.092-.107-.168-.215-.259-.306-.091-.092-.213-.215-.213-.307l-.274-.32a2.43 2.43 0 00-.259-.307c-.091-.107-.167-.214-.258-.306l-.259-.322c-.092-.091-.168-.214-.259-.306l-.274-.306-.259-.321c-.091-.092-.167-.199-.258-.306-.092-.107-.168-.214-.259-.306l-.259-.322-.274-.306c-.091-.107-.167-.214-.258-.306l-.259-.321c-.092-.092-.168-.2-.259-.306a2.613 2.613 0 00-.274-.306l-.259-.322c-.091-.092-.167-.199-.258-.306-.092-.107-.168-.214-.26-.306l-.258-.321A12.783 12.783 0 0095 1.947 12.72 12.72 0 0089.591 1l-59.902.291a15.306 15.306 0 00-8.707 3.332 15.447 15.447 0 00-5.189 7.78L1.457 66.334a11.602 11.602 0 00-.25 5.708 11.566 11.566 0 002.502 5.128l.335.352c.091.107.168.214.259.306l.259.322.273.306c.078.109.165.21.26.306l.258.321c.091.092.167.2.259.306l.274.306.258.322.26.306c.09.107.166.214.258.306l.259.321.273.306c.078.11.165.212.26.306.077.11.164.212.258.307l.259.321.258.306.274.306.26.322c0 .107.166.198.258.306.091.107.167.214.259.306l.258.321.274.306c.078.11.165.211.259.306l.259.322c.091.091.167.199.258.306.092.107.168.214.26.306l.273.321.259.306c.078.11.164.212.258.306a9.592 9.592 0 005.753 3.367l60.147 10.897c3.962.75 8.06-.051 11.454-2.239a15.897 15.897 0 006.809-9.53l14.062-65.167c.395-1.662.37-3.397-.074-5.047a10.246 10.246 0 00-2.467-4.396z" fill="#D55FE1"/>
    <path d="M69.35 91.113L9.202 80.216C3.1 79.053-.294 72.931 1.456 66.336l14.337-53.934c.887-3.071 2.7-5.79 5.19-7.78a15.306 15.306 0 018.705-3.331L89.591 1c8.112 0 13.606 5.831 12.023 13.177L87.536 79.344a15.868 15.868 0 01-6.773 9.51 15.71 15.71 0 01-11.414 2.26z" fill="#FB81BE"/>
    <path d="M87.536 79.344l14.078-65.167a10.5 10.5 0 00-1.096-7.652c-3.79 6.122-9.847 11.417-14.9 16.835-8.02 8.54-14.32 18.962-23.924 25.559-8.447 5.861-18.69 8.34-28.734 10.544a960.517 960.517 0 01-31.382 6.428l-.122.444C-.294 72.931 3.1 79.053 9.203 80.216l60.146 10.897a15.71 15.71 0 0011.414-2.26 15.867 15.867 0 006.773-9.509z" fill="#E06DCB"/>
    <path d="M73.809 20.789l-40.849-1.01c-2.4.047-4.72.876-6.612 2.364a11.146 11.146 0 00-3.874 5.885l-4.991 19.728c-1.188 4.82 1.521 9.182 6.224 9.687l1.05.108-2.16 8.891a1.97 1.97 0 00.82 2.236 1.939 1.939 0 002.36-.215l12.571-9.183c.075-.063.146-.129.213-.2L64.8 61.99a11.684 11.684 0 007.928-2.06 11.8 11.8 0 004.658-6.77l4.78-22.483c1.125-5.326-2.664-9.78-8.356-9.887zM30.678 48.444a2.532 2.532 0 01-1.92-1.079 2.563 2.563 0 01-.363-2.18 3.72 3.72 0 011.367-2.112 3.685 3.685 0 012.392-.75 2.546 2.546 0 011.989 1.096 2.579 2.579 0 01.34 2.255 3.735 3.735 0 01-1.412 2.067 3.699 3.699 0 01-2.393.703zm14.945 1.332a2.684 2.684 0 01-2.039-1.135 2.716 2.716 0 01-.396-2.309c.22-.862.73-1.62 1.442-2.148a3.82 3.82 0 012.47-.744 2.682 2.682 0 012.084 1.127 2.717 2.717 0 01.396 2.347 3.873 3.873 0 01-1.455 2.178 3.836 3.836 0 01-2.502.745v-.061zm15.995 1.423a2.864 2.864 0 01-2.177-1.147 2.9 2.9 0 01-.501-2.419 4.073 4.073 0 011.525-2.275 4.032 4.032 0 012.614-.786 2.866 2.866 0 012.198 1.135 2.901 2.901 0 01.511 2.431 4.012 4.012 0 01-1.51 2.339c-.764.573-1.708.85-2.66.783v-.06z" fill="#fff"/>
</svg>
