<svg viewBox="0 0 331 198" fill="none" xmlns="http://www.w3.org/2000/svg">
    <path d="M6.836 95H0l8.369 102.001H25l-18.164-102z" fill="#B7D3F3"/>
    <path d="M138.206 65.169l-1.417.284a11.731 11.731 0 01-13.786-9.151l-1.496-7.397a11.738 11.738 0 019.151-13.786l1.417-.283a11.737 11.737 0 0113.787 9.15l1.495 7.397a11.738 11.738 0 01-9.151 13.786z" fill="#122544"/>
    <path d="M.37 95.013s36.037-16.918 85.416-5.663L6.969 95.013H.37z" fill="#B7D3F3"/>
    <path d="M24.6 197.001L7 95.132s55.427-18.296 98.427 0L131 196.36l-106.4.641z" fill="#D2E3FC"/>
    <path d="M182 197.001H80.85a106.225 106.225 0 01-3.956-11.429c-2.883-9.992-4.75-21.009-5.94-31.793 0-.139-.029-.282-.045-.408-2.06-18.711-2.06-36.712-1.776-47.524.157-6.253.412-10.107.412-10.294.218-.094.437-.18.651-.266a240.291 240.291 0 0115.44-5.816h.041a227.91 227.91 0 0111.971-3.674 176.77 176.77 0 0118.835-4.081 138.476 138.476 0 0118.596-1.698h.745c1.463-.025 2.884-.02 4.256 0 13.845.293 23.069 3.024 27.72 4.844.647.254 1.203.494 1.648.707l.181.073c.527.233.935.433 1.236.572l.111.06c.136.07.268.148.412.225l7.296 75.954L182 197.001z" fill="#2B478B"/>
    <path d="M282.399 181.104c-10.109 4.693-70.233 8.629-76.019 6.985-2.958-.854-15.356-11.772-27.827-25.205-11.801-12.705-23.701-27.658-27.711-38.42-8.256-22.115-1.163-41.748-1.163-41.748s15.343-.066 21.597 3.698c6.254 3.764 42.012 69.624 46.795 71.35 4.783 1.726 61.427 4.989 67.915 8.066-.004 0 6.513 10.565-3.587 15.274z" fill="#2B478B"/>
    <path d="M135.794 82.526v3.723s1.036 11.64-13.301 13.367c-14.336 1.726-25.21-4.52-24.835-13.49 1.282-6.957 2.691-11.74 2.778-17.497.03-2.34-.144-4.676-.518-6.986l27.781-.6 8.186 1.328-.091 20.155z" fill="#EA9E6A"/>
    <path d="M135.889 62.386l-.074 20.135a23.54 23.54 0 01-10.01 2.227c-12.771 0-25.476-20.545-25.887-23.093l35.971.731z" fill="#D88D59"/>
    <path d="M137.503 72.17s-35.572 7.24-39.739-14.981c-4.166-22.222-11.571-36.25 10.967-41.819 22.539-5.567 28.55 2.088 31.747 9.168 3.197 7.08 6.172 45.175-2.975 47.633z" fill="#EA9E6A"/>
    <path d="M147.394 8.01s-9.927-.747-21.638-5.818c-9.504-4.11-21.482.452-25.37 2.507.139-.841.461-1.641.945-2.343 0 0-1.746 1.233-2 2.975-.177.132-.26.222-.214.255.045.033-1.981-.362-3.25.214 0 0 .891-.128 1.207.444.038.06.087.113.144.156-14.793 7.182-16.14 30.604-11.362 36.016 5.725 6.509 12.64 21.166 12.64 21.166s2.503-3.472 1.45-9.209c-1.051-5.736 3.904-5.752 10.158-8.362 6.254-2.609 1.028-9.91 6.497-14.353 5.469-4.442 25.554-1.861 25.287-5.251 7.438-2.712 5.506-17.632 5.506-18.397z" fill="#8E342E"/>
    <path d="M80.985 196.997a106.195 106.195 0 01-3.972-11.446c-2.897-10.006-4.772-21.039-5.967-31.838 0-.139-.03-.282-.046-.409.075.037.203.241.286.143 3.956-4.75 14.756-9.941 27.836 8.968 2.607 3.769 14.07 30.175 15.878 34.586l-34.015-.004z" fill="#233862"/>
    <path d="M91.1 197.001c-.295-1.623.033-3.662 1.403-6.213 0 0 1.701-1.021 3.957-2.21 3.362-1.755 7.983-3.883 10.084-3.541.378.062.882.163 1.479.299 4.949 1.095 16.49 4.384 18.234 6.306 1.437 1.584 3.394 3.6 4.743 5.351l-39.9.008z" fill="#EA9E6A"/>
    <path d="M99 197.001H4.19a5.743 5.743 0 01.074-3.19c2.828-7.144 8.348-18.909 14.704-31.53 4.675-9.285 9.798-19.033 14.637-27.756 6.717-12.104 12.868-22.233 16.486-26.386 2.869-3.279 6.446-6.009 10.2-8.268a71.409 71.409 0 019.511-4.755c.217-.094.435-.18.648-.266A83.856 83.856 0 0182.285 91s.07 2.997.073 7.605c0 13.367-.491 40.302-4.753 46.877-1.189 1.833-3.406 4.6-6.172 7.846-.082.09-.155.181-.237.275-1.5 1.754-3.16 3.644-4.918 5.591-9.892 11.068-22.424 24.107-23.952 25.694l-.156.159h.18l26.584.374 8.154.11 16.908.234a6.382 6.382 0 012.77 2.357c1.652 2.39 2.168 5.87 2.234 8.879z" fill="#2B478B"/>
    <path d="M282.399 181.104c-10.108 4.692-70.233 8.629-76.018 6.985-2.959-.855-15.356-11.773-27.827-25.205.612.082 6.315-9.422 32.322 13.326 0 0 6.809 3.028 25.345 1.331 18.536-1.697 42.34-2.35 46.178 3.563z" fill="#233862"/>
    <path d="M223.335 197.437h-68.737a5.469 5.469 0 013.38-5.064 5.486 5.486 0 012.097-.417h63.28l-.02 5.481z" fill="#B24940"/>
    <path d="M223.137 122.577h106.27l-25.493 74.859h-106.96l26.183-74.859z" fill="#B24940"/>
    <path d="M330.972 122.573l-25.492 74.864H198.52l26.179-74.864h106.273z" fill="#C65447"/>
    <path d="M273.675 159.325c-.657 2.876-3.513 5.177-6.373 5.177-2.86 0-4.643-2.318-3.982-5.177.662-2.86 3.514-5.178 6.374-5.178s4.643 2.301 3.981 5.178z" fill="#F9DDBF"/>
    <path d="M330.973 122.573l-25.493 74.864h-49.757l59.598-74.864h15.652z" fill="#B24940"/>
    <path d="M108.103 65.17l-1.418.283a11.732 11.732 0 01-13.786-9.151l-1.496-7.396a11.736 11.736 0 019.147-13.795l1.418-.283a11.736 11.736 0 0113.786 9.15l1.495 7.397a11.733 11.733 0 01-9.146 13.794z" fill="#122544"/>
    <path d="M97.078 38.518c-.95-1.714-2.342-15.496 1.446-26.471 1.833-5.3 4.792-8.325 8.506-10.367a9.1 9.1 0 014.385-1.134l3.731.061c-12.295 5.206-15.142 33.05-14.185 36.02a1.276 1.276 0 00-.094-.205l-3.789 2.096zM132.955 67.486c-20.661 0-30.889-16.326-30.987-16.49l1.845-1.13-.925.563.925-.567c.094.156 9.726 15.458 29.142 15.458h.41l.025 2.166h-.435z" fill="#122544"/>
    <path d="M104.77 57.916l-.706.144a5.844 5.844 0 01-6.867-4.561L96.45 49.8a5.847 5.847 0 014.561-6.87l.706-.145a5.848 5.848 0 016.867 4.561l.748 3.699a5.842 5.842 0 01-4.562 6.87z" fill="#2B478B"/>
    <path d="M135.523 68.206h-1.948a1.807 1.807 0 01-1.804-1.804 1.813 1.813 0 011.804-1.804h1.948a1.811 1.811 0 011.804 1.804 1.807 1.807 0 01-1.804 1.804z" fill="#122544"/>
</svg>
