<svg viewBox="0 0 305 206" fill="none" xmlns="http://www.w3.org/2000/svg">
    <path d="M113.552 59.219l-1.372.28a11.38 11.38 0 01-13.367-8.877l-1.45-7.178a11.382 11.382 0 018.875-13.367l1.373-.275a11.379 11.379 0 0113.367 8.871l1.45 7.179a11.377 11.377 0 01-8.876 13.367z" fill="#ED7D2B"/>
    <path d="M201.24 205.298h-64.123c-10.872-17.258-20.434-40.577-22.665-58.731-1.06-8.629-.469-16.062 2.412-21.154 8.953-15.82-5.252-34.393-5.252-34.393s19.56 5.535 24.104 21.663c4.635 16.437 17.074 71.088 17.074 71.088l47.612 9.792c2.223 5.588.838 11.735.838 11.735z" fill="#F99746"/>
    <path d="M201.24 205.296h-64.122c-10.873-17.258-20.435-40.578-22.666-58.732l9.513-2.913s12.035 54.935 19.033 55.773c6.998.838 58.242 5.872 58.242 5.872z" fill="#ED7D2B"/>
    <path d="M121.081 117.018c-4.931 4.306-11.259 8.115-19.441 11-30.654 10.827-45.722-14.411-52.317-32.162 4.015-2.942 7.997-3.94 10.298-4.483a98.491 98.491 0 016.574-1.295c3.23-3.106 7.245-14.792 6.464-32.116l1.524.23 25.575 3.986s-.246 8.016.041 15.532c.226 5.88.789 11.464 2.055 12.701 1.981.201 3.172.345 3.172.345v.02a160.813 160.813 0 0116.055 26.242z" fill="#FFB27D"/>
    <path d="M99.775 62.182s-.251 8.008.036 15.532c-14.213.181-22.246-12.463-25.616-19.518l25.58 3.986z" fill="#ED985F"/>
    <path d="M133.271 143.653c-.074.551-6.907 22.773-6.985 23.332-2.371 18.602-6.665 38.453-6.665 38.453h-9.389l-61.97-.124s7.475-22.554-12.245-57.116a142.123 142.123 0 00-2.025-3.439c-2.811-4.615 14.911-53.932 14.911-53.932s7.758-1.373 18.643-2.248c1.028.94 3.77 11.575 17.454 12.422 17.862 1.097 15.912-12.702 15.912-12.702 7.273 1.463 9.899 1.997 19.235 6.472.004-.037 13.502 45.846 13.124 48.882z" fill="#F99746"/>
    <path d="M104.446 69.528s-33.592 1.41-34.15-19.522c-.56-20.932-5.264-34.85 16.16-36.637 21.425-1.788 25.805 6.094 27.692 13.034 1.886 6.94-.978 42.2-9.702 43.125z" fill="#FFB27D"/>
    <path d="M97.14 58.289s.366 2.486 5.893 2.543c0 0 4.643.046 4.668-2.654.004 0-4.36-2.264-10.56.11z" fill="#fff"/>
    <path d="M99.487 66.627c-19.432-4.848-25.221-22.6-25.279-22.789l2.005-.628-1.002.316 1.002-.316c.054.168 5.519 16.822 23.784 21.367l.37.09-.49 2.055-.39-.095z" fill="#122544"/>
    <path d="M101.722 67.904l-1.833-.456a1.759 1.759 0 01-1.274-2.12 1.75 1.75 0 012.121-1.274l1.832.456a1.752 1.752 0 011.274 2.12 1.752 1.752 0 01-2.12 1.274zM85.413.326s21.631-3.377 30.576 14.629c6.813 13.708 1.134 22.267-1.537 24.893 0 0-1.34-17.17-7.952-18.847 0 0-12.594-.378-15.5 3-2.905 3.377-.968 15-5.796 17.31 0 0-20.468 10.416-21.204 5.19-.735-5.227-4.5-19-2-31.546C66 1.5 85.413.326 85.413.326z" fill="#2C3A64"/>
    <path d="M78.584 59.218l-1.377.28a11.382 11.382 0 01-13.367-8.876l-1.446-7.178a11.374 11.374 0 018.871-13.363l1.373-.276a11.378 11.378 0 0113.367 8.872l1.45 7.179a11.378 11.378 0 01-8.871 13.362z" fill="#ED7D2B"/>
    <path d="M67.892 33.369c-.917-1.492-2.269-13.503 1.405-23.069a15.853 15.853 0 018.247-9.04 9.586 9.586 0 014.249-.986l3.62.054c-11.917 4.52-14.682 28.8-13.753 31.389a.9.9 0 00-.095-.18l-3.673 1.832z" fill="#ED7D2B"/>
    <path d="M75.354 52.188l-.686.14a5.667 5.667 0 01-6.66-4.422l-.724-3.575a5.675 5.675 0 014.421-6.66l.687-.14a5.67 5.67 0 016.656 4.421l.724 3.58a5.662 5.662 0 01-4.418 6.656z" fill="#F99746"/>
    <path d="M48.27 205.296s7.475-22.555-12.245-57.116l7.347-9.209s13.002 36.834 29.257 47.576c16.256 10.741 35.306 8.481 37.611 18.864l-61.97-.115z" fill="#ED7D2B"/>
    <path d="M48.912 90.788S35.537 91.95 26.583 107.77.63 182.708.63 205.296h71.568s1.397-6.164-.842-11.744l-44.288-8.559s26.66-39.587 26.94-56.656c.279-17.07-5.096-37.55-5.096-37.55z" fill="#F99746"/>
    <path d="M72.63 198.029s13.942-1.365 16.251-.736c2.31.629 8.921 3.361 10.388 4.302 1.467.941 4.302 3.699 4.302 3.699s-1.783.337-2.831.102c-1.048-.234-4.2-.443-5.038-.513-.838-.07-3.846.55-3.846.55H70.238l2.392-7.404z" fill="#FFB27D"/>
    <path d="M198.927 205.437h-68.753a5.47 5.47 0 011.603-3.876 5.474 5.474 0 013.874-1.605h63.276v5.481z" fill="#233862"/>
    <path d="M304.979 130.573l-25.485 74.864H172.53l26.183-74.864h106.266z" fill="#233862"/>
    <path d="M304.979 130.573l-25.251 74.169-.234.695H174.096l26.179-74.864h104.704z" fill="#2B478B"/>
    <path d="M249.251 167.325c-.661 2.876-3.513 5.177-6.373 5.177-2.86 0-4.643-2.318-3.986-5.177.658-2.86 3.518-5.178 6.378-5.178 2.859 0 4.643 2.301 3.981 5.178z" fill="#F99746"/>
    <path d="M304.979 130.573l-25.25 74.169h-48.43l59.048-74.169h14.632z" fill="#233862"/>
</svg>
