<svg viewBox="0 0 1192 424" fill="none" xmlns="http://www.w3.org/2000/svg">
    <path d="M375 129.106V422.77l-354.187 1.231c.892-12.836-57.406-182.144 17.321-278.864 106.039-137.304 196.661-26.246 316.268-16.626 6.851.557 13.726.755 20.598.595z" fill="#EBF3FA"/>
    <path d="M1188.48 417.949c-.48 3.678-38.83-.591-39.36 3.025l-239.294.822H375.104V129.4a190.118 190.118 0 0020.546-1.644c23.475-3.201 48.077-11.263 74.153-26.438C739.746-55.238 959.538-12.726 1082.95 109.5a368.705 368.705 0 0141.14 48.606c52.47 74.256 76.18 166.785 64.39 259.843z" fill="#F3F8FC"/>
    <path opacity=".6" d="M1191.44 371.657c.08 16.17-.91 32.328-2.96 48.368-.48 3.698-38.83-.592-39.36 3.024l-239.294.822H375.104v-.222l534.722-1.836 239.294-.822c.53-3.616 38.88.653 39.36-3.025a367.707 367.707 0 002.96-46.309z" fill="#EBF3FA"/>
    <path d="M1086.21 198.194v223.617H395.67v-194.59h52.933v-53.106h52.934v71.749h42.854V229.83h74.65v27.104h32.486v-60.869h86.965V91.69h68.762v55.67h15.685v-46.634H891.7v71.831h62.323v-44.082h66.657v44.082h12.43v25.637h53.1z" fill="#E8F0FD"/>
    <path d="M315.441 148.268h-61.407a5.124 5.124 0 00-5.124 5.124v59.27a5.124 5.124 0 005.124 5.124h61.407a5.124 5.124 0 005.124-5.124v-59.27a5.124 5.124 0 00-5.124-5.124z" fill="#C0D8FB"/>
    <path d="M312.778 151.28h-56.085a4.68 4.68 0 00-4.68 4.68v54.134a4.68 4.68 0 004.68 4.68h56.085a4.68 4.68 0 004.68-4.68V155.96a4.68 4.68 0 00-4.68-4.68z" fill="#DFEBFD"/>
    <path d="M284.737 159.108a1.483 1.483 0 10.001-2.967 1.483 1.483 0 00-.001 2.967zM295.212 159.726a1.477 1.477 0 011.465-.755 1.48 1.48 0 011.258 1.065 1.49 1.49 0 01-.502 1.569 1.477 1.477 0 01-1.642.138 1.46 1.46 0 01-.442-.374 1.47 1.47 0 01-.314-1.092c.022-.194.082-.381.177-.551zM305.484 167.878a1.482 1.482 0 012.183.699 1.489 1.489 0 01-.345 1.611 1.475 1.475 0 01-1.619.299 1.483 1.483 0 01-.863-1.672c.082-.386.314-.722.644-.937zM311.948 182.552a1.484 1.484 0 10-2.745-1.13 1.484 1.484 0 002.745 1.13zM307.979 195.138a1.48 1.48 0 01.32 1.616 1.485 1.485 0 01-2.741 0 1.487 1.487 0 01.321-1.616 1.487 1.487 0 012.1 0zM297.607 207.016a1.483 1.483 0 10.001-2.967 1.483 1.483 0 00-.001 2.967zM284.737 210.784a1.483 1.483 0 10.001-2.967 1.483 1.483 0 00-.001 2.967zM274.198 159.726a1.485 1.485 0 00-2.256-.413 1.48 1.48 0 00-.455 1.583 1.49 1.49 0 001.289 1.027 1.477 1.477 0 001.549-1.069 1.493 1.493 0 00-.127-1.128zM263.937 167.878a1.486 1.486 0 00-1.647.026 1.488 1.488 0 00-.608 1.531 1.487 1.487 0 001.181 1.148 1.478 1.478 0 001.514-.65c.213-.331.287-.733.205-1.118a1.492 1.492 0 00-.645-.937zM258.855 183.464a1.484 1.484 0 10-.002-2.968 1.484 1.484 0 00.002 2.968zM261.447 195.138a1.48 1.48 0 00-.32 1.616 1.479 1.479 0 001.37.915 1.484 1.484 0 001.05-2.531 1.487 1.487 0 00-2.1 0zM271.818 207.016a1.483 1.483 0 10.001-2.967 1.483 1.483 0 00-.001 2.967zM285.822 183.464a1.484 1.484 0 100-2.968 1.484 1.484 0 000 2.968z" fill="#B7D3F3"/>
    <path d="M286.024 163.436h-.407v18.545h.407v-18.545z" fill="#B7D3F3"/>
    <path d="M295.087 173.737l-9.828 7.717.751.956 9.828-7.717-.751-.956z" fill="#B7D3F3"/>
    <path d="M395.674 127.741v292.527h-41.156V128.793a188.327 188.327 0 0041.156-1.052zM1124.11 158.094v262.161h-41.15V109.479a364.247 364.247 0 0141.15 48.615z" fill="#DEEDFF"/>
</svg>
