<svg viewBox="0 0 104 98" fill="none" xmlns="http://www.w3.org/2000/svg">
    <g filter="url(#filter0_d)">
        <path d="M81.567 12.68l-10.141-2.576c-2.549-.648-4.76 1.861-3.797 4.308l.984 2.5L22.127 35.02A3.337 3.337 0 0020 38.128c0 2.347 2.36 3.96 4.548 3.109l46.51-18.115 1.047 2.664c.963 2.446 4.291 2.775 5.715.565l5.665-8.798c1.193-1.853.218-4.33-1.918-4.873z" fill="url(#paint0_linear)"/>
        <path d="M68.688 22.087l-47.572 18.53a3.321 3.321 0 003.432.62l46.506-18.115a1.829 1.829 0 00-2.366-1.035z" fill="url(#paint1_linear)"/>
        <path d="M81.567 12.68l-10.141-2.576a3.174 3.174 0 00-2.767.573l7.886 2.003c2.136.543 3.11 3.02 1.918 4.873l-5.665 8.797c-.064.1-.133.192-.205.281 1.31 1.643 3.989 1.642 5.227-.28l5.665-8.798c1.193-1.853.218-4.33-1.918-4.873z" fill="url(#paint2_linear)"/>
        <path d="M38.175 58.062h-16.16A2.014 2.014 0 0020 60.076v5.227c0 1.112.902 2.014 2.015 2.014h16.16a2.014 2.014 0 002.015-2.014v-5.227a2.014 2.014 0 00-2.015-2.014z" fill="url(#paint3_linear)"/>
        <path d="M34.708 67.316h-9.226a1.577 1.577 0 01-1.577-1.577v-6.1c0-.872.706-1.578 1.577-1.578h9.226c.87 0 1.577.706 1.577 1.577v6.101c0 .871-.706 1.577-1.577 1.577z" fill="url(#paint4_linear)"/>
        <path d="M31.44 67.316h-2.69a.963.963 0 01-.964-.963v-7.329c0-.532.432-.963.964-.963h2.69c.532 0 .964.431.964.963v7.329a.963.963 0 01-.964.963z" fill="url(#paint5_linear)"/>
        <path d="M38.175 58.062h-16.16A2.014 2.014 0 0020 60.076v3.139c0-1.113.902-2.015 2.015-2.015h13.32v4.103a2.014 2.014 0 01-2.014 2.014h4.854a2.014 2.014 0 002.015-2.014v-5.227a2.014 2.014 0 00-2.015-2.014z" fill="url(#paint6_linear)"/>
        <path d="M38.175 48.821h-16.16A2.014 2.014 0 0020 50.836v5.227c0 1.112.902 2.014 2.015 2.014h16.16a2.014 2.014 0 002.015-2.014v-5.227a2.014 2.014 0 00-2.015-2.015z" fill="url(#paint7_linear)"/>
        <path d="M34.708 58.076h-9.226a1.578 1.578 0 01-1.577-1.578v-6.1c0-.871.706-1.578 1.577-1.578h9.226c.87 0 1.577.707 1.577 1.578v6.1c0 .872-.706 1.578-1.577 1.578z" fill="url(#paint8_linear)"/>
        <path d="M31.44 58.076h-2.69a.963.963 0 01-.964-.963v-7.33c0-.531.432-.962.964-.962h2.69c.532 0 .964.43.964.963v7.329a.963.963 0 01-.964.963z" fill="url(#paint9_linear)"/>
        <path d="M38.175 48.82h-4.854c1.113 0 2.015.902 2.015 2.015v5.227a2.014 2.014 0 01-2.015 2.014h4.854a2.014 2.014 0 002.015-2.014v-5.227a2.015 2.015 0 00-2.015-2.014z" fill="url(#paint10_linear)"/>
        <path d="M60.08 58.062H43.92a2.014 2.014 0 00-2.014 2.014v5.227c0 1.112.902 2.014 2.014 2.014h16.16a2.014 2.014 0 002.015-2.014v-5.227a2.014 2.014 0 00-2.014-2.014z" fill="url(#paint11_linear)"/>
        <path d="M56.613 67.316h-9.225a1.577 1.577 0 01-1.578-1.577v-6.1c0-.872.707-1.578 1.578-1.578h9.225c.871 0 1.578.706 1.578 1.577v6.101c0 .871-.707 1.577-1.578 1.577z" fill="url(#paint12_linear)"/>
        <path d="M53.346 67.316h-2.691a.963.963 0 01-.963-.963v-7.329c0-.532.431-.963.963-.963h2.69c.533 0 .964.431.964.963v7.329a.963.963 0 01-.963.963z" fill="url(#paint13_linear)"/>
        <path d="M60.08 58.062H43.92a2.014 2.014 0 00-2.014 2.014v3.139c0-1.113.902-2.015 2.014-2.015h13.32v4.103a2.014 2.014 0 01-2.014 2.014h4.854a2.014 2.014 0 002.015-2.014v-5.227a2.014 2.014 0 00-2.014-2.014z" fill="url(#paint14_linear)"/>
        <path d="M60.08 48.805H43.92a2.014 2.014 0 00-2.014 2.015v5.227c0 1.112.902 2.014 2.014 2.014h16.16a2.014 2.014 0 002.015-2.014V50.82a2.014 2.014 0 00-2.014-2.015z" fill="url(#paint15_linear)"/>
        <path d="M56.613 58.06h-9.225a1.577 1.577 0 01-1.578-1.577v-6.1c0-.871.707-1.578 1.578-1.578h9.225c.871 0 1.578.707 1.578 1.578v6.1c0 .872-.707 1.578-1.578 1.578z" fill="url(#paint16_linear)"/>
        <path d="M53.346 58.06h-2.691a.963.963 0 01-.963-.962v-7.33c0-.531.431-.962.963-.962h2.69c.533 0 .964.43.964.963v7.329a.963.963 0 01-.963.963z" fill="url(#paint17_linear)"/>
        <path d="M60.08 48.805H43.92a2.014 2.014 0 00-2.014 2.015v3.138c0-1.112.902-2.014 2.014-2.014h13.32v4.103a2.014 2.014 0 01-2.014 2.014h4.854a2.014 2.014 0 002.015-2.014V50.82a2.014 2.014 0 00-2.014-2.015z" fill="url(#paint18_linear)"/>
        <path d="M60.08 39.55H43.92a2.014 2.014 0 00-2.014 2.015v5.227c0 1.112.902 2.014 2.014 2.014h16.16a2.014 2.014 0 002.015-2.014v-5.227a2.014 2.014 0 00-2.014-2.014z" fill="url(#paint19_linear)"/>
        <path d="M56.613 48.805h-9.225a1.577 1.577 0 01-1.578-1.577v-6.1c0-.872.707-1.578 1.578-1.578h9.225c.871 0 1.578.706 1.578 1.577v6.1c0 .872-.707 1.578-1.578 1.578z" fill="url(#paint20_linear)"/>
        <path d="M53.346 48.805h-2.691a.963.963 0 01-.963-.963v-7.329c0-.532.431-.963.963-.963h2.69c.533 0 .964.431.964.963v7.33a.963.963 0 01-.963.962z" fill="url(#paint21_linear)"/>
        <path d="M60.08 39.55h-4.854c1.113 0 2.015.902 2.015 2.014v5.227a2.014 2.014 0 01-2.015 2.015h4.855a2.014 2.014 0 002.014-2.015v-5.227a2.014 2.014 0 00-2.014-2.014z" fill="url(#paint22_linear)"/>
        <path d="M81.986 48.805h-16.16a2.014 2.014 0 00-2.014 2.015v5.227c0 1.112.901 2.014 2.014 2.014h16.16a2.014 2.014 0 002.015-2.014V50.82a2.014 2.014 0 00-2.015-2.015z" fill="url(#paint23_linear)"/>
        <path d="M78.519 58.06h-9.226a1.577 1.577 0 01-1.577-1.577v-6.1c0-.871.706-1.578 1.577-1.578h9.226c.87 0 1.577.707 1.577 1.578v6.1c0 .872-.706 1.578-1.577 1.578z" fill="url(#paint24_linear)"/>
        <path d="M75.251 58.06h-2.69a.963.963 0 01-.964-.962v-7.33c0-.531.432-.962.964-.962h2.69c.532 0 .964.43.964.963v7.329a.963.963 0 01-.964.963z" fill="url(#paint25_linear)"/>
        <path d="M81.986 48.805h-16.16a2.014 2.014 0 00-2.014 2.015v3.138c0-1.112.901-2.014 2.014-2.014h13.32v4.103a2.014 2.014 0 01-2.014 2.014h4.854A2.014 2.014 0 0084 56.047V50.82a2.014 2.014 0 00-2.014-2.015z" fill="url(#paint26_linear)"/>
        <path d="M81.986 58.062h-16.16a2.014 2.014 0 00-2.014 2.014v5.227c0 1.112.901 2.014 2.014 2.014h16.16a2.014 2.014 0 002.015-2.014v-5.227a2.014 2.014 0 00-2.015-2.014z" fill="url(#paint27_linear)"/>
        <path d="M78.519 67.316h-9.226a1.577 1.577 0 01-1.577-1.577v-6.1c0-.872.706-1.578 1.577-1.578h9.226c.87 0 1.577.706 1.577 1.577v6.101c0 .871-.706 1.577-1.577 1.577z" fill="url(#paint28_linear)"/>
        <path d="M75.251 67.316h-2.69a.963.963 0 01-.964-.963v-7.329c0-.532.432-.963.964-.963h2.69c.532 0 .964.431.964.963v7.329a.963.963 0 01-.964.963z" fill="url(#paint29_linear)"/>
        <path d="M81.986 58.062h-16.16a2.014 2.014 0 00-2.014 2.014v3.139c0-1.113.901-2.015 2.014-2.015h13.32v4.103a2.014 2.014 0 01-2.014 2.014h4.854A2.014 2.014 0 0084 65.303v-5.227a2.014 2.014 0 00-2.014-2.014z" fill="url(#paint30_linear)"/>
        <path d="M81.986 39.55h-16.16a2.014 2.014 0 00-2.014 2.015v5.227c0 1.112.901 2.014 2.014 2.014h16.16a2.014 2.014 0 002.015-2.014v-5.227a2.014 2.014 0 00-2.015-2.014z" fill="url(#paint31_linear)"/>
        <path d="M78.519 48.805h-9.226a1.577 1.577 0 01-1.577-1.577v-6.1c0-.872.706-1.578 1.577-1.578h9.226c.87 0 1.577.706 1.577 1.577v6.1c0 .872-.706 1.578-1.577 1.578z" fill="url(#paint32_linear)"/>
        <path d="M75.251 48.805h-2.69a.963.963 0 01-.964-.963v-7.329c0-.532.432-.963.964-.963h2.69c.532 0 .964.431.964.963v7.33a.963.963 0 01-.964.962z" fill="url(#paint33_linear)"/>
        <path d="M81.986 39.55h-16.16a2.014 2.014 0 00-2.014 2.015v3.139c0-1.113.901-2.015 2.014-2.015h13.32v4.103a2.014 2.014 0 01-2.014 2.014h4.854A2.014 2.014 0 0084 46.792v-5.227a2.014 2.014 0 00-2.014-2.014z" fill="url(#paint34_linear)"/>
        <path d="M81.986 30.294h-16.16a2.014 2.014 0 00-2.015 2.015v5.227c0 1.112.902 2.014 2.015 2.014h16.16A2.014 2.014 0 0084 37.536v-5.227a2.014 2.014 0 00-2.014-2.015z" fill="url(#paint35_linear)"/>
        <path d="M78.519 39.55h-9.226a1.577 1.577 0 01-1.577-1.577v-6.101c0-.871.706-1.578 1.577-1.578h9.226c.87 0 1.577.707 1.577 1.578v6.1c0 .872-.706 1.578-1.577 1.578z" fill="url(#paint36_linear)"/>
        <path d="M75.251 39.55h-2.69a.963.963 0 01-.964-.963v-7.33c0-.531.431-.962.964-.962h2.69c.532 0 .963.43.963.963v7.329a.963.963 0 01-.963.963z" fill="url(#paint37_linear)"/>
        <path d="M81.986 30.294h-4.854c1.113 0 2.015.902 2.015 2.015v5.227a2.014 2.014 0 01-2.015 2.014h4.854a2.014 2.014 0 002.015-2.014v-5.227a2.014 2.014 0 00-2.015-2.015z" fill="url(#paint38_linear)"/>
    </g>
    <defs>
        <linearGradient id="paint0_linear" x1="20" y1="25.734" x2="84.001" y2="25.734" gradientUnits="userSpaceOnUse">
            <stop stop-color="#01D0FB"/>
            <stop offset=".608" stop-color="#26A6FE"/>
            <stop offset="1" stop-color="#0182FC"/>
        </linearGradient>
        <linearGradient id="paint1_linear" x1="21.116" y1="31.715" x2="71.054" y2="31.715" gradientUnits="userSpaceOnUse">
            <stop stop-color="#01D0FB"/>
            <stop offset=".608" stop-color="#26A6FE"/>
            <stop offset="1" stop-color="#0182FC"/>
        </linearGradient>
        <linearGradient id="paint2_linear" x1="60.283" y1="18.915" x2="81.74" y2="18.915" gradientUnits="userSpaceOnUse">
            <stop stop-color="#01BFFA"/>
            <stop offset="1" stop-color="#5B5CFF"/>
        </linearGradient>
        <linearGradient id="paint3_linear" x1="18.94" y1="62.69" x2="30.439" y2="62.69" gradientUnits="userSpaceOnUse">
            <stop stop-color="#FFF9DF"/>
            <stop offset=".593" stop-color="#FFE177"/>
            <stop offset="1" stop-color="#FEB137"/>
        </linearGradient>
        <linearGradient id="paint4_linear" x1="24.297" y1="62.689" x2="38.489" y2="62.689" gradientUnits="userSpaceOnUse">
            <stop stop-color="#FFE177"/>
            <stop offset="1" stop-color="#FEB137"/>
        </linearGradient>
        <linearGradient id="paint5_linear" x1="28.603" y1="62.689" x2="33.394" y2="62.689" gradientUnits="userSpaceOnUse">
            <stop stop-color="#FFE177"/>
            <stop offset="1" stop-color="#FEB137"/>
        </linearGradient>
        <linearGradient id="paint6_linear" x1="20.335" y1="62.69" x2="37.353" y2="62.69" gradientUnits="userSpaceOnUse">
            <stop stop-color="#FFE177"/>
            <stop offset="1" stop-color="#FEB137"/>
        </linearGradient>
        <linearGradient id="paint7_linear" x1="18.94" y1="53.449" x2="30.439" y2="53.449" gradientUnits="userSpaceOnUse">
            <stop stop-color="#FFF9DF"/>
            <stop offset=".593" stop-color="#FFE177"/>
            <stop offset="1" stop-color="#FEB137"/>
        </linearGradient>
        <linearGradient id="paint8_linear" x1="24.297" y1="53.448" x2="38.489" y2="53.448" gradientUnits="userSpaceOnUse">
            <stop stop-color="#FFE177"/>
            <stop offset="1" stop-color="#FEB137"/>
        </linearGradient>
        <linearGradient id="paint9_linear" x1="28.603" y1="53.448" x2="33.394" y2="53.448" gradientUnits="userSpaceOnUse">
            <stop stop-color="#FFE177"/>
            <stop offset="1" stop-color="#FEB137"/>
        </linearGradient>
        <linearGradient id="paint10_linear" x1="34.789" y1="53.448" x2="41.824" y2="53.448" gradientUnits="userSpaceOnUse">
            <stop stop-color="#FEB137"/>
            <stop offset="1" stop-color="#ECA026"/>
        </linearGradient>
        <linearGradient id="paint11_linear" x1="40.846" y1="62.69" x2="52.345" y2="62.69" gradientUnits="userSpaceOnUse">
            <stop stop-color="#FFF9DF"/>
            <stop offset=".593" stop-color="#FFE177"/>
            <stop offset="1" stop-color="#FEB137"/>
        </linearGradient>
        <linearGradient id="paint12_linear" x1="46.203" y1="62.689" x2="60.394" y2="62.689" gradientUnits="userSpaceOnUse">
            <stop stop-color="#FFE177"/>
            <stop offset="1" stop-color="#FEB137"/>
        </linearGradient>
        <linearGradient id="paint13_linear" x1="50.509" y1="62.689" x2="55.3" y2="62.689" gradientUnits="userSpaceOnUse">
            <stop stop-color="#FFE177"/>
            <stop offset="1" stop-color="#FEB137"/>
        </linearGradient>
        <linearGradient id="paint14_linear" x1="42.24" y1="62.69" x2="59.258" y2="62.69" gradientUnits="userSpaceOnUse">
            <stop stop-color="#FFE177"/>
            <stop offset="1" stop-color="#FEB137"/>
        </linearGradient>
        <linearGradient id="paint15_linear" x1="40.846" y1="53.433" x2="52.345" y2="53.433" gradientUnits="userSpaceOnUse">
            <stop stop-color="#FFF9DF"/>
            <stop offset=".593" stop-color="#FFE177"/>
            <stop offset="1" stop-color="#FEB137"/>
        </linearGradient>
        <linearGradient id="paint16_linear" x1="46.203" y1="53.433" x2="60.394" y2="53.433" gradientUnits="userSpaceOnUse">
            <stop stop-color="#FFE177"/>
            <stop offset="1" stop-color="#FEB137"/>
        </linearGradient>
        <linearGradient id="paint17_linear" x1="50.509" y1="53.433" x2="55.3" y2="53.433" gradientUnits="userSpaceOnUse">
            <stop stop-color="#FFE177"/>
            <stop offset="1" stop-color="#FEB137"/>
        </linearGradient>
        <linearGradient id="paint18_linear" x1="42.24" y1="53.433" x2="59.258" y2="53.433" gradientUnits="userSpaceOnUse">
            <stop stop-color="#FFE177"/>
            <stop offset="1" stop-color="#FEB137"/>
        </linearGradient>
        <linearGradient id="paint19_linear" x1="40.846" y1="44.178" x2="52.345" y2="44.178" gradientUnits="userSpaceOnUse">
            <stop stop-color="#FFF9DF"/>
            <stop offset=".593" stop-color="#FFE177"/>
            <stop offset="1" stop-color="#FEB137"/>
        </linearGradient>
        <linearGradient id="paint20_linear" x1="46.203" y1="44.178" x2="60.394" y2="44.178" gradientUnits="userSpaceOnUse">
            <stop stop-color="#FFE177"/>
            <stop offset="1" stop-color="#FEB137"/>
        </linearGradient>
        <linearGradient id="paint21_linear" x1="50.509" y1="44.178" x2="55.3" y2="44.178" gradientUnits="userSpaceOnUse">
            <stop stop-color="#FFE177"/>
            <stop offset="1" stop-color="#FEB137"/>
        </linearGradient>
        <linearGradient id="paint22_linear" x1="56.694" y1="44.178" x2="63.729" y2="44.178" gradientUnits="userSpaceOnUse">
            <stop stop-color="#FEB137"/>
            <stop offset="1" stop-color="#ECA026"/>
        </linearGradient>
        <linearGradient id="paint23_linear" x1="62.751" y1="53.433" x2="74.251" y2="53.433" gradientUnits="userSpaceOnUse">
            <stop stop-color="#FFF9DF"/>
            <stop offset=".593" stop-color="#FFE177"/>
            <stop offset="1" stop-color="#FEB137"/>
        </linearGradient>
        <linearGradient id="paint24_linear" x1="68.108" y1="53.433" x2="82.3" y2="53.433" gradientUnits="userSpaceOnUse">
            <stop stop-color="#FFE177"/>
            <stop offset="1" stop-color="#FEB137"/>
        </linearGradient>
        <linearGradient id="paint25_linear" x1="72.414" y1="53.433" x2="77.205" y2="53.433" gradientUnits="userSpaceOnUse">
            <stop stop-color="#FFE177"/>
            <stop offset="1" stop-color="#FEB137"/>
        </linearGradient>
        <linearGradient id="paint26_linear" x1="64.146" y1="53.433" x2="81.164" y2="53.433" gradientUnits="userSpaceOnUse">
            <stop stop-color="#FFE177"/>
            <stop offset="1" stop-color="#FEB137"/>
        </linearGradient>
        <linearGradient id="paint27_linear" x1="62.751" y1="62.69" x2="74.251" y2="62.69" gradientUnits="userSpaceOnUse">
            <stop stop-color="#FFF9DF"/>
            <stop offset=".593" stop-color="#FFE177"/>
            <stop offset="1" stop-color="#FEB137"/>
        </linearGradient>
        <linearGradient id="paint28_linear" x1="68.108" y1="62.689" x2="82.3" y2="62.689" gradientUnits="userSpaceOnUse">
            <stop stop-color="#FFE177"/>
            <stop offset="1" stop-color="#FEB137"/>
        </linearGradient>
        <linearGradient id="paint29_linear" x1="72.414" y1="62.689" x2="77.205" y2="62.689" gradientUnits="userSpaceOnUse">
            <stop stop-color="#FFE177"/>
            <stop offset="1" stop-color="#FEB137"/>
        </linearGradient>
        <linearGradient id="paint30_linear" x1="64.146" y1="62.69" x2="81.164" y2="62.69" gradientUnits="userSpaceOnUse">
            <stop stop-color="#FFE177"/>
            <stop offset="1" stop-color="#FEB137"/>
        </linearGradient>
        <linearGradient id="paint31_linear" x1="62.751" y1="44.178" x2="74.251" y2="44.178" gradientUnits="userSpaceOnUse">
            <stop stop-color="#FFF9DF"/>
            <stop offset=".593" stop-color="#FFE177"/>
            <stop offset="1" stop-color="#FEB137"/>
        </linearGradient>
        <linearGradient id="paint32_linear" x1="68.108" y1="44.178" x2="82.3" y2="44.178" gradientUnits="userSpaceOnUse">
            <stop stop-color="#FFE177"/>
            <stop offset="1" stop-color="#FEB137"/>
        </linearGradient>
        <linearGradient id="paint33_linear" x1="72.414" y1="44.178" x2="77.205" y2="44.178" gradientUnits="userSpaceOnUse">
            <stop stop-color="#FFE177"/>
            <stop offset="1" stop-color="#FEB137"/>
        </linearGradient>
        <linearGradient id="paint34_linear" x1="64.146" y1="44.178" x2="81.164" y2="44.178" gradientUnits="userSpaceOnUse">
            <stop stop-color="#FFE177"/>
            <stop offset="1" stop-color="#FEB137"/>
        </linearGradient>
        <linearGradient id="paint35_linear" x1="62.751" y1="34.922" x2="74.25" y2="34.922" gradientUnits="userSpaceOnUse">
            <stop stop-color="#FFF9DF"/>
            <stop offset=".593" stop-color="#FFE177"/>
            <stop offset="1" stop-color="#FEB137"/>
        </linearGradient>
        <linearGradient id="paint36_linear" x1="68.108" y1="34.922" x2="82.3" y2="34.922" gradientUnits="userSpaceOnUse">
            <stop stop-color="#FFE177"/>
            <stop offset="1" stop-color="#FEB137"/>
        </linearGradient>
        <linearGradient id="paint37_linear" x1="72.414" y1="34.922" x2="77.205" y2="34.922" gradientUnits="userSpaceOnUse">
            <stop stop-color="#FFE177"/>
            <stop offset="1" stop-color="#FEB137"/>
        </linearGradient>
        <linearGradient id="paint38_linear" x1="78.6" y1="34.922" x2="85.635" y2="34.922" gradientUnits="userSpaceOnUse">
            <stop stop-color="#FEB137"/>
            <stop offset="1" stop-color="#ECA026"/>
        </linearGradient>
        <filter id="filter0_d" x="0" y="0" width="104" height="97.317" filterUnits="userSpaceOnUse" color-interpolation-filters="sRGB">
            <feFlood flood-opacity="0" result="BackgroundImageFix"/>
            <feColorMatrix in="SourceAlpha" values="0 0 0 0 0 0 0 0 0 0 0 0 0 0 0 0 0 0 127 0"/>
            <feOffset dy="10"/>
            <feGaussianBlur stdDeviation="10"/>
            <feColorMatrix values="0 0 0 0 0 0 0 0 0 0 0 0 0 0 0 0 0 0 0.25 0"/>
            <feBlend in2="BackgroundImageFix" result="effect1_dropShadow"/>
            <feBlend in="SourceGraphic" in2="effect1_dropShadow" result="shape"/>
        </filter>
    </defs>
</svg>
