<svg viewBox="0 0 25 16" fill="none" xmlns="http://www.w3.org/2000/svg">
    <path d="M22.592 0H1.83C.819 0 0 .819 0 1.829v3.504h24.421V1.83C24.421.819 23.602 0 22.592 0z" fill="#fff"/>
    <path d="M1.829.5h20.763c.734 0 1.33.595 1.33 1.329v3.004H.5V1.83C.5 1.095 1.095.5 1.829.5z" stroke="#000" stroke-opacity=".2"/>
    <path d="M0 14.171C0 15.181.819 16 1.829 16h20.763c1.01 0 1.83-.819 1.83-1.829v-3.504H0v3.504z" fill="#FF4B55"/>
    <path d="M24.421 5.333H0v5.333h24.421V5.333z" fill="#41479B"/>
</svg>
