<svg viewBox="0 0 224 46" fill="none" xmlns="http://www.w3.org/2000/svg">
    <path d="M91.992 12.96c.352 0 .64.12.864.36.224.224.336.52.336.888v14.736c0 .368-.104.656-.312.864-.192.208-.464.312-.816.312-.336 0-.6-.104-.792-.312-.192-.208-.288-.496-.288-.864v-11.16l-4.704 8.952c-.304.56-.696.84-1.176.84s-.872-.28-1.176-.84L79.2 17.88v11.064c0 .368-.096.656-.288.864-.192.208-.464.312-.816.312-.336 0-.608-.104-.816-.312-.192-.224-.288-.512-.288-.864V14.208c0-.368.112-.664.336-.888.224-.24.512-.36.864-.36.496 0 .896.288 1.2.864l5.736 10.968 5.688-10.968c.304-.576.696-.864 1.176-.864zm7.58 17.16c-.368 0-.664-.112-.888-.336-.224-.224-.336-.528-.336-.912V14.208c0-.368.112-.664.336-.888.224-.24.52-.36.888-.36.384 0 .688.112.912.336.224.224.336.528.336.912v14.664c0 .384-.112.688-.336.912-.208.224-.512.336-.912.336zm19.19-1.896c.208.224.312.472.312.744 0 .304-.12.576-.36.816-.24.224-.512.336-.816.336-.336 0-.624-.144-.864-.432l-5.208-6.552-5.232 6.552c-.24.288-.52.432-.84.432-.304 0-.576-.112-.816-.336-.24-.24-.36-.512-.36-.816 0-.256.096-.504.288-.744l5.52-6.84-5.256-6.528a1.06 1.06 0 01-.288-.744c0-.304.112-.568.336-.792.24-.24.512-.36.816-.36.336 0 .624.144.864.432l4.968 6.264 4.968-6.264c.224-.288.512-.432.864-.432.304 0 .576.12.816.36.24.224.36.488.36.792 0 .272-.104.52-.312.744l-5.256 6.528 5.496 6.84z" fill="#0074B6"/>
    <path d="M137.777 28.56c.08.192.12.352.12.48 0 .304-.128.56-.384.768-.24.208-.512.312-.816.312-.208 0-.408-.056-.6-.168a1.238 1.238 0 01-.408-.528l-1.584-3.6h-8.784l-1.584 3.6c-.096.224-.24.4-.432.528a1.174 1.174 0 01-.6.168c-.32 0-.608-.104-.864-.312a.978.978 0 01-.36-.768c0-.128.04-.288.12-.48l6.768-14.808c.112-.256.288-.456.528-.6.256-.144.52-.216.792-.216s.528.072.768.216c.256.144.44.344.552.6l6.768 14.808zm-11.568-4.704h7.032l-3.528-7.944-3.504 7.944zM142.898 30c-.384 0-.688-.104-.912-.312-.208-.224-.312-.52-.312-.888V14.28c0-.368.104-.656.312-.864.224-.224.528-.336.912-.336h4.704c2.736 0 4.856.736 6.36 2.208 1.504 1.472 2.256 3.552 2.256 6.24s-.752 4.776-2.256 6.264c-1.504 1.472-3.624 2.208-6.36 2.208h-4.704zm4.56-2.064c4.16 0 6.24-2.136 6.24-6.408 0-4.256-2.08-6.384-6.24-6.384h-3.312v12.792h3.312zm25.284-14.328c.208-.448.552-.672 1.032-.672.32 0 .608.112.864.336.256.208.384.464.384.768 0 .112-.04.264-.12.456l-6.768 14.832a1.284 1.284 0 01-.528.6c-.24.144-.496.216-.768.216s-.536-.072-.792-.216a1.284 1.284 0 01-.528-.6l-6.744-14.832c-.08-.192-.12-.344-.12-.456 0-.32.128-.584.384-.792.272-.208.568-.312.888-.312.496 0 .848.224 1.056.672l5.88 13.176 5.88-13.176zM179.634 30c-.384 0-.688-.104-.912-.312-.208-.224-.312-.52-.312-.888V14.28c0-.368.104-.656.312-.864.224-.224.528-.336.912-.336h8.832c.368 0 .648.088.84.264.208.176.312.424.312.744s-.104.568-.312.744c-.192.16-.472.24-.84.24h-7.632V20.4h7.152c.368 0 .648.088.84.264.208.176.312.424.312.744s-.104.568-.312.744c-.192.176-.472.264-.84.264h-7.152v5.592h7.632c.768 0 1.152.328 1.152.984 0 .32-.104.568-.312.744-.192.176-.472.264-.84.264h-8.832zm27.215-1.536c.144.208.216.432.216.672 0 .288-.12.536-.36.744a1.178 1.178 0 01-.792.288c-.448 0-.808-.2-1.08-.6l-3.216-4.992c-.368-.576-.76-.976-1.176-1.2-.416-.24-.96-.36-1.632-.36h-2.712v5.856c0 .384-.112.688-.336.912-.208.224-.504.336-.888.336-.368 0-.664-.112-.888-.336-.224-.224-.336-.528-.336-.912V14.28c0-.368.104-.656.312-.864.224-.224.528-.336.912-.336h5.976c1.872 0 3.296.416 4.272 1.248.992.832 1.488 2.048 1.488 3.648 0 1.328-.376 2.408-1.128 3.24-.752.816-1.824 1.336-3.216 1.56.416.112.792.312 1.128.6.336.288.664.688.984 1.2l2.472 3.888zm-6.288-7.44c1.248 0 2.168-.24 2.76-.72.608-.496.912-1.256.912-2.28 0-1.024-.296-1.768-.888-2.232-.592-.48-1.52-.72-2.784-.72h-4.488v5.952h4.488zm15.67 9.096c-.368 0-.672-.112-.912-.336-.224-.24-.336-.544-.336-.912V15.144h-4.8c-.768 0-1.152-.344-1.152-1.032 0-.336.096-.592.288-.768.208-.176.496-.264.864-.264h12.096c.368 0 .648.088.84.264.208.176.312.432.312.768 0 .688-.384 1.032-1.152 1.032h-4.8v13.728c0 .368-.112.672-.336.912-.224.224-.528.336-.912.336z" fill="#FB433C"/>
    <g clip-path="url(#clip0)">
        <path d="M28.347.076H17.062L.075 35.329 6.223 45.99 28.347.076z" fill="url(#paint0_linear)"/>
        <path d="M30.877 38.814l-3.458 7.176H16.134l8.971-18.617 5.772 11.44z" fill="url(#paint1_linear)"/>
        <path d="M49.544.076l-5.631 11.69-3.951 8.197-1.006 2.086-1.006-2.086-4.637-9.624 1.006-2.086 3.94-8.177h11.285z" fill="url(#paint2_linear)"/>
        <path d="M38.32.076h11.285l16.987 35.253-6.148 10.661L38.32.076z" fill="url(#paint3_linear)"/>
        <path d="M32.308 8.253l1.005 2.086-4.637 9.624-1.006 2.086-1.006-2.086-3.95-8.198L17.084.076h11.285l3.94 8.177z" fill="url(#paint4_linear)"/>
        <path fill-rule="evenodd" clip-rule="evenodd" d="M38.956 22.05l-1.006-2.087-4.637-9.624-4.637 9.624-1.006 2.086 4.638 9.622 1.006 2.087 5.894 12.232h11.284L38.956 22.05z" fill="url(#paint5_linear)"/>
    </g>
    <defs>
        <linearGradient id="paint0_linear" x1="14.211" y1=".076" x2="14.211" y2="45.99" gradientUnits="userSpaceOnUse">
            <stop stop-color="#00D0FF"/>
            <stop offset="1" stop-color="#0078E4"/>
        </linearGradient>
        <linearGradient id="paint1_linear" x1="23.796" y1="45.99" x2="23.796" y2="33.488" gradientUnits="userSpaceOnUse">
            <stop stop-color="#D01961"/>
            <stop offset="1" stop-color="#FF002E"/>
        </linearGradient>
        <linearGradient id="paint2_linear" x1="41.429" y1=".076" x2="41.429" y2="22.049" gradientUnits="userSpaceOnUse">
            <stop stop-color="#00D0FF"/>
            <stop offset="1" stop-color="#0078E4"/>
        </linearGradient>
        <linearGradient id="paint3_linear" x1="52.456" y1=".076" x2="52.456" y2="45.99" gradientUnits="userSpaceOnUse">
            <stop stop-color="#00D0FF"/>
            <stop offset="1" stop-color="#0078E4"/>
        </linearGradient>
        <linearGradient id="paint4_linear" x1="25.198" y1=".076" x2="25.198" y2="22.049" gradientUnits="userSpaceOnUse">
            <stop stop-color="#00D0FF"/>
            <stop offset="1" stop-color="#0078E4"/>
        </linearGradient>
        <linearGradient id="paint5_linear" x1="39.53" y1="45.99" x2="39.53" y2="22.049" gradientUnits="userSpaceOnUse">
            <stop stop-color="#D01961"/>
            <stop offset="1" stop-color="#FF002E"/>
        </linearGradient>
        <clipPath id="clip0">
            <path fill="#fff" d="M0 0h66.615v46H0z"/>
        </clipPath>
    </defs>
</svg>
