<svg viewBox="0 0 138 32" fill="none" xmlns="http://www.w3.org/2000/svg">
    <path d="M53.25 15H49v16.385h4.25V15zM66.367 18.611H62.88v12.774h-4.25V18.61h-3.488V15h11.225v3.611zM76.341 22.42v1.302c-.95-1.097-2.104-1.646-3.464-1.646-1.212 0-2.21.413-2.996 1.24-.787.826-1.18 1.862-1.18 3.108 0 1.342.418 2.394 1.254 3.155a4.139 4.139 0 002.873 1.144c1.327 0 2.539-.598 3.636-1.794v1.326a5.336 5.336 0 01-3.66 1.401c-1.507 0-2.74-.496-3.698-1.488-.957-.993-1.436-2.233-1.436-3.722 0-1.523.475-2.788 1.424-3.794.95-1.007 2.211-1.51 3.783-1.51a5.243 5.243 0 013.464 1.277zM79.166 31.385V21.362h.983v1.303c.442-1.015 1.178-1.523 2.21-1.523.368-.006.73.078 1.057.245l-.49.885a1.232 1.232 0 00-.745-.197 1.688 1.688 0 00-1.167.405 2.061 2.061 0 00-.605 1.13c-.092.401-.162.807-.208 1.216-.033.328-.05.72-.05 1.18v5.379h-.985zM94.52 26.496h-8.573c0 1.244.388 2.26 1.165 3.047a3.817 3.817 0 002.814 1.179 3.602 3.602 0 002.084-.627 4.145 4.145 0 001.4-1.658l.834.491a5.736 5.736 0 01-1.645 1.904c-.722.549-1.64.823-2.752.823-1.523 0-2.727-.496-3.611-1.489-.885-.992-1.327-2.24-1.327-3.745 0-1.653.48-2.947 1.438-3.882a4.738 4.738 0 013.424-1.4 4.37 4.37 0 013.39 1.498c.9 1 1.35 2.286 1.351 3.857l.008.002zm-8.5-.928h7.468a4.097 4.097 0 00-1.216-2.505 3.46 3.46 0 00-2.494-.982 3.506 3.506 0 00-2.53.994 4.098 4.098 0 00-1.228 2.493zM105.574 23.107v-1.745h.982v10.023h-.982v-1.797c-.902 1.376-2.204 2.063-3.906 2.063a4.678 4.678 0 01-3.464-1.45c-.947-.962-1.42-2.238-1.42-3.826 0-1.557.446-2.817 1.34-3.783.893-.966 2.072-1.448 3.538-1.448 1.67 0 2.972.655 3.906 1.965l.006-.002zm-3.863-1.03a3.784 3.784 0 00-2.752 1.142c-.77.762-1.154 1.79-1.154 3.082a4.805 4.805 0 001.063 3.107c.703.875 1.66 1.314 2.873 1.315 1.191 0 2.136-.43 2.837-1.291.701-.86 1.048-1.902 1.042-3.126 0-1.359-.401-2.4-1.204-3.126a3.921 3.921 0 00-2.702-1.093M112.893 22.295h-1.743v9.09h-.982v-9.09h-1.106v-.933h1.106v-3.586h.982v3.586h1.743v.933zM115.976 18.673a.893.893 0 01-1.253 0 .879.879 0 01-.258-.651.9.9 0 01.258-.65.892.892 0 011.253 0 .882.882 0 01.258.65.883.883 0 01-.258.65zm-1.118 2.69h.98v10.022h-.983l.003-10.023zM117.807 21.362h1.081l3.537 8.329 3.488-8.329h1.08L122.425 32l-4.618-10.638zM137.926 26.497h-8.573c0 1.244.389 2.26 1.167 3.047a3.807 3.807 0 002.812 1.179 3.6 3.6 0 002.084-.627 4.142 4.142 0 001.411-1.658l.835.49a5.766 5.766 0 01-1.646 1.905c-.721.549-1.638.823-2.751.823-1.524 0-2.727-.496-3.612-1.489-.884-.992-1.326-2.24-1.326-3.745 0-1.653.479-2.947 1.437-3.882a4.73 4.73 0 013.423-1.4 4.369 4.369 0 013.387 1.5c.901 1 1.352 2.286 1.352 3.857zm-8.5-.928h7.468a4.09 4.09 0 00-1.216-2.505 3.468 3.468 0 00-2.494-.983 3.503 3.503 0 00-2.53.995 4.097 4.097 0 00-1.228 2.493z" fill="#fff"/>
    <path d="M6.812 29.116a2.283 2.283 0 010-3.344l1.24-1.177 1.757 1.67 1.759 1.672-1.04.988-.42-.428a.84.84 0 00-1.134-.041.737.737 0 00-.045 1.078l.205.21a2.608 2.608 0 01-.57.063 2.545 2.545 0 01-1.758-.692l.006.002zm22.51 0l-1.239-1.179 1.76-1.672 1.758-1.672 1.238 1.178a2.283 2.283 0 010 3.344 2.577 2.577 0 01-3.516 0zm-5.48-5.213c.7-.083 1.378-.19 2.047-.316l2.25 2.14-1.19 1.132-3.107-2.956zm-12.335 1.82l2.497-2.368c.644.14 1.303.28 1.972.381l-3.28 3.119-1.189-1.132zm16.232-2.54a34.25 34.25 0 001.84-.515l.892.847-1.19 1.133-1.542-1.465zm-18.554.332l1.236-1.173c.582.198 1.181.385 1.798.56l-1.842 1.746-1.192-1.133zm5.445-9.675c0-.372.104-.736.298-1.053.074-.107.151-.21.231-.311a2.265 2.265 0 011.68-.74c1.222 0 2.216.943 2.216 2.1 0 1.156-.994 2.1-2.215 2.1-1.221 0-2.214-.944-2.214-2.1l.004.004zM1.713 16.28c1.836-1.26 6.807-4.374 13.092-5.697-.325.29-.625.607-.897.946a3.555 3.555 0 00-.34.453 7.527 7.527 0 00-1.352 4.297 7.64 7.64 0 002.59 5.698C8.52 20.648 3.547 17.54 1.712 16.28zm26.986 0a7.642 7.642 0 00-2.615-5.721c6.338 1.31 11.358 4.446 13.204 5.72-1.846 1.275-6.862 4.413-13.204 5.722A7.643 7.643 0 0028.7 16.28zm-8.035-2.432c0-1.603-1.099-2.966-2.617-3.446a6.9 6.9 0 012.39-.44h.033c3.655 0 6.626 2.833 6.626 6.31 0 3.478-2.973 6.309-6.628 6.309h-.03c-3.65-.011-6.616-2.837-6.616-6.31v-.21a3.883 3.883 0 003.018 1.41c2.1 0 3.82-1.63 3.82-3.631l.004.008zm7.86-4.28l4.269-4.071 1.19 1.13-3.669 3.49a34.915 34.915 0 00-1.785-.543l-.005-.005zM5.674 6.635l1.191-1.132 4.598 4.372c-.604.185-1.19.384-1.76.591L5.674 6.634zM8 4.423L9.191 3.29l5.96 5.667c-.658.124-1.304.266-1.934.42L8 4.423zm16.71 4.34l5.758-5.473 1.192 1.133-4.93 4.712c-.66-.14-1.334-.27-2.02-.371zm7.351-6.126l3.823-.84-1.13 3.399-2.693-2.559zm-27.88-.84l3.444.818-2.628 2.5-.815-3.318zM2.539.21a.74.74 0 00-.218.717l1.44 5.87v.013c.007.026.015.051.024.076V6.9c.013.03.027.059.042.087v.008c.014.024.03.046.045.069l.017.02.046.054.017.018.008.008 4.12 3.921A40.367 40.367 0 00.59 15.16a1.337 1.337 0 000 2.218 40.468 40.468 0 008.192 4.364l-3.106 2.953a3.758 3.758 0 000 5.502 4.252 4.252 0 005.788 0l1.805-1.718 4.716-4.481c.78.071 1.573.112 2.381.115h.14c.423 0 .843-.01 1.26-.03l4.622 4.399 1.806 1.717a4.241 4.241 0 005.786 0 3.755 3.755 0 000-5.501l-1.806-1.718-.917-.873a40.542 40.542 0 009.155-4.722 1.339 1.339 0 000-2.218 40.645 40.645 0 00-8.45-4.459l3.724-3.54a.676.676 0 00.1-.119l.012-.02a.404.404 0 00.034-.06l.012-.023.028-.069v-.013l1.95-5.87a.737.737 0 00-.176-.748.829.829 0 00-.768-.225l-6.603 1.448h-.017l-.071.02-.026.01a.929.929 0 00-.085.037h-.011a.716.716 0 00-.07.042l-.024.017-.055.043-.02.017-.009.008-7.215 6.862a28.025 28.025 0 00-2.183-.087h-.14a28.25 28.25 0 00-3.26.209L9.746 1.664l-.014-.013a.474.474 0 00-.06-.046.71.71 0 00-.083-.055l-.02-.012a.933.933 0 00-.085-.038l-.018-.007a.738.738 0 00-.075-.021h-.014L3.284.024a.82.82 0 00-.755.197" fill="url(#paint0_linear)"/>
    <defs>
        <linearGradient id="paint0_linear" x1="20.5" y1="0" x2="20.5" y2="31.337" gradientUnits="userSpaceOnUse">
            <stop stop-color="#00D0FF"/>
            <stop offset="1" stop-color="#0078E4"/>
        </linearGradient>
    </defs>
</svg>
