<svg viewBox="0 0 269 243" fill="none" xmlns="http://www.w3.org/2000/svg">
    <g filter="url(#filter0_d)">
        <path d="M122.163 173.528l1.77.545a4.634 4.634 0 005.783-3.034L170.117 41.63a4.636 4.636 0 00-3.034-5.783l-1.769-.544a4.64 4.64 0 00-5.789 3.027L119.108 167.74a4.632 4.632 0 003.055 5.789z" fill="#233863"/>
        <path d="M125.305 175.107a5.364 5.364 0 01-1.634-.25l-1.77-.545a5.445 5.445 0 01-3.566-6.812l40.411-129.42a5.448 5.448 0 016.813-3.561l1.77.544a5.445 5.445 0 013.566 6.807L130.5 171.29a5.45 5.45 0 01-5.195 3.812v.005z" fill="#233863"/>
        <path d="M191.725 203.778L131.883 185.1a12.24 12.24 0 01-8.544-10.585 12.221 12.221 0 01.507-4.75l40.101-128.461a12.24 12.24 0 0115.335-8.038l59.841 18.678a12.24 12.24 0 018.032 15.335L207.054 195.74a12.223 12.223 0 01-5.999 7.195 12.24 12.24 0 01-9.33.843z" fill="#2F4770"/>
        <path d="M195.346 205.151c-1.317 0-2.626-.201-3.883-.594l-59.83-18.651a13.07 13.07 0 01-8.572-16.337l40.107-128.515a13.069 13.069 0 0116.337-8.572l59.836 18.678a13.072 13.072 0 018.577 16.337L207.816 195.96a13.076 13.076 0 01-4.726 6.643 13.08 13.08 0 01-7.744 2.549zM191.953 203a11.438 11.438 0 0014.306-7.504L246.36 67.034a11.437 11.437 0 00-7.498-14.311l-59.826-18.678a11.434 11.434 0 00-14.311 7.504L124.624 170.01a11.436 11.436 0 007.504 14.311L191.953 203z" fill="#233863"/>
        <path d="M170.032 45.335L154.05 96.521l69.852 21.81 15.982-51.186-69.852-21.81z" fill="#fff"/>
        <path d="M223.897 119.138a.784.784 0 01-.245-.038l-69.85-21.783a.81.81 0 01-.479-.403.796.796 0 01-.06-.62l15.983-51.189a.813.813 0 011.018-.545l69.856 21.783a.817.817 0 01.533 1.024l-15.977 51.188a.811.811 0 01-.779.583zm-68.848-23.16l68.309 21.314 15.493-49.631-68.293-21.314-15.509 49.63z" fill="#233863"/>
        <path d="M231.45 57.575a.543.543 0 01-.158 0l-48.759-15.247a.544.544 0 11.326-1.04l48.755 15.22a.552.552 0 01-.164 1.089v-.022z" fill="#fff"/>
        <path d="M171.825 52.798l-.63 2.017c-.105.34.084.7.422.805l10.875 3.396a.643.643 0 00.805-.422l.629-2.017a.642.642 0 00-.422-.805l-10.874-3.395a.643.643 0 00-.805.421z" fill="#FFB44F"/>
        <path d="M182.68 59.568c-.12.001-.24-.017-.354-.054l-10.891-3.393a1.194 1.194 0 01-.768-1.454l.631-2.014a1.188 1.188 0 011.487-.78l10.891 3.393a1.184 1.184 0 01.779 1.47l-.626 2.016c-.095.3-.304.55-.583.697-.176.087-.37.128-.566.12zm-.033-1.089a.097.097 0 00.125-.06l.627-2.014a.104.104 0 00-.008-.076.107.107 0 00-.058-.05l-10.891-3.398a.11.11 0 00-.12.065l-.631 2.015a.1.1 0 00.008.076.102.102 0 00.057.05l10.891 3.392z" fill="#233863"/>
        <path d="M188.13 58.73l-.634 2.007a.64.64 0 00.418.803l10.823 3.418a.64.64 0 00.803-.418l.634-2.007a.64.64 0 00-.418-.803l-10.822-3.418a.64.64 0 00-.804.418z" fill="#FFB44F"/>
        <path d="M198.842 64.633c-.121 0-.243-.018-.359-.055l-10.891-3.398a1.188 1.188 0 01-.779-1.486l.632-2.015a1.18 1.18 0 011.026-.83c.155-.013.312.004.461.051l10.891 3.393a1.194 1.194 0 01.778 1.492l-.626 2.015c-.096.299-.305.549-.583.697-.17.087-.358.133-.55.136zm-.032-1.09a.114.114 0 00.125-.065l.626-2.015a.116.116 0 00-.065-.125l-10.891-3.392a.11.11 0 00-.072.011.114.114 0 00-.048.054l-.632 2.015a.086.086 0 00-.004.039.098.098 0 00.01.037.1.1 0 00.06.049l10.891 3.393z" fill="#233863"/>
        <path d="M205.366 63.27l-.63 2.017c-.105.34.084.7.422.805l10.875 3.396a.643.643 0 00.805-.422l.629-2.017a.642.642 0 00-.422-.805l-10.874-3.395a.643.643 0 00-.805.422z" fill="#FFB44F"/>
        <path d="M216.214 70.057c-.12 0-.24-.019-.354-.055l-10.891-3.392a1.2 1.2 0 01-.779-1.492l.632-2.015a1.186 1.186 0 011.486-.78l10.891 3.393a1.193 1.193 0 01.779 1.493l-.632 2.014a1.182 1.182 0 01-1.132.834zm-.027-1.09a.096.096 0 00.076-.006.104.104 0 00.031-.024.109.109 0 00.018-.035l.626-2.015a.102.102 0 00.005-.038.1.1 0 00-.07-.087l-10.891-3.392a.105.105 0 00-.073.01.1.1 0 00-.047.055l-.632 2.015a.103.103 0 00-.005.039.1.1 0 00.07.086l10.892 3.392z" fill="#233863"/>
        <path d="M221.728 68.379l-.63 2.017c-.106.339.083.699.422.805l10.875 3.395a.642.642 0 00.804-.422l.63-2.017a.642.642 0 00-.422-.804l-10.874-3.396a.643.643 0 00-.805.422z" fill="#FFB44F"/>
        <path d="M232.578 75.165a1.295 1.295 0 01-.354-.055l-10.891-3.398a1.15 1.15 0 01-.697-.583 1.136 1.136 0 01-.082-.904l.626-2.014a1.186 1.186 0 011.487-.78l10.891 3.393a1.191 1.191 0 01.779 1.493l-.627 2.014a1.175 1.175 0 01-.582.697c-.17.088-.359.135-.55.137zm-.033-1.09a.105.105 0 00.076-.008.1.1 0 00.049-.057l.632-2.015a.103.103 0 00-.071-.125l-10.891-3.393a.098.098 0 00-.107.031.11.11 0 00-.018.035l-.632 2.015a.124.124 0 00.012.073c.012.022.031.04.053.052l10.897 3.392zM153.987 100.07l-3.927 12.58 67.949 21.216 3.928-12.58-67.95-21.216z" fill="#233863"/>
        <path d="M218 134.668a.722.722 0 01-.24-.038l-67.95-21.238a.816.816 0 01-.544-1.023l3.926-12.574a.845.845 0 01.403-.485.817.817 0 01.621-.054l67.95 21.21a.823.823 0 01.544 1.024l-3.948 12.607a.797.797 0 01-.154.279.805.805 0 01-.608.292zm-66.926-22.561l66.392 20.721 3.442-11.017-66.404-20.726-3.43 11.022z" fill="#233863"/>
        <path d="M172.905 115.919c-.137 0-.273-.022-.403-.065l-12.056-3.763a1.365 1.365 0 01-.894-1.705l1.051-3.365c.053-.171.139-.33.254-.467a1.355 1.355 0 011.451-.426l12.056 3.763a1.368 1.368 0 01.893 1.704l-1.051 3.366a1.365 1.365 0 01-1.301.958zm-.245-.582a.826.826 0 001.024-.545l1.051-3.365a.807.807 0 00-.254-.87.792.792 0 00-.28-.154l-12.073-3.758a.815.815 0 00-1.024.545l-1.051 3.371a.824.824 0 00.545 1.024l12.062 3.752zM191.534 121.735c-.138 0-.276-.022-.408-.065l-12.051-3.763a1.36 1.36 0 01-.951-1.176 1.353 1.353 0 01.058-.529l1.051-3.365a1.343 1.343 0 01.666-.801 1.366 1.366 0 011.038-.092l12.057 3.763c.342.107.628.346.795.664a1.35 1.35 0 01.098 1.04l-1.051 3.366a1.373 1.373 0 01-1.302.958zm-.245-.583a.833.833 0 00.627-.054.822.822 0 00.397-.485l1.051-3.365a.787.787 0 00-.054-.621.832.832 0 00-.48-.403l-12.056-3.763a.809.809 0 00-.621.06.779.779 0 00-.403.479l-1.051 3.366a.813.813 0 00.539 1.024l12.051 3.762zM210.382 127.638a1.32 1.32 0 01-.409-.065l-12.051-3.763a1.363 1.363 0 01-.893-1.704l1.051-3.366a1.369 1.369 0 01.666-.801 1.366 1.366 0 011.038-.092l12.057 3.763a1.365 1.365 0 01.893 1.705l-1.051 3.343a1.373 1.373 0 01-1.301.959v.021zm-.245-.582a.831.831 0 00.626-.055.82.82 0 00.397-.484l1.051-3.366a.815.815 0 00-.544-1.023l-12.057-3.763a.828.828 0 00-1.024.544l-1.061 3.338a.815.815 0 00.544 1.024l12.068 3.785z" fill="#fff"/>
        <path d="M147.879 125.299l-1.567 5.016a4.618 4.618 0 003.032 5.784l8.644 2.7a4.619 4.619 0 005.785-3.032l1.566-5.016a4.618 4.618 0 00-3.032-5.785l-8.644-2.699a4.618 4.618 0 00-5.784 3.032z" fill="#5A6F8E"/>
        <path d="M159.362 139.82a5.385 5.385 0 01-1.634-.25l-8.626-2.674a5.443 5.443 0 01-3.572-6.813l1.568-5.01a5.448 5.448 0 016.807-3.572l8.648 2.723a5.445 5.445 0 013.567 6.807l-1.563 5.015a5.486 5.486 0 01-5.195 3.812v-.038zm-7.08-16.952a3.81 3.81 0 00-3.632 2.668l-1.563 5.016a3.813 3.813 0 002.494 4.759l8.648 2.723a3.811 3.811 0 004.759-2.5l1.569-5.01a3.81 3.81 0 00-2.5-4.764l-8.642-2.718a3.715 3.715 0 00-1.127-.174h-.006z" fill="#233863"/>
        <path d="M171.51 132.678l-1.566 5.016a4.617 4.617 0 003.032 5.784l8.644 2.699a4.618 4.618 0 005.785-3.031l1.566-5.016a4.618 4.618 0 00-3.032-5.785l-8.644-2.699a4.619 4.619 0 00-5.785 3.032z" fill="#5A6F8E"/>
        <path d="M182.99 147.194a5.515 5.515 0 01-1.633-.245l-8.643-2.723a5.448 5.448 0 01-3.572-6.807l1.569-5.016a5.446 5.446 0 016.806-3.566l8.643 2.695a5.448 5.448 0 013.572 6.807l-1.568 5.015a5.453 5.453 0 01-1.971 2.756 5.45 5.45 0 01-3.219 1.056l.016.028zm-1.127-1.808a3.81 3.81 0 004.77-2.5l1.563-5.015a3.809 3.809 0 00-2.494-4.76l-8.647-2.723a3.814 3.814 0 00-4.76 2.495l-1.563 5.015a3.811 3.811 0 002.494 4.765l8.637 2.723z" fill="#233863"/>
        <path d="M194.786 139.942l-1.566 5.016a4.617 4.617 0 003.031 5.784l8.645 2.699a4.618 4.618 0 005.784-3.032l1.566-5.016a4.618 4.618 0 00-3.031-5.784l-8.645-2.699a4.618 4.618 0 00-5.784 3.032z" fill="#5A6F8E"/>
        <path d="M206.265 154.458a5.55 5.55 0 01-1.634-.245l-8.648-2.723a5.448 5.448 0 01-3.566-6.807l1.562-5.015a5.449 5.449 0 016.807-3.567l8.648 2.695a5.447 5.447 0 013.583 6.813l-1.563 5.01a5.448 5.448 0 01-5.189 3.839zm-7.08-16.952a3.806 3.806 0 00-3.637 2.668l-1.563 5.015a3.821 3.821 0 00.263 2.907 3.798 3.798 0 002.242 1.869l8.658 2.685a3.814 3.814 0 004.765-2.494l1.563-5.016a3.809 3.809 0 00-2.516-4.759l-8.647-2.723a3.807 3.807 0 00-1.122-.152h-.006z" fill="#233863"/>
        <path d="M142.11 143.801l-1.566 5.016a4.617 4.617 0 003.031 5.784l8.645 2.699a4.617 4.617 0 005.784-3.031l1.566-5.016a4.618 4.618 0 00-3.031-5.785l-8.645-2.699a4.618 4.618 0 00-5.784 3.032z" fill="#5A6F8E"/>
        <path d="M153.589 158.319a5.353 5.353 0 01-1.633-.251l-8.648-2.695a5.448 5.448 0 01-3.567-6.807l1.563-5.016a5.445 5.445 0 016.813-3.566l8.642 2.722a5.452 5.452 0 013.189 2.667 5.45 5.45 0 01.378 4.14l-1.563 5.016a5.446 5.446 0 01-5.174 3.79zm-1.132-1.819a3.812 3.812 0 004.765-2.494l1.562-5.015a3.814 3.814 0 00-2.494-4.765l-8.647-2.696a3.813 3.813 0 00-4.76 2.494l-1.568 5.016a3.81 3.81 0 002.5 4.764l8.642 2.696z" fill="#233863"/>
        <path d="M165.736 151.173l-1.566 5.016a4.617 4.617 0 003.032 5.784l8.644 2.7a4.619 4.619 0 005.785-3.032l1.566-5.016a4.619 4.619 0 00-3.032-5.785l-8.644-2.699a4.62 4.62 0 00-5.785 3.032z" fill="#5A6F8E"/>
        <path d="M177.212 165.692a5.317 5.317 0 01-1.633-.245l-8.648-2.723a5.445 5.445 0 01-3.567-6.807l1.563-5.015a5.445 5.445 0 016.807-3.567l8.648 2.723a5.445 5.445 0 013.567 6.807l-1.563 5.015a5.441 5.441 0 01-5.174 3.812zm-1.127-1.802a3.812 3.812 0 004.765-2.5l1.563-5.015a3.814 3.814 0 00-2.5-4.76l-8.642-2.723a3.814 3.814 0 00-4.765 2.5l-1.562 5.01a3.812 3.812 0 002.499 4.765l8.642 2.723z" fill="#233863"/>
        <path d="M189.01 158.441l-1.566 5.016a4.619 4.619 0 003.032 5.785l8.644 2.699a4.62 4.62 0 005.785-3.032l1.566-5.016a4.619 4.619 0 00-3.032-5.785l-8.644-2.699a4.619 4.619 0 00-5.785 3.032z" fill="#5A6F8E"/>
        <path d="M200.487 172.956a5.39 5.39 0 01-1.634-.245l-8.642-2.723a5.446 5.446 0 01-3.572-6.807l1.568-5.015a5.445 5.445 0 016.807-3.567l8.648 2.723a5.445 5.445 0 013.567 6.807l-1.536 5.015a5.436 5.436 0 01-1.978 2.76 5.437 5.437 0 01-3.228 1.052zm-1.127-1.802a3.812 3.812 0 004.759-2.5l1.563-5.015a3.813 3.813 0 00-2.494-4.76l-8.648-2.722a3.808 3.808 0 00-4.759 2.499l-1.563 5.016a3.811 3.811 0 002.494 4.759l8.648 2.723z" fill="#233863"/>
        <path d="M136.329 162.306l-1.566 5.016a4.617 4.617 0 003.031 5.784l8.645 2.699a4.618 4.618 0 005.784-3.031l1.566-5.016a4.618 4.618 0 00-3.032-5.785l-8.644-2.699a4.618 4.618 0 00-5.784 3.032z" fill="#3AAED5"/>
        <path d="M147.812 176.817a5.516 5.516 0 01-1.634-.245l-8.642-2.723a5.446 5.446 0 01-3.573-6.807l1.569-5.015a5.442 5.442 0 016.807-3.567l8.647 2.696a5.447 5.447 0 013.567 6.812l-1.563 5.01a5.448 5.448 0 01-5.195 3.812l.017.027zm-1.128-1.802a3.813 3.813 0 004.76-2.494l1.568-5.016a3.808 3.808 0 00-2.499-4.759l-8.643-2.723a3.814 3.814 0 00-4.764 2.499l-1.563 5.01a3.814 3.814 0 002.494 4.765l8.647 2.718z" fill="#233863"/>
        <path d="M159.955 169.678l-1.566 5.016a4.617 4.617 0 003.032 5.784l8.644 2.699a4.617 4.617 0 005.784-3.031l1.567-5.016a4.619 4.619 0 00-3.032-5.785l-8.644-2.699a4.618 4.618 0 00-5.785 3.032z" fill="#FFB44F"/>
        <path d="M171.44 184.196a5.303 5.303 0 01-1.634-.25l-8.642-2.696a5.442 5.442 0 01-3.572-6.812l1.568-5.01a5.442 5.442 0 016.807-3.572l8.642 2.722a5.448 5.448 0 013.573 6.807l-1.569 5.016a5.443 5.443 0 01-5.189 3.812l.016-.017zm-7.079-16.952a3.811 3.811 0 00-3.632 2.669l-1.569 5.015a3.813 3.813 0 002.5 4.759l8.642 2.723a3.812 3.812 0 004.765-2.499l1.563-5.01a3.814 3.814 0 00-2.494-4.765l-8.648-2.696a3.63 3.63 0 00-1.122-.196h-.005z" fill="#233863"/>
        <path d="M183.236 176.943l-1.566 5.016a4.619 4.619 0 003.031 5.785l8.645 2.699a4.618 4.618 0 005.784-3.032l1.566-5.016a4.618 4.618 0 00-3.031-5.785l-8.645-2.699a4.618 4.618 0 00-5.784 3.032z" fill="#3D85FD"/>
        <path d="M194.709 191.46a5.292 5.292 0 01-1.633-.25l-8.621-2.696a5.442 5.442 0 01-3.567-6.812l1.563-5.01a5.442 5.442 0 016.807-3.572l8.648 2.723a5.447 5.447 0 013.567 6.806l-1.563 5.016a5.453 5.453 0 01-1.973 2.757 5.451 5.451 0 01-3.222 1.055l-.006-.017zm-1.127-1.807a3.814 3.814 0 004.765-2.5l1.563-5.01a3.811 3.811 0 00-2.494-4.765l-8.648-2.695a3.813 3.813 0 00-4.759 2.494l-1.569 5.015a3.813 3.813 0 002.494 4.76l8.648 2.701zM190.777 206.599L131.05 187.97a3.674 3.674 0 01-2.407-4.596 3.682 3.682 0 014.591-2.407l59.733 18.646a3.682 3.682 0 012.407 4.596 3.69 3.69 0 01-4.597 2.39z" fill="#233863"/>
        <path d="M191.866 207.601a4.542 4.542 0 01-1.334-.207l-59.727-18.645a4.48 4.48 0 01-2.635-2.199 4.494 4.494 0 01-.308-3.418 4.472 4.472 0 012.199-2.635 4.493 4.493 0 013.418-.309l59.727 18.646a4.496 4.496 0 012.946 5.614 4.496 4.496 0 01-4.286 3.153zm-.844-1.764a2.852 2.852 0 003.493-1.898 2.854 2.854 0 00-1.794-3.548l-59.732-18.645a2.854 2.854 0 00-1.694 5.445l59.727 18.646z" fill="#233863"/>
        <path d="M189.824 177.95a1.302 1.302 0 11-2.604 0 1.302 1.302 0 012.604 0zM166.55 170.843a1.304 1.304 0 01-1.558 1.277 1.305 1.305 0 01-.945-1.778 1.301 1.301 0 011.207-.8 1.308 1.308 0 01.918.382 1.279 1.279 0 01.378.919zM142.159 163.034a1.305 1.305 0 01-.803 1.203 1.308 1.308 0 01-1.419-.282 1.3 1.3 0 01.198-2.003 1.3 1.3 0 011.643.162c.244.244.381.575.381.92zM196.065 187.415a.678.678 0 01-.418.624.671.671 0 01-.737-.149.674.674 0 01-.143-.738.681.681 0 01.628-.413.675.675 0 01.67.676z" fill="#fff"/>
        <path d="M200.084 139.869a.87.87 0 01-1.041.854.874.874 0 01-.635-1.188.87.87 0 011.421-.282.88.88 0 01.255.616zM193.87 159.299a.87.87 0 11-1.736-.137.87.87 0 011.736.137z" fill="#233863"/>
        <path d="M221.485 108.791a2.273 2.273 0 01-2.717 2.238 2.275 2.275 0 01.441-4.509 2.276 2.276 0 012.276 2.271z" fill="#2F4770"/>
        <path d="M219.214 111.879a3.088 3.088 0 11.01-6.175 3.088 3.088 0 01-.01 6.175zm0-4.542a1.456 1.456 0 00-1.021 2.484 1.459 1.459 0 001.584.313 1.454 1.454 0 00-.563-2.797zM90.775 208.788c15.112 0 27.364-12.251 27.364-27.364 0-15.113-12.252-27.364-27.364-27.364-15.113 0-27.364 12.251-27.364 27.364 0 15.113 12.251 27.364 27.364 27.364z" fill="#233863"/>
        <path d="M114.765 186.235c3.472-14.708-5.638-29.446-20.346-32.918-14.709-3.472-29.447 5.638-32.918 20.347-3.472 14.708 5.637 29.446 20.346 32.918 14.709 3.471 29.447-5.638 32.918-20.347z" fill="#233863"/>
        <path d="M114.765 186.235c3.472-14.708-5.638-29.446-20.346-32.918-14.709-3.472-29.447 5.638-32.918 20.347-3.472 14.708 5.637 29.446 20.346 32.918 14.709 3.471 29.447-5.638 32.918-20.347z" fill="#FFB44F"/>
        <path d="M88.139 208.135a28.178 28.178 0 01-26.036-17.397 28.179 28.179 0 0120.538-38.424 28.184 28.184 0 0133.679 27.64 28.21 28.21 0 01-28.181 28.181zm0-54.723a26.55 26.55 0 00-26.037 31.728 26.55 26.55 0 0020.861 20.857 26.546 26.546 0 0031.723-26.043 26.574 26.574 0 00-26.547-26.542z" fill="#233863"/>
        <path d="M88.139 202.537a22.587 22.587 0 01-20.864-13.941 22.582 22.582 0 1143.447-8.642 22.605 22.605 0 01-22.583 22.583zm0-44.071a21.493 21.493 0 108.23 41.349 21.492 21.492 0 0013.264-19.861 21.514 21.514 0 00-21.494-21.488z" fill="#fff"/>
        <path d="M87.888 200.092a20.149 20.149 0 11.002-40.298 20.149 20.149 0 01-.002 40.298zm0-39.208a19.054 19.054 0 00-17.608 11.765 19.06 19.06 0 1036.668 7.294 19.06 19.06 0 00-19.06-19.038v-.021z" fill="#fff"/>
        <path d="M95.436 183.107a6.834 6.834 0 01-1.938 4.754 6.465 6.465 0 01-2.941 1.797v1.302c0 .608-.234 1.193-.654 1.633a2.232 2.232 0 01-1.633.681 2.33 2.33 0 01-1.677-.681 2.358 2.358 0 01-.697-1.633v-1.051h-2.179a3.417 3.417 0 01-2.341-.823 2.815 2.815 0 01-.833-2.091c0-1.688 1.132-2.537 3.174-2.537h5.097c.249-.007.488-.095.681-.251a.938.938 0 00.387-.773.913.913 0 00-.512-.915 1.772 1.772 0 00-.354-.125l-.174-.028h-2.43a6.53 6.53 0 01-4.356-1.813 5.936 5.936 0 01-1.797-4.291 6.684 6.684 0 011.983-4.678 6.795 6.795 0 013.654-1.889v-.866a2.243 2.243 0 01.697-1.634 2.299 2.299 0 013.267 0 2.254 2.254 0 01.67 1.634v.773h.822c2.026 0 3.218.975 3.218 2.663 0 1.857-1.192 2.848-3.218 2.848h-4.76a.826.826 0 00-.638.229.839.839 0 00-.26.626c0 .512.283.931.73.931h2.341a6.956 6.956 0 014.705 1.748 5.877 5.877 0 011.966 4.46zM103.556 180.803a1.98 1.98 0 01-2.365 1.939 1.98 1.98 0 01-1.552-1.556 1.977 1.977 0 113.917-.383zM75.816 180.803a1.979 1.979 0 01-1.22 1.827 1.984 1.984 0 01-2.155-.429 1.976 1.976 0 012.155-3.225 1.965 1.965 0 011.22 1.827zM69.553 147.907a9.88 9.88 0 01-7.949 7.576 9.88 9.88 0 01-9.781-15.422 9.883 9.883 0 0113.77-2.4 9.876 9.876 0 013.96 10.246z" fill="#233863"/>
        <path d="M67.318 150.507c3.03-4.541 1.806-10.678-2.734-13.708-4.54-3.03-10.678-1.806-13.708 2.734-3.03 4.54-1.806 10.677 2.734 13.708 4.54 3.03 10.677 1.806 13.708-2.734z" fill="#233863"/>
        <path d="M67.318 150.507c3.03-4.541 1.806-10.678-2.734-13.708-4.54-3.03-10.678-1.806-13.708 2.734-3.03 4.54-1.806 10.677 2.734 13.708 4.54 3.03 10.677 1.806 13.708-2.734z" fill="#FFB44F"/>
        <path d="M59.103 155.449a10.437 10.437 0 01-7.552-3.23 10.431 10.431 0 011.96-16.003 10.433 10.433 0 0111.584.275 10.424 10.424 0 01.522 16.664 10.446 10.446 0 01-6.514 2.294zm0-19.767a9.374 9.374 0 00-9.357 8.854 9.37 9.37 0 008.323 9.832 9.371 9.371 0 101.012-18.686h.022z" fill="#233863"/>
        <path d="M59.109 153.189a8.092 8.092 0 11.004-16.185 8.092 8.092 0 01-.004 16.185zm-1.705-.599a7.757 7.757 0 009.45-7.38 7.752 7.752 0 00-4.615-7.278 7.756 7.756 0 00-10.705 5.4 7.71 7.71 0 005.87 9.258z" fill="#fff"/>
        <path d="M59.01 152.285a7.284 7.284 0 01-7.029-9.27 7.276 7.276 0 016.567-5.278 7.277 7.277 0 017.152 4.453 7.28 7.28 0 01.39 4.404 7.267 7.267 0 01-7.08 5.691zm0-14.158a6.882 6.882 0 00-.772 13.723 6.885 6.885 0 007.554-5.698 6.883 6.883 0 00-6.787-8.025h.006z" fill="#fff"/>
        <path d="M61.423 146.698a2.5 2.5 0 01-1.057 1.525c-.351.235-.76.372-1.181.397l-.104.458a.838.838 0 01-.658.665.863.863 0 01-.626-.137.844.844 0 01-.344-.877l.081-.37-.756-.169a1.225 1.225 0 01-.763-.474 1.003 1.003 0 01-.13-.8c.136-.599.599-.806 1.323-.648l1.791.403a.413.413 0 00.39-.131.333.333 0 00.068-.147.32.32 0 00-.11-.359.407.407 0 00-.114-.071h-.06l-.854-.191a2.368 2.368 0 01-1.4-.985 2.13 2.13 0 01-.294-1.634 2.396 2.396 0 011.09-1.492c.427-.274.93-.407 1.437-.381l.065-.305a.795.795 0 01.376-.545.833.833 0 01.637-.109.834.834 0 01.61.97l-.06.272.289.065c.713.164 1.056.599.925 1.193-.13.593-.648.909-1.361.751l-1.677-.376a.305.305 0 00-.333.115.297.297 0 00-.048.114.295.295 0 00.18.387l.827.185a2.5 2.5 0 011.52.986 2.145 2.145 0 01.32 1.715zM64.467 146.534a.716.716 0 01-.983.502.716.716 0 01-.3-1.062.714.714 0 01.995-.179.706.706 0 01.288.739zM54.692 144.345a.716.716 0 01-.982.502.716.716 0 01-.3-1.062.714.714 0 011.282.56zM51.27 181.44c5.73-4.603 6.645-12.98 2.042-18.711-4.603-5.731-12.98-6.645-18.71-2.043-5.732 4.603-6.646 12.98-2.043 18.711 4.602 5.731 12.98 6.645 18.71 2.043z" fill="#233863"/>
        <path d="M54.816 171.031c.171-7.348-5.646-13.445-12.995-13.617-7.348-.172-13.444 5.646-13.616 12.994-.172 7.349 5.646 13.445 12.994 13.617 7.348.172 13.445-5.646 13.617-12.994z" fill="#233863"/>
        <path d="M54.816 171.031c.171-7.348-5.646-13.445-12.995-13.617-7.348-.172-13.444 5.646-13.616 12.994-.172 7.349 5.646 13.445 12.994 13.617 7.348.172 13.445-5.646 13.617-12.994z" fill="#FFB44F"/>
        <path d="M41.508 184.85a14.16 14.16 0 01-14.166-13.141 14.157 14.157 0 1118.01 12.596c-1.25.359-2.543.543-3.844.545zm0-26.629a12.525 12.525 0 10.017 0h-.017z" fill="#233863"/>
        <path d="M41.508 181.648a10.925 10.925 0 01-2.995-21.434 10.915 10.915 0 0112.164 4.675 10.92 10.92 0 01-9.185 16.759h.017zm0-21.445c-.972-.001-1.94.135-2.875.403a10.513 10.513 0 00-5.538 16.726 10.521 10.521 0 007.141 3.902c1.39.143 2.795.008 4.131-.398a10.517 10.517 0 007.52-11.556 10.519 10.519 0 00-10.379-9.077z" fill="#fff"/>
        <path d="M41.383 180.493a9.735 9.735 0 01-8.114-15.041 9.738 9.738 0 015.468-4.051 9.734 9.734 0 0111.826 6.769 9.737 9.737 0 01-6.522 11.964c-.866.24-1.76.361-2.658.359zm0-19.06a9.256 9.256 0 00-5.3 16.844 9.26 9.26 0 0012.504-1.764 9.256 9.256 0 00-7.204-15.08z" fill="#fff"/>
        <path d="M45.342 171.203a3.332 3.332 0 01-.294 2.505 3.1 3.1 0 01-1.138 1.231l.169.61a1.087 1.087 0 01-.087.855 1.048 1.048 0 01-.665.544 1.12 1.12 0 01-.871-.098 1.137 1.137 0 01-.545-.675l-.13-.507-1.013.289a1.633 1.633 0 01-1.204-.076 1.345 1.345 0 01-.653-.866c-.229-.79.19-1.34 1.149-1.634l2.385-.675a.547.547 0 00.283-.207.457.457 0 00.082-.414.45.45 0 00-.36-.359h-.266l-1.139.327c-.77.2-1.588.105-2.292-.267a2.89 2.89 0 01-1.41-1.77 3.268 3.268 0 01.304-2.456 3.31 3.31 0 011.46-1.367l-.114-.408a1.134 1.134 0 011.974-1.011c.093.117.163.251.204.395l.098.365.386-.109c.948-.267 1.634.033 1.863.823.228.789-.18 1.492-1.133 1.758l-2.238.648a.415.415 0 00-.268.191.404.404 0 00-.037.327c.065.239.256.397.463.337l1.089-.31a3.404 3.404 0 012.44.196 2.887 2.887 0 011.508 1.808zM48.86 169.073a.96.96 0 01-1.392 1.094.964.964 0 01-.484-.947.962.962 0 011.063-.842.961.961 0 01.813.695zM35.758 173.483a.96.96 0 10-1.675-.936.96.96 0 001.675.936zM98.538 11.666l37.62 1.873a14.59 14.59 0 0113.846 15.296l-4.222 84.808a5.28 5.28 0 01-5.533 5.008l-56.673-2.821a4.82 4.82 0 01-4.574-5.053l4.245-85.265a14.589 14.589 0 0115.29-13.846z" fill="#233863"/>
        <path d="M136.594 118.659L79.9 115.838a4.824 4.824 0 01-4.575-5.059l4.248-85.262A14.595 14.595 0 0194.89 11.675l37.618 1.878a14.576 14.576 0 0113.827 15.292l-4.226 84.809a5.28 5.28 0 01-5.516 5.005z" fill="#fff"/>
        <path d="M136.861 119.47h-.305L79.9 116.649a5.643 5.643 0 01-3.905-1.834 5.637 5.637 0 01-1.465-4.058l4.248-85.261A15.405 15.405 0 0194.93 10.858l37.623 1.879a15.415 15.415 0 0114.616 16.151l-4.226 84.804a6.105 6.105 0 01-6.082 5.778zm-.224-1.634a4.444 4.444 0 004.252-2.543 4.45 4.45 0 00.421-1.688l4.231-84.81a13.795 13.795 0 00-13.069-14.425l-37.619-1.878A13.777 13.777 0 0080.412 25.56l-4.253 85.261a4.012 4.012 0 002.293 3.821c.477.224.993.353 1.519.378l56.666 2.815z" fill="#233863"/>
        <path d="M131.834 13.537l-53.622-2.69c-6.17-.31-11.436 4.661-11.752 11.098l-.223 4.405 54.227 2.723.223-4.427c.311-6.224 5.239-11.076 11.147-11.11z" fill="#fff"/>
        <path d="M120.464 29.89h-.038l-54.227-2.723a.822.822 0 01-.78-.817l.224-4.432a12.662 12.662 0 013.937-8.637 11.693 11.693 0 018.686-3.267l53.617 2.673a.813.813 0 01.779.86.839.839 0 01-.822.823c-5.511.033-10.053 4.569-10.347 10.347l-.218 4.427a.828.828 0 01-.267.545.82.82 0 01-.544.201zm-53.367-4.291l52.594 2.62.179-3.611a12.585 12.585 0 016.595-10.543l-48.291-2.418a10.118 10.118 0 00-7.472 2.81 11.038 11.038 0 00-3.425 7.537l-.18 3.605z" fill="#233863"/>
        <path opacity=".11" d="M131.834 13.537l-53.622-2.69c-6.17-.31-11.436 4.661-11.752 11.098l-.223 4.405 54.227 2.723.223-4.427c.311-6.224 5.239-11.076 11.147-11.11z" fill="#233863"/>
        <path d="M105.57 37.062h-.038L91.88 36.38a.808.808 0 01-.773-.855.822.822 0 01.855-.779l13.668.686a.816.816 0 01.54 1.41.816.816 0 01-.584.224l-.016-.005zM136.567 39.006h-.033l-13.679-.675a.819.819 0 01.081-1.634l13.669.681a.81.81 0 01.729.539.815.815 0 01-.767 1.09zM118.248 53.682h-.038l-27.147-1.193a.813.813 0 01-.778-.85.8.8 0 01.85-.784l27.145 1.182a.817.817 0 11-.032 1.634v.01zM101.682 62.008h-.043l-11.322-.632a.818.818 0 11.093-1.633l11.321.631a.819.819 0 01.536 1.412.817.817 0 01-.585.222zM110.994 45.41h-.054l-19.49-.97a.818.818 0 11.082-1.633l19.5.97a.8.8 0 01.567.264.815.815 0 01.206.59.813.813 0 01-.811.78zM118.247 45.78h-.043l-2.527-.125a.812.812 0 01-.773-.86.794.794 0 01.855-.773l2.527.125a.819.819 0 01.545 1.408.819.819 0 01-.584.225z" fill="#233863"/>
        <path d="M136.888 58.812a5.736 5.736 0 01-1.781 3.893 5.446 5.446 0 01-2.521 1.394l-.044 1.09c-.017.509-.232.991-.599 1.345a1.838 1.838 0 01-1.367.506 1.909 1.909 0 01-1.372-.626 1.95 1.95 0 01-.544-1.389l.038-.882-1.797-.076a2.821 2.821 0 01-1.917-.768 2.31 2.31 0 01-.499-.82 2.311 2.311 0 01-.127-.95c.059-1.405 1.034-2.075 2.722-2.004l4.248.18a.967.967 0 00.577-.18.787.787 0 00.349-.632.778.778 0 00-.392-.784 1.376 1.376 0 00-.295-.114l-.141-.033-1.971-.092a5.446 5.446 0 01-3.589-1.667 4.938 4.938 0 01-1.345-3.638 5.554 5.554 0 011.819-3.811c.861-.8 1.95-1.31 3.115-1.46l.027-.724a1.892 1.892 0 01.642-1.345 1.867 1.867 0 011.405-.507 1.91 1.91 0 011.814 2.015l-.027.648h.686c1.688.071 2.652.926 2.592 2.337-.071 1.546-1.089 2.33-2.788 2.26l-3.965-.17a.698.698 0 00-.778.681c0 .425.201.785.571.795l1.95.087a5.798 5.798 0 013.866 1.634 4.93 4.93 0 011.438 3.807z" fill="#233863" stroke="#fff" stroke-width="2" stroke-miterlimit="10"/>
        <path d="M67.277 21.983l11.604.474" stroke="#233863" stroke-width="3" stroke-miterlimit="10" stroke-linecap="round"/>
        <path d="M29.392 67.317l44.25 59.439 37.94-28.246-45.09-60.56-.386 6.735-6.23-1.48-.37 6.392-5.892-1.4-.36 6.16-5.783-1.373-.348 6.05-5.783-1.372-.316 5.479-6.339-1.509-.386 6.622-4.907-.937z" fill="#3AAED5"/>
        <path d="M73.643 127.573h-.12a.808.808 0 01-.545-.321l-44.24-59.444a.818.818 0 01.806-1.29l3.997.756.327-5.685a.829.829 0 01.327-.61.812.812 0 01.675-.142l5.391 1.28.262-4.503a.841.841 0 01.326-.61.817.817 0 01.681-.158l4.836 1.149.316-5.054a.79.79 0 01.326-.61.804.804 0 01.675-.141l4.836 1.149.278-5.206a.845.845 0 01.327-.61.827.827 0 01.675-.136l4.95 1.17.31-5.412a.818.818 0 01.333-.61.805.805 0 01.675-.142l5.277 1.258.337-5.761a.816.816 0 011.47-.441l45.084 60.56a.815.815 0 01-.168 1.144l-37.94 28.257a.793.793 0 01-.484.163zm-42.34-59.057l42.508 57.097 36.627-27.266-43.26-58.105-.26 4.487a.79.79 0 01-.327.61.807.807 0 01-.676.142l-5.277-1.258-.315 5.418a.815.815 0 01-1.008.752l-4.944-1.171-.3 5.19a.845.845 0 01-.327.61.812.812 0 01-.675.136l-4.836-1.15-.294 5.081a.821.821 0 01-1.007.747l-4.836-1.15-.261 4.504a.8.8 0 01-.327.61.83.83 0 01-.675.141l-5.391-1.28-.327 5.62a.812.812 0 01-.958.774l-2.854-.54z" fill="#233863"/>
        <path d="M42.935 75.747a.816.816 0 01-.49-1.476l11.664-8.68a.817.817 0 11.975 1.307l-11.67 8.686a.812.812 0 01-.479.163z" fill="#fff"/>
        <path d="M46.388 80.381a.827.827 0 01-.66-.326.822.822 0 01.17-1.144l21.444-15.96a.816.816 0 11.975 1.306L46.872 80.223a.806.806 0 01-.484.158z" fill="#233863"/>
        <path d="M70.147 62.694a.8.8 0 01-.654-.332.811.811 0 01.17-1.16l2.87-2.135a.817.817 0 11.974 1.307l-2.865 2.157a.828.828 0 01-.495.163z" fill="#fff"/>
        <path d="M51.354 87.058a.817.817 0 01-.485-1.47l7.875-5.87a.817.817 0 11.98 1.306l-7.88 5.87a.828.828 0 01-.49.164zM62.637 78.66a.817.817 0 01-.49-1.475l15.351-11.436a.82.82 0 011.284.455.819.819 0 01-.304.858L63.122 78.497a.812.812 0 01-.485.164z" fill="#233863"/>
        <path d="M58.662 96.86a.817.817 0 01-.49-1.47l17.295-12.874a.817.817 0 01.975 1.307l-17.3 12.873a.828.828 0 01-.48.163z" fill="#fff"/>
        <path d="M84.294 92.345a.816.816 0 01-.49-1.47l7.978-5.936a.816.816 0 11.975 1.307L84.8 92.187a.795.795 0 01-.507.158z" fill="#233863"/>
        <path d="M89.146 56.209l-5.51 44.201 33.648 4.193 5.614-45.034-3.469 2.695-2.559-3.29-3.295 2.56-2.423-3.114-3.17 2.472-2.379-3.055-3.115 2.423-2.38-3.055-2.82 2.195-2.604-3.35-3.409 2.653-2.085-2.68" fill="#FFB44F"/>
        <path d="M117.284 105.42h-.104l-33.648-4.199a.817.817 0 01-.708-.909l5.51-44.202a.72.72 0 01.044-.18.788.788 0 01.31-.544.81.81 0 011.144.142l1.585 2.03 2.766-2.145a.81.81 0 011.144.142l2.107 2.723 2.179-1.688a.816.816 0 011.149.141l1.873 2.407 2.472-1.917a.813.813 0 011.144.142l1.879 2.407 2.526-1.966a.824.824 0 011.149.141l1.923 2.473 2.657-2.086a.817.817 0 011.144.142l2.058 2.646 2.826-2.178a.806.806 0 01.904-.07.822.822 0 01.409.81l-5.62 45.036a.776.776 0 01-.097.303.777.777 0 01-.725.399zm-32.74-5.723l32.026 3.98 5.261-42.252-1.912 1.487a.815.815 0 01-1.143-.142l-2.048-2.657-2.646 2.058a.824.824 0 01-1.149-.141l-1.923-2.462-2.526 1.966a.82.82 0 01-1.15-.142l-1.873-2.412-2.472 1.922a.818.818 0 01-1.144-.141l-1.878-2.413-2.179 1.694a.795.795 0 01-.599.169.816.816 0 01-.544-.31l-2.108-2.723-2.76 2.178a.817.817 0 01-1.144-.142l-.893-1.143-5.195 41.626z" fill="#233863"/>
        <path d="M102.929 67.067h-.071l-10.347-1.29a.55.55 0 01-.077-1.074.55.55 0 01.214-.016l10.346 1.29a.546.546 0 11-.065 1.09z" fill="#fff"/>
        <path d="M111.174 71.598h-.071l-19.016-2.369a.548.548 0 11.136-1.089l19.016 2.374a.546.546 0 01.474.605.542.542 0 01-.539.479z" fill="#233863"/>
        <path d="M115.775 72.17h-.065l-2.549-.316a.55.55 0 01-.476-.613.548.548 0 01.613-.477l2.543.316a.546.546 0 01-.066 1.09z" fill="#fff"/>
        <path d="M98.524 75.061h-.071l-6.987-.871a.546.546 0 01-.476-.613.548.548 0 01.612-.476l6.987.871a.546.546 0 01-.065 1.09zM115.154 77.136h-.065l-13.614-1.699a.545.545 0 01-.264-.966.545.545 0 01.4-.112l13.614 1.699a.545.545 0 01.474.604.54.54 0 01-.545.474zM105.962 83.388h-.07l-15.335-1.912a.546.546 0 11.136-1.083l15.346 1.911a.546.546 0 01-.066 1.09l-.011-.006zM113.379 91.697h-.103l-7.08-.882a.824.824 0 01.207-1.634l7.08.883a.819.819 0 01-.098 1.633h-.006z" fill="#233863"/>
        <path d="M180.066 137.985l-87.853 21.189a5.162 5.162 0 01-3.901-.614 5.142 5.142 0 01-2.318-3.198L72.009 97.47a5.162 5.162 0 013.812-6.225l87.854-21.21a5.161 5.161 0 016.224 3.812l13.979 57.903c.161.659.189 1.344.084 2.015a5.143 5.143 0 01-2.063 3.376 5.166 5.166 0 01-1.833.844z" fill="#3D85FD"/>
        <path d="M90.992 160.137a5.986 5.986 0 01-5.794-4.568L71.214 97.688a5.99 5.99 0 014.406-7.21l87.853-21.206a5.991 5.991 0 017.21 4.4l13.979 57.909a5.99 5.99 0 01-4.406 7.204l-87.831 21.184c-.47.114-.95.17-1.433.168zm73.886-89.427c-.343 0-.685.04-1.018.12L76 92.04a4.357 4.357 0 00-3.18 5.234l13.98 57.908a4.358 4.358 0 005.238 3.202l87.854-21.211a4.354 4.354 0 003.196-5.238l-13.995-57.903a4.355 4.355 0 00-4.215-3.322z" fill="#233863"/>
        <path opacity=".36" d="M153.164 71.625l-25.817 6.295 5.99 24.614c.779 3.191-1.949 6.6-6.099 7.624-7.869 1.917-13.069 8.392-11.572 14.452.621 2.565-1.568 5.304-4.901 6.116-9.295 2.265-15.416 9.911-13.674 17.072l2.364 9.693 78.868-19.228a7.275 7.275 0 005.342-8.784l-13.069-53.628a8.22 8.22 0 00-9.933-6.04l-7.499 1.814z" fill="#233863"/>
        <path d="M104.899 123.085l-11.936 2.909a.556.556 0 00-.408.672l.61 2.497a.555.555 0 00.67.408l11.936-2.91a.555.555 0 00.408-.671l-.609-2.497a.555.555 0 00-.671-.408zM120.191 119.357l-11.936 2.91a.556.556 0 00-.408.671l.609 2.497a.555.555 0 00.671.408l11.936-2.909a.555.555 0 00.408-.671l-.609-2.498a.555.555 0 00-.671-.408zM135.157 115.71l-11.936 2.909a.556.556 0 00-.408.672l.608 2.497a.556.556 0 00.672.408l11.935-2.91a.555.555 0 00.408-.671l-.608-2.497a.555.555 0 00-.671-.408zM150.116 112.062l-11.936 2.91a.556.556 0 00-.408.671l.609 2.497a.555.555 0 00.671.408l11.936-2.909a.555.555 0 00.408-.671l-.609-2.498a.555.555 0 00-.671-.408z" fill="#233863"/>
        <path d="M104.808 133.209l-9.825 2.395a.555.555 0 00-.408.671l.3 1.233a.555.555 0 00.672.408l9.825-2.395a.555.555 0 00.408-.671l-.301-1.233a.555.555 0 00-.671-.408zM162.116 79.107l-10.011 1.618a.556.556 0 00-.461.638l.203 1.257c.049.303.335.51.638.46l10.012-1.617a.557.557 0 00.461-.64l-.203-1.255a.557.557 0 00-.639-.461zM124.953 87.42L85.5 97.037a.746.746 0 00-.548.902l.405 1.661c.098.4.501.646.902.548l39.452-9.617a.746.746 0 00.548-.902l-.405-1.661a.745.745 0 00-.901-.548zM118.728 129.755l-9.825 2.395a.556.556 0 00-.408.671l.301 1.233a.555.555 0 00.671.408l9.825-2.395a.555.555 0 00.408-.671l-.301-1.233a.555.555 0 00-.671-.408zM132.303 126.555l-9.825 2.395a.555.555 0 00-.408.671l.301 1.233a.555.555 0 00.671.408l9.824-2.395a.556.556 0 00.409-.671l-.301-1.233a.555.555 0 00-.671-.408z" fill="#fff"/>
        <path d="M106.219 140.388l-9.825 2.395a.555.555 0 00-.408.671l.3 1.232a.557.557 0 00.672.409l9.824-2.395a.557.557 0 00.409-.672l-.301-1.232a.555.555 0 00-.671-.408zM106.697 115.898l-14.365 3.468a1.483 1.483 0 01-1.786-1.089l-1.04-4.318-.959-3.97a1.474 1.474 0 011.09-1.786l14.365-3.469a1.481 1.481 0 011.786 1.089l1.999 8.294a1.485 1.485 0 01-.176 1.116 1.474 1.474 0 01-.914.665z" fill="#FFB44F"/>
        <path d="M88.613 115.053a.816.816 0 01-.196-1.606l18.106-4.564a.815.815 0 01.855.306.812.812 0 01.152.606.824.824 0 01-.321.537.812.812 0 01-.288.136l-18.107 4.564a.853.853 0 01-.201.021z" fill="#3D85FD"/>
        <path d="M100.735 111.629a2.761 2.761 0 01-1.448 2.696 2.757 2.757 0 01-3.933-1.635 2.755 2.755 0 115.381-1.061z" fill="#FFB44F"/>
        <path d="M97.985 115.473a3.576 3.576 0 01-3.403-3.661 3.578 3.578 0 113.751 3.661c-.114-.005-.234 0-.348 0zm0-5.522h-.186a1.885 1.885 0 10.186 0z" fill="#3D85FD"/>
        <path d="M161.682 128.493a5.335 5.335 0 01.599-4.264 5.347 5.347 0 102.178 7.581 5.32 5.32 0 01-2.777-3.317z" fill="#fff"/>
        <path d="M167.198 121.387a5.351 5.351 0 00-1.152 9.825 5.354 5.354 0 007.703-3.03 5.36 5.36 0 00.055-3.108 5.345 5.345 0 00-2.536-3.218 5.32 5.32 0 00-4.07-.469z" fill="#FFB44F"/>
        <path d="M170.841 26.764a.778.778 0 01.3-.326l8.865-5.245a.778.778 0 01.779 1.345l-8.855 5.228a.772.772 0 01-1.089-1.002zM164.796 25.343a.804.804 0 01.033-.316l4.269-13.706a.775.775 0 011.424-.127.77.77 0 01.052.59l-4.275 13.7a.765.765 0 01-.375.456.763.763 0 01-.588.051.774.774 0 01-.54-.648zM150.006 12.497a.776.776 0 01.377-.979.776.776 0 011.006.298l7.308 13.821a.777.777 0 01-.353.989.775.775 0 01-1.014-.275l-7.302-13.816a.197.197 0 01-.022-.038zM128.159 194.994a.68.68 0 01-.283.251l-8.103 3.73a.683.683 0 01-.545.063.67.67 0 010-1.277l8.103-3.725a.672.672 0 01.779.17.667.667 0 01.065.794l-.016-.006zM133.223 196.754a.58.58 0 01-.055.272l-4.901 11.436a.666.666 0 01-.372.353.668.668 0 01-.866-.385.67.67 0 01.013-.513l4.901-11.435a.672.672 0 011.122-.157.672.672 0 01.158.412v.017zM144.806 209.132a.665.665 0 11-1.247.468l-5.054-12.552a.674.674 0 01.153-.724.673.673 0 01.473-.19.673.673 0 01.61.418l5.054 12.525c.01.016.014.036.011.055z" fill="#233863"/>
        <path d="M43.414 115.391l-.364-9.372 16.14 15.008-14.915 16.228-.37-9.372s-13.93-2.799-22.725 13.402a22.904 22.904 0 017.357-21.156s4.59-4.646 14.877-4.738z" fill="#FFB44F"/>
        <path d="M21.153 142.102h-.11a.81.81 0 01-.685-.621c-.027-.125-2.816-12.574 7.623-21.956.159-.158 4.662-4.602 14.578-4.929l-.332-8.538a.817.817 0 011.373-.632l16.14 15.008A.819.819 0 0160 121a.81.81 0 01-.216.583l-14.916 16.228a.808.808 0 01-.883.221.817.817 0 01-.532-.738l-.344-8.713c-2.76-.316-13.772-.627-21.237 13.069a.817.817 0 01-.72.452zm22.762-34.138l.289 7.395a.806.806 0 01-.218.587.804.804 0 01-.572.257c-9.84.087-14.267 4.449-14.31 4.492a22.332 22.332 0 00-7.44 18.107c9.013-14.207 22.235-11.752 22.377-11.708a.817.817 0 01.653.768l.289 7.4 13.031-14.158-14.099-13.14z" fill="#233863"/>
        <path d="M208.415 147.498l-.261 9.377-15.084-16.059 15.966-15.187-.256 9.372s13.707 3.724 23.569-11.855a22.89 22.89 0 01-1.685 11.454 22.894 22.894 0 01-7.072 9.168s-4.901 4.324-15.16 3.73h-.017z" fill="#FFB44F"/>
        <path d="M208.171 157.692a.802.802 0 01-.594-.261l-15.101-16.054a.823.823 0 01-.222-.581.802.802 0 01.255-.568l15.967-15.193a.812.812 0 01.894-.152.813.813 0 01.483.767l-.239 8.713c2.723.501 13.701 1.547 22.049-11.637a.813.813 0 011.278-.132c.114.12.189.273.214.437 0 .125 1.971 12.732-9.056 21.396-.169.152-4.956 4.28-14.877 3.942l-.235 8.545a.817.817 0 01-.544.74.864.864 0 01-.272.038zm-13.952-16.843l13.189 14.017.207-7.401a.824.824 0 01.262-.577.839.839 0 01.599-.212c9.769.544 14.534-3.485 14.577-3.529a22.22 22.22 0 008.626-17.562c-9.943 13.576-22.98 10.238-23.116 10.2a.81.81 0 01-.599-.812l.201-7.395-13.946 13.271z" fill="#233863"/>
    </g>
    <defs>
        <filter id="filter0_d" x="0" y="0" width="268.502" height="242.868" filterUnits="userSpaceOnUse" color-interpolation-filters="sRGB">
            <feFlood flood-opacity="0" result="BackgroundImageFix"/>
            <feColorMatrix in="SourceAlpha" values="0 0 0 0 0 0 0 0 0 0 0 0 0 0 0 0 0 0 127 0"/>
            <feOffset dy="10"/>
            <feGaussianBlur stdDeviation="10"/>
            <feColorMatrix values="0 0 0 0 0 0 0 0 0 0 0 0 0 0 0 0 0 0 0.25 0"/>
            <feBlend in2="BackgroundImageFix" result="effect1_dropShadow"/>
            <feBlend in="SourceGraphic" in2="effect1_dropShadow" result="shape"/>
        </filter>
    </defs>
</svg>
