<svg viewBox="0 0 221 260" fill="none" xmlns="http://www.w3.org/2000/svg">
    <g filter="url(#filter0_d)">
        <path opacity=".5" fill-rule="evenodd" clip-rule="evenodd" d="M174.011 219.745l-69.685-39.796c-2.587-1.181-6.387-2.296-8.923-.757l-6.49 3.954c-1.306.796-5.6 3.436-2.728 4.998 8.453 4.594 62.431 36.134 71.01 40.801 1.623.883 3.996 1.201 6.488.994 2.492-.206 5.055-.883 7.026-2.091l2.593-1.6c1.832-1.136 2.847-2.365 2.945-3.549.095-1.156-.648-2.228-2.236-2.954z" fill="#6D6AFD"/>
        <path fill-rule="evenodd" clip-rule="evenodd" d="M172.159 215.214c-.009 3.391-1.219 5.78-3.154 6.903l-3.069 1.846c-10.525-4.492-6.619-57.835-7.261-73l3.233-79.584c-2.718-4.75-13.172-8.893-10.732-18.59l-30.845-14.443c-1.37-.93-37.373-21.785-30.908-25.69 1.081-.654 2.145-1.312 3.217-1.933 2.386-1.41 5.425-.539 7.661.75l61.386 35.21c6.026 3.471 10.751 11.873 10.733 18.589l-.261 149.942z" fill="#303A7D"/>
        <path fill-rule="evenodd" clip-rule="evenodd" d="M86.285 19.556c.009-3.326 1.16-5.687 3.028-6.838 1.972-1.211 4.724-1.078 7.776.681l61.386 35.209c5.941 3.43 10.75 11.763 10.732 18.59l-.253 149.942c-.019 6.826-4.861 9.588-10.802 6.155l-61.391-35.208c-5.948-3.435-10.752-11.763-10.732-18.59l.256-149.94z" fill="#3E4992"/>
        <path fill-rule="evenodd" clip-rule="evenodd" d="M89.575 26.002c.018-6.284 4.468-8.832 9.942-5.666l56.501 32.408c5.468 3.154 9.895 10.825 9.878 17.11l-.235 140.84c-.018 6.283-4.475 8.823-9.943 5.666l-56.501-32.408c-5.474-3.154-9.897-10.826-9.88-17.109l.238-140.84z" fill="url(#paint0_linear)"/>
        <path opacity=".5" fill-rule="evenodd" clip-rule="evenodd" d="M22.947 197.287l29.119-16.581c3.173-1.45 7.716-2.604 10.951-.921 2.946 1.533 7.801 4.668 9.947 5.896 1.63.93 7.29 4.32 3.765 6.238-10.37 5.637-20.631 11.986-31.164 17.706-1.99 1.084-4.904 1.475-7.962 1.221-3.058-.253-6.167-1.135-8.624-2.568a4864.15 4864.15 0 01-5.164-3.006c-2.283-1.329-3.495-2.901-3.614-4.356-.115-1.422.798-2.739 2.746-3.629z" fill="#6D6AFD"/>
        <path fill-rule="evenodd" clip-rule="evenodd" d="M64.981 101.206c-2.186-1.262-9.952-12.423-14.071-18.559-2.338-3.48-1.835-6.746 1.759-7.994 7.11-2.467 9.158 6.435 11.425 10.674 2.534 4.743 5.326 8.507 5.937 12.16.449 2.683-2.774 5.028-5.05 3.719z" fill="#7662E3"/>
        <path fill-rule="evenodd" clip-rule="evenodd" d="M36.207 187.108c-.175.58-.1 1.064-.406 1.825a21.62 21.62 0 00-1.02 2.931c-.538 2.041.046 4.776-.683 7.664-.366 1.156-.367 2.081.378 3.102.724.999 2.095 2.602 3.942 2.542a2.857 2.857 0 001.973-.945 4.77 4.77 0 001.262-3.424c-.024-.55-.294-2.324-.195-3.941.087-1.414.369-2.192.379-3.744.01-1.64-.052-3.896-.048-4.955l-5.582-1.055zM52.745 178.707c-.575 1.452-.944 2.073-1.025 4.101.297 1.071 1.04 1.506 1.86 2.245l.587.127c1.447.794 1.907 3.58 3.234 4.85.936.895 2.835 1.387 4.725 1.749 2.019.392 3.964-.188 3.481-1.785-1.202-3.967-6.752-8.445-6.758-12.878l-6.103 1.591z" fill="#16193B"/>
        <path fill-rule="evenodd" clip-rule="evenodd" d="M62.055 150.434c-.358 7.599-2.412 21.827-2.369 29.309-1.996 1.947-5.867 1.344-7.074-.647-.596-6.89-1.24-16.679-1.225-20.461.012-3.146.378-6.041 1.261-8.866-.898-8.315-5.382-19.657-4.02-27.479.599-3.436 2.953-7.135 3.688-9.967 5.469 6.978 9.878 3.633 12.239 3.028-.08 2.411.11 2.089-.04 4.623a1240.13 1240.13 0 01-1.877 26.608c-.021 1.32-.181 2.781-.583 3.852z" fill="url(#paint1_linear)"/>
        <path fill-rule="evenodd" clip-rule="evenodd" d="M51.678 165.843c-.182-2.991-.298-5.597-.291-7.208.012-3.146.378-6.041 1.261-8.866-.898-8.315-5.382-19.657-4.02-27.479.599-3.436 2.953-7.135 3.688-9.967 5.469 6.978 9.878 3.633 12.239 3.028-.009.269-.015.504-.018.711l-7.57 5.479 1.84-.413c-.345 9.874-1.819 18.876-2.27 28.612-2.07 5.523-3.33 10.239-4.812 15.929l-.047.174z" fill="#1E2353" opacity=".3"/>
        <path fill-rule="evenodd" clip-rule="evenodd" d="M49.286 155.963c-1.577 7.599-6.076 26.038-7.235 33.527-2.489 1.362-5.601.651-6.411-1.342.164-6.89.54-19.283 1.16-23.063.518-3.147 1.767-8.002 3.104-10.828 0-17.754-1.856-22.486.757-30.309 1.15-3.436 4-6.75 5.19-9.589 1.454 2.334 3.706 5.647 8.743 5.237.492-.039 4.765-3.028 6.158-3.376-2.049 10.563-7.487 24.359-10.267 35.88-.231 1.332-.625 2.79-1.199 3.863z" fill="url(#paint2_linear)"/>
        <path fill-rule="evenodd" clip-rule="evenodd" d="M55.705 75.365c.544.032 1.076.17 1.566.409 3.785 1.766 5.198 7.64 6.147 12.819.824 4.492.563 8.21.707 12.364.116 3.313.757 6.343.823 9.48.022.93.226 1.882-.046 2.948-.095.705-.198 1.817-.152 2.36-3.005 6.599-19.08 7.57-21.87 3.642.248-.571.406-1.176.466-1.796-1.435-1.32-.51-5.016-.946-7.516-.325-1.878-.73-3.785-1.388-5.128-2.75-5.616-6.335-9.841-7.295-14.23-.661-3.028 2.98-7.102 7.916-10.542 4.751-3.306 11.363-5.399 14.072-4.81z" fill="url(#paint3_linear)"/>
        <path fill-rule="evenodd" clip-rule="evenodd" d="M63.365 91.698a41.914 41.914 0 01-3.874 3.718l2.523 3.296 1.349-7.014h.002zm-19.69 14.304a.486.486 0 01.452.623.412.412 0 01-.388.284.486.486 0 01-.47-.454.412.412 0 01.24-.418.414.414 0 01.166-.035zm2.442-2.854a.487.487 0 01.452.624.41.41 0 01-.389.283.487.487 0 01-.452-.623.412.412 0 01.389-.284zm3.21 1.766a.489.489 0 01.452.624.417.417 0 01-.223.247.398.398 0 01-.166.036.486.486 0 01-.47-.455.407.407 0 01.407-.452zm2.361-3.625a.487.487 0 01.452.624.407.407 0 01-.389.283.487.487 0 01-.451-.624.4.4 0 01.222-.247.399.399 0 01.166-.036zm3.351 1.066a.491.491 0 01.453.624.41.41 0 01-.39.284.491.491 0 01-.451-.624.41.41 0 01.388-.284zm1.676-3.944a.487.487 0 01.452.624.411.411 0 01-.388.284.488.488 0 01-.452-.625.41.41 0 01.388-.283zm3.343.578a.487.487 0 01.453.624.41.41 0 01-.39.283.487.487 0 01-.451-.623.412.412 0 01.389-.284zm1.456-4.255a.487.487 0 01.453.623.409.409 0 01-.39.284.486.486 0 01-.451-.624.409.409 0 01.388-.283zm2.524.959a.497.497 0 01-.101-.265.436.436 0 01.088-.3l.013.564zm-23.467 7.93a.491.491 0 01.469.455.417.417 0 01-.252.425c-.14-.278-.282-.552-.424-.823a.4.4 0 01.21-.057h-.003zm18.2-7.618a37.76 37.76 0 01-4.388 3.07l3.417 3.209.972-6.277v-.002zm-5.145 3.505a28.825 28.825 0 01-4.346 1.994l3.186 3.695 1.16-5.689zm-5.357 2.331a21.74 21.74 0 01-4.692.919l2.935 4.25 1.757-5.173v.004zm-5.289.959a19.026 19.026 0 01-3.139-.095c-.174-.315-.349-.625-.525-.931 3.29.481 6.435.011 9.305-.967l.017-.049.029.034c8.669-2.975 14.813-10.583 14.837-10.612l.136-.212c.094.661.166 1.309.221 1.944L62.6 98.474a36.648 36.648 0 001.46-1.514l.012 1.293c-3.328 3.455-11.836 11.028-21.945 10.364-.059-.295-.126-.588-.19-.874 1.451.107 2.91.047 4.348-.18l-2.936-4.248-1.546 3.886a16.673 16.673 0 00-.24-.84l1.417-3.56zm3.944 4.653a23.74 23.74 0 005.347-1.714l-3.416-3.964-1.93 5.678zm6.036-2.034a32.887 32.887 0 004.566-2.708l-3.367-3.162-1.199 5.87zm5.395-3.316L59.3 96l2.487 3.24a41.298 41.298 0 01-3.432 2.863z" fill="#9789E9"/>
        <path style="mix-blend-mode:multiply" opacity=".25" fill-rule="evenodd" clip-rule="evenodd" d="M46.21 121.217c-1.543-.378-2.74-.998-3.332-1.833.25-.57.407-1.176.467-1.795-1.434-1.317-.509-5.014-.945-7.514-.325-1.878-.73-3.785-1.388-5.128-2.75-5.616-6.335-9.841-7.295-14.23-.35-1.6.504-3.494 2.117-5.434 1.663-.27 3.249-.059 4.28.813 2.747 2.324 3.392 7.763 4.24 11.459 1.284 5.6 5.064 3.65 7.822 2.187-1.203 1.376-3.016 2.163-4.833 2.615-.64.16-1.158 1.414-1.064 2.701.285 3.845.69 8.737.69 12.651 5.244 1.9 11.373.36 14.284-.894-4.513 2.815-9.734 3.064-14.36 2.419-.59.532-.706 1.225-.683 1.983z" fill="url(#paint4_linear)"/>
        <path fill-rule="evenodd" clip-rule="evenodd" d="M36.087 118.194c.834.304 2.271.476 2.888.696.316.112 2.588.974 3.879 1.514 1.379.577 1.954 1.69 2.94 2.86.733.967 1.107 1.697 1.289 2.218.182.521-1.01 1.877-1.633 1.863-1.415-.032-3.129-1.425-3.524-1.54-3.348-.978-4.833-.847-6.182-1.884-.574-.443-1.17-1.952-2.413-3.168l1.53-2.054 1.226-.505z" fill="url(#paint5_linear)"/>
        <path fill-rule="evenodd" clip-rule="evenodd" d="M33.265 86.744c-4.163 4.07-8.371 11.213-12.466 16.478-1.47 1.893-.674 3.454.488 5.162 2.345 3.447 5.062 7.231 10.068 11.494.378.318.794.342 1.353.496.314.26.757.729 1.09 1.001-.417-.536 1.828-3.226 2.958-3.046-.291-.361-.367-.505-.668-.919-.04-.516-.048-.849-.243-1.288-1.184-2.685-4.25-7.139-6.84-9.975 3.345-2.703 6.365-5.795 8.988-8.826.685-.79 1.054-1.174 1.728-1.995 2.86-3.483 2.034-8.392-.504-10.065-1.482-.984-3.402-1.01-5.952 1.483z" fill="url(#paint6_linear)"/>
        <path fill-rule="evenodd" clip-rule="evenodd" d="M51.565 77.771c-.015-.281-.017-.566-.03-.869-.036-.864-.641-2.412-.882-4.354l-7.886-1.273c.862 4.037.408 5.03.468 8.48.866 3.197 9.203 2.684 8.453-1.135a6.25 6.25 0 01-.123-.849z" fill="#FFA698"/>
        <path fill-rule="evenodd" clip-rule="evenodd" d="M51.565 77.771c-.015-.281-.017-.566-.03-.869-.036-.864-.641-2.412-.882-4.354l-7.886-1.273c.197.918.324 1.682.408 2.354.395 2.72 4.074 6.726 8.507 4.993a6.23 6.23 0 01-.117-.85z" fill="url(#paint7_linear)"/>
        <path fill-rule="evenodd" clip-rule="evenodd" d="M52.271 76.463c-1.066-.182-3.929-.555-4.908-.772-2.145-.474-2.614-2.075-4.13-4.241-1.99-.414-2.877-1.047-3.441-1.958-1.338-2.16-1.12-5.22.039-7.353 1.01-1.864 2.636-2.977 4.816-3.418 4.235-.86 7.116 1.361 8.795 4.611.139.276.224.576.252.884.087.763.08.883.19 1.398.234 1.08 1.063 1.144 1.338 2.493.379 1.835.43 5.716.101 6.512-.248.61-2.141 1.606-3.052 1.844z" fill="#FFA698"/>
        <path fill-rule="evenodd" clip-rule="evenodd" d="M52.613 61.959c.307.439.584.898.829 1.374.139.276.224.575.252.883.087.763.08.883.19 1.398.234 1.081 1.063 1.144 1.338 2.493.183.892.29 2.271.313 3.54-1.651 2.988-4.845 1.64-5.367 1.355-2.445-1.32-3.891-4.274-3.952-7.601 2.066-.194 4.947-1.609 6.397-3.442z" fill="url(#paint8_linear)"/>
        <path fill-rule="evenodd" clip-rule="evenodd" d="M38.23 68.882c.667 1.231 3.114 4.07 4.408 4.952 1.221.834.48-.252.364-1.24a1.164 1.164 0 01-.708-.542c-.607-1.021-1.194-2.84.554-2.823.9.01 1.602.883 1.939 1.721.16.127.352.208.555.235.295.024.857-.01.573-.704-.98-2.397.07-3.059-.912-4.323-.735-.947-.872-1.433-.783-1.931.822-.234 1.67.338 2.748.33.751-.006 3.66-.939 5.16-2.89 1.449-1.885.601-4.289-1.662-5.077-1.262-.438-2.355-.207-4.17-.527-3.46-.609-6.522 1.503-7.452 4.279-3.2 2.262-2.104 5.787-.614 8.54z" fill="#562E65"/>
        <path fill-rule="evenodd" clip-rule="evenodd" d="M44.711 62.637c.297 1.052 2.083 1.654 3.911.961 1.7-.642 3.778-2.027 3.72-4.415-.022-.838-.929-1.945-1.972-2.105-.712-.11-1.402.252-1.986.883-.99 1.08-1.408 2.902-2.137 3.629-.687.699-1.566.936-1.536 1.047z" fill="url(#paint9_linear)"/>
        <path fill-rule="evenodd" clip-rule="evenodd" d="M42.848 69.229c-1.748-.018-1.16 1.801-.554 2.822.416.7 1.022.44 1.445.961.504.624 1.165.773 1.634.603.947-.34-.113-1.566-.413-2.094-.193-.96-1.002-2.281-2.112-2.292z" fill="#FFA698"/>
        <path fill-rule="evenodd" clip-rule="evenodd" d="M60.32 83.847c-.498-.817-1.819-2.145-2.955-3.177-1.449-1.319-2.135-2.732-2.457-5.003-.068-.482.42-1.261.996-1.388.32-.062.644-.1.97-.117.347-.59.44-.683.949-1.167.398-.379.672-.433 1.21-.26.823.264 1.536.553 1.872.828.336.275.956 1.148 1.495 2.003.467.74 1.094 2.145.955 2.736-.304 1.288-.668 1.59-.414 2.368l.69 2.093-3.31 1.084z" fill="#FFB79D"/>
        <path fill-rule="evenodd" clip-rule="evenodd" d="M56.106 74.186c.278-.667.23-.72.693-1.3.361-.454.641-.55 1.229-.447.898.157 1.686.355 2.077.596.39.241 1.167 1.063 1.854 1.88.595.706.749 1.04 1.2 2.1l-.767.172-1.735-.378c-2.705.016-4.118-2.48-4.55-2.623z" fill="#FFB79D"/>
        <path fill-rule="evenodd" clip-rule="evenodd" d="M61.13 77.343c-.504.029-.348.133-.81-.066-.007.442-.313.897-.504.843a.788.788 0 01-.505-.583 1.438 1.438 0 01.587-1.425c.2-.126.927-.145 1.909-.157.511 0 .735-.043.941.188.174.227.304.483.385.757.233.687.323 1.275.112 1.661-.622-.458-1.231-1.594-2.114-1.218z" fill="#FF9989"/>
        <path fill-rule="evenodd" clip-rule="evenodd" d="M55.976 74.244c.276-.668.362-.779.824-1.358.1-.136.224-.255.364-.352l2.64 3.614c-.228.301-.913 1.631.045 1.978-.85-.305-2.554-1.6-3.873-3.882z" fill="#FF9989"/>
        <path fill-rule="evenodd" clip-rule="evenodd" d="M55.335 77.326c-.413-.732-.351-1.3-.547-2.003-.138-.496.047-1.123.654-1.256a7.222 7.222 0 011.026-.126l.666.116c.477 1.048-.224 1.766-.836 1.818-.12.119.437 2.348.682 3.17.073.25-1.11-.548-1.645-1.719z" fill="#FFB79D"/>
        <path fill-rule="evenodd" clip-rule="evenodd" d="M57.136 74.03c.01.7-.63 1.547-1.867 1.513.54.391 1.104.379 1.523.17.627-.321.932-1.098.344-1.684z" fill="#FF9989"/>
        <path fill-rule="evenodd" clip-rule="evenodd" d="M58.932 82.184c.518.699 3.934-.493 4.185-1.165l.624 1.238c.379.29 1.042.877 1.254 1.201 3.067 4.68 4.173 9.076 5.518 14.541.868 3.533-2.693 5.509-4.973 4.383-4.392-2.171-5.732-13.428-6.272-17.377-.037-.272.26-1.048.19-1.312-.155-.389-.418-1.272-.526-1.509z" fill="url(#paint10_linear)"/>
        <path style="mix-blend-mode:multiply" opacity=".25" fill-rule="evenodd" clip-rule="evenodd" d="M58.932 82.184c.126.165.407.224.773.21.126.698.225 1.09.492 1.321 1.663-.378 2.052-.63 3.544-1.458-.696 1.053-2.045 2.03-2.912 2.354.215 2.467 3.084 16.051 7.62 17.766-.94.411-2.02.443-2.909 0-4.392-2.166-5.732-13.423-6.272-17.372-.037-.273.26-1.049.19-1.312-.155-.389-.418-1.272-.526-1.51z" fill="url(#paint11_linear)"/>
        <path fill-rule="evenodd" clip-rule="evenodd" d="M90.899 25.014c.01-3.188 2.271-4.479 5.047-2.875a67893.597 67893.597 0 0062.772 35.958c2.776 1.602 5.02 5.493 5.012 8.681l-.127 3.068c-.008 3.187-2.271 4.476-5.046 2.874a70103.04 70103.04 0 00-62.773-35.958c-2.776-1.605-5.021-5.494-5.013-8.682l.128-3.066z" fill="#833DF4"/>
        <path fill-rule="evenodd" clip-rule="evenodd" d="M143.926 56.5a2.85 2.85 0 01.338-1.408 1.789 1.789 0 011.59-.913c.501.016.989.163 1.416.425l4.808 2.742c.781.452 1.486 1.209 2 2.074.465.765.758 1.621.858 2.51l.126.073c.354.22.646.525.849.89.213.355.33.76.341 1.174l-.023.608a1.32 1.32 0 01-.16.642.949.949 0 01-.828.48 1.325 1.325 0 01-.655-.191l-.135-.077c-.232.34-.576.585-.973.694a2.268 2.268 0 01-1.45-.126 3.52 3.52 0 01-.48-.234l-4.812-2.742c-.802-.465-1.525-1.252-2.043-2.145-.517-.894-.836-1.913-.834-2.837l.065-1.64h.002zm1.116-.957a1.93 1.93 0 00-.22.971l-.063 1.64c0 .757.274 1.612.713 2.374.439.762 1.05 1.433 1.716 1.818l4.807 2.742c.116.067.237.126.362.175.276.125.586.158.883.093a.897.897 0 00.534-.43c.032-.058.06-.118.084-.18l.191-.482c.204.117.854.449.981.561a.46.46 0 00.211.073.07.07 0 00.032-.006s.012-.01.018-.02a.436.436 0 00.042-.213l.023-.606a1.537 1.537 0 00-.222-.715 1.558 1.558 0 00-.521-.558l-.552-.314-.008-.253c-.024-.757-.308-1.59-.757-2.337-.45-.747-1.031-1.38-1.677-1.754l-4.809-2.742a1.971 1.971 0 00-.965-.305.944.944 0 00-.474.116.93.93 0 00-.329.356v-.004z" fill="#fff"/>
        <path opacity=".5" fill-rule="evenodd" clip-rule="evenodd" d="M103.5 56.282l-.017 5.396c-4.023-2.323-7.301-.458-7.318 4.176-.016 4.634 3.243 10.265 7.268 12.588 4.025 2.323 7.318.464 7.324-4.164 0-.208-.008-.424-.02-.642l4.688 2.299c.018.348.027.705.025 1.052-.021 7.61-5.411 10.67-12.032 6.847-6.622-3.823-11.969-13.082-11.947-20.691.021-7.61 5.406-10.686 12.029-6.861z" fill="#fff"/>
        <path fill-rule="evenodd" clip-rule="evenodd" d="M106.734 71.594c.303.522.466 1.114.473 1.717 0 .597-.184.992-.53 1.204-.345.212-.793.16-1.289-.126a3.535 3.535 0 01-1.177-1.136 4.02 4.02 0 01-.631-1.582l1.065.616c.075.22.184.43.321.618.122.16.274.293.447.395.222.126.406.141.568.05.161-.09.236-.286.236-.564a1.632 1.632 0 00-.223-.829 1.421 1.421 0 00-.524-.572.676.676 0 00-.326-.092.715.715 0 00-.315.107l-.821-.681.651-3.028 2.481 1.433v1.072l-1.724-.988-.229.987a1.27 1.27 0 01.347.146c.507.302.922.735 1.203 1.253h-.003zm-4.862-3.148c.126-.09.19-.238.191-.472a1.34 1.34 0 00-.202-.713 1.254 1.254 0 00-.463-.51.465.465 0 00-.48-.045c-.142.081-.203.246-.205.479.001.247.067.49.192.704.119.215.293.395.505.52.18.104.346.118.468.037h-.006zm-.482-2.787c.505.305.918.74 1.194 1.262.316.568.475 1.1.474 1.588-.003.18-.027.359-.074.533-.095.234-.212.46-.347.675l-1.376 2.287-.861-1.002.939-1.535a3.199 3.199 0 01-1.154-1.215 3.3 3.3 0 01-.463-1.653c0-.536.164-.883.49-1.074.327-.19.71-.137 1.178.134z" fill="#fff"/>
        <path opacity=".25" fill-rule="evenodd" clip-rule="evenodd" d="M103.499 56.281c6.325 3.652 11.492 12.259 11.93 19.655l-4.689-2.3c-.271-4.51-3.406-9.733-7.257-11.958l.016-5.397z" fill="#fff"/>
        <path fill-rule="evenodd" clip-rule="evenodd" d="M125.901 93.949c.157-.224.246-.69.252-1.418.006-.73-.071-1.289-.212-1.65-.141-.36-.334-.613-.56-.744a.489.489 0 00-.419-.07c-.126.049-.217.198-.284.441a5.143 5.143 0 00-.095 1.181c0 .71.071 1.247.219 1.601.103.301.302.56.567.736.226.126.404.103.537-.077h-.005zm-3.936-2.683l-.552.347 1.747 1.01v.989l-3.392-1.958v-.516l1.514-.899c.365-.209.61-.41.733-.599a1.1 1.1 0 00.189-.6 1.274 1.274 0 00-.194-.649 1.289 1.289 0 00-.479-.48c-.204-.12-.364-.127-.504-.036-.14.09-.207.28-.219.574l-.905-.522c.029-.596.199-.983.504-1.15.306-.166.703-.12 1.18.156.299.174.564.4.783.667.231.283.417.6.551.94.123.304.191.628.201.956a1.78 1.78 0 01-.252.93c-.168.293-.468.57-.91.84h.005zm4.897-.065c.154.606.225 1.23.212 1.855 0 .749-.081 1.288-.221 1.623-.14.336-.338.526-.581.58-.244.055-.544-.023-.919-.24a3.01 3.01 0 01-.925-.824 3.902 3.902 0 01-.585-1.243 6.571 6.571 0 01-.208-1.826c0-1.033.143-1.693.424-2.006.31-.327.741-.334 1.294-.015.359.211.67.493.916.83.273.382.474.811.596 1.266h-.003zM119.866 75.103v-.999l3.213 1.855v.555l-2.229 3.924-.774-.877 1.844-3.27-2.054-1.188zm6.463 5.214a3.21 3.21 0 01.438 1.59c0 .544-.163.916-.491 1.103-.328.187-.723.143-1.188-.126a3.165 3.165 0 01-1.074-1.03 3.752 3.752 0 01-.587-1.47l.982.567c.064.208.165.402.299.573.106.15.242.277.4.37.206.12.379.137.524.044.145-.094.223-.263.223-.526a1.566 1.566 0 00-.194-.749 1.353 1.353 0 00-.486-.526.59.59 0 00-.299-.088.557.557 0 00-.302.097l-.757-.642.608-2.768 2.289 1.322v.975l-1.603-.927-.2.931c.054.01.107.025.158.046.055.023.109.051.16.083a3.02 3.02 0 011.1 1.15z" fill="#fff"/>
        <path opacity=".5" fill-rule="evenodd" clip-rule="evenodd" d="M128.883 87.148a.693.693 0 01.317.552v.685c0 .204-.14.285-.318.181l-9.841-5.64a.687.687 0 01-.317-.548v-.686c0-.205.144-.287.319-.186l9.84 5.642zM128.907 75.89a.705.705 0 01.315.558v.674c0 .204-.14.295-.318.192l-9.841-5.641a.708.708 0 01-.316-.56v-.678c0-.2.143-.293.319-.192l9.841 5.646z" fill="#fff"/>
        <path fill-rule="evenodd" clip-rule="evenodd" d="M117.413 68.964c.505.294.923 1.01.921 1.57-.001.562-.417.823-.927.53-.51-.295-.902-.999-.9-1.584.003-.586.412-.801.906-.516zM117.386 80.18c.525.304.949 1.038.948 1.641-.001.603-.43.828-.954.525a2.05 2.05 0 01-.926-1.611c.003-.6.424-.847.932-.554z" fill="#fff"/>
        <path fill-rule="evenodd" clip-rule="evenodd" d="M90.507 140.536c.008-2.982 1.043-5.102 2.715-6.133 1.766-1.085 4.238-.969 6.974.612l55.063 31.582c5.328 3.077 9.644 10.55 9.626 16.675l-.229 26.045c-.018 6.124-4.361 8.6-9.691 5.522l-55.062-31.582c-5.335-3.081-9.644-10.551-9.626-16.674l.23-26.047z" fill="url(#paint12_linear)"/>
        <path opacity=".5" fill-rule="evenodd" clip-rule="evenodd" d="M96.151 180.217l.065-23.846-.646-.488-.065 23.611c.21.253.425.487.646.721v.002zm-.252-26.23c-.371-.28-.679-.167-.68.252-.001.419.303.991.674 1.269.37.279.686.173.687-.242.001-.415-.304-.998-.681-1.282v.003zm10.816 33.182l.097-33.11-.652-.491-.098 33.226.653.379v-.004zm-.214-35.491c-.379-.284-.685-.172-.687.252-.001.424.304.992.682 1.276.377.284.672.163.675-.252.002-.416-.304-.997-.67-1.273v-.003zm10.774 41.541l.127-41.489-.631-.478-.126 41.604.63.363zm-.182-43.87c-.379-.285-.673-.164-.674.266 0 .409.291.973.667 1.262.376.289.68.166.682-.241 0-.429-.292-.994-.675-1.283v-.004zm10.752 49.932l.126-41.643-.646-.486-.126 41.762.646.37v-.003zm-.188-44.032c-.371-.279-.679-.167-.682.252-.002.419.306.99.677 1.27.37.281.683.172.686-.243.002-.415-.303-.997-.681-1.282v.003zm10.75 50.088l.108-35.633-.653-.492-.107 35.751.652.378v-.004zm-.217-38.017c-.364-.275-.672-.17-.673.253 0 .408.304.983.668 1.261.365.279.685.173.687-.236 0-.429-.298-.991-.682-1.28v.002zm10.773 44.072l.078-27.565-.646-.486-.082 27.683.646.371.004-.003zm-.234-29.946c-.378-.284-.686-.171-.687.252-.002.424.304.991.681 1.276.377.285.679.167.681-.252.003-.419-.304-.997-.675-1.277v.001zm10.788 34.708l.06-22.381-.64-.481-.063 22.852c.214.015.429.018.643.01zm-.253-24.754c-.378-.281-.673-.171-.675.252-.001.423.298.992.668 1.27.369.279.686.173.689-.252.002-.425-.306-.988-.683-1.268l.001-.002z" fill="#3856D8"/>
        <path opacity=".5" fill-rule="evenodd" clip-rule="evenodd" d="M162.435 183.62a1.374 1.374 0 00-.339-.393c-.159-.126-.317-.162-.427-.1a33.51 33.51 0 01-2.709 1.546 19.38 19.38 0 01-2.364 1.034c-3.449 1.214-6.138.712-9.016-1.46-2.824-2.181-5.792-6.065-9.715-11.466-4.388-6.044-8.115-10.319-11.64-12.977a23.224 23.224 0 00-1.551-1.073c-3.985-2.508-7.736-2.87-11.953-1.309-.439.148-.859.323-1.279.487-3.237 1.261-6.268 2.446-10.116-.455-2.003-1.514-4.225-4.123-6.813-8.405-.086-.15-.2-.282-.336-.389-.16-.126-.32-.162-.43-.092-.18.126-.15.539.078.912 2.89 4.795 5.348 7.689 7.551 9.35 4.148 3.126 7.382 1.855 10.834.504.43-.155.85-.319 1.279-.475 4.021-1.496 7.571-1.171 11.306 1.173.462.291.928.614 1.397.969 3.326 2.507 6.9 6.611 11.138 12.448 4.069 5.593 7.159 9.629 10.22 12l.176.133c3.028 2.286 5.953 2.855 9.621 1.574.831-.298 1.641-.65 2.426-1.054.85-.442 1.766-.96 2.734-1.568.197-.119.165-.517-.072-.914z" fill="#3856D8"/>
        <path fill-rule="evenodd" clip-rule="evenodd" d="M161.486 181.038a1.303 1.303 0 00-.339-.389c-.158-.119-.317-.159-.425-.095a31.748 31.748 0 01-2.703 1.589c-.762.409-1.55.768-2.359 1.073-3.442 1.262-6.126.804-8.997-1.328-2.819-2.145-5.784-5.991-9.7-11.345-4.381-5.992-8.1-10.22-11.62-12.83a21.522 21.522 0 00-1.547-1.052c-3.978-2.454-7.721-2.761-11.929-1.136-.438.155-.858.336-1.277.505-3.229 1.316-6.254 2.546-10.093-.304-1.998-1.483-4.216-4.069-6.798-8.327a1.304 1.304 0 00-.336-.379c-.159-.117-.32-.158-.428-.086-.181.126-.15.541.077.914 2.882 4.759 5.338 7.624 7.536 9.264 4.14 3.071 7.367 1.75 10.813.348.429-.162.848-.333 1.277-.495 4.012-1.559 7.555-1.287 11.281 1.009.461.285.926.601 1.395.949 3.319 2.463 6.889 6.523 11.119 12.309 4.063 5.542 7.146 9.542 10.206 11.871l.175.126c3.028 2.246 5.943 2.776 9.602 1.433a20.691 20.691 0 002.421-1.091 39.555 39.555 0 002.726-1.614c.192-.127.159-.526-.077-.919z" fill="#0FF"/>
        <path fill-rule="evenodd" clip-rule="evenodd" d="M90.639 83.973c.008-2.397 1.707-3.373 3.799-2.165 22.206 12.738 44.409 25.483 66.609 38.236 2.089 1.208 3.785 4.137 3.774 6.538l-.09 2.309c-.007 2.398-1.709 3.372-3.799 2.165-22.207-12.741-44.41-25.487-66.609-38.237-2.092-1.208-3.785-4.138-3.774-6.537l.09-2.31z" fill="url(#paint13_linear)"/>
        <path opacity=".5" fill-rule="evenodd" clip-rule="evenodd" d="M92.443 86.146c0-.883.631-1.244 1.4-.798 8.19 4.698 58.637 33.813 66.827 38.515.771.445 1.388 1.525 1.388 2.411l-.033.852c0 .883-.631 1.243-1.402.798-8.189-4.698-58.636-33.813-66.826-38.515-.77-.445-1.394-1.525-1.388-2.411l.034-.852z" fill="#fff"/>
        <path fill-rule="evenodd" clip-rule="evenodd" d="M92.443 86.146c0-.883.631-1.244 1.4-.798 8.19 4.698 33.193 19.088 41.384 23.785.771.444 1.394 1.525 1.388 2.41l-.034.851c0 .884-.631 1.244-1.401.799-8.189-4.697-33.192-19.087-41.383-23.784-.77-.445-1.394-1.525-1.388-2.411l.034-.852z" fill="#fff"/>
        <path style="mix-blend-mode:multiply" opacity=".5" fill-rule="evenodd" clip-rule="evenodd" d="M131.02 69.265c.014-5.114 3.635-7.183 8.089-4.61l33.895 22.884-.535 36.563-3.23 2.433-30.374-17.685c-4.455-2.571-8.052-8.807-8.038-13.921l.193-25.664z" fill="url(#paint14_linear)"/>
        <path fill-rule="evenodd" clip-rule="evenodd" d="M134.844 68.932c0-1.632-.573-2.65.126-3.532.445-.568 1.994-1.256 2.649-1.483 1.262-.439 2.878-.212 4.628.799l50.594 29.458c4.071 2.351 7.368 8.062 7.355 12.743l-.175 23.488c0 1.451-.308 3.31-1.421 4.328-.792.725-2.181 1.452-3.215 1.537-1.061.085-1.471-.895-2.769-1.641l-50.594-29.457c-4.077-2.355-7.369-8.063-7.356-12.743l.178-23.497z" fill="#D0E7FF"/>
        <path fill-rule="evenodd" clip-rule="evenodd" d="M133.664 69.625c.014-4.68 3.328-6.574 7.405-4.22l50.593 29.459c4.071 2.351 7.368 8.06 7.356 12.742l-.176 23.489c-.014 4.68-3.332 6.571-7.405 4.219l-50.593-29.458c-4.077-2.353-7.37-8.062-7.356-12.742l.176-23.49z" fill="#fff"/>
        <path fill-rule="evenodd" clip-rule="evenodd" d="M133.503 69.64c.014-4.694 3.338-6.66 7.425-4.298l50.72 29.514c4.262 2.358 7.38 8.161 7.366 12.855l-.015 4.445-65.511-38.016.015-4.5z" fill="url(#paint15_linear)"/>
        <path fill-rule="evenodd" clip-rule="evenodd" d="M139.789 70.032c.883.235 1.681 1.285 1.767 2.344.085 1.06-.553 1.731-1.44 1.497-.887-.235-1.674-1.285-1.77-2.346-.096-1.06.556-1.723 1.443-1.495zM144.76 73.049c.883.234 1.681 1.285 1.767 2.345.085 1.06-.553 1.731-1.441 1.497-.889-.235-1.675-1.284-1.767-2.346-.092-1.062.553-1.73 1.441-1.496zM149.73 76.067c.883.235 1.68 1.284 1.766 2.345.086 1.061-.552 1.73-1.439 1.495-.887-.234-1.682-1.284-1.767-2.345-.084-1.061.553-1.73 1.44-1.495z" fill="#fff"/>
        <path opacity=".2" fill-rule="evenodd" clip-rule="evenodd" d="M143.975 84.007c4.935 1.306 9.348 7.145 9.859 13.044.511 5.898-3.075 9.621-8.008 8.317-4.933-1.305-9.349-7.145-9.86-13.043-.511-5.899 3.075-9.622 8.009-8.318z" fill="#6D6AFD"/>
        <path fill-rule="evenodd" clip-rule="evenodd" d="M144.402 88.93c2.66.704 5.047 3.851 5.315 7.032.269 3.18-1.657 5.187-4.317 4.484-2.66-.703-5.035-3.852-5.315-7.032-.281-3.181 1.657-5.19 4.317-4.484z" fill="url(#paint16_linear)"/>
        <path opacity=".2" fill-rule="evenodd" clip-rule="evenodd" d="M156.541 95.878c0-1.248.883-1.738 1.975-1.092l32.969 18.7c1.088.645 1.967 2.184 1.964 3.433v2.469c0 1.25-.884 1.739-1.976 1.093l-32.969-18.698c-1.089-.647-1.967-2.185-1.963-3.433v-2.472zM156.541 104.966c0-.737.524-1.027 1.167-.645l19.467 11.042c.643.379 1.162 1.29 1.16 2.028v1.458c0 .738-.525 1.027-1.167.646L157.7 108.453c-.643-.379-1.162-1.291-1.159-2.028v-1.459z" fill="#6D6AFD"/>
        <path opacity=".5" fill-rule="evenodd" clip-rule="evenodd" d="M184.854 97.399c0-.464.331-.652.736-.419l7.031 3.785a1.609 1.609 0 01.73 1.262v1.728c0 .466-.33.654-.735.419l-7.031-3.785a1.606 1.606 0 01-.731-1.261v-1.729zM95.126 95.597l30.406 17.634-.098 34.526-30.407-17.637.1-34.523h-.001zm34.728 20.088l30.406 17.635-.1 34.526-30.406-17.637.1-34.524z" fill="#fff"/>
        <path style="mix-blend-mode:multiply" opacity=".5" fill-rule="evenodd" clip-rule="evenodd" d="M86.858 96.703l17.117 9.816c4.416 2.547 7.983 8.733 7.969 13.802l-.191 25.436c-.014 5.069-3.609 7.117-8.02 4.571l-17.644-10.114.081-7.153.688-36.358z" fill="url(#paint17_linear)"/>
        <path fill-rule="evenodd" clip-rule="evenodd" d="M74.3 97.118c0-1.633-.573-2.65.126-3.533.446-.566 1.995-1.261 2.65-1.48 1.268-.44 2.878-.213 4.628.798l19.532 11.193c4.071 2.352 7.369 8.063 7.355 12.743l-.175 23.489c0 1.451-.308 3.31-1.421 4.328-.792.725-2.182 1.452-3.214 1.535-1.06.087-1.47-.893-2.77-1.64l-19.53-11.195c-4.075-2.361-7.37-8.07-7.355-12.749l.174-23.489z" fill="#D0E7FF"/>
        <path fill-rule="evenodd" clip-rule="evenodd" d="M73.117 97.813c.013-4.68 3.328-6.573 7.404-4.22l19.532 11.195c4.072 2.35 7.369 8.06 7.356 12.743l-.175 23.488c-.014 4.68-3.333 6.571-7.405 4.219L80.3 134.042c-4.077-2.354-7.37-8.062-7.356-12.743l.172-23.486z" fill="url(#paint18_linear)"/>
        <path fill-rule="evenodd" clip-rule="evenodd" d="M90.582 125.37c-3.415-1.893-6.401-6.472-6.673-10.234-.271-3.762 2.279-5.279 5.694-3.389 3.416 1.89 6.402 6.474 6.672 10.234.27 3.759-2.279 5.277-5.693 3.389zm12.675-1.475l-2.22-1.227c-.423-2.063-1.23-4.197-2.318-6.248l1.448-.859a34.961 34.961 0 00-2.816-4.317l-1.447.861a24.911 24.911 0 00-4.846-4.74l-.176-2.447a21.45 21.45 0 00-1.853-1.159 17.759 17.759 0 00-1.836-.883l.18 2.445c-1.705-.642-3.248-.777-4.541-.454l-1.697-2.601a5.635 5.635 0 00-2.397 1.429l1.697 2.6c-.872.964-1.426 2.348-1.575 4.095l-2.22-1.231a15.31 15.31 0 00.018 1.961c.053.706.144 1.408.273 2.103l2.222 1.229c.422 2.063 1.227 4.199 2.316 6.246l-1.447.861a34.727 34.727 0 002.81 4.318l1.448-.862a24.845 24.845 0 004.845 4.74l.177 2.447c.597.419 1.216.806 1.854 1.16a16.85 16.85 0 001.834.883l-.176-2.446c1.706.642 3.25.777 4.542.454l1.697 2.602a5.632 5.632 0 002.397-1.43l-1.697-2.602c.868-.963 1.426-2.351 1.575-4.093l2.221 1.229c.036-.655.03-1.31-.019-1.964a19.024 19.024 0 00-.273-2.1zM98.013 51.667c-2.698-1.492-5.058-5.11-5.271-8.083-.213-2.973 1.8-4.171 4.498-2.672 2.697 1.498 5.058 5.108 5.274 8.074.216 2.967-1.803 4.174-4.5 2.681zM105.128 48.534l-.006 1.83 20.82 12.02.005-1.831-20.819-12.019zM105.113 53.614l7.365 4.25.005-1.827-7.363-4.25-.007 1.827zM119.092 53.267l-13.955-8.059-.005 1.829 13.957 8.057.003-1.827z" fill="#fff"/>
    </g>
    <defs>
        <linearGradient id="paint0_linear" x1="107.634" y1="23.582" x2="148.738" y2="218.508" gradientUnits="userSpaceOnUse">
            <stop stop-color="#965CF2"/>
            <stop offset="1" stop-color="#FF8ADC"/>
        </linearGradient>
        <linearGradient id="paint1_linear" x1="61.84" y1="128.014" x2="49.223" y2="165.395" gradientUnits="userSpaceOnUse">
            <stop stop-color="#40457F"/>
            <stop offset="1" stop-color="#1E2353"/>
        </linearGradient>
        <linearGradient id="paint2_linear" x1="7029.23" y1="72386.4" x2="-7856.35" y2="81787.7" gradientUnits="userSpaceOnUse">
            <stop stop-color="#40457F"/>
            <stop offset="1" stop-color="#1E2353"/>
        </linearGradient>
        <linearGradient id="paint3_linear" x1="47.516" y1="85.316" x2="55.906" y2="116.606" gradientUnits="userSpaceOnUse">
            <stop stop-color="#A77EF7"/>
            <stop offset="1" stop-color="#5E65D6"/>
        </linearGradient>
        <linearGradient id="paint4_linear" x1="5175.32" y1="23136.4" x2="7913.15" y2="30041.8" gradientUnits="userSpaceOnUse">
            <stop stop-color="#A77EF7"/>
            <stop offset="1" stop-color="#5E65D6"/>
        </linearGradient>
        <linearGradient id="paint5_linear" x1="40.125" y1="123.58" x2="40.776" y2="121.028" gradientUnits="userSpaceOnUse">
            <stop stop-color="#FF8A78"/>
            <stop offset="1" stop-color="#FFA799"/>
        </linearGradient>
        <linearGradient id="paint6_linear" x1="1659.21" y1="24122.4" x2="4299.71" y2="30780.3" gradientUnits="userSpaceOnUse">
            <stop stop-color="#A77EF7"/>
            <stop offset="1" stop-color="#5E65D6"/>
        </linearGradient>
        <linearGradient id="paint7_linear" x1="2001.58" y1="4012.36" x2="1918.96" y2="4190.85" gradientUnits="userSpaceOnUse">
            <stop stop-color="#FF8A78"/>
            <stop offset="1" stop-color="#FFA799"/>
        </linearGradient>
        <linearGradient id="paint8_linear" x1="50.808" y1="66.124" x2="51.023" y2="73.117" gradientUnits="userSpaceOnUse">
            <stop stop-color="#FFB89E"/>
            <stop offset="1" stop-color="#FFA799"/>
        </linearGradient>
        <linearGradient id="paint9_linear" x1="50.147" y1="61.109" x2="47.764" y2="60.244" gradientUnits="userSpaceOnUse">
            <stop stop-color="#8A4791"/>
            <stop offset="1" stop-color="#562E65"/>
        </linearGradient>
        <linearGradient id="paint10_linear" x1="3949.68" y1="13008.4" x2="5338.52" y2="15003.8" gradientUnits="userSpaceOnUse">
            <stop stop-color="#A77EF7"/>
            <stop offset="1" stop-color="#5E65D6"/>
        </linearGradient>
        <linearGradient id="paint11_linear" x1="3165.52" y1="12233.6" x2="4532.32" y2="14216.2" gradientUnits="userSpaceOnUse">
            <stop stop-color="#A77EF7"/>
            <stop offset="1" stop-color="#5E65D6"/>
        </linearGradient>
        <linearGradient id="paint12_linear" x1="65223.4" y1="101236" x2="60736.6" y2="117471" gradientUnits="userSpaceOnUse">
            <stop stop-color="#A77EF7"/>
            <stop offset="1" stop-color="#5E65D6"/>
        </linearGradient>
        <linearGradient id="paint13_linear" x1="114.134" y1="111.194" x2="137.406" y2="103.014" gradientUnits="userSpaceOnUse">
            <stop stop-color="#FA5DB1"/>
            <stop offset="1" stop-color="#FEBFBF"/>
        </linearGradient>
        <linearGradient id="paint14_linear" x1="149.45" y1="96.632" x2="197.717" y2="62.118" gradientUnits="userSpaceOnUse">
            <stop stop-color="#6D6AFE"/>
            <stop offset="1" stop-color="#3FB0F7"/>
        </linearGradient>
        <linearGradient id="paint15_linear" x1="76237.4" y1="32532.5" x2="75852" y2="23374.5" gradientUnits="userSpaceOnUse">
            <stop stop-color="#6D6AFE"/>
            <stop offset="1" stop-color="#3FB0F7"/>
        </linearGradient>
        <linearGradient id="paint16_linear" x1="9719.95" y1="8456.14" x2="9745.96" y2="7433.36" gradientUnits="userSpaceOnUse">
            <stop stop-color="#6D6AFE"/>
            <stop offset="1" stop-color="#3FB0F7"/>
        </linearGradient>
        <linearGradient id="paint17_linear" x1="15162.8" y1="51497.5" x2="26249.9" y2="46188.6" gradientUnits="userSpaceOnUse">
            <stop stop-color="#6D6AFE"/>
            <stop offset="1" stop-color="#3FB0F7"/>
        </linearGradient>
        <linearGradient id="paint18_linear" x1="82.838" y1="102.869" x2="96.753" y2="134.234" gradientUnits="userSpaceOnUse">
            <stop stop-color="#1C8EF4"/>
            <stop offset="1" stop-color="#00CFDD"/>
        </linearGradient>
        <filter id="filter0_d" x="0" y="0" width="220.196" height="260" filterUnits="userSpaceOnUse" color-interpolation-filters="sRGB">
            <feFlood flood-opacity="0" result="BackgroundImageFix"/>
            <feColorMatrix in="SourceAlpha" values="0 0 0 0 0 0 0 0 0 0 0 0 0 0 0 0 0 0 127 0"/>
            <feOffset dy="10"/>
            <feGaussianBlur stdDeviation="10"/>
            <feColorMatrix values="0 0 0 0 0 0 0 0 0 0 0 0 0 0 0 0 0 0 0.25 0"/>
            <feBlend in2="BackgroundImageFix" result="effect1_dropShadow"/>
            <feBlend in="SourceGraphic" in2="effect1_dropShadow" result="shape"/>
        </filter>
    </defs>
</svg>
