<svg viewBox="0 0 96 31" fill="none" xmlns="http://www.w3.org/2000/svg">
    <path fill-rule="evenodd" clip-rule="evenodd" d="M62.777 0c3.002 0 5.43.67 6.96 1.278l-1.056 6.48-.702-.319c-1.404-.607-3.257-1.213-5.78-1.149-3.063 0-4.437 1.308-4.469 2.585 0 1.405 1.662 2.331 4.376 3.704 4.47 2.139 6.544 4.757 6.513 8.173C68.556 26.977 63.256 31 55.114 31c-3.48-.032-6.833-.768-8.653-1.597l1.085-6.736 1.022.479c2.523 1.119 4.183 1.596 7.28 1.596 2.235 0 4.63-.926 4.66-2.937 0-1.309-1.02-2.267-4.022-3.736-2.937-1.437-6.864-3.83-6.8-8.141C49.718 4.086 55.113 0 62.776 0zM33.85 30.553h7.76L46.46.544h-7.759L33.85 30.553zm46.2-10.631c.64-1.724 3.098-8.397 3.098-8.397-.013.026.089-.255.24-.674.222-.617.553-1.533.781-2.199l.542 2.586s1.47 7.183 1.789 8.684h-6.45zM89.627.544h-6.002c-1.85 0-3.257.542-4.055 2.49L68.044 30.552h8.142l1.628-4.501h9.963c.223 1.053.926 4.501.926 4.501h7.184L89.627.544zM19.77 21.007L27.37.544h8.204L23.376 30.521h-8.205L8.211 4.278c4.917 2.587 9.323 7.79 10.728 12.579l.83 4.15z" fill="#1B338B"/>
    <path d="M12.713.544H.229L.1 1.15C9.84 3.64 16.29 9.643 18.94 16.858L16.225 3.066C15.778 1.15 14.405.607 12.713.544z" fill="#FAA61A"/>
</svg>
