<svg viewBox="0 0 41 31" fill="none" xmlns="http://www.w3.org/2000/svg">
    <path d="M8.63 29.278c0-.577.38-1.05.999-1.05.592 0 .991.453.991 1.05s-.4 1.05-.991 1.05c-.62 0-.999-.474-.999-1.05zm2.665 0v-1.64h-.716v.398c-.227-.296-.571-.48-1.04-.48-.922 0-1.646.72-1.646 1.722S8.617 31 9.54 31c.468 0 .812-.185 1.04-.48v.398h.715v-1.64zm24.183 0c0-.577.38-1.05.999-1.05.593 0 .991.453.991 1.05s-.399 1.05-.991 1.05c-.62 0-.999-.474-.999-1.05zm2.666 0V26.32h-.717v1.716c-.227-.296-.571-.48-1.04-.48-.922 0-1.646.72-1.646 1.722S35.465 31 36.388 31c.468 0 .812-.185 1.04-.48v.398h.716v-1.64zm-17.966-1.084c.461 0 .758.288.833.795h-1.708c.077-.473.365-.795.875-.795zm.014-.639c-.964 0-1.64.7-1.64 1.723 0 1.043.703 1.722 1.688 1.722.496 0 .95-.123 1.35-.46l-.351-.528a1.578 1.578 0 01-.958.343c-.46 0-.88-.213-.984-.803h2.444a3.37 3.37 0 00.014-.274c-.007-1.023-.64-1.723-1.563-1.723zm8.642 1.723c0-.577.379-1.05.998-1.05.592 0 .992.453.992 1.05s-.4 1.05-.992 1.05c-.62 0-.998-.474-.998-1.05zm2.664 0v-1.64h-.715v.398c-.228-.296-.572-.48-1.04-.48-.923 0-1.646.72-1.646 1.722S28.82 31 29.743 31c.468 0 .812-.185 1.04-.48v.398h.715v-1.64zm-6.706 0c0 .995.695 1.722 1.756 1.722.496 0 .826-.11 1.184-.39l-.344-.577a1.45 1.45 0 01-.861.295c-.572-.007-.992-.419-.992-1.05 0-.632.42-1.043.992-1.05.31 0 .592.102.86.295l.345-.577c-.358-.28-.688-.39-1.184-.39-1.061 0-1.756.726-1.756 1.722zm9.227-1.723c-.413 0-.682.193-.868.48v-.397h-.71v3.28h.717v-1.839c0-.543.234-.844.702-.844.145 0 .297.02.448.082l.22-.672a1.531 1.531 0 00-.51-.09zm-19.185.343c-.344-.226-.818-.343-1.342-.343-.834 0-1.37.398-1.37 1.05 0 .535.4.865 1.135.968l.338.048c.393.055.578.158.578.343 0 .254-.261.399-.75.399-.496 0-.854-.158-1.095-.344l-.337.556c.392.288.888.425 1.425.425.95 0 1.501-.446 1.501-1.07 0-.577-.433-.878-1.15-.981l-.337-.05c-.31-.04-.558-.101-.558-.321 0-.24.234-.384.627-.384.42 0 .826.158 1.026.28l.31-.576zm9.234-.343c-.413 0-.681.193-.867.48v-.397h-.709v3.28h.716v-1.839c0-.543.234-.844.702-.844.145 0 .296.02.448.082l.22-.672a1.53 1.53 0 00-.51-.09zm-6.107.083h-1.17v-.996h-.724v.996H15.4v.652h.668v1.496c0 .761.296 1.214 1.143 1.214.31 0 .668-.096.895-.253l-.206-.611a1.328 1.328 0 01-.634.185c-.358 0-.474-.22-.474-.55V28.29h1.17v-.652zm-10.7 3.28v-2.059c0-.775-.496-1.297-1.296-1.304-.42-.007-.853.123-1.157.584-.226-.364-.584-.584-1.087-.584-.352 0-.695.103-.964.487v-.404H2.04v3.28h.722v-1.819c0-.57.317-.872.807-.872.475 0 .715.31.715.865v1.826h.724v-1.819c0-.57.33-.872.805-.872.489 0 .723.31.723.865v1.826h.723z" fill="#231F20"/>
    <path d="M25.473 22.07H14.627V2.643h10.846V22.07z" fill="#FF5F00"/>
    <path d="M15.322 12.355a12.32 12.32 0 014.734-9.713A12.369 12.369 0 0012.396 0C5.548 0 0 5.531 0 12.355 0 19.178 5.55 24.71 12.395 24.71c2.892 0 5.553-.987 7.66-2.642a12.319 12.319 0 01-4.733-9.713z" fill="#EB001B"/>
    <path d="M40.1 12.355c0 6.823-5.549 12.355-12.394 12.355-2.892 0-5.553-.987-7.662-2.642a12.317 12.317 0 004.735-9.713c0-3.94-1.851-7.451-4.735-9.713A12.372 12.372 0 0127.706 0C34.55 0 40.1 5.531 40.1 12.355z" fill="#F79E1B"/>
</svg>
