<svg viewBox="0 0 442 393" fill="none" xmlns="http://www.w3.org/2000/svg">
    <path d="M442 160.23C442 266.439 325.72 393 219.447 393 113.173 393 0 321.483 0 215.274S113.186 8.367 219.447 8.367 442 54.01 442 160.23z" fill="url(#paint0_linear)"/>
    <path d="M228.38 13.181l1.784-.3a20.24 20.24 0 012.171-.224c.436 0 .911-.087 1.41-.1h1.584c2.708.056 5.401.428 8.022 1.11a48.264 48.264 0 019.919 3.791c.886.424 1.722.936 2.608 1.422.885.486 1.746 1.06 2.645 1.596a85.616 85.616 0 015.252 3.741l1.31 1.048 1.248 1.11.649.56.648.587a55.3 55.3 0 001.248 1.147c1.734 1.634 3.356 3.342 4.991 5.175a59.81 59.81 0 014.603 5.849 54.114 54.114 0 014.005 6.56 51.87 51.87 0 013.119 7.245l.612 1.907c.174.636.337 1.247.511 1.933l.125.487.112.486.113.461.099.5c.138.685.262 1.321.362 1.982.742 5.119.967 10.3.674 15.463-.112 2.494-.262 5.1-.562 7.482l-.149 1.846c-.075.61-.175 1.247-.25 1.82-.174 1.248-.324 2.407-.549 3.592a122.49 122.49 0 01-3.106 13.455 145.039 145.039 0 01-4.005 11.648c-.736 1.758-1.398 3.454-2.134 4.988-.362.785-.711 1.558-1.06 2.294-.35.736-.711 1.459-1.048 2.145a64.217 64.217 0 01-1.971 3.841l-.899 1.683-.873 1.522c-1.073 1.92-2.021 3.379-2.645 4.389l-.973 1.522s.237-.586.661-1.684l.811-2.02c.299-.786.649-1.708 1.048-2.731.2-.511.412-1.048.624-1.609l.636-1.795c.225-.624.462-1.247.711-1.921.25-.673.474-1.372.724-2.095.249-.723.499-1.459.761-2.22l.736-2.369c.524-1.621 1.023-3.342 1.547-5.125.998-3.579 2.046-7.482 2.895-11.622.848-4.14 1.671-8.543 2.208-13.12.162-1.134.224-2.294.362-3.453.062-.587.137-1.16.174-1.746.038-.586.088-1.172.125-1.771.087-1.172.175-2.37.2-3.542l.075-1.758v-1.808a80.748 80.748 0 00-.824-14.39c-.087-.574-.199-1.173-.299-1.722l-.088-.411-.099-.461-.1-.424-.1-.425-.449-1.696-.512-1.683a52.282 52.282 0 00-2.657-6.472 64.536 64.536 0 00-7.486-11.635c-1.41-1.77-2.907-3.466-4.367-5.05l-1.16-1.247-.561-.574-.574-.561c-.375-.387-.761-.76-1.136-1.122l-1.16-1.073a65.412 65.412 0 00-9.282-7.233 51.534 51.534 0 00-8.846-4.589 39.263 39.263 0 00-7.486-2.12l-1.522-.249c-.474-.075-.923-.1-1.335-.15a18.64 18.64 0 00-2.158-.15l-1.697.063z" fill="#D1E1FC"/>
    <path d="M252.309 12.47l1.672.387.899.212c.336.087.698.212 1.085.324.774.25 1.697.511 2.657.923l1.548.623c.536.225 1.085.5 1.659.774.61.266 1.206.566 1.784.897.599.337 1.248.674 1.871 1.048a55.555 55.555 0 017.985 5.923 72.254 72.254 0 018.11 8.53 94.763 94.763 0 017.486 10.762 65.262 65.262 0 013.306 6.235c.499 1.097.973 2.22 1.41 3.367l.312.873.299.922.262.836.125.411.125.474a56.09 56.09 0 011.896 14.765c0 1.247 0 2.494-.075 3.741V76.381l-.137 1.758c-.1 1.172-.175 2.332-.362 3.579-.187 1.247-.299 2.494-.499 3.616-.199 1.122-.424 2.37-.624 3.529-.199 1.16-.524 2.32-.786 3.467-.137.573-.262 1.147-.411 1.708-.15.561-.312 1.123-.462 1.684-.15.56-.324 1.11-.474 1.658a24.79 24.79 0 01-.512 1.646 95.805 95.805 0 01-4.865 12.184c-.974 1.845-1.834 3.741-2.845 5.349l-1.46 2.494-1.509 2.332c-.961 1.534-2.034 2.906-2.995 4.24-.474.674-.985 1.247-1.472 1.896l-1.435 1.758c-1.909 2.22-3.655 4.078-5.177 5.524-1.523 1.447-2.745 2.494-3.581 3.268l-1.31 1.097 1.048-1.347c.699-.873 1.722-2.132 2.932-3.816a171.989 171.989 0 004.192-6.123c1.559-2.381 3.169-5.175 4.753-8.292l1.248-2.37c.387-.823.774-1.658 1.16-2.494.824-1.683 1.51-3.504 2.283-5.325a115.842 115.842 0 003.881-11.859 113.073 113.073 0 002.607-13.031c.262-2.245.537-4.377.674-6.784l.137-1.77V74.297c0-1.148.063-2.282 0-3.417.046-4.45-.452-8.89-1.485-13.219l-.087-.386-.125-.412-.237-.835-.224-.736-.25-.773a44.213 44.213 0 00-1.135-3.03 71.663 71.663 0 00-2.795-5.849A96.002 96.002 0 00270.999 26.2a60.293 60.293 0 00-6.862-6.497c-1.11-.86-2.158-1.696-3.181-2.37-.512-.336-.986-.685-1.473-.984l-1.385-.836c-.873-.549-1.696-.923-2.395-1.322-.349-.187-.674-.374-.986-.511l-.848-.387-1.56-.823z" fill="#D1E1FC"/>
    <path d="M311.684 0s.15.599.437 1.708c.287 1.11.674 2.744 1.086 4.851.411 2.108.91 4.664 1.247 7.632.212 1.484.374 3.068.562 4.751.187 1.684.287 3.442.386 5.288.462 8.463.002 16.95-1.372 25.314l-.137.86V50.867l-.088.424c-.099.574-.212 1.135-.311 1.709-.225 1.134-.5 2.331-.749 3.516-.549 2.332-1.135 4.689-1.822 7.02-1.322 4.702-2.919 9.366-4.628 13.98-1.71 4.614-3.594 9.153-5.465 13.518a317.676 317.676 0 01-2.807 6.572c-.961 2.17-1.897 4.327-2.957 6.434a90.777 90.777 0 01-6.937 11.56 212.455 212.455 0 01-7.099 9.552 172.626 172.626 0 01-3.356 4.091 89.81 89.81 0 01-3.169 3.579 89.262 89.262 0 01-5.452 5.512c-1.572 1.459-2.882 2.494-3.743 3.279l-1.385 1.098 1.135-1.347 1.348-1.621 1.759-2.233c1.248-1.671 2.832-3.741 4.529-6.147 1.697-2.407 3.518-5.2 5.464-8.256.974-1.546 1.972-3.117 2.995-4.813 1.023-1.696 2.083-3.38 3.119-5.163a104.933 104.933 0 005.901-11.385 197.762 197.762 0 002.595-6.323c.849-2.182 1.722-4.39 2.595-6.609 1.735-4.452 3.531-8.954 5.191-13.468 1.659-4.514 3.281-9.053 4.678-13.542.711-2.245 1.348-4.49 1.959-6.71.274-1.11.574-2.17.836-3.304.125-.561.262-1.122.399-1.684l.1-.423v-.375l.175-.823a150.783 150.783 0 003.206-24.254c.399-7.208.237-13.281.087-17.533-.099-2.12-.149-3.804-.237-4.989C311.672.524 311.684 0 311.684 0z" fill="#D1E1FC"/>
    <path d="M327.854 20.476l.087.412c0 .274.162.673.25 1.247.258 1.542.413 3.1.461 4.663a45.28 45.28 0 01-.386 7.333 85.993 85.993 0 01-1.81 9.303c-.212.898-.449 1.683-.673 2.556-.225.873-.474 1.746-.711 2.631-.237.886-.487 1.796-.749 2.706l-.861 2.806c-.299.948-.611 1.908-.911 2.88a53.362 53.362 0 01-.985 2.931c-.686 1.958-1.423 3.953-2.159 5.986-1.584 4.016-3.256 8.168-5.19 12.27-.911 2.083-1.934 4.129-2.969 6.174l-1.56 3.092-1.647 3.043-1.659 3.018c-.561 1.01-1.173 1.995-1.747 2.98-1.172 1.983-2.32 3.966-3.58 5.849-1.261 1.883-2.496 3.816-3.743 5.636a507.188 507.188 0 01-3.743 5.387c-1.248 1.771-2.583 3.417-3.855 4.989l-.949 1.247-.973 1.184-1.921 2.307a177.89 177.89 0 01-1.872 2.245 61.391 61.391 0 01-1.884 2.12c-1.247 1.384-2.495 2.718-3.618 3.99-1.123 1.272-2.358 2.407-3.456 3.529-1.098 1.123-2.146 2.183-3.194 3.118-2.046 1.908-3.742 3.591-5.352 4.876-1.609 1.284-2.745 2.307-3.556 2.993l-1.247 1.047 1.035-1.247c.674-.823 1.647-2.057 2.932-3.591.649-.748 1.335-1.621 2.071-2.569.736-.948 1.56-1.958 2.421-3.043.424-.549.885-1.097 1.335-1.671.449-.574.898-1.247 1.372-1.808l2.982-3.866 3.131-4.277c.537-.736 1.111-1.472 1.66-2.232l1.647-2.357c2.27-3.143 4.516-6.572 6.887-10.076l3.468-5.412c.599-.911 1.135-1.858 1.709-2.794l1.734-2.83c1.186-1.87 2.234-3.854 3.382-5.774.549-.973 1.147-1.933 1.671-2.918l1.61-2.968 1.634-2.956 1.535-3.005c1.01-1.995 2.096-3.953 3.019-5.96l1.447-2.981c.487-.985.974-1.97 1.41-2.955l2.683-5.861c.836-1.933 1.647-3.854 2.495-5.712.848-1.858 1.51-3.74 2.258-5.512a192.1 192.1 0 011.086-2.643c.361-.86.661-1.771.985-2.644.649-1.709 1.248-3.367 1.884-4.988 1.173-3.18 2.146-6.11 2.882-8.73a56.377 56.377 0 001.485-6.933c.205-1.518.334-3.045.387-4.576-.075-1.085-.075-1.659-.075-1.659z" fill="#D1E1FC"/>
    <path d="M338.484 38.795s0 .449.112 1.247c0 .424.075.948.087 1.571v2.158a42.35 42.35 0 01-.574 5.86 62.336 62.336 0 01-1.659 7.395c-.761 2.67-1.722 5.5-2.832 8.443a239.007 239.007 0 01-3.668 9.153c-1.348 3.167-2.82 6.397-4.504 9.627a91.505 91.505 0 01-5.689 9.552 78.87 78.87 0 01-7 8.729 110.325 110.325 0 01-3.743 3.891l-1.883 1.858-1.859 1.783c-2.496 2.357-4.991 4.552-7.349 6.597-2.358 2.045-4.729 3.878-6.837 5.549-2.109 1.671-4.192 3.168-6.014 4.44a190.43 190.43 0 01-4.766 3.23c-1.335.873-2.408 1.521-3.144 1.97l-1.123.673.911-.947c.599-.599 1.46-1.522 2.583-2.632l9.195-9.365c1.896-1.933 3.93-4.04 6.063-6.235 2.134-2.195 4.38-4.614 6.65-7.071l3.469-3.741c1.16-1.247 2.308-2.581 3.456-3.89a94.973 94.973 0 006.388-8.23 78.199 78.199 0 002.857-4.39c.898-1.497 1.809-2.993 2.657-4.514.849-1.522 1.672-3.043 2.495-4.565a83.824 83.824 0 002.321-4.614l4.367-8.729a248.264 248.264 0 003.743-7.819 74.92 74.92 0 004.292-12.133c.187-.76.349-1.447.474-2.045.124-.599.237-1.123.287-1.547.149-.81.237-1.26.237-1.26z" fill="url(#paint1_linear)"/>
    <path d="M368.227 65.144l-1.01 1.11c-.686.724-1.647 1.796-2.92 3.105-1.272 1.31-2.819 2.931-4.641 4.727l-2.907 2.855c-1.023.998-2.133 2.008-3.269 3.093a198.882 198.882 0 01-3.593 3.33l-3.918 3.504c-2.682 2.394-5.589 4.838-8.596 7.37a299.58 299.58 0 01-4.641 3.74 402.113 402.113 0 01-4.803 3.742c-3.244 2.569-6.613 4.988-9.981 7.557-3.369 2.569-6.8 4.901-10.219 7.208-1.709 1.159-3.381 2.331-5.09 3.429l-4.99 3.267c-3.319 2.095-6.538 4.128-9.632 5.961l-4.517 2.656-4.267 2.419-3.955 2.17-3.605 2.033c-2.258 1.247-4.255 2.182-5.902 2.98-1.646.798-2.956 1.409-3.842 1.833l-1.373.636 1.186-.935c.786-.586 1.921-1.484 3.393-2.569a620.728 620.728 0 005.29-3.953l6.9-4.988 37.079-26.986 36.83-27.123 6.9-4.988 5.365-3.853c1.484-1.072 2.682-1.883 3.481-2.494l1.247-.836z" fill="#D1E1FC"/>
    <path d="M265.484 142.56l1.248-1.085c.811-.698 1.971-1.758 3.531-3.005l2.583-2.083c.935-.76 1.971-1.546 3.081-2.407 1.111-.86 2.308-1.708 3.568-2.643 1.261-.936 2.633-1.846 4.043-2.831 1.41-.985 2.907-1.945 4.479-2.955a142.864 142.864 0 014.89-3.018c3.382-2.033 7.062-4.016 10.917-5.974 1.934-.947 3.918-1.92 5.952-2.805a323.551 323.551 0 016.238-2.656c4.229-1.671 8.621-3.168 13.05-4.502l3.344-.898c1.073-.312 2.233-.574 3.368-.836 2.271-.586 4.529-.972 6.775-1.421a73.974 73.974 0 016.712-1.01c1.111-.125 2.209-.287 3.319-.374l3.269-.275c4.173-.292 8.359-.351 12.538-.174 1.984 0 3.918.237 5.79.386.923 0 1.834.2 2.732.312l2.632.337c1.71.299 3.357.561 4.904.86 1.547.299 2.994.661 4.366.985 1.373.325 2.62.711 3.743 1.06 1.123.349 2.209.724 3.169 1.035 1.909.599 3.356 1.247 4.354 1.634l1.523.636-1.622-.299c-1.061-.187-2.583-.512-4.554-.799-.986-.137-2.059-.336-3.244-.486-1.185-.149-2.495-.299-3.83-.461l-4.355-.387-4.815-.262c-3.369-.087-7-.149-10.842 0-3.843.15-7.861.499-12.003.973s-8.409 1.247-12.713 2.07c-2.134.486-4.304.935-6.425 1.484-1.061.262-2.121.499-3.219.823l-3.244.898c-4.28 1.247-8.509 2.681-12.651 4.165-4.142 1.484-8.147 3.167-12.002 4.838-3.856 1.671-7.561 3.38-11.017 5.113-3.456 1.734-6.737 3.38-9.744 4.988l-4.28 2.307-3.867 2.133c-2.408 1.347-4.517 2.494-6.238 3.516l-4.03 2.295-1.423.798z" fill="#D1E1FC"/>
    <path d="M266.345 142.286s0-.412.163-1.173c.162-.76.274-1.87.474-3.292.099-.698.212-1.484.324-2.332.112-.848.225-1.77.349-2.743.237-1.958.487-4.165.711-6.572.225-2.407.437-4.988.574-7.744.138-2.756.237-5.636.3-8.629.062-2.993 0-6.073-.162-9.191-.163-3.117-.325-6.297-.662-9.465v-1.172l-.124-1.247c-.1-.773-.188-1.546-.3-2.32-.212-1.558-.424-3.092-.711-4.614a68.88 68.88 0 00-2.133-8.729c-.425-1.384-.936-2.693-1.46-3.99a31.302 31.302 0 00-.824-1.87l-.224-.462s0 .062 0 0v-.063l-.063-.124-.124-.225-.474-.947c-.612-1.11-1.248-2.22-1.947-3.255a33.848 33.848 0 00-2.133-2.918 32.417 32.417 0 00-8.497-7.482 30.265 30.265 0 00-2.894-1.522l-1.086-.486 1.248.15c.387 0 .849.137 1.397.249.642.13 1.275.297 1.897.499a26.779 26.779 0 014.891 2.082 30.642 30.642 0 015.664 4.066c.988.903 1.925 1.86 2.807 2.868a34.341 34.341 0 012.682 3.442 43.77 43.77 0 014.317 8.155 49.574 49.574 0 011.61 4.59c.474 1.57.886 3.18 1.247 4.8.362 1.621.662 3.267.899 4.988.124.823.237 1.659.337 2.494l.149 1.248.075.623v.624a110.5 110.5 0 01.512 9.901v2.494c0 .86 0 1.621-.075 2.419 0 1.609-.175 3.18-.275 4.739-.287 3.092-.648 6.073-1.135 8.879-.225 1.409-.512 2.768-.774 4.077-.262 1.31-.586 2.494-.885 3.742a60.203 60.203 0 01-.936 3.416c-.325 1.073-.636 2.108-.961 3.056-.324.947-.624 1.845-.923 2.656-.3.81-.611 1.559-.873 2.232-.499 1.347-.999 2.357-1.248 3.068l-.724 1.01z" fill="#D1E1FC"/>
    <g opacity=".5" fill="#A7C1EE">
        <path opacity=".5" d="M399.992 108.554l1.622.299-1.522-.636c-.699-.262-1.61-.661-2.745-1.085-3.156-.623-6.325-1.247-9.519-1.658a136.99 136.99 0 00-19.476-1.522 97.514 97.514 0 00-19.525 1.808 71.123 71.123 0 00-18.378 6.235l-.649.337-.175.075.175-.075a53.37 53.37 0 017.486-3.08c.686-.237-.661.337 0 .162.661-.174 2.096-.661 2.807-.848.711-.187-.649.399.087.312.737-.087 3.544-.811 4.28-.861 1.085-.174.736 0-.15.138l-3.381.76c.736-.099-1.41.349-1.385.424.025.075 0 .125.399.113.4-.013 1.098-.113 2.496-.325.723-.087 0 .162.062.25 1.372-.25 2.77-.462 4.192-.649 3.244-.598 6.463-1.122 9.632-1.496 4.142-.474 8.172-.861 12.002-.973 3.83-.112 7.486-.125 10.842 0l4.816.262 4.354.387c1.373.162 2.645.336 3.83.461 1.186.125 2.259.349 3.244.486 1.996.187 3.519.512 4.579.699z"/>
        <path opacity=".5" d="M337.847 105.461a54.675 54.675 0 017.311-1.372c2.496-.312 4.991-.511 7.399-.736 4.067-.349 8.584-.573 13.1-.748l10.356-.411c-.612-.075-1.248-.162-1.859-.2-1.872-.149-3.806-.336-5.789-.386-4.18-.177-8.366-.118-12.539.174l-3.269.275c-1.11.087-2.208.249-3.319.374-2.233.237-4.454.636-6.712 1.01a78.024 78.024 0 00-6.775 1.421c-1.135.262-2.295.524-3.368.836l-3.331.898c-2.907.873-5.79 1.82-8.622 2.843h.237c.786-.224 3.856-1.397 4.667-1.559 1.185-.349.811-.187-.163.162l-3.655 1.247c.786-.212-1.547.574-1.51.649.038.075.087.212 3.232-.699.786-.199 0 .163.087.237 2.333-.71 4.741-1.384 7.174-2.07 2.433-.686 4.915-1.322 7.348-1.945zM315.652 111.235l-.861.361a39.445 39.445 0 00-4.392 3.006l-.636.511a40.424 40.424 0 015.889-3.878zM309.763 115.113l-.175.125.175-.125z"/>
    </g>
    <path opacity=".5" d="M342.838 85.396c-4.691 3.741-9.37 7.483-14.073 11.224-4.704 3.741-9.445 7.345-14.174 10.986l-.536.424c1.085-.823 2.183-1.621 3.219-2.382 1.035-.761 1.971-1.459 2.807-2.033.561-.399-.487.487.1.138.586-.35 1.672-1.16 2.221-1.572.549-.411-.437.574.187.275.624-.3 2.819-1.871 3.431-2.195.861-.549.611-.312-.075.187-.686.499-1.822 1.247-2.67 1.821.611-.312-1.135.748-1.098.81.037.062.15.212 2.495-1.122.612-.324.1.149.15.212 1.759-1.048 3.506-2.195 5.29-3.33 1.784-1.135 3.518-2.37 5.24-3.629 3.469-2.494 6.812-5.125 9.981-7.769l.112-.087.537-.474 3.918-3.504c1.247-1.135 2.495-2.257 3.593-3.33 1.098-1.072 2.245-2.094 3.269-3.092l2.907-2.856a214.316 214.316 0 004.641-4.726c.748-.773 1.397-1.471 1.946-2.058a343.097 343.097 0 00-9.257 6.921c-4.766 3.654-9.47 7.408-14.161 11.161zM327.979 79.136c.698-1.509 1.36-3.03 1.996-4.514 1.347-3.167 2.495-6.235 3.668-9.153a101.424 101.424 0 002.196-6.347 64.653 64.653 0 001.335-9.403c.162-1.958.436-4.988.511-6.859 0 .125-.062.262-.1.4l-.062.897v-.798l-.075.312a67.86 67.86 0 01-2.982 9.003 80.545 80.545 0 01-.349 1.721 58.007 58.007 0 01-2.907 9.802c-1.248 3.167-2.795 6.372-4.255 9.54a195.754 195.754 0 01-9.669 18.543 106.515 106.515 0 01-12.351 16.735l-.537.599-.137.137.15-.137c2.183-2.307 4.229-4.727 5.751-6.547.512-.599-.424.686.125.124.549-.561 1.497-1.858 1.996-2.494.499-.636-.337.749.25.2.287-.274.911-1.048 1.534-1.82.624-.774 1.248-1.584 1.473-1.871.748-.936.549-.599 0 .212-.549.81-1.547 2.082-2.296 3.005.274-.287 0 0-.287.412-.287.411-.711.835-.686.848.025.012.237.212 2.395-2.17.562-.586.138.1.2.15a88.389 88.389 0 008.621-12.097c1.61-2.768 3.119-5.599 4.492-8.43z" fill="#A7C1EE"/>
    <g opacity=".5" fill="#A7C1EE">
        <path opacity=".5" d="M301.529 96.532l-.1.162.1-.162zM310.661 77.166c-2.495 6.36-5.789 12.47-8.833 18.705l-.349.711c1.447-2.806 2.894-5.587 4.03-7.644.361-.698-.275.748.149.075.425-.674 1.098-2.07 1.473-2.756.374-.686-.175.798.287.15.461-.65 1.996-3.48 2.382-4.103.574-1.035.437-.661 0 .224a80.217 80.217 0 01-1.746 3.292c.449-.648-.774 1.372-.724 1.397.05.025.25.15 1.959-2.494.437-.661.15.087.225.125a82.97 82.97 0 006.45-13.194c1.771-4.626 3.319-9.265 4.716-13.792 1.148-3.741 2.495-7.919 3.543-12.159a83.173 83.173 0 002.221-12.47c.075-.748.175-1.646.274-2.581-.212.96-.461 1.958-.748 3.018-.736 2.63-1.709 5.561-2.882 8.729a272.282 272.282 0 00-1.884 4.988c-.324.873-.661 1.746-.986 2.644-.324.898-.723 1.745-1.085 2.643-.112.25-.212.5-.312.761-.449 1.384-.911 2.78-1.372 4.177-1.098 3.293-2.184 6.597-3.282 9.89-1.098 3.292-2.183 6.484-3.506 9.664z"/>
    </g>
    <g opacity=".5" fill="#A7C1EE">
        <path opacity=".5" d="M300.88 79.81c.823-2.956 1.672-5.911 2.395-8.106.225-.723-.124.773.163 0l.948-2.918c.349-.686 0 .798.312.112s1.322-3.604 1.609-4.327c.374-1.097.3-.71 0 .212-.299.923-.773 2.382-1.173 3.467.337-.698-.524 1.434-.461 1.459.062.025.249.1 1.497-2.731.324-.711.162 0 .237.087a58.518 58.518 0 001.248-3.354c.369-1.17.665-2.36.885-3.567.462-2.394.724-4.764 1.186-7.033.91-4.564 2.37-9.14 3.231-13.717.401-2.016.697-4.052.886-6.098a55.28 55.28 0 00.199-6.435 79.471 79.471 0 00-1.31-12.308c-.174-.973-.374-2.232-.611-3.454 0 3.666 0 8.093-.212 13.08a150.553 150.553 0 01-3.144 24.305l-.175.823v.375l-.1.424a85.286 85.286 0 00-.399 1.683c-.262 1.135-.561 2.195-.836 3.305-.274 1.11-.736 2.593-1.11 3.903v.598a32.146 32.146 0 01-.873 4.839c-.4 1.609-.899 3.217-1.373 4.85a391.364 391.364 0 00-2.695 9.753c-.224.411-.287.635-.324.773z"/>
        <path opacity=".5" d="M313.157 6.56c-.2-1.048-.412-1.983-.587-2.781.462 5.112.874 10.225 1.248 15.363.399 6.659.699 13.38.711 20.027a78.539 78.539 0 01-.549 9.864 73.969 73.969 0 01-2.071 9.665c-.836 3.154-1.659 6.31-2.495 9.477.486-1.546.96-3.093 1.397-4.639.686-2.332 1.248-4.689 1.822-7.02.249-1.248.524-2.383.748-3.517.1-.574.212-1.135.312-1.709l.087-.424V50.405l.138-.86a116.924 116.924 0 001.372-25.315c-.1-1.846-.225-3.617-.387-5.288a106.512 106.512 0 00-.561-4.75c-.225-2.969-.724-5.463-1.185-7.633z"/>
    </g>
    <path opacity=".5" d="M294.841 69.833c0-.773.163.786.175 0 0-.399-.075-.985-.112-1.57l-.15-1.56c0-.785.299.761.324 0a18.077 18.077 0 00-.199-2.37c-.112-.972-.287-1.944-.312-2.343-.162-1.173 0-.799.137.174.137.973.424 2.494.524 3.741 0-.399 0 0 .087.486.002.365.04.728.113 1.085.112 0 .324 0 .162-3.217 0-.81.175 0 .249 0a68.527 68.527 0 00-2.645-13.28l-.823-1.896a65.262 65.262 0 00-3.306-6.235 94.774 94.774 0 00-7.486-10.762 72.261 72.261 0 00-8.11-8.53 55.555 55.555 0 00-7.985-5.923 57.248 57.248 0 00-1.871-1.048 18.434 18.434 0 00-1.784-.898c-.574-.274-1.123-.548-1.659-.773h-.063a37.563 37.563 0 013.169 1.796 60.998 60.998 0 018.11 6.235c1.247 1.135 2.495 2.32 3.818 3.504a42.845 42.845 0 013.593 3.63 43.326 43.326 0 015.789 8.217 73.03 73.03 0 014.254 9.303 125.54 125.54 0 013.319 9.802 53.132 53.132 0 012.495 20.313c0 .375 0 .624-.075.786.358-2.874.446-5.776.262-8.667z" fill="#A7C1EE"/>
    <g opacity=".5" fill="#A7C1EE">
        <path opacity=".5" d="M280.968 44.057l.074.137-.074-.137zM228.667 13.144h-.138l.2-.075-.062.075zM286.856 68.761c-.112-.898.225.886.175 0-.05-.885-.349-2.694-.511-3.579-.163-.885.349.86.324 0a21.675 21.675 0 00-.412-2.694c-.212-1.122-.486-2.22-.549-2.668-.299-1.334-.149-.91.15.187.374 1.396.67 2.811.886 4.24 0-.91.274 1.808.337 1.796.062-.013.137 0 .137-.474a21.526 21.526 0 00-.25-3.218c-.112-.922.163 0 .237 0a41.86 41.86 0 00-2.133-8.255 46.602 46.602 0 00-3.818-7.856 64.73 64.73 0 00-10.904-13.181c-3.356-3.155-7.124-6.51-11.104-9.652a56.627 56.627 0 00-11.079-6.946 60.964 60.964 0 019.058 4.664 71.368 71.368 0 0112.576 10.05 111.35 111.35 0 0110.605 12.471l.387.499c-1.448-2.045-2.957-4.028-4.068-5.525-.374-.486.474.437.15-.1-.324-.536-1.123-1.483-1.51-1.97-.386-.486.549.362.262-.2a3.642 3.642 0 00-.249-.41 37.804 37.804 0 00-1.697-1.996c-1.622-1.833-3.244-3.541-4.99-5.175-.425-.374-.836-.76-1.248-1.147l-.649-.586-.649-.562-1.247-1.11-1.31-1.047a62.068 62.068 0 00-5.253-3.741c-.898-.536-1.759-1.097-2.645-1.596-.886-.499-1.722-.998-2.607-1.422a48.268 48.268 0 00-9.882-3.74 34.66 34.66 0 00-8.022-1.11h-1.584c-.5 0-.974.074-1.41.099-.727.036-1.452.11-2.171.224l-.761.138-.649.174h.262a23.469 23.469 0 011.56-.361c-.574.112-1.061.237-1.485.361H231c.836 0 1.759-.075 2.32-.062v.075h-2.083 2.295-1.759l.599.062c.412 0 .861.075 1.335.15l1.522.25a39.243 39.243 0 017.486 2.12 51.497 51.497 0 018.846 4.588 65.42 65.42 0 019.282 7.233l1.161 1.072c.374.362.761.736 1.135 1.123l.574.56.561.574 1.161 1.248.573.635c1.011.948 2.022 1.908 3.007 2.894a65.506 65.506 0 0113.812 18.942 50.135 50.135 0 013.443 11.223 98.01 98.01 0 011.385 11.822c0 .436 0 .71.062.91-.224-3.704-.549-7.32-.861-10zm-52.188-55.68h-1.497 1.834c.474 0 .935 0 1.397.1.462.1 1.036.125 1.472.212v.087c-.923-.187-2.071-.311-3.206-.399z"/>
    </g>
    <path opacity=".5" d="M270.912 101.408v.611c0-2.407-.262-4.788-.412-6.572-.062-.586.175.587.175 0 0-.586-.175-1.783-.25-2.381-.075-.599.287.573.337 0 .05-.574-.274-2.993-.262-3.592-.062-.898 0-.61.125.137.125.748.237 1.933.312 2.831 0-.598.087 1.247.149 1.247.063 0 .287 0 .287-2.494 0-.598.163 0 .25 0a100.345 100.345 0 00-1.248-11.11 67.357 67.357 0 00-.711-4.016l.312 1.01 2.395 7.731c.774 2.57 1.548 5.163 2.171 7.732l.075.337c0-.749-.125-1.51-.199-2.258v-.623l-.075-.624-.15-1.247c-.1-.835-.212-1.67-.337-2.494a73.591 73.591 0 00-.898-4.988 50.047 50.047 0 00-1.248-4.8c-.499-1.572-.998-3.106-1.609-4.59a43.829 43.829 0 00-4.317-8.155 34.319 34.319 0 00-2.682-3.442 36.003 36.003 0 00-2.808-2.868 30.609 30.609 0 00-5.664-4.066 26.75 26.75 0 00-4.891-2.082l-.723-.212a24.665 24.665 0 013.131 1.733 34.56 34.56 0 014.779 3.953 61.383 61.383 0 00-2.271-1.958c-.749-.61-1.647-1.384-2.62-2.032a9.55 9.55 0 00-2.595-1.247c.583.233 1.146.512 1.684.835a16.23 16.23 0 00-2.582-1.11 8.849 8.849 0 00-2.396-.399l.175.075.985.112a9.02 9.02 0 012.072.624v.087a12.212 12.212 0 00-2.059-.636c-.262 0-.537-.087-.811-.112.96.435 1.893.927 2.795 1.472a32.17 32.17 0 018.496 7.482 33.874 33.874 0 012.134 2.918c.698 1.035 1.334 2.145 1.946 3.254l.474.948.125.225.062.124v.063l.212.449a30.908 30.908 0 011.971 3.628 26.528 26.528 0 011.31 3.492c.362 1.247.649 2.494.924 3.741a2295.87 2295.87 0 011.672 7.744 99.398 99.398 0 012.283 15.513zm-5.702-35.964a.865.865 0 010-.125c-.225-.636-.1-.449.15 0l.274.636-.424-.511zm2.109 3.591c-.238-.474-.5-.935-.762-1.396 0-.175-.062-.412-.124-.724.436.808.824 1.64 1.16 2.494l.287.786a17.054 17.054 0 00-.561-1.16z" fill="#A7C1EE"/>
    <path d="M104.028 73.213a333.778 333.778 0 0154.122 70.444c6.114 10.563 11.753 21.387 17.105 32.348 7.574 15.463 5.939 16.835-1.434 1.734-5.44-11.224-11.229-22.21-17.467-32.984a331.324 331.324 0 00-53.699-70.02c-.935-.924.437-2.495 1.373-1.522z" fill="#B3CDFA"/>
    <path d="M164.513 92.467l-.898 1.035c-.437.561-.998 1.16-1.597 1.808-.599.649-1.248 1.334-1.934 2.07l-1.085 1.073c-.375.374-.749.748-1.148 1.11-.399.361-.799.748-1.248 1.109l-1.247 1.11-.649.549c-.661.561-1.31 1.122-2.009 1.646-.886.736-1.834 1.409-2.732 2.107l-2.745 1.983c-.886.649-1.772 1.247-2.595 1.833l-2.395 1.634-2.022 1.409-.848.599-.724.523-.124.1a1.547 1.547 0 00-.362.399c-.034.06-.064.123-.088.187-2.907 1.409-5.676 2.893-8.446 4.315l-4.242 2.157-2.121 1.06c-.699.362-1.41.674-2.096.985-.686.312-1.372.599-2.059.848-.349.125-.698.25-1.035.35l-.499.137-.537.149c-.698.15-1.41.287-2.146.374-.741.097-1.486.155-2.233.175h-2.321l-2.383-.1-2.495-.149c-.811 0-1.647-.1-2.495-.1.724.424 1.46.81 2.208 1.172.749.362 1.51.673 2.296.985a24.182 24.182 0 005.015 1.335c1.758.262 3.545.262 5.303 0l.649-.1c.224 0 .474-.087.686-.15.436-.1.873-.212 1.247-.337a23.116 23.116 0 002.496-.922c.798-.325 1.547-.724 2.295-1.11a31.317 31.317 0 002.159-1.247 46.145 46.145 0 004.142-2.769 40.378 40.378 0 006.862-6.434.391.391 0 00.287.1.301.301 0 00.112 0h-.125a.293.293 0 010-.125l.188-.225-.088-.099c.135-.077.283-.128.437-.15.499-.1 1.148-.237 1.846-.412.699-.174 1.535-.449 2.421-.723.886-.274 1.821-.648 2.795-1.047a28.822 28.822 0 003.019-1.447 37.173 37.173 0 006.113-3.99c.986-.761 1.909-1.622 2.807-2.494a30.138 30.138 0 002.496-2.682 13.65 13.65 0 001.06-1.371c.325-.474.661-.91.948-1.372a27.48 27.48 0 001.473-2.656c.199-.424.399-.823.573-1.247.175-.424.287-.798.425-1.16.234-.588.426-1.193.574-1.808.249-1.035.361-1.659.361-1.659s-.424.462-1.098 1.247l-.424.412zM140.085 63.374a51.267 51.267 0 00-2.907 2.955 92.707 92.707 0 00-1.809 2.07l-.662.761-1.247 1.422a27.974 27.974 0 01-2.109 2.107l-.062.062-.162.138-.312.261c-.212.163-.45.387-.624.5-.387.286-.749.573-1.248.86-.836.598-1.759 1.122-2.657 1.683l-2.77 1.621-.175.1-.786.474c-.337.212-.686.424-1.01.648a28.096 28.096 0 00-2.907 2.095 20.962 20.962 0 00-1.759 1.659c-.424.456-.812.944-1.161 1.459a.584.584 0 00-.112.15 2.466 2.466 0 00-.299.448.867.867 0 00-.063.6.155.155 0 000 .111.33.33 0 00.137.15h.113v-.212a.522.522 0 01.224-.3l.549-.286c.424-.237.948-.486 1.535-.773a24.91 24.91 0 012.058-.898c1.523-.624 3.307-1.247 5.265-2.095.986-.412 2.009-.848 3.032-1.372a26.66 26.66 0 003.069-1.783 22.921 22.921 0 001.51-1.147c.23-.176.447-.367.649-.574l.312-.287.149-.137.088-.087.087-.088a19.71 19.71 0 002.208-2.73 31.286 31.286 0 001.635-2.72c.449-.86.848-1.683 1.247-2.493a55.834 55.834 0 001.61-3.816c.312-.835.474-1.372.511-1.484l-.499.411-.648.537zM121.969 52c-.15.263-.3.55-.462.849-.162.3-.337.623-.524.96-.337.661-.748 1.372-1.148 2.108-.399.735-.86 1.521-1.247 2.331l-2.87 4.989-1.522 2.606c-.486.848-.961 1.683-1.41 2.494a94.904 94.904 0 00-2.383 4.602 45.979 45.979 0 00-1.06 2.344c-.175.411-.312.773-.437 1.097-.125.325-.287.773-.374 1.01l-.112.362s.411-.287 1.06-.823a34.236 34.236 0 002.782-2.494 43.408 43.408 0 003.481-3.978c.587-.76 1.248-1.559 1.759-2.42.512-.86 1.098-1.733 1.647-2.618a22.199 22.199 0 001.423-2.756c.411-.935.835-1.883 1.247-2.793.412-.91.636-1.834.849-2.706.228-.82.407-1.653.536-2.494.151-.758.255-1.524.312-2.295.028-.552.028-1.106 0-1.658v-1.41s-.287.45-.711 1.247c-.1.212-.225.437-.35.674-.124.237-.349.499-.486.773zM182.791 110.873c-.112.237-.262.536-.461.873a11.35 11.35 0 01-.774 1.11l-.324.399c-.237.274-.499.561-.786.848-.287.287-.587.586-.911.898l-2.059 1.983-.075.074-.237.237-2.133 2.083a243.571 243.571 0 00-4.991 5.088l-2.495 2.618c-.836.848-1.647 1.721-2.433 2.494a248.894 248.894 0 00-4.267 4.639 86.58 86.58 0 00-2.932 3.442c-.686.861-1.073 1.372-1.073 1.372a37.206 37.206 0 005.552-2.993 56.877 56.877 0 005.203-3.741 66.54 66.54 0 002.745-2.369c.911-.836 1.796-1.721 2.682-2.607a39.061 39.061 0 002.495-2.756c.774-.935 1.585-1.87 2.296-2.805a74.558 74.558 0 001.996-2.744 41.667 41.667 0 001.66-2.569 16.96 16.96 0 001.172-2.419c.249-.656.42-1.338.512-2.033.043-.443.043-.89 0-1.334 0-.299-.062-.461-.062-.461l-.175.436-.125.237z" fill="#D1E1FC"/>
    <path d="M162.193 82.379s-.4.51-1.023 1.421l-.25.35c-.274.36-.586.772-.886 1.246l-1.584 1.983-.861 1.11-.948 1.172c-.325.4-.662.81-1.011 1.247-.349.437-.711.836-1.085 1.247-.375.412-.736.836-1.123 1.247-.387.412-.786.836-1.248 1.247-.461.412-.811.823-1.247 1.247-.437.424-.836.823-1.248 1.247-.848.81-1.747 1.572-2.633 2.332-.449.362-.873.748-1.322 1.098l-1.335 1.035c-.449.336-.886.648-1.248.985l-1.247.91-1.248.873-1.248.86c-.187.138-.386.275-.561.424l-.823.674-.662.598-.399.412a8.782 8.782 0 00-.961 1.147c-.26.358-.481.743-.661 1.147l-.175.424.362-.286c.225-.175.587-.412 1.036-.699a23.163 23.163 0 013.98-1.833c.848-.324 1.809-.661 2.807-1.097l1.547-.723c.512-.262 1.036-.562 1.56-.848a33.775 33.775 0 006.088-4.502 31.094 31.094 0 002.657-2.806c.425-.461.811-.973 1.248-1.472.437-.498.736-.985 1.061-1.484a29.562 29.562 0 001.796-2.98c.237-.499.487-.973.711-1.446l.587-1.372c.362-.885.611-1.733.848-2.494.237-.76.374-1.41.474-1.958.2-1.085.275-1.72.275-1.72v.037zM145.761 122.408s.587 0 1.585-.175a49.418 49.418 0 004.067-.76 75.504 75.504 0 005.602-1.497 56.62 56.62 0 003.107-1.047 39.556 39.556 0 003.231-1.384 22.565 22.565 0 003.094-1.896c.25-.187.487-.361.736-.573l.362-.312.299-.275c.441-.39.857-.807 1.248-1.247a19.458 19.458 0 003.182-5.262c.52-1.295.937-2.63 1.247-3.991.237-.985.325-1.571.325-1.571l-.163.175c-.174.199-.486.548-.885 1.022-.4.474-1.123 1.347-1.847 2.233-.249.286-.499.598-.761.922a33.95 33.95 0 01-3.743 3.916c-.349.299-.723.611-1.11.885l-.325.25-.287.187-.598.399c-.865.551-1.76 1.05-2.683 1.496-.462.25-.936.474-1.422.699l-1.46.673-2.932 1.334-1.659.823c-1.248.636-2.433 1.247-3.469 1.858a456.384 456.384 0 00-2.495 1.484 23.13 23.13 0 00-1.085.736c-.624.424-1.036.736-1.248.873l.087.025z" fill="#D1E1FC"/>
    <path d="M176.803 107.319c-.412.611-.911 1.247-1.423 2.02-.511.773-1.11 1.496-1.759 2.282-.312.399-.649.786-.998 1.185s-.686.81-1.086 1.247c-.736.81-1.547 1.584-2.358 2.382l-1.247 1.147-1.323 1.097-1.372 1.06-1.41.985c-.462.325-.948.611-1.41.923-.461.312-.96.549-1.422.848-.462.299-.948.511-1.41.761-.449.257-.911.49-1.385.698-.911.449-1.784.848-2.645 1.247-.861.399-1.647.748-2.345 1.123l-.587.336c-.436.262-.811.524-1.135.761a7.02 7.02 0 00-.986.86l-.312.337.437-.137.512-.15.698-.174c1.048-.237 2.496-.424 4.342-.661a26.946 26.946 0 003.032-.586 14.461 14.461 0 001.659-.474c.562-.187 1.123-.374 1.684-.624a26.573 26.573 0 003.382-1.758c.536-.349 1.098-.673 1.634-1.048l1.572-1.159 1.485-1.247c.486-.437.923-.911 1.372-1.36a27.103 27.103 0 002.383-2.918c.356-.48.685-.98.986-1.496.311-.478.594-.974.848-1.484.25-.499.512-.973.711-1.459.2-.486.387-.948.562-1.397.529-1.445.91-2.941 1.135-4.464.1-.811.137-1.384.15-1.609v-.124s-.362.536-.923 1.484c-.287.399-.687.922-1.048 1.546zM196.054 138.881l-.799.225-.349.099c-.973.3-2.358.774-3.968 1.447a58.486 58.486 0 00-5.327 2.494 48.63 48.63 0 00-2.895 1.634c-.96.586-1.946 1.247-2.907 1.808-.96.561-1.909 1.247-2.819 1.958-.911.71-1.809 1.346-2.658 2.045a30.312 30.312 0 00-4.304 4.277c-.275.362-.537.698-.774 1.035-.237.337-.449.661-.636.973a24.46 24.46 0 00-.499.873l-.387.798c-.1.206-.187.419-.262.636a4.686 4.686 0 00-.174.486l-.138.399h.088l.237-.212.149-.137.712-.574c.386-.324.86-.698 1.409-1.11.549-.411 1.173-.86 1.859-1.321 1.373-.948 3.007-1.971 4.791-3.056.899-.548 1.822-1.109 2.77-1.708s1.896-1.247 2.845-1.821a123.93 123.93 0 0010.093-7.382 61.37 61.37 0 003.157-2.768c.736-.699 1.147-1.148 1.147-1.148h-.112l-.249.05zM182.03 122.209c-1.248 1.434-2.495 3.167-3.868 5.062l-2.046 2.869c-.686.972-1.372 1.957-2.096 2.893-.723.935-1.447 1.87-2.171 2.756l-1.11 1.247-1.16 1.247a29.944 29.944 0 01-4.579 3.741c-.374.249-.736.474-1.086.673a22.69 22.69 0 01-1.01.574l-.923.461-.811.362c-.499.187-.899.374-1.173.461l-.437.162.462.075c.413.06.83.097 1.247.112.689.009 1.377-.033 2.059-.124a16.266 16.266 0 002.633-.599 19.96 19.96 0 005.963-3.192l.761-.599.674-.586a23.93 23.93 0 001.397-1.372 33.321 33.321 0 002.496-2.955 42.621 42.621 0 002.133-3.168 75.442 75.442 0 001.809-3.155 90.11 90.11 0 002.795-5.723 63.545 63.545 0 001.697-4.228c.374-1.035.549-1.671.549-1.671s-.474.437-1.248 1.247c-.774.811-1.759 1.933-2.957 3.43zM183.228 158.634l-.424-.125c-.55-.161-1.108-.29-1.672-.386a17.296 17.296 0 00-3.269-.25 14.776 14.776 0 00-3.044.35c-.894.194-1.768.473-2.608.835-.387.187-.748.362-1.085.549l-.474.299-.45.274-.474.375a9.109 9.109 0 00-.848.76l-.237.237c-.225.237-.374.462-.499.599l-.15.212-.075.099.362-.124.699-.225.324-.099c.412-.125.936-.237 1.497-.362l.949-.162 1.035-.112a21.84 21.84 0 014.828.149c.874.112 1.747.312 2.645.511l1.248.375c.362.099.961.336 1.335.461a58.559 58.559 0 019.495 4.988c1.247.798 2.495 1.472 3.243 1.933.749.461 1.248.698 1.248.698l-.175-.336c-.137-.225-.299-.562-.549-.948a26.193 26.193 0 00-5.302-6.235l-.911-.761a25.596 25.596 0 00-2.632-1.771 23.007 23.007 0 00-3.007-1.434 6.869 6.869 0 00-1.023-.374zM189.304 123.817l-.973 1.783c-.375.686-.811 1.447-1.248 2.27a98.44 98.44 0 01-3.381 5.437 78.199 78.199 0 01-2.046 2.906 55.252 55.252 0 01-2.258 2.893c-.786.935-1.585 1.883-2.396 2.781a49.04 49.04 0 01-2.495 2.568 28.945 28.945 0 01-2.408 2.183 17.034 17.034 0 01-2.371 1.621c-.368.219-.746.419-1.135.598-.387.187-.749.35-1.11.499l-1.448.611-.424.162-.374.15-1.086.436-.187.088s.599.075 1.647.112h.162c.703.042 1.407.042 2.109 0a13.947 13.947 0 002.77-.436 14.375 14.375 0 003.156-1.247 22.47 22.47 0 003.119-2.021c.512-.399.986-.798 1.472-1.247.487-.449.974-.848 1.435-1.322a35.569 35.569 0 002.708-2.943 36.177 36.177 0 002.358-3.229 31.533 31.533 0 001.921-3.355 31.996 31.996 0 002.495-6.36c.125-.486.25-.947.337-1.384l.237-1.247c.15-.785.2-1.509.275-2.07.075-.561 0-1.035 0-1.334v-.512.113c-.175.224-.524.735-.861 1.496zM169.304 94.587v.075l-.412.56a18.27 18.27 0 00-.499.787c-.174.286-.174.286-.262.448-.449.774-.935 1.696-1.484 2.657l-.162.286v.075l-.1.15-.387.623c-.246.434-.521.851-.823 1.247-.163.237-.362.487-.562.736l-.337.424c-.174.225-.362.437-.549.649l-.486.523a31.954 31.954 0 01-1.722 1.709l-.624.561-1.247 1.072-.674.512-.699.498c-.923.674-1.896 1.248-2.869 1.884-.974.635-1.947 1.147-2.92 1.671-.973.523-1.921.997-2.845 1.434l-1.247.598-.948.437-.474.224-.637.312c-.589.292-1.153.634-1.684 1.022a6.22 6.22 0 00-1.522 1.497 3.472 3.472 0 00-.636 1.683l.274-.324c.155-.154.317-.299.487-.436l.436-.312a11.68 11.68 0 013.968-1.135c.886-.15 1.934-.337 2.982-.611a28.375 28.375 0 003.281-1.035 17.65 17.65 0 001.697-.686l.861-.386.723-.537a27.556 27.556 0 003.306-2.02 19.784 19.784 0 001.547-1.247c.512-.449.974-.86 1.448-1.247a22.484 22.484 0 002.495-2.905 17.22 17.22 0 00.986-1.547c.3-.508.57-1.032.811-1.571a11.54 11.54 0 00.598-1.521 8.53 8.53 0 00.225-.699l.137-.386.088-.362c.237-.948.361-1.796.486-2.494.125-.698.212-1.334.3-1.858.187-1.06.336-1.671.336-1.671a3.51 3.51 0 00-.311.337l-.35.299zM158.213 78.787l-.113.112-.137.125-.199.187-.1.087-.399.4-.262.274a63.02 63.02 0 00-2.957 3.292l-.899 1.072c-.91 1.123-1.896 2.32-2.982 3.43-.361.361-.736.723-1.122 1.072 0 .063.074 0 0 0h-.088l-.162.137-.337.287c-.224.162-.461.412-.661.536a30.456 30.456 0 01-2.682 1.759c-.475.287-.974.56-1.473.835l-1.509.798-1.784.923-1.248.648a48.817 48.817 0 00-2.882 1.61c-.487.286-.961.585-1.397.885-.275.174-.524.361-.774.536l-.337.224-.549.437-.524.399c-.324.274-.624.56-.911.81-.481.456-.935.939-1.36 1.447-.349.411-.586.785-.761 1.01l-.249.374s.586-.274 1.522-.748c.487-.2 1.048-.486 1.722-.748.673-.262 1.422-.574 2.245-.886l5.727-2.008a39.702 39.702 0 006.65-2.942 23.239 23.239 0 003.219-2.295 17.836 17.836 0 002.495-2.756 29.069 29.069 0 003.119-5.599 73.17 73.17 0 001.622-4.115l.137-.362c.262-.785.387-1.247.387-1.247h.013zM133.647 56.503a7.708 7.708 0 01-.524.648l-.624.71c-.412.525-.923 1.073-1.472 1.684-.549.611-1.248 1.247-1.797 1.908-.549.661-1.347 1.36-2.096 2.045l-2.271 2.158-2.408 2.194-2.407 2.245c-.811.748-1.572 1.51-2.321 2.257a50.037 50.037 0 00-3.88 4.328c-.537.673-1.011 1.246-1.398 1.882a9.982 9.982 0 00-.998 1.647 1.485 1.485 0 000 1.334.502.502 0 00.275.2h.112a.613.613 0 01-.137-.188.47.47 0 010-.15.37.37 0 010-.161.63.63 0 010-.138.823.823 0 01.125-.187l.174-.2c.25-.249.861-.548 1.41-.934l1.909-1.248a86.095 86.095 0 009.769-7.556c.836-.761 1.659-1.584 2.495-2.395.836-.81 1.51-1.67 2.171-2.494.661-.823 1.248-1.746 1.822-2.581.489-.807.935-1.64 1.335-2.494.351-.722.652-1.468.898-2.232.202-.579.365-1.17.487-1.771.199-.985.262-1.571.262-1.571s-.3.262-.911 1.06z" fill="#D1E1FC"/>
    <path d="M126.772 99.213s.562-.087 1.522-.324a27.297 27.297 0 003.868-1.247c.786-.3 1.622-.673 2.495-1.097.874-.424 1.76-.898 2.67-1.422a31.273 31.273 0 002.72-1.758 99.55 99.55 0 002.658-2.008c.885-.686 1.709-1.447 2.495-2.22a55.298 55.298 0 002.233-2.332 29.086 29.086 0 001.921-2.344c.574-.786 1.098-1.509 1.548-2.22a27.348 27.348 0 001.971-3.554c.412-.885.611-1.434.611-1.434s-.474.324-1.247.935l-.3.237-1.073.848-1.734 1.397-9.033 7.482-9.095 7.445-1.722 1.422-1.322 1.147c-.562.474-.924.823-1.073.972a.35.35 0 00-.113.075zM145.811 67.925l-.125.125c-.124.15-.311.35-.524.574l-.224.25-.549.56-.649.636-.736.699-.848.735c-.574.512-1.248 1.035-1.934 1.572a65.25 65.25 0 01-2.233 1.646 50.639 50.639 0 01-2.496 1.658l-2.62 1.684-2.607 1.746a57.864 57.864 0 00-2.57 1.783 36.913 36.913 0 00-4.317 3.629 23.395 23.395 0 00-3.506 4.315s.524-.225 1.385-.637c.861-.411 2.096-1.022 3.518-1.745l4.853-2.494a85.505 85.505 0 002.72-1.472 81.909 81.909 0 002.782-1.67l1.373-.924c.461-.311.911-.66 1.335-.972.87-.656 1.703-1.36 2.495-2.108a22.458 22.458 0 003.743-4.502 15.683 15.683 0 001.659-3.74c.066-.214.12-.43.163-.65 0-.186 0-.336.087-.473.087-.137 0-.387 0-.387l-.175.162zM148.643 72.44l-.237.324c-.249.337-.549.71-.861 1.11l-.711.835c-.249.287-.524.586-.811.886-.287.299-.586.61-.91.922-.325.312-.649.611-.999.91l-.536.462c-.549.45-1.135.898-1.747 1.322a28.034 28.034 0 01-2.595 1.571c-.923.474-1.909.923-2.957 1.372-1.048.449-2.108.91-3.169 1.459a23.303 23.303 0 00-3.069 1.796 22.734 22.734 0 00-4.629 4.24 19.103 19.103 0 00-1.459 2.007l-.287.462c-.262.436-.474.848-.649 1.247 0 .112-.112.224-.175.349a1.92 1.92 0 00-.125.399.637.637 0 00.075.399.375.375 0 00.275.2.336.336 0 00.362-.113v-.124a.095.095 0 01.008.037.096.096 0 01-.008.037.138.138 0 01-.1 0 .224.224 0 01-.112 0 .195.195 0 010-.112v-.075l.124-.112.225-.174c.823-.624 1.971-1.497 3.368-2.494a46.636 46.636 0 014.891-2.869 27.326 27.326 0 012.87-1.247l3.156-1.322a27.627 27.627 0 003.257-1.658 18.33 18.33 0 002.932-2.22 18.06 18.06 0 003.855-5.088c.371-.754.688-1.533.948-2.332.189-.588.339-1.188.449-1.795.083-.412.137-.828.162-1.247v-.437l-.262.35c0-.026-.262.311-.549.723zM94.958 75.37a26.47 26.47 0 003.044.948c.928.219 1.87.373 2.819.461.804.085 1.613.11 2.421.075.615-.03 1.227-.097 1.834-.2.391-.062.778-.145 1.16-.249l.399-.112-.399-.125-.624-.187v-.511c.043-.165.106-.324.188-.474.257-.409.572-.779.935-1.097.212-.212.424-.4.699-.636.274-.237.561-.512.836-.798a17.855 17.855 0 003.181-4.614c.463-.95.851-1.934 1.161-2.943a23.1 23.1 0 00.761-3.168c.075-.523.162-1.135.199-1.62v-1.597a27.997 27.997 0 00-.075-3.093 28.598 28.598 0 00-.948-5.337 25.495 25.495 0 00-1.247-3.604c0-.075 0-.15-.088-.212-.274-.623-.474-.997-.511-1.085 0 0-.088.536-.175 1.447V47c0 .262 0 .55-.087.86 0 .575-.088 1.248-.137 1.934v.573c-.1 1.522-.188 3.268-.337 5.1-.05.886-.175 1.896-.175 2.77l-.175 1.42c0 .537-.137.936-.212 1.41-.15.948-.349 1.87-.549 2.78-.199.911-.436 1.809-.698 2.657-.138.424-.262.835-.412 1.247a33.186 33.186 0 01-1.398 3.33 5.404 5.404 0 01-.237.486l-.224.474-.112.212c-.125.25-.25.511-.35.76-.1.25-.137.374-.199.562a34.531 34.531 0 00-.25-4.053 50.632 50.632 0 00-.973-5.55c-.25-.997-.499-2.032-.824-3.067-.324-1.035-.648-2.07-.998-3.105a25.774 25.774 0 00-1.247-3.055c-.487-.998-.861-1.958-1.248-2.881a49.112 49.112 0 00-2.757-4.913 35.174 35.174 0 00-2.707-3.742l-.138-.15-.436-.498a.752.752 0 000 .112c0 .2.1.699.25 1.41.199.96.498 2.294.91 3.878.412 1.583.936 3.392 1.547 5.312.3.96.624 1.945.96 2.955l.375 1.06.674 1.958a166.393 166.393 0 001.659 4.452l.561 1.434c.737 1.87 1.485 3.604 2.159 5.088.674 1.484 1.247 2.719 1.759 3.579 0 .125.112.224.162.324v.075c.046.072.088.147.125.225l.125.212.112.187c-.016.376.089.747.299 1.06h-.199a53.627 53.627 0 01-1.66-.562l-.998-.374c-.349-.137-.711-.274-1.073-.436-.361-.162-.761-.324-1.16-.511a43.77 43.77 0 00-1.248-.562c-.823-.399-1.671-.86-2.495-1.346-.823-.487-1.759-1.01-2.645-1.56a57.174 57.174 0 01-2.67-1.733 42.157 42.157 0 01-1.36-.897l-1.247-.91-2.583-1.809-4.641-3.305c-1.36-.972-2.495-1.783-3.344-2.332a68.603 68.603 0 01-1.322-.872c.2.48.426.95.673 1.409a28.922 28.922 0 002.334 3.516 35.524 35.524 0 003.905 4.353 32.883 32.883 0 002.495 2.182c.449.361.873.71 1.36 1.06l1.41.985a33.009 33.009 0 002.981 1.783c1.012.53 2.054 1 3.12 1.41zM87.646 79.81c.525.212 1.049.411 1.647.623 1.132.381 2.286.694 3.456.935 1.124.245 2.261.42 3.406.524 2.049.192 4.112.15 6.151-.124a30.077 30.077 0 002.383-.412c.711-.15 1.248-.35 1.797-.499.549-.15.873-.312 1.123-.399l.399-.162s-.587-.112-1.597-.25l-1.847-.236a75.4 75.4 0 01-2.283-.374 79.013 79.013 0 01-2.632-.5c-.924-.186-1.91-.41-2.907-.635-.998-.225-2.009-.511-3.032-.798a48.738 48.738 0 01-3.07-.96c-.486-.15-1.022-.35-1.559-.537l-1.497-.56-.474-.188-2.495-.998c-1.947-.798-3.83-1.52-5.465-2.07l-.711-.237-1.086-.361-.61-.187c-.637-.187-1.248-.337-1.685-.45h-.125l-.699-.174-.337-.062-.424-.087.138.124.087.088h.062l.1.087.075.075.1.087c.137.125.3.274.486.424.786.66 1.922 1.571 3.332 2.569s3.056 2.12 4.99 3.217a35.839 35.839 0 003.007 1.584c.699.411 1.21.648 1.796.923zM92.7 97.093c1.754.145 3.516.19 5.277.138.96 0 1.959-.088 2.957-.175a87.472 87.472 0 003.044-.337c1.011-.124 2.034-.3 3.019-.511.986-.212 1.972-.412 2.907-.648a48.716 48.716 0 004.991-1.572 35.473 35.473 0 003.967-1.708c.387-.2.637-.35.749-.412 0 0-.537 0-1.46-.1-.923-.1-2.208 0-3.743 0-.836 0-1.746.075-2.707.138l.848-.325a21.784 21.784 0 002.096-1.047c.517-.301 1.017-.63 1.497-.985l.25-.2.187-.137a.87.87 0 01.162-.137l.138-.112.112-.1.287-.324.137-.112s-.586.074-1.522.249c-.474.087-1.061.125-1.709.237l-1.248.137-.886.087c-.798 0-1.634.138-2.495.162h-5.814l-1.56-.062h-1.572c-4.217-.212-8.546-.461-11.877-.3-1.36.036-2.712.195-4.043.475a10.76 10.76 0 00-1.51.424l.95.249.336.087h.2l3.742 1.073a56.79 56.79 0 005.478 1.247c1.01.2 2.07.361 3.156.486a43.39 43.39 0 002.62.25c-.698.112-1.397.237-2.07.374a88.37 88.37 0 00-5.079 1.11 44.74 44.74 0 00-3.593 1.047l-.661.212a9.96 9.96 0 00-.711.274c1.69.428 3.414.712 5.152.848zM91.926 106.808H92.575l.262.1.324.137c.545.228 1.103.424 1.672.586.767.335 1.555.623 2.358.86.888.192 1.789.325 2.695.399.96.113 1.983.125 3.031.15a32.512 32.512 0 003.257-.212c1.11-.1 2.208-.337 3.319-.536 1.11-.2 2.195-.537 3.243-.923a28.353 28.353 0 003.032-1.247c.942-.41 1.862-.868 2.757-1.372a23.673 23.673 0 002.259-1.509l.96-.723.824-.723c.44-.391.856-.807 1.247-1.247.674-.724 1.023-1.16 1.023-1.16l-1.247.411h-.15c-.449.175-1.01.337-1.634.562l-.986.336c-.349.125-.711.25-1.098.362-.748.274-1.572.524-2.495.798l-.811.262c-.611.187-1.248.362-1.884.574-.948.249-1.896.536-2.895.773-.998.237-1.983.486-2.981.735-.999.25-2.022.437-3.02.612h-.199c-.936.187-1.859.324-2.758.486a43.25 43.25 0 01-2.794.399c-.899.1-1.747.237-2.495.312-.75.074-1.523.187-2.171.249-.65.062-1.248.15-1.722.187a19.72 19.72 0 00-1.535.187l-.037.175zM98.102 114.514h.237l.561.063h.112c.462 0 1.036.149 1.672.249l2.134.412c1.832.412 3.685.724 5.552.935 1.129.1 2.264.1 3.393 0l.899-.112h.511l.362-.088c.287-.074.499-.099.823-.199l.936-.274a18.128 18.128 0 003.231-1.509 21.75 21.75 0 002.745-1.921 33.394 33.394 0 004.055-4.028 51.281 51.281 0 002.495-3.105c.574-.773.899-1.247.899-1.247l-.375.15c-.352.136-.698.29-1.035.461-.674.312-1.522.761-2.495 1.322-.325.187-.662.387-1.011.611l-4.629 2.856c-.836.486-1.684.972-2.495 1.396-.851.43-1.731.801-2.633 1.11l-.623.212h-.15l-.599.137-.387.1H112l-.686.137c-.923.138-1.884.225-2.845.287-1.921.1-3.855.125-5.527.324l-.611.088c-.563.065-1.121.165-1.672.299-.589.13-1.169.301-1.734.511a4.365 4.365 0 00-.624.25l-.424.212-.337.174h.4l.162.187zM111.988 137.634h.898c.462.088 1.098.325 1.822.512.723.187 1.534.424 2.42.623 1.784.424 3.88.848 6.126 1.247 1.11.187 2.296.362 3.556.462 1.321.109 2.65.088 3.967-.063.696-.1 1.384-.25 2.059-.449l.536-.162.449-.174c.332-.129.657-.275.974-.437a16.685 16.685 0 003.219-2.095c.935-.748 1.746-1.509 2.495-2.22.748-.71 1.472-1.396 2.108-2.045 1.248-1.247 2.321-2.494 3.02-3.279.698-.786 1.085-1.335 1.085-1.335s-.599.225-1.572.686c-.973.462-2.034.96-3.381 1.696l-.586.324c-.799.449-1.66.948-2.558 1.497l-2.732 1.696a24.881 24.881 0 01-2.783 1.459l-.673.249-.412.125-.262.075c-.488.127-.984.223-1.485.286-1.075.137-2.16.191-3.244.163l-3.406-.1h-6.238c-.911 0-1.759.112-2.495.174l-.911.075c-.387 0-.736.087-1.085.15a2.135 2.135 0 00-1.248.673 1.086 1.086 0 00-.187.424c.098-.106.217-.19.349-.249a.643.643 0 01.175.012zM127.259 148.945l.674.087h2.083c.893-.019 1.785-.09 2.67-.212l.674-.112.611-.1c.387 0 .849-.174 1.248-.274.399-.1.873-.2 1.247-.324.375-.125.836-.225 1.248-.375.836-.249 1.647-.573 2.495-.897.849-.325 1.585-.724 2.358-1.11a20.428 20.428 0 002.246-1.335 25.45 25.45 0 002.096-1.509c.349-.261.674-.536.998-.823.325-.286.649-.561.961-.872a22.695 22.695 0 001.759-1.871c.424-.499.811-1.023 1.248-1.559l.337-.461-.425-.349-2.146 1.247-1.073.598-1.06.586a49.72 49.72 0 01-2.158 1.098c-.724.349-1.435.686-2.159.997-.723.312-1.447.624-2.183.911a69 69 0 01-2.221.81c-.749.262-1.485.474-2.233.699-.749.224-1.522.411-2.246.598l-1.135.262-1.161.237c-.773.15-1.522.262-2.258.349-.374 0-.736.075-1.11.087h-1.086a17.384 17.384 0 01-2.245-.187c-1.523-.199-3.12-.561-4.754-.885-.823-.15-1.647-.324-2.495-.449-.849-.125-1.66-.249-2.495-.324.286.199.573.399.873.586l1.247.786c.724.436 1.46.823 2.184 1.247 1.5.842 3.07 1.555 4.691 2.132a17.76 17.76 0 002.695.711zM121.832 155.23c.359-.02.719.005 1.073.075.274 0 .536.137.811.212.723.261 1.509.536 2.333.773 1.626.461 3.301.729 4.99.798.856.05 1.714.05 2.57 0 .437 0 .861-.075 1.248-.125.225 0 .387 0 .686-.1l.587-.112a24.28 24.28 0 002.495-.586c.847-.232 1.68-.511 2.495-.836.799-.286 1.572-.673 2.333-1.022.761-.349 1.51-.786 2.233-1.247.724-.462 1.435-.885 2.134-1.347.699-.461 1.36-.96 2.021-1.471a48.109 48.109 0 007.112-6.859l.087-.1.873-.96-1.31.599c-3.007 1.371-5.826 2.98-8.621 4.489-.711.362-1.397.761-2.096 1.11l-1.248.661-.811.399c-.686.361-1.397.673-2.096.997-.698.325-1.397.624-2.108.911-.711.286-1.422.536-2.134.81l-1.572.499-.586.162-.586.175h-.512c-.362.099-.736.187-1.11.262l-1.111.224-1.135.187c-.761.112-1.522.212-2.296.274a71.28 71.28 0 01-2.345.163c-.786.037-1.597 0-2.495 0a5.652 5.652 0 00-.649.087 3.456 3.456 0 00-1.784.773h.374l.15.125zM125.699 164.034a2.989 2.989 0 011.161-.362c.216-.012.432-.012.648 0 .786 0 1.597.112 2.496.212 1.659.175 3.343.324 4.99.449 3.443.271 6.905.187 10.331-.249a33.183 33.183 0 002.62-.487l.623-.149.662-.187c.449-.125.873-.262 1.247-.399.861-.287 1.685-.649 2.496-1.011.811-.361 1.609-.823 2.383-1.247a21.29 21.29 0 002.183-1.608c.354-.288.692-.596 1.011-.923.326-.31.635-.639.923-.985a14.617 14.617 0 001.559-2.195c.252-.435.477-.885.674-1.347.125-.299.225-.598.337-.898l.075-.199a.87.87 0 010-.125l.449-1.247-1.023 1.035c-.3.299-.562.611-.861.898-.299.287-.599.574-.911.823a19.299 19.299 0 01-1.921 1.459c-.324.237-.661.449-.998.649l-1.023.586c-.699.361-1.41.698-2.121 1.01l-1.086.449-1.11.399-1.123.361-1.135.312c-.375.1-.761.212-1.123.287l-1.173.249c-.761.175-1.56.287-2.346.424s-1.596.212-2.407.325l-2.496.274-4.99.536c-1.672.2-3.356.424-5.053.761a17.82 17.82 0 00-2.583.661 5.078 5.078 0 00-.936.474l-.286.212c-.09.072-.173.151-.25.237a2.003 2.003 0 00-.524.86c.099-.094.208-.177.324-.249l.287-.075zM166.322 163.435l-.237.212-.262.237-.337.349c-.162.175-.336.374-.499.574l-.636.773c-.212.274-.412.574-.624.898-.212.324-.436.648-.649 1.01-.212.362-.399.736-.598 1.122-.416.807-.779 1.64-1.086 2.494l-.224.699a19.563 19.563 0 00-.562 2.169 19.532 19.532 0 00-.349 2.27c0 .262 0 .511-.087.773a27.544 27.544 0 000 3.068c.048.993.169 1.98.361 2.955.18.907.413 1.802.699 2.681.15.412.299.811.437 1.247.137.437.324.736.486 1.085.162.35.325.674.487.985l.274.437.25.424c.274.439.583.856.923 1.247l.2.249.224.275.474.536s0-.511-.149-1.384c-.088-.437-.125-.96-.187-1.534-.063-.574-.163-1.247-.213-1.933-.049-.686-.124-1.459-.174-2.257-.05-.798 0-1.621-.125-2.494-.125-.873 0-1.746 0-2.631 0-.886.087-1.796.125-2.694.037-.898.149-1.808.274-2.681.125-.873.25-1.758.374-2.606.125-.848.275-1.671.475-2.432.199-.761.312-1.534.499-2.207.187-.674.324-1.322.486-1.883.162-.561.25-1.035.387-1.434a.662.662 0 000-.063c0-.199.112-.386.162-.561.137-.486.2-.773.2-.773-.282.25-.548.517-.799.798z" fill="#D1E1FC"/>
    <path d="M105.35 132.284l1.048.25.362.1c.362.099.711.199 1.061.324.798.274 1.584.536 2.383.848.798.312 1.609.586 2.495.835.437.138.823.25 1.335.362.511.112.798.187 1.248.262.913.137 1.834.221 2.757.249.912.027 1.824-.002 2.732-.087a28.159 28.159 0 007.86-1.983c.412-.162.824-.336 1.248-.524l.636-.299.562-.287c.773-.374 1.584-.848 2.333-1.247.748-.399 1.484-.935 2.196-1.434a47.182 47.182 0 004.104-3.217 99.462 99.462 0 003.743-3.591l2.121-1.609-2.495 1.097-1.086.487c-.598.261-1.247.536-1.784.823-.536.286-1.247.561-1.759.848l-4.516 2.244a61.39 61.39 0 01-2.234 1.073l-1.11.511-1.123.486-.586.25-.537.224-1.123.437c-.748.286-1.509.548-2.27.785-.761.237-1.522.449-2.296.674-.773.224-1.534.361-2.32.511a30.29 30.29 0 01-2.334.337c-.786.087-1.597.149-2.345.149h-2.433l-2.495-.162h-.986a14.809 14.809 0 00-1.659 0h-.662c-.66.055-1.312.18-1.946.374l-.125-.1zM99.711 118.742h.237l.524.099c.28.06.555.14.824.237.724.266 1.432.575 2.121.923.361.187.711.349 1.122.524.412.174.724.324 1.136.474.814.306 1.648.56 2.495.76a18.6 18.6 0 005.153.562 13.726 13.726 0 002.657-.3c.882-.17 1.747-.42 2.583-.748a16.054 16.054 0 002.408-1.247c.761-.424 1.46-.923 2.146-1.397a59.191 59.191 0 003.743-3.042c1.185-1.035 2.408-2.12 3.568-3.243.973-.922 1.896-1.895 2.82-2.893a2.32 2.32 0 000 .312c.249-.349.461-.711.686-1.06l.511-.786-.985.424-.537.25c-1.248.586-2.595 1.247-3.843 1.858-1.247.611-2.819 1.546-4.179 2.382-1.36.835-2.72 1.708-4.005 2.494-.649.411-1.248.773-1.921 1.135-.674.361-1.248.648-1.897.897a13.37 13.37 0 01-1.971.649 16.56 16.56 0 01-2.071.399c-.72.092-1.445.146-2.171.162-.74.037-1.481.037-2.221 0-.748 0-1.51-.112-2.258-.187-.362 0-.761-.1-1.16-.15-.4-.05-.786-.112-1.248-.162a13.103 13.103 0 00-2.495-.137 5.113 5.113 0 00-2.496.686h.512l.212.125zM127.646 171.877c.293.107.593.194.898.262.701.161 1.415.257 2.133.287.836 0 1.735.087 2.72.1 1.972 0 4.28 0 6.75-.237 1.248-.1 2.495-.249 3.743-.437.649-.112 1.247-.199 1.946-.324l1.959-.399c1.248-.312 2.608-.623 3.868-1.047.634-.18 1.258-.393 1.871-.636.599-.237 1.248-.437 1.784-.711.537-.274 1.161-.499 1.709-.773l1.585-.836a31.98 31.98 0 002.757-1.758 24.616 24.616 0 002.159-1.746c.53-.47 1.034-.97 1.509-1.496l.075-.075c.736-.823 1.111-1.322 1.111-1.322l-.811.349-.861.399c-.13.074-.263.141-.4.2-.436.187-.948.374-1.484.623l-.661.287c-.549.225-1.148.437-1.772.698-.437.175-.911.325-1.397.512-.487.187-.974.361-1.498.511l-1.584.524-1.659.486c-1.148.312-2.309.649-3.519.948-1.21.299-2.495.586-3.68.86-1.186.275-2.496.549-3.743.811l-3.643.773a199.08 199.08 0 00-6.488 1.471c-.961.237-1.834.499-2.583.699l-.549.137c-.536.137-1.01.249-1.422.324l-1.048.137h-.736c.14.082.286.153.437.212l.187.088h.125l.212.099zM77.703 82.99l.486.249a28.75 28.75 0 004.08 1.559c1.952.589 3.94 1.051 5.951 1.384 2.184.386 4.504.686 6.837.935l1.747.15.873.075h5.253l.823-.075c.574 0 1.111-.125 1.635-.225a19.861 19.861 0 002.907-.71 18.035 18.035 0 003.992-1.66l.375-.224.361-.236.275-.188.362-.261-1.248.112h-.374c-1.036.087-2.496.212-4.192.237h-2.72l-1.46-.087h-.773l-.724-.113c-1.086-.15-2.22-.299-3.369-.411l-3.38-.374c-1.174-.113-2.334-.225-3.494-.287-1.16-.063-2.283-.137-3.381-.175-2.184 0-4.205-.087-5.951-.112H76.73s.337.212.96.536l.013-.1zM89.38 102.58l.25.075c1.524.461 3.074.832 4.641 1.11 1.95.347 3.922.563 5.902.648h3.381c1.16 0 2.32-.162 3.493-.311a33.985 33.985 0 003.481-.686 29.447 29.447 0 003.281-1.048 26.506 26.506 0 002.945-1.359 24.358 24.358 0 002.495-1.534 19.995 19.995 0 001.772-1.571 15.19 15.19 0 001.247-1.36c.265-.3.511-.616.736-.947l.25-.35-.399.163-1.073.474c-.449.212-1.023.424-1.647.686l-2.134.785a57.025 57.025 0 01-5.364 1.534c-.986.225-2.009.424-3.045.636-1.035.212-2.083.362-3.194.511-4.291.611-8.733.923-12.127 1.36-1.696.199-3.119.424-4.13.611-1.01.187-1.571.336-1.571.336l.723.237h.088zM103.554 74.822l.249.336v-.411a8.092 8.092 0 00-.162-1.16 13.577 13.577 0 00-1.335-3.94 23.314 23.314 0 00-3.468-4.802 36.904 36.904 0 00-2.296-2.344 71.823 71.823 0 00-2.495-2.22c-.861-.723-1.684-1.421-2.495-2.095-.811-.673-1.697-1.334-2.496-1.945a65.136 65.136 0 00-4.703-3.205 48.343 48.343 0 00-3.531-2.02 24.067 24.067 0 00-1.422-.673s.299.498.885 1.247c.587.748 1.435 1.92 2.496 3.192 1.06 1.272 2.395 2.706 3.867 4.165.736.736 1.51 1.471 2.309 2.207.798.736 1.634 1.46 2.495 2.195l2.495 2.083 2.395 1.982a56.949 56.949 0 012.159 1.87c.674.624 1.248 1.248 1.859 1.76a29.192 29.192 0 012.582 2.93c.25.374.487.685.612.848z" fill="#D1E1FC"/>
    <path d="M94.16 186.867a333.666 333.666 0 0174.358 48.634c9.258 7.956 18.153 16.311 26.837 24.94 12.252 12.109 11.166 13.942-.774 2.108-8.845-8.729-17.903-17.259-27.335-25.377a331.88 331.88 0 00-73.885-48.347c-1.248-.574-.4-2.494.798-1.896v-.062z" fill="#B3CDFA"/>
    <path d="M157.614 185.084c-.15.386-.325.81-.499 1.247-.237.673-.574 1.421-.911 2.232-.337.81-.749 1.671-1.135 2.594-.225.436-.449.897-.687 1.371-.237.474-.449.948-.723 1.422-.275.474-.487.973-.761 1.446-.275.474-.562.973-.836 1.472l-.437.736c-.436.735-.873 1.484-1.347 2.207-.599.985-1.248 1.933-1.884 2.893-.636.96-1.248 1.871-1.922 2.768-.673.898-1.247 1.759-1.846 2.594l-1.697 2.32c-.524.735-1.01 1.409-1.447 1.995l-.599.848-.511.748-.088.137a1.801 1.801 0 00-.212.474 1.25 1.25 0 000 .212c-2.271 2.295-4.404 4.602-6.55 6.859l-3.294 3.442-1.647 1.708c-.549.561-1.098 1.085-1.647 1.621-.548.536-1.11 1.01-1.671 1.472-.291.232-.578.457-.861.673l-.424.299-.462.312c-.611.374-1.248.736-1.896 1.06a22.1 22.1 0 01-2.059.898c-.699.299-1.435.524-2.183.773l-2.284.686-2.345.661c-.786.224-1.585.461-2.371.736.824.162 1.635.274 2.496.361.86.088 1.647.137 2.495.187a24.96 24.96 0 005.078-.336 17.631 17.631 0 004.99-1.696l.574-.3.599-.361c.374-.25.749-.499 1.11-.761a21.731 21.731 0 002.034-1.646c.649-.574 1.248-1.247 1.809-1.808.562-.561 1.086-1.247 1.635-1.871a44.036 44.036 0 002.981-3.978 39.611 39.611 0 004.355-8.342c.1.038.211.038.312 0a.285.285 0 00.087-.075h-.2l-.099-.087.112-.275-.112-.062c.102-.12.224-.222.361-.299.437-.25.998-.599 1.61-.998.611-.399 1.247-.923 2.046-1.472.798-.548 1.497-1.247 2.296-1.92.798-.673 1.584-1.496 2.37-2.357a38.97 38.97 0 004.454-5.786c.674-1.048 1.248-2.157 1.822-3.255a30.89 30.89 0 001.422-3.342c.209-.538.388-1.088.536-1.646.15-.549.325-1.072.437-1.596.232-.987.407-1.986.524-2.993 0-.474.1-.91.137-1.334.038-.424 0-.848 0-1.247a14.28 14.28 0 000-1.896c-.099-1.072-.212-1.683-.212-1.683s-.237.573-.586 1.596c-.112.012-.175.174-.237.362zM124.951 165.68a49.388 49.388 0 00-1.772 3.741c-.337.786-.674 1.634-1.023 2.494-.116.299-.241.611-.374.935-.237.574-.487 1.247-.736 1.771a29.37 29.37 0 01-1.248 2.681v.075s0-.062 0 0l-.1.175-.224.361c-.138.225-.287.512-.425.686-.262.387-.511.773-.848 1.247-.586.836-1.248 1.646-1.946 2.494l-2.059 2.432a.852.852 0 00-.137.162l-.587.698-.748.948a29.212 29.212 0 00-2.134 2.968c-.419.69-.794 1.407-1.122 2.145a13.21 13.21 0 00-.624 1.758v.175a4.431 4.431 0 00-.137.524.948.948 0 00.149.586.279.279 0 00.063.099c.051.049.117.08.187.088h0c-.075 0-.088-.075-.1-.187a.658.658 0 01.112-.362c.088-.075.275-.287.437-.461.312-.362.736-.774 1.248-1.247.511-.474 1.023-.986 1.646-1.522 1.248-1.097 2.695-2.319 4.28-3.741a44.362 44.362 0 002.395-2.282 25.877 25.877 0 002.308-2.706c.35-.474.712-1.023 1.048-1.571.188-.287.287-.512.425-.761l.199-.374.088-.187v-.262a18.423 18.423 0 001.172-3.305c.27-1.023.487-2.059.649-3.105.142-.972.254-1.883.337-2.731.175-1.683.25-3.117.262-4.127v-1.572s-.125.187-.324.562c-.2.374-.163.374-.337.698zM104.078 160.929c0 .299-.088.611-.137.947-.05.337-.113.699-.188 1.085-.099.736-.249 1.534-.386 2.37-.138.835-.312 1.72-.45 2.631l-1.06 5.686c-.175.973-.362 1.946-.536 2.906-.175.96-.35 1.908-.5 2.843a100.83 100.83 0 00-.736 5.125c-.1.96-.174 1.821-.212 2.557v2.643s.287-.411.736-1.134a34.349 34.349 0 001.784-3.317 44.215 44.215 0 001.984-4.901c.3-.923.612-1.871.849-2.868.237-.998.474-1.996.686-3.018a25.77 25.77 0 00.449-3.08c.087-1.035.162-2.033.187-3.018.025-.985 0-1.933-.087-2.843a23.758 23.758 0 00-.325-2.494 18.925 18.925 0 00-.461-2.12 13.923 13.923 0 00-.512-1.584c-.324-.861-.549-1.347-.549-1.347s-.124.524-.262 1.434c0 .225-.037.474-.112.748-.062.15-.112.449-.162.749zM180.907 196.419c0 .262-.075.599-.149.985-.094.423-.215.84-.362 1.247 0 .162-.113.324-.175.487-.062.162-.287.685-.449 1.047-.162.362-.362.761-.562 1.16l-1.247 2.494v.1l-.15.299-1.385 2.768c-.998 2.058-2.033 4.265-3.069 6.472a387.47 387.47 0 00-1.522 3.305c-.499 1.097-.986 2.17-1.46 3.205a225.57 225.57 0 00-2.495 5.786c-.711 1.721-1.248 3.18-1.635 4.215-.386 1.035-.561 1.658-.561 1.658a37.303 37.303 0 004.255-4.663 57.58 57.58 0 003.668-5.288c.611-1.01 1.247-2.057 1.796-3.142.549-1.085 1.135-2.207 1.672-3.342a52.187 52.187 0 001.485-3.442c.449-1.16.873-2.282 1.247-3.392.375-1.11.686-2.22.973-3.255.287-1.035.524-2.02.712-2.98.182-.879.286-1.772.312-2.669a8.628 8.628 0 00-.2-2.095 5.718 5.718 0 00-.412-1.247l-.224-.411v.461c-.063.062-.063.15-.063.237z" fill="#D1E1FC"/>
    <path d="M152.037 176.342s-.212.611-.499 1.671c0 .137-.075.274-.125.424-.137.436-.287.91-.437 1.446-.149.537-.474 1.509-.761 2.382-.137.437-.287.886-.436 1.347-.15.461-.337.923-.512 1.409-.174.486-.362.985-.549 1.484-.187.499-.399 1.01-.611 1.521-.212.512-.424 1.035-.661 1.559-.237.524-.462 1.048-.699 1.584-.237.536-.499 1.047-.761 1.571s-.524 1.06-.799 1.571c-.536 1.048-1.135 2.07-1.709 3.068-.312.486-.586.998-.898 1.472l-.911 1.434c-.312.461-.624.898-.911 1.359-.287.461-.624.86-.91 1.247l-.899 1.247c-.299.399-.586.815-.861 1.247l-.386.586c-.2.312-.375.611-.549.91-.175.3-.3.537-.425.786-.124.249-.174.349-.249.524-.199.458-.365.928-.499 1.409a7.24 7.24 0 00-.237 1.247v.461l.249-.386c.15-.25.425-.586.736-.998a24.996 24.996 0 013.132-2.918c.699-.586 1.497-1.247 2.296-1.97l1.247-1.185c.4-.424.786-.873 1.248-1.322a33.204 33.204 0 004.242-6.235 32.522 32.522 0 001.597-3.504c.237-.586.437-1.185.624-1.783.187-.599.374-1.172.524-1.759.25-1.136.442-2.285.574-3.441 0-.549.149-1.073.199-1.584.05-.511 0-1.023.1-1.496v-2.619c0-.773-.112-1.459-.187-2.008-.175-1.097-.312-1.721-.312-1.721l.025-.037zM149.804 219.476s.549-.224 1.447-.685a46.97 46.97 0 003.593-2.046 73.408 73.408 0 004.791-3.267c.836-.623 1.722-1.247 2.595-2.02.9-.746 1.762-1.537 2.583-2.369a20.914 20.914 0 002.295-2.819c.175-.249.337-.486.512-.773l.237-.411.187-.362c.291-.525.541-1.071.749-1.633a19.388 19.388 0 001.247-5.999 26.681 26.681 0 00-.099-4.202c-.1-1.01-.2-1.584-.2-1.584l-.1.212c-.1.237-.287.674-.511 1.247-.225.574-.612 1.634-.999 2.706-.141.366-.278.74-.411 1.123a33.906 33.906 0 01-2.234 4.988c-.237.399-.486.823-.748 1.247l-.237.336-.2.275-.436.573c-.624.773-1.248 1.547-2.034 2.295a17.74 17.74 0 01-1.123 1.122l-1.16 1.123c-.786.735-1.56 1.483-2.321 2.232l-1.248 1.322a58.487 58.487 0 00-2.657 2.905c-.774.91-1.248 1.546-1.797 2.195-.299.391-.561.74-.786 1.047-.449.611-.736 1.048-.848 1.247l-.087-.025z" fill="#D1E1FC"/>
    <path d="M174.12 195.047a87.348 87.348 0 01-.674 2.37 36.976 36.976 0 01-.91 2.731c-.163.473-.35.96-.549 1.446-.2.486-.387.998-.624 1.497-.424.997-.936 2.007-1.447 3.017l-.824 1.509-.898 1.484-.936 1.447-.998 1.396c-.337.449-.711.886-1.036 1.335-.324.449-.723.835-1.073 1.247-.349.411-.723.798-1.072 1.184-.35.387-.712.774-1.073 1.123a77.549 77.549 0 01-2.096 2.007c-.687.636-1.248 1.247-1.847 1.834-.15.174-.299.336-.437.511-.324.386-.599.761-.823 1.085a8.78 8.78 0 00-.649 1.135 6.82 6.82 0 01-.187.424s.137-.088.374-.275l.437-.299.599-.399c.898-.574 2.233-1.247 3.88-2.058.92-.462 1.812-.978 2.67-1.546.484-.306.951-.639 1.397-.998.474-.361.948-.735 1.398-1.147a28.247 28.247 0 002.632-2.694c.399-.498.824-.997 1.248-1.521l1.11-1.621.973-1.696c.312-.574.562-1.172.849-1.746a28.645 28.645 0 001.247-3.529c.175-.586.312-1.172.437-1.746a13.15 13.15 0 00.299-1.683c.063-.549.163-1.073.188-1.596l.074-1.509a22.77 22.77 0 00-.399-4.602 40.27 40.27 0 00-.399-1.571v-.112s-.162.623-.374 1.696c-.138.536-.35 1.159-.487 1.87zM202.716 218.466l-.674.474-.287.212a41.57 41.57 0 00-3.269 2.669c-1.247 1.159-2.744 2.569-4.204 4.152a73.652 73.652 0 00-2.196 2.494 95.744 95.744 0 00-2.146 2.669 58.262 58.262 0 00-2.009 2.768 68.926 68.926 0 00-1.834 2.819 29.323 29.323 0 00-2.645 5.449c-.149.424-.274.836-.386 1.247-.113.412-.212.773-.287 1.123-.075.349-.125.685-.175.997-.05.312-.075.611-.1.873-.025.262 0 .486 0 .698v.936-.1l.162-.262.1-.162c.125-.212.287-.474.462-.786.174-.311.599-.935.973-1.509.374-.573.823-1.247 1.31-1.858a117.123 117.123 0 013.518-4.464c.662-.811 1.36-1.646 2.046-2.494.687-.848 1.398-1.771 2.084-2.656a122.845 122.845 0 007.099-10.301c.886-1.471 1.597-2.743 2.059-3.653.461-.911.711-1.459.711-1.459l-.1.062-.212.062zM183.964 207.318a91.668 91.668 0 00-1.984 6.06 304.19 304.19 0 00-.973 3.38 77.635 77.635 0 01-1.035 3.429c-.375 1.123-.737 2.245-1.136 3.317l-.624 1.559-.698 1.521a29.38 29.38 0 01-3.868 6.086c-.262.312-.524.599-.774.86l-.711.749-.648.611c-.412.349-.724.648-.961.823l-.362.299.462-.087c.422-.08.839-.188 1.247-.325.65-.217 1.284-.48 1.897-.785.795-.421 1.558-.9 2.283-1.434a20.099 20.099 0 004.579-4.988c.174-.275.349-.549.511-.823l.449-.774c.337-.611.599-1.147.874-1.745a33.545 33.545 0 001.372-3.629c.387-1.247.711-2.494.973-3.679.262-1.185.487-2.419.662-3.579.361-2.307.598-4.464.748-6.335.15-1.87.2-3.442.212-4.551.013-1.11 0-1.746 0-1.746s-.299.561-.761 1.571c-.461 1.01-1.048 2.457-1.734 4.215zM197.127 241.349h-.437c-.612 0-1.16.125-1.709.2a17.082 17.082 0 00-3.169.835c-.963.349-1.887.796-2.758 1.335a13.373 13.373 0 00-2.183 1.658l-.848.861c-.113.162-.237.299-.35.436l-.324.424c-.112.175-.225.337-.325.511a9.482 9.482 0 00-.549.998 1.774 1.774 0 00-.149.299c-.137.287-.2.549-.275.724l-.075.249v.125l.312-.237c.15-.112.337-.275.587-.449l.262-.2c.349-.262.798-.536 1.247-.835l.849-.462.935-.461a19.61 19.61 0 012.159-.823 22.745 22.745 0 012.495-.624 25.852 25.852 0 012.67-.386l1.348-.075h1.409c3.58.203 7.134.733 10.618 1.584 1.509.324 2.794.598 3.743.761.948.162 1.459.224 1.459.224l-.287-.262c-.199-.162-.461-.424-.835-.711-1-.808-2.054-1.546-3.157-2.207a26.306 26.306 0 00-3.93-1.92c-.362-.15-.736-.287-1.11-.412a22.126 22.126 0 00-6.388-1.172l-1.235.012zM191.375 206.495l-.324 1.995c-.125.773-.3 1.634-.462 2.569a101.19 101.19 0 01-1.397 6.235c-.3 1.122-.637 2.27-.986 3.429a51.555 51.555 0 01-1.173 3.48c-.437 1.147-.873 2.294-1.347 3.404a71.505 71.505 0 01-1.46 3.242c-.499 1.023-.998 1.983-1.535 2.856a19.138 19.138 0 01-1.696 2.307c-.287.337-.587.648-.886.948-.3.299-.599.573-.874.835l-1.185 1.048-.337.299-.299.262c-.412.349-.711.611-.874.773l-.162.137s.587-.124 1.597-.436h.15a20.558 20.558 0 001.971-.723 14.894 14.894 0 002.496-1.322 15.185 15.185 0 002.495-2.208c.841-.913 1.6-1.898 2.27-2.943.362-.536.687-1.072.999-1.646.312-.573.636-1.134.923-1.733.599-1.172 1.098-2.419 1.584-3.666a38.377 38.377 0 001.148-3.829c.303-1.233.541-2.482.711-3.741.297-2.261.364-4.546.2-6.821 0-.486-.087-.96-.15-1.409-.062-.449-.137-.873-.199-1.247-.113-.798-.3-1.497-.425-2.058-.124-.561-.287-.985-.374-1.247l-.137-.411a.855.855 0 000 .124c-.038.063-.15.636-.262 1.497zM162.829 185.508v.074c-.067.2-.129.424-.187.674-.075.262-.15.573-.212.898-.063.324-.075.336-.1.511-.175.885-.324 1.908-.524 2.993V191.244l-.162.723c-.099.469-.229.932-.387 1.384a9.15 9.15 0 01-.287.886l-.187.511c-.092.258-.191.52-.3.786-.087.224-.187.436-.274.661a29.292 29.292 0 01-1.073 2.182l-.399.723-.874 1.447-.474.71a8.83 8.83 0 01-.486.699 40.229 40.229 0 01-2.084 2.718 43.7 43.7 0 01-2.208 2.494c-.736.761-1.485 1.584-2.208 2.295l-.974.973-.748.723-.375.361-.486.512c-.458.471-.876.98-1.248 1.521a6.384 6.384 0 00-.923 1.921 3.972 3.972 0 00-.125 1.334c.017.155.042.309.075.461l.15-.399c.088-.199.192-.391.312-.573.094-.153.198-.298.312-.437a11.807 11.807 0 013.368-2.382c.786-.436 1.71-.96 2.608-1.559a30.04 30.04 0 002.77-2.057c.461-.374.923-.786 1.372-1.247l.674-.649.648-.685a30.238 30.238 0 002.496-2.993c.374-.537.711-1.098 1.06-1.646.35-.549.637-1.135.936-1.721a20.654 20.654 0 001.36-3.554c.177-.586.318-1.181.424-1.784.115-.577.198-1.159.25-1.745.059-.547.084-1.097.074-1.646v-1.509c-.087-.973-.249-1.809-.386-2.557-.138-.748-.237-1.334-.325-1.858a28.591 28.591 0 01-.237-1.683s-.075.137-.187.411c-.112.275-.387.324-.449.512zM147.146 174.247l-.075.137-.087.162c0 .075-.075.15-.112.237v.125l-.25.511c0 .112-.112.224-.162.349-.462.973-1.06 2.382-1.709 4.078-.15.424-.312.86-.487 1.309-.499 1.36-1.023 2.819-1.684 4.215-.225.474-.449.936-.711 1.384v-.062l-.063.087-.112.187-.225.375a7.191 7.191 0 01-.449.723 27.054 27.054 0 01-1.946 2.494c-.349.436-.724.86-1.11 1.247l-1.161 1.247-1.385 1.471-.96 1.023a39.96 39.96 0 00-2.184 2.494c-.374.437-.711.873-1.035 1.247-.2.262-.374.511-.549.761l-.25.336-.374.587-.349.548c-.225.374-.412.736-.599 1.073a16.625 16.625 0 00-.799 1.795c-.199.512-.299.948-.386 1.247l-.113.424s.462-.436 1.248-1.247c.399-.361.823-.81 1.385-1.247.561-.436 1.148-1.01 1.821-1.571l4.741-3.741a39.555 39.555 0 005.265-4.988 22.536 22.536 0 002.284-3.23 17.813 17.813 0 001.409-3.354c.6-2.061.968-4.181 1.098-6.323.138-1.82.187-3.342.187-4.414v-.387-1.309h-.112z" fill="#D1E1FC"/>
    <path d="M124.215 203.901s.499-.262 1.335-.798a27.015 27.015 0 003.243-2.494c.649-.536 1.248-1.16 1.984-1.846.736-.686 1.36-1.434 2.046-2.219a38.53 38.53 0 001.984-2.494c.624-.848 1.248-1.834 1.847-2.781a32.074 32.074 0 001.621-2.918c.487-.985.936-1.971 1.348-2.943.412-.973.749-1.921 1.035-2.831.287-.91.537-1.796.724-2.619a27.54 27.54 0 00.686-4.003c.088-.972.1-1.546.1-1.546s-.349.449-.873 1.247l-.2.324c-.224.337-.461.723-.736 1.147l-1.173 1.908-6.038 10.064c-2.246 3.641-4.492 7.27-6.164 9.976l-1.16 1.908-.873 1.521a25.92 25.92 0 00-.686 1.247.54.54 0 00-.05.15zM131.85 168.087l-.075.162c-.062.187-.174.424-.299.723 0 .087-.087.187-.137.299l-.325.711-.411.811c-.138.286-.3.586-.462.897l-.549.986a50.586 50.586 0 01-1.31 2.12 63.808 63.808 0 01-1.56 2.282c-.549.773-1.172 1.583-1.771 2.381l-1.922 2.494-1.933 2.495c-.637.847-1.248 1.695-1.834 2.494a36.812 36.812 0 00-2.87 4.863 23.058 23.058 0 00-1.884 5.225s.424-.387 1.098-1.072c.674-.686 1.634-1.647 2.745-2.806l3.743-3.928a54.76 54.76 0 002.083-2.295c.686-.81 1.398-1.634 2.084-2.494l.985-1.322c.337-.449.649-.923.936-1.359a26.89 26.89 0 001.635-2.806 21.951 21.951 0 001.983-5.462c.295-1.342.404-2.718.325-4.09.014-.22.014-.441 0-.661 0-.187 0-.349-.075-.474s0-.399 0-.399l-.2.225zM135.992 171.416l-.112.374c-.125.399-.287.861-.449 1.347-.162.486-.25.661-.399 1.023-.15.361-.3.723-.462 1.097-.162.374-.362.773-.561 1.16-.2.386-.412.798-.637 1.247-.112.199-.237.399-.362.598a14.245 14.245 0 01-1.247 1.821 24.235 24.235 0 01-1.934 2.344 40.517 40.517 0 01-2.333 2.27c-.836.761-1.684 1.559-2.495 2.432a24.794 24.794 0 00-2.296 2.706 22.292 22.292 0 00-2.932 5.487 19.734 19.734 0 00-.711 2.381c0 .175-.075.362-.112.524-.1.507-.175.956-.225 1.347v.386a1.141 1.141 0 000 .412.638.638 0 00.187.362.435.435 0 00.337.099.348.348 0 00.299-.224v-.125c.01.029.01.059 0 .088h-.087a.24.24 0 01-.125 0 .138.138 0 01-.048-.035.115.115 0 01-.026-.053.335.335 0 010-.1l.087-.137v-.075l.15-.236a55.744 55.744 0 012.383-3.417 45.571 45.571 0 013.668-4.315 42.098 42.098 0 012.27-2.17l2.496-2.294a27.016 27.016 0 002.495-2.657 17.248 17.248 0 002.033-3.055 17.678 17.678 0 001.959-6.073c.112-.826.154-1.66.125-2.494a12.585 12.585 0 00-.162-1.858 7.671 7.671 0 00-.25-1.247l-.112-.411-.125.411c0 .175-.124.574-.287 1.06zM86.311 191.892c1.062.039 2.125.002 3.182-.112a18.481 18.481 0 002.832-.486 16.936 16.936 0 002.308-.724c.572-.234 1.13-.501 1.672-.798.45-.224.774-.486 1.01-.623l.338-.237h-1.074v-.088a.586.586 0 01-.062-.386 2.372 2.372 0 010-.511 4.99 4.99 0 01.524-1.347l.45-.836c.194-.334.369-.68.523-1.035a17.658 17.658 0 001.485-5.399c.118-1.052.16-2.11.125-3.168a23.692 23.692 0 00-.337-3.23c-.1-.523-.225-1.122-.337-1.596l-.087-.374-.125-.399-.225-.773a24.784 24.784 0 00-1.085-2.893 28.852 28.852 0 00-2.658-4.726 25.845 25.845 0 00-2.445-2.943 1.076 1.076 0 00-.162-.175 13.442 13.442 0 00-.849-.86s.088.536.312 1.421l.075.362.212.835c.15.549.312 1.185.512 1.871l.15.549c.411 1.471.898 3.155 1.372 4.925.233.898.457 1.809.674 2.731l.3 1.397c.111.524.186.923.261 1.409.175.935.3 1.871.412 2.806.112.935.175 1.833.212 2.731v1.309c.013 1.2-.041 2.399-.162 3.592v.536c0 .175 0 .349-.063.524v.237c0 .286-.062.573-.075.835a4.827 4.827 0 000 .599 35.402 35.402 0 00-1.572-3.741 50.06 50.06 0 00-2.857-4.926 60.96 60.96 0 00-1.784-2.631c-.636-.873-1.247-1.734-1.983-2.607-.737-.873-1.398-1.683-2.134-2.494a79.523 79.523 0 00-2.183-2.294 52.434 52.434 0 00-4.23-3.741 39.053 39.053 0 00-3.743-2.619l-.174-.1-.574-.324v.1c.087.187.324.623.71 1.247.5.848 1.249 2.007 2.134 3.367.886 1.359 2.01 2.893 3.22 4.502.598.81 1.247 1.633 1.883 2.494l.686.872 1.248 1.622a131.535 131.535 0 003.032 3.666l.998 1.16a96.568 96.568 0 003.743 4.102 78.249 78.249 0 002.832 2.794l.274.249v.062l.188.163c.067.047.13.102.187.162l.162.137c.122.357.348.67.649.898H93.248c-.374 0-.76 0-1.16-.063-.4-.062-.823 0-1.248-.099-.424-.1-.885-.075-1.335-.138a42.976 42.976 0 01-2.844-.424 75.081 75.081 0 01-3.007-.598 70.89 70.89 0 01-3.094-.748l-1.572-.412-1.547-.424-3.032-.848-5.415-1.571a178.376 178.376 0 00-3.917-1.11 33.937 33.937 0 00-1.535-.387c.362.391.745.761 1.148 1.11a28.434 28.434 0 003.306 2.494 36.131 36.131 0 005.153 2.831c.986.449 2.009.873 3.082 1.247.536.175 1.06.374 1.634.536.574.162 1.073.325 1.647.474a33.16 33.16 0 003.418.699 28.62 28.62 0 003.381.361zM80.86 198.464h1.758a33.496 33.496 0 003.581-.249 29.172 29.172 0 003.381-.636 28.06 28.06 0 005.714-2.083c.73-.375 1.439-.791 2.121-1.247.612-.374 1.11-.748 1.535-1.047.424-.3.711-.587.936-.761l.312-.274s-.587.087-1.585.286l-1.784.325a80.14 80.14 0 01-2.27.386c-.824.125-1.722.274-2.658.412-.936.137-1.934.237-2.944.349a61.15 61.15 0 01-3.132.249c-1.06.063-2.171.112-3.219.112H78.85l-2.694-.124c-2.096-.1-4.118-.162-5.84-.137H67.86c-.674 0-1.248.074-1.734.124h-.138l-.71.075h-.762l.175.075h.536l.612.237c.948.361 2.32.848 3.98 1.322 1.66.474 3.593.997 5.726 1.409 1.073.199 2.196.386 3.356.499.762.611 1.335.685 1.96.698zM91.352 213.154a47.451 47.451 0 004.99-1.621 61.597 61.597 0 002.745-1.135c.924-.412 1.834-.873 2.758-1.322.923-.449 1.821-.96 2.682-1.484s1.722-1.035 2.495-1.559a47.959 47.959 0 004.242-3.155 33.373 33.373 0 003.119-2.968c.3-.324.499-.548.562-.635 0 0-.537.112-1.41.386-.873.274-2.109.673-3.543 1.247-.774.299-1.622.649-2.496 1.023l.687-.586a18.531 18.531 0 001.734-1.821c.4-.435.775-.893 1.123-1.372a2.38 2.38 0 01.174-.262c.034-.071.076-.137.125-.199l.112-.187.088-.15a.354.354 0 00.075-.125v-.099l.074-.15s-.524.249-1.347.723c-.412.25-.961.474-1.535.786-.349.187-.736.374-1.147.561l-.811.374c-.737.312-1.51.661-2.346.985-.412.175-.836.337-1.248.499-.411.162-.885.337-1.347.486-.923.325-1.884.624-2.857.948l-1.497.462-1.51.461c-4.042 1.247-8.197 2.382-11.229 3.629a21.85 21.85 0 00-3.668 1.796c-.437.264-.854.56-1.247.885l.973-.075H81.433l3.943-.262c1.634-.1 3.543-.287 5.59-.598 1.01-.162 2.07-.35 3.13-.586a30.539 30.539 0 002.496-.636c-.624.349-1.248.685-1.822 1.035a77.767 77.767 0 00-4.429 2.731 49.428 49.428 0 00-3.056 2.169l-.55.424c-.374.3-.573.487-.573.487a29.302 29.302 0 005.19-1.11zM93.835 222.582H95.32c.59.031 1.18.031 1.771 0 .77-.027 1.536-.102 2.296-.225.898-.116 1.79-.282 2.67-.499.983-.24 1.953-.532 2.907-.873a27.94 27.94 0 003.006-1.247c1.011-.461 1.972-1.047 2.957-1.608.986-.561 1.897-1.247 2.758-1.933.86-.686 1.684-1.422 2.495-2.133a27.853 27.853 0 002.058-2.232 21.683 21.683 0 001.647-2.17c.225-.349.462-.673.662-.997l.536-.948a14.14 14.14 0 00.786-1.596c.399-.898.574-1.422.574-1.422-.087.063-.487.349-1.061.811l-.137.1c-.362.311-.836.66-1.36 1.072l-.811.648-.91.699c-.624.499-1.248 1.01-2.034 1.559-.212.174-.449.336-.686.511-.512.374-1.048.748-1.585 1.16-.811.548-1.622 1.134-2.495 1.696-.873.561-1.722 1.109-2.583 1.671a47.974 47.974 0 01-2.645 1.583l-.174.088c-.811.486-1.647.922-2.496 1.371-.848.449-1.696.911-2.495 1.247-.798.337-1.572.811-2.296 1.135-.723.324-1.372.674-1.97.948-.6.274-1.111.561-1.56.748-.886.399-1.385.686-1.385.686l.075.15zM102.206 227.807h.187l.549-.125h.113c.449-.112 1.023-.2 1.659-.312.636-.112 1.36-.212 2.159-.324a49.714 49.714 0 005.539-.948 19.468 19.468 0 003.219-1.085l.811-.399.212-.1.237-.149.349-.212c.237-.15.437-.25.712-.449l.786-.574a18.09 18.09 0 002.57-2.494 23.55 23.55 0 001.958-2.718 34.31 34.31 0 002.496-5.138 55.092 55.092 0 001.759-5.213l-.3.262c-.187.187-.499.437-.835.786a71.34 71.34 0 00-1.922 2.082c-.249.275-.499.587-.761.898l-3.356 4.14c-.624.724-1.248 1.472-1.946 2.158a20.305 20.305 0 01-2.121 1.92l-.524.399-.125.1c-.162.112-.362.224-.512.337l-.336.212-.088.062h-.112l-.611.349c-.824.449-1.697.836-2.583 1.247-1.784.736-3.593 1.397-5.115 2.133l-.549.286c-.51.253-1.005.532-1.485.836-.514.313-1.003.668-1.46 1.06a4.692 4.692 0 00-.499.436c-.137.125-.249.25-.337.337l-.262.287.387-.087h.137zM122.955 245.053a.388.388 0 01.162-.075l.237-.075.299-.062h.1c.474 0 1.148 0 1.884-.112s1.597-.112 2.495-.2a85.227 85.227 0 006.164-.885c1.122-.2 2.295-.412 3.518-.748a19.328 19.328 0 003.743-1.36 15.052 15.052 0 001.796-1.109l.45-.325.361-.311c.287-.25.537-.487.774-.736a16.443 16.443 0 002.345-3.043 45.136 45.136 0 001.647-2.918c.487-.923.924-1.808 1.323-2.631a59.05 59.05 0 001.759-4.09c.387-1.01.586-1.622.586-1.622s-.486.412-1.247 1.173c-.761.76-1.597 1.571-2.633 2.718l-.449.499a85.696 85.696 0 00-1.909 2.245l-2.021 2.494a23.755 23.755 0 01-2.158 2.294 7.957 7.957 0 01-.549.462l-.337.249a1.158 1.158 0 01-.225.162c-.4.279-.816.533-1.247.761a20.98 20.98 0 01-3.007 1.247l-3.257 1.035a89.035 89.035 0 00-5.863 2.107c-.849.337-1.622.686-2.309.985l-.823.375c-.349.162-.674.324-.973.498a2.137 2.137 0 00-.936 1.035 1.147 1.147 0 000 .474.862.862 0 01.237-.349l.063-.162zM141.095 250.652l.674-.137.686-.175c.449-.137.886-.274 1.248-.436a22.88 22.88 0 002.495-1.085l.599-.312.536-.312c.35-.187.749-.436 1.123-.673.375-.237.761-.474 1.111-.723.349-.25.711-.499 1.06-.773.699-.512 1.36-1.085 2.009-1.659.649-.574 1.247-1.247 1.871-1.833.624-.586 1.148-1.247 1.672-1.995a25.095 25.095 0 001.485-2.12c.249-.362.461-.736.674-1.11.212-.374.424-.748.611-1.135a23.29 23.29 0 001.048-2.344c.237-.611.424-1.247.611-1.871l.15-.549-.524-.199c-.524.648-1.073 1.247-1.597 1.908-.275.312-.537.623-.811.923-.275.299-.537.611-.811.898a44.61 44.61 0 01-1.672 1.745c-.574.562-1.135 1.123-1.709 1.671-.574.549-1.16 1.06-1.759 1.572-.599.511-1.248 1.01-1.822 1.484-.574.473-1.247.947-1.884 1.409-.636.461-1.247.898-1.921 1.309-.324.2-.624.399-.998.611l-1.011.611a29.22 29.22 0 01-2.008 1.073c-.337.162-.674.311-1.024.449l-.486.199-.524.187c-.715.235-1.444.423-2.183.561-1.51.325-3.132.499-4.779.736-.836.137-1.659.237-2.495.399-.836.162-1.66.312-2.495.524l1.023.262 1.459.324c.824.175 1.647.299 2.496.449 1.692.306 3.408.465 5.127.474a16.89 16.89 0 002.745-.337zM138.063 258.409a3.528 3.528 0 011.048-.275c.262 0 .549 0 .824-.062h2.495a22.478 22.478 0 004.991-.923c.822-.255 1.63-.554 2.42-.898l1.248-.536c.199-.112.349-.175.599-.324l.536-.3c.686-.361 1.46-.897 2.183-1.384.724-.486 1.373-1.035 2.022-1.596.648-.561 1.247-1.16 1.871-1.746.624-.586 1.16-1.247 1.709-1.87a19.564 19.564 0 001.56-1.983c.499-.736.973-1.347 1.422-2.058a47.873 47.873 0 004.454-8.816v-.112l.512-1.247-1.036.997c-2.383 2.295-4.516 4.751-6.662 7.083-.537.586-1.061 1.173-1.597 1.746l-.986 1.035-.636.661c-.537.561-1.098 1.085-1.647 1.621-.549.536-1.11 1.06-1.684 1.559-.574.499-1.173.973-1.747 1.459l-1.335 1.01-.499.349-.499.337-.187.137-.25.162-.948.611-.986.574-1.01.549c-.674.361-1.373.71-2.071 1.035a41.78 41.78 0 01-2.159.91c-.723.287-1.509.524-2.308.885a6.999 6.999 0 00-.599.287 3.445 3.445 0 00-1.409 1.322l.324-.175.037-.024zM144.626 265.442c.269-.308.601-.554.973-.723l.611-.25c.737-.237 1.548-.411 2.383-.611a97.533 97.533 0 004.904-1.247 50.46 50.46 0 009.681-3.641 30.44 30.44 0 002.308-1.322l.537-.349.574-.399c.374-.262.736-.537 1.085-.811.711-.549 1.385-1.16 2.034-1.771.649-.611 1.248-1.309 1.821-2.02a21.271 21.271 0 001.535-2.232c.225-.399.449-.786.636-1.247.206-.405.39-.822.549-1.247.335-.834.586-1.698.749-2.581.099-.494.162-.994.187-1.497v-.948-1.596l-.611 1.247c-.187.387-.337.773-.524 1.135s-.375.736-.587 1.085c-.4.695-.841 1.366-1.322 2.008a13.45 13.45 0 01-.736.935c-.262.299-.512.598-.774.885a34.9 34.9 0 01-1.659 1.671l-.886.773-.923.736c-.3.25-.612.487-.936.711-.312.237-.636.461-.961.686l-.973.636-1.01.623c-.674.412-1.385.786-2.084 1.173-.699.386-1.435.735-2.158 1.097l-2.209 1.072-4.529 2.133c-1.509.748-3.031 1.521-4.516 2.394-.77.438-1.508.93-2.208 1.472a6.006 6.006 0 00-.736.76l-.2.287c0 .1-.112.212-.162.312-.14.309-.213.645-.212.985.068-.119.148-.232.237-.337l.112.013zM182.766 251.475c-.055.089-.105.18-.15.274 0 .1-.112.2-.162.312-.05.112-.137.287-.212.437l-.287.711c-.1.299-.224.611-.337.935-.112.324-.199.686-.299 1.047-.1.362-.2.761-.275 1.172-.074.412-.124.824-.199 1.248a24.386 24.386 0 00-.175 2.768v.723c.013.752.076 1.501.187 2.245.092.761.234 1.515.425 2.257 0 .249.112.511.162.761.288.982.63 1.948 1.023 2.893.353.917.77 1.809 1.247 2.668.467.801.983 1.572 1.547 2.307l.811.986c.275.311.549.598.824.872.274.275.524.537.786.761l.399.337c.119.107.244.207.374.299.391.344.808.657 1.248.935l.262.162.312.188.624.349s-.187-.474-.599-1.247c-.225-.374-.437-.861-.686-1.385-.25-.523-.549-1.097-.836-1.758-.287-.661-.599-1.334-.911-2.057-.312-.724-.599-1.522-.923-2.307a23.24 23.24 0 01-.861-2.494c-.25-.873-.524-1.721-.774-2.582a32.584 32.584 0 01-.636-2.631c-.175-.873-.337-1.733-.511-2.569a21.732 21.732 0 01-.35-2.494c-.075-.823-.212-1.546-.249-2.245-.038-.698-.138-1.359-.175-1.945-.037-.586-.1-1.06-.112-1.471a.158.158 0 010-.075v-.574-.798c-.188.319-.359.648-.512.985z" fill="#D1E1FC"/>
    <path d="M114.932 242.185c.362 0 .711-.075 1.061-.1h6.575c.461 0 .861 0 1.385-.1s.811-.087 1.247-.187a22.27 22.27 0 005.228-1.658 25.402 25.402 0 004.666-2.769c.736-.524 1.422-1.11 2.096-1.683.337-.3.674-.599.986-.911l.499-.486.449-.461a26.433 26.433 0 001.772-1.983 56.36 56.36 0 001.596-2.083 46.399 46.399 0 002.808-4.377 53.624 53.624 0 002.333-4.639v-.062l1.472-2.22-1.884 1.821-.861.811-1.397 1.359c-.474.465-.936.927-1.385 1.384l-3.518 3.616c-.587.586-1.161 1.173-1.76 1.746l-.873.848-.898.823-.474.437-.437.386-.911.786a53.974 53.974 0 01-1.884 1.496c-.636.487-1.247.923-1.946 1.384-.699.462-1.335.848-2.021 1.248-.686.399-1.385.748-2.096 1.097-.711.349-1.447.661-2.159.91-.336.15-.786.275-1.172.412l-1.161.399-2.495.673-.936.287c-.524.162-1.048.337-1.559.549l-.612.274c-.604.272-1.181.602-1.721.985l-.013-.012zM105.126 231.273h.237l.524-.087h.861c.772.016 1.542.074 2.308.175l1.247.124h1.248c.833.029 1.666.004 2.495-.075a18.196 18.196 0 004.991-1.172 14.19 14.19 0 002.408-1.16 14.576 14.576 0 002.183-1.558 18.273 18.273 0 001.897-1.908c.574-.661 1.06-1.36 1.547-2.033a42.644 42.644 0 002.495-4.128c.736-1.384 1.572-2.793 2.296-4.227a61.505 61.505 0 001.709-3.654l.075.3c.112-.412.199-.824.299-1.248l.225-.91-.786.736-.424.411a52.814 52.814 0 00-3.007 3.018 91.836 91.836 0 00-3.169 3.629 133.298 133.298 0 00-2.957 3.741c-.462.599-.961 1.16-1.435 1.709-.435.491-.893.961-1.372 1.409-.525.451-1.08.868-1.66 1.247-.582.394-1.191.748-1.821 1.06-.637.311-1.248.611-1.984.873-.736.261-1.385.498-2.108.698-.724.199-1.46.399-2.196.574l-1.148.249c-.349.075-.774.137-1.173.237-.853.147-1.689.381-2.495.698-.805.3-1.518.803-2.071 1.459.158-.061.321-.111.486-.149l.275-.038zM149.055 272.201c.307.022.616.022.923 0a12.746 12.746 0 002.121-.424c.799-.225 1.66-.499 2.595-.811a65.66 65.66 0 006.239-2.494 58.005 58.005 0 003.443-1.671c.574-.312 1.16-.611 1.734-.935l1.722-1.035c1.123-.724 2.246-1.447 3.294-2.257a18.698 18.698 0 001.547-1.247c.499-.424 1.01-.811 1.46-1.247.449-.437.923-.861 1.347-1.248.424-.386.836-.885 1.248-1.321.773-.861 1.434-1.759 2.033-2.569a25.4 25.4 0 001.448-2.357c.347-.618.66-1.255.935-1.908v-.1c.412-1.022.599-1.608.599-1.608l-.636.598c-.2.175-.424.399-.686.661a3.99 3.99 0 01-.325.312c-.337.324-.761.673-1.185 1.085a10.39 10.39 0 01-.536.486c-.437.387-.936.798-1.435 1.247-.499.449-.761.611-1.148.935-.387.325-.799.661-1.248.985l-1.322 1.011-1.41 1.01c-.973.673-1.959 1.371-3.007 2.057-1.048.686-2.108 1.36-3.181 2.033a234.29 234.29 0 01-3.232 1.983l-3.181 1.92c-2.071 1.247-3.993 2.494-5.639 3.542-.824.548-1.56 1.072-2.209 1.521-.162.1-.324.2-.474.312-.462.299-.861.561-1.248.76-.386.2-.686.362-.948.474l-.237.1-.449.175c.161.03.323.051.487.062h.461l.1-.037zM72.537 204.787l.55.074c1.453.163 2.917.218 4.379.163a48.39 48.39 0 006.076-.649c2.183-.374 4.466-.848 6.75-1.384l1.709-.424.836-.225.923-.274c1.098-.337 2.183-.698 3.219-1.047l.86-.312c.25-.112.487-.2.75-.337a23.24 23.24 0 001.484-.748 25.536 25.536 0 002.495-1.634 19.481 19.481 0 003.219-3.042l.275-.337.274-.349.2-.275.249-.361-1.16.536-.337.15a66.092 66.092 0 01-3.88 1.608c-.799.3-1.66.599-2.583.873-.449.137-.936.287-1.397.399l-.761.2-.711.137a76.497 76.497 0 00-3.307.723l-3.33.748c-1.136.287-2.271.574-3.382.886-1.11.312-2.208.636-3.244.96-2.096.648-4.005 1.247-5.664 1.858l-.611.2-1.098.374-1.585.536-.736.249c-.499.15-.886.312-1.16.387l-.412.15s.387.099 1.086.199l.024-.012zM90.042 219.476h.262a42.106 42.106 0 004.753-.498 43.594 43.594 0 005.789-1.322 37.324 37.324 0 003.182-1.11 40.585 40.585 0 003.206-1.459 29.534 29.534 0 003.057-1.796 27.35 27.35 0 002.745-2.082 24.963 24.963 0 002.32-2.245 22.99 22.99 0 001.797-2.27c.453-.671.869-1.366 1.248-2.082a23.58 23.58 0 00.761-1.709c.144-.371.269-.75.374-1.134.075-.275.125-.412.125-.412l-.325.287-.86.798c-.35.349-.824.736-1.335 1.247-.512.511-1.098.923-1.747 1.447-1.248 1.01-2.845 2.12-4.554 3.205-.848.548-1.759 1.072-2.67 1.608a46.75 46.75 0 01-2.832 1.534c-3.855 2.008-7.947 3.741-11.004 5.287a88.812 88.812 0 00-3.743 1.946c-.936.511-1.373.835-1.373.835l.824-.075zM94.284 188.588l.35.237-.163-.387a9.352 9.352 0 00-.537-1.047 13.914 13.914 0 00-2.632-3.305 23.683 23.683 0 00-4.828-3.454 30.498 30.498 0 00-2.882-1.459 37.348 37.348 0 00-3.057-1.247c-1.023-.375-2.071-.786-3.094-1.135-1.023-.349-2.046-.699-3.032-1.01a70.831 70.831 0 00-5.502-1.459c-1.635-.362-3.02-.611-4.005-.736a44.437 44.437 0 00-1.56-.175s.45.362 1.248.936c.799.573 1.996 1.334 3.444 2.182 1.447.848 3.169 1.746 4.99 2.644.936.449 1.909.898 2.907 1.321.998.424 2.009.848 3.032 1.248l3.057 1.147 2.92 1.072c.939.349 1.825.699 2.657 1.048.835.349 1.622.698 2.333 1.047a30.426 30.426 0 013.406 1.921c.411.237.736.461.948.611zM167.408 32.622c4.99 4.988 9.919 10.064 14.46 15.476 27.386 32.66 37.067 76.38 58.302 113.329 4.204 7.308 8.858 14.341 13.038 21.674l-4.155 2.045a42.631 42.631 0 01-29.032-1.921 40.951 40.951 0 01-5.939-3.267c.125-.237.262-.474.399-.711a105.027 105.027 0 0113.537-19.042 5.853 5.853 0 00-5.502.424 30.774 30.774 0 00-4.504 3.554 25.804 25.804 0 01-14.61 5.737 42.256 42.256 0 01-4.254-6.959 53.975 53.975 0 01-2.196-5.35 23.56 23.56 0 012.383-1.758l18.415-12.383c-2.895-1.172-6.126 0-9.108 1.01a52.85 52.85 0 01-15.084 2.494c0-.137-.075-.274-.125-.411a151.505 151.505 0 00-6.537-16.374 33.865 33.865 0 014.778-1.646c4.791-1.247 10.456-1.783 13.25-5.873-4.99 1.122-10.193 1.895-15.196.798a44.793 44.793 0 01-5.627-1.821l-1.659-.686c-2.109-4.152-4.28-8.292-6.438-12.47l10.231.075c2.639.12 5.284-.055 7.885-.524a11.928 11.928 0 006.749-3.741c-8.858 2.494-18.228 1.721-27.273-.312a363.909 363.909 0 01-4.441-8.854c1.447.287 2.894.512 4.366.661 6.575.649 13.55-.349 18.977-4.115.329-.19.601-.465.786-.798.524-1.184-1.098-2.12-2.371-2.307-7.336-1.122-14.859.81-22.233 0a30.191 30.191 0 01-2.782-.474 135.786 135.786 0 01-6.088-16.336c4.704.738 9.489.797 14.21.175.549-.075 1.186-.212 1.435-.71a1.25 1.25 0 00-.574-1.472 3.744 3.744 0 00-1.684-.362 73.125 73.125 0 01-14.685-2.345 130.992 130.992 0 01-1.46-6.634 30.174 30.174 0 0110.942-.324c2.932.474 5.989 1.372 8.821.424a6.052 6.052 0 00-4.017-1.796 57.96 57.96 0 01-11.853-2.955 23.84 23.84 0 01-5.128-2.806c-.786-5.163-1.41-10.363-2.021-15.55-.424-3.654-.861-7.395-2.495-10.65-1.635-3.255-4.479-4.888-7.748-6.11a26.648 26.648 0 0111.116 1.957c4.929 2.145 8.896 6.136 12.739 10.014z" fill="#D1E1FC"/>
    <path d="M183.215 18.83a123.387 123.387 0 0110.817 6.235c0 1.11.075 2.207 0 3.292-.087 7.582-.436 15.339-3.318 22.347-.225.549-.25 1.471.349 1.459a.89.89 0 00.437-.162 16.209 16.209 0 006.587-9.976 47.758 47.758 0 00.923-12.159v-1.534a231.836 231.836 0 014.991 3.567c.112 1.67.2 3.342.274 4.988.275 6.46-1.434 11.984.3 19.391a13.713 13.713 0 002.034-8.33c.035-4.477.364-8.947.985-13.38a206.135 206.135 0 0117.729 15.475l.324.324a28.384 28.384 0 01-2.694 7.258c-.936 1.733-2.047 3.354-2.895 5.138a19.322 19.322 0 00-.973 13.966c4.117-4.352 4.491-11.086 7.76-16.111a16.027 16.027 0 014.429-4.502c1.822 1.983 3.581 4.028 5.215 6.16a114.523 114.523 0 017.985 12.109 2.376 2.376 0 01-.075.287c-1.422 4.34-4.454 7.943-7.485 11.422-3.319 3.891-7.037 8.019-12.065 9.017 2.358 2.868 6.949 2.88 10.193 1.072 3.244-1.808 5.452-4.988 7.636-7.956a48.287 48.287 0 015.739-6.821c.053.079.099.162.137.25 2.633 4.688 5.327 9.44 7.947 14.265a26.956 26.956 0 01-4.853 4.913c-2.108 1.572-4.541 2.719-6.5 4.465-3.643 3.23-5.702 8.517-10.318 10.076 4.392-1.123 8.946-2.332 12.402-5.25a47.437 47.437 0 005.302-5.974 40.154 40.154 0 015.515-5.387c1.247 2.332 2.495 4.689 3.668 7.046-.549 1.247-1.023 2.494-1.535 3.741a30.053 30.053 0 01-10.305 12.732c4.179-.923 8.733-2.032 11.44-5.312a20.187 20.187 0 001.934-2.918c.449-.773.886-1.546 1.323-2.32a166.438 166.438 0 014.017 9.203l-.424.986a28.14 28.14 0 01-4.991 8.105c-.761.836-1.597 1.596-2.283 2.494a32.79 32.79 0 00-3.344 6.435 10.435 10.435 0 01-4.666 5.362c5.365.748 10.568-2.644 13.787-6.996a40.83 40.83 0 004.691-8.841l.212.598a77.727 77.727 0 013.506 10.563c-2.62 4.09-7.835 6.235-10.817 10.288a37.908 37.908 0 0011.653-4.988c0 .673.075 1.359.075 2.045 0 7.22-3.045 14.178-7.249 20.052-4.205 5.873-9.595 10.799-14.972 15.687l-.686.337c-4.18-7.332-8.833-14.366-13.038-21.673-21.21-36.949-30.916-80.67-58.302-113.33-4.541-5.412-9.507-10.45-14.46-15.475-3.843-3.879-7.81-7.87-12.838-9.977a26.652 26.652 0 00-10.967-1.957l-.374-.15c10.031-9.403 28.808-7.47 40.111-1.671z" fill="#D1E1FC"/>
    <path d="M262.69 195.908c-6.238-9.902-13.138-21.661-20.05-34.543a567.163 567.163 0 01-10.23-20.077c-3.344-6.909-6.588-14.004-9.757-21.2-6.363-14.278-12.663-28.681-19.663-41.575-3.505-6.485-7.161-12.57-10.954-18.17a155.32 155.32 0 00-11.565-15.101 124.68 124.68 0 00-11.292-11.435 102.595 102.595 0 00-9.731-7.62 44.416 44.416 0 00-3.83-2.494l-1.56-.997-1.335-.76a7.485 7.485 0 00-1.871-.949 1.848 1.848 0 00-.824 0c.078.27.219.519.412.724a7.34 7.34 0 001.734 1.16l1.323.785 1.534.998c1.098.723 2.371 1.534 3.743 2.556 3.322 2.38 6.5 4.953 9.52 7.707a121.32 121.32 0 0111.054 11.447 153.813 153.813 0 0111.228 15.064c3.743 5.575 7.262 11.685 10.668 18.132 6.799 12.932 12.925 27.285 19.126 41.651 3.107 7.17 6.238 14.341 9.557 21.311a718.503 718.503 0 0010.068 20.302c6.775 13.031 13.724 24.941 19.888 34.917l2.807-1.833z" fill="#B3CDFA"/>
    <path d="M366.393 243.344a97.358 97.358 0 01-70.067 25.727c-.674 0-.674-1.085 0-1.06a96.207 96.207 0 0069.319-25.415c.499-.461 1.247.287.748.748z" fill="#C9E0F5"/>
    <path d="M363.486 245.365s9.183-.387 9.694-8.081c0 0-6.724-2.669-9.694 8.081zM356.138 251.201s7.061 5.886 12.601.548c0 0-3.182-6.509-12.601-.548zM345.346 257.835s6.088 6.896 12.389 2.494c0-.037-2.159-6.946-12.389-2.494zM333.942 262.586s4.155 8.206 11.366 5.487c0 .037-.337-7.233-11.366-5.487zM322.14 265.704s1.584 9.053 9.282 8.554c0 0 1.772-7.008-9.282-8.554zM310.574 267.674s-.711 9.153 6.862 10.587c0 0 3.456-6.41-6.862-10.587zM356.063 251.138s7.386-5.474 3.481-12.121c0 0-7.062 1.559-3.481 12.121zM345.271 257.773s7.386-5.475 3.481-12.121c0 .012-7.062 1.558-3.481 12.121z" fill="#C9E0F5"/>
    <path d="M333.942 262.673s7.374-5.474 3.481-12.121c0 0-7.074 1.559-3.481 12.121zM322.102 266.464s7.374-5.474 3.481-12.121c.05.05-7.074 1.559-3.481 12.121zM310.661 268.11s7.386-5.474 3.481-12.121c.05-.062-7.011 1.497-3.481 12.121z" fill="#C9E0F5"/>
    <path d="M398.171 81.88a1.059 1.059 0 00-.849-.45 8.435 8.435 0 00-4.99.612c1.447-2.257 1.771-5.325 1.908-7.869a.518.518 0 00-.087-.374.509.509 0 00-.262-.125 8.414 8.414 0 00-4.055.1 6.048 6.048 0 00-2.757 2.382 9.968 9.968 0 001.422-4.327 5.196 5.196 0 00-.212-1.709c-.124-.648.1-1.521-.162-2.12a.753.753 0 00-.561-.424 2.347 2.347 0 00-1.46.312l-3.082 1.422c-1.048.486-1.634 1.085-1.584-.3a13.255 13.255 0 00-.599-5.225c0-.174-1.672 1.023-1.784 1.148-3.606 3.404-7.124 7.906-8.584 12.707-1.572 5.188-.711 15.65-.711 15.65l3.593.86c.606.173 1.23.277 1.859.312a8.916 8.916 0 002.271-.374 67.033 67.033 0 009.045-2.768 29.33 29.33 0 008.21-5.412c.499-.474 3.817-3.23 3.431-4.028z" fill="#D1E1FC"/>
    <path d="M372.968 82.13a27.246 27.246 0 017.486-11.087c.075 0 .761-.586 1.248-.848a6.88 6.88 0 00-.225-.823c0-.162-1.46.898-1.559.998a27.106 27.106 0 00-7.486 11.086c-1.373 4.514-.624 13.642-.624 13.642l.561.125c-.199-2.033-.573-9.178.599-13.094z" fill="#EDF3FE"/>
    <path d="M383.087 90.185a23.066 23.066 0 008.197-7.77c0-.074.386-.723.536-1.122l.724.075c.137 0-.549 1.335-.612 1.447a22.958 22.958 0 01-8.197 7.769c-3.58 1.783-11.228 2.494-11.228 2.494s-.138-.3-.2-.45c1.672-.236 7.723-.922 10.78-2.443z" fill="#EDF3FE"/>
    <path d="M386.393 75.695a504.437 504.437 0 01-14.523 16.31c-.374.4.188 1.06.574.65a504.617 504.617 0 0014.672-16.474c.35-.424-.361-.91-.723-.486z" fill="#EDF3FE"/>
    <path d="M376.449 94.412c.113 0-.324-.436-.436-.449a3.022 3.022 0 00-1.797.225c.46-.877.696-1.853.686-2.843v-.125c0-.025 0 0-.087 0a3.047 3.047 0 00-1.46 0 2.144 2.144 0 00-.998.86 3.5 3.5 0 00.512-1.558 1.708 1.708 0 00-.075-.611 3.994 3.994 0 000-.773.347.347 0 00-.212-.15.885.885 0 00-.524.112l-1.123.511c-.375.175-.587.4-.574-.112a6.228 6.228 0 00-.325-2.145c0-.075-.511.424-.536.686-.15 1.77-2.495 2.843-3.082 4.577a20.473 20.473 0 00-.262 5.624l1.248.311c.221.056.446.094.674.113.275-.008.548-.055.811-.137a15.095 15.095 0 002.657-.774 11.328 11.328 0 002.745-2.406c.69-.376 1.412-.689 2.158-.936z" fill="#B3CDFA"/>
    <path d="M344.472 123.755c8.06-9.166 14.66-19.616 24.579-26.986.886-.66-.25-1.97-1.136-1.247-10.28 7.644-16.992 18.556-25.451 27.959-2.259 2.494-4.654 4.9-7.112 7.22l.686 1.683c2.92-2.806 5.814-5.611 8.434-8.629z" fill="#B3CDFA"/>
    <path d="M356.624 173.736l-9.482 3.94a33.977 33.977 0 0016.631 17.895 48.12 48.12 0 0024.242 4.664 68.086 68.086 0 01-31.391-26.499zM385.956 136.3c.187-2.095.387-4.203.574-6.235a191.283 191.283 0 00-12.838 28.307l9.756-6.908a71.825 71.825 0 002.508-15.164zM396.748 130.065a43.813 43.813 0 01-3.743 6.833 93.498 93.498 0 00-6.575 12.945l4.991-3.617a25.978 25.978 0 005.327-16.161zM386.106 150.765l-14.56 9.765c5.131.85 10.397.272 15.221-1.671a78.126 78.126 0 0013.724-7.158 824.742 824.742 0 009.981-6.235 68.917 68.917 0 00-24.366 5.299z" fill="#D1E1FC"/>
    <path d="M378.932 169.745c-2.096 0-15.358-2.132-17.367-1.596l-9.245 7.482a60.271 60.271 0 0027.361 3.068c3.019-.399 5.988-1.06 8.97-1.721 7.124-1.596 14.41-3.255 20.624-7.108l-30.343-.125z" fill="#D1E1FC"/>
    <path d="M395.014 176.466c-3.98-.536-7.985-.922-11.977-1.321l-7.087-.686-24.828 2.219c7.835 3.742 16.032 7.57 24.716 7.42a56.708 56.708 0 007.111-.735l23.631-3.442c-3.431-2.145-7.549-2.844-11.566-3.455zM373.979 135.589c.649-2.295 1.248-4.602 1.921-6.896-8.409 10.525-12.376 24.005-13.724 37.411l9.682-7.059c-2.159-7.669-.062-15.799 2.121-23.456z" fill="#D1E1FC"/>
    <path d="M361.453 147.149c.86-6.497 2.495-12.907 2.744-19.466a47.841 47.841 0 00-11.615 21.199 92.179 92.179 0 00-2.121 15.925c-.25 3.467-.462 7.083.898 10.275l12.177-8.654c-2.969-5.936-2.969-12.832-2.083-19.279z" fill="#D1E1FC"/>
    <path d="M350.586 158.297c-1.664-9.361-3.327-18.73-4.991-28.108a83.218 83.218 0 00.861 48.56l9.619-5.999c-3.506-3.84-4.566-9.302-5.489-14.453z" fill="#D1E1FC"/>
    <path d="M348.552 177.726a109.307 109.307 0 01-14.972-23.693c-2.046-4.377-3.867-8.979-7.099-12.558.337 7.881.849 16.012 4.442 23.02 2.333 4.552 5.839 8.368 9.295 12.121l4.554 4.988 3.78-3.878z" fill="#D1E1FC"/>
    <path d="M346.506 178.748a104.6 104.6 0 01-12.876-6.733l-9.893-6.074a48.837 48.837 0 01-10.718-8.03 52.741 52.741 0 009.919 16.972 23.036 23.036 0 004.716 4.302c4.741 3.068 10.742 3.142 16.382 3.117l2.47-3.554z" fill="#D1E1FC"/>
    <path d="M337.91 188.089a12.85 12.85 0 01-4.604-2.195 101.23 101.23 0 01-25.277-23.955c-.312 6.796 3.743 13.069 8.409 18.007 4.666 4.938 10.243 9.116 14.198 14.665l7.274-6.522z" fill="#D1E1FC"/>
    <path d="M332.183 193.663c-12.476-5.1-21.684-16.111-27.448-28.245-.599 3.828-1.173 7.831 0 11.535a18.292 18.292 0 002.62 4.988c4.991 7.033 12.551 11.672 18.964 17.458l5.864-5.736z" fill="#D1E1FC"/>
    <path d="M326.257 199.3c-4.991-.574-9.557-3.08-13.974-5.525a18.932 18.932 0 01-3.493-2.294 17.225 17.225 0 01-4.279-7.008 75.337 75.337 0 01-3.169-10.288 16.659 16.659 0 00.087 18.144 23.692 23.692 0 006.038 5.823c4.265 3 9.05 5.182 14.111 6.435l4.679-5.287z" fill="#D1E1FC"/>
    <path d="M321.69 204.437a26.652 26.652 0 01-18.789-9.677 40.629 40.629 0 01-4.105-6.422 88.4 88.4 0 01-4.865-10.737 14.96 14.96 0 00-1.847 15.264c2.096 4.564 6.363 7.731 10.755 10.163 4.391 2.432 9.12 4.34 13.1 7.395l5.751-5.986z" fill="#D1E1FC"/>
    <path d="M306.656 206.058c-8.421-3.042-17.092-6.135-26.063-5.985 2.982 5.075 8.31 8.442 13.924 10.238 5.614 1.795 11.553 2.182 17.467 2.569l4.142-3.405-9.47-3.417zM311.485 214.875c-5.714-.299-11.516-.599-17.093.673-5.764 1.31-11.066 4.24-16.83 5.575 10.604-.99 21.205-1.987 31.802-2.993l2.121-3.255zM372.332 206.345c-5.302-6.796-15.096-8.804-20.461-15.55a20.928 20.928 0 01-4.167-10.562l-7.224 5.911c0-.1-.087-.237-.187-.175s-.125.337-.063.511a45.382 45.382 0 0010.73 16.611 58.826 58.826 0 0029.669 16.211c-3.843-3.442-5.091-8.891-8.297-12.957z" fill="#D1E1FC"/>
    <path d="M337.972 188.787l-5.552 4.352a24.267 24.267 0 005.066 9.515 59.141 59.141 0 0037.716 21.561c-14.174-9.864-28.496-20.526-37.23-35.428z" fill="#D1E1FC"/>
    <path d="M346.306 212.344c-6.413-4.415-13.013-9.016-17.042-15.676l-7.486 6.335c.087-.274-.437-.511-.262-.286a75.563 75.563 0 0014.56 14.415c5.277 3.966 11.353 7.308 17.953 7.682a43.902 43.902 0 007.336-.424l7.249-.836c-8.209-1.583-15.383-6.459-22.308-11.21zM333.368 225.35a37.857 37.857 0 01-13.798-18.967l-4.991 5.562c1.36 4.601 2.021 5.387 4.342 9.589a23.688 23.688 0 004.628 6.235 28.246 28.246 0 007.075 4.303c5.377 2.494 11.328 4.988 17.067 3.466 2.782-.698 5.265-2.269 8.01-3.08a37.938 37.938 0 01-22.333-7.108z" fill="#D1E1FC"/>
    <path d="M323.138 236.486c-5.378-6.422-7.486-16.112-9.183-24.305l-2.495 3.205a133.01 133.01 0 002.57 15.177 22.65 22.65 0 002.196 6.571c2.982 5.163 9.532 7.483 15.483 6.909a51.226 51.226 0 01-8.571-7.557zM308.827 222.731a14.774 14.774 0 01.886-5.861l-2.844 4.115a67.051 67.051 0 00-.774 17.035c.162 3.354.586 7.095 3.169 9.24a382.698 382.698 0 01-.437-24.529zM398.171 158.023l-23.419 4.527c-2.744.524-5.502 1.06-8.284 1.371l-10.892 7.72 5.739.087c3.36.154 6.726-.004 10.056-.474a53.44 53.44 0 006.351-1.646c11.802-3.567 23.705-7.17 34.784-12.47-4.704-.948-9.52-.013-14.335.885z" fill="#D1E1FC"/>
    <path d="M400.391 141.076c-57.129 30.777-98.301 82.304-137.814 132.309-.536.699.612 1.434 1.148.749 39.363-49.881 80.361-101.172 137.24-131.836.774-.411.175-1.646-.611-1.247l.037.025z" fill="#B3CDFA"/>
    <path d="M403.623 139.966a77.07 77.07 0 006.088-7.844c-6.238 3.056-11.229 7.919-16.219 12.707l-4.766 3.106c3.818-.911 7.748-1.883 10.929-4.19a24.728 24.728 0 003.968-3.779z" fill="#D1E1FC"/>
    <defs>
        <linearGradient id="paint0_linear" x1="14.685" y1="285.531" x2="429.612" y2="110.353" gradientUnits="userSpaceOnUse">
            <stop stop-color="#E3EBFE"/>
            <stop offset=".05" stop-color="#E5EEFE"/>
            <stop offset=".51" stop-color="#E3EEFF"/>
            <stop offset="1" stop-color="#F4F8FF"/>
        </linearGradient>
        <linearGradient id="paint1_linear" x1="296.873" y1="140.75" x2="362.001" y2="48.737" gradientUnits="userSpaceOnUse">
            <stop stop-color="#E3EDFE"/>
            <stop offset="1" stop-color="#B3CDFA"/>
        </linearGradient>
    </defs>
</svg>
