<svg viewBox="0 0 273 43" fill="none" xmlns="http://www.w3.org/2000/svg">
    <g opacity=".5">
        <path opacity=".02" d="M136.505 42.52c73.444 0 132.983-9.36 132.983-20.907 0-11.546-59.539-20.906-132.983-20.906S3.522 10.067 3.522 21.613s59.539 20.906 132.983 20.906z" fill="#FBFCFE"/>
        <path opacity=".05" d="M136.505 42.038c71.765 0 129.942-9.144 129.942-20.425 0-11.28-58.177-20.425-129.942-20.425-71.764 0-129.941 9.144-129.941 20.425 0 11.28 58.177 20.425 129.941 20.425z" fill="#F8FAFE"/>
        <path opacity=".07" d="M136.505 41.557c70.078 0 126.887-8.93 126.887-19.944 0-11.015-56.809-19.945-126.887-19.945S9.618 10.598 9.618 21.613s56.81 19.944 126.887 19.944z" fill="#F4F7FD"/>
        <path opacity=".1" d="M136.505 41.077c68.398 0 123.846-8.715 123.846-19.464 0-10.75-55.448-19.464-123.846-19.464S12.659 10.863 12.659 21.613c0 10.75 55.448 19.464 123.846 19.464z" fill="#F1F5FC"/>
        <path opacity=".12" d="M136.505 40.596c66.712 0 120.792-8.5 120.792-18.983 0-10.484-54.08-18.983-120.792-18.983S15.713 11.13 15.713 21.613s54.08 18.983 120.792 18.983z" fill="#EDF2FC"/>
        <path opacity=".15" d="M136.505 40.115c65.032 0 117.751-8.284 117.751-18.502 0-10.219-52.719-18.502-117.751-18.502-65.032 0-117.75 8.283-117.75 18.502 0 10.218 52.718 18.502 117.75 18.502z" fill="#E9F0FB"/>
        <path opacity=".17" d="M136.505 39.646c63.345 0 114.697-8.074 114.697-18.033 0-9.96-51.352-18.034-114.697-18.034-63.345 0-114.696 8.074-114.696 18.034 0 9.96 51.351 18.033 114.696 18.033z" fill="#E6EDFA"/>
        <path opacity=".2" d="M136.505 39.166c61.659 0 111.643-7.86 111.643-17.553 0-9.694-49.984-17.553-111.643-17.553-61.658 0-111.642 7.859-111.642 17.553s49.984 17.553 111.642 17.553z" fill="#E2EBFA"/>
        <path opacity=".22" d="M136.505 38.685c59.979 0 108.601-7.644 108.601-17.072 0-9.429-48.622-17.072-108.601-17.072S27.904 12.184 27.904 21.613c0 9.428 48.622 17.072 108.601 17.072z" fill="#DFE8F9"/>
        <path opacity=".24" d="M136.505 38.204c58.292 0 105.547-7.428 105.547-16.591S194.797 5.022 136.505 5.022c-58.292 0-105.547 7.428-105.547 16.59 0 9.164 47.255 16.592 105.547 16.592z" fill="#DBE6F8"/>
        <path opacity=".27" d="M136.505 37.723c56.613 0 102.506-7.213 102.506-16.11 0-8.898-45.893-16.11-102.506-16.11-56.612 0-102.506 7.212-102.506 16.11 0 8.897 45.894 16.11 102.506 16.11z" fill="#D8E3F7"/>
        <path opacity=".29" d="M136.505 37.242c54.926 0 99.452-6.997 99.452-15.63 0-8.631-44.526-15.628-99.452-15.628-54.926 0-99.452 6.997-99.452 15.629 0 8.631 44.526 15.629 99.452 15.629z" fill="#D4E1F7"/>
        <path opacity=".32" d="M136.505 36.761c53.246 0 96.411-6.782 96.411-15.148S189.751 6.465 136.505 6.465s-96.41 6.782-96.41 15.148 43.164 15.148 96.41 15.148z" fill="#D0DEF6"/>
        <path opacity=".34" d="M136.505 36.293c51.56 0 93.357-6.573 93.357-14.68 0-8.108-41.797-14.68-93.357-14.68s-93.356 6.572-93.356 14.68c0 8.107 41.797 14.68 93.356 14.68z" fill="#CDDCF5"/>
        <path opacity=".37" d="M136.505 35.812c49.88 0 90.315-6.357 90.315-14.2 0-7.841-40.435-14.198-90.315-14.198-49.88 0-90.315 6.357-90.315 14.199s40.435 14.199 90.315 14.199z" fill="#C9D9F5"/>
        <path opacity=".39" d="M136.505 35.33c48.193 0 87.261-6.14 87.261-13.717 0-7.577-39.068-13.718-87.261-13.718s-87.261 6.141-87.261 13.718c0 7.576 39.068 13.718 87.261 13.718z" fill="#C6D7F4"/>
        <path opacity=".41" d="M136.505 34.85c46.514 0 84.22-5.927 84.22-13.237 0-7.311-37.706-13.238-84.22-13.238-46.513 0-84.22 5.927-84.22 13.238 0 7.31 37.707 13.237 84.22 13.237z" fill="#C2D4F3"/>
        <path opacity=".44" d="M136.505 34.37c44.827 0 81.166-5.712 81.166-12.757S181.332 8.856 136.505 8.856c-44.826 0-81.166 5.712-81.166 12.757s36.34 12.756 81.166 12.756z" fill="#BED2F3"/>
        <path opacity=".46" d="M136.505 33.888c43.147 0 78.124-5.496 78.124-12.275 0-6.78-34.977-12.276-78.124-12.276s-78.124 5.496-78.124 12.276c0 6.78 34.977 12.275 78.124 12.275z" fill="#BBCFF2"/>
        <path opacity=".49" d="M136.505 33.407c41.46 0 75.071-5.28 75.071-11.794S177.965 9.818 136.505 9.818s-75.07 5.28-75.07 11.795c0 6.514 33.61 11.794 75.07 11.794z" fill="#B7CDF1"/>
        <path opacity=".51" d="M136.505 32.94c39.781 0 72.029-5.072 72.029-11.327 0-6.256-32.248-11.327-72.029-11.327-39.78 0-72.029 5.071-72.029 11.327 0 6.255 32.249 11.326 72.029 11.326z" fill="#B4CAF1"/>
        <path opacity=".54" d="M136.505 32.458c38.094 0 68.975-4.855 68.975-10.845s-30.881-10.846-68.975-10.846c-38.094 0-68.975 4.856-68.975 10.846s30.881 10.845 68.975 10.845z" fill="#B0C8F0"/>
        <path opacity=".56" d="M136.505 31.977c36.414 0 65.934-4.64 65.934-10.364 0-5.724-29.52-10.365-65.934-10.365s-65.934 4.64-65.934 10.365c0 5.724 29.52 10.364 65.934 10.364z" fill="#ADC5EF"/>
        <path opacity=".59" d="M136.505 31.497c34.728 0 62.88-4.425 62.88-9.884 0-5.459-28.152-9.884-62.88-9.884-34.727 0-62.88 4.425-62.88 9.884 0 5.459 28.153 9.884 62.88 9.884z" fill="#A9C3EF"/>
        <path opacity=".61" d="M136.505 31.015c33.048 0 59.839-4.21 59.839-9.402 0-5.193-26.791-9.403-59.839-9.403s-59.838 4.21-59.838 9.403c0 5.193 26.79 9.402 59.838 9.402z" fill="#A5C0EE"/>
        <path opacity=".63" d="M136.505 30.535c31.361 0 56.784-3.995 56.784-8.922 0-4.928-25.423-8.922-56.784-8.922s-56.784 3.994-56.784 8.922c0 4.927 25.423 8.922 56.784 8.922z" fill="#A2BEED"/>
        <path opacity=".66" d="M136.505 30.054c29.682 0 53.743-3.78 53.743-8.441 0-4.662-24.061-8.441-53.743-8.441-29.681 0-53.743 3.779-53.743 8.44 0 4.663 24.062 8.442 53.743 8.442z" fill="#9EBBED"/>
        <path opacity=".68" d="M136.505 29.586c27.995 0 50.689-3.57 50.689-7.973 0-4.403-22.694-7.973-50.689-7.973s-50.689 3.57-50.689 7.973c0 4.403 22.694 7.973 50.689 7.973z" fill="#9BB9EC"/>
        <path opacity=".71" d="M184.14 21.613c0 4.138-21.327 7.492-47.635 7.492-26.307 0-47.584-3.354-47.584-7.492 0-4.139 21.327-7.492 47.648-7.492 26.32 0 47.571 3.303 47.571 7.492z" fill="#97B6EB"/>
        <path opacity=".73" d="M136.505 28.624c24.629 0 44.594-3.14 44.594-7.011 0-3.872-19.965-7.011-44.594-7.011-24.628 0-44.593 3.139-44.593 7.01 0 3.873 19.965 7.012 44.593 7.012z" fill="#93B4EB"/>
        <path opacity=".76" d="M178.045 21.613c0 3.607-18.603 6.53-41.54 6.53-22.937 0-41.552-2.923-41.552-6.53s18.603-6.53 41.552-6.53c22.95 0 41.54 2.923 41.54 6.53z" fill="#90B1EA"/>
        <path opacity=".78" d="M175.003 21.613c0 3.34-17.234 6.049-38.498 6.049-21.264 0-38.51-2.708-38.51-6.05 0-3.34 17.246-6.048 38.51-6.048s38.498 2.708 38.498 6.049z" fill="#8CAFE9"/>
        <path opacity=".8" d="M136.505 27.181c19.583 0 35.457-2.493 35.457-5.568 0-3.076-15.874-5.569-35.457-5.569-19.582 0-35.457 2.493-35.457 5.569 0 3.075 15.875 5.568 35.457 5.568z" fill="#89ACE8"/>
        <path opacity=".83" d="M168.908 21.613c0 2.81-14.51 5.062-32.403 5.062s-32.416-2.29-32.416-5.062c0-2.772 14.51-5.062 32.416-5.062s32.403 2.252 32.403 5.062z" fill="#85AAE8"/>
        <path opacity=".85" d="M165.854 21.613c0 2.53-13.141 4.619-29.349 4.619s-29.361-2.075-29.361-4.62c0-2.543 13.141-4.618 29.361-4.618 16.221 0 29.349 2.075 29.349 4.619z" fill="#82A7E7"/>
        <path opacity=".88" d="M162.813 21.613c0 2.278-11.786 4.138-26.308 4.138s-26.32-1.86-26.32-4.138c0-2.278 11.785-4.138 26.32-4.138s26.308 1.86 26.308 4.138z" fill="#7EA5E6"/>
        <path opacity=".9" d="M159.759 21.613c0 2.025-10.417 3.657-23.254 3.657-12.837 0-23.266-1.632-23.266-3.657 0-2.025 10.416-3.657 23.266-3.657 12.85 0 23.254 1.632 23.254 3.657z" fill="#7AA2E6"/>
        <path opacity=".93" d="M136.505 24.79c11.163 0 20.212-1.423 20.212-3.177 0-1.755-9.049-3.177-20.212-3.177s-20.212 1.422-20.212 3.177c0 1.754 9.049 3.176 20.212 3.176z" fill="#77A0E5"/>
        <path opacity=".95" d="M153.663 21.613c0 1.493-7.679 2.695-17.158 2.695-9.479 0-17.171-1.202-17.171-2.695 0-1.494 7.68-2.696 17.171-2.696 9.492 0 17.158 1.202 17.158 2.696z" fill="#739DE4"/>
        <path opacity=".98" d="M150.622 21.613c0 1.265-6.336 2.215-14.117 2.215-7.781 0-14.117-.988-14.117-2.215 0-1.228 6.336-2.215 14.117-2.215 7.781 0 14.117.987 14.117 2.215z" fill="#709BE4"/>
        <path opacity=".5" d="M147.568 21.613c0 .962-4.955 1.746-11.063 1.746-6.108 0-11.075-.784-11.075-1.746s4.954-1.734 11.075-1.734c6.121 0 11.063.772 11.063 1.734z" fill="#6C98E3"/>
    </g>
</svg>
