<svg viewBox="0 0 267 243" fill="none" xmlns="http://www.w3.org/2000/svg">
    <g clip-path="url(#clip0)">
        <g opacity=".5">
            <path opacity=".02" d="M123.568 242.572c66.711 0 120.791-8.502 120.791-18.989 0-10.488-54.08-18.989-120.791-18.989S2.777 213.095 2.777 223.583c0 10.487 54.08 18.989 120.791 18.989z" fill="#FBFCFE"/>
            <path opacity=".05" d="M123.568 242.13c65.184 0 118.027-8.304 118.027-18.547 0-10.244-52.843-18.548-118.027-18.548-65.185 0-118.028 8.304-118.028 18.548 0 10.243 52.843 18.547 118.028 18.547z" fill="#F8FAFE"/>
            <path opacity=".07" d="M123.568 241.69c63.658 0 115.263-8.107 115.263-18.107s-51.605-18.107-115.263-18.107c-63.658 0-115.264 8.107-115.264 18.107S59.91 241.69 123.568 241.69z" fill="#F4F7FD"/>
            <path opacity=".1" d="M123.568 241.261c62.124 0 112.486-7.915 112.486-17.678 0-9.764-50.362-17.679-112.486-17.679-62.125 0-112.487 7.915-112.487 17.679 0 9.763 50.362 17.678 112.487 17.678z" fill="#F1F5FC"/>
            <path opacity=".12" d="M123.568 240.82c60.598 0 109.723-7.717 109.723-17.237s-49.125-17.238-109.723-17.238c-60.599 0-109.723 7.718-109.723 17.238s49.124 17.237 109.723 17.237z" fill="#EDF2FC"/>
            <path opacity=".15" d="M123.568 240.392c59.071 0 106.959-7.526 106.959-16.809 0-9.284-47.888-16.809-106.959-16.809-59.072 0-106.96 7.525-106.96 16.809 0 9.283 47.888 16.809 106.96 16.809z" fill="#E9F0FB"/>
            <path opacity=".17" d="M123.568 239.951c57.538 0 104.182-7.329 104.182-16.368 0-9.04-46.644-16.368-104.182-16.368-57.539 0-104.183 7.328-104.183 16.368 0 9.039 46.644 16.368 104.183 16.368z" fill="#E6EDFA"/>
            <path opacity=".2" d="M123.568 239.522c56.012 0 101.418-7.136 101.418-15.939 0-8.804-45.406-15.94-101.418-15.94-56.012 0-101.419 7.136-101.419 15.94 0 8.803 45.407 15.939 101.419 15.939z" fill="#E2EBFA"/>
            <path opacity=".22" d="M222.21 223.583c0 8.568-44.172 15.511-98.642 15.511s-98.655-6.943-98.655-15.511c0-8.569 44.172-15.499 98.655-15.499 54.482 0 98.642 6.943 98.642 15.499z" fill="#DFE8F9"/>
            <path opacity=".24" d="M123.568 238.653c52.952 0 95.878-6.747 95.878-15.07s-42.926-15.071-95.878-15.071-95.879 6.748-95.879 15.071 42.927 15.07 95.879 15.07z" fill="#DBE6F8"/>
            <path opacity=".27" d="M123.568 238.212c51.425 0 93.114-6.55 93.114-14.629 0-8.08-41.689-14.63-93.114-14.63-51.426 0-93.115 6.55-93.115 14.63 0 8.079 41.69 14.629 93.115 14.629z" fill="#D8E3F7"/>
            <path opacity=".29" d="M123.568 237.783c49.892 0 90.337-6.358 90.337-14.2 0-7.843-40.445-14.201-90.337-14.201S33.23 215.74 33.23 223.583c0 7.842 40.446 14.2 90.338 14.2z" fill="#D4E1F7"/>
            <path opacity=".32" d="M123.568 237.342c48.365 0 87.574-6.16 87.574-13.759 0-7.6-39.209-13.76-87.574-13.76-48.366 0-87.574 6.16-87.574 13.76 0 7.599 39.208 13.759 87.574 13.759z" fill="#D0DEF6"/>
            <path opacity=".34" d="M123.568 236.914c46.839 0 84.81-5.969 84.81-13.331 0-7.363-37.971-13.332-84.81-13.332-46.84 0-84.81 5.969-84.81 13.332 0 7.362 37.97 13.331 84.81 13.331z" fill="#CDDCF5"/>
            <path opacity=".37" d="M123.568 236.473c45.305 0 82.033-5.771 82.033-12.89 0-7.119-36.728-12.891-82.033-12.891-45.306 0-82.034 5.772-82.034 12.891s36.728 12.89 82.034 12.89z" fill="#C9D9F5"/>
            <path opacity=".39" d="M123.568 236.045c43.779 0 79.269-5.58 79.269-12.462 0-6.883-35.49-12.462-79.269-12.462-43.78 0-79.27 5.579-79.27 12.462 0 6.882 35.49 12.462 79.27 12.462z" fill="#C6D7F4"/>
            <path opacity=".41" d="M200.061 223.583c0 6.64-34.24 12.02-76.493 12.02-42.254 0-76.506-5.38-76.506-12.02 0-6.641 34.252-12.021 76.506-12.021 42.253 0 76.493 5.38 76.493 12.021z" fill="#C2D4F3"/>
            <path opacity=".44" d="M123.568 235.175c40.719 0 73.729-5.19 73.729-11.592 0-6.403-33.01-11.593-73.729-11.593-40.72 0-73.73 5.19-73.73 11.593 0 6.402 33.01 11.592 73.73 11.592z" fill="#BED2F3"/>
            <path opacity=".46" d="M123.568 234.734c39.193 0 70.965-4.993 70.965-11.151 0-6.159-31.772-11.152-70.965-11.152-39.193 0-70.966 4.993-70.966 11.152 0 6.158 31.773 11.151 70.966 11.151z" fill="#BBCFF2"/>
            <path opacity=".49" d="M123.568 234.293c37.666 0 68.201-4.795 68.201-10.711 0-5.915-30.535-10.71-68.201-10.71-37.667 0-68.202 4.795-68.202 10.71 0 5.916 30.535 10.711 68.202 10.711z" fill="#B7CDF1"/>
            <path opacity=".51" d="M123.568 233.865c36.133 0 65.424-4.604 65.424-10.282 0-5.679-29.291-10.282-65.424-10.282-36.133 0-65.425 4.603-65.425 10.282 0 5.678 29.291 10.282 65.425 10.282z" fill="#B4CAF1"/>
            <path opacity=".54" d="M123.568 233.424c34.606 0 62.661-4.406 62.661-9.841s-28.055-9.841-62.661-9.841c-34.607 0-62.661 4.406-62.661 9.841s28.054 9.841 62.661 9.841z" fill="#B0C8F0"/>
            <path opacity=".56" d="M123.568 232.995c33.073 0 59.884-4.214 59.884-9.413 0-5.198-26.811-9.412-59.884-9.412-33.074 0-59.885 4.214-59.885 9.412 0 5.199 26.811 9.413 59.885 9.413z" fill="#ADC5EF"/>
            <path opacity=".59" d="M180.688 223.583c0 4.964-25.569 8.984-57.12 8.984-31.552 0-57.12-4.02-57.12-8.984 0-4.965 25.568-8.972 57.12-8.972 31.551 0 57.12 4.02 57.12 8.972z" fill="#A9C3EF"/>
            <path opacity=".61" d="M177.95 223.583c0 4.725-24.345 8.543-54.357 8.543s-54.357-3.78-54.357-8.543 24.333-8.543 54.357-8.543 54.357 3.83 54.357 8.543z" fill="#A5C0EE"/>
            <path opacity=".63" d="M123.568 231.685c28.487 0 51.58-3.628 51.58-8.102 0-4.475-23.093-8.103-51.58-8.103s-51.58 3.628-51.58 8.103c0 4.474 23.093 8.102 51.58 8.102z" fill="#A2BEED"/>
            <path opacity=".66" d="M172.384 223.583c0 4.246-21.859 7.673-48.816 7.673-26.958 0-48.817-3.427-48.817-7.673 0-4.247 21.86-7.661 48.817-7.661s48.816 3.427 48.816 7.661z" fill="#9EBBED"/>
            <path opacity=".68" d="M123.568 230.815c25.434 0 46.052-3.238 46.052-7.232 0-3.995-20.618-7.233-46.052-7.233s-46.053 3.238-46.053 7.233c0 3.994 20.619 7.232 46.053 7.232z" fill="#9BB9EC"/>
            <path opacity=".71" d="M166.843 223.583c0 3.78-19.372 6.804-43.275 6.804-23.904 0-43.276-3.049-43.276-6.804 0-3.755 19.372-6.792 43.276-6.792 23.903 0 43.275 3.037 43.275 6.792z" fill="#97B6EB"/>
            <path opacity=".73" d="M164.067 223.583c0 3.515-18.136 6.376-40.512 6.376s-40.512-2.861-40.512-6.376c0-3.516 18.136-6.364 40.512-6.364s40.512 2.848 40.512 6.364z" fill="#93B4EB"/>
            <path opacity=".76" d="M123.568 229.517c20.84 0 37.735-2.657 37.735-5.934 0-3.278-16.895-5.935-37.735-5.935-20.841 0-37.736 2.657-37.736 5.935 0 3.277 16.895 5.934 37.736 5.934z" fill="#90B1EA"/>
            <path opacity=".78" d="M158.539 223.583c0 3.036-15.662 5.506-34.971 5.506-19.31 0-34.972-2.52-34.972-5.506 0-2.987 15.65-5.494 34.972-5.494 19.322 0 34.971 2.419 34.971 5.494z" fill="#8CAFE9"/>
            <path opacity=".8" d="M123.568 228.648c17.787 0 32.207-2.268 32.207-5.066 0-2.797-14.42-5.065-32.207-5.065-17.788 0-32.208 2.268-32.208 5.065 0 2.798 14.42 5.066 32.208 5.066z" fill="#89ACE8"/>
            <path opacity=".83" d="M152.999 223.583c0 2.52-13.176 4.624-29.431 4.624-16.256 0-29.444-2.066-29.444-4.624s13.188-4.625 29.444-4.625c16.255 0 29.431 2.079 29.431 4.625z" fill="#85AAE8"/>
            <path opacity=".85" d="M150.184 223.583c0 2.318-11.939 4.195-26.667 4.195-14.728 0-26.667-1.877-26.667-4.195 0-2.319 11.939-4.184 26.667-4.184 14.728 0 26.667 1.878 26.667 4.184z" fill="#82A7E7"/>
            <path opacity=".88" d="M123.568 227.338c13.201 0 23.903-1.682 23.903-3.755 0-2.074-10.702-3.755-23.903-3.755-13.202 0-23.904 1.681-23.904 3.755 0 2.073 10.702 3.755 23.904 3.755z" fill="#7EA5E6"/>
            <path opacity=".9" d="M144.694 223.583c0 1.839-9.452 3.326-21.126 3.326-11.674 0-21.127-1.487-21.127-3.326 0-1.84 9.453-3.314 21.127-3.314s21.126 1.499 21.126 3.314z" fill="#7AA2E6"/>
            <path opacity=".93" d="M141.931 223.583c0 1.6-8.229 2.885-18.363 2.885-10.135 0-18.363-1.26-18.363-2.885 0-1.626 8.216-2.886 18.363-2.886s18.363 1.298 18.363 2.886z" fill="#77A0E5"/>
            <path opacity=".95" d="M139.154 223.583c0 1.361-6.979 2.457-15.586 2.457-8.608 0-15.599-1.096-15.599-2.457 0-1.361 6.979-2.445 15.599-2.445 8.619 0 15.586 1.096 15.586 2.445z" fill="#739DE4"/>
            <path opacity=".98" d="M136.39 223.583c0 1.121-5.742 2.016-12.822 2.016-7.08 0-12.823-.895-12.823-2.016 0-1.122 5.743-2.016 12.823-2.016s12.822.907 12.822 2.016z" fill="#709BE4"/>
            <path opacity=".5" d="M123.568 225.158c5.555 0 10.058-.706 10.058-1.575 0-.87-4.503-1.575-10.058-1.575-5.556 0-10.059.705-10.059 1.575 0 .869 4.503 1.575 10.059 1.575z" fill="#6C98E3"/>
        </g>
        <path d="M80.96 76.699l60.39-13.23 10.096-1.084 10.627-4.6a4.816 4.816 0 002.524-2.52l1.338-3.124a1.81 1.81 0 00.119-1.556 1.806 1.806 0 00-1.142-1.065l-1.35-.378a3.782 3.782 0 00-3.534-1.953l-10.879.655-2.524-1.411 2.398-5.192a2.703 2.703 0 00-1.11-3.49l-5.654 6.993-4.052 8.594-33.217 4.334L80.923 53.3l.038 23.399z" fill="#FFCEBD"/>
        <path opacity=".2" d="M164.584 55.253l.745-1.739a6.978 6.978 0 00-4.203.34c-6.903 2.092-11.711 5.04-19.334 5.28-7.03.164-14.224-.441-20.95 1.6-3.496 1.071-6.778 2.835-10.374 3.478l-.581.088c-3.786.53-7.572-.1-11.359-.365a68.865 68.865 0 00-16.962 1.26l-.63 11.441 60.414-13.167 10.096-1.084 10.627-4.6a4.813 4.813 0 002.511-2.532z" fill="#A58877"/>
        <path d="M193.094 197.827s1.666 11.832-2.436 17.238c-3.786 5.04 25.04 0 25.04 0s-9.605-2.646-10.867-5.406c-1.035-2.268 2.095-13.596 2.095-13.596l-13.832 1.764z" fill="url(#paint0_linear)"/>
        <path opacity=".6" d="M201.563 216.967c-.291-1.071-.77-2.091-1.023-3.175-.568-2.394 0-4.914-.34-7.359a52.4 52.4 0 00-1.401-5.04 18.766 18.766 0 01-.505-4.196l-5.2.63s1.666 11.832-2.436 17.238c-1.855 2.482 4.254 2.507 10.905 1.902z" fill="#FC7318"/>
        <path d="M189.889 211.965v12.853c0 .795.316 1.558.879 2.12a3.007 3.007 0 002.124.879h37.445c1.48 0 2.899-.587 3.945-1.632a5.565 5.565 0 001.634-3.938v-1.159l-11.435-1.474-16.406-8.48-3.231-1.462-2.335 3.503-8.216.302-2.827-2.268a.957.957 0 00-1.034-.131.961.961 0 00-.543.887z" fill="url(#paint1_linear)"/>
        <path d="M230.337 225.964h-37.445a2.998 2.998 0 01-2.778-1.849 2.965 2.965 0 01-.225-1.15v1.853c0 .795.316 1.558.879 2.12a3.007 3.007 0 002.124.879h37.445c1.48 0 2.899-.587 3.945-1.632a5.565 5.565 0 001.634-3.938v-1.159h-.076a5.529 5.529 0 01-1.824 3.482 5.544 5.544 0 01-3.679 1.394z" fill="#fff"/>
        <path d="M220.052 146.165a22.332 22.332 0 0110.601 10.484c2.423 5.519 15.952-19.077 15.952-19.077s-4.669 5.695-11.081 4.965c-2.663-.303-6.512-7.309-6.512-7.309l-8.96 10.937z" fill="url(#paint2_linear)"/>
        <path opacity=".6" d="M238.301 149.328a23.998 23.998 0 01-14.766-5.834c-.253-.214-.467-.453-.707-.68l-2.776 3.389a22.323 22.323 0 0110.601 10.484c1.262 2.734 5.136-1.928 8.834-7.334l-1.186-.025z" fill="#FC7318"/>
        <path d="M159.019 108.188l44.702 8.026a17.803 17.803 0 018.237 7.222 17.756 17.756 0 012.44 10.671l-7.775 69.882h-14.387s1.085-24.369-2.322-43.144c-1.262-7.233.164-14.112 1.009-18.56.366-1.916-7.786-.882-7.786-.882l-47.832-2.886-.265-15.788 23.979-14.541z" fill="url(#paint3_linear)"/>
        <path opacity=".4" d="M200.048 203.989a61.847 61.847 0 00-.606-9.161 136.188 136.188 0 012.234-43.446c.7-2.523 1.036-5.132.997-7.749-.467-6.767-6.209-11.971-12.116-15.31-8.619-4.889-18.325-7.447-27.904-9.967l-14.223-3.78-13.39 8.152.252 15.789 47.832 2.885s8.153-1.033 7.787.882c-.846 4.448-2.322 11.341-1.01 18.561 3.408 18.775 2.322 43.144 2.322 43.144h7.825z" fill="#3457B4"/>
        <path d="M60.869 52.078l-1.931 10.924a30.952 30.952 0 002.385 18.422l26.503 57.131h38.379l21.241-21.421-29.911-22.63a31.998 31.998 0 01-9.781-12.122L97.178 59.638a20.6 20.6 0 00-7.61-8.686 20.646 20.646 0 00-11.093-3.234H66.069a5.28 5.28 0 00-3.396 1.234 5.266 5.266 0 00-1.804 3.126z" fill="#fff"/>
        <path d="M123.681 105.542l48.993-17.339a7.156 7.156 0 017.118 1.374l52.817 48.285-9.831 11.126a96.224 96.224 0 00-25.09-15.814c-9.528-4.069-15.637-11.34-18.035-17.124l-35.766 22.681-45.712-13.86c5.528-10.774 13.996-15.474 25.506-19.329z" fill="url(#paint4_linear)"/>
        <path d="M227.838 155.591l9.958 8.127a3.021 3.021 0 004.228-.416l23.714-28.981a5.555 5.555 0 001.027-1.914c.212-.699.284-1.434.212-2.161a5.537 5.537 0 00-2.022-3.75l-.908-.743-8.368 7.913-16.974 7.308-3.181 1.563 1.262 4.032-4.972 6.539-3.534.744a.966.966 0 00-.803.722.972.972 0 00.361 1.017z" fill="url(#paint5_linear)"/>
        <path d="M264.955 126.534l-.908-.743-.543.516a5.537 5.537 0 01.467 7.56l-23.714 28.981a2.972 2.972 0 01-2.259 1.084 2.98 2.98 0 004.026-.542l23.714-28.981a5.538 5.538 0 00-.783-7.875z" fill="#fff"/>
        <path opacity=".4" d="M222.778 148.988l3.218-3.642a23.588 23.588 0 01-2.461-1.852c-2.751-2.407-4.909-5.406-7.572-7.913-4.821-4.536-11.081-7.245-16.142-11.53-5.351-4.523-9.15-10.647-14.299-15.359-2.89-2.647-6.386-4.902-10.286-5.242-5.048-.441-9.781 2.381-14.261 4.788a111.843 111.843 0 01-43.453 12.878c-4.429.545-8.92.302-13.264-.719a20.484 20.484 0 01-2.675-.97 36.735 36.735 0 00-3.408 5.418l45.712 13.861 35.766-22.681c2.398 5.784 8.507 13.054 18.035 17.124a96.191 96.191 0 0125.09 15.839z" fill="#3457B4"/>
        <path d="M62.585 31.677s4.102 10.963 2.423 16.154l17.089.202s-.467-6.855 3.634-7.724l-23.146-8.631z" fill="#FFCEBD"/>
        <path d="M87.195 5.166a20.13 20.13 0 01.631 10.144l5.049 8.442a1.649 1.649 0 01-1.414 2.52l.96 7.699a5.713 5.713 0 01-1.57 4.618 5.73 5.73 0 01-4.564 1.733l-8.835-.643-14.45-6.426-2.02-7.888a12.407 12.407 0 011.351-8.89 12.44 12.44 0 017.004-5.651l17.858-5.658z" fill="#FFCEBD"/>
        <path d="M73.994 73.083L84.18 91.479l18.754-11.592L92.508 62.41a10.675 10.675 0 00-6.004-4.718 10.693 10.693 0 00-7.626.497 10.664 10.664 0 00-5.715 6.377 10.631 10.631 0 00.831 8.517z" fill="#fff"/>
        <path opacity=".4" d="M92.395 33.946v-.114c-.29-2.432-.682-4.864-.896-7.283a4.766 4.766 0 00-3.546.945 7.48 7.48 0 00-.871 1.412 4.411 4.411 0 01-2.979 2.192 3.097 3.097 0 01-2.07-.113 3.847 3.847 0 01-1.262-1.059 17.897 17.897 0 01-3.243-6.124 22.044 22.044 0 01-1.11-7.119 7.387 7.387 0 01.845-3.78c1.262-2.104 4.733-3.478 7.093-3.78a12.638 12.638 0 003.634-.781 16.58 16.58 0 00-.77-3.214l-17.883 5.696a12.44 12.44 0 00-7.021 5.658 12.407 12.407 0 00-1.346 8.908s2.02 7.875 2.02 7.888a7.553 7.553 0 001.135 3.037 13.268 13.268 0 002.612-2.697 11.095 11.095 0 003.092-6.2c0-.755 0-1.524.064-2.267a2.52 2.52 0 011.097-1.903 2.073 2.073 0 011.957.063 4.73 4.73 0 012.524 3.78 8.33 8.33 0 01-.227 3.011c-.303.794-.82 1.072-1.414 1.689-1.565 1.638-2.347 4.196-.606 6.073.365.37.792.673 1.262.895a14.61 14.61 0 005.377 1.071l5.2.378 1.261.088a5.737 5.737 0 004.522-1.758 5.719 5.719 0 001.549-4.592z" fill="#BF9B8E"/>
        <path d="M55.026 14.755c.06-1.646.49-3.257 1.262-4.712a6.1 6.1 0 013.71-3.05c.228-.036.447-.117.644-.24a1.45 1.45 0 00.378-.528c2.032-3.78 6.31-4.55 10.172-5.04A50.79 50.79 0 0179.17.58c2.524 0 5.048-.542 7.572-.567 2.057 0 3.963-.076 5.767 1.159a3.971 3.971 0 011.881 3.616 3.94 3.94 0 01-2.045 2.772 9.994 9.994 0 01-3.394 1.071c-3.61.63-7.32.845-10.841 1.928a19.63 19.63 0 00-8.835 5.444 25.394 25.394 0 00-6.84 11.403c-.215.983-.48 2.142-1.426 2.52-2.007.756-3.787-2.52-4.33-3.931A20.661 20.661 0 0155 18.435a32.537 32.537 0 01.026-3.68z" fill="url(#paint6_linear)"/>
        <path opacity=".2" d="M89.846 118.923a12.473 12.473 0 0010.506-6.542 12.437 12.437 0 001.485-6.222 12.44 12.44 0 00-1.807-6.136 36.261 36.261 0 00-3.95-4.763 47.887 47.887 0 01-5.515-7.939c-1.918-3.351-3.433-7.245-5.92-10.156-2.485-2.91-4.315-4.674-5.754-8.14-2.638-6.375-3.357-13.86-8.077-19.19a17.491 17.491 0 00-2.247-2.08h-2.524a5.28 5.28 0 00-3.396 1.234 5.265 5.265 0 00-1.803 3.127l-1.906 10.886a30.952 30.952 0 002.385 18.422l14.4 30.985c4.014 3.515 8.835 6.703 14.123 6.514z" fill="#6C98E3"/>
        <path d="M109.698 227.816c22.248 0 40.284-5.861 40.284-13.092 0-7.23-18.036-13.091-40.284-13.091-22.249 0-40.285 5.861-40.285 13.091 0 7.231 18.036 13.092 40.285 13.092z" fill="url(#paint7_linear)"/>
        <path d="M109.698 226.267c-21.455 0-38.972-5.456-40.21-12.324-.05.258-.075.519-.075.782 0 7.232 18.035 13.091 40.285 13.091 22.25 0 40.284-5.859 40.284-13.091 0-.263-.025-.524-.075-.782-1.237 6.868-18.767 12.324-40.209 12.324z" fill="#B3CDFA"/>
        <path d="M101.267 190.506h16.849v21.95a3.57 3.57 0 01-3.572 3.566h-9.693a3.573 3.573 0 01-2.525-1.044 3.563 3.563 0 01-1.046-2.522v-21.95h-.013z" fill="url(#paint8_linear)"/>
        <path opacity=".4" d="M85.731 40.322l-8.291-.605c-3.294 1.688.555 5.821.504 8.278h4.153s-.467-6.816 3.634-7.673z" fill="#A58877"/>
        <path d="M182.48 120.498a99.856 99.856 0 01-38.843 2.415 99.793 99.793 0 01-36.809-12.616A99.653 99.653 0 0177.66 84.572 99.477 99.477 0 0160.58 49.658c0-.126 0-.252-.101-.39-4.09-15.6-25.14-18.283-32.713-4.07a99.41 99.41 0 009.623 108.799 99.708 99.708 0 0046.737 32.73 99.852 99.852 0 0057.061 1.763c40.108-10.597 53.17-71.104 41.294-67.992z" fill="url(#paint9_linear)"/>
        <path d="M102.933 79.887l7.938 13.23 48.186 15.121 11.093 6.829a4.902 4.902 0 012.133 2.785l2.638 8.82c.289.983.19 2.038-.278 2.949l-.997 1.89a4.904 4.904 0 01-4.367 2.646h-1.565a3.673 3.673 0 01-3.584-2.898l-1.186-5.481-9.428-8.594-46.57-2.142a8.844 8.844 0 01-6.524-3.326L84.179 91.429l18.754-11.542z" fill="#FFCEBD"/>
        <path opacity=".4" d="M168.585 129.092a19.578 19.578 0 00-7.926-11.265 27.416 27.416 0 00-6.903-2.709 170.35 170.35 0 00-34.391-5.973 28.329 28.329 0 01-6.525-.945 25.244 25.244 0 01-6.714-3.78c-5.275-3.704-10.677-7.56-14.097-12.991a34.616 34.616 0 01-1.944-3.629l-5.906 3.629 16.243 20.337a8.841 8.841 0 006.524 3.327l46.57 2.142 9.428 8.505 1.186 5.481a3.668 3.668 0 003.584 2.898h1.956a35.663 35.663 0 00-1.085-5.027z" fill="#A58877"/>
        <g opacity=".2">
            <path opacity=".3" d="M141.135 188.49c21.455-5.657 35.136-25.541 41.459-42.375-6.411-5.922-16.066-8.341-25.014-8.001-11.144.428-21.834 4.208-32.813 6.3a108.709 108.709 0 01-39.238.227c-8.291-1.487-16.734-4.121-22.83-9.917-7.673-7.295-10.336-18.207-13.58-28.288A179.684 179.684 0 0033.293 70.89c-2.524-4.322-5.288-8.631-9.188-11.781-.635-.53-1.31-1.01-2.02-1.437a99.395 99.395 0 00-4.399 53.526 99.485 99.485 0 0024.093 48.017 99.724 99.724 0 0045.57 28.533 99.86 99.86 0 0053.786.742z" fill="#0055FE"/>
        </g>
        <path d="M243.917 144.175c.666-1.848.953-3.811.846-5.771l-1.641.705a13.246 13.246 0 01-.808 4.625c-.366 1.008 1.262 1.449 1.603.441zM238.781 144.905c-.366 1.008 1.262 1.437 1.59.441a14.41 14.41 0 00.871-5.418l-1.666.718a13.31 13.31 0 01-.795 4.259zM245.848 142.587c-.366 1.008 1.262 1.436 1.603.441.714-1.963.993-4.056.82-6.137l-1.628.693a13.022 13.022 0 01-.795 5.003zM249.382 141.44c-.366.996 1.262 1.437 1.603.429a14.32 14.32 0 00.795-6.49l-1.616.693a13.222 13.222 0 01-.782 5.368zM212.833 218.958a14.471 14.471 0 004.669-2.948l-1.59-.819a13.26 13.26 0 01-3.786 2.28c-1.01.391-.278 1.878.707 1.487zM206.434 215.178a14.915 14.915 0 004.342-2.646l-1.616-.832a13.521 13.521 0 01-3.458 1.991c-.997.391-.265 1.878.732 1.487zM212.542 213.452a13.893 13.893 0 01-3.634 2.129c-.997.391-.265 1.878.719 1.487a14.555 14.555 0 004.518-2.797l-1.603-.819zM216.038 220.848a14.523 14.523 0 004.821-3.099l-1.565-.807a13.391 13.391 0 01-3.988 2.419c-.997.391-.265 1.878.732 1.487z" fill="#fff"/>
    </g>
    <defs>
        <linearGradient id="paint0_linear" x1="190.318" y1="206.685" x2="215.698" y2="206.685" gradientUnits="userSpaceOnUse">
            <stop stop-color="#FC7318"/>
            <stop offset="1" stop-color="#FEB423"/>
        </linearGradient>
        <linearGradient id="paint1_linear" x1="189.889" y1="218.744" x2="235.916" y2="218.744" gradientUnits="userSpaceOnUse">
            <stop stop-color="#3457B4"/>
            <stop offset="1" stop-color="#6C98E3"/>
        </linearGradient>
        <linearGradient id="paint2_linear" x1="4786.87" y1="4173.8" x2="5247.68" y2="4313.85" gradientUnits="userSpaceOnUse">
            <stop stop-color="#FC7318"/>
            <stop offset="1" stop-color="#FEB423"/>
        </linearGradient>
        <linearGradient id="paint3_linear" x1="150.55" y1="103.576" x2="229.724" y2="197.133" gradientUnits="userSpaceOnUse">
            <stop stop-color="#111C3A"/>
            <stop offset=".01" stop-color="#121D3D"/>
            <stop offset=".23" stop-color="#1E3267"/>
            <stop offset=".45" stop-color="#284289"/>
            <stop offset=".65" stop-color="#2E4EA1"/>
            <stop offset=".84" stop-color="#3355AF"/>
            <stop offset="1" stop-color="#3457B4"/>
        </linearGradient>
        <linearGradient id="paint4_linear" x1="85.757" y1="163.655" x2="223.116" y2="106.104" gradientUnits="userSpaceOnUse">
            <stop stop-color="#111C3A"/>
            <stop offset=".36" stop-color="#1D3063"/>
            <stop offset="1" stop-color="#3457B4"/>
        </linearGradient>
        <linearGradient id="paint5_linear" x1="7209.46" y1="6668.19" x2="8142.29" y2="6951.7" gradientUnits="userSpaceOnUse">
            <stop stop-color="#3457B4"/>
            <stop offset="1" stop-color="#6C98E3"/>
        </linearGradient>
        <linearGradient id="paint6_linear" x1="54.975" y1="15.007" x2="94.414" y2="15.007" gradientUnits="userSpaceOnUse">
            <stop stop-color="#111C3A"/>
            <stop offset=".26" stop-color="#1C2F61"/>
            <stop offset=".59" stop-color="#29458E"/>
            <stop offset=".85" stop-color="#3152AA"/>
            <stop offset="1" stop-color="#3457B4"/>
        </linearGradient>
        <linearGradient id="paint7_linear" x1="69.413" y1="214.724" x2="149.982" y2="214.724" gradientUnits="userSpaceOnUse">
            <stop stop-color="#E3EDFE"/>
            <stop offset="1" stop-color="#B3CDFA"/>
        </linearGradient>
        <linearGradient id="paint8_linear" x1="1453.18" y1="4306.74" x2="1678.11" y2="4306.74" gradientUnits="userSpaceOnUse">
            <stop stop-color="#E3EDFE"/>
            <stop offset="1" stop-color="#B3CDFA"/>
        </linearGradient>
        <linearGradient id="paint9_linear" x1="2164.38" y1="14125.5" x2="25276.6" y2="14125.5" gradientUnits="userSpaceOnUse">
            <stop stop-color="#D6E5FF"/>
            <stop offset="1" stop-color="#B3CDFA"/>
        </linearGradient>
        <clipPath id="clip0">
            <path fill="#fff" d="M0 0h267v243H0z"/>
        </clipPath>
    </defs>
</svg>
