<svg viewBox="0 0 217 320" fill="none" xmlns="http://www.w3.org/2000/svg">
    <g clip-path="url(#clip0)">
        <g opacity=".5">
            <path opacity=".02" d="M214.576 302.942c0 9.219-47.491 16.682-106.07 16.682-58.579 0-106.07-7.463-106.07-16.682 0-9.22 47.479-16.67 106.07-16.67 58.592 0 106.07 7.463 106.07 16.67z" fill="#FBFCFE"/>
            <path opacity=".05" d="M108.506 319.235c57.236 0 103.634-7.295 103.634-16.294 0-8.998-46.398-16.293-103.634-16.293-57.235 0-103.634 7.295-103.634 16.293 0 8.999 46.399 16.294 103.634 16.294z" fill="#F8FAFE"/>
            <path opacity=".07" d="M108.506 318.859c55.897 0 101.211-7.127 101.211-15.918 0-8.79-45.314-15.917-101.211-15.917s-101.21 7.127-101.21 15.917c0 8.791 45.313 15.918 101.21 15.918z" fill="#F4F7FD"/>
            <path opacity=".1" d="M108.506 318.47c54.552 0 98.775-6.952 98.775-15.529 0-8.576-44.223-15.528-98.775-15.528-54.551 0-98.774 6.952-98.774 15.528 0 8.577 44.223 15.529 98.774 15.529z" fill="#F1F5FC"/>
            <path opacity=".12" d="M204.845 302.942c0 8.366-43.134 15.152-96.339 15.152-53.204 0-96.35-6.786-96.35-15.152 0-8.367 43.095-15.14 96.35-15.14 53.255 0 96.339 6.773 96.339 15.14z" fill="#EDF2FC"/>
            <path opacity=".15" d="M108.506 317.705c51.868 0 93.915-6.61 93.915-14.764 0-8.153-42.047-14.763-93.915-14.763-51.867 0-93.915 6.61-93.915 14.763 0 8.154 42.047 14.764 93.915 14.764z" fill="#E9F0FB"/>
            <path opacity=".17" d="M199.985 302.941c0 7.953-40.961 14.387-91.479 14.387-50.517 0-91.491-6.434-91.491-14.387 0-7.952 40.961-14.374 91.491-14.374s91.479 6.435 91.479 14.374z" fill="#E6EDFA"/>
            <path opacity=".2" d="M197.549 302.941c0 7.74-39.869 14.011-89.043 14.011-49.173 0-89.055-6.271-89.055-14.011 0-7.739 39.869-13.998 89.055-13.998 49.187 0 89.043 6.272 89.043 13.998z" fill="#E2EBFA"/>
            <path opacity=".22" d="M195.125 302.942c0 7.525-38.789 13.621-86.644 13.621-47.855 0-86.644-6.096-86.644-13.621 0-7.526 38.789-13.61 86.644-13.61 47.855 0 86.644 6.096 86.644 13.61z" fill="#DFE8F9"/>
            <path opacity=".24" d="M108.506 316.174c46.5 0 84.196-5.924 84.196-13.233 0-7.308-37.696-13.233-84.196-13.233s-84.195 5.925-84.195 13.233c0 7.309 37.695 13.233 84.195 13.233z" fill="#DBE6F8"/>
            <path opacity=".27" d="M190.266 302.942c0 7.099-36.604 12.856-81.76 12.856-45.155 0-81.76-5.757-81.76-12.856 0-7.1 36.605-12.845 81.76-12.845 45.156 0 81.76 5.745 81.76 12.845z" fill="#D8E3F7"/>
            <path opacity=".29" d="M187.83 302.942c0 6.898-35.512 12.48-79.324 12.48s-79.336-5.607-79.336-12.48c0-6.874 35.524-12.468 79.336-12.468s79.324 5.544 79.324 12.468z" fill="#D4E1F7"/>
            <path opacity=".32" d="M185.394 302.941c0 6.686-34.419 12.092-76.888 12.092-42.468 0-76.9-5.406-76.9-12.092 0-6.685 34.42-12.079 76.9-12.079 42.481 0 76.888 5.406 76.888 12.079z" fill="#D0DEF6"/>
            <path opacity=".34" d="M182.97 302.941c0 6.473-33.339 11.716-74.464 11.716-41.124 0-74.476-5.243-74.476-11.716 0-6.472 33.34-11.702 74.476-11.702 41.137 0 74.464 5.243 74.464 11.702z" fill="#CDDCF5"/>
            <path opacity=".37" d="M180.534 302.941c0 6.272-32.247 11.289-72.028 11.289-39.78 0-72.04-5.017-72.04-11.289 0-6.271 32.247-11.288 72.04-11.288 39.794 0 72.028 5.042 72.028 11.288z" fill="#C9D9F5"/>
            <path opacity=".39" d="M178.111 302.942c0 6.045-31.167 10.95-69.605 10.95-38.437 0-69.579-4.905-69.579-10.95 0-6.046 31.154-10.938 69.604-10.938s69.58 4.904 69.58 10.938z" fill="#C6D7F4"/>
            <path opacity=".41" d="M108.506 313.503c37.096 0 67.168-4.729 67.168-10.562 0-5.832-30.072-10.561-67.168-10.561-37.096 0-67.168 4.729-67.168 10.561 0 5.833 30.072 10.562 67.168 10.562z" fill="#C2D4F3"/>
            <path opacity=".44" d="M173.289 302.942c0 5.631-28.982 10.184-64.732 10.184s-64.795-4.565-64.795-10.184c0-5.62 28.982-10.173 64.744-10.173 35.763 0 64.783 4.503 64.783 10.173z" fill="#BED2F3"/>
            <path opacity=".46" d="M170.777 302.941c0 5.419-27.902 9.797-62.308 9.797-34.407 0-62.321-4.378-62.321-9.797 0-5.418 27.901-9.796 62.321-9.796 34.419 0 62.308 4.39 62.308 9.796z" fill="#BBCFF2"/>
            <path opacity=".49" d="M168.379 302.941c0 5.206-26.81 9.42-59.873 9.42s-59.885-4.214-59.885-9.42c0-5.205 26.81-9.432 59.885-9.432 33.076 0 59.873 4.24 59.873 9.432z" fill="#B7CDF1"/>
            <path opacity=".51" d="M165.955 302.941c0 5.018-25.729 9.044-57.449 9.044s-57.461-4.051-57.461-9.044c0-4.992 25.73-9.031 57.461-9.031 31.732 0 57.449 4.052 57.449 9.031z" fill="#B4CAF1"/>
            <path opacity=".54" d="M163.519 302.942c0 4.778-24.637 8.654-55.013 8.654-30.375 0-55.025-3.876-55.025-8.654 0-4.779 24.637-8.643 55.025-8.643 30.389 0 55.013 3.876 55.013 8.643z" fill="#B0C8F0"/>
            <path opacity=".56" d="M161.083 302.941c0 4.566-23.545 8.279-52.577 8.279-29.032 0-52.589-3.763-52.589-8.279 0-4.515 23.545-8.265 52.589-8.265 29.045 0 52.577 3.7 52.577 8.265z" fill="#ADC5EF"/>
            <path opacity=".59" d="M158.66 302.942c0 4.365-22.453 7.889-50.154 7.889-27.7 0-50.166-3.524-50.166-7.889s22.465-7.878 50.166-7.878c27.701 0 50.154 3.525 50.154 7.878z" fill="#A9C3EF"/>
            <path opacity=".61" d="M156.223 302.941c0 4.152-21.347 7.526-47.717 7.526-26.37 0-47.717-3.361-47.717-7.526 0-4.164 21.347-7.525 47.717-7.525 26.37 0 47.717 3.386 47.717 7.525z" fill="#A5C0EE"/>
            <path opacity=".63" d="M153.8 302.941c0 3.939-20.28 7.125-45.294 7.125-25.013 0-45.306-3.186-45.306-7.125 0-3.938 20.28-7.112 45.306-7.112 25.027 0 45.294 3.186 45.294 7.112z" fill="#A2BEED"/>
            <path opacity=".66" d="M151.364 302.941c0 3.763-19.187 6.749-42.858 6.749-23.67 0-42.87-3.023-42.87-6.749 0-3.725 19.188-6.735 42.87-6.735 23.683 0 42.858 3.023 42.858 6.735z" fill="#9EBBED"/>
            <path opacity=".68" d="M148.928 302.942c0 3.512-18.095 6.359-40.422 6.359-22.326 0-40.434-2.847-40.434-6.359 0-3.513 18.095-6.347 40.434-6.347s40.422 2.847 40.422 6.347z" fill="#9BB9EC"/>
            <path opacity=".71" d="M146.504 302.941c0 3.299-17.015 5.984-37.998 5.984-20.983 0-38.01-2.685-38.01-5.984 0-3.298 17.015-5.97 38.01-5.97 20.996 0 37.998 2.672 37.998 5.97z" fill="#97B6EB"/>
            <path opacity=".73" d="M144.068 302.941c0 3.098-15.922 5.595-35.562 5.595-19.64 0-35.574-2.509-35.574-5.595 0-3.085 15.922-5.581 35.574-5.581 19.652 0 35.562 2.496 35.562 5.581z" fill="#93B4EB"/>
            <path opacity=".76" d="M108.506 308.147c18.302 0 33.139-2.331 33.139-5.206 0-2.874-14.837-5.205-33.139-5.205-18.302 0-33.138 2.331-33.138 5.205 0 2.875 14.837 5.206 33.138 5.206z" fill="#90B1EA"/>
            <path opacity=".78" d="M139.209 302.941c0 2.672-13.813 4.83-30.703 4.83s-30.652-2.158-30.652-4.83c0-2.671 13.813-4.829 30.715-4.829s30.64 2.17 30.64 4.829z" fill="#8CAFE9"/>
            <path opacity=".8" d="M136.785 302.942c0 2.508-12.67 4.452-28.279 4.452-15.608 0-28.278-1.994-28.278-4.452 0-2.459 12.695-4.416 28.278-4.416 15.584 0 28.279 1.97 28.279 4.416z" fill="#89ACE8"/>
            <path opacity=".83" d="M134.361 302.941c0 2.246-11.577 4.064-25.842 4.064-14.265 0-25.855-1.818-25.855-4.064 0-2.245 11.577-4.064 25.855-4.064 14.277 0 25.842 1.819 25.842 4.064z" fill="#85AAE8"/>
            <path opacity=".85" d="M131.913 302.942c0 2.044-10.485 3.687-23.407 3.687-12.921 0-23.419-1.643-23.419-3.687 0-2.045 10.485-3.676 23.419-3.676 12.934 0 23.407 1.644 23.407 3.676z" fill="#82A7E7"/>
            <path opacity=".88" d="M129.489 302.941c0 1.832-9.392 3.299-20.983 3.299-11.59 0-20.995-1.442-20.995-3.299 0-1.856 9.405-3.298 20.995-3.298 11.591 0 20.983 1.48 20.983 3.298z" fill="#7EA5E6"/>
            <path opacity=".9" d="M127.053 302.942c0 1.618-8.3 2.922-18.547 2.922-10.246 0-18.56-1.254-18.56-2.922 0-1.669 8.314-2.911 18.56-2.911 10.247 0 18.547 1.305 18.547 2.911z" fill="#7AA2E6"/>
            <path opacity=".93" d="M124.63 302.941c0 1.405-7.221 2.509-16.124 2.509-8.903 0-16.123-1.141-16.123-2.509 0-1.367 7.208-2.508 16.123-2.508 8.916 0 16.124 1.116 16.124 2.508z" fill="#77A0E5"/>
            <path opacity=".95" d="M122.194 302.942c0 1.191-6.128 2.157-13.688 2.157-7.559 0-13.7-.966-13.7-2.157 0-1.192 6.128-2.145 13.7-2.145 7.572 0 13.688.965 13.688 2.145z" fill="#739DE4"/>
            <path opacity=".98" d="M119.757 302.941c0 .979-5.022 1.782-11.301 1.782s-11.301-.803-11.301-1.782c0-.978 5.022-1.768 11.301-1.768s11.301.79 11.301 1.768z" fill="#709BE4"/>
            <path opacity=".5" d="M117.334 302.942c0 .777-3.956 1.392-8.79 1.392-4.835 0-8.79-.615-8.79-1.392 0-.778 3.955-1.38 8.79-1.38 4.834 0 8.79.614 8.79 1.38z" fill="#6C98E3"/>
        </g>
        <path d="M80.516 212.706a13.485 13.485 0 001.922 13.271l33.289 42.534a15.405 15.405 0 012.624 9.846l-.088 1.041s4.245 9.583 6.995 8.592c5.512-1.969 11.376-15.566 9.543-18.225-.879-1.254-4.508-3.449-8.162-5.732-10.661-6.686-26.182-44.854-26.182-44.854l20.569-26.918-30.3-5.368-10.21 25.813z" fill="#FFCEBD"/>
        <path opacity=".4" d="M126.639 264.033c-10.661-6.686-26.182-44.854-26.182-44.854l20.569-26.918c-.628.815-11.189-1.969-12.47-2.295-7.383-1.832-12.557 3.875-15.985 9.633-2.762 4.653-7.91 13.258-6.894 18.814a21.434 21.434 0 003.855 7.99c6.279 9.182 11.49 19.38 19.991 26.855 7.12 6.272 11.729 12.079 11.729 21.813-.427 3.687-1.482 5.845.527 9.394a14.672 14.672 0 002.939 3.588c.19.017.382-.004.565-.063 5.512-1.969 11.376-15.566 9.543-18.225-.904-1.267-4.533-3.449-8.187-5.732z" fill="#A58877"/>
        <path d="M129.539 267.03s5.199 11.063-11.301 12.368a121.48 121.48 0 01-1.708 12.857s-6.165 4.741-8.149 7.275c-1.08 1.367-.314 3.436 1.105 4.452a3.646 3.646 0 002.938.189l8.577-1.593a5.943 5.943 0 003.767-2.409l18.032-25.663-12.557-8.931-.704 1.455z" fill="url(#paint0_linear)"/>
        <path d="M141.029 273.252l-17.831 25.375a5.935 5.935 0 01-3.767 2.42l-8.577 1.593a3.871 3.871 0 01-2.511 0c.284.54.688 1.008 1.18 1.368a3.656 3.656 0 002.939.188l8.576-1.593a5.94 5.94 0 003.767-2.408l18.032-25.664-1.808-1.279z" fill="#fff"/>
        <path d="M101.55 207.476s0 48.554 1.921 69.163c.778 8.303-1.645 8.378-2.951 10.285l.954 11.678 19.326-2.936c1.142-7.814-2.65-7.814-3.303-13.12-3.139-25.261 7.936-61.072 2.738-73.352-1.884-4.453-18.685-1.718-18.685-1.718z" fill="#FFCEBD"/>
        <path opacity=".4" d="M117.497 282.546c-3.139-25.262 7.936-61.072 2.738-73.352-.955-2.27-5.802-2.672-10.31-2.509.39 3.212.929 6.423 1.256 9.596 1.695 14.563-.352 29.301.138 43.964.214 6.647.954 13.371-.176 19.931-1.13 6.56-4.307 12.794-9.92 15.967l.201 2.509 19.326-2.935c1.192-7.865-2.6-7.865-3.253-13.171z" fill="#A58877"/>
        <path d="M120.348 289.307s-9.117 12.618-19.828-2.383c0 0-10.046 9.821-21.9 11.665a3.511 3.511 0 00-2.989 3.474 2.356 2.356 0 002.361 2.358h43.95v-15.39l-1.594.276z" fill="url(#paint1_linear)"/>
        <path d="M77.992 302.201h43.95v2.22h-43.95a2.362 2.362 0 01-2.36-2.358 3.347 3.347 0 01.226-1.254 2.346 2.346 0 002.134 1.392z" fill="#fff"/>
        <path d="M129.238 141.198c4.558 5.481 5.023 19.68 3.516 25.575-1.143 4.29-3.491 8.053-4.947 12.217-3.768 10.825 1.444 26.341 3.377 37.329-11.05-1.995-23.381 3.048-34.544 3.424-7.635.251-15.207-1.254-22.603-3.211 1.369-10.035 4.445-18.94 7.534-28.36 3.09-9.42 3.177-20.91 3.252-30.693 0-5.193-.217-10.378-.652-15.554-.277-3.073.339-9.57 1.255-9.758 2.512-.489 6.015 1.543 8.439 2.157l17.58 4.491c4.395 1.116 11.967-2.095 15.671.501a9.962 9.962 0 012.122 1.882z" fill="url(#paint2_linear)"/>
        <path opacity=".2" d="M129.238 141.198a9.927 9.927 0 00-2.034-1.881c-3.767-2.597-11.302.614-15.671-.502l-17.58-4.491c-1.834-.464-4.308-1.731-6.467-2.119a9.308 9.308 0 00-2.31 1.743 9.722 9.722 0 00-.553.652 34.35 34.35 0 00-.377 7.326c.477 5.167.695 10.352.653 15.553-.076 9.784-.189 21.323-3.252 30.693-3.064 9.37-6.166 18.351-7.535 28.36 7.384 1.907 14.956 3.462 22.603 3.211h.314v-1.518a129.907 129.907 0 012.976-35.183c1.494-6.648 3.767-14.023 8.79-18.89 4.609-4.465 11.653-3.161 17.429-5.594a16.94 16.94 0 007.045-5.607c-.653-4.679-1.896-9.182-4.031-11.753z" fill="#6C98E3"/>
        <path d="M54.134 57.924L34.77 29.915l-1.997-6.083a3.976 3.976 0 00-3.616-2.722l-3.403-.138h-1.357L8.79 17.874c-.063 1.643 1.344 2.66 2.825 3.173l7.874 3.023v5.77a5.339 5.339 0 003.114 4.88l5.211 2.358 2.022 1.969L48.358 72.36c.54.979 5.776-14.437 5.776-14.437z" fill="#FFCEBD"/>
        <path d="M139.761 51.088c.603-2.76 2.285-5.531 1.356-8.203-.766-2.183-3.014-3.412-4.633-5.017-2.738-2.835-3.604-7-3.655-10.938a29.843 29.843 0 00-.251-5.707c-.791-3.763-3.604-6.773-5.6-10.035a13.891 13.891 0 00-2.286-3.374 10.512 10.512 0 00-3.855-1.969 201.88 201.88 0 00-9.254-2.985 7.544 7.544 0 00-4.634-.351 7.53 7.53 0 00-2.725 2.282c-1.595 1.807-3.202 3.6-4.81 5.406a5.65 5.65 0 00-2.8 3.6c-.577 2.308 0 4.717.465 7.05s.817 4.854-.2 7.011c-1.018 2.158-3.253 3.675-3.768 5.996-.515 2.32.829 4.49 2.022 6.472 2.06 3.424 3.93 7.338 3.127 11.289-.478 2.358-1.922 4.465-2.223 6.861a7.594 7.594 0 003.051 6.961c1.256.904 2.926 1.543 3.466 2.998.415 1.091 0 2.32.239 3.475.389 2.508 3.164 3.9 5.638 3.763a15.43 15.43 0 006.781-2.923 14.51 14.51 0 016.793-2.772c4.784-.226 9.405 4.164 13.901 2.509 3.629-1.343 4.847-5.933 4.558-9.796-.289-3.864-1.532-7.815-.703-11.603z" fill="url(#paint3_linear)"/>
        <path d="M129.502 45.544h-19.539v22.44h19.539v-22.44z" fill="#FFCEBD"/>
        <path d="M126.526 56.77c1.092 3.65-21.737 1.63-18.911-.928 4.696-4.252 3.114-21.888 3.114-21.888h12.997s.653 15.68 2.8 22.816z" fill="#FFCEBD"/>
        <path d="M108.205 42.145c-3.516 1.706-9.569-3.6-9.343-12.393 0-.188-.665-.426-1.255-.614a.931.931 0 01-.663-.958.928.928 0 01.123-.397c3.905-6.435 3.252-17.31 5.763-19.818 6.028-6.033 30.891 0 30.891 0v14.462c-.063 13.22-25.516 19.718-25.516 19.718z" fill="#FFCEBD"/>
        <path d="M109.8 45.67l-8.087-.163a8.52 8.52 0 00-5.312 1.693l-11.44 8.504a8.795 8.795 0 01-2.988 1.443L61.429 62.54a3.444 3.444 0 01-3.767-1.355L41 38.884l-8.35 5.431L43.46 70.329a12.546 12.546 0 009.72 7.25c9.242 1.255 25.327 2.296 33.967-4.114 0 0 1.644.565-.239 6.171a14.42 14.42 0 002.876 14.274v.076L83.128 138.4s12.093 4.942 47.567.439v-8.04l15.156-69.577-13.549-12.882-19.288 6.761-3.214-9.432z" fill="url(#paint4_linear)"/>
        <path opacity=".4" d="M151.389 66.73c-.163-.553-.339-1.092-.515-1.644l-2.235-7.049a34.644 34.644 0 00-2.223-5.795c-.866-1.668-1.996-3.173-2.863-4.842a17.546 17.546 0 01-1.381-12.543c.352-1.317.854-2.584 1.092-3.926.409-3.63.201-7.302-.615-10.862a20.159 20.159 0 00-4.106-8.956c-3.365-4.026-8.313-6.209-13.273-7.526-2.21-.664-4.294-1.48-6.442-2.057a24.007 24.007 0 00-8.149-.075c-3.227.326-11.038 1.066-12.558 4.766-1.067 2.66.49 4.49 2.713 5.77 2.675 1.53 4.809 2.082 6.931 4.516 4.521 5.23 5.965 12.543 6.128 19.253a31.272 31.272 0 00.452 6.034 7.964 7.964 0 003.115 5.017c3.453 2.27 7.207 1.656 10.359 4.754 4.772 4.666 5.538 11.916 7.987 18.125a33.414 33.414 0 007.534 11.414 8.021 8.021 0 004.546 2.684c5.55.577 5.135-9.294 4.621-12.543a30.355 30.355 0 00-1.118-4.516z" fill="#A58877"/>
        <path d="M116.267 19.404h-12.809v.903h12.809v-.903zM100.683 19.404h-1.017v.903h1.017v-.903z" fill="#191C3C"/>
        <path d="M102.064 26.19c-1.795 0-1.845-5.682-1.845-6.271 0-.59 0-6.335 1.845-6.335 1.846 0 1.846 5.682 1.846 6.335 0 .652-.05 6.271-1.846 6.271zm0-11.753c-.276.176-.891 2.145-.891 5.431 0 3.287.615 5.243.967 5.431.276-.188.904-2.144.904-5.43 0-3.287-.666-5.256-1.017-5.432h.037z" fill="#191C3C"/>
        <path d="M20.091 32.136l-3.264-4.253a2.419 2.419 0 01.44-3.386 2.413 2.413 0 013.39.451l3.264 4.24a2.421 2.421 0 01-.44 3.424 2.426 2.426 0 01-3.39-.477z" fill="#FFCEBD"/>
        <path opacity=".2" d="M132.302 48.341l-1.017.352c-1.457.514-2.336 4.29-3.466 5.406-1.77 1.768-4.458 2.634-6.278 4.515a11.17 11.17 0 00-3.403 7.25c-.201 5.908 5.098 11.803 6.278 17.56 2.223 10.323-9.33 11.916-17.391 10.035a3.556 3.556 0 00.326 3.386 15.3 15.3 0 002.361 2.66c5.939 5.958 6.542 13.27 7.911 21.072 1.544 8.843-4.684 11.352-7.409 18.815-.137.411-.25.83-.339 1.254 5.801-.213 12.67-.74 20.77-1.768v-8.041l15.156-69.576-13.499-12.92z" fill="#191C3C"/>
        <path opacity=".4" d="M109.8 48.567l-5.877 5.57v7.412l2.938-6.773 2.939 8.705 6.705-2.898 3.441 8.806 12.356-21.048-1.607-4.19L112.951 58l-1.519-8.366-1.632-1.066z" fill="#191C3C"/>
        <path d="M109.8 45.67l-5.877 5.569v7.413l2.938-3.876 2.939 5.807h6.705l3.868 5.156 11.929-17.398-1.607-7.087-17.744 13.848-1.519-8.366-1.632-1.066z" fill="#F5F7F9"/>
        <path opacity=".2" d="M86.92 79.636a14.421 14.421 0 002.864 14.274v.076l-.628 4.264a9.776 9.776 0 015.186-5.268 7.825 7.825 0 01-4.582-2.607 7.81 7.81 0 01-1.885-4.919c0-4.014 5.023-10.448 0-13.496a6.059 6.059 0 00-2.072-.703c-5.023-.978-10.586.088-15.37 1.844a37.115 37.115 0 01-6.002 2.02c-4.132.74-8.238-.778-11.691-2.948a30.943 30.943 0 01-8.627-7.526 35.099 35.099 0 01-4.457-10.51c-.992-3.413-1.821-7.527-3.768-10.562-.715-1.117-.288-.979-1.456-.54-.647.377-1.268.797-1.859 1.255.176.439 10.812 26.014 10.812 26.014a12.547 12.547 0 009.72 7.25c9.241 1.254 25.327 2.296 33.966-4.114.088.025 1.733.564-.15 6.196z" fill="#191C3C"/>
        <path d="M138.267 52.681s7.534-.464 9.129 14.826l-5.023 46.523-13.813 38.67h-7.898l7.835-41.856.201-45.156a13.324 13.324 0 012.59-8.114 13.35 13.35 0 016.979-4.893z" fill="url(#paint5_linear)"/>
        <path d="M120.913 152.738l-3.328 7.35a4.238 4.238 0 00.854 4.741l1.406 1.405.603 6.949c.151 1.718.553 3.687 2.198 3.687a3.123 3.123 0 003.026-2.383v-.125l2.11-2.27a4.953 4.953 0 001.155-2.12l.778-2.973c.188-.699.227-1.43.113-2.145l-1.582-12.116h-7.333z" fill="#FFCEBD"/>
        <path opacity=".2" d="M126.827 152.738c.741-14.049 8.125-27.006 9.682-40.979.552-4.942.364-9.959 1.13-14.876 1.092-6.986 4.081-13.584 5.173-20.583 1.093-7 .264-14.462-.489-21.762 2.034 1.843 4.231 5.556 5.023 13.007l-5.023 46.522-13.813 38.671h-1.683z" fill="#191C3C"/>
        <path d="M155.194 63.18c-.201-.54-.415-1.079-.628-1.618l-2.625-6.886a35.273 35.273 0 00-2.586-5.645c-.98-1.593-2.21-3.035-3.177-4.64a17.544 17.544 0 01-2.185-12.393c.263-1.33.69-2.635.841-3.99a32.6 32.6 0 00-1.318-10.861 20.145 20.145 0 00-4.684-8.68c-3.617-3.763-8.702-5.657-13.738-6.686-2.273-.451-4.432-1.141-6.605-1.58a24.375 24.375 0 00-8.137.464c-3.202.59-10.95 1.768-12.205 5.607-1.658 5.017 4.696 6.07 8.049 7.388 2.938 1.141 3.93 2.734 5.286 5.619a34.755 34.755 0 013.102 10.825c.502 4.465.226 9.269 2.599 13.082 1.708 2.722 4.471 4.516 6.869 6.56a17 17 0 013.29 3.424c2.373 3.563 1.331 9.922 1.419 13.973a44.872 44.872 0 001.57 12.957 22.572 22.572 0 007.233 10.474 10.185 10.185 0 003.44 1.944c1.655.364 3.369.364 5.023 0a7.74 7.74 0 006.919-5.218c3.139-6.07 5.023-13.082 3.604-19.755a31.41 31.41 0 00-1.356-4.365z" fill="url(#paint6_linear)"/>
        <path opacity=".4" d="M156.55 67.545a31.276 31.276 0 00-1.356-4.365c-.201-.54-.415-1.079-.628-1.618l-2.625-6.886a35.273 35.273 0 00-2.586-5.645c-.98-1.593-2.21-3.035-3.177-4.64a17.545 17.545 0 01-2.185-12.393c.263-1.33.69-2.635.841-3.99a32.6 32.6 0 00-1.318-10.861 20.145 20.145 0 00-4.684-8.68c-3.617-3.763-8.702-5.657-13.738-6.686-2.273-.451-4.432-1.141-6.605-1.58a22.975 22.975 0 00-7.835.414c.777.66 1.495 1.385 2.147 2.17 3.403 4.051 5.236 9.156 6.969 14.148 1.733 4.992 3.579 10.035 6.994 14.124 1.545 1.831 3.391 3.399 4.91 5.255 6.09 7.413 6.153 17.874 6.505 27.457.251 6.71.816 13.522 3.152 19.818a30.606 30.606 0 005.023 8.868 9.395 9.395 0 003.29-1.066 9.925 9.925 0 003.277-4.089c3.164-6.07 5.111-13.082 3.629-19.755z" fill="#FC7318"/>
    </g>
    <defs>
        <linearGradient id="paint0_linear" x1="133.629" y1="267.893" x2="108.525" y2="302.991" gradientUnits="userSpaceOnUse">
            <stop stop-color="#2842A2"/>
            <stop offset=".24" stop-color="#2B45A5"/>
            <stop offset=".45" stop-color="#3350AC"/>
            <stop offset=".64" stop-color="#4161BA"/>
            <stop offset=".83" stop-color="#547ACC"/>
            <stop offset="1" stop-color="#6C98E3"/>
        </linearGradient>
        <linearGradient id="paint1_linear" x1="121.942" y1="295.666" x2="75.632" y2="295.666" gradientUnits="userSpaceOnUse">
            <stop stop-color="#2842A2"/>
            <stop offset="1" stop-color="#6C98E3"/>
        </linearGradient>
        <linearGradient id="paint2_linear" x1="126.538" y1="219.178" x2="76.391" y2="137.598" gradientUnits="userSpaceOnUse">
            <stop stop-color="#B3CDFA"/>
            <stop offset=".26" stop-color="#C3D8FB"/>
            <stop offset=".71" stop-color="#DAE7FD"/>
            <stop offset="1" stop-color="#E3EDFE"/>
        </linearGradient>
        <linearGradient id="paint3_linear" x1="93.011" y1="38.921" x2="141.393" y2="38.921" gradientUnits="userSpaceOnUse">
            <stop stop-color="#FC7318"/>
            <stop offset="1" stop-color="#FEB423"/>
        </linearGradient>
        <linearGradient id="paint4_linear" x1="32.661" y1="89.821" x2="145.851" y2="89.821" gradientUnits="userSpaceOnUse">
            <stop stop-color="#6C98E3"/>
            <stop offset=".17" stop-color="#547ACC"/>
            <stop offset=".36" stop-color="#4161BA"/>
            <stop offset=".55" stop-color="#3350AC"/>
            <stop offset=".76" stop-color="#2B45A5"/>
            <stop offset="1" stop-color="#2842A2"/>
        </linearGradient>
        <linearGradient id="paint5_linear" x1="2689.55" y1="8244.35" x2="3258.72" y2="8244.35" gradientUnits="userSpaceOnUse">
            <stop stop-color="#6C98E3"/>
            <stop offset=".17" stop-color="#547ACC"/>
            <stop offset=".36" stop-color="#4161BA"/>
            <stop offset=".55" stop-color="#3350AC"/>
            <stop offset=".76" stop-color="#2B45A5"/>
            <stop offset="1" stop-color="#2842A2"/>
        </linearGradient>
        <linearGradient id="paint6_linear" x1="4708.94" y1="3431.43" x2="7496.87" y2="3431.43" gradientUnits="userSpaceOnUse">
            <stop stop-color="#FC7318"/>
            <stop offset="1" stop-color="#FEB423"/>
        </linearGradient>
        <clipPath id="clip0">
            <path fill="#fff" d="M0 0h217v320H0z"/>
        </clipPath>
    </defs>
</svg>
