<svg viewBox="0 0 232 347" fill="none" xmlns="http://www.w3.org/2000/svg">
    <path d="M26.067 298.726s-4.087 2.804-.263 9.446c3.824 6.642 7.156 2.558 15.854 9.184 8.7 6.626 11.752 7.921 16.413 7.413s7.402-2.821 8.206-5.363c.805-2.542-1.526-6.888-1.526-6.888l-38.684-13.792z" fill="#94A3C0"/>
    <path d="M62.847 298.955s1.789 8.692 2.806 15.318c.247 3.067-3.84 7.249-9.716 6.986-5.875-.262-9.19-2.05-11.242-4.592-2.052-2.542-14.772-7.494-17.119-9.528-2.347-2.034-2.806-8.2-1.789-9.709a7.734 7.734 0 018.945-2.296c4.087 1.788 7.419 5.1 15.592 5.609 8.174.508 12.523-1.788 12.523-1.788z" fill="#382747"/>
    <path d="M66.605 276.586s-4.087 2.804-.262 9.446c3.824 6.643 7.155 2.542 15.838 9.185 8.682 6.642 11.751 7.921 16.412 7.412 4.661-.508 7.402-2.82 8.206-5.362.805-2.542-1.542-6.905-1.542-6.905l-38.652-13.776z" fill="#94A3C0"/>
    <path d="M103.386 276.832s1.789 8.692 2.823 15.318c.246 3.067-3.841 7.232-9.717 6.986-5.875-.246-9.19-2.05-11.242-4.592-2.052-2.542-14.772-7.495-17.118-9.528-2.347-2.034-2.807-8.2-1.79-9.709a7.732 7.732 0 018.945-2.296c4.087 1.788 7.419 5.1 15.592 5.609 8.174.508 12.507-1.788 12.507-1.788z" fill="#382747"/>
    <path d="M71.627 206.213c2.052 16.4 10.226 59.221 11.588 74.195 0 0 3.397 5.444 13.622 4.083l4.842-2.017a4.688 4.688 0 002.872-4.92c-1.034-8.2-3.282-29.045-2.265-41.394 1.362-15.662-2.724-25.191-2.724-25.191.344-5.1 1.017-22.796-9.191-27.568 0 0-25.046-4.592-18.743 22.812z" fill="#14347C"/>
    <path d="M92.39 190.895l-2.725 5.444s-41.901 2.034-53.144 14.301c0 0-7.484 1.362-5.448 17.696 2.035 16.335 10.224 59.221 11.587 74.195 0 0 3.397 5.461 13.622 4.083l4.924-2.017a4.69 4.69 0 002.856-4.92c-1.018-8.2-3.283-29.045-2.265-41.394 1.362-15.646-2.725-25.191-2.725-25.191a214.814 214.814 0 0138.11 11.513c19.695 8.2 36.781-1.361 44.314-5.445a48.923 48.923 0 0010.209-6.806 31.19 31.19 0 0018.365-7.429c8.863-7.479 10.225-27.224.689-38.803-9.535-11.578-78.37 4.773-78.37 4.773z" fill="#18388F"/>
    <path d="M107.391 87.41s6.778-2.51 6.335-11.48c-2.068-8.89-4.546-9.496-4.546-9.496s9.47-8.79 20.958-6.052c0 0 7.058 14.301 15.034 20.435-.065 0-6.433 16.81-37.781 6.593z" fill="#CE7C56"/>
    <path d="M122.211 92.527s25.045-20.943 30.15-21.451c6.122-.509 13.786 1.525 15.838 10.217a16.004 16.004 0 01-7.156 17.86c-4.596 2.558-44.954 21.959-52.11 21.959-7.156 0-11.751-6.133-7.156-13.792 4.596-7.659 20.434-14.793 20.434-14.793z" fill="#E2A029"/>
    <path d="M129.876 78.57s-26.572 8.84-34.056 21.09c-7.484 12.252-6.138 25.88-.69 44.937 5.449 19.057-5.448 36.081-2.724 46.298 2.724 10.217 21.796 19.68 49.73 14.973 27.934-4.707 29.986-15.662 32.021-21.779 2.035-6.117-5.449-35.408 1.362-59.238 6.811-23.829-6.811-40.163-12.26-44.28-5.449-4.116-16.347-9.496-33.383-2z" fill="#FFBE3D"/>
    <path d="M163.259 80.604c-5.449-4.083-16.413-9.528-33.383-2.033 0 0-26.572 8.84-34.056 21.09a34.829 34.829 0 00-3.956 9.217c10.767-13.973 26.031-20.106 35.977 3.723 9.273 22.255-14.329 87.626-34.943 67.077a25.53 25.53 0 00-.492 11.217c2.724 10.201 21.796 19.681 49.73 14.974 27.934-4.707 29.985-15.662 32.021-21.78 2.035-6.117-5.449-35.408 1.362-59.237s-6.811-40.164-12.26-44.248z" fill="#E2A029"/>
    <path d="M104.502 90.132s7.156 4.608 25.029 2.05 18.907-15.318 17.381-16.4a33.245 33.245 0 01-4.596-5.117s-18.907 8.692-25.554 11.234c-6.647 2.542-10.225 4.084-10.225 4.084l-2.035 4.149z" fill="#fff"/>
    <path d="M92.75 34.486s-1.543 18.385 8.207 30.636c9.749 12.25 19.416 5.1 25.554 2.033 6.138-3.067 8.682-8.2 10.717-22.96 2.035-14.76 2.052-29.094-8.682-33.686-10.734-4.592-22.485-5.625-29.116 5.609-6.63 11.234-6.68 18.368-6.68 18.368z" fill="#FFAA83"/>
    <path d="M99.906 12.527s-8.698 6.56-8.206 16.4c.492 9.84-2.56 11.234-1.543 16.4 1.018 5.166 9.208 6.56 9.717 13.776.508 7.216 11.242 9.71 16.855 11.743 5.613 2.033 14.772-4.592 17.381-8.2 2.61-3.608 2.035-12.76 5.104-20.927 3.07-8.167 1.527-18.385-1.017-25.535-2.544-7.15-7.665-8.676-7.665-8.676a12.48 12.48 0 00-8.698-6.56c-6.09-1.18-24.997-.164-21.928 11.579z" fill="#4D2C63"/>
    <path d="M181.788 314.453c-.935 10.3-10.635 17.303-19.383 21.075a74.617 74.617 0 01-30.363 5.625 72.56 72.56 0 01-30.856-6.839c-8.305-4.084-17.118-11.48-17.085-21.566 0 7.331.492 13.399 5.777 19.122 6.811 7.38 17.069 11.349 26.719 13.35 18.826 3.871 44.446 2.001 58.757-12.48 5.745-5.822 6.565-11.973 6.565-19.681-.02.467-.064.932-.131 1.394z" fill="#ADCDFC"/>
    <path d="M167.46 292.855c19.154 11.053 19.285 28.979.246 40.033-19.038 11.053-50.025 11.053-69.178 0-19.154-11.054-19.252-28.98-.214-40.033 19.039-11.054 49.993-11.054 69.146 0z" fill="#E2EDFF"/>
    <path d="M141.709 270.517l-.115 42.723-7.484 4.329.132-42.722 7.467-4.33z" fill="#C7D8F2"/>
    <path d="M134.241 274.847l-.131 42.722-7.517-4.329.115-42.723 7.533 4.33z" fill="#7BAEFF"/>
    <path d="M141.709 270.517l-7.468 4.33-7.533-4.33 7.484-4.346 7.517 4.346z" fill="#4DA5DC"/>
    <path d="M228.909 124.655a8.786 8.786 0 00-3.83-6.95 8.794 8.794 0 00-7.872-1.037c-24.438 8.577-80.421 28.864-84.049 36.08-3.43 6.856-14.508 45.134-19.957 64.322a8.786 8.786 0 01-5.202 5.747 8.8 8.8 0 01-7.731-.598l-33.86-19.942a8.814 8.814 0 00-13.13 9.02l5.45 32.587a8.784 8.784 0 004.283 6.183l36.206 20.779a69.735 69.735 0 0065.847 1.902l27.902-13.956a69.634 69.634 0 0028.758-26.751 69.553 69.553 0 009.696-38.046l-2.511-69.34z" fill="#3278CC"/>
    <path d="M133.158 152.764c-3.43 6.856-14.508 45.134-19.957 64.322a8.788 8.788 0 01-9.137 6.346 8.81 8.81 0 01-3.796-1.196l-33.86-19.943a8.806 8.806 0 00-9.434.338 8.793 8.793 0 00-3.695 8.682l5.449 32.587c.13.75.361 1.478.689 2.165l1.297 2.034a9.209 9.209 0 002.297 1.984l36.206 20.763a69.494 69.494 0 0024.488 8.479c29.395-22.78 25.685-117.868 15.034-125.855a14.57 14.57 0 00-4.202-2.313 5.967 5.967 0 00-1.379 1.607z" fill="#3AAEEF"/>
    <path d="M67.77 123.835s25.046-20.927 30.15-21.435c6.139-.525 13.803 1.525 15.838 10.201.907 3.352.7 6.907-.591 10.131a16.029 16.029 0 01-6.565 7.745c-4.595 2.542-44.953 21.96-52.11 21.96-7.155 0-11.75-6.134-7.155-13.793 4.595-7.659 20.433-14.809 20.433-14.809z" fill="#FFBE3D"/>
    <path d="M32.451 90.64a17.87 17.87 0 01-1.526-4.33c-.263-1.787.755-4.083-.263-8.2-1.017-4.116-2.806-7.659-3.578-10.463-2.035-2.558-3.824 2.034-2.297 5.871 1.526 3.838 1.017 6.117-.51 6.38-1.526.262-7.91-3.575-9.7-5.625-1.788-2.05-12.013-11.989-13.03-10.726C.528 64.81.511 66.105 4.09 69.943c3.578 3.838 4.924 5.609 5.121 6.56.15 1.762.576 3.488 1.264 5.117 1.28 3.05.262 5.1 2.56 7.905 2.298 2.804 6.565 3.28 8.682 5.117l2.052 1.787 8.682-5.789z" fill="#FFAA83"/>
    <path d="M54.427 152.437s-10.734 2.034-16.527-9.84c-5.794-11.874-15.658-43.92-17.02-46.987a12.878 12.878 0 0111.915-7.134s9.536 18.713 14.985 27.225c5.449 8.511 24.914 33.325 6.647 36.736z" fill="#FFBE3D"/>
</svg>
