<svg viewBox="0 0 53 97" fill="none" xmlns="http://www.w3.org/2000/svg">
    <path d="M46.484 24.232A13.124 13.124 0 0152.46 34.58v57.876c0 3.805-2.708 5.33-6.007 3.428l-16.167-9.315-.771 1.099-3.151 4.427-3.135-8.052-.771-2-16.15-9.316A13.125 13.125 0 01.333 62.378V4.502C.333.697 3.024-.844 6.34 1.075l40.145 23.157z" fill="#58AFFB"/>
    <path d="M18.485 24.855v1.64a1.245 1.245 0 01-1.247 1.249c-.219 0-.434-.057-.624-.167l-7.681-4.46a1.247 1.247 0 01-.624-1.083V20.36a1.245 1.245 0 011.871-1.066l7.698 4.46a1.246 1.246 0 01.607 1.1z" fill="#fff"/>
    <path d="M42.808 46.978v1.64a1.246 1.246 0 01-1.87 1.083L8.9 31.2a1.198 1.198 0 01-.624-1.082V28.56a1.246 1.246 0 011.871-1.082l32.038 18.483a1.263 1.263 0 01.623 1.016z" fill="#ADCDFC"/>
    <path d="M16.532 46.34v1.869l-4.333 14.793-1.855-1.066 4.317-14.777-5.662-3.263v-1.903l7.533 4.346zM25.345 51.423v1.903l-4.923-2.821-.296 5.723c.542-.738 1.362-.787 2.495-.147a6.856 6.856 0 013.069 6.33v3.723c0 2.936-1.231 4.15-3.775 2.673a7.71 7.71 0 01-3.742-7.003v-1.262l1.74 1v1.46a4.196 4.196 0 001.936 3.887c1.33.77 1.953.082 1.953-1.64v-3.756a4.21 4.21 0 00-1.936-3.887c-1.018-.59-1.724-.328-1.888.968V59l-1.69-.918.509-10.365 6.548 3.706zM38.016 65.79a4.92 4.92 0 012.363 4.428v6.02c0 1.869-.738 2.672-2.38 1.721a4.922 4.922 0 01-2.396-4.477v-6.019c.017-1.82.788-2.608 2.413-1.673zm1.149 9.84v-6.215a2.556 2.556 0 00-1.166-2.395c-.853-.492-1.198 0-1.214 1.017v6.216a2.672 2.672 0 001.198 2.443c.82.476 1.182 0 1.182-1.066zM32.206 64.412c0 1.853-.788 2.64-2.413 1.64a4.921 4.921 0 01-2.363-4.445v-6.002c0-1.82.771-2.624 2.38-1.64a4.92 4.92 0 012.396 4.46v5.987zm-1.198-.59v-6.233a2.671 2.671 0 00-1.199-2.443c-.853-.492-1.181 0-1.181 1.066v6.248a2.541 2.541 0 001.165 2.395c.854.492 1.215 0 1.215-1.034zM36.604 57.917l1.1.64-6.598 15.35-1.132-.656 6.63-15.334z" fill="#fff"/>
</svg>
