<svg viewBox="0 0 246 305" fill="none" xmlns="http://www.w3.org/2000/svg">
    <path d="M19.77 1.64l-.443-.263-.476-.246-.46-.213-.476-.197-.393-.18h-.099l-.328-.115-.493-.13-.558-.149h-2.166a4.22 4.22 0 00-.656.099l-.772.213c-.326.114-.64.263-.935.443L3.833 5.248a5.665 5.665 0 011.642-.656 6.438 6.438 0 011.953-.098 9.854 9.854 0 012.133.475c.814.288 1.6.65 2.348 1.083l214.675 123.854 7.681-4.461L19.77 1.64z" fill="url(#paint0_linear)"/>
    <path d="M245.984 144.912V143.797v-.574-.591l-.099-.557c0-.214-.082-.41-.131-.607s-.082-.41-.131-.607-.115-.41-.164-.623a3.95 3.95 0 01-.132-.476v-.098l-.197-.591-.197-.59c0-.197-.147-.394-.213-.574a8.21 8.21 0 00-.23-.558c-.082-.18-.115-.295-.18-.426v-.099l-.263-.557-.295-.607c-.115-.23-.23-.476-.361-.705-.132-.23-.263-.492-.411-.722a.954.954 0 000-.131l-.098-.164a23.611 23.611 0 00-.854-1.361 18.647 18.647 0 00-.738-1.05l-.509-.672-.443-.558c-.148-.164-.295-.344-.46-.508l-.443-.509-.098-.098-.345-.361-.492-.492-.887-.574-.508-.459-.263-.213-.197-.164a5.671 5.671 0 00-.509-.377l-.492-.361-.492-.328-.493-.295h-.115l-7.681 4.46c.805.49 1.573 1.038 2.298 1.64a21.826 21.826 0 012.117 1.985 27.206 27.206 0 013.627 4.92.717.717 0 010 .131c.493.869.952 1.771 1.363 2.69.403.925.753 1.872 1.05 2.837.285.942.509 1.9.673 2.87.148.928.225 1.865.23 2.804l-.427 146.569c.004.836-.073 1.671-.23 2.493v.082a9.193 9.193 0 01-.656 2.033c-.23.485-.522.937-.87 1.345-.1.144-.21.281-.328.41-.363.411-.79.76-1.264 1.033l7.681-4.461c.473-.283.904-.63 1.28-1.033.113-.129.217-.266.312-.41.155-.158.298-.328.427-.508.155-.255.297-.518.426-.787.102-.188.185-.386.247-.591.082-.197.147-.393.213-.607l.148-.59v-.558c0-.196 0-.377.082-.557.082-.181 0-.377 0-.558V292.054l.426-146.568c.312-.23.312-.394.296-.574z" fill="url(#paint1_linear)"/>
    <path d="M226.765 129.906a25.448 25.448 0 0111.488 19.991l-.426 146.569c0 7.363-5.22 10.315-11.62 6.56L11.531 179.172A25.379 25.379 0 01.042 159.18l.41-146.569c0-7.363 5.22-10.315 11.637-6.56l214.676 123.855z" fill="#343996"/>
    <path d="M164.545 69.799a8.04 8.04 0 013.643 6.297l-.131 46.069c0 2.312-1.641 3.28-3.66 2.082L96.925 85.281a8.007 8.007 0 01-3.643-6.282l.131-46.068c0-2.312 1.641-3.28 3.66-2.083l67.472 38.95z" fill="#2689FD"/>
    <path d="M36.806 49.364v2.082a1.64 1.64 0 01-2.413 1.395l-9.847-5.724a1.64 1.64 0 01-.804-1.394v-2.1a1.64 1.64 0 012.412-1.377l9.848 5.724a1.64 1.64 0 01.804 1.394z" fill="#fff"/>
    <path d="M68.039 77.77v2.099a1.639 1.639 0 01-1.616 1.57 1.642 1.642 0 01-.797-.193l-41.13-23.73a1.641 1.641 0 01-.804-1.378V54.12a1.64 1.64 0 012.397-1.394l41.13 23.731a1.64 1.64 0 01.82 1.313z" fill="#1AE5FF"/>
    <path d="M17.882 146.257l16.38-8.348 10.701 17.302 11.948 12.136 11.949-7.199 25.537-8.233 11.539 16.466 11.537 9.463 10.505 15.432 14.213-29.832 17.299 8.217 9.059-7.397 18.743 4.937 27.803-2.477" stroke="#16C5DC" stroke-miterlimit="10"/>
    <path d="M114.716 52.07c-6.22-3.591-12.112-2.673-14.541 2.969-3.036 7.068.427 18.975 7.747 27.208l1.641-3.953c-4.924-5.789-7.271-13.956-5.154-18.843 1.642-3.986 5.86-4.625 10.242-2.1 1.16.671 2.235 1.48 3.2 2.411l1.641-3.952a25.528 25.528 0 00-4.776-3.74z" fill="#F1F1F1"/>
    <path d="M119.607 55.76l-1.641 3.953.788.771c5.646 5.806 8.403 14.76 6.155 19.943-.082.18-.164.36-.263.54l-.098.181c-1.642 2.87-4.76 3.576-8.207 2.181-.564-.23-1.112-.5-1.641-.803l-.443-.263-.689-.459a14.07 14.07 0 01-1.33-1.033l-.18-.148-.493-.442-.18-.164-.624-.624-1.001-1.082-1.641 3.952c.328.361.64.722.984 1.066.345.345.608.607.919.902l.247.246.705.624.23.197c.64.54 1.264 1.033 1.904 1.475l.148.099.853.574h.115l.575.344c.476.28.935.525 1.395.738l1.001.443c5.285 2.083 10.028.77 12.145-4.15 3.168-7.38-.739-20.04-8.731-28.273a3.142 3.142 0 01-1.002-.787z" fill="#FDB913"/>
    <path d="M143.914 77.589v1.213a.928.928 0 01-.935.908.938.938 0 01-.46-.12l-5.711-3.28a.946.946 0 01-.46-.804v-1.214a.937.937 0 01.931-.924c.163 0 .323.041.464.12l5.712 3.28a.955.955 0 01.459.82zM161.968 94.005v1.214a.923.923 0 01-.456.801.919.919 0 01-.923.002l-23.782-13.71a.957.957 0 01-.459-.804V80.36a.918.918 0 011.395-.804l23.765 13.711a.915.915 0 01.46.738z" fill="#fff"/>
    <path opacity=".53" d="M152.121 100.385v1.296a.921.921 0 01-1.395.804l-13.967-8.053a.976.976 0 01-.337-.35.976.976 0 01-.123-.47v-1.28a.92.92 0 011.395-.803l13.967 8.053a.929.929 0 01.46.803z" fill="#fff"/>
    <path d="M158.259 97.908v1.198a.92.92 0 01-1.395.803l-20.089-11.578a.973.973 0 01-.46-.804v-1.214a.92.92 0 011.395-.803l20.089 11.595a.922.922 0 01.46.803z" fill="#58AFFB"/>
    <path d="M215.161 151.538c-6.926-4.002-12.572-.788-12.605 7.167-.033 7.954 5.597 17.63 12.523 21.631 6.926 4.002 12.539.788 12.572-7.166a27.525 27.525 0 00-12.49-21.632z" fill="#FF4272"/>
    <path d="M215.128 159.425c-3.135-1.804-5.695-.361-5.695 3.28a12.433 12.433 0 005.662 9.84c3.119 1.804 5.663.361 5.679-3.28a12.443 12.443 0 00-5.646-9.84z" fill="#212973"/>
    <path d="M37.676 76.44v2.166a1.64 1.64 0 01-2.478 1.427L24.989 74.16a1.64 1.64 0 01-.82-1.427V70.52a1.64 1.64 0 012.478-1.426l10.192 5.87a1.64 1.64 0 01.837 1.477zM69.976 105.649v2.165a1.64 1.64 0 01-2.479 1.427L25.005 84.903a1.64 1.64 0 01-.837-1.427v-2.165a1.64 1.64 0 012.479-1.443l42.492 24.354a1.645 1.645 0 01.837 1.427z" fill="#1CE5FF"/>
    <path opacity=".53" d="M52.464 117.098v2.164a1.639 1.639 0 01-1.652 1.657 1.638 1.638 0 01-.826-.23l-24.98-14.301a1.636 1.636 0 01-.755-1.427v-2.181a1.641 1.641 0 012.478-1.427l24.98 14.301a1.643 1.643 0 01.755 1.444z" fill="#1CE5FF"/>
    <path d="M63.394 112.62v2.182a1.637 1.637 0 01-.822 1.437 1.642 1.642 0 01-1.656-.011l-35.91-20.582a1.641 1.641 0 01-.838-1.443v-2.148a1.64 1.64 0 012.479-1.444l35.91 20.566a1.648 1.648 0 01.837 1.443z" fill="#1CE5FF"/>
    <path d="M184.322 259.189l5.794-3.362-.115 39.311-5.794 3.362.115-39.311z" fill="#00A935"/>
    <path d="M196.156 258.139V257.385l-18.054-35.884v-.098a.561.561 0 00-.082-.132.163.163 0 000-.082h-.64l-5.81 3.379a.52.52 0 01.344 0 .75.75 0 01.394.131c.158.094.302.21.427.345.141.165.262.347.361.541l18.054 35.883c.079.157.14.322.18.492.024.147.024.296 0 .443a.74.74 0 01-.082.345.609.609 0 01-.197.213l5.794-3.28a.624.624 0 00.181-.181v-.246l-.87-1.115z" fill="#61E041"/>
    <path d="M171.307 223.879c.342.214.615.522.788.886l18.054 35.883c.525 1.066 0 1.919-.805 1.427l-5.022-2.952-.115 39.361-26.358-15.203.115-39.361-4.924-2.804c-.87-.492-1.346-1.903-.788-2.345l18.185-14.99a.69.69 0 01.87.098z" fill="#00CC41"/>
    <defs>
        <linearGradient id="paint0_linear" x1="152.564" y1="313.604" x2="104.579" y2="-43.339" gradientUnits="userSpaceOnUse">
            <stop stop-color="#1AE5FF"/>
            <stop offset=".26" stop-color="#64E8F9"/>
            <stop offset=".7" stop-color="#EAEEEE"/>
        </linearGradient>
        <linearGradient id="paint1_linear" x1="246" y1="214.678" x2="226.748" y2="214.678" gradientUnits="userSpaceOnUse">
            <stop stop-color="#5155D4"/>
            <stop offset="1" stop-color="#45F7FF"/>
        </linearGradient>
    </defs>
</svg>
