<svg viewBox="0 0 527 518" fill="none" xmlns="http://www.w3.org/2000/svg">
    <path opacity=".25" d="M518.373 377.278l-102.791 59.68-64.928 37.688-66.028 38.36c-11.243 6.56-29.493 6.56-40.785 0L8.567 377.278c-11.308-6.527-11.357-17.056-.13-23.616l29.673-17.286 123.652-71.767 80.421-46.675c11.243-6.56 29.477-6.56 40.785 0l235.274 135.728c11.308 6.527 11.357 17.056.131 23.616z" fill="#7FC1F2"/>
    <path d="M144.266 300.623c-.919 10.3-10.635 17.302-19.383 21.075a74.568 74.568 0 01-30.363 5.625 72.108 72.108 0 01-30.856-6.839c-8.305-4.084-17.118-11.48-17.085-21.566 0 7.331.492 13.399 5.777 19.122 6.811 7.38 17.069 11.349 26.72 13.35 18.825 3.854 44.461 2.001 58.789-12.546 5.745-5.822 6.565-11.972 6.565-19.68-.029.489-.084.976-.164 1.459z" fill="#ADCDFC"/>
    <path d="M129.938 279.024c19.17 11.054 19.285 28.979.246 40.033-19.038 11.054-50.025 11.054-69.179 0-19.153-11.054-19.235-28.979-.279-40.033 18.957-11.054 50.058-11.021 69.212 0z" fill="#E2EDFF"/>
    <path d="M104.203 256.688l-.131 42.722-7.484 4.33.131-42.706 7.484-4.346z" fill="#C7D8F2"/>
    <path d="M96.719 261.034l-.131 42.706-7.517-4.33.115-42.722 7.533 4.346z" fill="#7BAEFF"/>
    <path d="M104.203 256.688l-7.484 4.346-7.533-4.346 7.484-4.346 7.533 4.346z" fill="#4DA5DC"/>
    <path d="M48.072 118.172s-15.329 4.084-19.416 13.284c-4.086 9.201-3.069 78.623 18.399 107.224 21.467 28.602 61.268 32.604 70.508 28.586 9.24-4.018 62.367-30.636 66.421-43.903 4.054-13.268-16.412-23.502-27.589-28.602-11.177-5.101-18.399-12.251-24.52-30.636-6.122-18.384-9.208-50.037-16.413-55.137-7.205-5.101-24.471-13.284-67.39 9.184z" fill="#3AAEEF"/>
    <path d="M139.704 99.705s-25.144-20.812-30.265-21.32c-6.138-.476-13.786 1.64-15.789 10.3a16.011 16.011 0 007.255 17.826c4.611 2.526 45.068 21.714 52.224 21.681 7.156-.033 11.719-6.199 7.09-13.825-4.628-7.626-20.515-14.662-20.515-14.662z" fill="#E1E8F2"/>
    <path d="M96.227 73.662c-.043.277-.043.56 0 .836.377 1.854 1.641 6.56 1.822 8.61.18 2.05-1.757 5.363-6.96 5.51-5.202.148-14.13-1.64-17.38-7.625a142.864 142.864 0 00-1.756-18.237l24.274 10.906z" fill="#E16B40"/>
    <path d="M107.403 35.843c-3.758-15.744-16.79-24.141-30.888-20.107 0 0-15.362 2.313-21.55 16.204-6.187 13.89 4.448 24.797 11.243 31.668 2.872 2.821 5.039 4.92 6.417 6.38.493.525.985 1.05 1.494 1.525l.148.148a32.242 32.242 0 0013.59 7.347c6.318 1.542 13.605.131 17.364-4.297 3.758-4.428 5.957-23.19 2.182-38.868z" fill="#FF8654"/>
    <path d="M74.923 74.908s-24.75 19.582-26.998 25.814c-2.249 6.232-1.97 23.189 3.906 34.227 5.876 11.037 5.974 52.743 8.206 60.795 2.232 8.053 24.39 9.529 37.864 6.232 13.475-3.296 34.827-14.563 30.544-29.832-6.352-22.534-4.924-45.248-4.333-52.48.591-7.233-1.313-25.043-5.219-36.884-.821-2.51-9.651-5.986-9.651-5.986s-9.125-4.215-34.319-1.886z" fill="#0046A6"/>
    <path d="M79.42 168.208c-10.225-12.923 4.76-57.187-12.949-69.438-5.4-3.74-10.045-4.674-13.885-4.199a22.57 22.57 0 00-4.661 6.15c-2.232 6.216-1.937 23.207 3.906 34.244 5.843 11.037 5.974 52.743 8.206 60.795 2.101 7.315 20.582 9.201 34.024 6.987l19.35-20.221s-23.782-1.444-33.99-14.318z" fill="#003783"/>
    <path d="M74.086 78.221c21.517-1.984 31.43 1.64 33.892 2.854a63.455 63.455 0 01-.312 15.285c-1.641 10.151-5.744 38.081-5.744 38.081s-13.278-22.96-22.025-32.374c-6.139-6.658-12.212-12.907-15.264-16.056 5.17-4.395 9.453-7.79 9.453-7.79z" fill="#E1E8F2"/>
    <path d="M96.227 73.662c-.043.277-.043.56 0 .836.377 1.854 1.641 6.56 1.822 8.61.18 2.05-1.757 5.363-6.96 5.51-5.202.148-14.13-1.64-17.38-7.625a142.864 142.864 0 00-1.756-18.237l24.274 10.906z" fill="#FF8654"/>
    <path d="M107.403 35.843c-3.758-15.744-16.79-24.141-30.888-20.107 0 0-15.362 2.313-21.55 16.204-6.187 13.89 4.448 24.797 11.243 31.668 2.872 2.821 5.039 4.92 6.417 6.38.493.525.985 1.05 1.494 1.525l.148.148a32.242 32.242 0 0013.59 7.347c6.318 1.542 13.605.131 17.364-4.297 3.758-4.428 5.957-23.19 2.182-38.868z" fill="#FF9F75"/>
    <path d="M104.925 102.034l-9.584-8.495-7.681 13.432-7.73-4.92c8.73 9.446 21.992 32.357 21.992 32.357s3.381-23.288 5.252-35.063l-2.249 2.689z" fill="#CFDAE4"/>
    <path d="M104.269 118.484l-4.267-15.088.64-5.15-5.302-4.707-3.725 6.56 4.267 3.903 1.165 22.387c2.905 4.706 4.924 8.101 4.924 8.101s1.034-7.445 2.298-16.006z" fill="#00A5FF"/>
    <path d="M53.177 30.365a23.389 23.389 0 001.543 22.96c7.648 11.76 15.854 16.974 17.906 16.663 2.051-.312 3.036-.82 2.527-2.362-.509-1.541-3.069-6.56-3.069-6.56s-8.682-1.017-8.682-6.56c0-5.543 3.07-6.56 6.565-5.117 3.496 1.444 4.087 4.084 6.122 6.134 2.035 2.05 2.692 7.003 4.169 6.494 1.477-.508 2.56-2.05 2.56-4.592a10.767 10.767 0 00-3.07-8.692c-3.052-3.067.51-8.2-2.543-12.25a29.69 29.69 0 00-5.12-5.61s2.05 3.05 12.276 1.017c10.225-2.033 14.771-1.525 18.891-4.083 4.119-2.559 3.069-8.2.525-10.218-2.544-2.017-8.699-3.066-15.855-5.609-7.156-2.542-11.226-1.033-19.925 1.017-8.698 2.05-16.855 11.234-14.82 17.368z" fill="#E16B40"/>
    <path d="M197.279 337.721a10.64 10.64 0 005.104 8.856c5.449 3.739 6.466 6.117 10.898 7.823 4.431 1.705 8.518 7.495 6.565 11.578-1.953 4.084-11.587 4.756-17.726 3.067-6.138-1.689-7.139-7.15-12.933-9.2a21.333 21.333 0 01-9.535-6.118c-1.642-1.64-1.034-8.511-1.034-8.511l20.778-6.807M223.851 317.975a10.628 10.628 0 005.104 8.856c5.449 3.739 6.466 6.133 10.898 7.823 4.431 1.689 8.518 7.494 6.565 11.578-1.953 4.084-11.587 4.773-17.726 3.067-6.138-1.706-7.156-7.151-12.933-9.201a21.336 21.336 0 01-9.552-6.117c-1.641-1.64-1.017-8.512-1.017-8.512l20.778-6.806" fill="#382747"/>
    <path d="M61.695 195.958c.612 2.51.959 5.077 1.034 7.659 0 3.575-2.56 13.776 2.544 26.044 5.104 12.267 39.39 14.76 50.583 19.909a111.428 111.428 0 0119.941 11.235c2.036 1.525 4.924 23.14 13.787 36.08 8.863 12.94 23.847 38.803 27.245 49.692a25.816 25.816 0 0018.48-3.411c4.563-2.968 4.087-4.756 4.087-4.756s-17.709-38.803-21.796-55.154c-4.087-16.351-8.863-35.391-16.412-40.164-7.55-4.772-31.348-21.779-36.797-25.19-5.449-3.412-20.139-14.154-22.978-20.697-2.84-6.544-30.839-17.073-39.718-1.247z" fill="#94A3C0"/>
    <path d="M89.81 179.098a37.37 37.37 0 011.017 7.659c0 3.576-2.56 13.793 2.56 26.044 5.121 12.251 39.391 14.76 50.584 19.91a113.28 113.28 0 0119.925 11.234c2.035 1.541 4.923 23.157 13.786 36.08 8.863 12.923 23.848 38.803 27.261 49.693a25.753 25.753 0 0018.399-3.395c4.546-2.985 4.087-4.773 4.087-4.773s-17.726-38.786-21.813-55.186c-4.086-16.4-8.846-35.392-16.412-40.164-7.566-4.773-31.332-21.78-36.781-25.191-5.449-3.411-20.138-14.17-22.977-20.697-2.84-6.527-30.79-17.04-39.636-1.214z" fill="#94A3C0"/>
    <path d="M227.756 308.2l-.295 103.846-18.185 10.562.295-103.846 18.185-10.562z" fill="#C7D8F2"/>
    <path d="M209.571 318.762l-.295 103.846-18.3-10.562.295-103.846 18.3 10.562z" fill="#7BAEFF"/>
    <path d="M227.757 308.201l-18.186 10.561-18.3-10.561 18.186-10.546 18.3 10.546z" fill="#4DA5DC"/>
    <path d="M526.694 237.074a7.86 7.86 0 01-.115.902c0 .262-.114.508-.18.754-.066.246-.148.574-.246.853-.099.279-.197.475-.296.705-.098.23-.262.59-.426.902-.165.312-.247.426-.378.64-.131.213-.443.672-.689 1-.246.328-.476.64-.755.951l-.197.213c-.38.424-.786.824-1.215 1.198-.262.246-.574.492-.886.738-.312.246-.509.426-.804.623-.296.197-.69.475-1.034.705-.345.23-.706.476-1.1.689L284.626 383.691c-2 1.15-4.118 2.079-6.319 2.772a39.183 39.183 0 01-5.465 1.361c-1.198.23-2.429.394-3.677.508a48.314 48.314 0 01-3.2.214c-1.083.032-1.97 0-2.954 0-.985 0-1.888 0-2.84-.148v16.646c.952.082 1.904.131 2.84.148.935.016 1.986 0 2.954 0 .968 0 2.15-.115 3.2-.213a43.814 43.814 0 003.693-.525 41.438 41.438 0 005.449-1.345 32.826 32.826 0 006.319-2.788l233.747-135.728.361-.213.739-.492c.344-.23.706-.459 1.034-.705.328-.246.541-.41.804-.624.263-.213.624-.492.903-.738l.164-.147c.377-.345.722-.689 1.05-1.05l.181-.213c.197-.213.394-.443.558-.656a3.22 3.22 0 00.197-.295c.246-.322.476-.656.689-1.001.082-.147.197-.278.279-.426a1.21 1.21 0 00.099-.213c.164-.295.295-.607.426-.902.132-.295.181-.345.246-.525v-.18c.098-.28.18-.565.247-.853 0-.197.131-.394.164-.591a.453.453 0 000-.147c.054-.304.093-.611.115-.919v-17.482c.213.295.082.623.065.853z" fill="#ADCDFC"/>
    <path d="M257.365 388.103a54.898 54.898 0 01-2.856-.492 38.19 38.19 0 01-3.003-.738 42.238 42.238 0 01-3.513-1.181 32.285 32.285 0 01-4.152-2.001L8.567 247.963c-5.695-3.28-8.534-7.593-8.518-11.89v16.646c0 4.297 2.823 8.61 8.518 11.891l235.274 135.727a31.539 31.539 0 004.169 2.001c1.116.443 2.298.837 3.496 1.181 1.198.344 1.986.525 3.003.738 1.018.213 1.904.361 2.872.492.969.131 1.855.23 2.79.312v-16.647a66.946 66.946 0 01-2.806-.311z" fill="#ADCDFC"/>
    <path d="M518.242 225.003c11.308 6.56 11.357 17.089.131 23.616L284.626 384.347c-11.226 6.56-29.542 6.56-40.785 0L8.567 248.619c-11.308-6.56-11.357-17.089-.13-23.616l233.746-135.76c11.226-6.56 29.543-6.56 40.785 0l235.274 135.76z" fill="#E2EDFF"/>
    <path d="M265.374 274.17l64.403 37.393 45.315-26.126-64.419-37.409-45.299 26.142z" fill="#fff"/>
    <path d="M320.044 264.855l-10.126 5.888-12.835-3.772c3.578-4.1 12.227-5.724 19.318-3.641 1.272.356 2.496.868 3.643 1.525z" fill="#FF5668"/>
    <path d="M322.441 265.626c6.811 3.936 6.844 10.299 0 14.235a27.16 27.16 0 01-24.619 0c-5.449-3.149-6.729-7.724-3.283-11.693l15.51 4.576 12.392-7.118z" fill="#B391FF"/>
    <path d="M313.118 293.588a.624.624 0 000 1.181 2.298 2.298 0 002.019 0l28.755-16.597a.607.607 0 000-1.164 2.201 2.201 0 00-2.019 0l-28.755 16.58z" fill="#ADCDFC"/>
    <path d="M332.994 286.044a.622.622 0 000 1.181 2.236 2.236 0 002.035 0l12.194-7.036c.575-.328.559-.852 0-1.18a2.239 2.239 0 00-2.018 0l-12.211 7.035zM329.203 291.751c-.558.328-.575.853 0 1.165a2.23 2.23 0 002.035 0l19.087-11.021c.558-.312.575-.837 0-1.165a2.2 2.2 0 00-2.018 0l-19.104 11.021z" fill="#D4D9DF"/>
    <path d="M341.217 327.439a1.725 1.725 0 011.198 1.64 1.727 1.727 0 01-1.198 1.64l-45.955 26.683a6.227 6.227 0 01-5.646 0l-32.103-18.532a1.725 1.725 0 010-3.281l45.955-26.683a6.224 6.224 0 015.646 0l32.103 18.533z" fill="#F2F8FD"/>
    <path d="M342.382 329.21v.115a.231.231 0 010 .098.411.411 0 010 .131.236.236 0 010 .099.443.443 0 010 .115v.098l-.099.131v.082l-.164.181-.131.098-.099.098-.147.082-.148.099-45.955 26.683c-.18.1-.366.188-.558.262h-.148l-.377.115-.394.098-.493.082H292.012l-.64-.114h-.115l-.558-.181h-.099a4.01 4.01 0 01-.607-.279l-32.48-18.433a2.295 2.295 0 01-1.1-1.198 1.424 1.424 0 010-.442v1.836a.957.957 0 000 .214 2.096 2.096 0 001.149 1.426l32.103 18.516c.185.106.377.199.574.279h.099l.344.115H293.784l.394-.099h.542l.558-.262 45.955-26.667h.098l.148-.098.115-.098.115-.099c.064-.056.124-.116.18-.18a.58.58 0 00.083-.131v-.115a.224.224 0 010-.115.561.561 0 010-.082.318.318 0 000-.115.561.561 0 010-.082v-1.755l.41-.508z" fill="url(#paint0_linear)"/>
    <path d="M336.457 328.028a.56.56 0 01.268.845.553.553 0 01-.268.204l-43.641 25.339a1.955 1.955 0 01-1.805 0l-28.903-16.679c-.492-.295-.508-.755 0-1.05l43.641-25.338a1.96 1.96 0 011.806 0l28.902 16.679z" fill="url(#paint1_linear)"/>
    <path d="M122.306 176.13l64.403 37.409 45.315-26.142-64.419-37.392-45.299 26.125z" fill="#fff"/>
    <path d="M177.042 166.832l-10.126 5.887-12.835-3.788c3.578-4.084 12.227-5.724 19.318-3.625 1.275.349 2.5.862 3.643 1.526z" fill="#B391FF"/>
    <path d="M179.373 167.603c6.811 3.919 6.844 10.299 0 14.218a27.058 27.058 0 01-24.619 0c-5.449-3.132-6.729-7.724-3.283-11.676l15.51 4.559 12.392-7.101z" fill="#05CCFF"/>
    <path d="M170.05 195.564a.607.607 0 000 1.164 2.204 2.204 0 002.019 0l28.755-16.58a.624.624 0 000-1.181 2.295 2.295 0 00-2.019 0l-28.755 16.597z" fill="#ADCDFC"/>
    <path d="M189.909 187.938a.625.625 0 00-.291.935.625.625 0 00.291.229 2.28 2.28 0 002.036 0l12.194-7.052c.575-.311.558-.836 0-1.164a2.2 2.2 0 00-2.019 0l-12.211 7.052z" fill="#D4D9DF"/>
    <path d="M186.134 193.712c-.574.328-.574.852 0 1.18a2.28 2.28 0 002.036 0l19.087-11.021a.605.605 0 000-1.164 2.2 2.2 0 00-2.018 0l-19.105 11.005z" fill="#05CCFF"/>
    <path d="M225.886 291.424v3.87l-8.928 5.183v-3.871l8.928-5.182z" fill="#540CC7"/>
    <path d="M216.957 296.606v3.871l-75.891-43.789.016-3.854 75.875 43.772z" fill="#3F0995"/>
    <path d="M225.886 291.423l-8.928 5.183-75.875-43.772 8.928-5.183 75.875 43.772z" fill="#7974F5"/>
    <path d="M192.158 292.161v3.87l-8.929 5.183.017-3.871 8.912-5.182z" fill="#2689FD"/>
    <path d="M183.246 297.344l-.016 3.87-59.594-34.391v-3.871l59.61 34.392z" fill="#3548DB"/>
    <path d="M192.158 292.161l-8.912 5.182-59.61-34.391 8.928-5.166 59.594 34.375z" fill="#58AFFB"/>
    <path d="M142.379 283.649v3.871l-8.928 5.182.016-3.87 8.912-5.183z" fill="#EE2C6A"/>
    <path d="M133.467 288.832l-.017 3.87-27.277-15.744.016-3.87 27.278 15.744z" fill="#EE428C"/>
    <path d="M142.379 283.649l-8.912 5.183-27.278-15.744 8.912-5.183 27.278 15.744z" fill="#FF3D9D"/>
    <path d="M82.178 262.296a.967.967 0 000 1.837 3.41 3.41 0 003.184 0l45.315-26.142c.886-.508.902-1.328 0-1.837a3.425 3.425 0 00-3.184 0l-45.315 26.142zM113.493 250.275a.984.984 0 000 1.837 3.525 3.525 0 003.282 0l19.219-11.087c.903-.525.886-1.345 0-1.869a3.56 3.56 0 00-3.184 0l-19.317 11.119zM107.535 259.377c-.903.525-.919 1.345 0 1.853a3.491 3.491 0 003.282 0l30.101-17.367a.973.973 0 00.663-.919.968.968 0 00-.663-.918 3.51 3.51 0 00-3.184 0l-30.199 17.351z" fill="#ADCDFC"/>
    <path d="M104.811 217.492l-7.205 4.182a26.045 26.045 0 00-23.174.196l-.378.23-7.255-4.182.394-.23c10.34-6.002 27.08-6.068 37.618-.196zM105.927 218.148c8.551 5.363 9.437 13.333 2.626 19.204l-7.468-4.313c2.987-3.428 2.199-7.692-2.38-10.693l7.222-4.198z" fill="#7CCCFF"/>
    <path d="M107.617 238.106a21.36 21.36 0 01-2.347 1.558c-10.175 5.904-26.588 6.052-37.158.443l7.222-4.198c6.565 3.28 16.494 3.181 22.698-.427a13.42 13.42 0 002.232-1.64l7.353 4.264zM73.036 222.805c-4.924 3.706-4.53 9.003 1.149 12.48l-7.206 4.182c-9.683-5.789-10.11-14.76-1.23-20.877l7.287 4.215z" fill="#3EABFF"/>
    <path d="M320.701 144.232c19.153 11.053 19.285 28.979.246 40.033-19.038 11.053-50.025 11.053-69.179 0-19.153-11.054-19.252-28.98-.213-40.033 19.038-11.054 49.992-11.054 69.146 0z" fill="#ADCDFC"/>
    <path d="M321.144 132.391l-.016 7.035-12.178 7.069.016-7.036 12.178-7.068z" fill="#CC096A"/>
    <path d="M272.169 144.428l.246-.098c.69-.262 1.379-.492 2.101-.722l1.494-.426 1.149-.312 1.641-.344 1.182-.23h.492a42.366 42.366 0 012.019-.279h.591a39.399 39.399 0 012.363-.196h5.039l1.477.082 1.346.114 1.444.164 1.296.181 1.543.262 1.641.328.378.082c.739.181 1.477.378 2.183.591l.623.197c.591.18 1.182.377 1.757.59l.508.197c.526.197 1.034.426 1.543.656l.755.328c.73.335 1.442.708 2.134 1.115v-8.2a25.818 25.818 0 00-2.134-1.115l-.738-.328-1.313-.574-.247-.082-.492-.181-1.773-.607-.607-.18-.41-.131a31.644 31.644 0 00-1.789-.459l-.378-.099-.869-.197-.723-.114-1.542-.279-.624-.099h-.689l-1.445-.164h-1.345c-.493 0-.985 0-1.478-.082H285.562c-.673 0-1.33 0-1.986.148h-.968a33.77 33.77 0 00-2.019.295h-.722c-.329 0-.624.131-.936.197-.312.066-1.083.213-1.641.344l-1.149.312c-.509.131-1.001.262-1.494.426h-.328l-1.756.624-.262.098-1.855.804-.542.246c-.673.328-1.329.672-1.953 1.033l-.427.098-.311.197-.526.344-.476.312-.492.344-.427.312-.459.361-.394.344-.427.361-.164.148-.148.147-.656.656-.214.213c-.262.296-.525.591-.755.886l-.147.213c-.148.181-.279.377-.411.558-.076.1-.147.204-.213.311l-.312.525a.376.376 0 00-.082.132 1.363 1.363 0 00-.115.213c0 .147-.164.295-.229.443-.066.147-.115.229-.165.36l-.197.443a.965.965 0 01-.082.197v.18l-.147.41a3.557 3.557 0 01-.115.394l-.099.426V157.712a4.073 4.073 0 010-.442v-.378a3.364 3.364 0 010-.426c.02-.133.047-.264.082-.394l.099-.426c0-.131 0-.246.115-.377.042-.145.091-.287.147-.427 0-.114 0-.246.132-.377l.197-.443.164-.36a3.44 3.44 0 01.23-.427c.055-.125.121-.246.197-.361.094-.175.198-.345.311-.508l.197-.312.411-.574.197-.246c.233-.305.485-.595.755-.869l.213-.229.656-.656.312-.296.427-.36.394-.328.459-.361.427-.328.493-.345.459-.311.542-.328c.213-.148.443-.279.673-.41.623-.377 1.28-.705 1.953-1.033l.541-.263c.378-.115.985-.443 1.625-.689zM267.967 163.272l-.016 7.036-12.178 7.085.016-7.036 12.178-7.085z" fill="#CC096A"/>
    <path d="M255.789 170.357v7.036c-9.142-5.281-13.704-12.202-13.688-19.123v-7.036c0 6.921 4.546 13.842 13.688 19.123z" fill="#CC096A"/>
    <path d="M321.144 132.391l-12.178 7.068c-11.39-6.56-29.805-6.56-41.13 0-11.324 6.561-11.259 17.237.132 23.814l-12.179 7.084c-18.168-10.496-18.267-27.486-.213-37.966s47.399-10.48 65.568 0z" fill="#FF5668"/>
    <path d="M308.966 141.624v4.92c5.728 3.28 8.6 7.643 8.584 11.972v-7.035c.016-4.363-2.84-6.479-8.584-9.857zM320.996 172.702l-.016 4.888-12.26-7.069.016-4.887 12.26 7.068zM334.816 152.317v.705c0 .197 0 .394-.082.607l-.099.689c0 .197 0 .41-.131.607-.131.196-.115.459-.164.688-.049.23-.115.394-.181.607-.065.213-.147.443-.23.673l-.213.59a8.838 8.838 0 01-.312.705c-.115.23-.164.394-.262.591-.099.196-.23.459-.361.688a6.32 6.32 0 01-.312.558c-.164.279-.329.558-.509.836l-.328.492c-.197.296-.427.591-.657.902-.23.312-.18.246-.279.378-.377.475-.788.951-1.214 1.41l-.345.344c-.328.361-.673.706-1.05 1.05l-.493.476-.673.574-.64.541-.722.557-.689.525-.788.541-.739.509-.837.525-1.083.656-.361.213v7.036l.361-.214.558-.328.509-.311.837-.574.739-.492.787-.558.673-.525.739-.557.64-.541.656-.574.279-.246.23-.23c.378-.344.722-.689 1.051-1.05l.344-.344c.427-.459.821-.935 1.198-1.411l.247-.327.656-.903.328-.492.509-.82c0-.082.099-.164.131-.229l.181-.345.361-.688.263-.591c.115-.227.214-.463.295-.705.054-.099.098-.204.131-.312.04-.09.073-.183.099-.278l.23-.673c0-.197.114-.41.18-.607.066-.196.115-.459.164-.688.049-.23 0-.23.082-.361.082-.131 0-.164 0-.246 0-.082 0-.459.115-.689.115-.23 0-.41 0-.607v-.705a3.505 3.505 0 010-.41v-7.397c.181.214.181.476.181.755z" fill="#3278CC"/>
    <path d="M321.144 134.556c18.169 10.479 18.267 27.47.214 37.95l-.362.196-12.26-7.068.361-.213c11.325-6.56 11.259-17.237-.131-23.797l12.178-7.068z" fill="#58AFFB"/>
    <path d="M314.119 180.805l1.494-.607.886-.377 1.559-.722.739-.344a56.33 56.33 0 002.183-1.165v-1.64c-.706.41-1.444.787-2.183 1.165l-.739.344-1.641.722-.886.377-1.494.607-.935.344-1.641.541-1.002.345-.771.229-1.395.394-.804.213-1.494.377-.705.164-2.249.476v1.558a48.424 48.424 0 002.232-.459l.689-.164 1.51-.378.788-.213 1.412-.41.771-.229.394-.115.607-.213 1.559-.542 1.116-.278z" fill="#E2A029"/>
    <path d="M320.996 176.015a58.292 58.292 0 01-17.775 6.298l-5.662-9.43a36.934 36.934 0 0011.177-3.904l12.26 7.036z" fill="#FFBE3D"/>
    <path d="M301.235 181.28l-1.395.23-1.641.213-1.411.164-2.61.229h-.23c-.968 0-1.936.099-2.905.132h-3.824l-2.38-.082h-.443c-.935 0-1.871-.115-2.79-.197h-.738c-.723 0-1.428-.148-2.151-.246l-.771-.099a77.012 77.012 0 01-2.757-.41l-2.692-.524-.952-.214-1.805-.442-1.001-.263-1.543-.459-1.412-.426-1.411-.492-1.362-.493c-.673-.262-1.363-.524-2.019-.82h-.197a48.655 48.655 0 01-2.298-1.049l-.541-.279a56 56 0 01-2.2-1.181v2.936c.706.41 1.445.803 2.2 1.181l.541.262c.755.377 1.51.738 2.282 1.066l.197.082 1.493.623.542.197 1.362.492 1.411.476c.46.164.936.311 1.412.443l.853.262.69.197.984.246c.613.164 1.22.311 1.822.443l.952.213.41.098 2.282.427c.755.131 1.51.246 2.265.344h.476l.771.098 2.15.246h1.116l2.396.164h6.844l2.61-.131h.23l2.298-.18h.311l1.412-.181 1.641-.196 1.395-.23 1.215-.197.787-.147v-2.92l-1.871.394z" fill="#7974F5"/>
    <path d="M297.559 171.472l5.663 9.463c-16.085 3.1-34.565.935-47.432-6.56l12.178-7.068c8.025 4.706 19.531 6.068 29.591 4.165z" fill="#B391FF"/>
    <path d="M288.27 206.683l52.126 53.186 50.632-13.153-52.126-53.186-50.632 13.153z" fill="#fff"/>
    <path d="M344.236 209.947l-4.923 1.886a16.65 16.65 0 00-14.657-2.313l-.262.099-4.153-3.395.279-.115a26.84 26.84 0 0112.312-.881 26.839 26.839 0 0111.404 4.719zM344.876 210.472c4.924 4.28 4.563 9.414-.361 12.415l-4.267-3.51c2.249-1.853 2.199-4.625-.377-7.003l5.005-1.902z" fill="#E2EDFF"/>
    <path d="M343.843 223.264c-.534.275-1.082.521-1.642.738-7.057 2.673-17.446 1.033-23.519-3.625l4.924-1.886A16.705 16.705 0 00338 220.59a7.061 7.061 0 001.641-.787l4.202 3.461zM323.606 209.964c-3.513 1.82-3.824 5.215-.591 8.003l-4.924 1.886c-5.514-4.674-4.825-10.43 1.412-13.317l4.103 3.428z" fill="#3EABFF"/>
    <path d="M209.522 120.484s3.283-2.116 5.302-1.509a88.258 88.258 0 0010.898 1.804c2.117.148 6.351-3.624 7.106-4.231.755-.607 1.215-1.968 2.117-2.87.903-.902 1.363-.755 1.363-2.428 0-1.672 1.641-3.181 2.429-3.936.788-.754 3.791-2.558 3.479-3.919-.312-1.361-1.822-.607-2.724-.312-.903.295-4.382 3.477-5.909 4.395a18.89 18.89 0 01-6.959 2.264 14.794 14.794 0 01-3.479-.46s-.46 0 1.362-.606a23.113 23.113 0 014.382-.443c1.527-.312 2.282-1.214 2.134-1.968-.148-.755-2.134-.755-2.889-.755a57.91 57.91 0 01-7.106-.164c-1.822-.295-4.842 2.723-5.449 3.28a14.44 14.44 0 01-5.449 1.64c-1.691.296-.608 10.218-.608 10.218z" fill="#FF9F75"/>
    <path d="M144.43 118.861s3.168 10.447 16.413 10.037c13.245-.41 46.185-6.56 49.533-6.708a12.869 12.869 0 00.804-13.875s-21.008.246-31.085-.639c-10.078-.886-41.163-6.527-35.665 11.185zM74.25 139.771s-5.547-32.144-9.108-35.834c-4.333-4.363-11.49-7.758-18.694-2.46a16.037 16.037 0 00-6.106 18.253c1.855 4.92 20.073 45.806 25.522 50.43 5.449 4.625 12.933 2.936 14.377-5.887 1.444-8.823-5.99-24.502-5.99-24.502z" fill="#E1E8F2"/>
    <path d="M130.086 156.893s4.349.262 5.876.262c1.526 0 13.277-1.033 15.329-1.033 2.051 0 2.035 2.313 2.035 2.313a15.773 15.773 0 012.052 4.592 12.575 12.575 0 00.508 4.329c.509 1.279-.246 2.296-.771 3.28s-1.789 1.525-3.053 2.296a4.085 4.085 0 01-3.84.246c-1.018-.508-1.018-.754.262-1.525a14.453 14.453 0 002.298-1.788 7.12 7.12 0 01-3.84 1.788 16.257 16.257 0 01-7.911-.771l-5.63-2.804-4.087-.509.772-10.676z" fill="#FF9F75"/>
    <path d="M65.01 165.831s3.168 10.447 16.413 10.053c13.245-.394 46.185-6.56 49.533-6.724a12.89 12.89 0 002.442-6.817 12.892 12.892 0 00-1.622-7.058s-21.024.246-31.183-.623c-10.16-.869-41.032-6.543-35.583 11.169z" fill="#E1E8F2"/>
    <defs>
        <linearGradient id="paint0_linear" x1="286.087" y1="232.023" x2="296.837" y2="314.911" gradientUnits="userSpaceOnUse">
            <stop stop-color="#C6E6FF"/>
            <stop offset="1" stop-color="#8D9FFF"/>
        </linearGradient>
        <linearGradient id="paint1_linear" x1="279.342" y1="377.524" x2="310.06" y2="308.675" gradientUnits="userSpaceOnUse">
            <stop stop-color="#1AE5FF"/>
            <stop offset="1" stop-color="#EAEEEE"/>
        </linearGradient>
    </defs>
</svg>
