<svg viewBox="0 0 100 193" fill="none" xmlns="http://www.w3.org/2000/svg">
    <path fill-rule="evenodd" clip-rule="evenodd" d="M41.155 3.042c-3.6-.03-5.99 2.782-6.928 6.228-1.089 3.991-.272 8.858.787 11.307 3.51 7.982.03 12.184-.877 16.265-.394 1.814-.364 4.082.09 6.53.545 2.963 2.481 4.233 4.327 6.682.756 2.66 1.815 5.079 3.176 7.044 5.113 7.286 18.939 9.16 31.585 6.681 10.135-1.965 19.453-7.013 23.295-11.82 4.235-5.26 3.146-16.9-5.234-16.87-1.967 0-4.236-.09-6.172-1.814-1.33-1.21-.756-4.958-1.21-9.765-.423-4.656-2.208-9.372-9.167-10.007-2.662-.242-5.233-.121-7.593-1.21C62.09 9.905 62.938 3.92 57.34 1.29c-3.389-1.572-8.41-1.3-13.584.998-.847.272-1.724.513-2.602.755z" fill="url(#paint0_linear)"/>
    <path fill-rule="evenodd" clip-rule="evenodd" d="M38.735 7.85c.03 2.297 1.15 4.141 2.784 5.834 3.781 3.96 5.385 3.356 7.926 8.738 2.541-2.298 4.447-2.873 5.506-1.15 1.755 2.782 1.18 4.656 1.936 7.68 1.24 4.928 6.202-2.812 11.436.332 5.173 3.084 2.39 6.198 4.962 11.247.968 1.904 1.875 4.444 3.842 5.049 6.202 1.874 9.439 8.465-.363 13.393-6.081 3.053-15.43 3.9-23.567 2.418-10.74-1.965-19.272-16.114-17.729-23.672.635-3.114 3.237-5.774 2.904-8.102-1.089-7.951-3.388-12.819.363-21.768z" fill="#22043D"/>
    <path fill-rule="evenodd" clip-rule="evenodd" d="M17.74 156.442l-.061 3.083c0 4.686 3.086 9.342 9.257 12.91 9.863 5.683 24.021 6.59 35.155 3.688 7.32-1.905 18.333-7.407 18.333-16.446l.06-3.084-62.745-.151z" fill="url(#paint1_linear)"/>
    <path fill-rule="evenodd" clip-rule="evenodd" d="M71.197 143.684c-12.283-7.075-32.13-7.075-44.352 0-12.222 7.104-12.161 18.593.121 25.667 12.283 7.074 32.13 7.074 44.352 0 12.222-7.105 12.162-18.593-.121-25.667z" fill="#D1E3FF"/>
    <path fill-rule="evenodd" clip-rule="evenodd" d="M45.784 80.407v73.828c0 .574.363 1.149 1.15 1.572 1.21.695 2.965.816 4.326.453.908-.242 2.239-.907 2.239-2.025V80.407h-7.715z" fill="#BED6FF"/>
    <path fill-rule="evenodd" clip-rule="evenodd" d="M75.553 44.914c-12.736-5.774-17.668-4.02-21.873-1.119-6.05 4.173-1.089 16.568-12.131 39.635-2.33 4.868-38.422 5.775-39.39 24.852-.273 5.23 10.649 19.832 44.018 17.625 10.256-.665 27.35-10.702 34.156-18.2 4.69-5.139 6.565-37.095 3.843-55.053-.787-5.17-4.175-5.714-8.623-7.74z" fill="url(#paint2_linear)"/>
    <path fill-rule="evenodd" clip-rule="evenodd" d="M74.252 44.49c-12.736-5.774-17.728-6.227-21.933-3.325-6.05 4.172-1.09 16.568-12.132 39.635-2.33 4.868-38.421 5.775-39.39 24.851-.272 5.23 10.65 19.833 44.019 17.626 10.256-.665 27.349-10.703 34.156-18.2 4.69-5.14 6.626-34.889 3.903-52.847-.787-5.14-4.175-5.714-8.623-7.74z" fill="#D1E3FF"/>
    <path fill-rule="evenodd" clip-rule="evenodd" d="M72.71 43.826c-11.618-5.11-16.368-5.442-20.391-2.66-6.05 4.172-1.09 16.567-12.132 39.634C38.554 84.216-3.83 97.972 3.34 111.547c2.722 5.139 11.435 9.704 25.14 11.397l.182-.786s13.614-1.511 14.733-1.632c12.253-1.361 19.786-3.719 24.324-7.649 6.171-5.351 6.202-14.028-.212-30.928 4.205-2.57 5.536 1.602 6.746-3.749 1.574-6.953 2.148-23.853.696-29.688-.514-2.086-1.21-3.477-2.239-4.686zM25.786 144.319c-11.134 7.135-10.71 18.139 1.21 25.032 1.18.665 2.42 1.3 3.72 1.845.122-.726.243-1.421.424-2.056 1.513-5.744 2.693-10.068-4.084-18.896l-1.27-5.925z" fill="#AFCFFF"/>
    <path fill-rule="evenodd" clip-rule="evenodd" d="M34.681 86.302c.091-3.386.575-5.593.121-7.679l19 4.112c.211.695.393 1.511.604 2.388l10.438.726c4.175 6.651 8.743 18.865-.272 25.365-9.258 6.712-31.04 5.865-38.12 8.737-7.896 10.34-28.77-1.693-22.569-13.332 1.301-2.449 2.874-4.838 6.505-7.317 5.93-4.111 15.036-8.858 24.293-13z" fill="url(#paint3_linear)"/>
    <path opacity=".3" fill-rule="evenodd" clip-rule="evenodd" d="M58.46 85.365l6.384.424c4.175 6.65 8.743 18.865-.272 25.365-9.258 6.711-31.04 5.865-38.12 8.737-7.623 9.977-27.288-.846-23.143-12.093 6.232-2.57 17.698.181 22.992 6.409 8.985-2.267 19.06-3.235 26.018-6.772 10.286-5.2 9.409-12.365 6.565-21.556l-.423-.514z" fill="url(#paint4_linear)"/>
    <path fill-rule="evenodd" clip-rule="evenodd" d="M33.592 40.742c-3.479 6.863-5.476 12.608-6.988 16.87-1.09 3.054-.424 3.538-.182 6.319l5.748.181c2.541-4.383 9.409-13.332 11.98-18.835 1.634-3.507 5.749-14.783-.695-16.537-7.745-2.146-7.927 8.163-9.863 12.003z" fill="#E5EFFF"/>
    <path opacity=".5" fill-rule="evenodd" clip-rule="evenodd" d="M35.77 38.838c-1.36 2.207-3.902 6.167-4.083 9.04-.303 5.018.756 8.525-.212 11.246-1.09 3.053.151 4.323.393 7.104l2.27-4.202c1.966-5.321 5.354-11.58 7.925-17.081 1.634-3.507 7.715-13.817 1.24-15.48-6.11-1.572-5.263 5.714-7.532 9.373z" fill="#B6D1FF"/>
    <path fill-rule="evenodd" clip-rule="evenodd" d="M64.027 66.803c-3.025 7.014 2.118 10.883.272 15.72l.575 3.266c-5.536 3.96-25.322 4.263-30.283-3.598l-.091-3.93c-.847-1.874-.303-6.621-.03-7.89.786-3.992.423-6.108.847-10.703.12-1.18.332-1.905.423-3.084-4.417-3.295-4.145-9.674-1.513-13.484 1.634-2.418 2.602-4.141 3.42-6.046.241-1.451.514-2.66.756-3.477.15-.695.544-1.33.937-1.904 1.271-1.784 3.298-1.996 7.443-1.059 8.229 1.875 16.7 6.168 20.481 10.189 2.753 2.932 2.632 6.167 1.059 13.211-1.029 4.535-2.753 9.221-4.296 12.789z" fill="#E5EFFF"/>
    <path opacity=".5" fill-rule="evenodd" clip-rule="evenodd" d="M64.088 66.773c-3.026 7.014 1.996 11.004.15 15.842l.576 3.235c-5.537 4.293-25.322 4.111-30.284-3.78l.091-3.416c0-.151 9.711 8.616 20.784 3.749 1.966-.877.998-4.626-11.103-11.64-1.603-.937.787-4.867.212-6.681-.182-.574 10.891.665 8.803-.181-1.421-.605-3.237-.998-5.264-2.51 3.691 1.572 10.65 3.689 10.982-5.683.152-4.203.757-7.347 2.905-10.25 1.028-1.42 7.14 5.987 6.202 9.554-1.18 4.505-2.905 9.1-4.054 11.76z" fill="#B6D1FF"/>
    <path fill-rule="evenodd" clip-rule="evenodd" d="M53.046 24.507c-.091 3.688.726 7.014 2.36 10.34-2.542 3.144-7.927 2.75-9.5.483.03-1.632.09-3.144.03-4.807l7.11-6.016z" fill="#FFA698"/>
    <path fill-rule="evenodd" clip-rule="evenodd" d="M53.046 24.507c-.06 1.754.12 3.447.484 5.11-.333 3.597-6.505 6.923-7.594 4.262.03-1.088.06-2.176 0-3.325l7.11-6.047z" fill="url(#paint5_linear)"/>
    <path fill-rule="evenodd" clip-rule="evenodd" d="M38.676 11.145c-1.12 2.54-1.543 4.988-.726 8.253.211.816.15 1.36 0 1.935-.908 3.295-.636 4.232.393 6.59 1.028 2.298 1.15 3.568 2.087 4.294.968.725 2.27.725 3.328.635 2.209-.182 5.748-2.177 7.775-3.689 1.483-1.119 1.331-1.723 1.785-3.356 1.997-2.328.303-3.567-.484-3.597-2.269-.091-2.239 2.479-3.479 3.235-.423-4.505-10.014-10.763-10.68-14.3z" fill="#FFA698"/>
    <path fill-rule="evenodd" clip-rule="evenodd" d="M37.95 13.05c-.546 1.904-.636 3.9-.031 6.318.212.816.151 1.36 0 1.935-.908 3.295-.636 4.232.393 6.59.454 1.028.726 1.875.998 2.51.636.695 1.755.937 2.663.363.847-.545 1.603-1.754 1.543-3.598-.03-1.3 2.48-2.54 2.813-3.93.303-1.15-1.089-2.177-1.936-2.691-2.844-1.723-4.87-4.444-6.444-7.498z" fill="url(#paint6_linear)"/>
    <path fill-rule="evenodd" clip-rule="evenodd" d="M38.675 11.145c2.027 5.29 9.802 8.374 10.71 14.3-2.874-5.896-10.407-9.1-10.71-14.3z" fill="#FF8F7F"/>
    <path fill-rule="evenodd" clip-rule="evenodd" d="M31.262 61.815l.878 2.418-4.871 1.693c-1.573-1.33-1.513-3.81-1.09-6.198 1.211-1.179 5.628-.12 5.083 2.087z" fill="#E7A376"/>
    <path fill-rule="evenodd" clip-rule="evenodd" d="M25.847 59.547l-.847.786c-.242 1.814-.484 3.779.121 4.716.968 1.482 2.269 2.69 3.872 3.175 3.268.997 4.69-2.963 3.48-4.021-1.846-1.663-4.901-2.963-6.626-4.656z" fill="url(#paint7_linear)"/>
    <path fill-rule="evenodd" clip-rule="evenodd" d="M21.43 59.336l7.352 2.63.181-.635-7.321-2.54-.212.545z" fill="#583663"/>
    <path fill-rule="evenodd" clip-rule="evenodd" d="M28.963 61.149l-.181.816 11.284 3.386.091-.574-11.194-3.628z" fill="#311B38"/>
    <path fill-rule="evenodd" clip-rule="evenodd" d="M21.521 58.76l7.352 2.63 11.284 3.387-8.864-3.265-9.771-2.751z" fill="#160004"/>
    <path fill-rule="evenodd" clip-rule="evenodd" d="M30.627 59.637c.605.726 1.18 1.421 1.483 1.935-.636.272-1.634.06-2.27-.544-.453-.03-1.39-.181-1.875-.544l-.666-.151-1.936-.514c.847-.998 1.634-.998 2.602-.998 1.09.06 2.087.544 2.662.816z" fill="#FFA698"/>
    <path fill-rule="evenodd" clip-rule="evenodd" d="M35.377 60.12a33.065 33.065 0 01-3.055 1.059c.786 1.965 2.33.967 4.538.846l1.422.484c-2.118.242-4.236.605-6.354.816-1.119-.362-2.299-.846-3.418-1.3-1.24-.514-1.15-.544-1.27 1.028a59.216 59.216 0 00-.182 3.356l4.296 3.99c4.386.061 6.685-.12 10.951-.725 1.694-.242 2.814-.211 5.87.847l.544-4.747c-3.237-.877-4.084-1.149-5.355-2.328-1.694-1.602-2.269-2.6-3.146-3.144-1.06-.665-2.542-.605-4.84-.181z" fill="#FFA698"/>
    <path fill-rule="evenodd" clip-rule="evenodd" d="M60.91 51.324c-.18-4.807.455-9.463 5.689-10.098 4.961-.423 5.687 8.888 5.324 13.272-.393 4.595.272 16.96-1.3 21.102-.364.968-1.06 1.663-1.937 1.965-.454.273-1.12.363-1.906.273-3.842-.424-13.735-4.021-19.483-6.38-.635-.272-1.392-1.148-1.906-1.36-.666-.272-1.3-.272-1.724-.423.635-2.268.907-3.386.484-5.654.514.182.937.302 1.663.424.575.09 1.271-.121 1.876-.061 4.478.484 10.075.605 14.461 2.026-.877-5.775-1.15-12.093-1.24-15.086z" fill="#E5EFFF"/>
    <path fill-rule="evenodd" clip-rule="evenodd" d="M25.878 151.817c2.45 3.568-.454 3.265-.333 8.314 0 .454-2.058 8.465-2.058 8.465s-4.87 1.179-5.233 1.119c-.363-.061-3.328-1.209-3.328-1.209.242-.424.575-1.482.787-1.875 1.391-2.751 2.147-6.046 2.692-9.402.514-3.175.908-5.502-.06-8.707-3.54-11.851-4.962-12.577-9.379-22.947-1.694-3.93-8.29-12.183-5.9-16.023 5.567-8.888 16.186 4.535 16.216 5.019 3.358 4.625 2.784-2.751 4.357 3.507 1.845 7.346.726 17.625 1.361 28.297.06 1.089.303 4.656.878 5.442z" fill="#FF8B7B"/>
    <path fill-rule="evenodd" clip-rule="evenodd" d="M14.745 168.475c-.666 1.3-1.029 2.207-1.362 3.235-.181.513-.15.997.06 1.3 1.12 1.602 7.05-1.059 9.077-2.721 1.3-1.089 1.361-2.389 1.724-3.991.515-2.419.605-2.691 1.27-5.14l.424 6.772.545.363c.212-2.751.635-6.379 1.12-8.737.211-.937.514-1.995.574-2.509.333-3.054-1.12-4.626-2.48-5.533.453 1.875-1.21 4.868-1.967 8.647-.877 4.625-4.931 8.344-8.985 8.314z" fill="#161F69"/>
    <path fill-rule="evenodd" clip-rule="evenodd" d="M20.886 163.729c.09.333.151.635.181.968.182 1.662.424 3.567.363 5.895-.09 2.932-.363 6.379-1.3 10.612-.333 1.481-.999 2.116-1.453 4.111l-8.713 1.421c.848-3.295 2.027-9.946 2.935-15.509l1.27-7.982c.273-11.941-2.329-18.29-2.904-28.025-.272-4.414.363-7.8-.06-12.033-.333-3.416-1.21-3.779-1.18-6.439.03-14.149 15.338-7.438 15.217 2.328.605 5.804 1.483 12.395.726 21.253-.605 7.044-3.54 14.844-5.022 23.37l-.06.03z" fill="url(#paint8_linear)"/>
    <path fill-rule="evenodd" clip-rule="evenodd" d="M20.977 164.122c.514 1.754 1.089 2.691 1.15 5.049.06 2.388-1.03 6.107-.939 9.039l.152 4.686c.09 2.721-.605 4.626-3.691 6.863-2.814 2.056-5.537 2.872-7.02 2.147-1.088-.544-1.966-2.449-.302-7.558 1.392-4.233 1.755-8.375 2.572-12.97-.303 4.505-.393 6.016-1.482 10.46-.303 1.24-.485 3.296.998 3.507 6.08.877 6.383-.756 6.898-2.63 1.3-4.988 2.299-13.907 1.664-18.593z" fill="#161F69"/>
    <defs>
        <linearGradient id="paint0_linear" x1="60.292" y1="11.706" x2="67.55" y2="47.934" gradientUnits="userSpaceOnUse">
            <stop stop-color="#5A2D68"/>
            <stop offset="1" stop-color="#22043D"/>
        </linearGradient>
        <linearGradient id="paint1_linear" x1="49.587" y1="176.338" x2="49.24" y2="164.095" gradientUnits="userSpaceOnUse">
            <stop stop-color="#1C8EF4"/>
            <stop offset="1" stop-color="#00CFDD"/>
        </linearGradient>
        <linearGradient id="paint2_linear" x1="44.116" y1="122.69" x2="43.643" y2="72.52" gradientUnits="userSpaceOnUse">
            <stop stop-color="#1C8EF4"/>
            <stop offset="1" stop-color="#00CFDD"/>
        </linearGradient>
        <linearGradient id="paint3_linear" x1="34.385" y1="102.569" x2="49.42" y2="108.628" gradientUnits="userSpaceOnUse">
            <stop stop-color="#3E4795"/>
            <stop offset="1" stop-color="#273088"/>
        </linearGradient>
        <linearGradient id="paint4_linear" x1="33.369" y1="102.16" x2="48.904" y2="108.421" gradientUnits="userSpaceOnUse">
            <stop stop-color="#3E4795"/>
            <stop offset="1" stop-color="#273088"/>
        </linearGradient>
        <linearGradient id="paint5_linear" x1="49.804" y1="30.105" x2="50.722" y2="32.67" gradientUnits="userSpaceOnUse">
            <stop stop-color="#FF8A78"/>
            <stop offset="1" stop-color="#FFA799"/>
        </linearGradient>
        <linearGradient id="paint6_linear" x1="37.17" y1="19.667" x2="43.084" y2="26.695" gradientUnits="userSpaceOnUse">
            <stop stop-color="#FFB89E"/>
            <stop offset="1" stop-color="#FFA799"/>
        </linearGradient>
        <linearGradient id="paint7_linear" x1="24.755" y1="63.938" x2="32.9" y2="63.938" gradientUnits="userSpaceOnUse">
            <stop stop-color="#FF8A78"/>
            <stop offset="1" stop-color="#FFA799"/>
        </linearGradient>
        <linearGradient id="paint8_linear" x1="23.136" y1="164.812" x2="10.376" y2="134.96" gradientUnits="userSpaceOnUse">
            <stop stop-color="#FFB89E"/>
            <stop offset="1" stop-color="#FFA799"/>
        </linearGradient>
    </defs>
</svg>
