<svg viewBox="0 0 321 457" fill="none" xmlns="http://www.w3.org/2000/svg">
    <path fill-rule="evenodd" clip-rule="evenodd" d="M22.594 158.389C10.281 165.493.6 182.665.63 196.391l11.315 14.481 10.165-1.995c5.567-9.705 26.956-18.17 21.964-38.002L250.886 57.956l62.443-42.446c-.272-1.603 1.694-9.493-.061-10.552a417.03 417.03 0 00-5.778-3.476c-4.871-2.872-11.103-1.089-15.671 1.542L22.594 158.389z" fill="#DDEBFF"/>
    <path fill-rule="evenodd" clip-rule="evenodd" d="M1.175 430.089c.03 6.923 2.48 11.82 6.444 14.118l5.627 3.386c23.325-10.944 14.068-114.46 15.52-148.804l-6.595-89.912L.69 196.391l.484 233.698z" fill="#D0E7FF"/>
    <path fill-rule="evenodd" clip-rule="evenodd" d="M319.682 19.047c-.03-13.968-9.923-19.59-22.085-12.577L28.312 161.835C16.15 168.849 6.318 185.87 6.348 199.837l.515 233.728c.03 13.968 9.953 19.591 22.085 12.577l269.284-155.365c12.162-7.014 21.994-24.035 21.964-38.002l-.514-233.728z" fill="url(#paint0_linear)"/>
    <path fill-rule="evenodd" clip-rule="evenodd" d="M319.682 19.047c-.03-13.968-9.923-19.59-22.085-12.577l-22.539 13 .635 284.307 22.569-13.03c12.162-7.014 21.995-24.035 21.964-38.003l-.544-233.697z" fill="url(#paint1_linear)"/>
    <path fill-rule="evenodd" clip-rule="evenodd" d="M319.228 14.21C317.141 3.87 308.246.333 297.597 6.47L28.312 161.835c-10.619 6.138-19.483 19.924-21.51 32.651L319.228 14.21z" fill="#F2F4FF"/>
    <path fill-rule="evenodd" clip-rule="evenodd" d="M284.497 23.038c1.816-1.058 3.298-.212 3.298 1.875 0 2.086-1.452 4.625-3.267 5.653-1.816 1.058-3.298.212-3.298-1.874 0-2.087 1.482-4.626 3.267-5.654zM295.358 15.963c1.815-1.058 3.298-.211 3.298 1.875s-1.452 4.625-3.268 5.653c-1.815 1.058-3.297.212-3.297-1.874 0-2.086 1.452-4.626 3.267-5.654zM305.281 10.008c1.816-1.059 3.298-.212 3.298 1.874 0 2.086-1.452 4.626-3.267 5.653-1.815 1.059-3.298.212-3.298-1.874 0-2.056 1.483-4.595 3.267-5.653z" fill="#7980FF"/>
    <path fill-rule="evenodd" clip-rule="evenodd" d="M296.568 78.696c9.621-5.563 18.001-18.654 18.727-29.265.726-10.612-6.444-14.723-16.064-9.16-9.621 5.562-18.001 18.653-18.727 29.264-.757 10.612 6.444 14.724 16.064 9.16zm.212-3.023c-8.108 4.686-14.159 1.24-13.553-7.71.605-8.948 7.684-19.983 15.792-24.67 8.108-4.685 14.158-1.209 13.553 7.71-.635 8.949-7.684 19.984-15.792 24.67z" fill="#E0EBFF"/>
    <path opacity=".2" fill-rule="evenodd" clip-rule="evenodd" d="M242.536 206.488c-6.868 1.724-12.979 9.856-13.644 18.17-.666 8.284 4.356 13.605 11.224 11.882 6.867-1.724 12.978-9.856 13.644-18.17.665-8.314-4.357-13.635-11.224-11.882z" fill="url(#paint2_linear)"/>
    <path fill-rule="evenodd" clip-rule="evenodd" d="M241.961 213.412c-3.691.937-6.988 5.321-7.351 9.795-.363 4.475 2.359 7.347 6.05 6.41 3.691-.938 6.989-5.321 7.352-9.796.363-4.474-2.33-7.346-6.051-6.409zm-.302 3.779c1.966-.484 3.418 1.028 3.206 3.416-.181 2.389-1.936 4.717-3.902 5.2-1.967.484-3.419-1.028-3.207-3.416.181-2.358 1.936-4.686 3.903-5.2z" fill="url(#paint3_linear)"/>
    <path opacity=".2" fill-rule="evenodd" clip-rule="evenodd" d="M308.246 179.582c0-1.754-1.24-2.479-2.753-1.572l-45.803 25.637c-1.513.877-2.723 3.023-2.723 4.807l.03 3.477c0 1.753 1.24 2.479 2.753 1.572l45.804-25.638c1.512-.876 2.722-3.023 2.722-4.807l-.03-3.476z" fill="url(#paint4_linear)"/>
    <path opacity=".2" fill-rule="evenodd" clip-rule="evenodd" d="M287.25 203.737c0-1.028-.726-1.451-1.633-.937l-27.047 15.147c-.877.514-1.603 1.783-1.603 2.841v2.056c0 1.028.726 1.451 1.633.937l27.047-15.146c.908-.514 1.603-1.784 1.603-2.842v-2.056z" fill="url(#paint5_linear)"/>
    <path fill-rule="evenodd" clip-rule="evenodd" d="M269.461 252.11c-.423-8.405-3.328-11.096-7.684-9.675a9.894 9.894 0 00-2.088.968c-4.416 2.6-9.348 9.009-11.254 19.318-1.21 6.531-3.176 12.547-8.955 15.963-15.157 8.496-4.477-37.186-18.908-28.69-12.404 7.316-8.41 31.018-14.794 46.558-2.208 5.381-5.355 8.042-7.442 9.281-8.743 4.868-7.927-8.979-8.29-14.784-1.633-26.755-4.568-28.055-9.923-24.911-5.597 3.356-8.168 5.562-10.649 33.739-.998 11.519-2.662 21.889-11.345 27.21-9.651 5.683-9.136-4.868-12.525-9.796-1.997-2.932-5.022-3.386-8.017-1.602-3.267 1.935-6.535 6.439-8.531 13.272-3.389 11.428-4.387 51.063-4.448 56.474l145.126-85.074c-.182-8.163.09-40.965-.273-48.251z" fill="#D0E7FF"/>
    <path opacity=".2" fill-rule="evenodd" clip-rule="evenodd" d="M104.339 285.517c0-2.782-1.967-3.9-4.387-2.51-25.625 14.693-51.189 29.9-76.813 44.563-2.42 1.391-4.357 4.777-4.357 7.558l-.12 101.37c0 2.781 1.966 3.9 4.386 2.509 25.624-14.693 51.189-29.9 76.813-44.562 2.42-1.391 4.357-4.777 4.357-7.559l.121-101.369z" fill="#92BAE5"/>
    <path fill-rule="evenodd" clip-rule="evenodd" d="M110.117 272.396l-2.148-1.119c-.756-.242-1.694-.121-2.723.484-25.624 14.693-51.188 29.9-76.813 44.563-2.42 1.39-4.356 4.776-4.356 7.558l-.121 101.37c0 1.269.423 2.176 1.089 2.69.816.605 2.48 1.875 3.781 1.119 25.625-14.693 50.705-31.2 76.329-45.893 2.421-1.391 4.357-4.777 4.357-7.558l.605-103.214z" fill="#F2F4FF"/>
    <path fill-rule="evenodd" clip-rule="evenodd" d="M111.418 275.207c0-2.781-1.966-3.9-4.387-2.509-25.624 14.693-51.188 29.9-76.813 44.563-2.42 1.39-4.356 4.776-4.356 7.558l-.121 101.37c0 2.781 1.966 3.9 4.387 2.509 25.624-14.693 51.188-29.9 76.813-44.563 2.42-1.391 4.356-4.777 4.356-7.558l.121-101.37z" fill="#fff"/>
    <path fill-rule="evenodd" clip-rule="evenodd" d="M111.418 275.207c0-2.781-1.966-3.9-4.387-2.509-25.624 14.693-51.188 29.9-76.813 44.563-2.42 1.39-4.356 4.776-4.356 7.558l-.091 79.663 85.556-49.038.091-80.237z" fill="url(#paint6_linear)"/>
    <path opacity=".25" fill-rule="evenodd" clip-rule="evenodd" d="M105.065 366.147c0-1.209-.847-1.662-1.906-1.058l-23.598 13.333c-1.028.604-1.876 2.086-1.876 3.295v2.358c0 1.21.848 1.663 1.906 1.058l23.598-13.332c1.059-.635 1.876-2.086 1.876-3.296v-2.358zM105.064 376.547c0-1.058-.756-1.481-1.663-.937-13.372 7.558-35.306 19.893-48.678 27.451-.908.545-1.664 1.845-1.664 2.903v2.086c0 1.058.756 1.481 1.664.937 13.372-7.558 35.306-19.893 48.678-27.451.907-.544 1.663-1.844 1.663-2.903v-2.086z" fill="#03C8DE"/>
    <path fill-rule="evenodd" clip-rule="evenodd" d="M44.256 340.449l.09 50.367-14.158 8.254-.09-50.368 14.158-8.253zM86.73 300.36l.152 67.419-14.159 8.253-.151-67.418 14.158-8.254zm-21.177 23.914l.121 55.87-14.158 8.254-.122-55.87 14.16-8.254zM108 305.077l.091 50.367-14.158 8.254-.091-50.368 14.158-8.253z" fill="#03C8DE"/>
    <path opacity=".5" fill-rule="evenodd" clip-rule="evenodd" d="M108.181 324.789c.393-.363.363-.937-.061-1.3-.423-.332-1.119-.302-1.512.061l-13.402 12.546-6.505 2.751-13.916-2.841-8.441-9.252c-.363-.393-1.029-.483-1.513-.151-.09.061-.181.121-.242.212l-19.846 21.314-12.101 2.993c-.575-.03-1.09.363-1.12.877-.03.514.454.937 1.029.937l12.616-2.963c.332.03.695-.091.907-.363l19.393-20.8 7.835 8.556c.151.151.363.272.605.333l14.673 2.993c.242.06.484.03.726-.061l6.959-2.963c.15-.06.272-.121.393-.242l13.523-12.637z" fill="#1895F0"/>
    <path fill-rule="evenodd" clip-rule="evenodd" d="M108.181 325.061a1.086 1.086 0 00-.061-1.511 1.088 1.088 0 00-1.512.06l-13.403 14.723-6.504 3.235-13.916-3.325-8.441-10.854a1.093 1.093 0 00-1.513-.181.91.91 0 00-.242.242l-18.817 24.277-13.282-.484c-.574-.03-1.089.453-1.119 1.028-.03.604.454 1.088 1.029 1.118l13.795.514c.333.031.696-.121.908-.423l18.364-23.672 7.835 10.067c.151.182.363.333.605.393l14.673 3.507c.242.061.484.031.726-.09l6.958-3.477c.152-.061.273-.151.394-.272l13.523-14.875z" fill="#fff"/>
    <path opacity=".2" fill-rule="evenodd" clip-rule="evenodd" d="M306.975 64.97c0-2.781-1.966-3.9-4.386-2.509-25.625 14.693-161.069 92.935-186.694 107.628-2.42 1.391-4.356 4.777-4.356 7.558l-.121 101.37c0 2.781 1.966 3.9 4.387 2.509 25.624-14.693 161.068-92.935 186.693-107.628 2.42-1.391 4.356-4.777 4.356-7.558l.121-101.37z" fill="#8BB3DD"/>
    <path fill-rule="evenodd" clip-rule="evenodd" d="M312.996 50.73l-2.148-1.118c-.757-.242-1.695-.12-2.723.484C282.5 64.789 147.056 143.03 121.432 157.724c-2.421 1.39-4.357 4.777-4.357 7.558l-.121 101.37c0 1.269.424 2.176 1.089 2.69.817.605 2.481 1.875 3.782 1.119 25.624-14.693 160.585-94.235 186.209-108.928 2.42-1.391 4.357-4.777 4.357-7.558l.605-103.244z" fill="#F2F4FF"/>
    <path fill-rule="evenodd" clip-rule="evenodd" d="M314.297 53.573c0-2.782-1.967-3.9-4.387-2.51-25.625 14.693-161.069 92.935-186.693 107.628-2.421 1.391-4.357 4.777-4.357 7.558l-.121 101.37c0 2.782 1.967 3.9 4.387 2.509 25.625-14.693 161.069-92.934 186.693-107.627 2.421-1.391 4.357-4.777 4.357-7.559l.121-101.37z" fill="url(#paint7_linear)"/>
    <path opacity=".5" fill-rule="evenodd" clip-rule="evenodd" d="M132.565 196.542c.726-.544 1.361-.332 1.361.484 0 .847-.605 1.995-1.331 2.54-.787.574-1.392.362-1.392-.514 0-.786.575-1.935 1.362-2.51zm169.358-29.537l-.212-56.232 1.301-.968.212 56.475-1.301.725zm.453-61.039c.727-.545 1.362-.333 1.362.513 0 .847-.605 1.996-1.331 2.54-.757.574-1.392.363-1.392-.484-.03-.816.575-1.965 1.361-2.569zm-21.661 73.253l-.181-48.342 1.3-.967.182 48.583-1.301.726zm.454-53.149c.756-.574 1.361-.332 1.361.514 0 .847-.605 1.996-1.361 2.54-.756.574-1.392.332-1.392-.484.031-.816.636-1.995 1.392-2.57zm-21.692 65.393l-.242-65.242 1.301-.997.242 65.483-1.301.756zm.394-70.018c.756-.575 1.391-.333 1.391.514 0 .846-.605 1.995-1.361 2.569-.726.545-1.362.333-1.362-.514-.03-.876.575-2.025 1.332-2.569zm-21.601 82.262l-.333-82.172 1.271-.967.332 82.384-1.27.755zm.302-86.948c.757-.575 1.362-.333 1.362.544 0 .816-.575 1.965-1.332 2.539-.756.575-1.361.333-1.361-.483-.03-.877.575-1.996 1.331-2.6zm-21.54 99.193l-.333-82.535 1.301-.968.333 82.777-1.301.726zm.333-87.312c.756-.574 1.361-.333 1.361.514 0 .846-.605 1.995-1.361 2.539-.757.575-1.362.333-1.392-.483 0-.847.635-2.026 1.392-2.57zm-21.541 99.586l-.272-70.563 1.301-.997.272 70.804-1.301.756zm.363-75.37c.726-.544 1.362-.332 1.362.514 0 .816-.605 1.965-1.331 2.54-.757.574-1.392.332-1.392-.484 0-.846.605-1.995 1.361-2.57zm-21.601 87.584l-.211-54.449 1.301-.967.211 54.66-1.301.756zm.424-59.226c.756-.574 1.392-.332 1.392.514 0 .847-.605 1.996-1.362 2.57-.756.575-1.361.333-1.361-.484-.03-.876.575-2.025 1.331-2.6zm-21.601 71.47l-.181-46.709 1.27-.968.182 46.921-1.271.756zm.424-51.456c.756-.574 1.361-.332 1.361.484 0 .847-.605 1.995-1.331 2.54-.756.574-1.392.332-1.392-.514 0-.817.605-1.935 1.362-2.51zm-21.662 63.7l-.272-63.579 1.301-.997.242 63.821-1.271.755z" fill="#3856D8"/>
    <path opacity=".5" fill-rule="evenodd" clip-rule="evenodd" d="M123.761 207.184c.272-.454.605-.816.908-1.058.423-.333.847-.454 1.149-.272 2.632 1.632 5.022 3.023 7.322 4.172 2.238 1.179 4.386 2.055 6.383 2.781 9.318 3.265 16.579 1.935 24.354-3.93 7.624-5.896 15.671-16.386 26.26-30.958 11.859-16.326 21.933-27.875 31.463-35.04a75.702 75.702 0 014.175-2.902c10.77-6.772 20.905-7.74 32.311-3.537 1.18.393 2.329.876 3.449 1.3 8.743 3.416 16.941 6.621 27.349-1.24 5.415-4.081 11.405-11.126 18.394-22.705.272-.453.574-.816.907-1.058.424-.332.878-.423 1.15-.242.484.333.393 1.452-.212 2.479-7.805 12.94-14.461 20.77-20.421 25.245-11.224 8.435-19.937 5.018-29.285 1.36-1.15-.423-2.299-.877-3.449-1.27-10.861-4.051-20.451-3.174-30.556 3.175a65.696 65.696 0 00-3.782 2.6c-8.985 6.772-18.636 17.867-30.102 33.618-10.982 15.117-19.331 26-27.621 32.41-.151.121-.302.242-.484.362-8.199 6.168-16.095 7.71-25.988 4.233-2.057-.726-4.235-1.663-6.564-2.842a110.93 110.93 0 01-7.382-4.232c-.454-.303-.363-1.391.272-2.449z" fill="#3856D8"/>
    <path fill-rule="evenodd" clip-rule="evenodd" d="M126.333 200.201c.272-.454.575-.817.907-1.059.424-.302.847-.423 1.15-.241 2.632 1.693 5.022 3.113 7.321 4.293a52.457 52.457 0 006.384 2.902c9.288 3.416 16.548 2.177 24.323-3.598 7.624-5.804 15.641-16.174 26.2-30.625 11.829-16.175 21.903-27.603 31.403-34.647 1.391-1.028 2.783-1.995 4.175-2.842 10.74-6.621 20.875-7.467 32.25-3.053 1.18.423 2.329.907 3.449 1.36 8.713 3.568 16.911 6.863 27.288-.816 5.385-3.991 11.406-10.974 18.364-22.463.272-.453.575-.786.907-1.028.424-.332.878-.423 1.15-.242.484.333.393 1.452-.212 2.479-7.805 12.849-14.43 20.589-20.36 25.003-11.194 8.283-19.907 4.716-29.225.937-1.149-.453-2.299-.907-3.449-1.33-10.83-4.203-20.421-3.477-30.495 2.721a52.339 52.339 0 00-3.782 2.569c-8.985 6.652-18.606 17.626-30.041 33.226-10.982 14.965-19.302 25.758-27.591 32.047-.152.12-.303.241-.484.362-8.169 6.077-16.065 7.498-25.958 3.87-2.057-.756-4.235-1.723-6.534-2.932-2.3-1.24-4.75-2.661-7.382-4.354-.484-.393-.394-1.481.242-2.539z" fill="#0FF"/>
    <path opacity=".5" fill-rule="evenodd" clip-rule="evenodd" d="M29.462 303.444L99.74 262.63c.606-.363.938-1.3 1.029-1.874l3.419-12.033.302-.181v-.907l13.039-45.803 3.147-11.035c.03-.09.03-.181.03-.241V190.072l-.03-.061-.03-.06v-.03l-.031-.091v-.03l-.03-.121v-.03c-.03-.061-.03-.091-.06-.152l-.031-.06-.03-.06-.03-.031-.03-.03-.031-.06v-.061l-.06-.091-.03-.03-.031-.03-.03-.06v-.031c-.03-.03-.03-.06-.061-.09l-.03-.061c-.363-.393-.968-.877-1.482-.605l-14.219 8.345-.061-25.879-1.543-.907-20.39 11.76-.182-.877V179.763l-.03-.031v-.06l-.03-.03-.03-.031v-.03l-.03-.03-.031-.03v-.061l-.03-.03-.03-.03v-.061l-.031-.03-.03-.03-.03-.03-.03-.031-.031-.03-.03-.03v-.03l-.03-.031-.03-.03h-.031l-.03-.03-.03-.03-.03-.03-.031-.031-.03-.03-.03-.03-.03-.03-.031-.031h-.03c-.273-.151-.636-.211-1.06-.06L9.738 219.67c-.303.181-.454.634-.333 1.209l16.428 77.97c.272 1.36.635 2.358.998 3.053.363.726.817 1.209 1.331 1.482.484.302.908.302 1.301.06z" fill="#BDD9F6"/>
    <path fill-rule="evenodd" clip-rule="evenodd" d="M34.151 289.175l70.339-40.844-16.337-77.456V169.998l-.03-.03v-.061l-.03-.03-.03-.03v-.03l-.03-.031-.03-.03v-.06l-.031-.03-.03-.031v-.06l-.03-.03-.03-.031-.031-.03-.03-.03-.03-.03-.03-.031v-.03l-.031-.03-.03-.03h-.03l-.03-.03-.031-.031-.03-.03-.03-.03-.03-.03-.031-.031-.03-.03-.03-.03h-.03c-.273-.151-.636-.212-1.06-.061l-70.61 40.875c2.298-1.27 11.647 56.474 18.423 79.3z" fill="url(#paint8_linear)"/>
    <path fill-rule="evenodd" clip-rule="evenodd" d="M88.154 170.875l-53.61 32.077-3.962 69.928c.635 6.076 2.45 11.942 3.237 17.958l70.702-42.507-16.367-77.456z" fill="#783FD3"/>
    <path fill-rule="evenodd" clip-rule="evenodd" d="M35.12 202.74l1.603 78.574 73.788-42.567-.242-77.879-75.15 41.872z" fill="#F2F4FF"/>
    <path fill-rule="evenodd" clip-rule="evenodd" d="M36.511 203.435l-1.543-.907.212 77.91 1.543.876-.212-77.879z" fill="#C5DBF1"/>
    <path fill-rule="evenodd" clip-rule="evenodd" d="M110.269 160.868l-1.543-.907-73.758 42.567 1.543.907 73.758-42.567z" fill="#DCE8F8"/>
    <path fill-rule="evenodd" clip-rule="evenodd" d="M39.325 264.475v4.898l68.281-39.393v-4.898l-68.281 39.393zm-.182-56.474v4.897l68.282-39.393v-4.897l-68.282 39.393zm.03 8.072l68.282-39.393v4.897L39.204 220.97l-.03-4.897zm.03 8.042l68.282-39.393v4.897l-68.281 39.424v-4.928zm.03 8.072l68.283-39.393.03 4.897-68.312 39.424v-4.928zm0 8.072l68.283-39.393.03 4.897-68.282 39.424-.03-4.928zm.031 8.072l68.282-39.393.03 4.898-68.282 39.393-.03-4.898zm.03 8.072l68.282-39.393v4.898l-68.282 39.393v-4.898z" fill="#C5DBF1"/>
    <path fill-rule="evenodd" clip-rule="evenodd" d="M52.757 232.035L35.755 288.63c-.212.605-.06 4.717-.394 5.049l70.339-40.844c.605-.363.938-1.3 1.029-1.874l16.76-58.924 3.147-11.035c.151-.846-.424-1.814-.605-1.995-2.935 2.661-18.515 12.184-21.39 13.877-4.81 3.779-4.991 7.679-12.282 15.388-1.392 1.482-1.876 1.875-3.6 2.903l-36.002 20.86z" fill="url(#paint9_linear)"/>
    <path fill-rule="evenodd" clip-rule="evenodd" d="M52.303 230.614c-.12-.091-.242-.182-.332-.242-.545-.302-1.029-.181-1.21.363l-16.61 58.47-16.336-77.456c-.152-.726-.636-1.421-1.18-1.754-.121-.06-.242-.121-.333-.151-.666-.181-1.059.393-.877 1.27l16.427 77.97c.272 1.36.635 2.358.999 3.053.363.726.816 1.209 1.33 1.481.515.303.939.273 1.302.031.363-.272.695-.877.937-1.814l16.76-58.954c.182-.665-.211-1.663-.877-2.267z" fill="#864DE2"/>
    <path fill-rule="evenodd" clip-rule="evenodd" d="M86.58 209.663l-35.487 20.619c.938-.454 2.33 1.632 2.088 2.6l35.85-20.8c1.21-.696 1.936-1.089 2.995-1.935 5.083-4.021 7.503-9.524 10.831-13.998.938-1.27 1.906-2.146 2.844-2.872.877-.484 1.361-.726 1.21-.665l19.785-11.64c.152-.846-.453-1.814-.605-1.995-.363-.393-.968-.877-1.482-.605l-19.816 11.64c.151-.091-.303.181-1.21.665a15.085 15.085 0 00-2.844 2.872c-3.51 4.716-6.05 10.007-11.769 14.512-.847.695-1.512 1.088-2.39 1.602z" fill="#D477E4"/>
    <path opacity=".1" fill-rule="evenodd" clip-rule="evenodd" d="M290.154 213.895c0-.393-.272-.544-.635-.362-3.66 2.086-7.291 4.262-10.921 6.349-.333.211-.636.665-.636 1.088l-.03 14.421c0 .393.272.544.635.363 3.661-2.086 7.292-4.263 10.922-6.349.333-.212.635-.696.635-1.089l.03-14.421z" fill="url(#paint10_linear)"/>
    <path opacity=".1" fill-rule="evenodd" clip-rule="evenodd" d="M290.154 233.637c0-.393-.272-.544-.635-.362-3.66 2.086-7.291 4.262-10.921 6.348-.333.212-.636.696-.636 1.089l-.03 14.421c0 .393.272.544.635.363 3.661-2.087 7.292-4.263 10.922-6.349.333-.212.635-.696.635-1.089l.03-14.421z" fill="url(#paint11_linear)"/>
    <path opacity=".1" fill-rule="evenodd" clip-rule="evenodd" d="M290.154 252.744c0-.393-.272-.544-.635-.362-3.66 2.086-7.291 4.262-10.921 6.348-.333.212-.636.696-.636 1.089l-.03 14.421c0 .393.272.544.635.363 3.661-2.086 7.292-4.263 10.922-6.349.333-.212.635-.696.635-1.089l.03-14.421z" fill="url(#paint12_linear)"/>
    <path opacity=".1" fill-rule="evenodd" clip-rule="evenodd" d="M290.154 273c0-.393-.272-.544-.635-.363-3.66 2.086-7.291 4.263-10.921 6.349-.333.212-.636.665-.636 1.089l-.03 14.421c0 .393.272.544.635.362 3.661-2.086 7.292-4.262 10.922-6.348.333-.212.635-.696.635-1.089l.03-14.421z" fill="url(#paint13_linear)"/>
    <path opacity=".1" fill-rule="evenodd" clip-rule="evenodd" d="M314.63 206.76c0-1.753-1.241-2.479-2.753-1.572l-16.851 9.463c-1.513.877-2.723 3.023-2.723 4.807l.03 3.477c0 1.753 1.24 2.479 2.753 1.572l16.851-9.463c1.513-.877 2.723-3.023 2.723-4.807l-.03-3.477z" fill="url(#paint14_linear)"/>
    <path opacity=".2" fill-rule="evenodd" clip-rule="evenodd" d="M314.63 226.744c0-1.753-1.241-2.479-2.753-1.572l-16.851 9.463c-1.513.877-2.723 3.023-2.723 4.807l.03 3.477c0 1.753 1.24 2.479 2.753 1.572l16.851-9.463c1.513-.877 2.723-3.023 2.723-4.807l-.03-3.477z" fill="#fff"/>
    <defs>
        <linearGradient id="paint0_linear" x1="83.343" y1="184.304" x2="207.219" y2="249.437" gradientUnits="userSpaceOnUse">
            <stop stop-color="#D1E8FF"/>
            <stop offset="1" stop-color="#EAEFFF"/>
        </linearGradient>
        <linearGradient id="paint1_linear" x1="260.064" y1="108.158" x2="352.131" y2="230.05" gradientUnits="userSpaceOnUse">
            <stop stop-color="#D1E8FF"/>
            <stop offset="1" stop-color="#EAEFFF"/>
        </linearGradient>
        <linearGradient id="paint2_linear" x1="236.272" y1="235.611" x2="245.245" y2="210.448" gradientUnits="userSpaceOnUse">
            <stop stop-color="#1C8EF4"/>
            <stop offset="1" stop-color="#00CFDD"/>
        </linearGradient>
        <linearGradient id="paint3_linear" x1="234.407" y1="236.284" x2="244.09" y2="215.521" gradientUnits="userSpaceOnUse">
            <stop stop-color="#1C8EF4"/>
            <stop offset="1" stop-color="#00CFDD"/>
        </linearGradient>
        <linearGradient id="paint4_linear" x1="283.639" y1="210.477" x2="282.516" y2="194.3" gradientUnits="userSpaceOnUse">
            <stop stop-color="#1C8EF4"/>
            <stop offset="1" stop-color="#00CFDD"/>
        </linearGradient>
        <linearGradient id="paint5_linear" x1="272.173" y1="214.18" x2="271.051" y2="198.002" gradientUnits="userSpaceOnUse">
            <stop stop-color="#1C8EF4"/>
            <stop offset="1" stop-color="#00CFDD"/>
        </linearGradient>
        <linearGradient id="paint6_linear" x1="57.232" y1="313.944" x2="77.458" y2="359.254" gradientUnits="userSpaceOnUse">
            <stop stop-color="#1C8EF4"/>
            <stop offset="1" stop-color="#00CFDD"/>
        </linearGradient>
        <linearGradient id="paint7_linear" x1="220.845" y1="195.335" x2="210.801" y2="114.486" gradientUnits="userSpaceOnUse">
            <stop stop-color="#6D6AFE"/>
            <stop offset="1" stop-color="#3FB0F7"/>
        </linearGradient>
        <linearGradient id="paint8_linear" x1="58.56" y1="225.309" x2="45.112" y2="201.893" gradientUnits="userSpaceOnUse">
            <stop stop-color="#965CF2"/>
            <stop offset="1" stop-color="#FF8ADC"/>
        </linearGradient>
        <linearGradient id="paint9_linear" x1="46.33" y1="262.52" x2="114.948" y2="216.234" gradientUnits="userSpaceOnUse">
            <stop stop-color="#965CF2"/>
            <stop offset="1" stop-color="#FF8ADC"/>
        </linearGradient>
        <linearGradient id="paint10_linear" x1="284.161" y1="231.675" x2="283.964" y2="217.14" gradientUnits="userSpaceOnUse">
            <stop stop-color="#1C8EF4"/>
            <stop offset="1" stop-color="#00CFDD"/>
        </linearGradient>
        <linearGradient id="paint11_linear" x1="284.161" y1="251.402" x2="283.964" y2="236.867" gradientUnits="userSpaceOnUse">
            <stop stop-color="#1C8EF4"/>
            <stop offset="1" stop-color="#00CFDD"/>
        </linearGradient>
        <linearGradient id="paint12_linear" x1="284.161" y1="270.53" x2="283.964" y2="255.996" gradientUnits="userSpaceOnUse">
            <stop stop-color="#1C8EF4"/>
            <stop offset="1" stop-color="#00CFDD"/>
        </linearGradient>
        <linearGradient id="paint13_linear" x1="284.161" y1="290.788" x2="283.964" y2="276.253" gradientUnits="userSpaceOnUse">
            <stop stop-color="#1C8EF4"/>
            <stop offset="1" stop-color="#00CFDD"/>
        </linearGradient>
        <linearGradient id="paint14_linear" x1="303.984" y1="223.727" x2="303.446" y2="214.053" gradientUnits="userSpaceOnUse">
            <stop stop-color="#1C8EF4"/>
            <stop offset="1" stop-color="#00CFDD"/>
        </linearGradient>
    </defs>
</svg>
