<svg viewBox="0 0 135 258" fill="none" xmlns="http://www.w3.org/2000/svg">
    <path fill-rule="evenodd" clip-rule="evenodd" d="M115.537 242.517c-1.211-.03-5.295-3.87-9.167-1.935-4.659 2.328-13.463.272-17.91 1.331-.787.181-2.33-.394-2.662.151-.969 1.693-1.876 4.262.484 5.925 1.724 1.24 5.445 2.842 7.896 3.719 2.571.907 7.018 2.358 9.983 2.811 3.298.514 4.78.726 6.021 1.663 1.754.877 3.57 1.27 4.598 1.119 2.178-.333 4.69-1.602 5.839-4.082.363-.786.393-4.232-.06-6.469-.333-1.754-1.301-3.779-2.058-5.654l-2.964 1.421z" fill="#fff"/>
    <path fill-rule="evenodd" clip-rule="evenodd" d="M106.037 234.263c1.483 3.538 1.029 8.979 4.508 10.884 2.329 1.27 5.99 1.27 7.563-2.328.877-2.025-.302-5.472-.03-9.886l-12.041 1.33z" fill="#FFA495"/>
    <path fill-rule="evenodd" clip-rule="evenodd" d="M105.069 239.705c-2.662.786-10.044.272-14.703.635-1.997.151-3.812.151-4.75 1.965-.847 1.663-.423 3.114 1.543 4.474 1.724 1.24 4.69 2.631 7.11 3.477 2.601.907 7.018 2.358 9.983 2.812 3.298.514 4.78.725 6.021 1.663 1.754.876 3.57 1.269 4.598 1.118 2.178-.332 4.689-1.874 5.839-4.353.363-.786.393-3.991-.06-6.228a28.715 28.715 0 00-.333-1.33c-.363-3.507-1.513-4.928-2.602-4.324-1.482.817-2.057 2.298-2.632 3.507-.484 1.028-1.21 1.663-2.027 1.935-1.785.575-3.419-.423-4.478-1.965-.605-1.028-.937-2.267-1.24-3.537v-.363c-.363-3.053-1.845-2.781-1.603-2.146.242.665.151 2.055-.666 2.66z" fill="#273087"/>
    <path fill-rule="evenodd" clip-rule="evenodd" d="M86.584 241.791c.03 1.179-1.785 1.3-1.27 3.386-.878-.847.332-3.296.877-3.689.242-.151.424-.211.393.303z" fill="#fff"/>
    <path fill-rule="evenodd" clip-rule="evenodd" d="M85.192 230.363c-1.12-.454-3.63-5.442-7.956-4.958-1.725.211-4.538-.242-7.352-1.059-4.508-1.269-10.8-5.32-11.89-4.655-2.329 1.451-2.51 4.051-.877 6.439 1.21 1.754 3.48 4.082 5.476 5.714 2.118 1.754 5.113 4.414 7.745 5.895 2.48 1.391 3.297 1.24 5.082 3.628 1.362 1.421 2.935 2.298 3.933 2.479 2.572.514 6.323-1.148 7.685-2.872.847-2.781 2.36-5.411 1.391-9.553l-3.237-1.058z" fill="#fff"/>
    <path fill-rule="evenodd" clip-rule="evenodd" d="M79.202 218.542c.06 3.81-2.36 8.737.181 11.761 1.695 2.025 5.083 3.386 7.897.604 1.573-1.541 1.754-5.2 3.6-9.221l-11.678-3.144z" fill="#FFA495"/>
    <path fill-rule="evenodd" clip-rule="evenodd" d="M71.034 223.198c-.242-.061-.515-.151-.787-.212-4.508-1.27-10.558-4.384-11.617-3.718-2.33 1.451-2.783 3.144-1.15 5.502 1.21 1.753 3.48 4.081 5.476 5.714 2.118 1.753 5.113 4.414 7.745 5.895 2.48 1.391 3.298 1.24 5.083 3.628 1.361 1.421 2.934 2.298 3.932 2.479 2.572.514 6.444-1.179 7.806-2.902.635-2.056 1.512-4.021 1.573-6.621.363-3.386.151-5.14-1.331-5.079-2.753.091-3.873 1.542-5.022 2.237-2.45 1.512-4.084-.453-4.478-2.872-.06-1.028.06-2.116.212-3.235.03-.121.09-.212.121-.332.787-2.963-.696-3.266-.696-2.6-.06 1.541-1.028 2.418-2.269 2.6-1.482.241-3.388-.363-4.598-.484z" fill="#273087"/>
    <path fill-rule="evenodd" clip-rule="evenodd" d="M58.932 219.63c-.483 1.088-2.178.393-2.601 2.509-.424-1.149 1.724-2.842 2.39-2.932.272-.031.454-.031.212.423z" fill="#fff"/>
    <path fill-rule="evenodd" clip-rule="evenodd" d="M130.482 85.096c-8.986 10.4-9.107 11.216-26.654 21.525l-3.328-6.56c5.9-12.033 7.655-13.635 15.278-23.038-6.958-4.807-14.4-12.153-17.97-16.9-11.436-15.267-5.083-25.848 4.81-23.702 8.622 1.874 22.055 24.156 29.376 36.733 3.026 5.23 3.782 5.804-1.512 11.942z" fill="url(#paint0_linear)"/>
    <path opacity=".35" fill-rule="evenodd" clip-rule="evenodd" d="M112.844 74.847c-6.02-4.656-11.95-10.642-15.005-14.723-11.436-15.268-4.75-25.547 5.112-23.4 5.143 1.572 14.34 12.486 9.893 38.123z" fill="#0960AC"/>
    <path fill-rule="evenodd" clip-rule="evenodd" d="M81.804 115.359c-.998 11.065-6.535 46.437-4.992 56.142 2.33 14.602 1.664 32.228 1.634 47.707.393 6.5 9.348 9.916 11.95 5.774 2.087-13.846 5.082-25.97 6.293-33.649 1.361-8.616.907-19.076-1.271-24.73.908-6.197 5.113-22.13 8.652-33.195 1.271-3.991 8.471-16.87 1.029-29.689l-23.295 11.64z" fill="url(#paint1_linear)"/>
    <path fill-rule="evenodd" clip-rule="evenodd" d="M78.294 215.065c0 1.149.03 2.903.03 4.021.394 6.5 9.47 10.038 12.072 5.896.151-1.028.363-2.026.544-3.024-3.51 3.78-10.377-1.118-12.646-6.893z" fill="#4C57B7"/>
    <path opacity=".3" fill-rule="evenodd" clip-rule="evenodd" d="M76.57 164.91c2.935 14.632 11.194 34.193 15.702 48.916 2.36-12.607 8.229-34.072 3.146-47.223.514-3.507 2.087-10.219 4.024-17.354-3.903-7.407-.182-13.302-2.027-23.732-10.347-1.814 5.264-14.421-16.64-1.119-1.936 15.661-3.781 25.547-4.205 40.512z" fill="#060921"/>
    <path fill-rule="evenodd" clip-rule="evenodd" d="M82.53 178.786c5.96 13.514 16.972 39.998 22.842 56.565 3.025 4.414 13.825 3.931 13.825-.151-2.39-13.846-5.203-35.221-10.165-47.374-1.512-3.719-7.14-12.668-9.167-15.328-1.573-6.107-3.54-22.644-5.082-31.563 1.361-7.407 7.321-19.772-4.145-30.505-4.629 3.296-18.938 5.352-25.413 1.693-1.058 29.205 6.112 41.389 17.305 66.663z" fill="url(#paint2_linear)"/>
    <path fill-rule="evenodd" clip-rule="evenodd" d="M104.162 232.48c.272.725.786 2.176 1.028 2.872 3.116 4.535 14.249 4.051 14.219-.182-.121-.695-.242-1.39-.363-2.116-2.662 2.721-10.679 2.751-14.884-.574z" fill="#4C57B7"/>
    <path fill-rule="evenodd" clip-rule="evenodd" d="M107.822 75.663c-.968 8.677 1.634 17.203-.998 25.124-.121.816-.182 4.021-.333 4.897-1.755 10.249-23.477 20.649-41.599 10.793-.09-1.269.03-2.6-.09-4.958.332-2.207-.605-4.565-.605-5.895.03-5.593 1.754-8.435.938-14.663-1.695-12.637-8.714-24.79-4.841-34.737.847-2.146 2.3-3.174 3.933-4.505 4.296-3.446 26.411-14.693 33.127-15.509 19.514-2.479 11.527 30.051 10.468 39.453z" fill="url(#paint3_linear)"/>
    <path opacity=".35" fill-rule="evenodd" clip-rule="evenodd" d="M64.71 88.119c-.756-3.296-1.845-7.105-2.813-11.005-1.966-7.77-3.57-15.872-1.603-20.89.847-2.147 2.299-3.175 3.933-4.505 4.296-3.447 3.63 5.774 10.346 4.988 1.06 1.421.726 4.656.394 7.71-1.24 11.155-6.596 27.148-10.256 23.702z" fill="#0960AC"/>
    <path fill-rule="evenodd" clip-rule="evenodd" d="M70.005 36.15c1.24.604 7.472-.273 7.29.271-.09 2.812-.937 4.505-1.179 8.314 6.868-.967 15.913-1.965 16.246-7.225-.03-.424-.06-.847-.06-1.27 0-.06 0-.09-.03-.151h.03c-.061-1.905.03-3.658.544-4.505 1.452-2.358 4.447-4.988 5.506-8.556 1.694-5.714 1.09-12.032-4.235-16.265-9.712-7.71-22.146-2.237-25.292 9.04-.605 2.207 1.12 3.386 1.059 5.29 0 .363-.514.756-.908 1.572-.514 1.18-.484 12.728 1.029 13.484z" fill="#E7A376"/>
    <path fill-rule="evenodd" clip-rule="evenodd" d="M70.066 36.089c1.24.605 7.412-.212 7.23.333-.09 2.811-.938 4.504-1.18 8.313 3.994.968 14.764-.453 16.367-6.5.03-1.27-.03-6.016.364-6.62 1.452-2.359 4.447-4.989 5.506-8.556 1.694-5.714 1.089-12.033-4.236-16.265-9.711-7.71-22.145-2.238-25.292 9.04-.605 2.206 1.12 3.385 1.06 5.29 0 .363-.515.756-.908 1.572-.515 1.149-.424 12.637 1.089 13.393z" fill="url(#paint4_linear)"/>
    <path fill-rule="evenodd" clip-rule="evenodd" d="M70.277 36.15c.666.362 3.358.12 5.355-.666 1.27-.484 2.178-1.572 2.39-1.663.847-.332 2.693-2.963-.181-7.135-2.784-4.081 14.128 6.35 15.036 4.898 1.452-2.358 4.447-4.988 5.506-8.556 1.694-5.714 1.089-12.032-4.236-16.265-9.711-7.71-22.145-2.237-25.291 9.04-.606 2.207 1.119 3.386 1.058 5.29 0 .363-.514.756-.907 1.572-.545 1.18-.242 12.698 1.27 13.484z" fill="url(#paint5_linear)"/>
    <path fill-rule="evenodd" clip-rule="evenodd" d="M77.235 26.838c3.48-3.235 6.838 7.074 1.24 6.953 2.179-2.297.515-5.955-1.24-6.953z" fill="#FFA698"/>
    <path fill-rule="evenodd" clip-rule="evenodd" d="M77.235 28.35c-.514-1.452-.09-1.966.545-1.814.696.181 1.694 1.179 2.209 2.66.816 2.419-.364 5.442-2.693 4.263 1.997.12 1.815-2.298 1.21-3.78-.393-1.027-1.029-1.722-1.27-1.33z" fill="#FFB49C"/>
    <path fill-rule="evenodd" clip-rule="evenodd" d="M78.174 28.984c-.575 1.028-.757 1.663-.575 2.026.12.242.514.544 1.15-.091 0-.695-.242-1.39-.575-1.935z" fill="#FFA698"/>
    <path fill-rule="evenodd" clip-rule="evenodd" d="M73.787 13.233l-.121-.06c-4.69-2.48-3.933-7.649-1.967-9.402C75.511.385 85.858.747 92.423 4.133c6.686 3.447 8.319 12.003 6.323 18.714-1.331 4.475-4.569 6.803-6.172 10.189-.877 1.149-2.39 1.844-4.114 1.511-4.63-.967-5.718-5.834-8.502-7.981-1.543-1.18-3.085-1.481-3.66 1.723-.121 1.421-.121 2.842-.242 4.142-.152 2.056.363 2.419-1.392 3.144-1.664.665-4.901 1.33-5.446 1.119-.423-.181-.393-2.721-.332-4.626.181 0 .181.666.272.635.181-.03.363-.06.635-.09 0-1.028-.06-1.542-.272-2.328-.212-.756-.303-1.3-.756-1.724-.182-.181-.182-1.209-.091-1.511.968.604 1.634 1.572 1.966 2.781.242.816.394 1.451.515 2.54.998-.182 1.996-.333 2.36-.786.968-1.119 1.15-2.54 1.512-4.747.09-3.87-.09-4.444-2.118-7.346-.544-.786-.575-2.419.787-6.047.03-.06.06-.151.09-.212z" fill="#562E65"/>
    <path fill-rule="evenodd" clip-rule="evenodd" d="M71.185 10.996c1.452 1.814 7.624-2.358 16.306-.786-1.845-5.714-2.934-6.923-5.536-8.616-3.388-2.177-9.106-1.3-10.891 1.723-1.725 2.872-1.029 6.228.12 7.679z" fill="url(#paint6_linear)"/>
    <path fill-rule="evenodd" clip-rule="evenodd" d="M92.604 36.602c1.876.575 3.782 2.45 3.419 3.689-1.876 7.649-16.065 9.07-24.778 7.256-.09-.03 3.389-4.596 5.053-5.14 5.506.514 14.612-1.3 16.306-5.804z" fill="#0AB7E4"/>
    <path fill-rule="evenodd" clip-rule="evenodd" d="M22.87 56.92c-1.845-1.724-3.237-3.78-5.354-6.017-3.691-3.93-10.529-8.223-15.067-11.912-1.573-1.3-2.964 1.421-1.633 2.721 1.3 1.3 4.81 4.565 4.81 4.565.06.03.09.06.151.091-1.3 1.42-1.966 3.658-1.996 5.29-.03 2.177 4.084 5.836 6.625 8.375 2.239 2.267 5.93.937 7.412 2.69 3.267-.755 4.115-2.992 5.052-5.804z" fill="url(#paint7_linear)"/>
    <path fill-rule="evenodd" clip-rule="evenodd" d="M44.32 72.882c-4.69-4.565-11.284-10.581-15.61-12.667-1.15-.545-2.844-.998-3.57-1.633a133.44 133.44 0 00-2.33-2.116c-1.936.604-4.356 3.325-5.87 5.925a92.49 92.49 0 012.27 3.114c.544.817.726 2.933 1.27 3.78 3.389 5.29 11.315 12.062 15.611 16.779 1.967 2.146 3.48 3.99 6.323 5.29 2.209.363 4.024.302 5.506-.09l.908-.091.605-.484a6.198 6.198 0 001.815-1.451 241.937 241.937 0 003.147-2.63c3.811-3.296 12.434-11.277 17.395-18.019 6.959-9.432 1.604-17.928-5.264-18.2-5.9-.242-10.649 7.528-13.735 11.488-2.844 3.568-5.96 7.68-8.47 11.005z" fill="url(#paint8_linear)"/>
    <defs>
        <linearGradient id="paint0_linear" x1="110.325" y1="100.671" x2="112.921" y2="63.312" gradientUnits="userSpaceOnUse">
            <stop stop-color="#1C8EF4"/>
            <stop offset="1" stop-color="#00CFDD"/>
        </linearGradient>
        <linearGradient id="paint1_linear" x1="85.969" y1="130.883" x2="100.33" y2="199.633" gradientUnits="userSpaceOnUse">
            <stop stop-color="#3E4795"/>
            <stop offset="1" stop-color="#273088"/>
        </linearGradient>
        <linearGradient id="paint2_linear" x1="73.152" y1="138.645" x2="122.144" y2="205.51" gradientUnits="userSpaceOnUse">
            <stop stop-color="#3E4795"/>
            <stop offset="1" stop-color="#273088"/>
        </linearGradient>
        <linearGradient id="paint3_linear" x1="87.433" y1="115.272" x2="85.32" y2="69.996" gradientUnits="userSpaceOnUse">
            <stop stop-color="#1C8EF4"/>
            <stop offset="1" stop-color="#00CFDD"/>
        </linearGradient>
        <linearGradient id="paint4_linear" x1="78.472" y1="15.095" x2="88.002" y2="30.142" gradientUnits="userSpaceOnUse">
            <stop stop-color="#FF8A78"/>
            <stop offset="1" stop-color="#FFA799"/>
        </linearGradient>
        <linearGradient id="paint5_linear" x1="80.577" y1="13.666" x2="85.87" y2="29.383" gradientUnits="userSpaceOnUse">
            <stop stop-color="#FFB89E"/>
            <stop offset="1" stop-color="#FFA799"/>
        </linearGradient>
        <linearGradient id="paint6_linear" x1="70.223" y1="2.461" x2="81.697" y2="9.459" gradientUnits="userSpaceOnUse">
            <stop stop-color="#8A4791"/>
            <stop offset="1" stop-color="#562E65"/>
        </linearGradient>
        <linearGradient id="paint7_linear" x1="9.942" y1="51.156" x2="7.779" y2="53.856" gradientUnits="userSpaceOnUse">
            <stop stop-color="#FFB89E"/>
            <stop offset="1" stop-color="#FFA799"/>
        </linearGradient>
        <linearGradient id="paint8_linear" x1="44.81" y1="88.591" x2="46.041" y2="60.088" gradientUnits="userSpaceOnUse">
            <stop stop-color="#1C8EF4"/>
            <stop offset="1" stop-color="#00CFDD"/>
        </linearGradient>
    </defs>
</svg>
