<svg viewBox="0 0 49 69" fill="none" xmlns="http://www.w3.org/2000/svg">
    <path fill-rule="evenodd" clip-rule="evenodd" d="M48.648 19.586c1.875 16.748-7.443 37.246-20.785 45.711C14.492 73.762 1.694 62.85.273 50.242-1.604 33.856 6.776 13.569 21.056 4.53 27.62.328 33.913-.126 38.936 2.474c.18.09.362.212.544.333 4.81 2.75 8.259 8.556 9.166 16.779zm-37.545 31.26c3.177 4.898 9.258 7.558 15.52 3.568 8.592-5.442 14.552-18.593 13.372-29.356-.605-5.382-2.874-9.16-6.08-10.914-3.208-1.754-7.352-1.482-11.618 1.24-9.893 6.258-17.97 25.032-11.194 35.462z" fill="url(#paint0_linear)"/>
    <defs>
        <linearGradient id="paint0_linear" x1="8.222" y1="59.965" x2="41.184" y2="8.681" gradientUnits="userSpaceOnUse">
            <stop stop-color="#1C8EF4"/>
            <stop offset="1" stop-color="#00CFDD"/>
        </linearGradient>
    </defs>
</svg>
