<svg viewBox="0 0 26 35" fill="none" xmlns="http://www.w3.org/2000/svg">
    <path fill-rule="evenodd" clip-rule="evenodd" d="M25.178 10.02c.938 8.526-3.781 18.957-10.588 23.28C7.783 37.623 1.248 32.06.552 25.62-.386 17.278 3.88 6.938 11.141 2.343c3.358-2.147 6.565-2.358 9.106-1.058.09.06.182.12.272.15 2.451 1.452 4.206 4.415 4.66 8.587zM6.058 25.954c1.634 2.48 4.72 3.84 7.896 1.814 4.357-2.781 7.413-9.462 6.808-14.934-.303-2.752-1.453-4.687-3.117-5.563-1.633-.877-3.751-.756-5.93.635-4.991 3.174-9.105 12.727-5.657 18.048z" fill="url(#paint0_linear)"/>
    <defs>
        <linearGradient id="paint0_linear" x1="23.322" y1="22.899" x2=".958" y2="11.272" gradientUnits="userSpaceOnUse">
            <stop stop-color="#6D6AFE"/>
            <stop offset="1" stop-color="#3FB0F7"/>
        </linearGradient>
    </defs>
</svg>
