<svg viewBox="0 0 366 395" fill="none" xmlns="http://www.w3.org/2000/svg">
    <g opacity=".38">
        <path d="M177.809 1.836c101.862 5.481 106.303 115.135 95.343 157.857-10.96 42.722 72.322 52.616 82.192 122.777 9.871 70.16-54.801 99.749-100.843 100.87-46.042 1.121-82.172-26.328-89.842-60.339-7.67-34.011-29.591-50.394-67.922-56.976-38.33-6.582-107.403-58.077-95.343-124.968 0 0 2.822-71.149 69.593-118.395 44.9-31.82 106.822-20.826 106.822-20.826z" fill="#E2E7FF"/>
        <path d="M177.809 1.836c101.862 5.481 106.303 115.135 95.343 157.857-10.96 42.722 72.322 52.616 82.192 122.777 9.871 70.16-54.801 99.749-100.843 100.87-46.042 1.121-82.172-26.328-89.842-60.339-7.67-34.011-29.591-50.394-67.922-56.976-38.33-6.582-107.403-58.077-95.343-124.968 0 0 2.822-71.149 69.593-118.395 44.9-31.82 106.822-20.826 106.822-20.826z" fill="url(#paint0_linear)" fill-opacity=".5"/>
    </g>
    <path d="M111.874 169.831s-2.77-35.416 7.64-59.034c4.166-5.553 6.947-3.475 6.947-3.475s1.385 14.591-2.088 28.529c-3.474 13.939-5.552 40.97-5.552 40.97l-6.947-6.99z" fill="#61A27D"/>
    <path d="M109.797 167.049s-.693-16.669-18.05-31.249c-17.358-14.581-20.831-14.54-20.831-14.54s13.884-.703 23.601 5.553c9.718 6.256 13.242 23.608 13.884 26.389.642 2.782 4.869 13.888 4.869 13.888l-3.473-.041zM121.052 169.606s3.25-16.363 22.654-28.101c19.405-11.738 22.818-11.208 22.818-11.208s-13.609-2.822-24.172 1.855c-10.563 4.676-16.675 21.294-17.785 23.933-1.111 2.639-6.947 12.971-6.947 12.971l3.432.55z" fill="#578B71"/>
    <path d="M113.27 167.05s-18.06-59.728-34.022-73.615c.693-2.038 19.435 4.167 24.997 19.451 5.562 15.283 6.937 38.188 9.025 44.444a101.247 101.247 0 004.859 11.819" fill="#7CC97D"/>
    <path d="M111.875 169.831s6.946-32.604 24.996-43.751c1.386 4.167-18.742 38.188-16.664 53.472 2.078 15.283-8.332-9.721-8.332-9.721z" fill="#7CC97D"/>
    <path d="M101.963 206.613h26.698c1.651-11.136 3.056-21.152 3.28-24.983a36.238 36.238 0 00-3.453-17.321h-26.351a36.487 36.487 0 00-3.454 17.321c.255 3.821 1.64 13.847 3.28 24.983z" fill="#A9A7E7"/>
    <path d="M345.087 140.109h-48.965v66.269h48.965v-66.269z" fill="#24ADB2"/>
    <path d="M340.045 140.109H291.08v66.269h48.965v-66.269z" fill="#26C6DA"/>
    <path d="M327.801 133.385h-48.965v72.983h48.965v-72.983z" fill="#E1543C"/>
    <path d="M322.759 133.385h-56.166v72.983h56.166v-72.983z" fill="#FF634D"/>
    <path d="M322.769 133.385h-9.605v72.983h9.605v-72.983z" fill="#EB594D"/>
    <path d="M234.262 209.915l-10.146-26.808h-25.353l10.145 26.808" fill="#4F57A0"/>
    <path d="M142.26 188.415h144.165l2.516-13.52H144.776" fill="#E2E7FF"/>
    <path d="M157.539 106.445l-12.763 68.45h144.165l12.468-66.881a4.33 4.33 0 00-4.248-5.094H161.787a4.318 4.318 0 00-4.248 3.525z" fill="#243FA7"/>
    <path d="M274.751 213.093l27.85 181.505h6.722L291.08 212.135l-16.329.958zM331.407 213.093l27.839 181.505h6.723l-18.244-182.463-16.318.958z" fill="#E2E7FF"/>
    <path d="M168.184 213.093l-27.839 181.505h-6.723l18.244-182.463 16.318.958zM111.538 213.093L83.689 394.598h-6.712L95.21 212.135l16.328.958z" fill="#C2D3EB"/>
    <path d="M351.566 211.178H100.975v8.64h250.591v-8.64z" fill="#A9A7E7"/>
    <path d="M356.363 214.998H108.656a4.8 4.8 0 01-4.788-4.789 4.801 4.801 0 014.798-4.799h247.697a4.798 4.798 0 014.798 4.799 4.8 4.8 0 01-4.798 4.789z" fill="#FFC757"/>
    <path d="M279.56 163.157h-76.814l9.605-49.936h76.804l-9.595 49.936z" fill="#2E60BE"/>
    <path d="M144.613 44.67h-5.653a1.948 1.948 0 01-1.936-2.578l1.416-5.655a3.497 3.497 0 013.209-2.567h5.653a1.938 1.938 0 012.009 1.634c.049.314.02.634-.084.933l-1.406 5.655a3.514 3.514 0 01-3.208 2.578z" fill="#BFD9FF"/>
    <path d="M140.457 61.248h-5.653a1.945 1.945 0 01-1.936-2.568l1.416-5.685a3.513 3.513 0 013.199-2.547h5.653a1.942 1.942 0 011.652.775 1.952 1.952 0 01.283 1.803l-1.416 5.654a3.512 3.512 0 01-3.198 2.568v0z" stroke="#A9A7E7" stroke-width=".75" stroke-miterlimit="10"/>
    <path d="M158.446 61.247h-5.684a1.938 1.938 0 01-2.009-1.635 1.932 1.932 0 01.084-.932l1.436-5.686a3.515 3.515 0 013.209-2.578h5.653a1.944 1.944 0 012.018 1.642c.049.314.021.635-.083.936l-1.416 5.655a3.49 3.49 0 01-3.208 2.598z" fill="#26C6DA"/>
    <path d="M176.434 61.247h-5.653a1.938 1.938 0 01-2.009-1.635 1.932 1.932 0 01.084-.933l1.405-5.685a3.519 3.519 0 013.219-2.578h5.654a1.95 1.95 0 012.008 1.644c.048.313.02.634-.083.934l-1.406 5.655a3.512 3.512 0 01-3.219 2.598z" fill="#fff"/>
    <path d="M136.23 78.212h-5.653a1.939 1.939 0 01-1.653-.767 1.934 1.934 0 01-.283-1.8l1.416-5.655a3.503 3.503 0 013.209-2.568h5.653a1.938 1.938 0 012.009 1.635c.049.313.02.633-.084.933l-1.406 5.655a3.51 3.51 0 01-3.208 2.567z" fill="#26C6DA"/>
    <path d="M131.707 96.339h-5.654a1.938 1.938 0 01-2.018-1.65 1.935 1.935 0 01.093-.938l1.406-5.655a3.516 3.516 0 013.209-2.578h5.683a1.946 1.946 0 011.936 2.578l-1.447 5.655a3.49 3.49 0 01-3.208 2.588z" fill="#fff"/>
    <path d="M154.219 78.212h-5.654a1.943 1.943 0 01-2.013-1.634 1.946 1.946 0 01.078-.933l1.416-5.655a3.515 3.515 0 013.209-2.568h5.653a1.948 1.948 0 012.013 1.634c.05.313.024.633-.078.934l-1.416 5.655a3.516 3.516 0 01-3.208 2.567z" fill="#EDF4FF"/>
    <path d="M146.334 109.838h-5.653a1.944 1.944 0 01-1.925-2.577l1.406-5.655a3.51 3.51 0 013.208-2.568h5.654a1.936 1.936 0 011.935 2.568l-1.416 5.655a3.49 3.49 0 01-3.209 2.577v0z" stroke="#A9A7E7" stroke-width=".75" stroke-miterlimit="10"/>
    <path d="M316.444 87.86h-2.037a.715.715 0 01-.713-.936l.519-2.038a1.306 1.306 0 011.182-.948h2.037a.715.715 0 01.703.948l-.52 2.038a1.271 1.271 0 01-1.171.937zM314.926 93.953h-2.037a.724.724 0 01-.713-.947l.519-2.038a1.296 1.296 0 011.182-.937h2.037a.703.703 0 01.703.937l-.519 2.038a1.284 1.284 0 01-1.172.947zM321.526 93.953h-2.037a.713.713 0 01-.703-.947l.51-2.038a1.292 1.292 0 011.181-.938h2.038a.701.701 0 01.702.938l-.509 2.038a1.304 1.304 0 01-1.182.947zM328.127 93.954h-2.037a.71.71 0 01-.745-.602.71.71 0 01.032-.346l.519-2.037a1.287 1.287 0 011.182-.938h2.037a.7.7 0 01.746.594.694.694 0 01-.033.344l-.519 2.037a1.299 1.299 0 01-1.182.948zM313.368 100.179h-2.038a.696.696 0 01-.603-.28.704.704 0 01-.099-.657l.519-2.038a1.29 1.29 0 011.171-.948h2.038a.723.723 0 01.713.948l-.52 2.038a1.292 1.292 0 01-1.181.937zM311.667 106.833h-2.038a.711.711 0 01-.34-.06.71.71 0 01-.405-.533.705.705 0 01.032-.344l.52-2.038a1.297 1.297 0 011.212-.938h2.037a.724.724 0 01.713.948l-.519 2.038a1.296 1.296 0 01-1.212.927zM319.978 100.179h-2.037a.71.71 0 01-.713-.937l.519-2.038a1.305 1.305 0 011.182-.947h2.037a.713.713 0 01.703.947l-.519 2.038a1.277 1.277 0 01-1.172.937zM317.075 111.795h-2.037a.727.727 0 01-.739-.604.725.725 0 01.026-.343l.519-2.038a1.31 1.31 0 011.182-.948h2.037a.711.711 0 01.61.284.714.714 0 01.103.664l-.519 2.038a1.287 1.287 0 01-1.182.947z" fill="#CAE5FF"/>
    <path opacity=".9" d="M315.741 166.539h-68.248a1.099 1.099 0 01-1.018-1.375l6.376-24.454a1.09 1.09 0 011.019-.825h68.247a1.095 1.095 0 01.838.444 1.093 1.093 0 01.181.931l-6.377 24.454a1.096 1.096 0 01-1.018.825z" fill="#BFD9FF"/>
    <path d="M256.885 145.092h23.754M255.062 156.055h23.744M265.044 151.918l49.925.079M256.284 148.75h7.12M255.306 151.918h7.12M284.408 145.092l30.561-.083" stroke="#A9C2FF" stroke-width="1.08" stroke-linecap="round" stroke-linejoin="round"/>
    <path d="M303.957 161.2h-12.631a.113.113 0 01-.045-.009.11.11 0 01-.036-.028.084.084 0 01-.02-.04.098.098 0 01-.001-.045l.57-2.171a.102.102 0 01.092-.071h12.641a.096.096 0 01.044.008.109.109 0 01.035.029.093.093 0 01.013.085l-.561 2.171a.101.101 0 01-.038.053.11.11 0 01-.063.018v0zM288.554 161.2h-12.631a.112.112 0 01-.044-.009.11.11 0 01-.057-.068.114.114 0 01-.001-.045l.571-2.171a.102.102 0 01.091-.071h12.642a.096.096 0 01.044.008.101.101 0 01.052.07c.002.015 0 .03-.005.044l-.56 2.171a.103.103 0 01-.039.053.106.106 0 01-.063.018v0zM272.847 161.202h-12.641a.11.11 0 01-.074-.041.107.107 0 01-.018-.039.104.104 0 010-.043l.621-2.119a.104.104 0 01.035-.05.097.097 0 01.057-.021h12.641a.097.097 0 01.073.04.099.099 0 01.018.039.09.09 0 01.001.043l-.571 2.17a.1.1 0 01-.067.04.1.1 0 01-.075-.019v0z" stroke="#84AEE5" stroke-width=".36" stroke-miterlimit="10"/>
    <path d="M223.24 157.808h-56.024c-4.91 0-7.904-3.994-6.682-8.905 1.232-4.921 6.203-8.905 11.123-8.905h56.024c4.91 0 7.905 3.984 6.682 8.905-1.232 4.962-6.223 8.905-11.123 8.905z" fill="#fff"/>
    <path d="M173.134 151.225l-2.394 1.111c-.224.112-.417-.061-.326-.286l1.019-2.363a.231.231 0 00.031-.118.23.23 0 00-.031-.117l-1.304-1.701c-.122-.153 0-.428.265-.459l2.465-.346a.42.42 0 00.244-.153l1.59-2.15c.152-.204.448-.204.488 0l.53 2.15c.01.04.032.076.063.103a.199.199 0 00.11.05l2.282.346c.214 0 .234.306 0 .459l-2.139 1.681a.323.323 0 00-.096.102.327.327 0 00-.047.132l-.183 2.364a.332.332 0 01-.161.264.332.332 0 01-.308.021l-1.843-1.11a.265.265 0 00-.13-.021.268.268 0 00-.125.041zM185.001 151.225l-2.404 1.111c-.224.112-.418-.061-.316-.286l1.019-2.363a.242.242 0 000-.235l-1.345-1.701c-.122-.153 0-.428.265-.459l2.465-.346a.396.396 0 00.234-.153l1.6-2.15c.152-.204.438-.204.489 0l.529 2.15a.207.207 0 00.163.153l2.292.346c.214 0 .234.306 0 .459l-2.129 1.681a.334.334 0 00-.142.234l-.184 2.364c0 .224-.295.397-.468.285l-1.844-1.11a.262.262 0 00-.114-.014.267.267 0 00-.11.034zM196.827 151.225l-2.404 1.111c-.224.112-.417-.061-.326-.286l1.019-2.363a.215.215 0 000-.235l-1.335-1.701c-.122-.153 0-.428.265-.459l2.455-.346a.425.425 0 00.245-.153l1.599-2.15c.153-.204.438-.204.489 0l.519 2.15a.225.225 0 00.173.153l2.282.346c.224 0 .245.306 0 .459l-2.139 1.681a.31.31 0 00-.091.103.319.319 0 00-.041.131l-.184 2.364c0 .224-.295.397-.468.285l-1.844-1.11a.286.286 0 00-.109-.012.298.298 0 00-.105.032zM208.654 151.225l-2.404 1.111c-.225.112-.418-.061-.326-.286l1.018-2.363a.232.232 0 000-.235l-1.344-1.701c-.123-.153 0-.428.275-.459l2.455-.346a.423.423 0 00.244-.153l1.599-2.15c.143-.204.438-.204.489 0l.52 2.15c.01.04.032.076.063.103.03.028.069.045.11.05l2.282.346c.213 0 .234.306 0 .459l-2.14 1.681a.341.341 0 00-.142.234l-.183 2.364c0 .224-.286.397-.459.285l-1.854-1.11c-.033-.011-.069-.015-.104-.011a.244.244 0 00-.099.031zM220.469 151.225l-2.394 1.111c-.234.112-.417-.062-.325-.286l1.018-2.364a.229.229 0 000-.234l-1.344-1.701c-.123-.153 0-.428.264-.459l2.465-.346a.367.367 0 00.235-.153l1.64-2.099c.152-.204.438-.204.489 0l.529 2.15a.209.209 0 00.163.153l2.292.346c.214 0 .234.306 0 .458l-2.129 1.682a.323.323 0 00-.096.102.326.326 0 00-.046.132l-.184 2.364c0 .224-.295.397-.468.285l-1.844-1.11a.278.278 0 00-.265-.031z" fill="#FFA402"/>
    <path d="M357.504 127.24h-44.819a3.758 3.758 0 01-3.718-4.351l.336-2.15a3.763 3.763 0 013.718-3.178h44.819a3.767 3.767 0 013.718 4.35l-.346 2.15a3.767 3.767 0 01-3.708 3.179z" fill="#CAE5FF"/>
    <path d="M314.508 122.482h38.708" stroke="#fff" stroke-width="2" stroke-miterlimit="10"/>
    <defs>
        <linearGradient id="paint0_linear" x1="344.363" y1="0" x2="217.418" y2="329.961" gradientUnits="userSpaceOnUse">
            <stop stop-color="#5855DB"/>
            <stop offset=".214" stop-color="#346AF0"/>
            <stop offset=".667" stop-color="#C5E9F2" stop-opacity=".51"/>
            <stop offset="1" stop-color="#fff" stop-opacity=".615"/>
        </linearGradient>
    </defs>
</svg>
