<svg viewBox="0 0 251 325" fill="none" xmlns="http://www.w3.org/2000/svg">
    <path d="M212.578 127.233l38.168-28.448-37.444-2.16-35.285 27.367 34.561 3.241z" fill="#fff"/>
    <path d="M201.903 117.992l9.596-5.278s9.269-3.841 9.544-3.841c.275 0 1.08.897.092 2.792-.988 1.895-3.606 2.333-3.606 2.333l-1.711 4.779 8.882-1.243 2.037-.479a40.467 40.467 0 01-2.037 4.442 26.52 26.52 0 01-3.952 2.996s-6.367 5.288-8.648 5.889c-2.282.601-10.187.958-10.187.958l-5.042-.123-4.685.958a21.757 21.757 0 01-2.038-10.678l11.755-3.505z" fill="#FF8D68"/>
    <path d="M26.436 78.621s-7.68 3.841-11.032 14.886c-3.351 11.045 14.872 40.817 14.872 39.37 0-1.447 18.243-9.598 18.243-9.598l-9.167-33.623L26.436 78.62z" fill="#202F7C"/>
    <path d="M100.988 303.348s1.569-3.862 8.149-3.169c6.581.693 7.396 1.905 8.312 5.094.917 3.19 3.341 6.633 4.89 7.316 1.548.683 7.252 4.188 11.816 4.718 4.563.529 5.195 3.27 4.257 4.574-.937 1.305-17.988 3.149-21.778 2.833 0 0-12.834.377-15.9-.489-3.066-.866.061-19.614.254-20.877z" fill="#201360"/>
    <path d="M102.731 275.695l-1.977 30.098a33.352 33.352 0 018.261 4.127c5.277 3.872 9.596-.815 9.596-.815l1.192-18.941-17.072-14.469z" fill="#FF8D68"/>
    <path d="M140.929 222.672l-19.435 83.549s-10.085 1.447-22.329-4.32c0 0 10.808-78.505 11.521-83.549.713-5.043 28.807.051 30.243 4.32z" fill="#202F7C"/>
    <path d="M62.118 6.473S70.104 7.961 75.36 19.72c5.256 11.758 3.983 37.566 1.222 40.756-2.76 3.189-11.846 2.659-24.61-.632-13.476-3.485-18.844-16.904-21.798-25.799-5.684-16.964 8.2-35.793 31.944-27.57z" fill="#FF8D68"/>
    <path d="M39.963 75.331l4.594-21.988s11.816-4.32 19.884 3.22l2.74 3.342.937 14.07a80.673 80.673 0 01-28.155 1.356z" fill="#FF8D68"/>
    <path d="M39.708 210.599a199.225 199.225 0 0056.238 6.491c30.508-1.019 34.552-9.69 35.499-17.943.947-8.253-22.786-13.246-33.105-15.976-10.319-2.731-45.624-12.869-55.168-2.568-9.545 10.301-11.776 22.966-3.464 29.996zM172.272 303.348s1.578-3.862 8.149-3.169c6.57.693 7.395 1.905 8.311 5.094.917 3.19 3.352 6.633 4.89 7.316 1.538.683 7.263 4.188 11.826 4.718 4.563.529 5.195 3.27 4.248 4.574-.948 1.305-17.979 3.149-21.778 2.833 0 0-12.825.377-15.891-.489-3.066-.866.061-19.614.245-20.877z" fill="#201360"/>
    <path d="M164.693 277.896l7.202 29.294s5.765-1.447 9.167 1.436c3.402 2.884 9.595.958 9.595.958l-5.276-23.047-20.688-8.641z" fill="#FF8D68"/>
    <path d="M105.216 179.939c1.446 0 50.411 16.303 60.007 23.527 9.605 7.682 24.966 93.279 25.924 95.195.957 1.915-13.915 7.203-23.52 5.767-.479-1.926-23.042-74.074-23.042-78.873 0 0-38.401-1.925-54.73-4.799-16.328-2.873-27.421-3.372-34.134-21.132-6.713-17.759 32.647-19.206 32.647-19.206l16.848-.479z" fill="#202F7C"/>
    <path d="M188.936 116.789s9.361-.234 10.084.723c.724.958 4.075 9.609.958 13.246l-2.638 1.926h-8.149l-.255-15.895zM38.323 72.132l2.516-6.48s15.127-4.677 28.084 1.08a25.79 25.79 0 015.042 8.283l-35.642-2.883z" fill="#E2E7FF"/>
    <path d="M35.084 72.854s1.915-3.362 5.276-3.84c3.362-.48 18.723-2.405 28.807.478a17.316 17.316 0 015.755 3.362s14.403 4.8 19.201 7.683 6.244 24.973 7.202 32.176c.957 7.204-1.915 14.887-1.915 14.887s11.52 47.052 11.52 53.777c0 6.724-3.84 14.407-17.316 19.206-13.477 4.799-49.913 2.883-62.4-4.799-3.81-7.683-9.525-98.914-10.544-107.565-1.018-8.65 14.414-15.365 14.414-15.365z" fill="#202F7C"/>
    <path d="M86.208 78.622s3.596-2.16 12.224 3.596c8.627 5.757 32.422 27.368 35.305 28.815 2.883 1.446 58.326 4.32 58.326 4.32s7.915 10.087-.723 18.004c0 0-53.528 2.16-63.613 1.446-10.084-.713-43.678-20.174-43.678-20.174s-13.68-20.164 2.16-36.007z" fill="#202F7C"/>
    <path d="M74.657 110.4s44.891 23.578 50.126 24.321c5.236.744 25.069 0 25.069 0M135.265 116.393s1.498 8.232-3.738 13.092M138.637 114.141s4.492 7.132 2.241 12.349M74.29 101.048s-3.707-13.062 9.351-21.702M26.039 88.7s-2.618 23.199-2.618 34.051M39.505 73.353s17.204-1.498 31.424 0M152.072 224.151s8.231-2.619 11.205-15.335M157.715 225.281s4.859-1.497 7.131-8.232M127.789 239.871l-12.346 61.745" stroke="#1B2048" stroke-width=".83" stroke-miterlimit="10"/>
    <path d="M73.638 22.073a11.12 11.12 0 01-4.318 10.81l.356 7.204s2.16 6.48.723 7.203c-1.436.724-1.854-.366-1.854-.366s-4.685-7.56-6.111-7.917c-1.426-.357 3.239 10.077 3.239 10.077s-4.665 7.203-13.314 8.334l1.803-2.516A18.159 18.159 0 0144.1 57.01c-6.112-.357-10.798-9.72-10.798-9.72s1.08 2.516 0 3.596-7.222-8.283-7.538-20.164L23.96 34.32a69.355 69.355 0 013.555-17.657c3.25-9.364 17.643-16.2 25.568-16.2 7.925 0 15.84.712 17.999 0 2.16-.714 1.08 5.4 1.08 5.4a24.97 24.97 0 001.476-4.677c1.437-1.08 3.596 7.57 2.883 10.81l-.723 3.24s2.516-3.24 2.883-5.043c1.405-.357 1.07 7.56-5.043 11.88z" fill="#201360"/>
    <path d="M68.383 40.016s-1.457-4.82-5.45-2.282c-3.993 2.537 1.68 13.887 5.022 12.91 3.341-.979 1.304-8.794.428-10.628z" fill="#FF634D"/>
    <path d="M214.503 123.513l10.197-2.037 2.047-4.443M224.395 121.711s-5.165 4.33-5.878 4.687c-.713.356-3.962 1.202-3.962 1.202M66.763 52.21s-1.437 5.034 7.201 7.918" stroke="#E66657" stroke-width="1.28" stroke-miterlimit="10"/>
    <path d="M69.574 50.44c2.554 0 4.625-2.893 4.625-6.46 0-3.568-2.07-6.46-4.625-6.46-2.554 0-4.624 2.892-4.624 6.46 0 3.567 2.07 6.46 4.624 6.46z" fill="#202F7C"/>
    <path d="M70.267 44.54s12.906 14.264 12.906 16.556c0 2.293-4.207 1.967-4.207 1.967" stroke="#202F7C" stroke-width="1.1" stroke-miterlimit="10"/>
    <path d="M79.954 63.062a1.692 1.692 0 11-1.69-1.681 1.68 1.68 0 011.69 1.681z" fill="#202F7C"/>
    <path d="M47.328 230.631c4.573 7.906 18.956 13.684 35.998 13.684 17.041 0 31.424-5.778 36.008-13.684H47.328z" fill="#4F57A0"/>
    <path d="M144.534 190.018l-8.638 39.859h-5.286l4.808-38.891 9.116-.968z" fill="#A9A7E7"/>
    <path d="M83.02 183.762h69.674a7.682 7.682 0 017.68 7.682v1.926H83.02v-9.608z" fill="#7A82CC"/>
    <path d="M19.723 225.535L1.001 135.496a5.771 5.771 0 013.161-6.376 5.763 5.763 0 012.472-.563h61.912a7.205 7.205 0 017.13 5.736l18.936 91.242M146.979 235.43H29.298a8.936 8.936 0 01-8.577-6.429l-1.018-3.444h127.276v9.873z" fill="#A9A7E7"/>
    <path d="M89.091 239.963H79.73v83.549h9.361v-83.549z" fill="#E2E7FF"/>
    <path d="M89.091 255.45l-9.361 7.56v-23.047h9.361v15.487z" fill="#4F57A0"/>
    <path d="M88.796 311.062H81.095l-35.092 13.939h77.884l-35.091-13.939z" fill="#E2E7FF"/>
    <path d="M9.252 134.723H64.93M70.705 141.172l9.504 47.888M81.91 197.547l2.037 13.928" stroke="#4F57A0" stroke-miterlimit="10"/>
</svg>
