<svg viewBox="0 0 128 85" fill="none" xmlns="http://www.w3.org/2000/svg">
    <path d="M9.142 81.436a2.324 2.324 0 002.282 2.76h83.618a2.332 2.332 0 002.282-1.884l1.222-6.399H10.211l-1.07 5.523z" fill="#26C6F8"/>
    <path d="M105.188 26.763h-83.66a2.302 2.302 0 00-2.271 1.874l-9.086 47.277h88.334l8.924-46.4a2.324 2.324 0 00-.478-1.9 2.321 2.321 0 00-1.763-.851z" fill="#CAE5FF"/>
    <path d="M48.013 84.239c1.1-3.057 1.782-5.217 1.782-5.217s2.526-13.185-8.71-9.802a18.474 18.474 0 00-5.734 9.17 152.488 152.488 0 01-1.915 5.9l14.577-.051z" fill="#387AB6"/>
    <path d="M71.288 84.237c-.204-6.51-.6-11.717-1.304-13.123-2.037-3.79-10.491-7.224-10.491-7.224l-11.48 1.722s-4.818 1.375-6.367 4.809c-.52 1.161-1.772 6.786-3.117 13.816h32.76z" fill="#DCE4FF"/>
    <path d="M49.938 56.086A43.486 43.486 0 0147.706 65s-.418 2.924 5.714 1.671c6.132-1.253 5.287-4.32 5.287-4.32V50.237l-8.77 5.849z" fill="#FF8D68"/>
    <path d="M41.33 43.34s.072 11.524 3.382 17.077c2.251 2.333 9.952-1.335 13.242-6.287 3.29-4.951 3.168-12.41.611-16.557-2.556-4.147-11-2.903-13.476-1.467-2.475 1.437-3.891 5.39-3.759 7.234z" fill="#FF8D68"/>
    <path d="M56.885 49.85s2.17-3.352 3.626-1.355c1.456 1.997-3.586 6.114-3.963 4.524a5.533 5.533 0 01.337-3.169z" fill="#FBA894"/>
    <path d="M41.33 43.34s-4.074-3.556.836-8.151c2.79-2.09 4.176-.56 7.13-1.111 2.954-.55 8.22 0 10.186 3.057 1.966 3.056 1.253 10.189.693 10.871-.56.683-2.231 1.11-2.231 2.364 0 1.253-.275 2.232-.693 2.232-.417 0-.417-2.038-.417-3.618a24.205 24.205 0 00-1.019-6.551c-.693-2.089-3.901-1.946-5.154-1.671-1.253.275-2.078 3.485-9.33 2.578z" fill="#713336"/>
    <path opacity=".53" d="M56.508 46.804a1.73 1.73 0 01.235-.102l-.235.102z" fill="#505E83"/>
    <path d="M56.742 46.723c0 .224.754 6.898-1.895 8.762-2.648 1.865-2.862-.52-5.093-.866-2.23-.346-3.952-.224-4.93 1.202-.978 1.427-.692 2.038-1.487 1.671-.173.459 1.019 3.26 2.862 4.005 1.844.743 6.194-1.539 8.15-3.26 1.955-1.723 3.157-2.813 3.493-4.3.336-1.488.173-4.361.58-6.369.266-1.538-1.12-1.1-1.68-.845zM46.709 59.03c-2.639-.57-2.292-2.629.397-3.495 0 0 2.872-1.314 3.84.693.407 1.294-1.6 3.362-4.237 2.782v.02z" fill="#713336"/>
    <path d="M58.718 61.476a13.974 13.974 0 01-8.852 4.737c-1.12-.438-1.721-2.496-1.721-2.496l-.866 1.294a9.764 9.764 0 000 3.607c.52.082 2.414-1.202 2.414-1.202s1.283 1.803 2.23 2.15c.948.346 6.968-3.699 7.57-5.676a4.88 4.88 0 00-.775-2.414z" fill="#fff"/>
    <path d="M72.174 84.237c-.305-6.409-.682-11.31-1.018-12.319-1.375-3.22-6.53-7.346-11.633-8.028 0 0-1.915 8.844-3.8 20.377l16.451-.03zM42.492 84.237c2.71-11.472 4.787-18.289 4.787-18.289a12.05 12.05 0 00-6.183 3.27c-1.018 2.039-2.628 7.958-4.278 15.02h5.674z" fill="#387AB6"/>
    <path d="M71.135 84.238c.194-6.113-.153-11.819-1.15-13.123-3.27-2.751-6.713-2.578-8.435.51-.937 1.701-2.18 7.6-3.117 12.613h12.702z" fill="#387AB6"/>
    <path d="M49.693 67.415c-1.018 3.974-1.782 7.988-2.516 12.013" stroke="#87B8EB" stroke-width=".36" stroke-miterlimit="10"/>
    <path d="M112.796 35.859c8.105-7.16 10.149-18.089 4.567-24.411-5.582-6.323-16.678-5.644-24.782 1.515-8.104 7.16-10.149 18.09-4.567 24.411 5.583 6.323 16.678 5.644 24.782-1.515zM123.492 43.003a6.46 6.46 0 01-5.908 4.738 3.576 3.576 0 01-3.555-4.728 6.47 6.47 0 015.918-4.738 3.578 3.578 0 013.693 3.013c.091.575.04 1.164-.148 1.715z" fill="#6787FF"/>
    <path d="M98.24 33.21a1.61 1.61 0 01-1.344-.622l-4.472-5.95a2.283 2.283 0 01.744-3.057 2.118 2.118 0 013.055 0l3.331 4.443 11.939-9.547a2.102 2.102 0 011.528-.66 2.1 2.1 0 011.527.66 2.272 2.272 0 01-.753 3.056L99.901 32.588a2.7 2.7 0 01-1.66.622z" fill="#fff"/>
    <path d="M25.226 22.47H13.003c-5.817 0-11.531 4.718-12.764 10.526-1.242 5.818 2.476 10.535 8.282 10.535h2.658a9.76 9.76 0 009.963 6.114 13.442 13.442 0 01-1.59-6.114h1.192c5.817 0 11.531-4.717 12.764-10.535 1.263-5.808-2.476-10.525-8.282-10.525z" fill="#FF634D"/>
    <path d="M7.797 30.959H19.35M6.83 35.545h18.752" stroke="#fff" stroke-width="2" stroke-miterlimit="10"/>
</svg>
