<svg viewBox="0 0 68 86" fill="none" xmlns="http://www.w3.org/2000/svg">
    <path opacity=".57" d="M62.406 28.646L6.626.867A4.485 4.485 0 00.138 4.885v44.142a10.104 10.104 0 005.645 9.07l55.746 27.27a4.481 4.481 0 006.455-4.032V37.686a10.093 10.093 0 00-5.578-9.04z" fill="#BF98FF"/>
    <path d="M48.37 35.017a1.13 1.13 0 01-.549-.143l-6.044-3.388a1.13 1.13 0 111.099-1.958l6.044 3.388a1.13 1.13 0 01-.55 2.098v.003zM47.016 52.63l-6.191-3.178a.9.9 0 00-1.209.377.977.977 0 00-.098.4l-.135 11.83a1.788 1.788 0 00.997 1.626l6.342 3.132a.84.84 0 001.209-.753V54.118a1.676 1.676 0 00-.915-1.488zM35.096 39.204l-6.188-3.174a.893.893 0 00-1.205.376.874.874 0 00-.097.403l-.15 19.285a1.797 1.797 0 001 1.623l6.342 3.125a.84.84 0 001.205-.753V40.69a1.672 1.672 0 00-.907-1.487z" fill="#fff"/>
    <path d="M23.176 22.795l-6.188-3.174a.9.9 0 00-1.208.377.885.885 0 00-.098.403l-.154 29.232a1.796 1.796 0 001.001 1.62l6.346 3.124a.838.838 0 001.204-.753V24.256a1.668 1.668 0 00-.903-1.46z" fill="#FF9C49"/>
</svg>
