<svg viewBox="0 0 154 121" fill="none" xmlns="http://www.w3.org/2000/svg">
    <path d="M150.719 76.559L4.804 1.223A2.8 2.8 0 00.728 3.715v37.14a5.615 5.615 0 003.056 4.995l145.896 74.418a2.794 2.794 0 002.135.167 2.795 2.795 0 001.934-2.663V81.54a5.608 5.608 0 00-3.03-4.981z" fill="#BF98FF"/>
    <path d="M128.297 94.134l12.101 6.217c.276.149.593.208.906.169a1.509 1.509 0 001.182-2.112l-6.052-14.21a1.505 1.505 0 00-2.604-.324l-6.049 7.994a1.513 1.513 0 00-.297 1.123 1.512 1.512 0 00.591 1c.069.056.143.104.222.143z" fill="#fff"/>
    <path opacity=".73" d="M59.205 29.56L4.811 1.246a2.803 2.803 0 00-4.095 2.49v37.12a5.615 5.615 0 003.056 4.996l54.3 27.692a3.01 3.01 0 004.366-2.673V34.899a6.026 6.026 0 00-3.233-5.339z" fill="#fff"/>
    <path d="M110.573 75.775c-.239 0-.475-.056-.688-.166l-25.76-13.35a1.506 1.506 0 011.382-2.67l25.759 13.336a1.508 1.508 0 01.228 2.509 1.505 1.505 0 01-.921.326v.015z" fill="#fff"/>
    <path d="M110.573 86.046a1.452 1.452 0 01-.688-.17l-12.24-6.343a1.505 1.505 0 111.381-2.666l12.24 6.344a1.503 1.503 0 01.755 1.687 1.51 1.51 0 01-1.448 1.148z" fill="#6142FF"/>
    <path d="M51.93 52.62a1.506 1.506 0 01-1.317-.78c-3.666-6.716-7.946-9.284-13.087-7.857-4.633 1.284-8.469.919-11.404-1.092-3.32-2.259-5.319-6.563-5.936-12.741-.666-6.653-3.436-9.857-8.72-10.09a1.506 1.506 0 11.131-3.013c8.552.377 11.013 7.154 11.578 12.802.527 5.27 2.088 8.814 4.644 10.565 2.168 1.483 5.168 1.713 8.905.674 6.594-1.83 12.154 1.302 16.523 9.31a1.507 1.507 0 01-1.317 2.222z" fill="#fff"/>
    <path d="M21.677 31.754a1.754 1.754 0 01-1.74-1.581c-.65-6.503-3.345-9.635-8.483-9.865a1.75 1.75 0 01-1.51-2.492 1.752 1.752 0 011.664-1.01c4.818.215 10.78 2.636 11.815 13.02a1.748 1.748 0 01-1.746 1.928z" fill="#6D44FF"/>
</svg>
