<svg viewBox="0 0 135 177" fill="none" xmlns="http://www.w3.org/2000/svg">
    <g clip-path="url(#clip0)">
        <path d="M130.435 63.19L5.451.689A3.477 3.477 0 00.41 3.807v104.305a6.964 6.964 0 003.892 6.254l124.958 61.397a3.472 3.472 0 003.375-.169 3.486 3.486 0 001.642-2.956V69.421a6.972 6.972 0 00-3.843-6.231z" fill="url(#paint0_linear)"/>
        <path d="M69.508 58.043c-.166 0-.33-.037-.478-.11L42.589 45.299a1.11 1.11 0 01.96-2.003l26.44 12.654a1.11 1.11 0 01-.481 2.113v-.02z" fill="#fff"/>
        <path d="M57.828 64.01c-.173 0-.343-.04-.497-.117l-14.758-7.402a1.111 1.111 0 11.994-1.984l14.758 7.398a1.129 1.129 0 01-.497 2.105z" fill="#FF9C49"/>
        <path d="M122.707 92.738v78.797l-81.88-39.263.146-38.445c10.466 5.785 17.725 5.785 21.777 0 6.071-8.683 21.454 9.036 30.351 6.024 8.898-3.012 9.865-8.581 19.666-3.182 1.227.678 4.005.132 6.079-.896.971-.49 2.258-1.5 3.861-3.035z" fill="url(#paint1_linear)"/>
        <path d="M91.144 101.323a11.18 11.18 0 01-4.983-1.175l-12.883-6.382a9 9 0 00-10.204 1.563l-.903.862a11.252 11.252 0 01-11.71 2.395l-9.88-3.731a1.129 1.129 0 11.787-2.079l9.88 3.731a9.03 9.03 0 009.387-1.92l.904-.862a11.23 11.23 0 0112.725-1.95l12.883 6.381a8.939 8.939 0 009.346-.835l2.424-1.804a11.15 11.15 0 0111.724-1.016l.376.195a8.336 8.336 0 009.493-1.42l1.422-1.358a1.111 1.111 0 011.536 1.604l-1.423 1.359a10.533 10.533 0 01-12.044 1.8l-.376-.192a8.929 8.929 0 00-9.41.813l-2.424 1.8a11.183 11.183 0 01-6.647 2.221z" fill="#fff"/>
        <path d="M54.395 99.301a11.12 11.12 0 01-3.933-.715l-9.88-3.731a1.129 1.129 0 11.786-2.079l9.88 3.731a9.03 9.03 0 009.387-1.92l.904-.862a11.23 11.23 0 0112.725-1.95l4.038 1.999a1.128 1.128 0 11-.986 1.992l-4.038-2a9 9 0 00-10.204 1.563l-.903.862c-2.095 2-4.88 3.114-7.776 3.11z" fill="#2BA3FF"/>
    </g>
    <defs>
        <linearGradient id="paint0_linear" x1="61.297" y1="-44.569" x2="86.003" y2="225.867" gradientUnits="userSpaceOnUse">
            <stop stop-color="#D702FF"/>
            <stop offset="1" stop-color="#7F18F8"/>
        </linearGradient>
        <linearGradient id="paint1_linear" x1="67.617" y1="36.906" x2="82.899" y2="124.677" gradientUnits="userSpaceOnUse">
            <stop stop-color="#5A0AFC"/>
            <stop offset="1" stop-color="#38007A"/>
        </linearGradient>
        <clipPath id="clip0">
            <path fill="#fff" d="M0 0h135v177H0z"/>
        </clipPath>
    </defs>
</svg>
