<svg viewBox="0 0 119 149" fill="none" xmlns="http://www.w3.org/2000/svg">
    <path d="M107.832 148.038L9.868 98.545a16.562 16.562 0 01-9.086-14.77V8.227A7.585 7.585 0 018.04.645a7.578 7.578 0 013.736.805l97.957 49.38a16.542 16.542 0 019.1 14.778v75.652a7.594 7.594 0 01-.961 3.703 7.58 7.58 0 01-10.04 3.075z" fill="#BF98FF"/>
    <path d="M96.258 53.04a10.185 10.185 0 00-12.83 9.673l-.042 2.53a16.48 16.48 0 0012.3 16.22 10.23 10.23 0 0012.492-7.311c.201-.77.312-1.559.331-2.353l.053-2.305a16.636 16.636 0 00-12.304-16.453z" fill="url(#paint0_linear)"/>
    <path opacity=".35" d="M106.187 49.098a7.411 7.411 0 00-9.007 5.365 7.161 7.161 0 00-.225 1.646l-.03 1.216a11.494 11.494 0 008.724 11.427 7.433 7.433 0 008.407-3.814 7.446 7.446 0 00.822-3.19l.034-1.065a11.586 11.586 0 00-8.725-11.585z" fill="url(#paint1_linear)"/>
    <path d="M94.46 72.114a1.505 1.505 0 01-1.13-.527l-2.789-3.283a1.506 1.506 0 012.258-1.928l1.882 2.225 4.675-3.433a1.506 1.506 0 011.761 2.402l-5.78 4.243c-.254.19-.56.296-.878.301zM84.673 90.3l-9.895-5.075a1.433 1.433 0 00-2.085 1.258l-.218 18.9a2.864 2.864 0 001.6 2.602l10.124 4.985a1.32 1.32 0 001.297-.06 1.33 1.33 0 00.626-1.137V92.68a2.674 2.674 0 00-1.449-2.38zM60.208 66.873l-9.883-5.071a1.43 1.43 0 00-2.086 1.261l-.233 30.817a2.855 2.855 0 001.596 2.59l10.132 4.99a1.336 1.336 0 001.927-1.198v-31.01a2.677 2.677 0 00-1.453-2.379z" fill="#fff"/>
    <path d="M35.744 37.9l-9.88-5.07a1.433 1.433 0 00-2.085 1.264l-.245 46.688a2.862 2.862 0 001.596 2.583l10.143 5.015a1.332 1.332 0 001.924-1.201V40.277a2.67 2.67 0 00-1.453-2.376z" fill="#6342FF"/>
    <defs>
        <linearGradient id="paint0_linear" x1="82.27" y1="40.096" x2="118.956" y2="90.052" gradientUnits="userSpaceOnUse">
            <stop stop-color="#B54BFF"/>
            <stop offset="1" stop-color="#18B9F8"/>
        </linearGradient>
        <linearGradient id="paint1_linear" x1="115558" y1="-678564" x2="117009" y2="-676833" gradientUnits="userSpaceOnUse">
            <stop stop-color="#B54BFF"/>
            <stop offset="1" stop-color="#18B9F8"/>
        </linearGradient>
    </defs>
</svg>
