<svg viewBox="0 0 519 476" fill="none" xmlns="http://www.w3.org/2000/svg">
    <path d="M293.44 2.952l121.762 59.824a36.418 36.418 0 0120.351 32.482l1.784 332.689a12.127 12.127 0 01-6.172 10.637c-8.173 4.608-13.919 7.73-17.238 9.364-3.885 1.907-44.482-25.479-121.793-82.159a36.396 36.396 0 01-14.81-27.109L257.029 8.705l10.351-5.422a28.8 28.8 0 0126.06-.331z" fill="url(#paint0_linear)"/>
    <path d="M268.388 7.798l133.204 66.266a36.398 36.398 0 0120.193 32.602v330.725a11.377 11.377 0 01-10.842 11.365c-1.935.09-3.86-.315-5.594-1.177l-134.025-66.643a36.404 36.404 0 01-20.196-32.692l.824-330.269A11.378 11.378 0 01262.8 6.632c1.933-.09 3.856.316 5.588 1.177v-.011z" fill="#b253ff"/>
    <path d="M276.262 26.314l18.175 9.036a21.867 21.867 0 0110.942 12.467 21.548 21.548 0 0010.975 12.372l29.452 14.266a24.169 24.169 0 0018.152 1.19 22.445 22.445 0 0117.897 1.641l12.737 7.01a32.036 32.036 0 0116.583 28.07v307.78a10.013 10.013 0 01-9.547 10.005 10.014 10.014 0 01-4.925-1.041l-117.859-58.623a32.042 32.042 0 01-17.769-28.761l.73-306.481a10.022 10.022 0 014.75-8.481 10.003 10.003 0 019.707-.45z" fill="url(#paint2_linear)"/>
    <path opacity=".25" d="M309.519 175.029l-56.811-29.579-.644 44.617 56.393 28.686a2.804 2.804 0 004.08-2.496v-36.254a5.61 5.61 0 00-3.018-4.974zM309.519 99.181L252.708 69.6l-.644 44.62 56.393 28.668a2.81 2.81 0 002.738-.104 2.805 2.805 0 001.342-2.389v-36.239a5.61 5.61 0 00-3.018-4.974zM412.624 403.648l-57.819-28.991a16.54 16.54 0 01-9.127-14.794v-76.002a7.589 7.589 0 013.596-6.445 7.579 7.579 0 017.371-.333l46.833 23.374a16.565 16.565 0 019.15 14.805v88.371l-.004.015z" fill="#BF98FF"/>
    <path opacity=".14" d="M515.15 143.828l-124.988-62.5a3.483 3.483 0 00-5.04 3.113v104.301a6.971 6.971 0 003.896 6.254l124.965 61.409a3.488 3.488 0 003.376-.173 3.489 3.489 0 001.641-2.955V150.048a6.968 6.968 0 00-3.85-6.22z" fill="url(#paint3_linear)"/>
    <path opacity=".26" d="M492.446 280.521l-13.463-6.48a4.476 4.476 0 00-4.312.253 4.47 4.47 0 00-2.086 3.783v13.931a10.453 10.453 0 006.022 9.458l13.414 6.307a4.477 4.477 0 004.303-.272 4.474 4.474 0 002.077-3.779v-13.784a10.447 10.447 0 00-5.955-9.417z" fill="url(#paint4_linear)"/>
    <path d="M282.164 254.458l-153.092-74.813a7.83 7.83 0 00-10.283 3.239 7.84 7.84 0 00-.982 3.798v135.356a4.275 4.275 0 002.337 3.811l167.409 85.031a4.278 4.278 0 004.17-.168 4.273 4.273 0 002.037-3.642V273.009a20.658 20.658 0 00-3.14-10.938 20.64 20.64 0 00-8.456-7.613z" fill="url(#paint5_linear)"/>
    <path d="M285.544 420.274l-104.607 52.463a21.355 21.355 0 01-19.335-.098L2.883 391.023a4.268 4.268 0 01-1.998-2.176c-1.958-4.769-.665-8.284 3.876-10.543 22.922-11.43 59.654-27.412 110.197-47.945l174.515 80.822v2.726a7.125 7.125 0 01-3.929 6.367z" fill="url(#paint6_linear)"/>
    <path d="M278.073 258.664l-151.779-75.999a7.823 7.823 0 00-7.621.338 7.834 7.834 0 00-3.715 6.665v133.568l174.515 87.945V277.143a20.657 20.657 0 00-11.4-18.479z" fill="url(#paint7_linear)"/>
    <path d="M283.778 268.043l-162.287-81.086v133.44l162.287 80.17V268.043z" fill="#fff"/>
    <path d="M258.757 295.268a2.005 2.005 0 01-.93-.226l-21.83-11.133a2.057 2.057 0 01-.884-2.768 2.052 2.052 0 012.766-.884l21.83 11.133a2.053 2.053 0 01-.93 3.878h-.022z" fill="#FC0C83"/>
    <path d="M258.757 311.375c-.323 0-.642-.076-.93-.222l-14.754-7.53a2.04 2.04 0 01-1.084-1.191 2.053 2.053 0 012.947-2.461l14.75 7.53a2.053 2.053 0 01-.929 3.878v-.004zM238.542 339.956a2.05 2.05 0 01-2.009-1.641c-2.688-13.317-7.152-21.785-13.23-25.174-4.163-2.312-9.116-2.342-15.142-.094-9.496 3.547-17.121 3.528-23.335-.056-8.044-4.658-13.196-15.238-16.207-33.303-2.609-15.584-9.978-23.822-22.53-25.188a2.05 2.05 0 01-1.022-3.61 2.048 2.048 0 011.466-.468c14.411 1.57 23.215 11.19 26.113 28.573 2.804 16.763 7.332 26.432 14.246 30.43 5.07 2.933 11.559 2.854 19.835-.233 7.121-2.659 13.365-2.542 18.567.35 7.29 4.055 12.281 13.178 15.258 27.945a2.052 2.052 0 01-1.603 2.417 2.15 2.15 0 01-.407.052z" fill="#5F0CFC"/>
    <path d="M170.62 281.401a2.046 2.046 0 01-2.017-1.713c-2.609-15.584-9.978-23.822-22.53-25.188a2.05 2.05 0 01-1.022-3.61 2.048 2.048 0 011.466-.468c14.426 1.57 23.23 11.19 26.128 28.573a2.054 2.054 0 01-1.682 2.361 2.206 2.206 0 01-.343.045z" fill="#FC0C83"/>
    <path d="M289.473 411.182l-108.619 54.474a21.35 21.35 0 01-19.195-.03L4.333 386.054a4.278 4.278 0 01-1.703-6.065 4.273 4.273 0 011.721-1.571l110.607-55.182 174.515 87.946z" fill="url(#paint9_linear)"/>
    <path d="M257.304 411.769l-5.032 2.526a5.126 5.126 0 01-4.622 0l-10.188-5.184a1.286 1.286 0 01-.394-.308 1.285 1.285 0 01.322-1.936l4.065-2.402a5.772 5.772 0 015.529-.185l10.32 5.215a1.272 1.272 0 01.702 1.239 1.295 1.295 0 01-.133.482 1.294 1.294 0 01-.569.553z" fill="url(#paint10_linear)"/>
    <path d="M239.151 402.296l-5.043 2.527a5.125 5.125 0 01-4.622 0l-10.193-5.185a1.283 1.283 0 01-.56-1.724c.111-.217.28-.398.489-.524l4.065-2.398a5.769 5.769 0 015.533-.184l10.32 5.21a1.285 1.285 0 01.564 1.725c-.119.24-.313.434-.553.553z" fill="url(#paint11_linear)"/>
    <path d="M220.219 392.827l-5.032 2.511a5.123 5.123 0 01-4.622 0l-10.188-5.184a1.278 1.278 0 01-.561-1.725c.109-.218.279-.4.489-.523l4.065-2.402a5.773 5.773 0 015.529-.181l10.324 5.211a1.284 1.284 0 010 2.289l-.004.004z" fill="url(#paint12_linear)"/>
    <path d="M200.644 383.357l-5.029 2.527a5.121 5.121 0 01-4.621 0l-10.193-5.185a1.28 1.28 0 01-.71-1.108 1.277 1.277 0 01.639-1.151l4.065-2.402a5.77 5.77 0 015.529-.181l10.324 5.211a1.294 1.294 0 01.638.743c.053.16.073.329.06.496a1.289 1.289 0 01-.702 1.05z" fill="url(#paint13_linear)"/>
    <path d="M180.429 374.032l-5.036 2.526a5.126 5.126 0 01-4.622 0l-10.192-5.185a1.281 1.281 0 01-.072-2.244l4.076-2.406a5.761 5.761 0 015.529-.184l10.321 5.215a1.278 1.278 0 010 2.289l-.004-.011z" fill="url(#paint14_linear)"/>
    <path d="M159.43 363.919l-5.028 2.526a5.126 5.126 0 01-4.622 0l-10.192-5.184a1.276 1.276 0 01-.712-1.11 1.284 1.284 0 01.644-1.15l4.065-2.402a5.76 5.76 0 015.529-.18l10.32 5.211a1.28 1.28 0 01.568 1.72 1.265 1.265 0 01-.572.569z" fill="url(#paint15_linear)"/>
    <path d="M139.501 353.952l-5.028 2.523a5.111 5.111 0 01-4.622 0l-10.192-5.188a1.283 1.283 0 01-.072-2.244l4.065-2.403a5.769 5.769 0 015.533-.184l10.32 5.207a1.286 1.286 0 01.565 1.725 1.258 1.258 0 01-.569.564z" fill="url(#paint16_linear)"/>
    <path d="M109.357 346.263l-4.14-2.104a1.283 1.283 0 01-.068-2.248l4.065-2.398a5.75 5.75 0 015.529-.185l2.845 1.438a1.434 1.434 0 01.711.826 1.434 1.434 0 01-.082 1.087 1.408 1.408 0 01-.61.621l-5.645 2.948a2.85 2.85 0 01-2.605.015z" fill="url(#paint17_linear)"/>
    <path d="M93.696 353.383l-4.118-2.097a1.277 1.277 0 01-.714-1.108 1.284 1.284 0 01.643-1.151l4.065-2.402a5.773 5.773 0 012.74-.8 5.771 5.771 0 012.789.615l2.845 1.439a1.42 1.42 0 01.581 2.005 1.43 1.43 0 01-.562.529l-5.646 2.948a2.858 2.858 0 01-2.623.022z" fill="url(#paint18_linear)"/>
    <path d="M239.964 420.12l-5.036 2.53a5.117 5.117 0 01-4.546.023l-20.483-9.997a1.284 1.284 0 01-.086-2.259l4.072-2.406a5.767 5.767 0 015.45-.222l20.614 10.03a1.279 1.279 0 01.714 1.149 1.273 1.273 0 01-.714 1.148l.015.004z" fill="url(#paint19_linear)"/>
    <path d="M202.055 408.647l-4.279-2.123a1.277 1.277 0 01-.509-.455 1.276 1.276 0 01-.046-1.315c.111-.203.276-.372.476-.489l4.038-2.387a5.767 5.767 0 015.529-.181l2.778 1.401a1.272 1.272 0 01.706 1.112 1.283 1.283 0 01-.649 1.147l-5.646 3.215a2.54 2.54 0 01-2.398.075z" fill="url(#paint20_linear)"/>
    <path d="M198.653 399.736l-5.032 2.526a5.13 5.13 0 01-4.622 0l-10.189-5.184a1.285 1.285 0 01-.564-1.725c.112-.215.283-.395.493-.519l4.065-2.403a5.767 5.767 0 015.529-.184l10.32 5.215a1.28 1.28 0 01.568 1.72c-.127.24-.325.433-.568.554z" fill="url(#paint21_linear)"/>
    <path d="M179.077 390.263l-5.028 2.526a5.132 5.132 0 01-4.626 0l-10.188-5.184a1.294 1.294 0 01-.71-1.109 1.282 1.282 0 01.638-1.15l4.065-2.399a5.761 5.761 0 015.529-.184l10.324 5.211a1.286 1.286 0 01.565 1.724 1.27 1.27 0 01-.569.565z" fill="url(#paint22_linear)"/>
    <path d="M158.862 379.524l-5.028 2.527a5.114 5.114 0 01-4.622 0l-10.193-5.185a1.28 1.28 0 01-.071-2.259l4.065-2.402a5.76 5.76 0 015.529-.181l10.324 5.211a1.283 1.283 0 01.7 1.239 1.289 1.289 0 01-.704 1.05z" fill="url(#paint23_linear)"/>
    <path d="M139.29 369.4l-5.032 2.526a5.123 5.123 0 01-4.622 0l-10.192-5.203a1.286 1.286 0 01-.549-1.774c.113-.202.28-.37.481-.485l4.065-2.399a5.761 5.761 0 015.529-.184l10.32 5.218a1.288 1.288 0 01.569 1.725 1.27 1.27 0 01-.569.576z" fill="url(#paint24_linear)"/>
    <path d="M120.784 359.434l-5.032 2.526a5.114 5.114 0 01-4.622 0l-10.193-5.185a1.283 1.283 0 01-.067-2.244l4.064-2.402a5.767 5.767 0 015.529-.181l10.321 5.211a1.283 1.283 0 01.568 1.721 1.3 1.3 0 01-.568.554z" fill="url(#paint25_linear)"/>
    <path opacity=".39" d="M221.427 429.07l-5.009 2.527a5.125 5.125 0 01-4.622 0l-.132-.068-10.061-5.117a1.288 1.288 0 01-.549-1.772c.113-.202.278-.371.478-.487l4.069-2.402a5.77 5.77 0 015.529-.181l10.32 5.211a1.283 1.283 0 01.568 1.721 1.266 1.266 0 01-.591.568z" fill="#D6F8FF"/>
    <path d="M200.429 418.177l-5.028 2.527a5.124 5.124 0 01-4.622 0l-10.193-5.185a1.282 1.282 0 01-.068-2.244l4.065-2.402a5.77 5.77 0 015.529-.185l10.321 5.215a1.274 1.274 0 01.706 1.145 1.278 1.278 0 01-.706 1.144l-.004-.015z" fill="url(#paint26_linear)"/>
    <path d="M180.075 407.281l-5.032 2.526a5.13 5.13 0 01-4.622 0l-10.189-5.184a1.286 1.286 0 01-.64-.746 1.268 1.268 0 01.079-.979c.109-.218.279-.4.49-.523l4.064-2.399a5.764 5.764 0 015.529-.184l10.321 5.211a1.28 1.28 0 01.568 1.72 1.257 1.257 0 01-.568.558z" fill="url(#paint27_linear)"/>
    <path d="M160.499 396.388l-5.028 2.527a5.114 5.114 0 01-4.622 0l-10.193-5.185a1.28 1.28 0 01-.071-2.259l4.065-2.402a5.76 5.76 0 015.529-.181l10.324 5.211a1.283 1.283 0 01.7 1.24 1.287 1.287 0 01-.704 1.049z" fill="url(#paint28_linear)"/>
    <path d="M157.345 419.096l-30.05 15.26a7.804 7.804 0 01-7.125-.019l-50.002-25.731a3.131 3.131 0 01.083-5.613l31.39-14.986a7.825 7.825 0 016.986.125l48.745 25.392a3.135 3.135 0 011.22 4.424c-.302.49-.734.887-1.247 1.148z" fill="url(#paint29_linear)"/>
    <path opacity=".39" d="M131.876 432.03l-4.581 2.326a7.817 7.817 0 01-7.125-.018l-50.002-25.731a3.133 3.133 0 01.083-5.614l2.68-1.28 58.945 30.317z" fill="#D6F8FF"/>
    <path d="M140.284 385.635l-5.028 2.526a5.13 5.13 0 01-4.622 0l-10.193-5.195a1.29 1.29 0 01-.709-1.109 1.281 1.281 0 01.638-1.15l4.065-2.403a5.777 5.777 0 015.533-.18l10.32 5.211a1.264 1.264 0 01.638.743 1.283 1.283 0 01-.074.977 1.238 1.238 0 01-.568.58z" fill="url(#paint30_linear)"/>
    <path d="M119.285 375.526l-5.028 2.527a5.111 5.111 0 01-4.622 0l-10.192-5.185a1.28 1.28 0 01-.068-2.244l4.065-2.402a5.76 5.76 0 015.529-.181l10.32 5.211a1.279 1.279 0 010 2.289l-.004-.015z" fill="url(#paint31_linear)"/>
    <path opacity=".39" d="M100.662 365.368l-5.036 2.526a5.106 5.106 0 01-4.516.034L73.548 359.4a1.277 1.277 0 01-.726-1.101 1.282 1.282 0 01.632-1.158l4.076-2.41a5.775 5.775 0 015.443-.225l17.689 8.558a1.279 1.279 0 01.723 1.144 1.285 1.285 0 01-.704 1.156l-.019.004z" fill="#D6F8FF"/>
    <path opacity=".2" d="M200.154 215.993L90.926 161.361a3.046 3.046 0 00-2.962.132 3.04 3.04 0 00-1.442 2.591v91.191a6.095 6.095 0 003.387 5.463l109.226 53.649a3.033 3.033 0 002.948-.149 3.043 3.043 0 001.436-2.58v-90.217a6.086 6.086 0 00-3.365-5.448z" fill="url(#paint32_linear)"/>
    <path opacity=".25" d="M233.81 200.006l-10.994-5.248a3.551 3.551 0 00-3.432.199 3.56 3.56 0 00-1.66 3.013v11.223a8.31 8.31 0 004.798 7.531l10.968 5.109a3.558 3.558 0 005.062-3.231v-11.095a8.304 8.304 0 00-4.742-7.501z" fill="url(#paint33_linear)"/>
    <path opacity=".5" d="M43.596 162.762l-18.82-8.901a6.05 6.05 0 00-7.908 2.544 6.055 6.055 0 00-.748 2.927v18.908a14.14 14.14 0 008.198 12.828l18.743 8.66a6.056 6.056 0 008.593-5.497v-18.698a14.135 14.135 0 00-8.058-12.771z" fill="url(#paint34_linear)"/>
    <defs>
        <linearGradient id="paint0_linear" x1="353.807" y1="-577.153" x2="293.156" y2="576.705" gradientUnits="userSpaceOnUse">
            <stop stop-color="#022EFF"/>
            <stop offset="1" stop-color="#B253FF"/>
        </linearGradient>
        <linearGradient id="paint1_linear" x1="-19202700" y1="-282686000" x2="-19579900" y2="-281713000" gradientUnits="userSpaceOnUse">
            <stop stop-color="#022EFF"/>
            <stop offset="1" stop-color="#B253FF"/>
        </linearGradient>
        <linearGradient id="paint2_linear" x1="351.167" y1="359.537" x2="243.46" y2="232.037" gradientUnits="userSpaceOnUse">
            <stop stop-color="#fff"/>
            <stop offset="1" stop-color="#E2F9FF"/>
        </linearGradient>
        <linearGradient id="paint3_linear" x1="445.816" y1="35.93" x2="472.055" y2="306.245" gradientUnits="userSpaceOnUse">
            <stop stop-color="#4302FF"/>
            <stop offset="1" stop-color="#7F18F8"/>
        </linearGradient>
        <linearGradient id="paint4_linear" x1="565924" y1="-2329050" x2="566419" y2="-2324170" gradientUnits="userSpaceOnUse">
            <stop stop-color="#4302FF"/>
            <stop offset="1" stop-color="#7F18F8"/>
        </linearGradient>
        <linearGradient id="paint5_linear" x1="9697070" y1="-40322400" x2="9654560" y2="-40366200" gradientUnits="userSpaceOnUse">
            <stop stop-color="#4302FF"/>
            <stop offset="1" stop-color="#7F18F8"/>
        </linearGradient>
        <linearGradient id="paint6_linear" x1="120.706" y1="403.964" x2="258.256" y2="333.576" gradientUnits="userSpaceOnUse">
            <stop stop-color="#3500CE"/>
            <stop offset="1" stop-color="#7F18F8"/>
        </linearGradient>
        <linearGradient id="paint7_linear" x1="9486190" y1="-39232100" x2="9556980" y2="-39262200" gradientUnits="userSpaceOnUse">
            <stop stop-color="#4302FF"/>
            <stop offset="1" stop-color="#7F18F8"/>
        </linearGradient>
        <linearGradient id="paint8_linear" x1="8189030" y1="-34002400" x2="8130520" y2="-34061400" gradientUnits="userSpaceOnUse">
            <stop stop-color="#fff"/>
            <stop offset="1" stop-color="#E2F9FF"/>
        </linearGradient>
        <linearGradient id="paint9_linear" x1="-167.625" y1="417.208" x2="215.863" y2="319.156" gradientUnits="userSpaceOnUse">
            <stop stop-color="#4302FF"/>
            <stop offset="1" stop-color="#8F30FF"/>
        </linearGradient>
        <linearGradient id="paint10_linear" x1="34480" y1="-92059.3" x2="35843.5" y2="-92746.7" gradientUnits="userSpaceOnUse">
            <stop stop-color="#4302FF"/>
            <stop offset="1" stop-color="#8F30FF"/>
        </linearGradient>
        <linearGradient id="paint11_linear" x1="33977.2" y1="-92207" x2="35347.3" y2="-92888.6" gradientUnits="userSpaceOnUse">
            <stop stop-color="#4302FF"/>
            <stop offset="1" stop-color="#8F30FF"/>
        </linearGradient>
        <linearGradient id="paint12_linear" x1="33454.7" y1="-92351.3" x2="34818.3" y2="-93038.7" gradientUnits="userSpaceOnUse">
            <stop stop-color="#4302FF"/>
            <stop offset="1" stop-color="#8F30FF"/>
        </linearGradient>
        <linearGradient id="paint13_linear" x1="32928.1" y1="-92585.3" x2="34292.6" y2="-93272.8" gradientUnits="userSpaceOnUse">
            <stop stop-color="#4302FF"/>
            <stop offset="1" stop-color="#8F30FF"/>
        </linearGradient>
        <linearGradient id="paint14_linear" x1="32369.5" y1="-92653.7" x2="33733.6" y2="-93341.5" gradientUnits="userSpaceOnUse">
            <stop stop-color="#4302FF"/>
            <stop offset="1" stop-color="#8F30FF"/>
        </linearGradient>
        <linearGradient id="paint15_linear" x1="31791.3" y1="-92870.7" x2="33156" y2="-93558.4" gradientUnits="userSpaceOnUse">
            <stop stop-color="#4302FF"/>
            <stop offset="1" stop-color="#8F30FF"/>
        </linearGradient>
        <linearGradient id="paint16_linear" x1="31216.5" y1="-92960.2" x2="32586.9" y2="-93641.6" gradientUnits="userSpaceOnUse">
            <stop stop-color="#4302FF"/>
            <stop offset="1" stop-color="#8F30FF"/>
        </linearGradient>
        <linearGradient id="paint17_linear" x1="-14337.3" y1="-45786.3" x2="-13734.6" y2="-46061.5" gradientUnits="userSpaceOnUse">
            <stop stop-color="#4302FF"/>
            <stop offset="1" stop-color="#8F30FF"/>
        </linearGradient>
        <linearGradient id="paint18_linear" x1="-14635.7" y1="-45763.9" x2="-14030.1" y2="-46036.9" gradientUnits="userSpaceOnUse">
            <stop stop-color="#4302FF"/>
            <stop offset="1" stop-color="#8F30FF"/>
        </linearGradient>
        <linearGradient id="paint19_linear" x1="159640" y1="-188764" x2="162636" y2="-190260" gradientUnits="userSpaceOnUse">
            <stop stop-color="#4302FF"/>
            <stop offset="1" stop-color="#8F30FF"/>
        </linearGradient>
        <linearGradient id="paint20_linear" x1="-13283.2" y1="-44721.6" x2="-12696.4" y2="-44991.9" gradientUnits="userSpaceOnUse">
            <stop stop-color="#4302FF"/>
            <stop offset="1" stop-color="#8F30FF"/>
        </linearGradient>
        <linearGradient id="paint21_linear" x1="32858.9" y1="-92236.4" x2="34229" y2="-92918.2" gradientUnits="userSpaceOnUse">
            <stop stop-color="#4302FF"/>
            <stop offset="1" stop-color="#8F30FF"/>
        </linearGradient>
        <linearGradient id="paint22_linear" x1="32329" y1="-92478.2" x2="33700" y2="-93159.9" gradientUnits="userSpaceOnUse">
            <stop stop-color="#4302FF"/>
            <stop offset="1" stop-color="#8F30FF"/>
        </linearGradient>
        <linearGradient id="paint23_linear" x1="31777.4" y1="-92661.5" x2="33142.2" y2="-93349.2" gradientUnits="userSpaceOnUse">
            <stop stop-color="#4302FF"/>
            <stop offset="1" stop-color="#8F30FF"/>
        </linearGradient>
        <linearGradient id="paint24_linear" x1="31233.4" y1="-92941.6" x2="32605.5" y2="-93622.9" gradientUnits="userSpaceOnUse">
            <stop stop-color="#4302FF"/>
            <stop offset="1" stop-color="#8F30FF"/>
        </linearGradient>
        <linearGradient id="paint25_linear" x1="30701.1" y1="-92836" x2="32064.6" y2="-93523.5" gradientUnits="userSpaceOnUse">
            <stop stop-color="#4302FF"/>
            <stop offset="1" stop-color="#8F30FF"/>
        </linearGradient>
        <linearGradient id="paint26_linear" x1="32910.3" y1="-91975.6" x2="34274" y2="-92663.2" gradientUnits="userSpaceOnUse">
            <stop stop-color="#4302FF"/>
            <stop offset="1" stop-color="#8F30FF"/>
        </linearGradient>
        <linearGradient id="paint27_linear" x1="32342.8" y1="-92133.6" x2="33706.4" y2="-92821.1" gradientUnits="userSpaceOnUse">
            <stop stop-color="#4302FF"/>
            <stop offset="1" stop-color="#8F30FF"/>
        </linearGradient>
        <linearGradient id="paint28_linear" x1="31825" y1="-92412.5" x2="33186.4" y2="-93099.7" gradientUnits="userSpaceOnUse">
            <stop stop-color="#4302FF"/>
            <stop offset="1" stop-color="#8F30FF"/>
        </linearGradient>
        <linearGradient id="paint29_linear" x1="2278720" y1="-1711770" x2="2304080" y2="-1723750" gradientUnits="userSpaceOnUse">
            <stop stop-color="#4302FF"/>
            <stop offset="1" stop-color="#8F30FF"/>
        </linearGradient>
        <linearGradient id="paint30_linear" x1="31255.9" y1="-92645.1" x2="32617.5" y2="-93331.6" gradientUnits="userSpaceOnUse">
            <stop stop-color="#4302FF"/>
            <stop offset="1" stop-color="#8F30FF"/>
        </linearGradient>
        <linearGradient id="paint31_linear" x1="30662.4" y1="-92598.8" x2="32026" y2="-93286.4" gradientUnits="userSpaceOnUse">
            <stop stop-color="#4302FF"/>
            <stop offset="1" stop-color="#8F30FF"/>
        </linearGradient>
        <linearGradient id="paint32_linear" x1="138.155" y1="123.9" x2="160.387" y2="359.947" gradientUnits="userSpaceOnUse">
            <stop stop-color="#0292FF"/>
            <stop offset="1" stop-color="#18F8C9"/>
        </linearGradient>
        <linearGradient id="paint33_linear" x1="219.998" y1="195.431" x2="236.289" y2="222.486" gradientUnits="userSpaceOnUse">
            <stop stop-color="#06A2F7"/>
            <stop offset="1" stop-color="#14E2D5"/>
        </linearGradient>
        <linearGradient id="paint34_linear" x1="20" y1="155" x2="47.5" y2="201" gradientUnits="userSpaceOnUse">
            <stop stop-color="#06A2F7"/>
            <stop offset="1" stop-color="#14E2D5"/>
        </linearGradient>
    </defs>
</svg>
