<svg viewBox="0 0 68 86" fill="none" xmlns="http://www.w3.org/2000/svg">
    <path opacity=".57" d="M64.89 30.063L6.626 1.046A4.489 4.489 0 00.138 5.063v46.94a5.611 5.611 0 003.146 5.041l58.26 28.499a4.482 4.482 0 006.455-4.03V35.087a5.615 5.615 0 00-3.11-5.023z" fill="#BF98FF"/>
    <path d="M46.101 57.38a1.105 1.105 0 01-.975-.58c-2.71-4.966-5.879-6.864-9.68-5.81-3.425.95-6.263.678-8.435-.81-2.458-1.678-3.933-4.852-4.389-9.412-.492-4.917-2.544-7.29-6.454-7.462a1.129 1.129 0 01.098-2.222c6.326.279 8.148 5.302 8.566 9.466.376 3.89 1.543 6.517 3.433 7.812 1.607 1.096 3.824 1.265 6.586.497 4.893-1.351 8.992.964 12.225 6.89a1.13 1.13 0 01-.444 1.507 1.08 1.08 0 01-.53.124z" fill="#fff"/>
    <path d="M23.725 41.758a1.13 1.13 0 01-1.102-1.002c-.494-4.917-2.545-7.29-6.455-7.462a1.129 1.129 0 01.098-2.222c6.327.279 8.148 5.302 8.566 9.466a1.108 1.108 0 01-.994 1.212l-.113.008z" fill="#05ACDF"/>
</svg>
