<svg viewBox="0 0 117 154" fill="none" xmlns="http://www.w3.org/2000/svg">
    <g clip-path="url(#clip0)">
        <path d="M113.8 54.802L4.571.17A3.04 3.04 0 00.167 2.892v91.169a6.094 6.094 0 003.388 5.467l109.214 53.657a3.039 3.039 0 002.95-.151 3.054 3.054 0 001.435-2.583v-90.2a6.097 6.097 0 00-3.354-5.45z" fill="url(#paint0_linear)"/>
        <path d="M102.983 134.656a.893.893 0 01-.406-.094l-67.26-33.464a.92.92 0 11.817-1.65l65.931 32.806V79.787a.922.922 0 011.84 0v53.951a.91.91 0 01-.569.851.927.927 0 01-.353.067z" fill="#fff"/>
        <path d="M89.832 115.748l-8.788-4.409a3.073 3.073 0 01-1.69-2.741V58.085a1.228 1.228 0 011.227-1.228c.214 0 .425.057.61.166l8.882 5.12a3.069 3.069 0 011.536 2.655v49.854a1.225 1.225 0 01-1.227 1.224c-.19.001-.38-.043-.55-.128z" fill="#FF9C49"/>
        <path d="M69.952 106.723l-7.904-3.965a3.066 3.066 0 01-1.69-2.741V68.951a1.842 1.842 0 012.756-1.592l7.964 4.593a3.064 3.064 0 011.535 2.636v30.471a1.849 1.849 0 01-.875 1.563 1.842 1.842 0 01-1.79.082l.004.019zM51.573 98.142l-7.904-3.965a3.06 3.06 0 01-1.69-2.741V78.755a1.843 1.843 0 011.837-1.836c.322 0 .64.083.919.243l7.964 4.594a3.06 3.06 0 011.532 2.654v12.086a1.837 1.837 0 01-2.661 1.646h.003z" fill="#F9F8FF"/>
        <path d="M35.56 37.418a.932.932 0 01-.399-.09L12.055 26.269a.919.919 0 11.795-1.656L35.955 35.67a.918.918 0 01-.395 1.747z" fill="#fff"/>
        <path d="M25.347 42.633a.89.89 0 01-.41-.098l-12.899-6.468a.918.918 0 11.825-1.642l12.898 6.469a.918.918 0 01-.414 1.74z" fill="#FF9C49"/>
    </g>
    <defs>
        <linearGradient id="paint0_linear" x1="0" y1="0" x2="112" y2="153" gradientUnits="userSpaceOnUse">
            <stop stop-color="#06A2F7"/>
            <stop offset="1" stop-color="#14E2D5"/>
        </linearGradient>
        <clipPath id="clip0">
            <path fill="#fff" d="M0 0h117v154H0z"/>
        </clipPath>
    </defs>
</svg>
