<svg viewBox="0 0 1670 1344" fill="none" xmlns="http://www.w3.org/2000/svg">
    <path opacity=".5" d="M1403.18 110.81c49.61-88.342 157-62.5 209.5-54.5 20.16 3.073 40.1 5.703 57 7.777V671.85c-149.88 117.266-130.22 194.153-5.51 309.586 1.86 1.492 3.69 2.979 5.51 4.461v311.663c-363.47 116.31-1347.468-9.68-1540.789-165.74-279.04-225.263-67.76-450.737 278.79-436.51 346.55 14.227 335.89-63.418 372.395-115.245 36.506-51.826 113.017-158.189 297.544-179.191 184.53-21.001 263.55-179.636 325.56-290.064z" fill="url(#paint0_linear)"/>
    <path opacity=".8" d="M1442.58 132.207C1492.19 43.865 1571.6 9.133 1605.1 2.81c33.51-6.323 64.58 0 64.58 0v608.224c-243.09 155.155-240.62 237.369-95.08 372.078 40.59 32.608 71.98 62.638 95.08 90.228v192.42c-248.81 169.3-1331.779 34.78-1540.789-133.94-279.039-225.263-25.503-404.793 321.046-390.566 346.55 14.227 385.555-95.862 422.06-147.689 36.506-51.826 113.016-158.189 297.543-179.191 184.53-21.001 211.03-171.739 273.04-282.167z" fill="url(#paint1_linear)"/>
    <defs>
        <linearGradient id="paint0_linear" x1="1663.11" y1="2.81" x2="1318.79" y2="1231.31" gradientUnits="userSpaceOnUse">
            <stop stop-color="#5855DB"/>
            <stop offset=".214" stop-color="#346AF0"/>
            <stop offset=".667" stop-color="#C5E9F2" stop-opacity=".51"/>
            <stop offset="1" stop-color="#F5F6FA"/>
        </linearGradient>
        <linearGradient id="paint1_linear" x1="1663.11" y1="2.81" x2="1318.79" y2="1231.31" gradientUnits="userSpaceOnUse">
            <stop stop-color="#5855DB"/>
            <stop offset=".214" stop-color="#346AF0"/>
            <stop offset=".667" stop-color="#C5E9F2" stop-opacity=".51"/>
            <stop offset="1" stop-color="#F5F6FA"/>
        </linearGradient>
    </defs>
</svg>
