<svg viewBox="0 0 295 180" fill="none" xmlns="http://www.w3.org/2000/svg">
    <path d="M54.029.03L16.549 32.74l56.967 65.276 37.48-32.709L54.029.03z" fill="#50C9F7"/>
    <path d="M104.468 67.241l-28.19 24.542c-1.575 1.326-3.896 1.16-5.223-.332L22.718 35.984c-1.327-1.576-1.16-3.897.331-5.224L51.156 6.218c1.576-1.326 3.897-1.16 5.224.332l48.337 55.468c1.409 1.575 1.244 3.897-.249 5.223z" fill="#0959CB"/>
    <path d="M29.185 31.34c1.078 1.244.995 3.151-.332 4.312-1.326 1.16-3.15.995-4.311-.332-1.078-1.243-.995-3.15.331-4.311 1.327-.995 3.234-.912 4.312.331zM55.716 8.208c1.078 1.244.995 3.15-.331 4.312-1.244 1.077-3.151.995-4.312-.332-1.078-1.244-.995-3.15.332-4.311 1.326-1.078 3.233-.995 4.311.331z" fill="#50C9F7"/>
    <path d="M76.278 85.73c1.078 1.244.995 3.15-.332 4.312-1.243 1.077-3.15.995-4.31-.332-1.079-1.244-.996-3.15.33-4.311 1.327-1.161 3.234-.912 4.312.331zM102.81 62.515c1.078 1.244.995 3.15-.332 4.311-1.243 1.078-3.15.995-4.311-.331-1.078-1.244-.995-3.15.332-4.312 1.326-.995 3.233-.912 4.311.332z" fill="#4CA2EE"/>
    <path d="M71.123 57.28c7.9-6.895 11.034-16.232 7-20.854-4.035-4.623-13.71-2.782-21.61 4.113-7.9 6.895-11.034 16.231-7 20.854 4.035 4.623 13.71 2.781 21.61-4.113z" fill="#50C9F7"/>
    <path d="M64.422 25.122l5.223 6.053c.166.248.166.497 0 .663-.165.166-.497.083-.663-.083l-5.223-6.052c-.166-.25-.166-.498 0-.664.166-.248.497-.166.663.083zM61.188 21.391l1.742 1.99c.166.249.166.497 0 .663-.166.166-.498.083-.664-.083l-1.74-1.99c-.167-.248-.167-.497 0-.663a.438.438 0 01.662.083zM67.739 26.366l-5.224-6.053a.438.438 0 00-.663-.083.504.504 0 000 .664l5.223 6.052a.438.438 0 00.664.083.504.504 0 000-.663zM72.216 28.936l-5.224-6.052a.438.438 0 00-.663-.083.504.504 0 000 .663l5.223 6.052a.438.438 0 00.664.083.504.504 0 000-.663zM70.972 30.014l-1.741-1.99a.438.438 0 00-.663-.083.504.504 0 000 .663l1.74 1.99a.438.438 0 00.664.083c.166-.083.166-.414 0-.663zM59.53 71.635l5.224 6.053c.166.249.166.497 0 .663-.166.166-.498.083-.664-.083l-5.223-6.052c-.166-.249-.166-.498 0-.664.083-.248.415-.165.663.083zM56.297 67.904l1.741 1.99c.166.249.166.497 0 .663-.166.166-.497.083-.663-.083l-1.824-1.99c-.166-.248-.166-.497 0-.663.248-.166.497-.166.746.083zM62.764 72.796l-5.223-6.053a.438.438 0 00-.664-.082.504.504 0 000 .663l5.224 6.052a.438.438 0 00.663.083c.249-.083.249-.414 0-.663zM65.998 76.527l-1.742-1.99a.438.438 0 00-.663-.083.504.504 0 000 .664l1.741 1.99a.438.438 0 00.663.082c.25-.082.25-.414 0-.663z" fill="#4CA2EE"/>
    <path d="M18.161 45.433L.635 91.99l81.089 30.524 17.525-46.558-81.088-30.524z" fill="#50C9F7"/>
    <path d="M94.436 80.755l-13.183 34.906c-.746 1.907-2.819 2.902-4.809 2.156L7.628 91.866c-1.907-.747-2.902-2.82-2.156-4.81l13.183-34.822c.746-1.907 2.82-2.902 4.809-2.156L92.28 76.03c1.907.663 2.82 2.819 2.156 4.725z" fill="#0959CB"/>
    <path d="M11.193 84.735c1.575.58 2.321 2.322 1.741 3.897-.58 1.575-2.321 2.322-3.897 1.741-1.575-.58-2.321-2.321-1.74-3.897.58-1.492 2.32-2.321 3.896-1.74zM23.547 51.737c1.575.58 2.321 2.321 1.741 3.896-.58 1.576-2.322 2.322-3.897 1.742-1.575-.58-2.321-2.322-1.74-3.897.58-1.493 2.32-2.322 3.896-1.741z" fill="#50C9F7"/>
    <path d="M78.351 110.355c1.575.58 2.322 2.321 1.741 3.897-.58 1.575-2.321 2.321-3.897 1.741-1.575-.581-2.321-2.322-1.74-3.897.58-1.493 2.404-2.322 3.896-1.741zM90.788 77.356c1.575.58 2.321 2.322 1.74 3.897-.58 1.575-2.32 2.322-3.896 1.741-1.575-.58-2.322-2.321-1.741-3.897.58-1.492 2.321-2.321 3.897-1.74z" fill="#4CA2EE"/>
    <path d="M60.369 87.737c3.694-9.814 2.033-19.522-3.71-21.683-5.742-2.162-13.392 4.041-17.086 13.855-3.694 9.814-2.034 19.522 3.709 21.684 5.742 2.161 13.392-4.042 17.087-13.856z" fill="#50C9F7"/>
    <path d="M39.217 62.515l7.462 2.82c.249.082.415.414.332.58-.083.248-.415.331-.664.248l-7.462-2.819c-.248-.083-.414-.414-.331-.58.083-.249.414-.332.663-.249zM34.657 60.857l2.487.912c.25.083.415.414.332.58-.083.249-.415.332-.663.249l-2.488-.912c-.248-.083-.414-.415-.331-.58.083-.25.331-.415.663-.25zM42.7 62.1l-7.462-2.818c-.25-.083-.58 0-.664.248-.083.249.083.498.332.58l7.462 2.82c.249.083.58 0 .663-.25.083-.248-.083-.496-.331-.58zM47.923 62.266l-7.462-2.819c-.249-.083-.58 0-.664.25-.082.248.083.497.332.58l7.462 2.818c.249.083.58 0 .663-.248.083-.249-.082-.498-.331-.58zM47.26 63.842l-2.488-.912c-.248-.083-.58 0-.663.248-.083.25.083.498.332.58l2.487.913c.249.083.58 0 .663-.249.166-.249 0-.497-.331-.58zM56.877 105.878l7.462 2.819c.249.082.415.414.332.58-.083.249-.415.332-.663.249l-7.462-2.819c-.25-.083-.415-.415-.332-.581.083-.248.415-.414.663-.248zM52.317 104.136l2.487.912c.25.083.415.415.332.581-.083.249-.414.331-.663.249l-2.487-.912c-.25-.083-.415-.415-.332-.581.083-.249.414-.331.663-.249zM60.36 105.38l-7.462-2.819c-.249-.083-.58 0-.664.249-.083.249.083.497.332.58l7.462 2.819c.249.083.58 0 .663-.249.166-.165 0-.497-.331-.58zM65.003 107.121l-2.488-.912c-.248-.083-.58 0-.663.249-.083.249.083.497.332.58l2.487.912c.249.083.58 0 .663-.248.083-.249-.083-.498-.331-.581z" fill="#4CA2EE"/>
    <path d="M92.904 89.31L7.059 101.024l6.725 49.289 85.845-11.714-6.725-49.289z" fill="#50C9F7"/>
    <path d="M90.954 95.845l5.057 36.979c.249 1.989-1.16 3.896-3.15 4.145l-72.88 9.949c-1.99.249-3.896-1.16-4.145-3.15l-5.058-36.979c-.248-1.989 1.161-3.896 3.151-4.145l72.879-9.95c1.99-.248 3.897 1.161 4.145 3.151z" fill="#0959CB"/>
    <path d="M19.65 138.959c1.658-.249 3.15.912 3.4 2.57.248 1.659-.913 3.151-2.57 3.4-1.659.248-3.151-.912-3.4-2.571-.249-1.575.912-3.15 2.57-3.399zM14.841 104.053c1.658-.248 3.15.912 3.4 2.571.248 1.658-.913 3.15-2.57 3.399-1.659.249-3.151-.912-3.4-2.57-.249-1.658.912-3.151 2.57-3.4z" fill="#50C9F7"/>
    <path d="M90.953 129.59c1.659-.249 3.151.912 3.4 2.57.249 1.659-.912 3.151-2.57 3.4-1.659.248-3.151-.912-3.4-2.571-.248-1.658.912-3.15 2.57-3.399zM86.145 94.685c1.658-.25 3.15.912 3.4 2.57.248 1.658-.913 3.15-2.571 3.399-1.658.249-3.15-.912-3.4-2.57-.248-1.658.913-3.234 2.57-3.4z" fill="#4CA2EE"/>
    <path d="M55.955 138.533c6.08-.83 9.858-9.925 8.44-20.314-1.417-10.39-7.495-18.14-13.574-17.31-6.08.83-9.859 9.924-8.441 20.314 1.418 10.39 7.495 18.139 13.575 17.31z" fill="#50C9F7"/>
    <path d="M33.745 106.126l7.96-1.078c.331 0 .58.166.58.415 0 .249-.166.497-.498.497l-7.96 1.078c-.33 0-.58-.165-.58-.414 0-.249.25-.415.498-.498zM28.936 106.79l2.653-.332c.332 0 .58.166.58.414 0 .249-.165.498-.497.498l-2.653.332c-.332 0-.58-.166-.58-.415 0-.249.165-.415.497-.497zM36.647 104.053l-7.96 1.078c-.331 0-.497.249-.497.498s.332.414.58.414l7.96-1.078c.331 0 .497-.248.497-.497a.624.624 0 00-.58-.415zM41.29 101.732l-7.96 1.078c-.331 0-.497.249-.497.497 0 .249.332.415.58.415l7.96-1.078c.332 0 .497-.249.497-.497-.083-.332-.331-.498-.58-.415zM41.456 103.39l-2.653.332c-.332 0-.498.249-.498.497 0 .249.332.415.58.415l2.654-.332c.331 0 .497-.249.497-.497 0-.249-.249-.415-.58-.415zM69.894 135.808l7.96-1.077c.331 0 .58.165.58.414 0 .249-.166.498-.498.498l-7.96 1.077c-.33 0-.58-.165-.58-.414 0-.249.25-.498.498-.498zM77.605 133.072l-2.653.332c-.332 0-.498.249-.498.497 0 .249.332.415.58.415l2.654-.332c.331 0 .497-.248.497-.497s-.249-.415-.58-.415z" fill="#4CA2EE"/>
    <path d="M226.43 136.057H67.324c-6.965 0-12.603-5.638-12.603-12.602V31.258c0-6.965 5.638-12.603 12.603-12.603h159.023c6.965 0 12.603 5.638 12.603 12.602v92.198c.083 6.964-5.555 12.602-12.52 12.602z" fill="#BBCFF2"/>
    <path d="M228.337 131.414H65.5a6.865 6.865 0 01-6.882-6.881V30.097a6.865 6.865 0 016.882-6.882h162.837a6.865 6.865 0 016.882 6.882v94.436a6.865 6.865 0 01-6.882 6.881z" fill="url(#paint0_linear)"/>
    <path d="M0 173.782l53.395-36.15c1.658-1.16 3.73-1.741 5.72-1.741h175.026c2.57 0 5.058.746 7.213 2.239l52.732 35.652H0z" fill="#EEF"/>
    <path d="M72.879 146.587h6.798c1.078 0 2.653-.581 3.4-1.327l4.892-4.477c.829-.746.663-1.327-.25-1.327h-5.886c-.995 0-2.487.581-3.4 1.327l-5.803 4.477c-.995.746-.83 1.327.249 1.327zM101.152 139.539h-6.053c-.912 0-2.239.581-2.985 1.244l-4.643 4.56c-.746.664-.414 1.244.664 1.244h6.881c1.078 0 2.405-.58 2.985-1.244l3.731-4.56c.58-.663.332-1.244-.58-1.244zM114.583 139.539h-6.135c-.912 0-1.99.581-2.488 1.244l-3.399 4.643c-.498.663-.083 1.244.912 1.244h7.047c.995 0 2.156-.581 2.488-1.244l2.57-4.643c.332-.746-.166-1.244-.995-1.244zM118.729 146.587h7.213c.995 0 1.907-.498 2.073-1.161l1.243-4.726c.166-.663-.414-1.161-1.243-1.161h-6.219c-.829 0-1.824.498-2.072 1.161l-2.156 4.726c-.415.663.166 1.161 1.161 1.161zM133.984 146.587h7.296c.912 0 1.741-.498 1.659-1.161v-4.809c0-.663-.664-1.161-1.493-1.161h-6.384c-.829 0-1.575.498-1.658 1.161l-.912 4.809c-.166.663.497 1.161 1.492 1.161zM149.24 146.587h7.462c.912 0 1.492-.498 1.326-1.078l-1.409-4.892c-.166-.58-.912-1.078-1.741-1.078h-6.467c-.829 0-1.41.498-1.327 1.078l.415 4.892c.083.663.829 1.078 1.741 1.078zM164.496 146.587h7.628c.829 0 1.326-.498.994-.995l-2.819-5.058c-.331-.58-1.16-.995-1.989-.995h-6.633c-.746 0-1.161.498-.995.995l1.824 5.058c.249.58 1.161.995 1.99.995zM181.741 139.539h-6.716c-.746 0-.995.415-.663.995l3.316 5.141c.332.58 1.327.995 2.156.995h7.711c.829 0 1.161-.415.663-.995l-4.311-5.141c-.498-.58-1.41-.995-2.156-.995zM195.007 146.587h7.876c.829 0 .995-.415.415-.912l-5.804-5.224c-.58-.497-1.575-.912-2.321-.912h-6.882c-.663 0-.829.415-.415.912l4.809 5.224c.498.497 1.576.912 2.322.912zM208.604 139.539h-6.964c-.664 0-.664.415-.083.912l6.384 5.307c.58.497 1.658.912 2.404.912h8.043c.746 0 .829-.415.083-.912l-7.379-5.307c-.747-.497-1.824-.912-2.488-.912zM59.53 157.282h8.043c1.326 0 2.985-.58 3.814-1.326l4.891-4.477c.83-.747.498-1.327-.663-1.327h-7.213c-1.16 0-2.902.58-3.814 1.327l-5.804 4.477c-.912.746-.58 1.326.746 1.326zM92.031 150.152h-7.379c-1.16 0-2.57.58-3.316 1.244l-4.643 4.56c-.746.663-.249 1.243.995 1.243h8.208c1.244 0 2.736-.58 3.317-1.243l3.73-4.56c.664-.664.166-1.244-.912-1.244zM108.365 150.152h-7.462c-1.078 0-2.405.58-2.902 1.244l-3.4 4.643c-.497.663.083 1.243 1.327 1.243h8.374c1.244 0 2.487-.58 2.902-1.243l2.57-4.643c.332-.664-.248-1.244-1.409-1.244zM114.086 157.282h8.54c1.16 0 2.238-.497 2.404-1.16l1.244-4.726c.166-.664-.498-1.161-1.576-1.161h-7.627c-1.078 0-2.156.497-2.405 1.161l-2.156 4.726c-.248.58.415 1.16 1.576 1.16zM132.326 157.282h8.706c1.161 0 1.99-.497 1.99-1.16v-4.809c0-.664-.829-1.161-1.824-1.161h-7.794c-.995 0-1.907.497-1.99 1.161l-.912 4.809c-.166.663.663 1.16 1.824 1.16zM150.484 157.282h8.871c1.078 0 1.824-.497 1.659-1.078l-1.41-4.891c-.166-.581-1.078-1.078-2.073-1.078h-7.959c-.995 0-1.658.497-1.658 1.078l.414 4.891c.166.581 1.078 1.078 2.156 1.078zM168.724 157.282h9.037c.995 0 1.576-.497 1.327-.995l-2.819-5.057c-.332-.581-1.326-.995-2.239-.995h-8.042c-.912 0-1.492.497-1.326.995l1.824 5.057c.165.498 1.16.995 2.238.995zM190.364 150.152h-8.208c-.912 0-1.327.415-.995.995l3.316 5.14c.332.581 1.41.995 2.405.995h9.203c.995 0 1.409-.414.995-.995l-4.312-5.14c-.414-.498-1.492-.995-2.404-.995zM205.122 157.282h9.369c.912 0 1.244-.414.663-.912l-5.803-5.223c-.581-.498-1.742-.912-2.571-.912h-8.374c-.829 0-1.16.414-.663.912l4.809 5.223c.497.498 1.658.912 2.57.912zM223.197 150.152h-8.54c-.829 0-.995.415-.332.912l6.384 5.306c.581.498 1.824.912 2.737.912h9.534c.912 0 1.078-.414.332-.912l-7.379-5.306c-.746-.497-1.99-.912-2.736-.912zM102.478 160.35H93.69c-1.244 0-2.737.58-3.234 1.244l-3.4 4.643c-.497.663.25 1.243 1.659 1.243h9.7c1.41 0 2.819-.58 3.234-1.243l2.57-4.643c.249-.664-.497-1.244-1.741-1.244zM198.655 160.35H112.759c-1.244 0-2.487.497-2.736 1.161l-2.156 4.726c-.331.663.581 1.16 1.907 1.16H204.459c1.16 0 1.658-.414 1.243-.995l-4.311-5.14c-.497-.415-1.658-.912-2.736-.912zM237.126 160.35h-29.019c-.995 0-1.41.415-.912.912l4.809 5.223c.497.498 1.741.912 2.819.912h32.003c.995 0 1.327-.414.581-.912l-7.38-5.306c-.663-.414-1.906-.829-2.901-.829zM83.077 160.35H55.633c-1.326 0-3.233.58-4.145 1.327l-5.804 4.477c-.912.746-.497 1.326.995 1.326H77.107c1.493 0 3.234-.58 3.814-1.326l3.648-4.477c.498-.747-.083-1.327-1.492-1.327z" fill="#BABAE5"/>
    <path d="M0 173.699v.248C0 177.264 2.736 180 6.053 180h281.98c3.317 0 6.053-2.736 6.053-6.053v-.248H0z" fill="#92AACC"/>
    <path d="M194.344 23.215h-92.612v112.179h80.009c.083.58.166 1.244.249 1.907.249 7.047 5.555 7.379 6.384 7.379h.083s5.887-.415 5.887-7.877V23.215z" fill="#fff"/>
    <path d="M164.412 144.597l.166-14.592H90.622c.497 1.243.829 2.902.912 4.974.248 9.203 6.052 9.618 6.964 9.618h65.914z" fill="#92AACC"/>
    <path d="M188.291 144.68c-.912 0-6.135-.498-6.384-9.618-.249-9.203-5.804-9.617-6.716-9.617h-.083s-4.643.165-6.881 4.643h-8.623v14.592h7.462v.083h21.225v-.083z" fill="#92AACC"/>
    <path d="M100.986 125.362v8.291h66.329c.912-8.043 7.876-8.291 7.876-8.291h-74.205z" fill="#EEF"/>
    <path d="M104.551 125.362H87.305s-6.964.248-7.876 8.291h25.122v-8.291z" fill="#EEF"/>
    <path d="M187.711 133.072c-.581 0-.995-.414-.995-.994v-94.85c0-.581.414-.996.995-.996.58 0 .995.415.995.995v94.851c.083.497-.415.994-.995.994z" fill="#DFDFF4"/>
    <path d="M187.711 54.473a1.097 1.097 0 01-1.078-1.078v-1.907c0-.58.497-1.078 1.078-1.078.58 0 1.077.498 1.077 1.078v1.907c-.082.58-.497 1.078-1.077 1.078z" fill="#B5B5E2"/>
    <path d="M105.961 61.63h13.265c.415 0 .747-.414.747-.912 0-.497-.332-.912-.747-.912h-13.265c-.415 0-.747.415-.747.912 0 .498.332.912.747.912zM122.543 61.63H173.284c.415 0 .746-.414.746-.912 0-.497-.331-.912-.746-.912h-50.741c-.415 0-.747.415-.747.912.083.498.415.912.747.912zM105.961 65.113h4.56c.414 0 .746-.415.746-.912 0-.498-.332-.912-.746-.912h-4.56c-.415 0-.747.414-.747.912 0 .497.332.912.747.912zM105.795 82.275h13.265c.415 0 .747-.415.747-.912 0-.498-.332-.912-.747-.912h-13.265c-.415 0-.747.415-.747.912 0 .497.332.912.747.912zM105.795 115.27h13.265c.415 0 .747-.414.747-.912 0-.497-.332-.912-.747-.912h-13.265c-.415 0-.747.415-.747.912 0 .498.332.912.747.912zM105.795 85.758h4.56c.414 0 .746-.415.746-.912 0-.498-.332-.912-.746-.912h-4.56c-.415 0-.747.414-.747.912 0 .497.332.912.747.912zM105.96 71.912h13.266c.414 0 .746-.415.746-.912 0-.498-.332-.912-.746-.912H105.96c-.414 0-.746.414-.746.912 0 .497.332.912.746.912zM105.96 104.907h13.266c.414 0 .746-.415.746-.912 0-.498-.332-.912-.746-.912H105.96c-.414 0-.746.414-.746.912 0 .497.332.912.746.912zM105.96 78.876h13.266c.414 0 .746-.415.746-.913 0-.497-.332-.911-.746-.911H105.96c-.414 0-.746.414-.746.911 0 .498.332.913.746.913zM105.96 111.871h13.266c.414 0 .746-.415.746-.912 0-.498-.332-.912-.746-.912H105.96c-.414 0-.746.414-.746.912 0 .497.332.912.746.912zM105.96 75.311h4.56c.415 0 .746-.415.746-.912 0-.497-.331-.912-.746-.912h-4.56c-.414 0-.746.415-.746.912 0 .498.332.912.746.912zM105.96 108.306h4.56c.415 0 .746-.414.746-.912 0-.497-.331-.912-.746-.912h-4.56c-.414 0-.746.415-.746.912 0 .498.332.912.746.912zM127.434 63.206H113.837c-.415 0-.746.414-.746.912 0 .497.331.912.746.912H127.434c.415 0 .747-.415.747-.912 0-.498-.332-.912-.747-.912zM127.02 83.85H113.754c-.415 0-.746.415-.746.913 0 .497.331.912.746.912H127.351c.415 0 .747-.415.747-.912 0-.498-.332-.912-.747-.912h-.331zM127.434 73.487H113.837c-.415 0-.746.415-.746.912 0 .498.331.912.746.912H127.434c.415 0 .747-.415.747-.912 0-.497-.332-.912-.747-.912zM127.434 106.482H113.837c-.415 0-.746.415-.746.912 0 .498.331.912.746.912H127.434c.415 0 .747-.414.747-.912 0-.497-.332-.912-.747-.912zM136.057 82.275H173.201c.415 0 .746-.415.746-.912 0-.498-.331-.912-.746-.912H122.46c-.415 0-.747.415-.747.912 0 .497.332.912.747.912h13.597zM136.057 115.27H173.201c.415 0 .746-.414.746-.912 0-.497-.331-.912-.746-.912H122.46c-.415 0-.747.415-.747.912 0 .498.332.912.747.912h13.597zM136.14 71.912H173.284c.415 0 .746-.415.746-.912 0-.498-.331-.912-.746-.912h-50.741c-.415 0-.747.414-.747.912 0 .497.332.912.747.912h13.597zM136.14 104.907H173.284c.415 0 .746-.415.746-.912 0-.498-.331-.912-.746-.912h-50.741c-.415 0-.747.414-.747.912 0 .497.332.912.747.912h13.597zM176.766 61.63h4.56c.415 0 .747-.414.747-.912 0-.497-.332-.912-.747-.912h-4.56c-.414 0-.746.415-.746.912.083.498.332.912.746.912zM181.327 63.206h-50.41c-.415 0-.747.414-.747.912 0 .497.332.912.747.912H181.327c.414 0 .746-.415.746-.912 0-.498-.332-.912-.746-.912zM181.824 67.683c0-.498-.497-.912-1.078-.912h-74.537c-.58 0-1.078.414-1.078.912 0 .497.498.912 1.078.912h74.454c.664 0 1.161-.415 1.161-.912zM181.244 80.368h-4.56c-.415 0-.746.415-.746.912 0 .497.331.912.746.912h4.56c.414 0 .746-.415.746-.912 0-.415-.332-.912-.746-.912zM181.244 113.363h-4.56c-.415 0-.746.415-.746.912 0 .498.331.912.746.912h4.56c.414 0 .746-.414.746-.912 0-.414-.332-.912-.746-.912zM181.243 83.85H130.751c-.415 0-.747.415-.747.913 0 .497.332.912.747.912H181.161c.414 0 .746-.415.746-.912.083-.498-.249-.912-.664-.912zM180.58 87.333h-74.454c-.58 0-1.078.414-1.078.912 0 .497.498.912 1.078.912h74.454c.581 0 1.078-.415 1.078-.912 0-.415-.497-.912-1.078-.912zM181.327 70.005h-4.56c-.415 0-.746.414-.746.912 0 .497.331.912.746.912h4.56c.414 0 .746-.415.746-.912 0-.498-.332-.912-.746-.912zM181.327 103h-4.56c-.415 0-.746.414-.746.912 0 .497.331.912.746.912h4.56c.414 0 .746-.415.746-.912 0-.498-.332-.912-.746-.912zM181.327 73.487h-50.41c-.415 0-.747.415-.747.912 0 .498.332.912.747.912H181.327c.414 0 .746-.415.746-.912 0-.497-.332-.912-.746-.912zM181.327 106.482h-50.41c-.415 0-.747.415-.747.912 0 .498.332.912.747.912H181.327c.414 0 .746-.414.746-.912 0-.497-.332-.912-.746-.912zM173.367 76.97H122.957c-.414 0-.746.414-.746.912 0 .497.332.911.746.911h50.41c.415 0 .746-.414.746-.912 0-.497-.331-.912-.746-.912zM173.367 109.965H122.957c-.414 0-.746.414-.746.912 0 .497.332.912.746.912h50.41c.415 0 .746-.415.746-.912 0-.498-.331-.912-.746-.912z" fill="#DFDFF4"/>
    <path d="M247.241 143.934H188.54a2.796 2.796 0 01-2.819-2.819v-30.594a2.795 2.795 0 012.819-2.819h58.701a2.796 2.796 0 012.819 2.819v30.594c.083 1.575-1.244 2.819-2.819 2.819z" fill="#50C9F7"/>
    <path d="M215.818 139.954h-5.307c-.497 0-.829-.332-.829-.829 0-.497.415-.829.829-.829h5.307c.497 0 .829.332.829.829a.831.831 0 01-.829.829z" fill="#29226D"/>
    <path d="M204.458 134.233v-1.243c0-.664.498-1.161 1.161-1.161.664 0 1.161.497 1.161 1.161v1.243c0 .664-.497 1.161-1.161 1.161-.663.083-1.161-.497-1.161-1.161zM207.526 134.233v-1.243c0-.664.498-1.161 1.161-1.161s1.161.497 1.161 1.161v1.243c0 .664-.498 1.161-1.161 1.161-.663.083-1.161-.497-1.161-1.161z" fill="#362982"/>
    <path d="M210.594 134.233v-1.243c0-.664.497-1.161 1.161-1.161.663 0 1.16.497 1.16 1.161v1.243c0 .664-.497 1.161-1.16 1.161a1.133 1.133 0 01-1.161-1.161zM213.745 134.233v-1.243c0-.664.497-1.161 1.16-1.161.664 0 1.161.497 1.161 1.161v1.243c0 .664-.497 1.161-1.161 1.161-.58.083-1.16-.497-1.16-1.161zM218.885 134.233v-1.243c0-.664.498-1.161 1.161-1.161s1.161.497 1.161 1.161v1.243c0 .664-.498 1.161-1.161 1.161-.663.083-1.161-.497-1.161-1.161zM221.953 134.233v-1.243c0-.664.498-1.161 1.161-1.161s1.161.497 1.161 1.161v1.243c0 .664-.498 1.161-1.161 1.161-.581.083-1.161-.497-1.161-1.161z" fill="#29226D"/>
    <path d="M225.021 134.233v-1.243c0-.664.497-1.161 1.16-1.161.664 0 1.161.497 1.161 1.161v1.243c0 .664-.497 1.161-1.161 1.161-.58.083-1.16-.497-1.16-1.161z" fill="#362982"/>
    <path d="M228.171 134.233v-1.243c0-.664.498-1.161 1.161-1.161s1.161.497 1.161 1.161v1.243c0 .664-.498 1.161-1.161 1.161-.58.083-1.161-.497-1.161-1.161zM233.478 134.233v-1.243c0-.664.497-1.161 1.16-1.161.664 0 1.161.497 1.161 1.161v1.243c0 .664-.497 1.161-1.161 1.161-.663.083-1.16-.497-1.16-1.161zM236.545 134.233v-1.243c0-.664.498-1.161 1.161-1.161s1.161.497 1.161 1.161v1.243c0 .664-.498 1.161-1.161 1.161-.663.083-1.161-.497-1.161-1.161zM239.613 134.233v-1.243c0-.664.497-1.161 1.161-1.161.663 0 1.16.497 1.16 1.161v1.243c0 .664-.497 1.161-1.16 1.161-.664.083-1.161-.497-1.161-1.161zM242.764 134.233v-1.243c0-.664.497-1.161 1.16-1.161.664 0 1.161.497 1.161 1.161v1.243c0 .664-.497 1.161-1.161 1.161-.663.083-1.16-.497-1.16-1.161z" fill="#29226D"/>
    <path d="M239.281 114.086a2.972 2.972 0 01-2.985 2.985 2.972 2.972 0 01-2.984-2.985 2.972 2.972 0 012.984-2.985 2.972 2.972 0 012.985 2.985z" fill="#fff"/>
    <path d="M243.51 114.003a2.973 2.973 0 01-2.985 2.985 2.973 2.973 0 01-2.985-2.985 2.973 2.973 0 012.985-2.985 2.973 2.973 0 012.985 2.985z" fill="#1946A9"/>
    <path d="M233.312 114.086a2.972 2.972 0 002.984 2.985 2.972 2.972 0 002.985-2.985h-5.969z" fill="#fff"/>
    <path d="M186.716 153.717v-1.492c.083 1.492 6.467 2.653 14.426 2.653 6.053 0 11.276-.746 13.349-1.741.663-.332 1.078-.663 1.078-.995v3.648c-.166 1.492-6.55 2.653-14.427 2.653-7.876 0-14.26-1.161-14.426-2.653v-1.575-.498z" fill="#FF9F5C"/>
    <path d="M215.486 152.142c0-1.492-6.467-2.736-14.427-2.736-7.959 0-14.426 1.244-14.426 2.736.083 1.492 6.467 2.653 14.426 2.653 6.053 0 11.276-.746 13.349-1.741.746-.249 1.078-.58 1.078-.912zm-2.239 0c0 1.161-5.472 2.073-12.188 2.073-6.715 0-12.188-.912-12.188-2.073s5.473-2.073 12.188-2.073c6.799 0 12.188.912 12.188 2.073z" fill="#FFCD5A"/>
    <path d="M201.142 154.215c6.731 0 12.188-.928 12.188-2.073s-5.457-2.073-12.188-2.073c-6.731 0-12.188.928-12.188 2.073s5.457 2.073 12.188 2.073z" fill="#FF9F5C"/>
    <path d="M186.716 149.406v-1.493c.083 1.493 6.467 2.654 14.426 2.654 6.053 0 11.276-.747 13.349-1.742.663-.331 1.078-.663 1.078-.994V151.479c-.166 1.492-6.55 2.653-14.427 2.653-7.876 0-14.26-1.161-14.426-2.653v-1.576-.497z" fill="#FF9F5C"/>
    <path d="M215.486 147.831c0-1.493-6.467-2.737-14.427-2.737-7.959 0-14.426 1.244-14.426 2.737.083 1.492 6.467 2.653 14.426 2.653 6.053 0 11.276-.747 13.349-1.741.746-.249 1.078-.581 1.078-.912zm-2.239 0c0 1.16-5.472 2.072-12.188 2.072-6.715 0-12.188-.912-12.188-2.072 0-1.161 5.473-2.073 12.188-2.073 6.799 0 12.188.912 12.188 2.073z" fill="#FFCD5A"/>
    <path d="M201.142 149.903c-6.716 0-12.188-.912-12.188-2.072 0-1.161 5.472-2.073 12.188-2.073s12.188.912 12.188 2.073c-.083 1.16-5.472 2.072-12.188 2.072z" fill="#FF9F5C"/>
    <path d="M184.146 144.763v-1.492c.082 1.492 6.467 2.653 14.426 2.653 6.053 0 11.276-.747 13.349-1.741.663-.332 1.078-.664 1.078-.995V146.836c-.166 1.492-6.55 2.653-14.427 2.653s-14.261-1.161-14.426-2.653v-1.576-.497z" fill="#FF9F5C"/>
    <path d="M212.999 143.188c0-1.493-6.467-2.736-14.427-2.736-7.959 0-14.426 1.243-14.426 2.736.082 1.492 6.467 2.653 14.426 2.653 6.053 0 11.276-.746 13.349-1.741.663-.166 1.078-.498 1.078-.912zm-2.239 0c0 1.16-5.472 2.072-12.188 2.072s-12.188-.912-12.188-2.072c0-1.161 5.472-2.073 12.188-2.073s12.188.912 12.188 2.073z" fill="#FFCD5A"/>
    <path d="M198.572 145.26c6.731 0 12.188-.928 12.188-2.072 0-1.145-5.457-2.073-12.188-2.073-6.731 0-12.188.928-12.188 2.073 0 1.144 5.457 2.072 12.188 2.072z" fill="#FF9F5C"/>
    <path d="M186.716 140.452v-1.493c.083 1.493 6.467 2.653 14.426 2.653 6.053 0 11.276-.746 13.349-1.741.663-.331 1.078-.663 1.078-.995v3.648c-.166 1.493-6.55 2.653-14.427 2.653-7.876 0-14.26-1.16-14.426-2.653v-1.575-.497z" fill="#FF9F5C"/>
    <path d="M215.486 138.876c0-1.492-6.467-2.736-14.427-2.736-7.959 0-14.426 1.244-14.426 2.736.083 1.493 6.467 2.653 14.426 2.653 6.053 0 11.276-.746 13.349-1.741.746-.166 1.078-.497 1.078-.912zm-2.239 0c0 1.161-5.472 2.073-12.188 2.073-6.715 0-12.188-.912-12.188-2.073s5.473-2.073 12.188-2.073c6.799 0 12.188.912 12.188 2.073z" fill="#FFCD5A"/>
    <path d="M201.142 141.032c-6.716 0-12.188-.912-12.188-2.073s5.472-2.073 12.188-2.073 12.188.912 12.188 2.073c-.083 1.078-5.472 2.073-12.188 2.073z" fill="#FF9F5C"/>
    <path d="M188.54 135.891v-1.492c.083 1.492 6.467 2.653 14.427 2.653 6.052 0 11.275-.746 13.348-1.741.664-.332 1.078-.663 1.078-.995v3.648c-.166 1.493-6.55 2.653-14.426 2.653-7.877 0-14.261-1.16-14.427-2.653v-1.575-.498z" fill="#FF9F5C"/>
    <path d="M217.31 134.399c0-1.492-6.467-2.736-14.426-2.736-7.96 0-14.427 1.244-14.427 2.736.083 1.492 6.467 2.653 14.427 2.653 6.052 0 11.275-.746 13.348-1.741.746-.249 1.078-.58 1.078-.912zm-2.239 0c0 1.161-5.472 2.073-12.187 2.073-6.716 0-12.188-.912-12.188-2.073s5.472-2.073 12.188-2.073c6.798-.083 12.187.912 12.187 2.073z" fill="#FFCD5A"/>
    <path d="M202.966 136.472c-6.716 0-12.188-.912-12.188-2.073s5.472-2.073 12.188-2.073 12.188.912 12.188 2.073c-.083 1.161-5.472 2.073-12.188 2.073z" fill="#FF9F5C"/>
    <path d="M186.716 131.58v-1.492c.083 1.492 6.467 2.653 14.426 2.653 6.053 0 11.276-.746 13.349-1.741.663-.332 1.078-.664 1.078-.995V133.653c-.166 1.492-6.55 2.653-14.427 2.653-7.876 0-14.26-1.161-14.426-2.653v-1.576-.497z" fill="#FF9F5C"/>
    <path d="M215.486 130.088c0-1.493-6.467-2.736-14.427-2.736-7.959 0-14.426 1.243-14.426 2.736.083 1.492 6.467 2.653 14.426 2.653 6.053 0 11.276-.746 13.349-1.741.746-.249 1.078-.581 1.078-.912zm-2.239 0c0 1.16-5.472 2.072-12.188 2.072-6.715 0-12.188-.912-12.188-2.072 0-1.161 5.473-2.073 12.188-2.073 6.799-.083 12.188.912 12.188 2.073z" fill="#FFCD5A"/>
    <path d="M201.142 132.16c-6.716 0-12.188-.912-12.188-2.072 0-1.161 5.472-2.073 12.188-2.073s12.188.912 12.188 2.073c-.083 1.16-5.472 2.072-12.188 2.072z" fill="#FFE65C"/>
    <path d="M152.888 151.064v-1.824c.083 1.824 7.794 3.234 17.329 3.234 7.296 0 13.514-.83 16.084-2.073.829-.415 1.244-.746 1.244-1.244v4.394c-.166 1.742-7.877 3.234-17.328 3.234-9.452 0-17.163-1.41-17.329-3.234v-1.989-.498z" fill="#FFB65A"/>
    <path d="M187.628 149.157c0-1.824-7.794-3.233-17.328-3.233-9.618 0-17.329 1.492-17.329 3.316.083 1.824 7.794 3.234 17.329 3.234 7.296 0 13.514-.83 16.084-2.073.747-.415 1.244-.829 1.244-1.244zm-2.736 0c0 1.41-6.55 2.57-14.675 2.57-8.126 0-14.676-1.16-14.676-2.57 0-1.409 6.55-2.57 14.676-2.57 8.125 0 14.675 1.161 14.675 2.57z" fill="#FFDA58"/>
    <path d="M170.299 151.727c-8.125 0-14.675-1.16-14.675-2.57 0-1.409 6.55-2.57 14.675-2.57 8.126 0 14.676 1.161 14.676 2.57-.083 1.41-6.633 2.57-14.676 2.57z" fill="#FFB65A"/>
    <path d="M152.888 145.841v-1.824c.083 1.824 7.794 3.233 17.329 3.233 7.296 0 13.514-.829 16.084-2.072.829-.415 1.244-.747 1.244-1.244v4.394c-.166 1.741-7.877 3.234-17.328 3.234-9.452 0-17.163-1.41-17.329-3.234v-1.99-.497z" fill="#FF9F5C"/>
    <path d="M187.628 144.017c0-1.824-7.794-3.234-17.328-3.234-9.618 0-17.329 1.493-17.329 3.317.083 1.824 7.794 3.233 17.329 3.233 7.296 0 13.514-.829 16.084-2.073.747-.414 1.244-.829 1.244-1.243zm-2.736 0c0 1.409-6.55 2.57-14.675 2.57-8.126 0-14.676-1.161-14.676-2.57 0-1.41 6.55-2.571 14.676-2.571 8.125 0 14.675 1.161 14.675 2.571z" fill="#FFCD5A"/>
    <path d="M170.299 146.587c8.105 0 14.676-1.151 14.676-2.57 0-1.42-6.571-2.571-14.676-2.571s-14.675 1.151-14.675 2.571c0 1.419 6.57 2.57 14.675 2.57z" fill="#FFE65C"/>
    <path d="M22.635 162.754v-1.824c.083 1.824 7.793 3.234 17.328 3.234 7.296 0 13.515-.829 16.085-2.073.83-.414 1.244-.746 1.244-1.243v4.394c-.166 1.741-7.877 3.233-17.329 3.233-9.452 0-17.162-1.409-17.328-3.233v-1.907-.581z" fill="#FFB65A"/>
    <path d="M57.375 160.93c0-1.824-7.794-3.233-17.329-3.233-9.617 0-17.328 1.492-17.328 3.316.083 1.824 7.793 3.234 17.328 3.234 7.296 0 13.515-.829 16.085-2.073.746-.414 1.244-.829 1.244-1.244zm-2.736 0c0 1.41-6.55 2.571-14.676 2.571-8.125 0-14.675-1.161-14.675-2.571 0-1.409 6.55-2.57 14.675-2.57 8.126 0 14.675 1.161 14.675 2.57z" fill="#FFDA58"/>
    <path d="M39.963 163.418c-8.125 0-14.675-1.161-14.675-2.57 0-1.41 6.55-2.571 14.675-2.571 8.126 0 14.676 1.161 14.676 2.571 0 1.409-6.55 2.57-14.676 2.57z" fill="#FFB65A"/>
    <path d="M22.635 157.531v-1.824c.083 1.824 7.793 3.234 17.328 3.234 7.296 0 13.515-.829 16.085-2.073.83-.415 1.244-.746 1.244-1.244V160.019c-.166 1.741-7.877 3.233-17.329 3.233-9.452 0-17.162-1.409-17.328-3.233v-1.99-.498z" fill="#FF9F5C"/>
    <path d="M57.375 155.707c0-1.824-7.794-3.233-17.329-3.233-9.617 0-17.328 1.492-17.328 3.316.083 1.824 7.793 3.234 17.328 3.234 7.296 0 13.515-.83 16.085-2.073.746-.415 1.244-.829 1.244-1.244zm-2.736 0c0 1.41-6.55 2.57-14.676 2.57-8.125 0-14.675-1.16-14.675-2.57 0-1.409 6.55-2.57 14.675-2.57 8.126 0 14.675 1.161 14.675 2.57z" fill="#FFCD5A"/>
    <path d="M39.963 158.277c-8.125 0-14.675-1.16-14.675-2.57 0-1.409 6.55-2.57 14.675-2.57 8.126 0 14.676 1.161 14.676 2.57 0 1.41-6.55 2.57-14.676 2.57z" fill="#FFE65C"/>
    <path d="M174.528 158.858v-1.824c.083 1.824 7.793 3.233 17.328 3.233 7.296 0 13.515-.829 16.085-2.073.829-.414 1.244-.746 1.244-1.243v4.394c-.166 1.741-7.877 3.234-17.329 3.234-9.452 0-17.162-1.41-17.328-3.234v-2.487z" fill="#FF9F5C"/>
    <path d="M209.268 156.951c0-1.824-7.794-3.234-17.329-3.234-9.617 0-17.328 1.493-17.328 3.317.083 1.824 7.793 3.233 17.328 3.233 7.296 0 13.515-.829 16.085-2.073.829-.414 1.244-.829 1.244-1.243zm-2.736 0c0 1.409-6.55 2.57-14.676 2.57-8.125 0-14.675-1.161-14.675-2.57 0-1.41 6.55-2.57 14.675-2.57 8.126 0 14.676 1.16 14.676 2.57z" fill="#FFCD5A"/>
    <path d="M191.939 159.521c-8.125 0-14.675-1.161-14.675-2.57 0-1.41 6.55-2.57 14.675-2.57s14.675 1.16 14.675 2.57c-.083 1.409-6.633 2.57-14.675 2.57z" fill="#FFE65C"/>
    <path d="M180.166 153.551v-1.824c.083 1.824 7.794 3.234 17.328 3.234 7.297 0 13.515-.829 16.085-2.073.829-.414 1.244-.746 1.244-1.244V156.039c-.166 1.741-7.877 3.233-17.329 3.233-9.451 0-17.162-1.409-17.328-3.233v-2.488z" fill="#FFB65A"/>
    <path d="M214.906 151.644c0-1.824-7.794-3.233-17.329-3.233-9.617 0-17.328 1.492-17.328 3.316.083 1.824 7.794 3.234 17.328 3.234 7.297 0 13.515-.829 16.085-2.073.746-.414 1.244-.829 1.244-1.244zm-2.736 0c0 1.41-6.55 2.571-14.675 2.571-8.126 0-14.676-1.161-14.676-2.571 0-1.409 6.55-2.57 14.676-2.57 8.125.083 14.675 1.161 14.675 2.57z" fill="#FFDA58"/>
    <path d="M197.578 154.215c8.105 0 14.675-1.151 14.675-2.571 0-1.419-6.57-2.57-14.675-2.57s-14.676 1.151-14.676 2.57c0 1.42 6.571 2.571 14.676 2.571z" fill="#FFB65A"/>
    <path d="M180.166 148.328v-1.824c.083 1.824 7.794 3.233 17.328 3.233 7.297 0 13.515-.829 16.085-2.072.829-.415 1.244-.747 1.244-1.244v4.394c-.166 1.741-7.877 3.234-17.329 3.234-9.451 0-17.162-1.41-17.328-3.234v-1.99-.497z" fill="#FF9F5C"/>
    <path d="M214.906 146.504c0-1.824-7.794-3.234-17.329-3.234-9.617 0-17.328 1.493-17.328 3.317.083 1.824 7.794 3.233 17.328 3.233 7.297 0 13.515-.829 16.085-2.072.746-.415 1.244-.83 1.244-1.244zm-2.736 0c0 1.409-6.55 2.57-14.675 2.57-8.126 0-14.676-1.161-14.676-2.57 0-1.41 6.55-2.57 14.676-2.57 8.125 0 14.675 1.16 14.675 2.57z" fill="#FFCD5A"/>
    <path d="M197.578 148.991c-8.126 0-14.676-1.16-14.676-2.57 0-1.409 6.55-2.57 14.676-2.57 8.125 0 14.675 1.161 14.675 2.57-.083 1.41-6.633 2.57-14.675 2.57z" fill="#FFE65C"/>
    <path d="M142 33h-37v22h37V33z" fill="#FFA255"/>
    <path d="M182 92h-77v8h77v-8z" fill="#E8695B"/>
    <path d="M182 33h-37v4h37v-4z" fill="#678DB2"/>
    <path d="M175 40h-30v2h30v-2zM175 44h-30v3h30v-3zM161 50h-16v2h16v-2z" fill="#A2C3DB"/>
    <defs>
        <linearGradient id="paint0_linear" x1="146.894" y1="131.423" x2="146.894" y2="23.215" gradientUnits="userSpaceOnUse">
            <stop stop-color="#2181F1"/>
            <stop offset="1" stop-color="#152682"/>
        </linearGradient>
    </defs>
</svg>
