<svg viewBox="0 0 123 260" fill="none" xmlns="http://www.w3.org/2000/svg">
    <path d="M114.275 46.471h-1.034l-.069 15.95V63.5l.069 15.954h1.034a.823.823 0 00.89-.791V47.259a.82.82 0 00-.563-.748.825.825 0 00-.327-.04zM114.275 88.656h-1.034l-.069 3.824v1.077l.069 7.514h1.034a.83.83 0 00.812-.47.832.832 0 00.078-.321V89.45a.835.835 0 00-.275-.588.827.827 0 00-.615-.206z" fill="#5C6A7A"/>
    <path d="M113.424 225.475V16.119C113.688-1.297 97.866.022 97.866.022h-82.27S-.225-1.297.04 16.119v209.367s-1.583 13.189 15.291 13.189h82.795c16.881-.019 15.298-13.2 15.298-13.2z" fill="#2A2F3A"/>
    <path d="M.905 224.911s-.26 4.089 2.868 8.243c3.129 4.154 10.712 4.448 10.712 4.448l84.82.044s6.283-.396 9.976-4.481c3.693-4.085 3.209-12.306 3.209-12.306l-.088-208.45a11.637 11.637 0 00-3.429-8.09C105.31.63 97.25.894 97.25.894s7.998.44 10.767 3.663c2.77 3.224 3.209 5.627 3.341 7.738.132 2.11.088 208.883.088 208.883s.154 7.041-2.931 10.943c-3.22 4.052-9.03 4.436-9.03 4.436l-85.198-.076s-12.455 0-13.382-11.57z" fill="#4F5763"/>
    <path d="M105.445 11.796a65.262 65.262 0 004.232-5.268s-.909-3.597-9.785-5.063L13.92 1.25S7.47 2.432 4.81 5.246C2.15 8.059 1.513 15.925 1.513 15.925l-.048 79.94v128.68s-.366 5.129 2.861 8.792c3.228 3.664 101.119-221.54 101.119-221.54z" fill="#5A7B91"/>
    <path d="M110.025 17.189c-.535-5.968-5.616-5.426-5.616-5.426H9.049s-5.078-.542-5.613 5.426L3.17 221.215s0 5.696 6.415 5.696h94.297c6.411 0 6.411-5.696 6.411-5.696l-.267-204.026z" fill="#fff"/>
    <path d="M63.279 6.872h-13.09s-1.315 0-1.315 1.099 1.293 1.055 1.293 1.055h13.141s1.297 0 1.297-1.055-1.326-1.099-1.326-1.099zM76.335 7.62a1.832 1.832 0 11-3.663 0 1.832 1.832 0 013.663 0zM82.977 7.62a1.832 1.832 0 11-3.663 0 1.832 1.832 0 013.663 0zM41.001 7.95a1.832 1.832 0 11-3.664 0 1.832 1.832 0 013.664 0zM19.292 7.95a1.832 1.832 0 11-3.663 0 1.832 1.832 0 013.663 0z" fill="#161616"/>
    <path d="M112.505 13.632s.264-4.089-2.868-8.243C106.504 1.234 98.913.94 98.913.94L14.108.897s-6.287.396-9.98 4.48C.437 9.464.924 17.684.924 17.684l.088 208.452a11.634 11.634 0 003.425 8.085c3.664 3.693 11.724 3.429 11.724 3.429s-7.998-.44-10.767-3.663c-2.77-3.224-3.195-5.616-3.327-7.727-.132-2.11-.088-208.883-.088-208.883S1.824 10.335 4.91 6.433c3.231-4.052 9.045-4.436 9.045-4.436l85.168.065s12.463 0 13.383 11.57z" fill="#9CACBC"/>
    <path d="M113.934 46.892l.26 32.004s.392-30.524.366-31.279c-.026-.754-.626-.725-.626-.725zM113.934 100.767v-11.69s.403-.22.447.732c.044.953-.447 10.958-.447 10.958z" fill="#97B0C4"/>
    <path d="M64.33 8.012a.754.754 0 00-.835-.685h-13.39s-.81.275-.733.78c.077.506 1.187.575 1.436.583.25.007 12.339-.997 12.936-.96.597.037.586.282.586.282zM74.482 8.114a.97.97 0 100-1.942.97.97 0 000 1.942zM39.118 8.338a.97.97 0 100-1.942.97.97 0 000 1.942zM17.493 8.338a.97.97 0 100-1.942.97.97 0 000 1.942zM81.014 8.114a.97.97 0 100-1.942.97.97 0 000 1.942z" fill="#494949"/>
    <path d="M110.028 17.115c-.534-5.975-5.619-5.433-5.619-5.433H8.972s-5.078-.542-5.613 5.433L3.092 221.3s0 5.7 6.415 5.7h94.374c6.415 0 6.415-5.7 6.415-5.7l-.268-204.184z" fill="#fff"/>
    <path d="M98.185 54.11H15.2v55.101h82.985V54.109z" fill="#60BEE8"/>
    <path d="M65.49 89.895c4.858-4.857 4.858-12.732 0-17.59-4.856-4.856-12.731-4.856-17.588 0-4.858 4.858-4.858 12.733 0 17.59 4.857 4.857 12.732 4.857 17.589 0z" fill="#fff"/>
    <path d="M52.413 74.943V87.58l12.383-6.316-12.383-6.32z" fill="#678DB2"/>
    <path d="M56.443 146.784H9.393v27.744h47.05v-27.744z" fill="#FFA255"/>
    <path d="M106.53 146.784H59.48v5.228h47.05v-5.228z" fill="#678DB2"/>
    <path d="M109.442 42.28H3.403v3.407h106.039V42.28z" fill="#A2C3DB"/>
    <path d="M102.331 116.641H10.474v6.506h91.857v-6.506z" fill="#678DB2"/>
    <path d="M102.624 30.963H10.767v6.506h91.857v-6.506z" fill="#E8695B"/>
    <path d="M102.778 21.127H10.92v6.507h91.858v-6.507zM67.891 125.338H43.144v4.386h24.747v-4.386zM98.188 125.338H73.441v4.386h24.747v-4.386z" fill="#A2C3DB"/>
    <path d="M97.06 133.265H51.626v8.053H97.06v-8.053z" fill="#E8695B"/>
    <path d="M97.72 155.396H59.48v3.356h38.24v-3.356zM97.72 161.53H59.48v3.355h38.24v-3.355zM80.61 168.245H59.48v3.356h21.13v-3.356zM106.526 184.481H9.554v3.356h96.972v-3.356zM106.526 178.696H9.554v3.356h96.972v-3.356zM59.48 190.203H9.573v3.356H59.48v-3.356zM106.545 196.362H9.573v3.356h96.972v-3.356zM106.537 208.704H9.565v3.355h96.972v-3.355zM106.537 202.919H9.565v3.356h96.972v-3.356zM81.765 214.426H9.584v3.356h72.18v-3.356z" fill="#A2C3DB"/>
    <path d="M3.36 17.115h106.669s-.312-5.004-4.616-5.403l-96.855-.03s-5.056-.124-5.199 5.433z" fill="#EFEFEF"/>
    <path d="M109.981 16.592H3.436v2.92h106.545v-2.92z" fill="#EFEFEF"/>
    <path d="M8.462 14.06l-.776.422-.118-.462.979-.524h.501v4.48h-.586v-3.915zM13.661 15.686c0 1.524-.564 2.367-1.557 2.367-.875 0-1.48-.835-1.48-2.3 0-1.466.649-2.33 1.557-2.33.909 0 1.48.838 1.48 2.263zm-2.432.066c0 1.165.366 1.832.908 1.832.62 0 .916-.733.916-1.868 0-1.136-.282-1.832-.909-1.832-.53.004-.915.652-.915 1.868zM14.287 15.193a.41.41 0 11.817 0 .41.41 0 11-.816 0zm0 2.432a.41.41 0 11.817 0 .41.41 0 11-.816 0zM15.646 17.976v-.366l.473-.469c1.143-1.099 1.66-1.667 1.667-2.345a.8.8 0 00-.887-.875c-.349.01-.684.139-.948.366l-.198-.414a1.978 1.978 0 011.267-.454 1.262 1.262 0 011.374 1.304c0 .828-.6 1.495-1.546 2.403l-.366.334h2.015v.502l-2.85.014zM19.328 17.28c.301.178.643.276.993.283.777 0 1.018-.495 1.011-.869 0-.626-.571-.897-1.158-.897h-.337v-.455h.337c.444 0 1-.227 1-.758 0-.366-.227-.674-.783-.674a1.642 1.642 0 00-.898.297l-.157-.443a2.129 2.129 0 011.172-.345c.879 0 1.282.524 1.282 1.07a1.117 1.117 0 01-.828 1.055 1.172 1.172 0 011.018 1.165c0 .733-.56 1.345-1.633 1.345-.409.004-.811-.1-1.165-.305l.146-.468zM96.466 16.368v-1.443s.03-.033.033-.044h.905v-1.649h-.073s-.019-.018.022-.018h9.308v-.022h.019a.297.297 0 01.22.07.369.369 0 01.095.303v4.21c0 .417-.257.469-.345.469h-9.294c-.025 0 .048-.048.048-.128v-1.671h-.854s-.044-.03-.044-.048l-.04-.029zm-.234-1.436v1.465a.33.33 0 00.249.33h.571v1.355h-.018c0 .088 0 .367.286.367h9.341a.646.646 0 00.7-.689V13.53a.527.527 0 00-.197-.47.537.537 0 00-.503-.087H97.32a.26.26 0 00-.286.286l.018-.026v1.356h-.571a.33.33 0 00-.25.33v.014z" fill="#678DB2"/>
    <path d="M105.152 13.46v4.41h1.425v-4.41h-1.425zM103.317 13.46v4.41h1.425v-4.41h-1.425zM101.397 13.46v4.41h1.426v-4.41h-1.426zM86.656 17.137h-1.272v1.206h1.272v-1.206zM88.366 16.423h-1.27v1.92h1.27v-1.92zM90.117 15.537h-1.27v2.81h1.27v-2.81zM91.902 14.438H90.63v3.905h1.272v-3.905zM93.62 13.064h-1.271v5.304h1.27v-5.304z" fill="#678DB2"/>
    <path d="M110.34 214.463H50.361v12.419l53.56.029s6.027.656 6.389-5.711l.03-6.737zM110.34 202.919H50.285v10.778h60.055v-10.778zM110.34 190.573H50.285v11.573h60.055v-11.573z" fill="#A2C3DB"/>
    <path d="M61.007 192.247H53.78v7.228h7.228v-7.228zM108.541 192.247h-45.28v1.854h45.28v-1.854zM108.541 195.434h-45.28v1.854h45.28v-1.854zM108.541 198.791h-45.28v1.854h45.28v-1.854zM61.007 204.505H53.78v7.228h7.228v-7.228zM108.541 204.505h-45.28v1.854h45.28v-1.854zM108.541 207.689h-45.28v1.854h45.28v-1.854zM108.541 211.049h-45.28v1.854h45.28v-1.854zM61.007 216.104H53.78v7.228h7.228v-7.228zM108.541 216.104h-45.28v1.853h45.28v-1.853zM108.541 219.288h-45.28v1.853h45.28v-1.853zM108.541 222.647h-45.28v1.854h45.28v-1.854zM83.454 14.034l-.033.165c-.054.258-.18.495-.367.681a.227.227 0 01-.318 0c-.15-.142-.297-.293-.444-.44l-1.139-1.138c-.022-.022-.044-.04-.062-.063a.23.23 0 010-.33 1.382 1.382 0 012.34.799v.044l.023.282zm-.59.33a.913.913 0 00-.23-1.183.89.89 0 00-1.016-.063l1.246 1.246zM76.845 13.782c0-.051.018-.103.033-.154a1.377 1.377 0 012.198-.813c.04.03.073.062.113.095a.232.232 0 010 .366l-.681.682-.843.85a.605.605 0 01-.16.128.205.205 0 01-.243-.051 1.359 1.359 0 01-.392-.792v-.058l-.025-.253zm.586.579l1.245-1.246a.898.898 0 00-1.04.092.912.912 0 00-.205 1.154zM82.061 17.698a2.499 2.499 0 00-.315-3.514 2.48 2.48 0 00-3.132-.062 2.41 2.41 0 00-.886 1.341 2.465 2.465 0 00.707 2.433 2.499 2.499 0 003.34.08c.105-.082.201-.176.286-.278zm-.399-.253a2.019 2.019 0 01-2.707.304 2.03 2.03 0 01-.169-3.169 1.981 1.981 0 011.14-.502c.377-.042.76.026 1.099.198.375.185.684.48.886.846.146.261.23.552.246.85.02.29-.024.582-.129.854a1.88 1.88 0 01-.359.619h-.007z" fill="#678DB2"/>
    <path d="M80.376 15.925h.912a.23.23 0 01.207.365.228.228 0 01-.144.09h-1.173a.232.232 0 01-.256-.228v-1.015a.216.216 0 01.136-.209.227.227 0 01.249.044.25.25 0 01.077.19v.756l-.008.007z" fill="#678DB2"/>
    <path d="M113.549 145.454H84.685l.256-5.817h28.355l.253 5.817z" fill="#E2E2E2"/>
    <path d="M113.373 142.223H84.864l.077-1.755h28.355l.077 1.755z" fill="#F9F9F9"/>
    <path d="M113.549 145.454H84.685l.076-1.755h28.711l.077 1.755z" fill="#BFBFBF"/>
    <path d="M114.439 166.259H83.754l.26-5.814h30.176l.249 5.814z" fill="#E2E2E2"/>
    <path d="M114.267 162.511h-30.33l.077-1.751h30.176l.077 1.751z" fill="#F9F9F9"/>
    <path d="M114.439 166.258H83.754l.08-1.751h30.532l.073 1.751z" fill="#BFBFBF"/>
    <path d="M115.333 187.068H82.827l.26-5.818h31.997l.249 5.818z" fill="#E2E2E2"/>
    <path d="M115.161 183.378H83.007l.08-1.751h31.997l.077 1.751z" fill="#F9F9F9"/>
    <path d="M115.333 187.067H82.827l.077-1.751h32.356l.073 1.751z" fill="#BFBFBF"/>
    <path d="M115.56 207.875H81.23l.271-5.817h33.818l.241 5.817z" fill="#E2E2E2"/>
    <path d="M115.326 204.33H81.355l.08-1.755h33.821l.07 1.755z" fill="#F9F9F9"/>
    <path d="M115.56 207.876H81.23l.084-1.755h34.173l.073 1.755z" fill="#BFBFBF"/>
    <path d="M116.414 228.684H80.266l.271-5.818h35.638l.239 5.818z" fill="#E2E2E2"/>
    <path d="M116.289 224.933H80.497l.084-1.751h35.639l.069 1.751z" fill="#F9F9F9"/>
    <path d="M116.414 228.684H80.266l.08-1.755h35.998l.07 1.755z" fill="#BFBFBF"/>
    <path d="M117.275 249.489H79.303l.27-5.814h37.46l.242 5.814z" fill="#E2E2E2"/>
    <path d="M117.202 245.833H79.589l.08-1.754h37.459l.074 1.754z" fill="#F9F9F9"/>
    <path d="M117.275 249.489H79.303l.08-1.751h37.818l.074 1.751z" fill="#BFBFBF"/>
    <path d="M87.267 126.899c0-.143.026-1.506-2.044-1.422-1.722.066-2.055 1.019-2.117 1.422v.029a.752.752 0 000 .15L76.2 258.384s-.275 1.517 2.854 1.601c3.128.084 3.066-1.436 3.066-1.436l-.135-.081h.146l5.136-131.569z" fill="#E2E2E2"/>
    <path d="M85.216 125.477s2.015-.238 2.052 1.421l-5.13 131.654s.023 1.466-3.066 1.436c0 0 1.535 0 1.572-1.465.036-1.465 5.744-131.632 5.744-131.632s.07-1.271-1.172-1.414z" fill="#BFBFBF"/>
    <path d="M86.29 125.484s-1.994-.238-2.18 1.426l-6.932 131.65s-.157 1.465 2.93 1.44c0 0-1.538 0-1.435-1.466.102-1.465 6.32-131.639 6.32-131.639a1.466 1.466 0 011.296-1.411z" fill="#F9F9F9"/>
    <path d="M115.806 126.895c0-.143-.11-1.506-2.173-1.422-1.714.066-1.96 1.019-1.989 1.422v.029a.939.939 0 000 .15l5.162 131.303s-.136 1.513 3 1.601c3.136.088 2.931-1.436 2.931-1.436l-.143-.085h.15l-6.938-131.562z" fill="#E2E2E2"/>
    <path d="M113.626 125.474s1.993-.238 2.18 1.421l6.92 131.654s.158 1.465-2.931 1.436c0 0 1.539 0 1.436-1.465-.102-1.466-6.323-131.629-6.323-131.629a1.462 1.462 0 00-1.282-1.417z" fill="#BFBFBF"/>
    <path d="M114.3 125.408s-2.011-.238-2.051 1.425l5.128 131.65s-.022 1.466 3.067 1.436c0 0-1.535 0-1.572-1.465-.037-1.466-5.744-131.636-5.744-131.636s-.084-1.267 1.172-1.41z" fill="#F9F9F9"/>
    <path d="M105.072 131.577s4.03.894 5.129 8.294c1.231 8.06.465 15.082 4.868 21.38l-.776 1.465s-4.396-3.531-6.356-8.294c-1.96-4.762-2.319-10.789-2.319-10.789l-.546-12.056z" fill="#F7F2EB"/>
    <path d="M87.154 136.962H74.999v2.154h12.155v-2.154z" fill="#A2C3DB"/>
    <path d="M93.052 115.546s-1.832-.835-2.106.85c-.275 1.685-.066 4.704.696 7.155.762 2.45.993 2.758 1.963 3.055a3.367 3.367 0 002.154.062l-2.707-11.122zM102.577 119.887s.513.439.231 1.619a3.101 3.101 0 01-1.202 1.77l.388-2.36.583-1.029z" fill="#FFB288"/>
    <path d="M94.821 126.257s-.417-.263-1.14-2.198a24.084 24.084 0 01-.732-3.341l4.03 2.393-2.158 3.146z" fill="#FFB288"/>
    <path d="M103.614 159.228s-.147.055-.117.304c.029.25.882.587 1.139.601h.253s-.825-.366-1.081-.531a.367.367 0 01-.194-.374z" fill="#E4765B"/>
    <path d="M69.294 127.202s-1.322-1.249-1.63-2.198c-.308-.949 1.07-2.396 1.07-2.396h1.689a5.534 5.534 0 01-.162 4.492s.022.721-.967.102z" fill="#FFB288"/>
    <path d="M92.909 130.515c-3.198-.432-11.932 4.612-16.852 2.605-5.188-2.107-5.733-6.228-5.733-6.228s-.755-.477-1.121.161c-.425.733.85 8.294 6.422 10.573 5.572 2.278 10.763 2.271 13.243.89 2.48-1.381 4.041-8.001 4.041-8.001z" fill="#F7F2EB"/>
    <path d="M69.188 127.052s-.33.642.366 3.045 2.587 6.861 6.056 8.774c4.66 2.564 8.11 1.956 9.254 1.795 1.143-.161 2.645-.235 4.491-1.649 1.847-1.414 2.272-7.213 2.272-7.213s-.945 3.605-3.297 5.25c-2.352 1.645-7.353 2.872-12.427.124-3.997-2.165-6.25-6.722-6.433-10.382a1.772 1.772 0 00-.282.256z" fill="#DDD5CA"/>
    <path d="M70.148 126.144s.524-1.066 1.011-2.297c.487-1.231 1.176-1.352 1.436-1.165.26.187-.275.652-.67 1.505-.444.96-.986 1.975-.986 1.975s-.392.733-.582.696c-.19-.037-.21-.714-.21-.714z" fill="#FFB288"/>
    <path d="M91.169 131.108a19.854 19.854 0 00-2.147 10.803c.656 8.217 1.077 12.548 1.1 14.563 0 0 1.432 1.223 5.494 1.432 4.063.209 7.807-1.432 7.723-1.685-.084-.253.733-10.214 1.857-14.519 1.125-4.304.704-8.524-.223-9.733-.927-1.209-9.474-3.21-13.804-.861z" fill="#F7F2EB"/>
    <path d="M90.238 199.9s-2.967-12.089-2.974-20.423c0-8.932 2.835-22.992 2.835-22.992l7.104 1.509.406 8.162s-3.531 7.895-4.583 14.786c-1.099 7.188-1.582 18.907-1.582 18.907-.176.095-.528.623-1.206.051z" fill="#00587F"/>
    <path d="M93.649 157.792a236.37 236.37 0 016.418 24.787c2.491 12.764 4.199 18.504 4.199 18.504s.414.634 1.154-.058c0 0 .696-16.273.439-28.147-.256-11.873-.89-13.804-2.539-16.657-.011 0-2.941 1.938-9.671 1.571z" fill="#00587F"/>
    <path d="M90.257 199.63a8.093 8.093 0 00-2.011 1.099c-1.1.732-2.363.106-3 .238-.638.132-.774 1.099-.653 1.253.121.153 2.902.289 4.06.289 1.157 0 1.538-.396 1.538-.396a1.05 1.05 0 00.854.4c.29.04.585.04.875 0 .092 0 .176-.854.059-1.466a2.659 2.659 0 00-.623-1.344l-1.1-.073z" fill="#2D201F"/>
    <path d="M100.298 128.953s-.205-.051-.733.755a12.339 12.339 0 01-3.897 3.524s1.293 1.715 1.494 1.832c.202.117 3.151-2.301 4.495-4.378a6.227 6.227 0 00-.546-1.366 1.028 1.028 0 00-.813-.367zM94.327 129.32s-.71-.293-.993.25a7.566 7.566 0 00-.542 3.278c.135.633.402 1.23.784 1.751l2.088-1.362a4.278 4.278 0 01-1.121-1.876 4.636 4.636 0 01-.216-2.041z" fill="#F7F2EB"/>
    <path d="M103.31 156.221s-4.191 1.487-8.016 1.128c-3.825-.359-5.206-.865-5.206-.865s-1.285 5.862-2.022 12.17c-.736 6.309-.227 8.976.476 9.221.704.246 4.312-1.337 6.027-7.583 1.015-3.7 2.238-3.235 2.238-3.235s5.895-5.275 6.503-10.836z" fill="#00587F"/>
    <path d="M90.1 156.484s7.608 1.305 13.221-.263a12.643 12.643 0 012.465 5.92c.55 3.682.257 13.664.132 20.321-.125 6.657-.498 18.563-.498 18.563l-1.154.058-1.099-4.216s1.062 2.077 1.374.289c.311-1.788-1.748-19.079-.598-25.988 1.517-9.126.422-9.892-.985-10.991-1.597-1.249-7.122-1.11-12.859-3.693z" fill="#004056"/>
    <path d="M104.204 200.948s-.821.341-.942 1.557c0 0-.066.454 1.52.509 1.499.052 1.561-.392 1.565-.534.003-.143-.18-1.279-.909-1.521a1.623 1.623 0 00-1.234-.011z" fill="#2D201F"/>
    <path d="M89.876 157.261s1.293.392 5.465.696c4.173.304 8.448-1.018 8.448-1.018l.55 1.062a28.897 28.897 0 01-8.697 1.128c-4.957-.095-5.964-.758-5.964-.758l.198-1.11z" fill="#964F2C"/>
    <path d="M95.616 157.972s2.612 1.465 4.928.85c0 0 2.513-.304 3.799-.821l-.55-1.062s-.264.179-2.619.582a44.768 44.768 0 01-5.558.451z" fill="#6D3016"/>
    <path d="M90.81 157.294l-.323 1.564.707.154s.32-1.641.268-1.659c-.052-.019-.652-.059-.652-.059zM93.891 157.715s-.128 1.675-.106 1.696c.022.022 1.132.198 1.146.092.015-.106-.047-1.608-.047-1.608l-.993-.18z" fill="#00587F"/>
    <path d="M102.295 157.232l.549 1.396a4.57 4.57 0 00.913-.242c.128-.099-.447-1.323-.576-1.366-.302.036-.6.108-.886.212zM100.353 157.569s.59 1.059.568 1.253c-.022.194-1.14.191-1.14.191a8.233 8.233 0 01-.453-1.297c.04-.103 1.025-.147 1.025-.147z" fill="#004056"/>
    <path d="M100.298 128.954s-.667.857-2.835 1.334c-2.17.476-3.257-.894-3.257-.894a1.78 1.78 0 00-.616 1.344c.019.846 0 3.851 0 3.851s.711 1.586 4.367.49a5.07 5.07 0 003.71-4.59l-1.369-1.535z" fill="#F7F2EB"/>
    <path d="M100.287 128.925l-.392-2.902h-5.528l-.366 3.129s.44 1.341 2.784 1.377a4.274 4.274 0 003.502-1.604z" fill="#FFB288"/>
    <path d="M99.957 127.122c.539-.469 1.916-3.352 2.495-6.327.579-2.974.22-6.389-4.396-6.645-4.396-.242-5.202 2.755-5.18 5.678.022 2.924 1.96 6.437 2.47 6.913 1.098 1.037 3.769 1.114 4.611.381z" fill="#421815"/>
    <path d="M105.907 143.241a43.354 43.354 0 010-2.392 6.192 6.192 0 01-.956-2.81s-3.158 13.445-4.594 16.167c-1.436 2.722-10.24 2.264-10.24 2.264s.451.626 6.254.545c5.803-.08 6.961-.795 6.961-.795a33.298 33.298 0 011.128-8.059c1.378-4.99 1.172-5.316 1.172-5.316.071.146.163.279.275.396zM101.654 130.493a5.366 5.366 0 01-5.26 2.275c-3.624-.462-3.624-2.275-3.624-2.275s-.432 2.124 3.58 3.223c6.473 1.77 8.791-1.784 8.791-1.784l-3.487-1.439z" fill="#DDD5CA"/>
    <path d="M97.298 170.482s-.524-2.319-.575-2.198a58.736 58.736 0 00-2.565 7.492c-.828 3.4-1.26 6.994-1.733 10.991-.472 3.996-1.08 13.067-1.08 13.067s-.887.268-1.257-.073l-.96-5.495s.869 3.055 1.32 2.399c.45-.655 1.047-9.103 1.578-15.262.531-6.158 3.708-13.075 4.133-13.716.425-.641-.158.458.285-.366.011-.007.165.429.854 3.161z" fill="#004056"/>
    <path d="M87.264 178.41s.985 4.36 2.835.517c1.85-3.843 6.356-11.61 6.356-11.61s-2.86 6.785-3.535 11.61c-.674 4.825-1.945 17.925-1.945 17.925l-.597.791a9.757 9.757 0 01-1.239-3.374c-.447-2.231-1.883-9.924-1.875-15.859zM98.914 177.18s.241 2.996 2.428 3.509c2.188.513 2.418-7.935 2.418-7.935s.63 15.566 1.235 18.625c.604 3.059-.205 7.888-.205 7.888s-1.162-.367-1.726-2.737c-.564-2.37-4.15-19.35-4.15-19.35z" fill="#004056"/>
    <path d="M92.184 118.102s-.557-.645.084-2.165 2.667-2.421 6.459-1.729c3.791.692-.257 7.605-.257 7.605l-4.165 2.22s-1.026-1.604-1.25-2.908c-.223-1.305-.076-3.272-.175-3.374-.1-.103-.271.424-.696.351z" fill="#421815"/>
    <path d="M93.052 121.459c.55 2.344 1.487 3.234 1.487 3.234l-1.359-7.762-.982-.799s-.091.088-.227.912c-.136.824.524 2.074 1.08 4.415z" fill="#421815"/>
    <path d="M102.628 119.538s.751-3.165-.879-5.062c-1.63-1.898-4.814-2.396-6.898-2.059-2.085.337-4.257 1.432-4.598 4.029-.209 1.631 1.19 1.294 1.487 1.466.297.172 1.99 3.323 1.99 3.323l8.898-1.697z" fill="#421815"/>
    <path d="M105.647 133.35c-.326-1.059-.575-1.781-.575-1.781-1.575-.586-3.407-1.099-3.407-1.099v.235l-1.018 1.322s3.692.073 4.029 1.172c1.594 5.052-2.198 11.94-4.476 17.402-2.28 5.462-10.112 5.861-10.112 5.861 5.371.561 9.225-.674 9.225-.674l2.33-2.095 1.916-6.774 1.319-5.99 1 .883c-.004-2.817.154-5.623-.231-8.462z" fill="#DDD5CA"/>
    <path d="M92.202 119.454s.245-.82 1.161-.278c1.1.648.835 3.568-.114 3.748-.538.102-1.318-1.905-1.318-1.905l.27-1.565z" fill="#FFB288"/>
    <path d="M91.704 120.806c-.279-.066-.07-2.231-.202-2.711a.983.983 0 00-.71-.608h1.318l1.176.682-.135.776s-.498-.179-.71.18c-.14.234-.243 1.67-.334 1.692-.135.011-.27.007-.403-.011z" fill="#421815"/>
    <path d="M70.705 123.77s-.213-4.396-.733-4.609c-.52-.212-.773.213-.615.902.118.804.184 1.615.197 2.428 0 0-.523-.219-.817.129-.21.352-.335.748-.366 1.157l1.832 2.066.502-2.073z" fill="#FFB288"/>
    <path d="M105.599 142.952s.077 5.766 2.198 11.104a21.625 21.625 0 006.503 8.679l.235-.572a29.589 29.589 0 01-5.455-9.499c-1.968-5.719-2.081-11.291-2.385-15.046-.304-3.755-1.631-6.041-1.631-6.041.378 1.905.59 3.839.634 5.781.033 2.916-.099 5.594-.099 5.594z" fill="#DDD5CA"/>
    <path d="M114.989 161.434s1.538.279 1.744.627c.205.348.436 1.813-.037 2.007-.473.195-1.912-.604-2.312-1.494l.605-1.14z" fill="#F7A277"/>
    <path d="M91.546 119.623a4.37 4.37 0 01-1.293-3.176c.07-1.949 2.22-2.609 2.22-2.609s-.267 8.456-.267 8.496c0 .04-.367-.136-.535-1.099a6.476 6.476 0 01-.125-1.612z" fill="#421815"/>
</svg>
