<svg viewBox="0 0 310 221" fill="none" xmlns="http://www.w3.org/2000/svg">
    <g filter="url(#filter0_d)">
        <path fill-rule="evenodd" clip-rule="evenodd" d="M267.328 41.199l-2.886 69.282-1.014 24.377a4.916 4.916 0 01-4.896 4.681H89.406a4.917 4.917 0 01-4.904-4.741l-2.98-93.625a4.903 4.903 0 014.895-5.077h176.015a4.909 4.909 0 014.581 3.167c.234.617.341 1.276.315 1.936z" fill="url(#paint0_linear)"/>
        <path fill-rule="evenodd" clip-rule="evenodd" d="M88.28 41.456l1.504 86.547 168.842-.172 3.092-86.727-173.437.352z" fill="url(#paint1_radial)"/>
        <path fill-rule="evenodd" clip-rule="evenodd" d="M84.51 134.798v-2.148l179.073-1.039-.155 3.238s.052 4.338-4.896 4.681H89.415s-4.75-.266-4.905-4.732z" fill="url(#paint2_radial)"/>
        <path d="M247.786 137.031a1.46 1.46 0 100-2.921 1.46 1.46 0 000 2.921z" fill="#FFFB00"/>
        <path fill-rule="evenodd" clip-rule="evenodd" d="M158.139 139.53l3.788 17.84h22.366l3.668-17.84h-29.822z" fill="url(#paint3_linear)"/>
        <path fill-rule="evenodd" clip-rule="evenodd" d="M159.461 145.74l26.671 2.715 1.829-8.925h-29.822l1.322 6.21z" fill="#401734" opacity=".5"/>
        <path d="M199.754 157.37h-54.603v3.41h54.603v-3.41z" fill="url(#paint4_radial)"/>
        <path fill-rule="evenodd" clip-rule="evenodd" d="M199.754 157.37l-15.083-1.812H161.54l-16.389 1.812h54.603z" fill="url(#paint5_radial)"/>
        <path fill-rule="evenodd" clip-rule="evenodd" d="M186.879 160.78v-3.41h11.913l-.73 3.41h-11.183zM267.336 41.19l-2.886 69.282-.859 7.035-3.066-3.96 2.577-73.474h-89.94l-4.012-4.011h93.282a4.91 4.91 0 013.549 1.515 4.913 4.913 0 011.355 3.613zM83.359 98.756l4.922 3.436.859 26.387h42.5l9.869 10.951H89.414a4.973 4.973 0 01-4.904-3.985l-1.151-36.789z" fill="#FBF9FA" opacity=".8"/>
        <path fill-rule="evenodd" clip-rule="evenodd" d="M100.512 128.003l-2.07-80.946 151.045-1.006-3.084 81.772-145.891.18z" fill="url(#paint6_linear)"/>
        <path fill-rule="evenodd" clip-rule="evenodd" d="M98.442 47.056v7.868h150.71l.335-8.873-151.045 1.005z" fill="#6D1748" opacity=".2"/>
        <g style="mix-blend-mode:multiply" opacity=".2">
            <path d="M183.64 74.01h-53.812v1.22h53.812v-1.22zM165.431 68.264h-35.603v1.22h35.603v-1.22zM165.431 71.167h-35.603v1.22h35.603v-1.22zM172.294 71.098h-4.578v1.22h4.578v-1.22z" fill="#6D1748" opacity=".2"/>
        </g>
        <path d="M160.775 59.932h-30.947v6.88h30.947v-6.88z" fill="#6D1748" opacity=".2"/>
        <g style="mix-blend-mode:multiply" opacity=".2">
            <path d="M241.327 49.204l1.057-1.065 3.556 4.174-.533.524-4.08-3.633z" fill="#401734" opacity=".2"/>
            <path d="M245.184 48.139l1.065 1.065-4.175 3.556-.524-.533 3.634-4.088z" fill="#401734" opacity=".2"/>
        </g>
        <path fill-rule="evenodd" clip-rule="evenodd" d="M139.525 104.52l-.386.738 19.721-7.799 16.268 5.489 14.62-22.204 18.956 24.179 26.782-30.973 1.907 1.907.567-7.224-6.571 2.19 1.924 1.392-24.411 28.096-19.154-22.925-15.221 23.655-15.779-4.578-19.223 8.057z" fill="url(#paint7_linear)"/>
        <path d="M144.404 121.424h-4.621v-15.169l4.621-1.941v17.11zM154.213 121.424h-4.621v-18.76l4.621-1.932v20.692zM164.022 121.424h-4.621V99.297l4.621 1.735v20.392zM173.832 121.424h-4.622v-19.189l4.622 1.563v17.626zM183.641 121.424h-4.621V99.297l4.621-7.103v29.23zM193.45 121.424h-4.621v-36.97l.902-1.734 3.719 4.879v33.825zM203.259 121.424h-4.621V93.809l4.621 6.468v21.147zM213.068 121.424h-4.621v-14.62l4.621-4.732v19.352zM222.877 121.424h-4.621v-24.66l4.621-5.85v30.51zM232.686 121.424h-4.621V84.91l4.621-5.54v42.054z" fill="#6D1748" opacity=".2"/>
        <path d="M236.148 121.415h-98.272v1.271h98.272v-1.271z" fill="#6D1748" opacity=".2"/>
        <path d="M126.083 82.849h-11.802v38.334h11.802V82.849z" fill="#1F84FF"/>
        <path fill-rule="evenodd" clip-rule="evenodd" d="M126.942 81.99v36.737h1.168a129.99 129.99 0 01-5.248 2.035c-3.487 1.254-6.871 2.311-10.256 3.17l.816-1.89V81.99h13.52z" fill="#1F84FF"/>
        <path fill-rule="evenodd" clip-rule="evenodd" d="M126.942 81.99v36.462h1.116a100.432 100.432 0 01-5.205 2.018 114.682 114.682 0 01-10.135 3.127l.704-1.555V81.99h13.52z" fill="#1F85FF"/>
        <path fill-rule="evenodd" clip-rule="evenodd" d="M126.942 81.99v36.196h1.056a106.785 106.785 0 01-5.153 1.984c-3.436 1.228-6.76 2.267-10.024 3.101l.592-1.229V81.99h13.529z" fill="#1E86FF"/>
        <path fill-rule="evenodd" clip-rule="evenodd" d="M126.942 81.99v35.921h.997a157.826 157.826 0 01-5.085 1.967 111.956 111.956 0 01-9.913 3.066l.481-.902V81.99h13.52z" fill="#1E87FF"/>
        <path fill-rule="evenodd" clip-rule="evenodd" d="M126.942 81.99v33.421h6.012a114.653 114.653 0 01-19.901 7.198l.369-.567V81.99h13.52z" fill="#1E88FF"/>
        <path fill-rule="evenodd" clip-rule="evenodd" d="M126.942 81.99v33.172h5.892a113.2 113.2 0 01-19.669 7.121l.257-.241V81.99h13.52z" fill="#1D89FF"/>
        <path fill-rule="evenodd" clip-rule="evenodd" d="M126.942 81.99v32.94h5.781a112.794 112.794 0 01-19.447 7.044h.146V81.99h13.52z" fill="#1D8AFF"/>
        <path fill-rule="evenodd" clip-rule="evenodd" d="M126.942 81.99v32.64h5.669a110.508 110.508 0 01-19.232 6.957V81.99h13.563z" fill="#1D8BFF"/>
        <path fill-rule="evenodd" clip-rule="evenodd" d="M126.942 81.99v32.433h5.549a109.969 109.969 0 01-19 6.872 83.327 83.327 0 01-4.501 1.039l4.432-.292V81.99h13.52z" fill="#1C8CFF"/>
        <path fill-rule="evenodd" clip-rule="evenodd" d="M126.942 81.99v32.184h5.437a108.756 108.756 0 01-18.776 6.769 92.65 92.65 0 01-4.45 1.022h4.295V81.99h13.494z" fill="#1C8DFF"/>
        <path fill-rule="evenodd" clip-rule="evenodd" d="M126.942 81.99v31.935h5.317a107.26 107.26 0 01-18.545 6.717 88.963 88.963 0 01-4.398 1.005h4.106V81.99h13.52z" fill="#1C8EFF"/>
        <path fill-rule="evenodd" clip-rule="evenodd" d="M126.942 81.99v31.686h5.205a105.413 105.413 0 01-18.321 6.631c-1.469.378-2.92.713-4.295 1.005h3.934V81.99h13.477z" fill="#1B8FFF"/>
        <path fill-rule="evenodd" clip-rule="evenodd" d="M126.942 81.99v31.446h5.085a104.706 104.706 0 01-18.089 6.545 88.456 88.456 0 01-4.295.988h3.771v-38.98h13.528z" fill="#1B90FF"/>
        <path fill-rule="evenodd" clip-rule="evenodd" d="M126.942 81.99v31.222h4.974a104.163 104.163 0 01-17.866 6.468c-1.438.361-2.849.684-4.235.971h3.607V81.998l13.52-.008z" fill="#1B91FF"/>
        <path fill-rule="evenodd" clip-rule="evenodd" d="M126.942 81.99v30.922h4.862a102.37 102.37 0 01-17.643 6.382 74.923 74.923 0 01-4.183.962h3.436V81.99h13.528z" fill="#1A92FF"/>
        <path fill-rule="evenodd" clip-rule="evenodd" d="M126.942 81.99v30.698h4.741a100.852 100.852 0 01-17.41 6.305c-1.4.361-2.775.679-4.132.953h3.281V81.99h13.52z" fill="#1A93FF"/>
        <path fill-rule="evenodd" clip-rule="evenodd" d="M126.942 81.99v30.449h4.63a99.687 99.687 0 01-17.179 6.228c-1.383.352-2.74.661-4.08.936h3.118V81.99h13.511z" fill="#1A94FF"/>
        <path fill-rule="evenodd" clip-rule="evenodd" d="M126.942 81.99v30.209h4.51a98.187 98.187 0 01-16.956 6.167 77.834 77.834 0 01-4.028.928h2.955V81.99h13.519z" fill="#1995FF"/>
        <path fill-rule="evenodd" clip-rule="evenodd" d="M126.942 81.99v29.96h4.398a96.851 96.851 0 01-16.741 6.012 74.21 74.21 0 01-3.96.911h2.783V81.938l13.52.052z" fill="#1996FF"/>
        <path fill-rule="evenodd" clip-rule="evenodd" d="M126.942 81.99V111.7h4.295a96.122 96.122 0 01-16.509 6.012 53.295 53.295 0 01-3.908.859h2.577V81.99h13.545z" fill="#1997FF"/>
        <path fill-rule="evenodd" clip-rule="evenodd" d="M126.942 81.99v29.504h4.166a94.427 94.427 0 01-16.32 5.893c-1.306.335-2.577.635-3.857.859h2.457V81.99h13.554z" fill="#1898FF"/>
        <path fill-rule="evenodd" clip-rule="evenodd" d="M126.942 81.99v29.204h4.054A93.68 93.68 0 01114.934 117a72.459 72.459 0 01-7.481 1.521h5.969V81.99h13.52z" fill="#1899FF"/>
        <path fill-rule="evenodd" clip-rule="evenodd" d="M126.942 81.99v28.972h3.934a91.495 91.495 0 01-15.83 5.729 70.17 70.17 0 01-7.379 1.495h5.755V81.99h13.52z" fill="#189AFF"/>
        <path fill-rule="evenodd" clip-rule="evenodd" d="M126.942 81.99v28.723h3.823a89.606 89.606 0 01-15.607 5.643 68.287 68.287 0 01-7.276 1.477h5.54V81.99h13.52z" fill="#179BFF"/>
        <path fill-rule="evenodd" clip-rule="evenodd" d="M126.942 81.99v28.474h3.702a88.206 88.206 0 01-15.375 5.566 70.696 70.696 0 01-7.164 1.46h5.317v-35.5h13.52z" fill="#179CFF"/>
        <path fill-rule="evenodd" clip-rule="evenodd" d="M126.942 81.99v28.225h3.591a87.063 87.063 0 01-15.152 5.488 70.695 70.695 0 01-7.061 1.435h5.102V81.99h13.52z" fill="#169DFF"/>
        <path fill-rule="evenodd" clip-rule="evenodd" d="M126.942 81.99v27.984h3.436a86.906 86.906 0 01-14.894 5.403 68.63 68.63 0 01-6.958 1.409h4.888V81.99h13.528z" fill="#169EFF"/>
        <path fill-rule="evenodd" clip-rule="evenodd" d="M126.942 81.99v27.735h3.358a85.036 85.036 0 01-14.696 5.317 64.27 64.27 0 01-6.872 1.391h4.673V81.99h13.537z" fill="#169FFF"/>
        <path fill-rule="evenodd" clip-rule="evenodd" d="M126.942 81.99v27.486h3.247a83.626 83.626 0 01-14.482 5.239 66.097 66.097 0 01-6.743 1.366h4.458V81.99h13.52z" fill="#15A0FF"/>
        <path fill-rule="evenodd" clip-rule="evenodd" d="M126.942 81.99v27.237h3.144a82.168 82.168 0 01-14.25 5.153 66.115 66.115 0 01-6.64 1.349h4.243v-33.74h13.503z" fill="#15A1FF"/>
        <path fill-rule="evenodd" clip-rule="evenodd" d="M126.942 81.99v26.988h3.015a80.371 80.371 0 01-14.027 5.093 64.416 64.416 0 01-6.528 1.332h4.02V81.99h13.52z" fill="#15A2FF"/>
        <path fill-rule="evenodd" clip-rule="evenodd" d="M126.942 81.99v26.747h2.895a79.826 79.826 0 01-13.795 4.991 62.432 62.432 0 01-6.425 1.305h3.805V82.076h-4.372a88.056 88.056 0 016.717-3.505v3.436l11.175-.017z" fill="#14A3FF"/>
        <path fill-rule="evenodd" clip-rule="evenodd" d="M126.942 81.99v26.498h2.783a78.45 78.45 0 01-13.571 4.913c-2.083.54-4.193.967-6.322 1.28h3.59v-32.39h-4.14a79.523 79.523 0 016.605-3.436v3.169l11.055-.034z" fill="#14A4FF"/>
        <path fill-rule="evenodd" clip-rule="evenodd" d="M126.942 81.99v26.249h2.663a77.168 77.168 0 01-13.34 4.827c-2.049.53-4.125.952-6.218 1.263h3.375V82.453h-3.951a79.505 79.505 0 016.494-3.384v2.92h10.977z" fill="#14A5FF"/>
        <path fill-rule="evenodd" clip-rule="evenodd" d="M126.942 81.99v26h2.577a75.746 75.746 0 01-13.176 4.75 59.798 59.798 0 01-6.116 1.245h3.161V82.642h-3.694a84.061 84.061 0 016.382-3.332v2.68h10.866z" fill="#13A6FF"/>
        <path fill-rule="evenodd" clip-rule="evenodd" d="M126.942 81.99v25.768h2.439a75.294 75.294 0 01-12.884 4.664c-1.981.513-3.988.92-6.012 1.22h2.946V82.84h-3.436a75.612 75.612 0 016.279-3.281v2.43h10.668z" fill="#13A7FF"/>
        <path fill-rule="evenodd" clip-rule="evenodd" d="M126.942 81.99v25.51h2.285a72.92 72.92 0 01-12.661 4.578 56.183 56.183 0 01-5.901 1.203h2.723V83.029h-3.238a75.32 75.32 0 016.159-3.221v2.182h10.633z" fill="#13A8FF"/>
        <path fill-rule="evenodd" clip-rule="evenodd" d="M126.942 81.99v25.261h2.207a71.907 71.907 0 01-12.437 4.501 56.644 56.644 0 01-5.798 1.177h2.508V83.218h-3.015a62.241 62.241 0 016.013-3.161v1.933h10.522z" fill="#12A9FF"/>
        <path fill-rule="evenodd" clip-rule="evenodd" d="M126.942 81.99v25.012h2.087a70.298 70.298 0 01-12.214 4.424 55.845 55.845 0 01-5.686 1.151h2.293V83.373h-2.791a75.633 75.633 0 015.944-3.101v1.718h10.367z" fill="#12AAFF"/>
        <path fill-rule="evenodd" clip-rule="evenodd" d="M126.942 81.99v24.763h1.976a68.48 68.48 0 01-12.026 4.295c-1.839.479-3.703.86-5.583 1.142h2.079V83.596h-2.577a73.216 73.216 0 015.841-3.05v1.444h10.29z" fill="#12ABFF"/>
        <path fill-rule="evenodd" clip-rule="evenodd" d="M126.942 81.99v24.523h1.855a68.292 68.292 0 01-11.759 4.294 51.106 51.106 0 01-5.48 1.117h1.864v-28.14h-2.336a73.005 73.005 0 015.72-2.988v1.194h10.136z" fill="#11ACFF"/>
        <path fill-rule="evenodd" clip-rule="evenodd" d="M126.942 81.99v24.273h1.718a67.165 67.165 0 01-11.535 4.175 51.562 51.562 0 01-5.377 1.091h1.649v-27.52h-2.113a71.443 71.443 0 015.609-2.93v.945l10.049-.034z" fill="#11ADFF"/>
        <path fill-rule="evenodd" clip-rule="evenodd" d="M126.942 81.99v24.05h1.632a66.28 66.28 0 01-11.312 4.097 51.336 51.336 0 01-5.265 1.065h1.425v-27.04h-1.889a63.698 63.698 0 015.506-2.868v.696h9.903z" fill="#11AEFF"/>
        <path fill-rule="evenodd" clip-rule="evenodd" d="M126.942 81.99v23.775h1.512c-7.542 3.522-15.014 5.351-20.975 5.472h5.943V84.352h-1.666a70.766 70.766 0 015.394-2.809v.447h9.792z" fill="#10AFFF"/>
        <path fill-rule="evenodd" clip-rule="evenodd" d="M126.942 81.99v23.492h1.426c-7.396 3.435-14.705 5.248-20.555 5.359h5.635v-26.3h-1.434a64.367 64.367 0 015.282-2.758v.207h9.646z" fill="#10B0FF"/>
        <path fill-rule="evenodd" clip-rule="evenodd" d="M126.942 81.99v23.286h1.28c-7.232 3.375-14.396 5.153-20.125 5.239h5.325V87.71h-5.815a63.255 63.255 0 0120.409-9.525l-1.074 3.805z" fill="#10B1FF"/>
        <path fill-rule="evenodd" clip-rule="evenodd" d="M126.942 81.99v23.036h1.168c-7.086 3.307-14.095 5.025-19.695 5.154h5.008V87.848h-5.498a60.206 60.206 0 019.577-5.558 59.018 59.018 0 0110.402-3.762l-.962 3.462z" fill="#0FB3FF"/>
        <path fill-rule="evenodd" clip-rule="evenodd" d="M126.942 81.99v22.787h1.048c-6.923 3.239-13.743 4.914-19.266 5.025h4.698V87.959h-5.153a60.85 60.85 0 0119.523-9.105l-.85 3.136z" fill="#0FB4FF"/>
        <path fill-rule="evenodd" clip-rule="evenodd" d="M126.942 82.204v22.333h.936c-6.777 3.161-13.476 4.81-18.836 4.913h4.38V88.088h-4.81a57.418 57.418 0 019.148-5.317 58.088 58.088 0 019.955-3.599l-.739 2.818-.034.214z" fill="#0FB5FF"/>
        <path fill-rule="evenodd" clip-rule="evenodd" d="M126.942 82.462v21.826h.859c-6.622 3.083-13.176 4.69-18.416 4.793h4.072V88.217h-4.527a55.992 55.992 0 018.95-5.197 56.64 56.64 0 019.724-3.521l-.627 2.49-.035.473z" fill="#0EB6FF"/>
        <path fill-rule="evenodd" clip-rule="evenodd" d="M126.942 82.728v21.311h.704c-6.467 3.015-12.884 4.587-17.977 4.681h3.753V88.303h-4.2a55.696 55.696 0 018.736-5.068 54.722 54.722 0 019.5-3.436l-.516 2.156v.773z" fill="#0EB7FF"/>
        <path fill-rule="evenodd" clip-rule="evenodd" d="M126.942 82.986v20.778h.567c-6.313 2.946-12.566 4.475-17.557 4.578h3.436V88.466h-3.874a55.47 55.47 0 0117.797-8.306l-.403 1.83.034.996z" fill="#0EB8FF"/>
        <path fill-rule="evenodd" clip-rule="evenodd" d="M126.942 83.244v20.297h.472c-6.158 2.877-12.248 4.372-17.127 4.466h3.135V88.595h-3.556a54.254 54.254 0 0117.368-8.108l-.292 1.503v1.254z" fill="#0DB9FF"/>
        <path fill-rule="evenodd" clip-rule="evenodd" d="M126.942 83.501v19.756h.361c-6.013 2.809-11.948 4.295-16.698 4.355h2.817V88.715h-3.229a52.396 52.396 0 0116.93-7.894l-.181 1.169V83.5z" fill="#0DBAFF"/>
        <path fill-rule="evenodd" clip-rule="evenodd" d="M126.942 83.768v19.283h.241c-5.85 2.731-11.639 4.149-16.269 4.235h2.508V88.844h-2.903a51.227 51.227 0 0116.492-7.73l-.069.858v1.796z" fill="#0DBBFF"/>
        <path fill-rule="evenodd" clip-rule="evenodd" d="M126.942 84.008v18.777h.129a41.211 41.211 0 01-15.839 4.131h2.191V88.973h-2.577a49.935 49.935 0 0116.071-7.499v.516l.025 2.018z" fill="#0CBCFF"/>
        <path fill-rule="evenodd" clip-rule="evenodd" d="M126.942 84.283v18.27a39.944 39.944 0 01-15.461 4.02h1.881V89.102h-2.173a48.54 48.54 0 0115.633-7.293v.18h.146l-.026 2.294z" fill="#0CBDFF"/>
        <path fill-rule="evenodd" clip-rule="evenodd" d="M126.942 84.55v15.778h3.754a44.385 44.385 0 01-3.857 2.01 38.756 38.756 0 01-14.988 3.908h1.571V89.222h-1.932a46.916 46.916 0 0115.16-7.086 35.053 35.053 0 013.685-.748l-3.436.602.043 2.56z" fill="#0CBEFF"/>
        <path fill-rule="evenodd" clip-rule="evenodd" d="M126.942 84.807v15.298h3.522a49.05 49.05 0 01-3.737 1.958 37.671 37.671 0 01-14.602 3.788h1.254v-16.5h-1.614a44.112 44.112 0 017.155-4.106 44.632 44.632 0 017.73-2.783 32.63 32.63 0 013.582-.721l-3.213.249-.077 2.817z" fill="#0BBFFF"/>
        <path fill-rule="evenodd" clip-rule="evenodd" d="M126.942 85.065v14.85h3.298a43.715 43.715 0 01-3.633 1.899 36.5 36.5 0 01-14.13 3.668h.945V89.48h-1.288a44.296 44.296 0 0114.327-6.683 33.01 33.01 0 013.436-.713h-2.998l.043 2.98z" fill="#0BC0FF"/>
        <path fill-rule="evenodd" clip-rule="evenodd" d="M126.942 85.33v14.397h3.075a46.87 46.87 0 01-3.522 1.838 35.415 35.415 0 01-13.7 3.573h.627V93.972h-5.849a35.504 35.504 0 0111.535-8.246 35.471 35.471 0 0113.743-3.573h-5.875l-.034 3.178z" fill="#0BC1FF"/>
        <path fill-rule="evenodd" clip-rule="evenodd" d="M126.942 85.589v12.025h5.884a40.08 40.08 0 01-6.451 3.736 34.244 34.244 0 01-13.27 3.436h.317V93.938h-5.377a34.362 34.362 0 0111.167-7.946 34.175 34.175 0 0113.27-3.435h-5.557l.017 3.032z" fill="#0AC2FF"/>
        <path fill-rule="evenodd" clip-rule="evenodd" d="M126.942 85.846v11.605h5.566a39.393 39.393 0 01-6.244 3.616 33.201 33.201 0 01-12.885 3.35 12.337 12.337 0 01-4.689-.687h4.689v-9.8h-4.896a33.2 33.2 0 0110.814-7.731 33.166 33.166 0 0112.885-3.342h-5.249l.009 2.99z" fill="#0AC3FF"/>
        <path fill-rule="evenodd" clip-rule="evenodd" d="M126.942 86.104v11.218h5.24a38.753 38.753 0 01-6.013 3.504 32.221 32.221 0 01-12.403 3.23 11.875 11.875 0 01-4.527-.662h4.218v-9.448h-4.424a35.562 35.562 0 0122.874-10.677h-4.93l-.035 2.835z" fill="#0AC4FF"/>
        <path fill-rule="evenodd" clip-rule="evenodd" d="M126.942 86.37v10.823h4.913a35.884 35.884 0 01-5.823 3.384 31.12 31.12 0 01-12.026 3.127 11.668 11.668 0 01-4.372-.644h3.754v-9.148h-3.917a30.93 30.93 0 0110.093-7.181 31.108 31.108 0 0112.025-3.126h-4.621l-.026 2.765z" fill="#09C5FF"/>
        <path fill-rule="evenodd" clip-rule="evenodd" d="M126.942 86.628v10.445h4.595a35.703 35.703 0 01-5.617 3.255c-8.323 3.883-16.457 4.037-18.175.352h5.677v-6.777h-3.436a33.115 33.115 0 0121.268-9.895h-4.295l-.017 2.62z" fill="#09C6FF"/>
        <path fill-rule="evenodd" clip-rule="evenodd" d="M126.942 86.886v10.058h4.295a33.491 33.491 0 01-5.412 3.135c-8.005 3.736-15.839 3.891-17.496.344h5.153v-6.529h-2.989a31.851 31.851 0 0120.452-9.568h-3.995l-.008 2.56z" fill="#09C7FF"/>
        <path fill-rule="evenodd" clip-rule="evenodd" d="M126.942 87.152v9.663h3.943a32.28 32.28 0 01-5.197 3.015c-7.73 3.599-15.238 3.745-16.827.326h4.561v-6.27h-2.516a30.515 30.515 0 0119.755-9.2h-3.685l-.034 2.466z" fill="#08C8FF"/>
        <path fill-rule="evenodd" clip-rule="evenodd" d="M126.942 87.444v9.276h3.625a31.472 31.472 0 01-4.999 2.904c-7.387 3.435-14.602 3.582-16.148.309-1.547-3.273 3.221-8.727 10.616-12.18a26.627 26.627 0 0110.307-2.68h-3.367l-.034 2.37z" fill="#08C9FF"/>
        <path fill-rule="evenodd" clip-rule="evenodd" d="M126.942 87.667v8.899h3.298a29.88 29.88 0 01-4.784 2.774c-7.086 3.307-14.018 3.436-15.461.301-1.443-3.135 3.092-8.366 10.17-11.673a25.384 25.384 0 019.852-2.577h-3.058l-.017 2.276z" fill="#07CAFF"/>
        <path fill-rule="evenodd" clip-rule="evenodd" d="M126.942 87.925v8.512h2.972a28.63 28.63 0 01-4.57 2.654c-6.777 3.161-13.408 3.29-14.808.284-1.4-3.007 2.955-7.997 9.732-11.167a24.325 24.325 0 019.448-2.456h-2.74l-.034 2.173z" fill="#07CBFF"/>
        <path fill-rule="evenodd" clip-rule="evenodd" d="M126.942 88.191v5.266h5.858a23.104 23.104 0 01-7.576 5.385c-6.467 3.024-12.798 3.144-14.129.275-1.332-2.869 2.817-7.636 9.285-10.66a23.237 23.237 0 018.993-2.336h-2.431v2.07z" fill="#07CCFF"/>
        <path fill-rule="evenodd" clip-rule="evenodd" d="M126.942 88.449v5.008h5.377a22.327 22.327 0 01-7.207 5.153c-6.158 2.869-12.188 2.989-13.459.258-1.271-2.732 2.68-7.275 8.847-10.153a22.245 22.245 0 018.589-2.233h-2.121l-.026 1.967z" fill="#06CDFF"/>
        <path fill-rule="evenodd" clip-rule="evenodd" d="M126.942 88.707v4.75h4.905a21.035 21.035 0 01-6.872 4.87c-5.849 2.731-11.578 2.843-12.789.24-1.212-2.602 2.576-6.871 8.409-9.637a21.025 21.025 0 018.134-2.122h-1.804l.017 1.899z" fill="#06CEFF"/>
        <path fill-rule="evenodd" clip-rule="evenodd" d="M126.942 88.973v4.484h4.432a20.046 20.046 0 01-6.493 4.612c-5.549 2.577-10.969 2.689-12.12.232-1.151-2.457 2.422-6.545 7.962-9.13 5.541-2.586 10.978-2.698 12.12-.233l-5.901.035z" fill="#06CFFF"/>
        <path fill-rule="evenodd" clip-rule="evenodd" d="M126.942 89.23v4.295h3.951a18.848 18.848 0 01-6.133 4.355c-5.231 2.448-10.359 2.577-11.441.223-1.082-2.353 2.285-6.184 7.524-8.59 5.24-2.404 10.359-2.576 11.441-.222l-5.342-.06z" fill="#05D0FF"/>
        <path fill-rule="evenodd" clip-rule="evenodd" d="M131.727 89.488c1.022 2.19-2.148 5.824-7.078 8.117-4.93 2.294-9.749 2.397-10.771.215-1.022-2.182 2.156-5.824 7.077-8.126 4.922-2.302 9.749-2.387 10.772-.206z" fill="#05D1FF"/>
        <path fill-rule="evenodd" clip-rule="evenodd" d="M131.168 89.754c.953 2.045-2.01 5.455-6.631 7.61-4.621 2.157-9.148 2.243-10.101.19-.954-2.053 2.018-5.454 6.639-7.61 4.622-2.156 9.14-2.242 10.093-.19z" fill="#05D2FF"/>
        <path fill-rule="evenodd" clip-rule="evenodd" d="M130.61 90.02c.858 1.908-1.882 5.094-6.193 7.104-4.312 2.01-8.53 2.096-9.449.18-.919-1.915 1.881-5.093 6.193-7.103 4.312-2.01 8.555-2.104 9.449-.18z" fill="#04D3FF"/>
        <path fill-rule="evenodd" clip-rule="evenodd" d="M130.086 90.27c.859 1.778-1.718 4.733-5.747 6.597-4.028 1.864-7.928 1.94-8.752.171-.825-1.769 1.718-4.732 5.755-6.596 4.037-1.864 7.885-1.95 8.744-.172z" fill="#04D4FF"/>
        <path fill-rule="evenodd" clip-rule="evenodd" d="M129.493 90.528c.764 1.64-1.606 4.372-5.308 6.09-3.702 1.717-7.31 1.795-8.074.154-.765-1.64 1.614-4.363 5.308-6.081 3.693-1.718 7.31-1.796 8.074-.163z" fill="#04D5FF"/>
        <path fill-rule="evenodd" clip-rule="evenodd" d="M128.935 90.794c.704 1.503-1.477 3.994-4.862 5.583-3.384 1.589-6.708 1.64-7.404.137-.696-1.503 1.478-4.002 4.862-5.583 3.384-1.58 6.708-1.64 7.404-.137z" fill="#03D6FF"/>
        <path fill-rule="evenodd" clip-rule="evenodd" d="M128.368 91.052c.635 1.365-1.349 3.633-4.432 5.076-3.084 1.443-6.09 1.494-6.726.129-.635-1.366 1.34-3.642 4.424-5.077 3.083-1.434 6.107-1.494 6.734-.129z" fill="#03D7FF"/>
        <path fill-rule="evenodd" clip-rule="evenodd" d="M127.827 91.31c.566 1.227-1.212 3.272-3.986 4.569-2.774 1.297-5.48 1.348-6.013.12-.532-1.228 1.212-3.281 3.977-4.57 2.766-1.288 5.446-1.348 6.022-.12z" fill="#03D8FF"/>
        <path fill-rule="evenodd" clip-rule="evenodd" d="M127.268 91.575c.507 1.091-1.073 2.904-3.538 4.055-2.466 1.15-4.879 1.194-5.386.103-.507-1.091 1.074-2.912 3.539-4.055 2.465-1.142 4.87-1.202 5.385-.103z" fill="#02D9FF"/>
        <path fill-rule="evenodd" clip-rule="evenodd" d="M126.71 91.833c.447.954-.945 2.577-3.101 3.548-2.156.97-4.295 1.048-4.707.094-.412-.953.936-2.577 3.092-3.556 2.156-.98 4.269-1.04 4.716-.086z" fill="#02DAFF"/>
        <path fill-rule="evenodd" clip-rule="evenodd" d="M126.152 92.09c.378.86-.808 2.183-2.654 3.05-1.847.868-3.659.86-4.037.078-.378-.782.799-2.182 2.654-3.05 1.855-.867 3.676-.893 4.037-.077z" fill="#02DBFF"/>
        <path fill-rule="evenodd" clip-rule="evenodd" d="M125.593 92.349c.318.687-.669 1.82-2.216 2.576-1.546.756-3.04.748-3.358.06-.318-.687.67-1.812 2.207-2.533 1.538-.722 3.05-.782 3.367-.103z" fill="#01DCFF"/>
        <path fill-rule="evenodd" clip-rule="evenodd" d="M125.035 92.598c.258.54-.541 1.451-1.769 2.027-1.228.575-2.439.6-2.697.051-.258-.55.541-1.451 1.769-2.027 1.229-.575 2.44-.584 2.697-.051z" fill="#01DDFF"/>
        <path fill-rule="evenodd" clip-rule="evenodd" d="M124.477 92.873c.189.412-.404 1.09-1.332 1.52-.927.43-1.82.447-2.018 0-.198-.447.404-1.09 1.331-1.52.928-.43 1.83-.413 2.019 0z" fill="#01DEFF"/>
        <path fill-rule="evenodd" clip-rule="evenodd" d="M123.919 93.13c.128.275-.267.73-.859 1.014-.593.283-1.22.3-1.349 0s.275-.722.859-1.014c.584-.292 1.22-.266 1.349 0z" fill="#00DFFF"/>
        <path fill-rule="evenodd" clip-rule="evenodd" d="M123.36 93.397c.069.137-.137.36-.438.506-.3.146-.61.146-.678 0-.069-.146.137-.36.446-.507.31-.145.61-.137.67 0z" fill="#00E0FF"/>
        <path fill-rule="evenodd" clip-rule="evenodd" d="M125.808 121.183l-.489-17.969-1.985-.008 4.879-8.641 4.845 8.52-2.276.146-1.246 17.952h-3.728z" fill="url(#paint8_linear)"/>
        <path fill-rule="evenodd" clip-rule="evenodd" d="M109.728 121.183l-1.262-17.969-1.976-.008 4.87-8.641 4.853 8.52-2.276.146-.489 17.952h-3.72z" fill="url(#paint9_radial)"/>
        <path d="M132.052 121.183H106.49v1.306h25.562v-1.306z" fill="#6D1748" opacity=".2"/>
        <path fill-rule="evenodd" clip-rule="evenodd" d="M123.661 74.671a10.22 10.22 0 01-9.831 3.25 10.212 10.212 0 114.78-19.853l-2.628 9.87 7.679 6.733z" fill="url(#paint10_linear)"/>
        <path fill-rule="evenodd" clip-rule="evenodd" d="M128.196 67.731a10.146 10.146 0 01-2.577 6.734l-7.679-6.734 9.319-4.183c.608 1.312.927 2.738.937 4.183z" fill="url(#paint11_radial)"/>
        <path fill-rule="evenodd" clip-rule="evenodd" d="M126.967 62.68l-9.319 4.15 2.628-9.87a10.233 10.233 0 016.691 5.72z" fill="url(#paint12_linear)"/>
        <path fill-rule="evenodd" clip-rule="evenodd" d="M178.556 41.267l80.998 58.451 2.164-58.614-83.162.163zM89.38 104.786l34.349 23.183-33.945.034-.404-23.217z" fill="#FBF9FA" opacity=".5"/>
        <path fill-rule="evenodd" clip-rule="evenodd" d="M213.145 76.14c-12.592 0-23.44 10.101-23.483 22.694-.043 11.484 9.242 23.346 23.311 23.397 14.843.06 23.81-12.686 23.493-23.191a23.608 23.608 0 00-23.321-22.9zm-.163 43.944a21.146 21.146 0 01-3.972-41.903 21.144 21.144 0 0121.676 9.071 21.157 21.157 0 011.881 19.849 21.146 21.146 0 01-19.585 12.983z" fill="url(#paint13_linear)"/>
        <path fill-rule="evenodd" clip-rule="evenodd" d="M205.226 119.835l.455 1.279a13.314 13.314 0 013.556 7.009h7.353s1.151-5.669 3.625-6.983l.532-1.28s-5.506 4.115-15.521-.025z" fill="url(#paint14_linear)"/>
        <path fill-rule="evenodd" clip-rule="evenodd" d="M209.469 121.149l-1.426 42.741 9.56.266-1.203-42.603a36.128 36.128 0 01-6.931-.404z" fill="url(#paint15_linear)"/>
        <path fill-rule="evenodd" clip-rule="evenodd" d="M213.154 74.354a23.433 23.433 0 1023.337 23.518 23.416 23.416 0 00-14.378-21.702 23.427 23.427 0 00-8.959-1.816zm-.172 44.819a21.394 21.394 0 01-14.994-36.583 21.394 21.394 0 0132.909 3.37 21.407 21.407 0 01-2.763 27.007 21.396 21.396 0 01-15.152 6.206z" fill="url(#paint16_linear)"/>
        <path fill-rule="evenodd" clip-rule="evenodd" d="M205.226 119.835a12.885 12.885 0 014.029 7.842 18.548 18.548 0 017.318 0s.507-4.965 4.174-7.817c0 .026-8.375 2.886-15.521-.025z" fill="url(#paint17_linear)"/>
        <path fill-rule="evenodd" clip-rule="evenodd" d="M198.251 79.628l1.177 1.065a22.334 22.334 0 0122.195-2.886l1.091-1.383a23.664 23.664 0 00-24.463 3.204zM209.504 126.955h6.794a15.378 15.378 0 013.144-6.476s-5.326 2.018-13.125-.052a14.694 14.694 0 013.187 6.528z" fill="#FBF9FA" opacity=".6"/>
        <path fill-rule="evenodd" clip-rule="evenodd" d="M208.043 163.89s5.154-2.371 9.56.266c0-.043-3.659 1.615-9.56-.266z" fill="url(#paint18_radial)"/>
        <path fill-rule="evenodd" clip-rule="evenodd" d="M208.043 163.89l.155-4.535s5.033-1.856 9.285.403l.12 4.398a11.51 11.51 0 00-9.56-.266z" fill="url(#paint19_radial)"/>
        <path style="mix-blend-mode:screen" opacity=".3" fill-rule="evenodd" clip-rule="evenodd" d="M213.79 127.694l.068 35.217s2.577.257 3.745 1.236l-1.03-36.41-2.783-.043z" fill="url(#paint20_linear)"/>
        <path fill-rule="evenodd" clip-rule="evenodd" d="M210.173 163.177a17.001 17.001 0 016.193.412 8.923 8.923 0 00-6.193-.412z" fill="#AA98C9"/>
        <path fill-rule="evenodd" clip-rule="evenodd" d="M209.254 127.677s3.917-1.289 7.319 0a27.425 27.425 0 00-7.319 0z" fill="url(#paint21_linear)"/>
        <path fill-rule="evenodd" clip-rule="evenodd" d="M209.469 152.088a82.674 82.674 0 01.473-13.468 86.435 86.435 0 01-.473 13.468z" fill="#fff"/>
        <path fill-rule="evenodd" clip-rule="evenodd" d="M289.161 18.41l-4.166 99.956-1.46 35.217a7.078 7.078 0 01-7.069 6.751H32.38a7.087 7.087 0 01-7.078-6.872L21 18.325a7.088 7.088 0 017.07-7.327h254.049a7.077 7.077 0 017.043 7.413z" fill="url(#paint22_linear)"/>
        <path fill-rule="evenodd" clip-rule="evenodd" d="M30.757 18.789l2.165 124.898 243.682-.24 4.466-125.165-250.313.507z" fill="url(#paint23_radial)"/>
        <path fill-rule="evenodd" clip-rule="evenodd" d="M25.294 153.497v-3.101l258.439-1.495-.215 4.673s.069 6.262-7.077 6.76H32.389s-6.846-.387-7.095-6.837z" fill="url(#paint24_radial)"/>
        <path fill-rule="evenodd" clip-rule="evenodd" d="M263.067 154.613a2.107 2.107 0 01-2.52 2.082 2.114 2.114 0 112.52-2.082z" fill="#FFFB00"/>
        <path fill-rule="evenodd" clip-rule="evenodd" d="M131.58 160.334l5.463 25.751h32.279l5.3-25.751H131.58z" fill="url(#paint25_linear)"/>
        <path fill-rule="evenodd" clip-rule="evenodd" d="M133.478 169.292l38.498 3.917 2.646-12.875H131.58l1.898 8.958z" fill="#401734" opacity=".5"/>
        <path d="M191.629 186.076H112.83v4.922h78.799v-4.922z" fill="url(#paint26_radial)"/>
        <path fill-rule="evenodd" clip-rule="evenodd" d="M191.629 186.085l-21.766-2.628h-33.378l-23.655 2.628h78.799z" fill="url(#paint27_radial)"/>
        <path fill-rule="evenodd" clip-rule="evenodd" d="M173.05 190.998v-4.913h17.196l-1.057 4.913H173.05zM289.17 18.41l-4.165 99.956-1.254 10.153-4.415-5.712 3.719-106.011H153.277l-5.806-5.798h134.648a7.082 7.082 0 016.614 4.607 7.06 7.06 0 01.437 2.806z" fill="#FBF9FA" opacity=".8"/>
        <path fill-rule="evenodd" clip-rule="evenodd" d="M161.042 18.522l116.894 84.349 3.135-84.59-120.029.241z" fill="#FBF9FA" opacity=".5"/>
        <path fill-rule="evenodd" clip-rule="evenodd" d="M23.654 101.479l7.103 4.965 1.246 38.077H93.34l14.232 15.813H32.389a7.19 7.19 0 01-7.095-5.721l-1.64-53.134z" fill="#FBF9FA" opacity=".8"/>
        <path fill-rule="evenodd" clip-rule="evenodd" d="M32.347 110.18l49.57 33.465-48.995.043-.575-33.508z" fill="#FBF9FA" opacity=".5"/>
        <path fill-rule="evenodd" clip-rule="evenodd" d="M48.4 143.688L45.428 26.871l217.991-1.443-4.458 118.01-210.56.25z" fill="url(#paint28_linear)"/>
        <path fill-rule="evenodd" clip-rule="evenodd" d="M45.428 26.871v11.356H262.93l.489-12.799-217.99 1.443z" fill="#6D1748" opacity=".2"/>
        <g style="mix-blend-mode:multiply" opacity=".2">
            <path d="M168.377 65.764H90.711v1.761h77.666v-1.76zM142.093 57.475H90.711v1.761h51.382v-1.76zM142.093 61.675H90.711v1.761h51.382v-1.76zM152.014 61.564H145.4v1.76h6.614v-1.76z" fill="#6D1748" opacity=".2"/>
        </g>
        <path d="M135.368 45.45H90.711v9.93h44.657v-9.93z" fill="#6D1748" opacity=".2"/>
        <g style="mix-blend-mode:multiply" opacity=".2">
            <path d="M251.635 29.963l1.52-1.528 5.137 6.02-.765.765-5.892-5.256z" fill="#401734" opacity=".2"/>
            <path d="M257.209 28.435l1.521 1.529-6.013 5.127-.764-.755 5.256-5.901z" fill="#401734" opacity=".2"/>
        </g>
        <path fill-rule="evenodd" clip-rule="evenodd" d="M104.704 109.802l-.541 1.074 28.448-11.27 23.483 7.929 21.104-32.048 27.358 34.899 39.829-43.522 1.563 1.563.825-10.42-9.483 3.162 1.211.876-33.662 41.676-27.641-33.078-21.971 34.143-22.771-6.605-27.752 11.621z" fill="url(#paint29_linear)"/>
        <path d="M111.747 134.196h-6.665v-21.894l6.665-2.792v24.686zM125.911 134.196h-6.674v-27.065l6.674-2.792v29.857zM140.067 134.196h-6.674v-31.935l6.674 2.508v29.427zM154.222 134.196h-6.665v-27.684l6.665 2.251v25.433zM168.377 134.196h-6.665v-31.935l6.665-10.248v42.183zM182.533 134.196h-6.666V80.839l1.306-2.5 5.36 7.043v48.814zM196.688 134.196h-6.666V94.341l6.666 9.337v30.518zM210.843 134.196h-6.665V113.1l6.665-6.837v27.933zM224.999 134.196h-6.666V98.61l6.666-8.443v44.029zM239.163 134.196h-6.674V81.509l6.674-8.006v60.693zM244.153 134.196h-141.82v1.83h141.82v-1.83z" fill="#6D1748" opacity=".2"/>
        <path d="M85.317 78.528H68.276v55.325h17.041V78.528z" fill="#1F84FF"/>
        <path fill-rule="evenodd" clip-rule="evenodd" d="M86.168 77.67v52.635h2.078a193.016 193.016 0 01-7.593 2.938 163.549 163.549 0 01-14.79 4.569l1.52-3.126V77.669h18.785z" fill="#1F84FF"/>
        <path fill-rule="evenodd" clip-rule="evenodd" d="M86.168 77.67v52.249h1.992a172.37 172.37 0 01-7.507 2.894 160.988 160.988 0 01-14.602 4.527l1.332-2.654V77.669h18.785z" fill="#1F85FF"/>
        <path fill-rule="evenodd" clip-rule="evenodd" d="M86.168 77.67v51.862h1.907a178.118 178.118 0 01-7.422 2.869 161.183 161.183 0 01-14.473 4.475l1.203-2.19V77.669h18.785z" fill="#1E86FF"/>
        <path fill-rule="evenodd" clip-rule="evenodd" d="M86.168 77.67v51.458h1.83a171.143 171.143 0 01-7.336 2.835c-4.862 1.718-9.646 3.23-14.31 4.423l1.03-1.7V77.669h18.786z" fill="#1E87FF"/>
        <path fill-rule="evenodd" clip-rule="evenodd" d="M86.167 77.67v51.063h1.718a164.107 164.107 0 01-7.258 2.809c-4.801 1.718-9.543 3.187-14.146 4.372l.901-1.228V77.669h18.785z" fill="#1E88FF"/>
        <path fill-rule="evenodd" clip-rule="evenodd" d="M86.168 77.67v50.677h1.657a160.248 160.248 0 01-7.172 2.774c-4.75 1.718-9.448 3.161-13.992 4.295l.722-.73V77.669h18.785z" fill="#1D89FF"/>
        <path fill-rule="evenodd" clip-rule="evenodd" d="M86.168 77.67v50.282h1.572c-2.371.979-4.742 1.889-7.087 2.74-4.698 1.718-9.328 3.118-13.829 4.294l.558-.3V77.669h18.786z" fill="#1D8AFF"/>
        <path fill-rule="evenodd" clip-rule="evenodd" d="M86.168 77.67v49.887h1.494c-2.354.973-4.69 1.875-7.009 2.705-4.647 1.718-9.216 3.084-13.666 4.226h.395V77.669h18.785z" fill="#1D8BFF"/>
        <path fill-rule="evenodd" clip-rule="evenodd" d="M86.168 77.67v49.491h1.408a130.21 130.21 0 01-6.923 2.68 149.556 149.556 0 01-13.51 4.175h.24V77.669h18.785z" fill="#1C8CFF"/>
        <path fill-rule="evenodd" clip-rule="evenodd" d="M86.168 77.67v49.096h1.322c-2.293.954-4.578 1.83-6.871 2.646a146.388 146.388 0 01-13.348 4.131h.112v-55.83l18.785-.044z" fill="#1C8DFF"/>
        <path fill-rule="evenodd" clip-rule="evenodd" d="M86.168 77.67v48.71h1.245c-2.267.927-4.526 1.804-6.768 2.577a144.665 144.665 0 01-16.38 4.853h3.118V77.67h18.785z" fill="#1C8EFF"/>
        <path fill-rule="evenodd" clip-rule="evenodd" d="M86.167 77.67v48.315h1.16a174.27 174.27 0 01-6.683 2.577 144.026 144.026 0 01-13.021 4.028 110.46 110.46 0 01-3.161.773h2.92V77.669h18.785z" fill="#1B8FFF"/>
        <path fill-rule="evenodd" clip-rule="evenodd" d="M86.168 77.67v47.92h1.073c-2.21.91-4.41 1.769-6.597 2.576a140.593 140.593 0 01-12.884 3.977 131.372 131.372 0 01-6.193 1.426h5.815V77.738l18.785-.069z" fill="#1B90FF"/>
        <path fill-rule="evenodd" clip-rule="evenodd" d="M86.167 77.67v47.567h.971a141.372 141.372 0 01-6.51 2.517 139.509 139.509 0 01-12.704 3.926 120.54 120.54 0 01-6.108 1.408h5.566V77.669h18.785z" fill="#1B91FF"/>
        <path fill-rule="evenodd" clip-rule="evenodd" d="M86.168 77.67v47.129h.91c-2.156.859-4.295 1.718-6.434 2.491a141.879 141.879 0 01-12.54 3.874c-2.044.521-4.049.985-6.013 1.392h5.291V77.669h18.785z" fill="#1A92FF"/>
        <path fill-rule="evenodd" clip-rule="evenodd" d="M86.167 77.67v46.708h.86c-2.13.877-4.247 1.693-6.348 2.448a137.495 137.495 0 01-12.378 3.831c-2.018.516-4.01.971-5.96 1.366h5.041V77.669h18.785z" fill="#1A93FF"/>
        <path fill-rule="evenodd" clip-rule="evenodd" d="M86.168 77.67v46.382h.738a148.7 148.7 0 01-6.261 2.422 136.378 136.378 0 01-12.223 3.78 117 117 0 01-5.875 1.348h4.836V77.669h18.785z" fill="#1A94FF"/>
        <path fill-rule="evenodd" clip-rule="evenodd" d="M86.168 77.67v45.953h.661c-2.079.859-4.14 1.649-6.184 2.387a135.219 135.219 0 01-12.026 3.728c-1.964.504-3.9.951-5.806 1.34h4.57V77.669h18.785z" fill="#1995FF"/>
        <path fill-rule="evenodd" clip-rule="evenodd" d="M86.168 77.67v45.523h.575a152.696 152.696 0 01-6.098 2.362 135.085 135.085 0 01-11.905 3.676 109.95 109.95 0 01-5.721 1.315h4.363V77.669h18.786z" fill="#1996FF"/>
        <path fill-rule="evenodd" clip-rule="evenodd" d="M86.168 77.67v45.162h.49c-2.02.859-4.02 1.615-6.013 2.328a130.877 130.877 0 01-11.742 3.633c-1.907.49-3.797.92-5.652 1.297h4.131V77.695l18.786-.026z" fill="#1997FF"/>
        <path fill-rule="evenodd" clip-rule="evenodd" d="M86.168 77.67v44.776h.412a164.555 164.555 0 01-5.944 2.293c-3.925 1.417-7.799 2.577-11.57 3.573-1.89.49-3.745.911-5.574 1.289h3.89V77.669h18.786z" fill="#1898FF"/>
        <path fill-rule="evenodd" clip-rule="evenodd" d="M86.168 77.67v44.381h.326a134.948 134.948 0 01-5.858 2.259c-3.874 1.4-7.73 2.577-11.415 3.53a102.2 102.2 0 01-5.49 1.263h3.651V77.669h18.785z" fill="#1899FF"/>
        <path fill-rule="evenodd" clip-rule="evenodd" d="M86.168 77.67v43.986h.24a138.87 138.87 0 01-5.772 2.233c-3.822 1.374-7.584 2.534-11.252 3.436-1.83.472-3.642.859-5.42 1.245H67.4v-50.9h18.767z" fill="#189AFF"/>
        <path fill-rule="evenodd" clip-rule="evenodd" d="M86.168 77.67v41.074h5.9a130.848 130.848 0 01-22.52 8.151c-1.816.458-3.597.868-5.343 1.228h3.178V77.669h18.785z" fill="#179BFF"/>
        <path fill-rule="evenodd" clip-rule="evenodd" d="M86.168 77.67v40.696h5.729a128.953 128.953 0 01-22.195 8.031c-1.778.455-3.54.859-5.257 1.211h2.937V77.669h18.785z" fill="#179CFF"/>
        <path fill-rule="evenodd" clip-rule="evenodd" d="M86.168 77.67v40.369h5.566a126.33 126.33 0 01-21.869 7.92 95.7 95.7 0 01-5.154 1.194h2.672V77.669h18.785z" fill="#169DFF"/>
        <path fill-rule="evenodd" clip-rule="evenodd" d="M86.168 77.67v40h5.394a125.096 125.096 0 01-21.542 7.799c-1.718.438-3.436.859-5.102 1.169h2.465v-48.96l18.785-.009z" fill="#169EFF"/>
        <path fill-rule="evenodd" clip-rule="evenodd" d="M86.168 77.67v39.639h5.265a122.07 122.07 0 01-21.216 7.679c-1.718.438-3.384.859-5.033 1.16h2.198V77.669h18.786z" fill="#169FFF"/>
        <path fill-rule="evenodd" clip-rule="evenodd" d="M86.168 77.67v39.287h5.067a120.914 120.914 0 01-20.89 7.559 122.45 122.45 0 01-4.955 1.142h1.992V77.669h18.785z" fill="#15A0FF"/>
        <path fill-rule="evenodd" clip-rule="evenodd" d="M86.168 77.67v38.926h4.896a118.299 118.299 0 01-20.563 7.447c-1.65.421-3.273.799-4.87 1.117h1.752V77.67h18.785z" fill="#15A1FF"/>
        <path fill-rule="evenodd" clip-rule="evenodd" d="M86.168 77.67v38.574H90.9a117.038 117.038 0 01-20.236 7.318 96.515 96.515 0 01-4.802 1.109h1.52V77.669h18.786z" fill="#15A2FF"/>
        <path fill-rule="evenodd" clip-rule="evenodd" d="M86.167 77.67v38.214h4.561a115.327 115.327 0 01-19.91 7.206 88.508 88.508 0 01-9.276 1.89h5.84V77.67h18.785z" fill="#14A3FF"/>
        <path fill-rule="evenodd" clip-rule="evenodd" d="M86.168 77.67v37.861h4.406a113.421 113.421 0 01-19.593 7.13 88.494 88.494 0 01-9.122 1.855h5.523V77.669h18.785z" fill="#14A4FF"/>
        <path fill-rule="evenodd" clip-rule="evenodd" d="M86.168 77.67v37.501h4.234a112.034 112.034 0 01-19.257 6.974 87.61 87.61 0 01-8.976 1.821h5.214V77.669h18.785z" fill="#14A5FF"/>
        <path fill-rule="evenodd" clip-rule="evenodd" d="M86.168 77.67v37.148h4.062a109.05 109.05 0 01-18.897 6.872 83.821 83.821 0 01-8.82 1.795h4.87V78.236h-5.67c2.912-1.718 6.013-3.307 9.208-4.81v4.243h15.246z" fill="#13A6FF"/>
        <path fill-rule="evenodd" clip-rule="evenodd" d="M86.168 77.67v36.788h3.9a107.571 107.571 0 01-18.605 6.734 83.545 83.545 0 01-8.667 1.761h4.587V78.511H62.04a115.745 115.745 0 019.053-4.733v3.891h15.075z" fill="#13A7FF"/>
        <path fill-rule="evenodd" clip-rule="evenodd" d="M86.168 77.67v36.401h3.736a105.79 105.79 0 01-18.278 6.614 85.184 85.184 0 01-8.521 1.718H67.4V78.786h-5.034c2.809-1.64 5.78-3.195 8.89-4.647v3.53h14.912z" fill="#13A8FF"/>
        <path fill-rule="evenodd" clip-rule="evenodd" d="M86.168 77.67v36.075h3.547a103.419 103.419 0 01-17.952 6.493 81.077 81.077 0 01-8.366 1.718h3.985V79.061h-4.698A111.242 111.242 0 0171.42 74.5v3.17h14.748z" fill="#12A9FF"/>
        <path fill-rule="evenodd" clip-rule="evenodd" d="M86.168 77.67v35.714h3.436a102.099 102.099 0 01-17.626 6.382 78.066 78.066 0 01-8.211 1.666h3.616V79.344H63.01a107.424 107.424 0 018.59-4.475v2.817l14.567-.017z" fill="#12AAFF"/>
        <path fill-rule="evenodd" clip-rule="evenodd" d="M86.168 77.67v35.362h3.23a99.73 99.73 0 01-17.3 6.262 77.51 77.51 0 01-8.057 1.632h3.341V79.602h-4.045a107.47 107.47 0 018.418-4.39v2.457h14.413z" fill="#12ABFF"/>
        <path fill-rule="evenodd" clip-rule="evenodd" d="M86.167 77.67v35.001h3.067a98.325 98.325 0 01-16.973 6.15 78.885 78.885 0 01-7.91 1.606h3.031v-40.55h-3.719a98.164 98.164 0 018.263-4.295v2.104l14.241-.017z" fill="#11ACFF"/>
        <path fill-rule="evenodd" clip-rule="evenodd" d="M86.168 77.67v34.683h2.903a95.927 95.927 0 01-16.647 6.013 76.203 76.203 0 01-7.73 1.58h2.688V80.152h-3.435a105.497 105.497 0 018.1-4.227v1.718l14.12.026z" fill="#11ADFF"/>
        <path fill-rule="evenodd" clip-rule="evenodd" d="M86.167 77.67v34.288H88.9a93.878 93.878 0 01-16.32 5.91 75.071 75.071 0 01-7.602 1.546h2.405V80.426h-3.066a98.341 98.341 0 017.936-4.148v1.391h13.915z" fill="#11AEFF"/>
        <path fill-rule="evenodd" clip-rule="evenodd" d="M86.168 77.67v33.936h2.576a92.915 92.915 0 01-15.993 5.789 73.912 73.912 0 01-7.456 1.512h2.088V80.701h-2.74a95.948 95.948 0 017.782-4.063v1.031h13.743z" fill="#10AFFF"/>
        <path fill-rule="evenodd" clip-rule="evenodd" d="M86.168 77.67v33.575h2.405a90.55 90.55 0 01-15.667 5.669 71.442 71.442 0 01-7.301 1.486h1.778V80.976H64.96c2.423-1.4 5-2.74 7.628-3.985v.678h13.58z" fill="#10B0FF"/>
        <path fill-rule="evenodd" clip-rule="evenodd" d="M86.168 77.67v33.223H88.4a89.125 89.125 0 01-15.341 5.549 67.635 67.635 0 01-7.146 1.451h1.468V81.251h-2.095a95.316 95.316 0 017.472-3.9v.318h13.409z" fill="#10B1FF"/>
        <path fill-rule="evenodd" clip-rule="evenodd" d="M86.168 77.67v32.862h2.07a86.581 86.581 0 01-15.015 5.437 66.985 66.985 0 01-7 1.418h1.16V81.526h-1.804a86.578 86.578 0 017.31-3.822 87.244 87.244 0 0115.014-5.429l-1.736 5.394z" fill="#0FB3FF"/>
        <path fill-rule="evenodd" clip-rule="evenodd" d="M86.168 77.67v32.51h1.898a84.5 84.5 0 01-14.67 5.308 64.027 64.027 0 01-6.873 1.392h.86V81.792h-1.444a89.073 89.073 0 017.147-3.728 85.2 85.2 0 0114.688-5.317l-1.606 4.922z" fill="#0FB4FF"/>
        <path fill-rule="evenodd" clip-rule="evenodd" d="M86.168 77.67v32.149h1.718a82.34 82.34 0 01-14.362 5.154 62.97 62.97 0 01-6.691 1.357h.55V82.067h-1.117a86.103 86.103 0 016.992-3.642 82.855 82.855 0 0114.361-5.205l-1.451 4.45z" fill="#0FB5FF"/>
        <path fill-rule="evenodd" clip-rule="evenodd" d="M86.168 77.996v31.497h1.571a82.036 82.036 0 01-14.035 5.076 63.968 63.968 0 01-6.545 1.332h.223V82.402h-.859a80.403 80.403 0 016.872-3.565 80.44 80.44 0 0114.06-5.136l-1.287 3.968v.327z" fill="#0EB6FF"/>
        <path fill-rule="evenodd" clip-rule="evenodd" d="M86.168 78.348v30.758h1.4c-9.337 4.355-18.57 6.623-25.949 6.76h5.764v-33.25h-.498c2.104-1.228 4.294-2.396 6.665-3.435a78.842 78.842 0 0113.743-4.965l-1.125 3.496v.636z" fill="#0EB7FF"/>
        <path fill-rule="evenodd" clip-rule="evenodd" d="M86.168 78.726v30.063h1.236c-9.113 4.294-18.132 6.468-25.338 6.605h5.317V86.637h-5.936a77.108 77.108 0 0112.309-7.147 78.11 78.11 0 0113.382-4.844l-.97 3.023v1.057z" fill="#0EB8FF"/>
        <path fill-rule="evenodd" clip-rule="evenodd" d="M86.168 79.104v29.29h1.073c-8.898 4.148-17.694 6.304-24.72 6.442h4.862v-28.02H61.91a77.89 77.89 0 0125.064-11.69l-.807 2.578v1.4z" fill="#0DB9FF"/>
        <path fill-rule="evenodd" clip-rule="evenodd" d="M86.168 79.473v28.586h.859c-8.667 4.045-17.24 6.15-24.102 6.278h4.458v-27.34h-5.008A75.965 75.965 0 0186.82 75.6l-.652 2.07v1.804z" fill="#0DBAFF"/>
        <path fill-rule="evenodd" clip-rule="evenodd" d="M86.168 79.85v27.831h.738c-8.452 3.942-16.8 6.012-23.483 6.115h3.96V87.169h-4.536a74.212 74.212 0 0123.81-11.097l-.49 1.597v2.182z" fill="#0DBBFF"/>
        <path fill-rule="evenodd" clip-rule="evenodd" d="M86.168 80.229v27.091h.566c-8.22 3.839-16.32 5.832-22.856 5.961h3.504V87.367h-4.071a71.912 71.912 0 0123.191-10.823l-.326 1.125-.008 2.56z" fill="#0CBCFF"/>
        <path fill-rule="evenodd" clip-rule="evenodd" d="M86.168 80.573v26.369h.403c-8.005 3.728-15.916 5.669-22.246 5.798h3.057V87.547h-3.607a70.202 70.202 0 0122.564-10.522l-.171.644v2.904z" fill="#0CBDFF"/>
        <path fill-rule="evenodd" clip-rule="evenodd" d="M86.168 80.976v25.631h.24c-7.782 3.633-15.46 5.523-21.628 5.635h2.603V87.727h-3.135a67.97 67.97 0 0121.928-10.23v3.436l-.008.043z" fill="#0CBEFF"/>
        <path fill-rule="evenodd" clip-rule="evenodd" d="M86.168 81.354v24.909h.111c-7.558 3.522-15.031 5.36-21.01 5.472h2.114V87.916H64.71a63.94 63.94 0 0110.205-5.926 64.988 64.988 0 0111.097-3.994 50.168 50.168 0 015.154-1.048l-5.016.747.017 3.66z" fill="#0BBFFF"/>
        <path fill-rule="evenodd" clip-rule="evenodd" d="M86.168 81.732v21.422h5.153a66.665 66.665 0 01-5.24 2.74c-7.334 3.436-14.601 5.205-20.39 5.317h1.718V88.097h-2.234a62.99 62.99 0 019.938-5.755 62.029 62.029 0 0110.771-3.891 46.864 46.864 0 015.017-1.022l-4.707.24-.026 4.063z" fill="#0BC0FF"/>
        <path fill-rule="evenodd" clip-rule="evenodd" d="M86.168 82.101v20.804h4.818a65.417 65.417 0 01-5.085 2.654c-7.112 3.316-14.147 5.042-19.755 5.154h1.236v-22.41h-1.717a62.204 62.204 0 0120.03-9.38 45.791 45.791 0 014.879-.987h-4.406V82.1z" fill="#0BC1FF"/>
        <path fill-rule="evenodd" clip-rule="evenodd" d="M86.168 82.48v20.133h4.492a67.162 67.162 0 01-4.922 2.577c-6.871 3.212-13.743 4.887-19.154 4.99h.859V88.457H66.11a60.764 60.764 0 0119.43-9.061 47.155 47.155 0 014.707-.954h-4.08v4.037z" fill="#0AC2FF"/>
        <path fill-rule="evenodd" clip-rule="evenodd" d="M86.168 82.857v19.481h4.174c-1.512.859-3.1 1.718-4.767 2.482-6.674 3.118-13.27 4.733-18.545 4.836h.352v-21.01h-.859a58.462 58.462 0 0118.897-8.778c1.572-.395 3.101-.704 4.561-.919h-3.813v3.908z" fill="#0AC3FF"/>
        <path fill-rule="evenodd" clip-rule="evenodd" d="M86.168 83.227v18.819h3.848a55.422 55.422 0 01-4.613 2.405c-6.442 3.006-12.815 4.57-17.917 4.673a22.396 22.396 0 01-3.54-.206h3.436V88.827h-.369a54.218 54.218 0 018.701-5.05 55.336 55.336 0 019.449-3.436c1.456-.363 2.93-.65 4.415-.86h-3.436l.026 3.746z" fill="#0AC4FF"/>
        <path fill-rule="evenodd" clip-rule="evenodd" d="M86.168 83.604v18.184h3.547c-1.409.859-2.895 1.598-4.45 2.319-6.227 2.904-12.377 4.415-17.299 4.51a16.668 16.668 0 01-6.313-.919h5.73v-15.96H64.11a42.024 42.024 0 013.436-2.705 54.517 54.517 0 0117.548-8.186 41.99 41.99 0 014.295-.859h-3.221v3.616z" fill="#09C5FF"/>
        <path fill-rule="evenodd" clip-rule="evenodd" d="M86.168 84.008v17.531h3.195a54.09 54.09 0 01-4.295 2.242c-6.013 2.8-11.94 4.295-16.69 4.346a16.211 16.211 0 01-6.08-.859h5.084v-12.79h-5.35c3.117-3.598 8.047-7.189 14.052-9.989a51.331 51.331 0 018.812-3.195 51.687 51.687 0 014.106-.859h-2.834v3.573z" fill="#09C6FF"/>
        <path fill-rule="evenodd" clip-rule="evenodd" d="M86.167 84.36v16.879h2.87a49.286 49.286 0 01-4.132 2.156c-5.78 2.697-11.493 4.105-16.063 4.191a15.541 15.541 0 01-5.866-.859h4.406V94.461h-4.664c3.007-3.435 7.73-6.923 13.529-9.62a48.91 48.91 0 018.486-3.066 38.648 38.648 0 013.96-.808h-2.526v3.393z" fill="#09C7FF"/>
        <path fill-rule="evenodd" clip-rule="evenodd" d="M86.168 84.73v16.234h2.577a49.72 49.72 0 01-3.969 2.078 39.779 39.779 0 01-15.46 4.02 14.924 14.924 0 01-5.635-.859h3.702v-11.75h-3.977c2.886-3.316 7.455-6.657 13.013-9.251a39.96 39.96 0 0115.46-4.028h-5.711v3.556z" fill="#08C8FF"/>
        <path fill-rule="evenodd" clip-rule="evenodd" d="M86.168 85.108v13.39h5.608a45.027 45.027 0 01-7.215 4.184 38.243 38.243 0 01-14.825 3.865 14.324 14.324 0 01-5.411-.79h3.057V94.436h-3.29a38.437 38.437 0 0112.49-8.882 38.568 38.568 0 0114.85-3.865h-5.264v3.419z" fill="#08C9FF"/>
        <path fill-rule="evenodd" clip-rule="evenodd" d="M86.168 85.486v12.832h5.153a43.03 43.03 0 01-6.871 4.011c-10.222 4.768-20.228 4.957-22.333.43h5.265v-8.332h-2.576a36.684 36.684 0 0111.973-8.512 36.687 36.687 0 0114.207-3.702h-4.818v3.273z" fill="#07CAFF"/>
        <path fill-rule="evenodd" clip-rule="evenodd" d="M86.168 85.855v12.283h4.68a42.15 42.15 0 01-6.605 3.831c-9.783 4.561-19.351 4.75-21.37.412h4.51V94.41h-1.916a35.302 35.302 0 0111.45-8.143 35.216 35.216 0 0113.597-3.539h-4.346v3.127z" fill="#07CBFF"/>
        <path fill-rule="evenodd" clip-rule="evenodd" d="M86.168 86.233v11.724h4.208a39.357 39.357 0 01-6.304 3.66c-9.337 4.354-18.468 4.526-20.4.386-1.933-4.14 4.071-11.02 13.408-15.375a33.628 33.628 0 0112.978-3.384h-3.89v2.989z" fill="#07CCFF"/>
        <path fill-rule="evenodd" clip-rule="evenodd" d="M86.167 86.585v11.166h3.745a37.846 37.846 0 01-6.012 3.488c-8.89 4.148-17.591 4.294-19.43.377-1.838-3.916 3.883-10.504 12.773-14.653a31.834 31.834 0 0112.36-3.212h-3.436v2.834z" fill="#06CDFF"/>
        <path fill-rule="evenodd" clip-rule="evenodd" d="M86.168 86.989v10.6h3.28a36.2 36.2 0 01-5.703 3.315c-8.452 3.934-16.715 4.097-18.458.352-1.744-3.745 3.685-9.972 12.128-13.915a30.346 30.346 0 0111.742-3.058h-2.99v2.706z" fill="#06CEFF"/>
        <path fill-rule="evenodd" clip-rule="evenodd" d="M86.168 87.358v10.05h2.808a34.093 34.093 0 01-5.402 3.135c-7.997 3.736-15.83 3.882-17.48.335-1.649-3.548 3.488-9.449 11.493-13.176A28.613 28.613 0 0188.7 84.798h-2.533v2.56z" fill="#06CFFF"/>
        <path fill-rule="evenodd" clip-rule="evenodd" d="M86.168 87.736v9.448h2.344a32.074 32.074 0 01-5.102 2.955c-7.558 3.53-14.954 3.676-16.517.327-1.563-3.35 3.298-8.925 10.857-12.455a27.254 27.254 0 0110.505-2.697h-2.087v2.422z" fill="#05D0FF"/>
        <path fill-rule="evenodd" clip-rule="evenodd" d="M86.167 88.114v5.798h5.403a25.665 25.665 0 01-8.332 5.918c-7.112 3.315-14.07 3.436-15.538.301-1.469-3.136 3.118-8.392 10.213-11.716a25.406 25.406 0 019.886-2.577h-1.632v2.276z" fill="#05D1FF"/>
        <path fill-rule="evenodd" clip-rule="evenodd" d="M86.168 88.483v5.437h4.715a23.93 23.93 0 01-7.808 5.55c-6.665 3.117-13.193 3.237-14.602.282-1.408-2.954 2.904-7.876 9.578-10.985a23.982 23.982 0 019.267-2.414h-1.15v2.13z" fill="#05D2FF"/>
        <path fill-rule="evenodd" clip-rule="evenodd" d="M86.168 88.861v5.077h4.028a22.332 22.332 0 01-7.284 5.153c-6.227 2.904-12.317 3.024-13.605.258-1.289-2.766 2.714-7.318 8.941-10.187 6.227-2.869 12.326-3.058 13.597-.3h-5.677z" fill="#04D3FF"/>
        <path fill-rule="evenodd" clip-rule="evenodd" d="M86.168 89.24v4.706h3.341a20.701 20.701 0 01-6.768 4.81c-5.781 2.697-11.433 2.809-12.627.25-1.194-2.56 2.525-6.83 8.297-9.526 5.773-2.698 11.433-2.8 12.636-.24h-4.88z" fill="#04D4FF"/>
        <path fill-rule="evenodd" clip-rule="evenodd" d="M90.24 89.617c1.099 2.362-2.328 6.296-7.662 8.787-5.335 2.491-10.557 2.577-11.656.223-1.1-2.353 2.327-6.296 7.627-8.787 5.3-2.49 10.582-2.594 11.69-.223z" fill="#04D5FF"/>
        <path fill-rule="evenodd" clip-rule="evenodd" d="M89.432 90.02c1.013 2.174-2.13 5.782-7.018 8.058-4.887 2.276-9.68 2.379-10.694.206-1.013-2.173 2.14-5.772 7.026-8.057 4.888-2.285 9.672-2.405 10.686-.206z" fill="#03D6FF"/>
        <path d="M82.238 97.685c4.445-2.074 7.304-5.35 6.385-7.32-.918-1.969-5.266-1.884-9.712.19-4.445 2.074-7.304 5.351-6.385 7.32.919 1.969 5.267 1.884 9.712-.19z" fill="#03D7FF"/>
        <path d="M82.075 97.335c4.002-1.867 6.575-4.82 5.747-6.596-.829-1.775-4.745-1.7-8.747.166-4.002 1.867-6.575 4.82-5.747 6.596.828 1.775 4.744 1.701 8.747-.166z" fill="#03D8FF"/>
        <path d="M81.907 96.977c3.556-1.659 5.841-4.282 5.105-5.86-.736-1.578-4.215-1.512-7.77.146-3.555 1.659-5.84 4.283-5.105 5.86.737 1.578 4.215 1.512 7.77-.146z" fill="#02D9FF"/>
        <path fill-rule="evenodd" clip-rule="evenodd" d="M86.21 91.49c.645 1.383-1.356 3.676-4.466 5.153-3.11 1.478-6.158 1.512-6.803.13-.644-1.384 1.358-3.669 4.475-5.155 3.118-1.486 6.15-1.503 6.795-.128z" fill="#02DAFF"/>
        <path fill-rule="evenodd" clip-rule="evenodd" d="M85.42 91.868c.55 1.185-1.168 3.152-3.83 4.397-2.663 1.246-5.283 1.289-5.833.112-.55-1.177 1.168-3.152 3.831-4.398 2.663-1.245 5.265-1.297 5.832-.111z" fill="#02DBFF"/>
        <path fill-rule="evenodd" clip-rule="evenodd" d="M84.604 92.246c.455.979-.97 2.576-3.195 3.659-2.225 1.082-4.398 1.082-4.853.094-.455-.988.97-2.628 3.187-3.659 2.216-1.03 4.397-1.082 4.861-.094z" fill="#01DCFF"/>
        <path fill-rule="evenodd" clip-rule="evenodd" d="M83.797 92.598c.37.79-.773 2.104-2.577 2.929-1.804.824-3.521.859-3.89.077-.37-.782.78-2.096 2.576-2.93 1.795-.832 3.522-.84 3.891-.076z" fill="#01DDFF"/>
        <path d="M81.076 95.194c1.333-.621 2.189-1.606 1.912-2.2-.277-.593-1.582-.57-2.914.052-1.333.622-2.189 1.607-1.912 2.2.276.593 1.581.57 2.914-.052z" fill="#01DEFF"/>
        <path fill-rule="evenodd" clip-rule="evenodd" d="M82.19 93.37c.181.396-.386 1.048-1.28 1.46-.892.413-1.717.439-1.94.044-.224-.395.386-1.057 1.28-1.469.893-.412 1.734-.43 1.94-.034z" fill="#00DFFF"/>
        <path fill-rule="evenodd" clip-rule="evenodd" d="M81.383 93.749c.095.197-.197.523-.635.73-.438.206-.859.214-.97 0-.112-.215.188-.524.635-.73.447-.207.876-.198.97 0z" fill="#00E0FF"/>
        <path fill-rule="evenodd" clip-rule="evenodd" d="M84.922 133.853l-.721-25.932-2.852-.008 7.035-12.472 7 12.291-3.29.215-1.803 25.906h-5.369z" fill="url(#paint30_linear)"/>
        <path fill-rule="evenodd" clip-rule="evenodd" d="M61.705 133.853l-1.812-25.932-2.86-.008 7.034-12.472 7 12.291-3.289.215-.696 25.906h-5.377z" fill="url(#paint31_radial)"/>
        <path d="M93.924 133.853H57.033v1.889h36.891v-1.889z" fill="#6D1748" opacity=".2"/>
        <path fill-rule="evenodd" clip-rule="evenodd" d="M81.813 66.726a14.74 14.74 0 11-11.08-24.462 14.99 14.99 0 013.796.498l-3.796 14.241 11.08 9.723z" fill="url(#paint32_linear)"/>
        <path fill-rule="evenodd" clip-rule="evenodd" d="M88.367 56.702a14.602 14.602 0 01-3.66 9.724l-11.08-9.724L87.08 50.69a14.723 14.723 0 011.288 6.012z" fill="url(#paint33_radial)"/>
        <path fill-rule="evenodd" clip-rule="evenodd" d="M86.589 49.427L73.138 55.44l3.788-14.25a14.783 14.783 0 019.663 8.237z" fill="url(#paint34_linear)"/>
        <path style="mix-blend-mode:screen" opacity=".47" fill-rule="evenodd" clip-rule="evenodd" d="M208.688 163.598l1.056-28.844 1.529-.506-.138 28.611s-1.803.49-2.447.739z" fill="url(#paint35_linear)"/>
        <path style="mix-blend-mode:screen" fill-rule="evenodd" clip-rule="evenodd" d="M234.207 98.49a20.438 20.438 0 01-5.111 13.434 21.462 21.462 0 01-16.251 7.249c-11.75 0-21.242-9.379-21.199-20.846a20.496 20.496 0 016.932-15.255 21.473 21.473 0 0114.421-5.437c11.759.043 21.251 9.38 21.208 20.855z" fill="url(#paint36_radial)"/>
        <path fill-rule="evenodd" clip-rule="evenodd" d="M196.396 112.139s6.013 7.678 16.32 7.73a22.119 22.119 0 0016.801-7.602s-6.872 7.413-16.887 7.147a23.122 23.122 0 01-16.234-7.275z" fill="#FBF9FA" opacity=".6"/>
        <path fill-rule="evenodd" clip-rule="evenodd" d="M209.246 119.56a41.805 41.805 0 017.438 0 24.032 24.032 0 01-7.438 0z" fill="#fff" opacity=".93"/>
        <path fill-rule="evenodd" clip-rule="evenodd" d="M199.771 78.502a4.742 4.742 0 003.72-.506 3.375 3.375 0 001.718-2.294 20.427 20.427 0 00-5.438 2.8z" fill="#fff"/>
        <path fill-rule="evenodd" clip-rule="evenodd" d="M227.146 114.071a20.449 20.449 0 01-13.494 4.965l.661-41.728 1.048-.232a21.472 21.472 0 0113.58 7.31c7.713 8.924 6.915 22.221-1.795 29.685z" fill="#FBF9FA"/>
    </g>
    <defs>
        <linearGradient id="paint0_linear" x1="174.424" y1="139.539" x2="174.424" y2="36.062" gradientUnits="userSpaceOnUse">
            <stop offset=".01" stop-color="#2A0E45"/>
            <stop offset="1" stop-color="#561F7D"/>
        </linearGradient>
        <linearGradient id="paint3_linear" x1="173.05" y1="157.37" x2="173.05" y2="139.53" gradientUnits="userSpaceOnUse">
            <stop stop-color="#603082"/>
            <stop offset=".99" stop-color="#2A0E51"/>
        </linearGradient>
        <linearGradient id="paint6_linear" x1="173.969" y1="128.003" x2="173.969" y2="46.051" gradientUnits="userSpaceOnUse">
            <stop offset=".02" stop-color="#E2DCEB"/>
            <stop offset="1" stop-color="#fff"/>
        </linearGradient>
        <linearGradient id="paint7_linear" x1="188.545" y1="105.258" x2="188.545" y2="68.633" gradientUnits="userSpaceOnUse">
            <stop stop-color="#FF3363"/>
            <stop offset="1" stop-color="#FF6E27"/>
        </linearGradient>
        <linearGradient id="paint8_linear" x1="1336.79" y1="3509.2" x2="1336.79" y2="2684.29" gradientUnits="userSpaceOnUse">
            <stop stop-color="#FF3363"/>
            <stop offset="1" stop-color="#FF6E27"/>
        </linearGradient>
        <linearGradient id="paint10_linear" x1="116.437" y1="78.399" x2="111.12" y2="58.669" gradientUnits="userSpaceOnUse">
            <stop stop-color="#FFA700"/>
            <stop offset="1" stop-color="#FFD328"/>
        </linearGradient>
        <linearGradient id="paint12_linear" x1="1166.28" y1="642.207" x2="1267.4" y2="642.207" gradientUnits="userSpaceOnUse">
            <stop stop-color="#FF3363"/>
            <stop offset="1" stop-color="#FF6E27"/>
        </linearGradient>
        <linearGradient id="paint13_linear" x1="231.542" y1="91.893" x2="188.822" y2="109.539" gradientUnits="userSpaceOnUse">
            <stop stop-color="#2A0038"/>
            <stop offset=".99" stop-color="#2A0E51"/>
        </linearGradient>
        <linearGradient id="paint14_linear" x1="12250.7" y1="1616.01" x2="12251" y2="1536.1" gradientUnits="userSpaceOnUse">
            <stop stop-color="#2A0038"/>
            <stop offset=".99" stop-color="#2A0E51"/>
        </linearGradient>
        <linearGradient id="paint15_linear" x1="37466.5" y1="27433.5" x2="36172.2" y2="26261.6" gradientUnits="userSpaceOnUse">
            <stop stop-color="#603082"/>
            <stop offset=".99" stop-color="#2A0E51"/>
        </linearGradient>
        <linearGradient id="paint16_linear" x1="231.739" y1="90.378" x2="188.616" y2="108.19" gradientUnits="userSpaceOnUse">
            <stop offset=".01" stop-color="#482263"/>
            <stop offset="1" stop-color="#603082"/>
        </linearGradient>
        <linearGradient id="paint17_linear" x1="212.955" y1="127.662" x2="212.984" y2="119.837" gradientUnits="userSpaceOnUse">
            <stop offset=".01" stop-color="#461169"/>
            <stop offset="1" stop-color="#471A78"/>
        </linearGradient>
        <linearGradient id="paint20_linear" x1="213.712" y1="145.875" x2="217.672" y2="145.889" gradientUnits="userSpaceOnUse">
            <stop/>
            <stop offset="1" stop-color="#BD9F65"/>
        </linearGradient>
        <linearGradient id="paint21_linear" x1="5593.7" y1="212.012" x2="5656.05" y2="212.24" gradientUnits="userSpaceOnUse">
            <stop stop-color="#2A0038"/>
            <stop offset=".99" stop-color="#2A0E51"/>
        </linearGradient>
        <linearGradient id="paint22_linear" x1="41882.9" y1="25974.5" x2="41882.9" y2="10.998" gradientUnits="userSpaceOnUse">
            <stop offset=".01" stop-color="#2A0E45"/>
            <stop offset="1" stop-color="#561F7D"/>
        </linearGradient>
        <linearGradient id="paint25_linear" x1="6750.95" y1="5409.18" x2="6750.95" y2="4637.42" gradientUnits="userSpaceOnUse">
            <stop stop-color="#603082"/>
            <stop offset=".99" stop-color="#2A0E51"/>
        </linearGradient>
        <linearGradient id="paint28_linear" x1="33906" y1="18294.1" x2="33906" y2="2011" gradientUnits="userSpaceOnUse">
            <stop offset=".02" stop-color="#E2DCEB"/>
            <stop offset="1" stop-color="#fff"/>
        </linearGradient>
        <linearGradient id="paint29_linear" x1="25749.8" y1="6205.49" x2="25749.8" y2="2951.47" gradientUnits="userSpaceOnUse">
            <stop stop-color="#FF3363"/>
            <stop offset="1" stop-color="#FF6E27"/>
        </linearGradient>
        <linearGradient id="paint30_linear" x1="1182.12" y1="5589.49" x2="1182.12" y2="3871.71" gradientUnits="userSpaceOnUse">
            <stop stop-color="#FF3363"/>
            <stop offset="1" stop-color="#FF6E27"/>
        </linearGradient>
        <linearGradient id="paint32_linear" x1="1570.68" y1="2139.69" x2="1276.14" y2="1181.84" gradientUnits="userSpaceOnUse">
            <stop stop-color="#FFA700"/>
            <stop offset="1" stop-color="#FFD328"/>
        </linearGradient>
        <linearGradient id="paint34_linear" x1="889.615" y1="660.631" x2="1100.26" y2="660.631" gradientUnits="userSpaceOnUse">
            <stop stop-color="#FF3363"/>
            <stop offset="1" stop-color="#FF6E27"/>
        </linearGradient>
        <linearGradient id="paint35_linear" x1="209.92" y1="163.572" x2="210.027" y2="134.214" gradientUnits="userSpaceOnUse">
            <stop stop-color="#796565"/>
            <stop offset="1"/>
        </linearGradient>
        <radialGradient id="paint1_radial" cx="0" cy="0" r="1" gradientUnits="userSpaceOnUse" gradientTransform="translate(175 84.55) scale(68.5866)">
            <stop stop-color="#0FF"/>
            <stop offset=".99" stop-color="#26A9FF"/>
        </radialGradient>
        <radialGradient id="paint2_radial" cx="0" cy="0" r="1" gradientUnits="userSpaceOnUse" gradientTransform="matrix(50.712 0 0 67.4468 200.82 131.123)">
            <stop stop-color="#EBD7E3"/>
            <stop offset=".98" stop-color="#BDAFD2"/>
        </radialGradient>
        <radialGradient id="paint4_radial" cx="0" cy="0" r="1" gradientUnits="userSpaceOnUse" gradientTransform="translate(172.449 159.08) scale(19.3434)">
            <stop stop-color="#B3819D"/>
            <stop offset="1" stop-color="#785CA6"/>
        </radialGradient>
        <radialGradient id="paint5_radial" cx="0" cy="0" r="1" gradientUnits="userSpaceOnUse" gradientTransform="matrix(1228.02 0 0 40.7604 9772.74 462.484)">
            <stop stop-color="#EBD7E3"/>
            <stop offset=".98" stop-color="#BDAFD2"/>
        </radialGradient>
        <radialGradient id="paint9_radial" cx="0" cy="0" r="1" gradientUnits="userSpaceOnUse" gradientTransform="translate(111.352 100.818) scale(13.5713)">
            <stop stop-color="#5178FE"/>
            <stop offset=".99" stop-color="#713592"/>
        </radialGradient>
        <radialGradient id="paint11_radial" cx="0" cy="0" r="1" gradientUnits="userSpaceOnUse" gradientTransform="matrix(100.507 0 0 106.988 1287.3 778.077)">
            <stop stop-color="#5178FE"/>
            <stop offset=".99" stop-color="#713592"/>
        </radialGradient>
        <radialGradient id="paint18_radial" cx="0" cy="0" r="1" gradientUnits="userSpaceOnUse" gradientTransform="matrix(49.2342 0 0 4.93559 7454.5 4542.24)">
            <stop stop-color="#B3819D"/>
            <stop offset="1" stop-color="#785CA6"/>
        </radialGradient>
        <radialGradient id="paint19_radial" cx="0" cy="0" r="1" gradientUnits="userSpaceOnUse" gradientTransform="rotate(-6.34 -98068.104 -60352.052) scale(39.5191 30.4238)">
            <stop stop-color="#EBD7E3"/>
            <stop offset=".98" stop-color="#BDAFD2"/>
        </radialGradient>
        <radialGradient id="paint23_radial" cx="0" cy="0" r="1" gradientUnits="userSpaceOnUse" gradientTransform="matrix(28846.1 0 0 14451.7 39347.4 10236.3)">
            <stop stop-color="#0FF"/>
            <stop offset=".99" stop-color="#26A9FF"/>
        </radialGradient>
        <radialGradient id="paint24_radial" cx="0" cy="0" r="1" gradientUnits="userSpaceOnUse" gradientTransform="matrix(22019 0 0 974.05 51829.3 -21137.2)">
            <stop stop-color="#EBD7E3"/>
            <stop offset=".98" stop-color="#BDAFD2"/>
        </radialGradient>
        <radialGradient id="paint26_radial" cx="0" cy="0" r="1" gradientUnits="userSpaceOnUse" gradientTransform="matrix(2560.98 0 0 159.956 12151.8 1203.4)">
            <stop stop-color="#B3819D"/>
            <stop offset="1" stop-color="#785CA6"/>
        </radialGradient>
        <radialGradient id="paint27_radial" cx="0" cy="0" r="1" gradientUnits="userSpaceOnUse" gradientTransform="matrix(2557.04 0 0 85.2902 12151.8 715.199)">
            <stop stop-color="#EBD7E3"/>
            <stop offset=".98" stop-color="#BDAFD2"/>
        </radialGradient>
        <radialGradient id="paint31_radial" cx="0" cy="0" r="1" gradientUnits="userSpaceOnUse" gradientTransform="matrix(320.001 0 0 875.791 760.473 4274.66)">
            <stop stop-color="#5178FE"/>
            <stop offset=".99" stop-color="#713592"/>
        </radialGradient>
        <radialGradient id="paint33_radial" cx="0" cy="0" r="1" gradientUnits="userSpaceOnUse" gradientTransform="matrix(208.565 0 0 222.662 1000.3 874.46)">
            <stop stop-color="#5178FE"/>
            <stop offset=".99" stop-color="#713592"/>
        </radialGradient>
        <radialGradient id="paint36_radial" cx="0" cy="0" r="1" gradientUnits="userSpaceOnUse" gradientTransform="rotate(-6.34 1016.097 -1841.823) scale(20.9448)">
            <stop offset=".23"/>
            <stop offset=".52" stop-color="#010102"/>
            <stop offset=".62" stop-color="#040509"/>
            <stop offset=".69" stop-color="#0A0D14"/>
            <stop offset=".75" stop-color="#131725"/>
            <stop offset=".81" stop-color="#1E243B"/>
            <stop offset=".85" stop-color="#2C3557"/>
            <stop offset=".89" stop-color="#3C4977"/>
            <stop offset=".93" stop-color="#4F609D"/>
            <stop offset=".96" stop-color="#657AC8"/>
            <stop offset=".99" stop-color="#7C96F6"/>
            <stop offset="1" stop-color="#819CFF"/>
        </radialGradient>
        <filter id="filter0_d" x=".995" y=".998" width="308.183" height="220" filterUnits="userSpaceOnUse" color-interpolation-filters="sRGB">
            <feFlood flood-opacity="0" result="BackgroundImageFix"/>
            <feColorMatrix in="SourceAlpha" values="0 0 0 0 0 0 0 0 0 0 0 0 0 0 0 0 0 0 127 0"/>
            <feOffset dy="10"/>
            <feGaussianBlur stdDeviation="10"/>
            <feColorMatrix values="0 0 0 0 0 0 0 0 0 0 0 0 0 0 0 0 0 0 0.25 0"/>
            <feBlend in2="BackgroundImageFix" result="effect1_dropShadow"/>
            <feBlend in="SourceGraphic" in2="effect1_dropShadow" result="shape"/>
        </filter>
    </defs>
</svg>
