<svg viewBox="0 0 226 211" fill="none" xmlns="http://www.w3.org/2000/svg">
    <path d="M86.113 84.55l-26.48 31.478-41.957-35.324L0 65.831l26.493-31.465 33 27.775 26.62 22.408z" fill="#DCEAFF"/>
    <path d="M79.747 85.212l-20.564 24.436L5.592 64.521l20.563-24.436 53.592 45.127zm-18.789 20.802l15.507-18.422a2.964 2.964 0 00-.352-4.17L28.578 43.396a3.012 3.012 0 00-4.24.366L8.888 62.113a2.991 2.991 0 00.366 4.211l47.563 40.043a2.943 2.943 0 004.141-.353z" fill="#C0D8FB"/>
    <path d="M51.163 76.142a8.592 8.592 0 10-16.994-2.545 8.592 8.592 0 0016.994 2.545z" fill="#C0D8FB"/>
    <path d="M110.859 62.211l-32.83 18.634L53.182 37.07 42.718 18.634 75.55 0 95.1 34.437l15.76 27.774z" fill="#DCEAFF"/>
    <path d="M105.169 60.746L79.676 75.211l-31.733-55.93L73.436 4.818l31.733 55.93zM82.366 72.662L101.59 61.76a2.722 2.722 0 001.028-3.704L74.465 8.436a2.781 2.781 0 00-3.775-1.042L51.549 18.267A2.73 2.73 0 0050.521 22L78.69 71.634c.718 1.31 2.38 1.76 3.676 1.028z" fill="#C0D8FB"/>
    <path d="M84.297 41.531a7.887 7.887 0 10-15.483-3.02 7.887 7.887 0 0015.483 3.02z" fill="#C0D8FB"/>
    <path d="M160.244 84.638c5.671-5.67 5.671-14.865 0-20.536-5.671-5.67-14.865-5.67-20.536 0-5.67 5.67-5.67 14.865 0 20.536 5.671 5.67 14.865 5.67 20.536 0z" fill="#E2810E"/>
    <path d="M135.028 79.437c-2.578-7.592 1.493-15.831 9.084-18.409 7.592-2.577 15.831 1.493 18.409 9.085 2.577 7.591-1.493 15.83-9.085 18.408-7.577 2.578-15.831-1.493-18.408-9.084z" fill="#FFB93E"/>
    <path d="M153.085 87.451a13.105 13.105 0 01-10.099-.662 13.173 13.173 0 01-6.676-7.606 13.1 13.1 0 01.662-10.098 13.17 13.17 0 017.605-6.676 13.105 13.105 0 0110.099.662 13.173 13.173 0 016.676 7.605 13.1 13.1 0 01-.662 10.099 13.041 13.041 0 01-7.605 6.676zm-8.254-24.296c-6.493 2.212-9.986 9.282-7.775 15.775 2.212 6.493 9.282 9.986 15.775 7.774 6.493-2.21 9.986-9.281 7.775-15.774-2.212-6.493-9.282-9.986-15.775-7.775z" fill="#FFA412"/>
    <path d="M151.789 77.986a2.08 2.08 0 00-.282-.718 1.55 1.55 0 00-.507-.493 2.648 2.648 0 00-.803-.338 8.354 8.354 0 00-1.141-.211c-.76-.099-1.45-.226-2.084-.366-.634-.155-1.198-.353-1.676-.62a4.162 4.162 0 01-1.226-1.042c-.324-.423-.563-.972-.704-1.62a3.927 3.927 0 01-.028-1.62c.098-.507.31-.986.605-1.408a4.476 4.476 0 011.17-1.127 6.244 6.244 0 011.662-.789l-.451-2.14 1.732-.367.465 2.183a5.32 5.32 0 011.789.141c.563.141 1.056.366 1.493.69.436.324.803.733 1.112 1.226.31.493.536 1.084.676 1.746l-3.126.662c-.169-.803-.479-1.366-.916-1.69-.436-.324-.958-.423-1.563-.296-.324.07-.592.17-.803.31-.211.14-.38.31-.493.493a1.351 1.351 0 00-.211.634c-.028.225-.014.465.042.718.056.254.141.465.254.648.112.183.281.338.492.479.212.127.479.24.803.338.324.084.719.169 1.183.24.761.112 1.451.239 2.071.394a6.91 6.91 0 011.676.633c.493.268.887.62 1.225 1.043.324.422.564.972.705 1.62.126.591.14 1.14.028 1.647-.113.507-.31.972-.606 1.395-.296.422-.69.788-1.183 1.112-.479.324-1.042.578-1.676.775l.422 2-1.718.366-.422-1.986a7.135 7.135 0 01-1.817-.028 4.888 4.888 0 01-1.676-.55 4.181 4.181 0 01-1.339-1.21c-.38-.522-.661-1.183-.83-1.986l3.126-.662c.099.478.254.859.451 1.14.197.296.437.507.69.648.254.141.549.226.845.24.296.014.606 0 .888-.07.338-.071.619-.184.859-.325.239-.14.422-.31.563-.492a1.5 1.5 0 00.268-.634 1.839 1.839 0 00-.014-.733z" fill="#FFA412"/>
    <path d="M187.466 47.17c4.466-4.467 4.466-11.708 0-16.174-4.467-4.466-11.708-4.466-16.174 0-4.466 4.466-4.466 11.707 0 16.174 4.466 4.466 11.707 4.466 16.174 0z" fill="#E2810E"/>
    <path d="M167.606 43.084c-2.029-5.986 1.169-12.479 7.155-14.507 5.985-2.028 12.478 1.169 14.507 7.155 2.028 5.986-1.169 12.479-7.155 14.507-5.986 2.028-12.479-1.183-14.507-7.155z" fill="#FFB93E"/>
    <path d="M181.831 49.394a10.346 10.346 0 01-7.958-.521 10.324 10.324 0 01-5.253-6c-.902-2.634-.704-5.465.521-7.958a10.325 10.325 0 016-5.253 10.346 10.346 0 017.958.52 10.324 10.324 0 015.253 6c.902 2.634.704 5.465-.521 7.959-1.239 2.492-3.366 4.366-6 5.253zm-6.507-19.14c-5.113 1.731-7.859 7.309-6.127 12.422 1.733 5.112 7.31 7.859 12.423 6.126 5.112-1.732 7.859-7.31 6.127-12.422-1.733-5.113-7.31-7.86-12.423-6.127z" fill="#FFA412"/>
    <path d="M180.803 41.929a1.573 1.573 0 00-.211-.563 1.375 1.375 0 00-.409-.395 2.2 2.2 0 00-.633-.267 6.256 6.256 0 00-.888-.17 13.3 13.3 0 01-1.648-.295 5.078 5.078 0 01-1.324-.493 2.984 2.984 0 01-.957-.817c-.254-.338-.437-.76-.55-1.282a3.309 3.309 0 01-.028-1.281 2.92 2.92 0 01.479-1.113c.24-.338.549-.634.916-.887a5.11 5.11 0 011.309-.62l-.366-1.69 1.366-.296.367 1.718c.507-.042.971 0 1.408.099.437.113.831.296 1.169.55.338.253.634.577.873.971.24.394.423.86.536 1.38l-2.465.521c-.141-.633-.381-1.07-.719-1.324-.352-.253-.76-.323-1.225-.225a1.87 1.87 0 00-.634.254c-.169.112-.295.24-.394.394-.099.155-.155.31-.169.493a1.93 1.93 0 00.028.563c.042.197.113.367.197.507.085.141.226.268.381.38.169.1.38.198.633.268.254.07.564.127.93.183.591.085 1.141.198 1.634.31.493.127.943.282 1.324.507.38.212.704.493.957.831.254.338.437.76.55 1.268.098.465.112.901.028 1.296-.085.408-.24.774-.479 1.098-.239.338-.549.62-.93.873-.38.254-.816.451-1.324.606l.338 1.578-1.352.281-.338-1.563a6.126 6.126 0 01-1.436-.014 3.688 3.688 0 01-1.31-.437 3.231 3.231 0 01-1.056-.958c-.296-.408-.522-.93-.648-1.563l2.464-.521c.085.38.198.676.353.901.154.226.338.395.549.507.211.113.436.17.662.184.239.014.465 0 .704-.057a2.11 2.11 0 00.676-.253 1.55 1.55 0 00.451-.395c.112-.155.183-.31.211-.493.056-.155.042-.352 0-.549z" fill="#FFA412"/>
    <path d="M212.366 109.479l-13.493 40.112a71.693 71.693 0 01-14.422 24.902c-6.211 7-13.648 12.676-22.071 16.859a72.72 72.72 0 01-26.774 7.408 71.793 71.793 0 01-28.564-3.549c-9.253-3.113-17.62-7.958-24.901-14.422-7-6.212-12.676-13.648-16.86-22.071a72.726 72.726 0 01-7.408-26.775c-.746-9.704.437-19.309 3.55-28.549L74.93 63.267l33.845 11.38-13.493 40.113c-3.113 9.254-2.409 19.226 1.986 28.057 4.394 8.845 11.901 15.422 21.169 18.535 9.253 3.113 19.225 2.408 28.056-1.986 8.845-4.394 15.423-11.915 18.535-21.169l13.493-40.113 33.845 11.395z" fill="#699DEE"/>
    <path d="M121.684 36.319l-33.87-11.385-12.888 38.343 33.871 11.385 12.887-38.344zM225.265 71.135l-33.871-11.384-12.888 38.343 33.871 11.384 12.888-38.343z" fill="#fff"/>
    <path d="M118.437 161.366l-11.366 33.845c-9.254-3.113-17.62-7.958-24.902-14.422-7-6.212-12.676-13.648-16.859-22.071a72.726 72.726 0 01-7.408-26.774c-.747-9.705.436-19.31 3.549-28.55L74.93 63.267l33.845 11.38-13.493 40.113c-3.113 9.254-2.408 19.226 1.986 28.057 4.408 8.859 11.915 15.436 21.169 18.549z" fill="#F99746"/>
    <path d="M152.295 189.395c-.323.366-.366.774-.197 1.211.296.803 1.268 1.718 2.381 2.62.14.112.267.225.38.323a.353.353 0 00.084.071c.029.014.043.042.071.056 1.042.972.648 1.183 2.535 3.155 2.141 2.24 3.62 2.268 4.042 2.071.352-.169-.366-1.353-1.169-2.691-.042-.07-.07-.126-.112-.197-.113-.183-.212-.352-.324-.535-.944-1.606-.705-2.352-.479-4.746.183-1.944 3.014-10.831 3.014-10.831l-4.113-.705s-1.239 7.085-2.606 8.169c-.732.578-1.549.592-2.253 1.014a.533.533 0 00-.141.099c-.38.268-.789.549-1.113.916z" fill="#FFB27D"/>
    <path d="M152.295 189.394c-.323.367-.366.775-.197 1.212.352.802 1.296 1.704 2.395 2.605.14.113.267.226.38.324.028.028.056.057.084.071.029.014.043.042.071.056 1.042.972.648 1.183 2.535 3.155 2.141 2.239 3.62 2.268 4.042 2.07.352-.169-.366-1.352-1.169-2.69-.422-.155-2.366-.943-3.831-2.817-1.295-1.648-2.155-3.774-3.042-5a.51.51 0 00-.141.099c-.394.267-.803.549-1.127.915z" fill="#233862"/>
    <path d="M185.479 186.817c.253 1.267 2.07 1.056 4.084.563 2.029-.493 1.536.099 4.423-.225 2.873-.324 3.746-1.395 3.845-1.817.085-.381-1.338-.507-2.873-.69-.197-.029-.38-.043-.578-.071-1.718-.211-2.986-1.324-4.549-2.239-1.479-.859-3.69-4.395-3.69-4.395l-3.944.31s2.071 3.141 2.874 4.521c.464.803.45 1.874.394 2.691-.056.45-.085.915.014 1.352z" fill="#FFB27D"/>
    <path d="M189.563 187.395c2.028-.493 1.535.098 4.423-.226 2.873-.324 3.746-1.394 3.845-1.817.084-.38-1.338-.507-2.873-.69l-.014.028s-1.733 1.226-4.127 1.282c-1.958.042-4.028-.507-5.366-.493-.029.451-.057.902.028 1.352.253 1.268 2.056 1.057 4.084.564zM170.352 161.577l-3.69 9.93-4.817 12.971s-1.31.127-2.563-.239c-1.155-.338-2.479-1.211-2.479-1.211s1.338-13.93 3.831-21.916c.634-2.056 1.352-3.704 2.141-4.648 3.873-4.563 7.577 5.113 7.577 5.113z" fill="#233862"/>
    <path d="M166.592 145.803c-2.423-.774-9.31.226-16.24 1.578l-1.451-2.395-14.957-1.169s-4.944 10.944-2.24 17.93c.395 1.028 1.183 1.69 2.536 1.704h12.028c7.436 0 15.746-5.113 16.817-5.324 1.76-.352 2.464 3.169 4.225 6.859 1.76 3.69 16.535 16.352 16.535 16.352s2.268.029 3.211-.324c1.014-.38 1.381-.873 1.381-.873s-16.395-32.577-21.845-34.338z" fill="#2B478B"/>
    <path d="M148.309 101.423c-1.915-1-4.831-1.141-5.309-1.212-5.677-.76-9.085 7.479-9.282 9.972-.366 4.606-2.803 5.31-6.225 8.183-6.874 5.775-4.86 12.493-1.099 14.986 2.253 1.493 6.225 0 6.225 0 .057.042 10.859-6.042 16.197-8.972 7.986-1.126 4.381-20.394-.507-22.957z" fill="#233862"/>
    <path d="M144.352 121.887c.028.014-2.62.915-4.394.141-1.662-.733-2.93-3.479-2.902-3.479.761-.028 1.592-.69 2.225-5.042l.324.112 5.423 1.944s-.394 1.732-.648 3.394c-.211 1.409-.324 2.733-.028 2.93z" fill="#FFB27D"/>
    <path d="M145.028 115.578s-.394 1.732-.648 3.394c-3.113-.563-4.338-3.662-4.775-5.338l5.423 1.944z" fill="#ED975D"/>
    <path d="M145.831 117.296s-7.409-1-6.719-5.606c.69-4.606.197-7.845 4.958-7.394 4.761.436 5.423 2.338 5.563 3.929.141 1.592-1.859 9.211-3.802 9.071z" fill="#FFB27D"/>
    <path d="M149.366 105.704s-4.746 4.085-7.971 4.423c-3.226.324-4.451-.705-4.451-.705s1.901-1.577 3.042-4.126a2.285 2.285 0 011.873-1.338c2.31-.212 6.676-.296 7.507 1.746z" fill="#233862"/>
    <path d="M146.394 105.338s1.592 1.536 2.085 2.676c.478 1.099.633 3.733.239 4.775 0 0 2.479-4.817 1.07-7.141-1.478-2.493-3.394-.31-3.394-.31z" fill="#233862"/>
    <path d="M150.591 132.803c-.225 15.014-.056 11.873-1.704 13.296-.394.338-1.507.549-2.972.648-4.605.31-12.69-.451-13-1.31-1.056-2.944-.31-3.859-1.197-8.366-.099-.479-.211-1-.338-1.564-.732-3.098-1.451-4.141 1.169-9.112 2.38-4.507 4.845-8.155 5.07-8.029 6.268 3.719 6.775.592 6.775.592s6.31 6.535 6.197 13.845z" fill="#fff"/>
    <path d="M166.662 171.507l-4.817 12.971s-1.31.127-2.563-.239c-1.155-.338-2.479-1.211-2.479-1.211s1.338-13.93 3.831-21.916l6.028 10.395z" fill="#2B478B"/>
    <path d="M144.38 118.972s6.451 1.098 7.212 3.873c.76 2.775 5.211 19.098 5.211 19.098s-3.282.592-4.789-.929c-1.521-1.521-5.267-14.056-5.267-14.056l-2.367-7.986z" fill="#fff"/>
    <path d="M145.915 146.747c-4.605.309-12.69-.451-13-1.31-1.056-2.944-.309-3.859-1.197-8.366l2.226-6.254s-.367 6.958 1.69 8.789c2.056 1.831 8.408 3.535 9.408 5.07.465.747.775 1.479.873 2.071z" fill="#EBF3FF"/>
    <path d="M140.648 143.817s4.535-1.014 5.268-.606c.732.409 2.521 1.874 2.746 2.381.225.507-1.634-.395-2.239-.55-.395-.098-1.423.254-1.93.423-2.141.718-3.451.352-3.451.352l-.394-2z" fill="#FFB27D"/>
    <path d="M137.605 118.38s-6.098.381-8.211 3.324c-2.972 4.141-8.859 21.803-5.493 24.155 3.803 2.648 17.31.69 17.31.69s.451-2.098-.169-3.112c-.62-1.015-10.789-2.662-11.253-3.127-.465-.465 5.859-9.141 5.859-10.549 0-1.423 1.957-11.381 1.957-11.381z" fill="#fff"/>
    <path d="M146.141 144.479s.957 1.225 1.267 1.38c.31.141.507.113.507.113l-.648-1.155-1.126-.338zM145.915 143.211l2.761 1.338s-.113.198-.465.184c-.338-.015-1.197-.324-1.197-.324l-1.099-1.198z" fill="#FFB27D"/>
    <path d="M147.395 147.732h21.887l6.577-16.366h-21.845l-6.619 16.366z" fill="#F99746"/>
    <path d="M169.535 147.098h-28.887v.634h28.634l.253-.634z" fill="#ED7D2B"/>
    <path d="M163.761 139.549c.169-.577-.169-1.042-.747-1.042-.577 0-1.169.465-1.338 1.042-.169.578.169 1.042.747 1.042.577 0 1.169-.464 1.338-1.042z" fill="#fff"/>
    <path d="M84.686 179.148c1.964-13.336-7.255-25.74-20.591-27.704-13.336-1.964-25.74 7.255-27.704 20.591-1.964 13.337 7.255 25.74 20.591 27.704 13.336 1.964 25.74-7.255 27.704-20.591z" fill="#E2810E"/>
    <path d="M75.67 192.848c9.532-9.532 9.532-24.986 0-34.518s-24.986-9.532-34.518 0-9.532 24.986 0 34.518 24.986 9.532 34.518 0z" fill="#FFB93E"/>
    <path d="M58.409 198.113c-5.944 0-11.521-2.31-15.733-6.521a22.12 22.12 0 01-6.52-15.733c0-5.943 2.31-11.521 6.52-15.732a22.12 22.12 0 0115.733-6.521c5.944 0 11.52 2.31 15.732 6.521a22.119 22.119 0 016.521 15.732c0 5.944-2.31 11.522-6.52 15.733-4.212 4.211-9.79 6.521-15.733 6.521zm0-43.155c-11.535 0-20.916 9.38-20.916 20.916 0 11.535 9.38 20.915 20.916 20.915 11.535 0 20.915-9.38 20.915-20.915 0-11.536-9.38-20.916-20.915-20.916z" fill="#FFA412"/>
    <path d="M61.465 182.324c.056-.479.042-.916-.056-1.296a2.68 2.68 0 00-.55-1.07c-.267-.338-.634-.648-1.098-.958-.451-.31-1.014-.62-1.69-.944a35.1 35.1 0 01-3.127-1.718c-.93-.578-1.704-1.211-2.338-1.902a6.523 6.523 0 01-1.38-2.324c-.296-.859-.367-1.845-.24-2.957a6.688 6.688 0 01.831-2.592 6.217 6.217 0 011.718-1.915A7.382 7.382 0 0156 163.479c.93-.268 1.958-.381 3.085-.352l.436-3.662 2.958.352-.437 3.718c1.043.268 1.972.662 2.775 1.183a6.976 6.976 0 012 1.902c.521.746.887 1.591 1.113 2.549.211.958.253 2.014.126 3.155l-5.323-.634c.169-1.366-.014-2.437-.55-3.183-.535-.747-1.295-1.183-2.324-1.31a4.067 4.067 0 00-1.45.056c-.423.113-.775.282-1.057.521a2.53 2.53 0 00-.69.888 3.778 3.778 0 00-.324 1.155c-.056.422-.028.817.042 1.169.085.352.254.704.522 1.028.267.324.633.648 1.098.958.465.31 1.056.662 1.76 1.014a40.52 40.52 0 013.1 1.76c.915.592 1.69 1.226 2.323 1.916a6.53 6.53 0 011.38 2.324c.296.859.367 1.845.24 2.943a6.813 6.813 0 01-.845 2.648 6.222 6.222 0 01-1.733 1.902c-.704.507-1.535.887-2.478 1.126-.944.254-1.972.353-3.099.324l-.408 3.409-2.93-.352.408-3.395a12.74 12.74 0 01-2.887-1.014 7.83 7.83 0 01-2.366-1.788c-.662-.733-1.155-1.62-1.479-2.648-.324-1.028-.408-2.24-.24-3.606l5.325.634c-.099.817-.057 1.507.098 2.07.17.564.423 1.043.76 1.409a3.41 3.41 0 001.226.845c.465.183.958.31 1.465.366.577.07 1.099.056 1.55-.042.45-.099.844-.254 1.168-.493.324-.226.592-.507.775-.859.183-.324.31-.705.352-1.141z" fill="#FFA412"/>
</svg>
