<svg viewBox="0 0 240 257" fill="none" xmlns="http://www.w3.org/2000/svg">
    <g filter="url(#filter0_d)">
        <path d="M47.129 125.594c6.825 1.233 11.633 8.795 10.773 16.9-.861 8.104-7.105 13.665-13.96 12.409-6.856-1.257-11.634-8.787-10.773-16.884.86-8.097 7.135-13.65 13.96-12.425z" fill="#FABE78"/>
        <path d="M45.252 126.145c6.825 1.233 11.633 8.795 10.772 16.899-.86 8.105-7.104 13.665-13.96 12.409-6.856-1.256-11.633-8.787-10.772-16.884.86-8.097 7.135-13.65 13.96-12.424z" fill="#FFD772"/>
        <path opacity=".5" d="M56.032 143.044a15.379 15.379 0 01-4.11 9.105 15.617 15.617 0 003.645-8.632c.868-8.097-3.948-15.666-10.773-16.9a10.912 10.912 0 00-9.757 3.258 10.955 10.955 0 0110.215-3.746c6.817 1.249 11.641 8.81 10.78 16.915z" fill="#fff"/>
        <path d="M43.903 152.855a8.495 8.495 0 01-1.551-.14c-5.546-1-9.485-7.143-8.787-13.688a12.063 12.063 0 014.513-8.423 8.821 8.821 0 016.895-1.683c5.545 1.001 9.485 7.135 8.78 13.681a12.06 12.06 0 01-4.514 8.43 8.92 8.92 0 01-5.336 1.823zm-.458-23.197a7.988 7.988 0 00-4.785 1.644 11.155 11.155 0 00-4.165 7.818c-.66 6.103 2.963 11.811 8.066 12.734a7.936 7.936 0 006.204-1.551 11.154 11.154 0 004.173-7.817c.651-6.096-2.963-11.812-8.066-12.727a7.663 7.663 0 00-1.427-.101z" fill="#FABE78"/>
        <path d="M142.685 38.398l-55.677 7.91c-6.32.885-11.463 7.144-11.47 13.96l-.287 151.73c0 8.671 8.53 15.093 14.828 14.201l52.28-11.37c6.313-.884 11.44-7.143 11.455-13.96l4.863-149.542c.015-6.81-7.825-13.96-15.992-12.929z" fill="url(#paint0_linear)"/>
        <path style="mix-blend-mode:overlay" opacity=".4" d="M154.318 42.416a14.2 14.2 0 00-9.888-2.614l-55.67 7.903c-6.32.9-11.462 7.143-11.462 13.96l-.287 151.753a14.24 14.24 0 004.809 10.47 14.66 14.66 0 01-6.562-11.874l.272-151.722c0-6.817 5.157-13.075 11.478-13.96l55.677-7.902a14.618 14.618 0 0111.633 3.986z" fill="url(#paint1_linear)"/>
        <path d="M147.33 41.904l-55.684 7.91c-6.313.885-11.455 7.144-11.463 13.96l-.287 151.73c0 6.817 5.11 11.633 11.424 10.741l55.685-7.91c6.313-.884 11.439-7.143 11.455-13.96l.279-151.73c.015-6.817-5.096-11.633-11.409-10.741z" fill="#fff"/>
        <path d="M158.739 52.653l-.287 151.722c0 6.817-5.142 13.076-11.447 13.96l-55.685 7.918a9.553 9.553 0 01-8.71-3.156 9.6 9.6 0 008.485 2.893l55.685-7.919c6.328-.884 11.455-7.135 11.455-13.96l.279-151.721a11.503 11.503 0 00-2.218-6.98 11.37 11.37 0 012.443 7.243z" fill="url(#paint2_linear)"/>
        <path d="M151.759 49.287l-64.58 9.167c-3.266.457-5.91 3.691-5.918 7.205L80.99 214.13c0 3.521 2.629 6.01 5.886 5.553l64.588-9.167c3.257-.458 5.902-3.692 5.91-7.205l.279-148.472c.008-3.514-2.66-6.01-5.894-5.553z" fill="#DCE7F7"/>
        <path d="M157.645 54.84l-.271 148.495c0 3.521-2.652 6.756-5.918 7.213l-64.58 9.159a5.032 5.032 0 01-3.219-.589 5.11 5.11 0 002.444.24l64.588-9.167c3.265-.449 5.917-3.691 5.917-7.212l.272-148.465a5.518 5.518 0 00-2.668-4.963 5.428 5.428 0 013.435 5.29zM114.548 51.986l14.34-2.017a1.313 1.313 0 001.062-1.28.945.945 0 00-.296-.748.936.936 0 00-.766-.244l-14.34 2.016a1.312 1.312 0 00-1.063 1.288.941.941 0 00.063.407.942.942 0 00.589.545.933.933 0 00.411.033zM105.218 53.886a1.972 1.972 0 001.597-1.946 1.397 1.397 0 00-.425-1.114 1.413 1.413 0 00-1.126-.39 1.985 1.985 0 00-1.605 1.953 1.412 1.412 0 001.559 1.497z" fill="#DCE7F7"/>
        <g style="mix-blend-mode:multiply">
            <path d="M129.943 48.69a1.302 1.302 0 01-1.063 1.28l-14.34 2.016a.837.837 0 01-.775-.264c.077.008.155.008.232 0l14.34-2.009a1.322 1.322 0 001.063-1.28 1.02 1.02 0 00-.279-.775.955.955 0 01.822 1.032zM106.816 51.94a1.973 1.973 0 01-1.551 1.946 1.337 1.337 0 01-1.055-.272c.164.027.332.027.496 0a1.969 1.969 0 001.551-1.946 1.557 1.557 0 00-.558-1.233 1.449 1.449 0 011.117 1.504z" fill="#DCE7F7"/>
        </g>
        <path opacity=".2" d="M158.739 52.645v8.47l-78.734 95.447.17-92.78c0-6.825 5.158-13.083 11.478-13.96l55.67-7.91c6.321-.9 11.424 3.924 11.416 10.733z" fill="#fff"/>
        <path opacity=".2" d="M158.607 117.342l-.938 63.914-39.654 5.568c-2.715.38-4.917-1.675-4.91-4.607l.101-53.583a6.083 6.083 0 011.384-3.876 6.085 6.085 0 013.533-2.111l40.484-5.305z" fill="#93A8D4"/>
        <path d="M91.041 138.708v68.451c-.178 1.21-1.605 2.575-4.73 4.157-17.45 8.864-55.84 4.847-55.84 4.847v-68.365c9.659.892 19.369 1.112 29.06.659 9.74-.52 19.869-2.016 26.74-5.506 3.103-1.552 4.537-2.94 4.724-4.15a.409.409 0 00.046-.093z" fill="#90F4E1"/>
        <path d="M95.276 102.777v68.373s-1.637.566-4.212 1.551v-33.993a.924.924 0 000-.357c-.48-5.242-24.5-7.616-30.572-13.502a2.73 2.73 0 01-.892-1.698v-.435c.496-7.732 35.676-19.939 35.676-19.939z" fill="#90F4E1"/>
        <path d="M91.04 138.351a.924.924 0 010 .357.413.413 0 010 .093c-.185 1.21-1.612 2.567-4.722 4.149-6.872 3.49-17 4.987-26.741 5.506V123.15a2.73 2.73 0 00.9 1.699c6.103 5.886 30.083 8.259 30.564 13.502z" fill="#90F4E1"/>
        <path d="M91.041 151.675v49.876c-.582.357-1.249.729-2 1.109-7.818 3.971-19.335 5.67-30.426 6.267-1.512.093-3.009.147-4.498.186 0-.093-.078-.194-.124-.287-1.69-3.94-6.383-7.042-12.277-8.097v-31.712c6.732-1.164 11.866-5.026 12.765-9.788 0-.085.04-.186.047-.271l4.056.101c11.09-.605 22.608-2.327 30.425-6.275.783-.38 1.45-.752 2.032-1.109z" fill="url(#paint3_linear)"/>
        <path d="M95.275 108.516v62.642s-1.644.566-4.219 1.551v-34.001a.884.884 0 000-.349c-.465-5.041-22.646-7.429-29.773-12.827 6.949-6.492 25.74-13.952 33.992-17.016z" fill="url(#paint4_linear)"/>
        <path d="M87.086 142.547l-.776.403c-6.871 3.49-17 4.995-26.74 5.514v-16.34l.061.069c4.684 4.522 18.707 7.229 27.455 10.354z" fill="url(#paint5_linear)"/>
        <g style="mix-blend-mode:multiply">
            <path d="M91.041 138.708v.822a.353.353 0 010 .093c-.186 1.218-1.613 2.575-4.723 4.15-6.871 3.49-17 4.994-26.741 5.514-9.693.453-19.406.23-29.068-.667v-.822a209.708 209.708 0 0029.068.659c9.74-.52 19.87-2.016 26.74-5.506a19.842 19.842 0 002.754-1.66c.22-.157.433-.325.636-.504.083-.064.161-.134.233-.21.099-.087.192-.18.279-.279.074-.076.144-.156.21-.24.064-.077.123-.157.178-.241.06-.071.112-.149.155-.232l.116-.202a1.71 1.71 0 00.093-.256.881.881 0 00.062-.217.786.786 0 000-.132.405.405 0 00.008-.07zM91.041 206.251v.822a.449.449 0 010 .101c-.186 1.21-1.613 2.567-4.723 4.141-6.871 3.498-17 4.995-26.741 5.515-9.693.453-19.406.233-29.068-.66v-.829c9.662.897 19.375 1.12 29.068.667 9.74-.528 19.87-2.025 26.74-5.515a19.098 19.098 0 002.73-1.636c.241-.171.45-.341.637-.496.186-.156.155-.14.233-.21.098-.09.192-.185.279-.287.074-.076.144-.156.21-.24.065-.072.125-.15.177-.233.06-.075.111-.156.156-.24l.116-.194c.037-.086.068-.174.093-.264a.881.881 0 00.062-.217.766.766 0 000-.132.347.347 0 00.031-.093zM95.276 102.777v.83s-34.567 11.99-35.676 19.737a1.413 1.413 0 010-.193v-.435c.489-7.732 35.676-19.939 35.676-19.939z" fill="#E6E6E6"/>
            <path d="M91.041 138.351a.924.924 0 010 .357.402.402 0 010 .093.766.766 0 010 .132 2.662 2.662 0 00-.892-1.358c-.07-.077-.155-.139-.24-.217a12.01 12.01 0 00-2.544-1.497l-.713-.302a7.09 7.09 0 00-.551-.233l-.481-.186c-3.102-1.202-7.236-2.326-11.269-3.513l-1.667-.489-.24-.077-.629-.194a61.428 61.428 0 01-2.272-.729l-.194-.062a63.83 63.83 0 01-1.613-.566l-.14-.055-.566-.209-.977-.365a35.623 35.623 0 01-2.14-.946l-.466-.24c-.836-.422-1.63-.92-2.373-1.489a10.1 10.1 0 01-.605-.528 2.705 2.705 0 01-.869-1.698v-.83a1.427 1.427 0 000 .194c.023.116.054.23.093.341.05.129.11.253.179.373.065.115.14.224.224.325.011.022.027.041.047.055.088.129.193.246.31.349 6.127 5.948 30.107 8.321 30.588 13.564zM30.462 147.797v68.373l.76.055-.38-68.428h-.38z" fill="#E6E6E6"/>
        </g>
        <path d="M91.04 160.61v35.171c-5.878-2.481-9.895-8.531-9.872-16.216a23.64 23.64 0 019.873-18.955zM78.989 145.68a91.51 91.51 0 01-17.567 2.707 15.514 15.514 0 0113.006-3.994 18.45 18.45 0 014.56 1.287zM55.172 197.751c.305.081.577.257.775.504.177.291.26.63.24.97v5.126a.557.557 0 00.07.31c.124.152.274.281.442.38l.62-.636.18.186-1.505 1.552-1.373-.776.38-.597v-4.584a2.87 2.87 0 00-.047-.636.861.861 0 00-.279-.426l-.225-.078a.637.637 0 00-.318.21l-.201.209-.171-.194 1.412-1.52zM63.478 198.108c.487.694.737 1.526.713 2.373a5.499 5.499 0 01-.682 2.637 7.416 7.416 0 01-1.8 2.195 3.273 3.273 0 01-1.473-.574 3.101 3.101 0 01-1.008-1.303 4.173 4.173 0 01-.35-1.722c.016-.939.26-1.86.714-2.683a6.014 6.014 0 011.885-2.164 3.412 3.412 0 012 1.241zm-.287 4.692c.12-.389.18-.794.178-1.202a4.117 4.117 0 00-.333-1.636 3.018 3.018 0 00-.985-1.218 3.94 3.94 0 00-1.551-.605 4.17 4.17 0 00-.42 4.165c.238.51.614.943 1.087 1.248a2.7 2.7 0 001.442.458c.244-.379.441-.785.59-1.21M69.395 197.278c.496.69.747 1.525.714 2.373a5.612 5.612 0 01-.667 2.637 7.8 7.8 0 01-1.807 2.187 3.099 3.099 0 01-1.474-.574 3.013 3.013 0 01-1.008-1.295 4.334 4.334 0 01-.349-1.729 5.802 5.802 0 01.706-2.676 6.014 6.014 0 011.884-2.164 3.34 3.34 0 012.001 1.241zm-.279 4.653c.12-.389.18-.794.178-1.202a4.13 4.13 0 00-.325-1.636 3.043 3.043 0 00-1-1.187 4.035 4.035 0 00-1.552-.612 4 4 0 00-.775 2.427 4.078 4.078 0 00.38 1.745c.239.509.615.941 1.085 1.249a2.72 2.72 0 001.435.457 5.62 5.62 0 00.597-1.217" fill="#90F4E1"/>
        <path d="M95.276 102.777v68.373s-1.637.566-4.212 1.551v-33.993a.924.924 0 000-.357c-.48-5.242-24.5-7.616-30.572-13.502a2.73 2.73 0 01-.892-1.698v-.435c.496-7.732 35.676-19.939 35.676-19.939z" fill="#93A8D4" opacity=".3"/>
        <path d="M90.824 137.638c1.04 1.807-1.443 3.754-4.514 5.312-6.871 3.49-17 4.987-26.74 5.515v-15.884a59.805 59.805 0 019.996 0c14.231 1.164 21.258 5.057 21.258 5.057z" fill="#93A8D4" opacity=".3"/>
        <path opacity=".2" d="M91.041 138.708v18.249c-6.135 14.774-21.188 36.777-57.887 59.446a119.624 119.624 0 01-2.692-.232v-68.373c9.662.897 19.375 1.12 29.068.667 9.741-.528 19.87-2.024 26.741-5.514 3.103-1.552 4.537-2.932 4.723-4.15a.409.409 0 00.047-.093z" fill="#F2F2F2"/>
        <path opacity=".2" d="M158.77 66.9l-.047 28.013a15.428 15.428 0 01-6.677 2.691c-8.05 1.125-14.581-5.002-14.565-13.696.015-8.694 6.569-16.675 14.627-17.838a12.765 12.765 0 016.662.83z" fill="#93A8D4"/>
        <path d="M165.075 70.716c8.058-1.133 14.581 4.994 14.565 13.704-.015 8.71-6.569 16.659-14.627 17.791-8.058 1.132-14.58-4.995-14.565-13.689.016-8.694 6.569-16.659 14.627-17.806z" fill="url(#paint6_linear)"/>
        <path d="M167.169 71.91c8.058-1.132 14.58 4.995 14.565 13.696-.016 8.702-6.569 16.667-14.627 17.838-8.058 1.171-14.58-4.995-14.565-13.696.016-8.702 6.569-16.706 14.627-17.838z" fill="url(#paint7_radial)"/>
        <path style="mix-blend-mode:overlay" opacity=".4" d="M181.734 85.614c0 8.686-6.561 16.659-14.619 17.791-.686.095-1.378.136-2.071.124.481-.01.96-.052 1.435-.124 8.058-1.132 14.604-9.105 14.627-17.79 0-7.92-5.374-13.697-12.409-13.829 7.337-.21 13.053 5.677 13.037 13.828z" fill="url(#paint8_linear)"/>
        <path style="mix-blend-mode:overlay" opacity=".4" d="M152.55 89.71c0 7.902 5.359 13.688 12.409 13.82-7.337.209-13.06-5.677-13.037-13.82 0-8.703 6.569-16.675 14.619-17.8.686-.098 1.378-.14 2.071-.124-.481.011-.96.053-1.435.124-8.058 1.133-14.619 9.097-14.627 17.8z" fill="url(#paint9_linear)"/>
        <path d="M175.638 79.503a1.414 1.414 0 011.257.418 1.958 1.958 0 01-.117 2.59l-11.54 12.89-7.546-4.498a1.795 1.795 0 01-.442-2.466 1.986 1.986 0 011.404-1c.327-.051.662.014.946.186l5.351 3.18 9.555-10.672c.29-.338.692-.561 1.132-.628z" fill="#fff"/>
        <path d="M85.371 13.899c7.29-1.024 13.185 4.521 13.185 12.409 0 7.887-5.94 15.076-13.239 16.1-7.298 1.024-13.184-4.522-13.184-12.409 0-7.887 5.94-15.077 13.239-16.1z" fill="#FABE78"/>
        <path d="M83.689 12.704c7.29-1.024 13.184 4.522 13.184 12.41 0 7.887-5.949 15.076-13.231 16.13-7.282 1.055-13.184-4.552-13.184-12.408 0-7.857 5.925-15.108 13.23-16.132z" fill="#FFD772"/>
        <path opacity=".5" d="M96.873 25.098c-.047 7.88-5.949 15.092-13.231 16.147a13.26 13.26 0 01-2.047.116c.457 0 .922-.054 1.411-.116 7.298-1.024 13.184-8.237 13.239-16.116.007-7.151-4.848-12.363-11.145-12.534 6.631-.186 11.78 5.143 11.773 12.502z" fill="#fff"/>
        <path d="M82.292 38.616a9.012 9.012 0 01-5.971-2.21 10.47 10.47 0 01-3.405-7.996c0-6.345 4.816-12.177 10.703-13.007l.062.435-.04-.435a9.113 9.113 0 017.384 2.118 10.478 10.478 0 013.397 7.988c0 6.344-4.808 12.176-10.703 13.006-.472.07-.949.103-1.427.1zm2.73-22.437c-.428.001-.855.03-1.28.085-5.475.776-9.942 6.205-9.957 12.146a9.641 9.641 0 003.102 7.336 8.26 8.26 0 006.685 1.908c5.475-.776 9.943-6.204 9.95-12.145a9.478 9.478 0 00-3.102-7.337 8.166 8.166 0 00-5.398-1.993zM55.117 47.806a15.022 15.022 0 0112.836 16.566 14.323 14.323 0 01-16.07 12.788 15.03 15.03 0 01-12.835-16.527 14.326 14.326 0 0116.07-12.827z" fill="#FABE78"/>
        <path d="M53.535 48.333A15.023 15.023 0 0166.371 64.9a14.325 14.325 0 01-16.078 12.797A15.03 15.03 0 0137.465 61.13a14.326 14.326 0 0116.07-12.797z" fill="#FFD772"/>
        <path opacity=".5" d="M66.37 64.9a14.348 14.348 0 01-14.464 12.905 14.356 14.356 0 0013.96-12.906A15.038 15.038 0 0053 48.333a11.269 11.269 0 00-1.605-.108 12.47 12.47 0 012.14.116A15.022 15.022 0 0166.371 64.9z" fill="#fff"/>
        <path d="M52.131 75.012a11.223 11.223 0 01-1.551-.1 12.2 12.2 0 01-10.37-13.418 11.727 11.727 0 014.43-8.019 11.462 11.462 0 018.6-2.365A12.2 12.2 0 0163.656 64.51a11.749 11.749 0 01-4.42 8.012 11.44 11.44 0 01-7.105 2.49zm-.419-23.127a10.586 10.586 0 00-6.569 2.273 10.857 10.857 0 00-4.095 7.43 11.323 11.323 0 009.664 12.455 10.603 10.603 0 007.98-2.18 10.857 10.857 0 004.095-7.43 11.331 11.331 0 00-9.663-12.462c-.469-.056-.94-.084-1.412-.086zM45.872 94.292c8.012 1.443 11.92 6.088 8.733 10.37-3.188 4.281-12.246 6.576-20.257 5.134-8.012-1.443-11.92-6.088-8.74-10.385 3.179-4.296 12.276-6.561 20.264-5.119z" fill="#FABE78"/>
        <path d="M45.872 91.935c8.012 1.45 11.92 6.088 8.74 10.369-3.179 4.281-12.253 6.577-20.264 5.135-8.012-1.443-11.92-6.089-8.74-10.354 3.179-4.266 12.276-6.592 20.264-5.15z" fill="#FFD772"/>
        <path opacity=".5" d="M54.605 102.304c-3.18 4.282-12.254 6.577-20.257 5.135a20.162 20.162 0 01-4.545-1.327c1.257.467 2.556.815 3.878 1.04 8.011 1.458 17.062-.853 20.257-5.135 2.505-3.358.628-6.98-4.165-9.02 5.274 2.033 7.454 5.786 4.832 9.307z" fill="#fff"/>
        <path d="M39.435 106.593a21.943 21.943 0 01-3.963-.349c-4.048-.729-6.98-2.513-7.887-4.778a4.11 4.11 0 01.675-4.095c2.613-3.513 10.027-5.428 16.519-4.242 4.04.73 6.98 2.513 7.887 4.777a4.103 4.103 0 01-.682 4.103c-2.102 2.831-7.26 4.584-12.549 4.584zm1.326-13.006c-5.04 0-9.903 1.644-11.85 4.265a3.32 3.32 0 00-.574 3.32c.776 2.001 3.513 3.598 7.275 4.281 6.204 1.124 13.277-.636 15.72-3.925a3.309 3.309 0 00.582-3.327c-.776-2-3.513-3.598-7.275-4.28a22.383 22.383 0 00-3.893-.334h.015z" fill="#FABE78"/>
        <path d="M56.498 32.325a3.769 3.769 0 11-3.762-3.769 3.761 3.761 0 013.762 3.77zM170.124 13.658a2.674 2.674 0 01-1.642 2.47 2.668 2.668 0 11-.006-4.93 2.658 2.658 0 011.648 2.46zM59.88 87.522a1.877 1.877 0 11-3.755 0 1.877 1.877 0 013.754 0zM34.433 78.843a1.334 1.334 0 11-2.668.016 1.334 1.334 0 012.668-.016zM29.12 128.781a2.894 2.894 0 11-5.787 0 2.894 2.894 0 015.788 0z" fill="#FFD772"/>
        <path d="M23.327 120.483l.396 2.932 2.931.395-2.931.396-.396 2.931-.395-2.931L20 123.81l2.932-.395.395-2.932zM49.735 84.986l.395 2.932 2.932.395-2.932.396-.395 2.931-.396-2.931-2.931-.396 2.931-.395.396-2.932zM100.51 33.916l.559 4.141 4.149.558-4.149.559-.559 4.141-.558-4.141-4.141-.559 4.141-.558.558-4.142zM175.925 33.04l.559 4.14 4.141.559-4.141.566-.559 4.142-.558-4.142-4.149-.566 4.149-.558.558-4.142zM206.304 86.723l.318 2.358 2.357.318-2.357.317-.318 2.35-.318-2.35-2.35-.317 2.35-.318.318-2.358z" fill="#FFD772"/>
        <path d="M213.85 121.638c2.699-.38 4.894 1.691 4.894 4.654l-.101 53.575a6.098 6.098 0 01-4.917 5.987l-82.853 11.633c-2.714.38-4.909-1.683-4.901-4.653l.101-53.575a6.09 6.09 0 014.917-5.987l82.86-11.634z" fill="url(#paint10_linear)"/>
        <path d="M215.106 122.577c2.707-.38 4.902 1.683 4.894 4.614l-.101 53.576a6.092 6.092 0 01-4.917 5.987l-82.852 11.633c-2.715.388-4.91-1.683-4.902-4.607l.101-53.575a6.1 6.1 0 014.925-5.995l82.852-11.633z" fill="url(#paint11_linear)"/>
        <g opacity=".6" fill="#fff">
            <path opacity=".6" d="M161.764 139.5v.776l-1.443.201a.917.917 0 00-.574.311.902.902 0 00-.217.574v4.079a.647.647 0 00.217.512.706.706 0 00.567.147l1.45-.201v.775l-1.342.186a1.325 1.325 0 01-1.706-1.497v-3.691a1.929 1.929 0 01.442-1.365 2.024 2.024 0 011.272-.621l1.334-.186zM166.022 142.928l1.31 2.955-.899.131-1.226-2.792-.923.125v2.97l-.822.116v-7.174l1.784-.248a1.612 1.612 0 011.226.21 1.404 1.404 0 01.411 1.155v.985c.035.318-.028.639-.182.92-.155.28-.392.506-.679.647zm-.667-.497a.826.826 0 00.527-.256.885.885 0 00.171-.597v-1.179a.688.688 0 00-.171-.535.608.608 0 00-.519-.1l-1.071.147v2.668l1.071-.148M172.071 138.05v.744l-2.342.334-.008 2.35 2.109-.295v.745l-2.109.294-.008 2.583 2.35-.326-.008.745-3.164.442.016-7.166 3.164-.45zM176.965 137.74a1.354 1.354 0 01.434 1.163v3.94c.034.466-.101.928-.38 1.303-.339.318-.777.51-1.241.543l-1.946.271v-7.158l1.838-.256c.44-.102.903-.033 1.295.194zm-.404 5.336v-4.111a.668.668 0 00-.186-.512.643.643 0 00-.504-.132l-1.217.171v5.638l1.21-.17a.836.836 0 00.535-.256.86.86 0 00.17-.59M182.006 136.654v.745l-.861.124-.008 5.677.853-.117v.745l-2.536.357v-.745l.861-.124.008-5.677-.853.116v-.744l2.536-.357zM187.784 135.84v.783l-1.505.21-.015 6.39-.83.116.015-6.39-1.512.209.008-.775 3.839-.543zM197.649 134.459v.776l-1.443.201a.89.89 0 00-.776.877v4.087a.65.65 0 00.21.512.67.67 0 00.566.139l1.45-.201v.775l-1.349.194a1.325 1.325 0 01-1.706-1.497v-3.684c-.03-.494.128-.981.442-1.365a1.986 1.986 0 011.272-.62l1.334-.194zM201.806 133.87l1.551 6.98-.846.124-.356-1.768-1.854.263-.326 1.823-.845.124 1.621-7.399 1.055-.147zm-1.334 4.777l1.551-.217-.776-3.8-.775 4.017zM207.033 137.166l1.311 2.954-.9.132-1.218-2.8-.93.132v2.971l-.822.116v-7.174l1.776-.248a1.56 1.56 0 011.225.209 1.412 1.412 0 01.411 1.156v.985a1.55 1.55 0 01-.853 1.567zm-.667-.497a.773.773 0 00.527-.264.857.857 0 00.171-.589v-1.179a.687.687 0 00-.163-.535.609.609 0 00-.527-.101l-1.071.148v2.668l1.071-.148M212.85 132.699a1.332 1.332 0 01.434 1.163v3.955c.035.464-.101.924-.38 1.295a1.955 1.955 0 01-1.241.543l-1.947.279v-7.173l1.838-.256a1.704 1.704 0 011.296.194zm-.404 5.335v-4.149a.622.622 0 00-.186-.512.574.574 0 00-.496-.132l-1.226.171v5.638l1.21-.17a.772.772 0 00.535-.256.89.89 0 00.171-.59"/>
        </g>
        <path style="mix-blend-mode:overlay" opacity=".4" d="M218.309 184.877a5.427 5.427 0 01-3.319 1.877l-82.86 11.633c-2.715.38-4.91-1.69-4.894-4.614l.093-53.575a6.35 6.35 0 012.164-4.654 6.264 6.264 0 00-1.551 4.103l-.093 53.56c0 2.924 2.194 4.986 4.909 4.606l82.845-11.633a5.245 5.245 0 002.706-1.303z" fill="url(#paint12_linear)"/>
        <path style="mix-blend-mode:overlay" opacity=".4" d="M220 127.191l-.093 53.576a6.391 6.391 0 01-2.179 4.699 6.414 6.414 0 001.636-4.172l.093-53.575c0-2.924-2.179-4.987-4.894-4.607l-82.837 11.641a5.258 5.258 0 00-2.745 1.295 5.372 5.372 0 013.281-1.822l82.852-11.634c2.699-.395 4.894 1.637 4.886 4.599z" fill="url(#paint13_linear)"/>
        <path d="M154.885 149.527l-13.96 1.97a2.944 2.944 0 00-2.374 2.885v12.285a2.1 2.1 0 00.654 1.673 2.08 2.08 0 001.712.545l13.96-1.962a2.936 2.936 0 001.708-1.015 2.934 2.934 0 00.673-1.87v-12.285a2.098 2.098 0 00-2.373-2.226z" fill="#F7931E" opacity=".7"/>
        <path opacity=".8" d="M207.855 172.647c-2.528.356-4.584 3.024-4.584 5.964 0 2.939 2.032 5.033 4.561 4.653 2.528-.38 4.583-3.025 4.583-5.964 0-2.94-2.032-4.987-4.56-4.653z" fill="#fff"/>
        <g opacity=".8" fill="#fff">
            <path opacity=".8" d="M204.551 165.736v-1.248a.625.625 0 00-.163-.45.367.367 0 00-.372-.147l-1.924.271-.186.124a.405.405 0 00-.085.248.327.327 0 00.085.225l.186.07 1.916-.271v1.295a.396.396 0 01-.078.248l-.194.124-1.085.155-.186.124a.402.402 0 00-.086.248.272.272 0 00.086.225l.186.078 1.085-.155.187.077c.053.06.083.137.085.218v1.31l-1.892.272-.194.124a.394.394 0 00-.078.248.304.304 0 00.078.225l.194.07 1.892-.264a.558.558 0 00.388-.256.78.78 0 00.163-.496v-1.303a.986.986 0 00-.225-.644c.147-.22.223-.48.217-.745zM144.647 172.236l-1.923.263-.194.132a.396.396 0 00-.078.248.334.334 0 00.078.225l.194.07 1.923-.271v1.628l-1.636.233a.568.568 0 00-.38.248.842.842 0 00-.155.504v2.327l2.443-.341.193-.124a.42.42 0 00.078-.248.293.293 0 00-.078-.225l-.193-.078-1.9.272v-1.683l1.636-.233a.604.604 0 00.38-.256.817.817 0 00.163-.504v-1.621a.649.649 0 00-.155-.458.426.426 0 00-.396-.108zM184.759 168.521v-1.257a.64.64 0 00-.155-.45.406.406 0 00-.38-.147l-1.924.272-.186.124a.58.58 0 00-.077.248.34.34 0 00.077.225l.186.077 1.924-.271v1.295a.434.434 0 01-.07.24l-.194.132-1.093.155-.179.125a.354.354 0 00-.085.248.32.32 0 00.077.225l.187.069 1.085-.147.186.07a.307.307 0 01.086.225v1.31l-1.9.264-.194.132a.436.436 0 00-.07.248.369.369 0 00.07.225l.194.07 1.9-.264a.613.613 0 00.388-.256.823.823 0 00.155-.496v-1.311a1.01 1.01 0 00-.225-.636c.15-.218.226-.479.217-.744zM188.171 166.109l-1.908.263-.194.132a.395.395 0 00-.077.248.335.335 0 00.077.225l.194.07 1.908-.271v1.659l-1.628.233a.542.542 0 00-.38.248.913.913 0 00-.163.512v2.327l2.443-.342.186-.124a.417.417 0 00.085-.248.285.285 0 00-.085-.225l-.186-.077-1.9.271v-1.636l1.628-.233a.572.572 0 00.388-.256.774.774 0 00.155-.504v-1.621a.648.648 0 00-.163-.457.408.408 0 00-.38-.194zM164.424 169.452l-1.908.271-.194.124a.402.402 0 00-.078.248.311.311 0 00.078.225l.186.07 1.916-.263v1.628l-1.629.225a.526.526 0 00-.38.256.817.817 0 00-.163.504v2.327l2.443-.349.194-.124a.452.452 0 00.078-.248.34.34 0 00-.078-.225l-.194-.07-1.908.264v-1.637l1.621-.225a.644.644 0 00.396-.256.849.849 0 00.155-.504v-1.629a.617.617 0 00-.163-.449.406.406 0 00-.372-.163zM200.053 164.441l-1.924.272-.194.132a.516.516 0 00-.077.248c0 .081.028.16.077.225l.194.069 1.924-.271v1.629l-1.629.232a.548.548 0 00-.38.248.864.864 0 00-.163.505v2.326l2.443-.341.194-.124a.432.432 0 00.078-.248.343.343 0 00-.07-.225l-.194-.078-1.908.272v-1.652l1.629-.233a.578.578 0 00.38-.256.815.815 0 00.163-.504v-1.629a.64.64 0 00-.155-.449.43.43 0 00-.388-.148zM208.219 166.186l-.194.132-.077.24v1.396l-.543.078v-4.653l-1.342.186-.194.132a.393.393 0 00-.077.248.356.356 0 00.07.225l.194.07.814-.109v3.94l-.83.116-.186.132-.085.233a.377.377 0 00.085.24l.186.07 2.172-.303.186-.131a.358.358 0 00.085-.249v-1.721a.308.308 0 00-.085-.225l-.179-.047zM212.384 165.706l-.186-.078-.194.132-.07.248v1.388l-.535.078v-4.653l-1.349.193-.194.125a.447.447 0 00-.062.368.295.295 0 00.062.105l.194.069.775-.108v3.947l-.822.117-.194.124-.077.24a.35.35 0 00.077.233l.194.07 2.172-.303.186-.124a.438.438 0 00.077-.248V165.9a.297.297 0 00-.054-.194zM160.724 172.864l-.194.124-.077.248v1.404l-.535.07v-4.653l-1.35.186-.194.131a.45.45 0 00-.077.241.383.383 0 00.077.233l.194.069.776-.116v3.948l-.83.116-.194.124-.077.24a.339.339 0 00.077.233l.194.078 2.164-.311.194-.124a.393.393 0 00.077-.248v-1.729a.369.369 0 00-.07-.225l-.155-.039zM140.932 175.648l-.194.124-.077.249v1.388l-.543.077v-4.653l-1.342.194-.186.124a.357.357 0 00-.085.248.285.285 0 00.085.225l.179.078.822-.117v3.948l-.83.116-.194.124-.07.241a.406.406 0 00.07.232l.194.07 2.164-.302.193-.124a.414.414 0 00.078-.249v-1.729a.286.286 0 00-.016-.12.287.287 0 00-.062-.105l-.186-.039zM192.382 168.436l-.186.124-.077.248v1.396l-.543.07v-4.654l-1.35.187-.193.131a.44.44 0 00-.07.249.373.373 0 00.07.225l.193.069.815-.116v3.948l-.83.116-.194.132-.078.232c.001.087.028.17.078.241l.194.07 2.164-.303.194-.132a.393.393 0 00.077-.248v-1.722a.337.337 0 00-.07-.224l-.194-.039zM180.385 170.088v-1.962a.343.343 0 00-.07-.225l-.194-.07-.186.124a.396.396 0 00-.078.248v1.962l-1.086.155v-2.551a.312.312 0 00-.085-.233l-.186-.07-.194.124a.62.62 0 00-.085.256v3.227l1.621-.225v1.388a.303.303 0 00.077.225l.186.077.194-.124a.47.47 0 00.07-.248v-1.404l.194-.124a.438.438 0 00.077-.248.34.34 0 00-.077-.225l-.178-.077zM172.474 171.204v-1.993a.286.286 0 00-.016-.12.287.287 0 00-.062-.105l-.186-.077-.194.124a.421.421 0 00-.077.248v1.97l-1.078.147v-2.544a.339.339 0 00-.078-.232l-.194-.078-.194.132a.578.578 0 00-.077.256v3.226l1.613-.233v1.396a.293.293 0 00.078.225l.193.07.187-.124a.395.395 0 00.077-.248v-1.396l.186-.132a.4.4 0 00.086-.248.328.328 0 00-.086-.225l-.178-.039zM168.953 170.762v-1.256a.638.638 0 00-.155-.45.39.39 0 00-.38-.147l-1.924.271-.186.124a.436.436 0 00-.085.248.31.31 0 00.085.225l.186.078 1.924-.272v1.288a.444.444 0 01-.07.248l-.194.132-1.094.147-.193.132a.436.436 0 00-.07.248.369.369 0 00.07.225l.193.07 1.078-.147.194.069a.295.295 0 01.062.105.29.29 0 01.016.12v1.311l-1.9.264-.186.132a.513.513 0 00-.078.24.34.34 0 00.078.225l.186.077 1.908-.263a.608.608 0 00.387-.256.881.881 0 00.156-.497v-1.31a1.016 1.016 0 00-.233-.644c.152-.215.231-.473.225-.737zM152.666 173.98v-1.962a.285.285 0 00-.085-.225l-.186-.069-.194.124a.447.447 0 00-.078.248v1.962l-1.078.155v-2.551a.41.41 0 00-.069-.233l-.194-.07-.194.124a.442.442 0 00-.078.256v3.226l1.621-.224v1.388a.38.38 0 00.078.232l.194.07.186-.124a.39.39 0 00.085-.248v-1.419l.186-.124a.402.402 0 00.066-.37.303.303 0 00-.066-.103l-.194-.063zM149.138 173.531v-1.217a.622.622 0 00-.163-.45.379.379 0 00-.38-.148l-1.916.272-.186.124a.357.357 0 00-.085.248.285.285 0 00.085.225l.178.07 1.924-.264v1.288a.452.452 0 01-.078.248l-.194.124-1.085.155-.194.124a.424.424 0 00-.078.248.311.311 0 00.078.225l.194.078 1.078-.155.193.077c.05.064.074.144.07.225v1.311l-1.892.263-.186.124a.399.399 0 00-.078.249.308.308 0 00.078.225l.178.077 1.908-.271a.558.558 0 00.388-.256.852.852 0 00.163-.497v-1.303a1.016 1.016 0 00-.225-.643c.157-.227.236-.5.225-.776z"/>
        </g>
        <path opacity=".2" d="M206.312 123.81l-59.718 72.561-14.425 2.024c-2.715.38-4.902-1.675-4.902-4.607l.101-53.575a6.09 6.09 0 014.917-5.987l74.027-10.416z" fill="#fff"/>
        <path d="M199.494 111.649c-.1.012-.202.012-.302 0a1.426 1.426 0 01-1.094-1.69l.256-1.21a1.424 1.424 0 011.663-1.031 1.428 1.428 0 011.129 1.597c-.085.419-.178.83-.263 1.241a1.427 1.427 0 01-1.389 1.093z" fill="url(#paint14_linear)"/>
        <path d="M200.681 105.143c-.07.007-.14.007-.209 0a1.428 1.428 0 01-.932-.559 1.416 1.416 0 01-.263-1.054c.279-1.869.504-3.762.675-5.639a1.441 1.441 0 011.551-1.295 1.43 1.43 0 011.288 1.551 98.002 98.002 0 01-.691 5.801 1.426 1.426 0 01-1.419 1.195z" fill="url(#paint15_linear)"/>
        <path d="M201.728 93.417h-.047a1.416 1.416 0 01-1.38-1.459c0-.83.038-1.66.038-2.489.039-23.406-8.484-44.075-24.042-58.22-13.96-12.759-32.441-18.77-51.962-16.916a1.42 1.42 0 11-.209-2.83c20.296-1.932 39.553 4.335 54.126 17.643 16.123 14.69 24.98 36.141 24.934 60.323v2.567a1.42 1.42 0 01-1.458 1.38z" fill="url(#paint16_linear)"/>
        <path d="M112.291 16.427a1.419 1.419 0 01-.349-2.8 80.761 80.761 0 016.476-1.373 1.425 1.425 0 011.72 1.731 1.44 1.44 0 01-.692.904c-.171.095-.36.154-.555.173-2.086.356-4.188.775-6.251 1.318a1.35 1.35 0 01-.349.047z" fill="url(#paint17_linear)"/>
        <path d="M105.489 18.466a1.428 1.428 0 01-.465-2.768l1.349-.45a1.437 1.437 0 011.873 1.479 1.431 1.431 0 01-.5.978 1.43 1.43 0 01-.488.273l-1.296.442a1.44 1.44 0 01-.473.046z" fill="url(#paint18_linear)"/>
        <g style="mix-blend-mode:overlay" opacity=".8">
            <path style="mix-blend-mode:overlay" opacity=".8" d="M203.077 83.9c-1.551-21.243-10.183-39.918-24.686-53.141-14.503-13.223-33.868-19.583-54.164-17.652a1.393 1.393 0 00-1.078.69 1.361 1.361 0 01-.303-.736 1.432 1.432 0 01.318-1.042 1.421 1.421 0 01.962-.51c20.296-1.938 39.553 4.336 54.126 17.644 14.867 13.542 23.561 32.822 24.825 54.747z" fill="url(#paint19_linear)"/>
            <path style="mix-blend-mode:overlay" opacity=".8" d="M120.093 13.418c.054.337-.011.683-.186.977a1.407 1.407 0 00-1.365-.528 78.179 78.179 0 00-6.476 1.365 1.356 1.356 0 00-.869.644 1.57 1.57 0 01-.271-.52 1.436 1.436 0 011.039-1.73 77.536 77.536 0 016.476-1.372 1.443 1.443 0 011.652 1.164z" fill="url(#paint20_linear)"/>
            <path style="mix-blend-mode:overlay" opacity=".8" d="M108.041 17.319a1.436 1.436 0 00-1.551-.465c-.45.14-.9.294-1.35.45-.329.097-.608.32-.775.62a1.41 1.41 0 01-.166-1.506 1.406 1.406 0 01.817-.72l1.334-.458a1.428 1.428 0 011.675 2.079h.016z" fill="url(#paint21_linear)"/>
        </g>
    </g>
    <defs>
        <linearGradient id="paint0_linear" x1="152.201" y1="-25.779" x2="82.649" y2="264.007" gradientUnits="userSpaceOnUse">
            <stop stop-color="#FCEE21"/>
            <stop offset=".38" stop-color="#90F4E1"/>
            <stop offset="1" stop-color="#069EFC"/>
        </linearGradient>
        <linearGradient id="paint1_linear" x1="64.936" y1="55.12" x2="164.238" y2="202.793" gradientUnits="userSpaceOnUse">
            <stop stop-color="#fff"/>
            <stop offset="1" stop-color="#15B3FF"/>
        </linearGradient>
        <linearGradient id="paint2_linear" x1="10716.5" y1="1768.18" x2="14833.8" y2="54380.8" gradientUnits="userSpaceOnUse">
            <stop stop-color="#FCEE21"/>
            <stop offset=".38" stop-color="#90F4E1"/>
            <stop offset="1" stop-color="#069EFC"/>
        </linearGradient>
        <linearGradient id="paint3_linear" x1="92.266" y1="180.526" x2="42.647" y2="180.192" gradientUnits="userSpaceOnUse">
            <stop offset=".02" stop-color="#4EDCC0"/>
            <stop offset=".16" stop-color="#34D7B7"/>
            <stop offset=".34" stop-color="#1DD2AF"/>
            <stop offset=".52" stop-color="#0DCFA9"/>
            <stop offset=".73" stop-color="#03CDA6"/>
            <stop offset="1" stop-color="#00CCA5"/>
        </linearGradient>
        <linearGradient id="paint4_linear" x1="2269.44" y1="10835.7" x2="4072.06" y2="10835.7" gradientUnits="userSpaceOnUse">
            <stop offset=".02" stop-color="#4EDCC0"/>
            <stop offset=".16" stop-color="#34D7B7"/>
            <stop offset=".34" stop-color="#1DD2AF"/>
            <stop offset=".52" stop-color="#0DCFA9"/>
            <stop offset=".73" stop-color="#03CDA6"/>
            <stop offset="1" stop-color="#00CCA5"/>
        </linearGradient>
        <linearGradient id="paint5_linear" x1="1845.13" y1="2856.32" x2="2859.9" y2="2864.66" gradientUnits="userSpaceOnUse">
            <stop offset=".02" stop-color="#4EDCC0"/>
            <stop offset=".16" stop-color="#34D7B7"/>
            <stop offset=".34" stop-color="#1DD2AF"/>
            <stop offset=".52" stop-color="#0DCFA9"/>
            <stop offset=".73" stop-color="#03CDA6"/>
            <stop offset="1" stop-color="#00CCA5"/>
        </linearGradient>
        <linearGradient id="paint6_linear" x1="161.236" y1="128.169" x2="169.667" y2="35.948" gradientUnits="userSpaceOnUse">
            <stop stop-color="#FCEE21"/>
            <stop offset=".51" stop-color="#90F4E1"/>
            <stop offset="1" stop-color="#069EFC"/>
        </linearGradient>
        <linearGradient id="paint8_linear" x1="3767.74" y1="2494.05" x2="3439.48" y2="4254.26" gradientUnits="userSpaceOnUse">
            <stop stop-color="#fff"/>
            <stop offset="1" stop-color="#15B3FF"/>
        </linearGradient>
        <linearGradient id="paint9_linear" x1="3240.07" y1="3210.16" x2="3599.24" y2="3210.16" gradientUnits="userSpaceOnUse">
            <stop stop-color="#fff"/>
            <stop offset="1" stop-color="#15B3FF"/>
        </linearGradient>
        <linearGradient id="paint10_linear" x1="20214.8" y1="22398.4" x2="19723.3" y2="10539.6" gradientUnits="userSpaceOnUse">
            <stop stop-color="#FCEE21"/>
            <stop offset=".38" stop-color="#90F4E1"/>
            <stop offset="1" stop-color="#069EFC"/>
        </linearGradient>
        <linearGradient id="paint11_linear" x1="3315.8" y1="11062.3" x2="30059" y2="19959.7" gradientUnits="userSpaceOnUse">
            <stop stop-color="#FCBF21"/>
            <stop offset=".38" stop-color="#90F4E1"/>
            <stop offset="1" stop-color="#069EFC"/>
        </linearGradient>
        <linearGradient id="paint12_linear" x1="12210.9" y1="15660.1" x2="21157.7" y2="6940.14" gradientUnits="userSpaceOnUse">
            <stop stop-color="#fff"/>
            <stop offset="1" stop-color="#15B3FF"/>
        </linearGradient>
        <linearGradient id="paint13_linear" x1="20219.6" y1="8503.94" x2="19560.8" y2="16675.2" gradientUnits="userSpaceOnUse">
            <stop stop-color="#fff"/>
            <stop offset="1" stop-color="#15B3FF"/>
        </linearGradient>
        <linearGradient id="paint14_linear" x1="888.303" y1="-89.509" x2="943.048" y2="233.484" gradientUnits="userSpaceOnUse">
            <stop stop-color="#FCEE21"/>
            <stop offset=".38" stop-color="#90F4E1"/>
            <stop offset="1" stop-color="#069EFC"/>
        </linearGradient>
        <linearGradient id="paint15_linear" x1="999.604" y1="-332.372" x2="1207.45" y2="317.699" gradientUnits="userSpaceOnUse">
            <stop stop-color="#FCEE21"/>
            <stop offset=".38" stop-color="#90F4E1"/>
            <stop offset="1" stop-color="#069EFC"/>
        </linearGradient>
        <linearGradient id="paint16_linear" x1="15161.9" y1="-3684.68" x2="16076.2" y2="3079.65" gradientUnits="userSpaceOnUse">
            <stop stop-color="#FCEE21"/>
            <stop offset=".38" stop-color="#90F4E1"/>
            <stop offset="1" stop-color="#069EFC"/>
        </linearGradient>
        <linearGradient id="paint17_linear" x1="1346.71" y1="-146.636" x2="1367.7" y2="204.853" gradientUnits="userSpaceOnUse">
            <stop stop-color="#FCEE21"/>
            <stop offset=".38" stop-color="#90F4E1"/>
            <stop offset="1" stop-color="#069EFC"/>
        </linearGradient>
        <linearGradient id="paint18_linear" x1="605.292" y1="-103.617" x2="633.761" y2="169.014" gradientUnits="userSpaceOnUse">
            <stop stop-color="#FCEE21"/>
            <stop offset=".38" stop-color="#90F4E1"/>
            <stop offset="1" stop-color="#069EFC"/>
        </linearGradient>
        <linearGradient id="paint19_linear" x1="12463.4" y1="-2780.42" x2="16647" y2="4745.56" gradientUnits="userSpaceOnUse">
            <stop stop-color="#fff"/>
            <stop offset="1" stop-color="#15B3FF"/>
        </linearGradient>
        <linearGradient id="paint20_linear" x1="1248.77" y1="-59.489" x2="1361.5" y2="406.359" gradientUnits="userSpaceOnUse">
            <stop stop-color="#fff"/>
            <stop offset="1" stop-color="#15B3FF"/>
        </linearGradient>
        <linearGradient id="paint21_linear" x1="575.69" y1="-21.905" x2="705.564" y2="298.53" gradientUnits="userSpaceOnUse">
            <stop stop-color="#fff"/>
            <stop offset="1" stop-color="#15B3FF"/>
        </linearGradient>
        <radialGradient id="paint7_radial" cx="0" cy="0" r="1" gradientUnits="userSpaceOnUse" gradientTransform="translate(169.372 103.142) scale(129.362)">
            <stop stop-color="#FCEE21"/>
            <stop offset=".12" stop-color="#AAD36A"/>
            <stop offset=".25" stop-color="#53B7B8"/>
            <stop offset=".35" stop-color="#1BA5E9"/>
            <stop offset=".39" stop-color="#069EFC"/>
            <stop offset=".49" stop-color="#90F4E1"/>
        </radialGradient>
        <filter id="filter0_d" x="0" y=".998" width="240" height="255.375" filterUnits="userSpaceOnUse" color-interpolation-filters="sRGB">
            <feFlood flood-opacity="0" result="BackgroundImageFix"/>
            <feColorMatrix in="SourceAlpha" values="0 0 0 0 0 0 0 0 0 0 0 0 0 0 0 0 0 0 127 0"/>
            <feOffset dy="10"/>
            <feGaussianBlur stdDeviation="10"/>
            <feColorMatrix values="0 0 0 0 0 0 0 0 0 0 0 0 0 0 0 0 0 0 0.25 0"/>
            <feBlend in2="BackgroundImageFix" result="effect1_dropShadow"/>
            <feBlend in="SourceGraphic" in2="effect1_dropShadow" result="shape"/>
        </filter>
    </defs>
</svg>
