<svg viewBox="0 0 469 334" fill="none" xmlns="http://www.w3.org/2000/svg">
    <path d="M344.772 316.876c-10.64 3.805-21.034 8.814-31.975 11.141a240.447 240.447 0 01-43.08 5.475 99.755 99.755 0 01-33.206-4.024c-19.939-6.406-31.865-21.078-34.709-42.129-1.177-8.514-.903-17.219-1.313-25.842 0-1.642-.438-3.285-.575-4.927-.437-5.475-3.282-9.39-8.616-9.937a11.89 11.89 0 00-12.199 6.925c-7.932 16.097-8.205 32.001 2.735 46.756a278.019 278.019 0 0021.28 24.637c2.517 2.738 6.456 3.97 9.71 6.953a48.182 48.182 0 01-4.814-.383c-22.456-3.12-44.447-7.856-64.934-18.149a119.969 119.969 0 01-33.534-23.515 92.156 92.156 0 01-25.902-62.359c-.52-13.688-.137-27.375 5.908-39.995a252.499 252.499 0 0114.524-23.542 6.363 6.363 0 00-1.997-.547c-29.376-.986-58.78-2.026-88.183-2.738C5.768 160.43.817 154.435.134 142.91c-.465-8.623 4.732-16.26 12.007-16.425 4.267 0 8.507 1.889 12.801 2.738a29371.452 29371.452 0 0086.652 18.368l.656-1.642a14.469 14.469 0 00-1.34-2.738c-15.509-19.956-16.411-42.54-10.038-65.452a126.674 126.674 0 0115.591-34.219 82.485 82.485 0 0129.349-26.115C169.717 4.012 195.62.617 222.206.29c10.121 0 20.268 1.15 30.389 1.806v1.369a74.998 74.998 0 00-11.762 5.475c-10.312 6.761-20.514 13.77-30.087 21.462-10.613 8.458-15.919 33.424-10.093 45.524a8.947 8.947 0 005.47 4.516 6.697 6.697 0 005.471-3.394 269.344 269.344 0 009.928-27.183c4.924-17.273 15.947-29.428 32.413-34.766a85.682 85.682 0 0133.096-3.011 162.856 162.856 0 0176.86 27.758c2.133 1.423 4.103 3.093 6.099 4.736 1.997 1.642 3.83 3.367 6.127 5.475-7.412 1.396-14.496 2.874-21.635 4.051a127.641 127.641 0 00-37.391 12.538c-10.202 5.2-19.776 11.853-25.246 22.666a19.532 19.532 0 00-1.34 17.027c2.926 7.062 8.205 8.951 15.153 5.475a36.828 36.828 0 0016.411-16.425 62.956 62.956 0 0118.308-21.985 62.878 62.878 0 0126.14-11.604 38.834 38.834 0 0133.123 8.213 107.946 107.946 0 0131.811 38.516l.273.492c1.286 3.45 2.571 6.872 3.884 10.321a87.012 87.012 0 01-11.378 1.998c-7.167.274-14.388-.575-21.472 0-18.052 1.506-30.497 11.525-38.484 27.375-3.201 6.296-.247 10.429 6.947 10.293a28.411 28.411 0 0020.87-10.95c9.71-11.142 34.765-16.699 49.07-9.034a21.46 21.46 0 018.616 11.306 99.5 99.5 0 015.169 23.022c.958 9.499 3.009 17.766 13.676 22.118-1.86.931-2.872 1.506-3.938 1.999a26.313 26.313 0 00-13.841 14.7 248.051 248.051 0 01-14.524 28.251 11.155 11.155 0 01-7.029 4.27c-16.138 2.956-38.758-3.915-48.14-22.666-3.337-6.68-9.71-10.43-16.411-13.003-5.225-1.998-9.765 1.341-8.726 6.816a55.153 55.153 0 006.127 17.465c7.002 12.072 18.189 18.834 31.866 21.571a164.8 164.8 0 0119.146 4.873c5.908 1.916 6.373 4.024 2.489 8.65a119.113 119.113 0 01-41.028 32.549c-21.116 9.718-41.548 3.723-57.194-13.359-9.272-10.156-13.676-21.9-17.04-35.039-1.751-7.063-6.045-13.688-9.984-19.984-3.118-5.037-7.768-4.27-10.694.876-7.003 12.291-3.283 23.323 3.774 34.027a129.542 129.542 0 0040.782 38.68 168.3 168.3 0 0019.858 9.253l.657 1.478zm-26.313-140.487c.219-1.834.246-2.737.437-3.586 4.513-20.695 18.573-34.93 33.233-48.617a76.617 76.617 0 0113.211-9.691c8.945-5.283 18.162-10.073 27.353-15.083a82.948 82.948 0 00-18.655 6.953 239.76 239.76 0 00-26.203 17.109c-16.22 12.374-27.352 28.88-36.023 47.167-1.586 3.422-2.735 4.215-6.346 3.75-25.519-3.367-50.957-6.597-76.586-9.855l-5.47-.684c9.491-12.729 18.599-24.938 27.653-37.175 9.053-12.236 14.387-27.238 18.599-42.075 4.896-16.835 6.155-36.134 4.185-42.376-4.021 16.151-7.303 35.095-13.676 52.998-9.081 25.814-23.66 48.425-46.772 64.33a10.308 10.308 0 01-6.428 1.779 1102.48 1102.48 0 01-39.25-5.256 8.203 8.203 0 01-5.69-3.421c-4.239-8.925-9.628-17.739-11.542-27.238-5.033-24.938-.219-48.946 10.777-71.722 2.434-5.064 5.47-9.827 8.205-14.727a34.558 34.558 0 00-9.19 9.198 119.02 119.02 0 00-17.642 82.863c.984 7.008 2.188 13.961 3.364 21.379l-27.927-3.367c-.574 4.791-1.148 9.444-1.668 13.687l27.844 3.368c-18.572 40.35-26.094 81.028-5.88 122.72.711-.493 1.012-1.095.848-1.533a122.148 122.148 0 01-6.647-42.787c.301-27.018 7.713-51.382 24.945-72.515a9.906 9.906 0 019.738-4.462c13.676 1.642 27.489 2.518 41.165 4.298a15.64 15.64 0 019.71 4.873 212.963 212.963 0 0117.615 26.389 124.965 124.965 0 0114.66 58.198c.247 12.784-1.34 25.595-1.969 36.052 12.938-43.991 5.47-86.12-25.793-124.581l86.57 7.692c2.735 9.417 4.732 18.259 7.987 26.581a138.383 138.383 0 0011.843 24.062 141.266 141.266 0 0017.04 21.434c5.963 6.214 13.047 11.361 20.323 17.575-11.597-13.961-23.277-26.444-33.069-40.268-9.792-13.825-16.411-29.839-15.071-47.55.766-.411 1.094-.767 1.395-.739 18.49 1.724 36.98 3.394 55.443 5.31a6.089 6.089 0 013.72 3.203 78.617 78.617 0 0017.943 24.637 48.28 48.28 0 007.741 4.818c-8.206-9.854-17.724-18.313-21.143-32.493l59.354 7.199.246-2.053-59.901-7.227c9.217-15.74 23.249-22.885 38.293-28.853a5.484 5.484 0 00-2.735 0c-14.962 3.97-28.009 10.95-37.418 23.679a8.672 8.672 0 01-9.409 3.669c-14.196-2.108-28.447-3.805-42.67-5.667l-10.667-1.369z" fill="#ECE8E0"/>
</svg>
