<svg viewBox="0 0 62 80" fill="none" xmlns="http://www.w3.org/2000/svg">
    <path d="M30.968 45.161c-15.653 0-28.387 12.734-28.387 28.387V80h56.774v-6.452c0-15.653-12.734-28.387-28.387-28.387zm11.424 5.283c-3.672 7.94-9.041 19.432-11.353 24.124L19.549 50.44c3.448-1.71 7.315-2.698 11.419-2.698 4.105 0 7.975.988 11.424 2.702zm1.93 1.98l3.237 14.027-13.422 7.67c1.756-3.563 4.78-10.01 10.184-21.698zm-16.29 21.831l-13.656-7.802 3.245-14.06 10.41 21.862zm-22.87-.707c0-8.07 3.728-15.28 9.548-20.016L11.43 67.74l16.938 9.678H5.16v-3.87zm51.612 3.871H33.568l16.937-9.679-3.28-14.209c5.82 4.736 9.549 11.946 9.549 20.017v3.871zM47.058 37.42h3.264a3.876 3.876 0 003.871-3.872v-3.87h-2.58v3.87c0 .711-.578 1.29-1.29 1.29h-1.504a20.495 20.495 0 002.794-10.322c0-11.383-9.262-20.645-20.645-20.645s-20.645 9.262-20.645 20.645 9.262 20.645 20.645 20.645c6.501 0 12.303-3.028 16.09-7.742zM12.903 24.515c0-9.961 8.103-18.065 18.065-18.065 9.96 0 18.064 8.104 18.064 18.065 0 3.837-1.211 7.394-3.26 10.323h-8.59c-.534-1.499-1.954-2.581-3.634-2.581h-5.161a3.876 3.876 0 00-3.871 3.87A3.876 3.876 0 0028.386 40h5.162c1.68 0 3.1-1.083 3.634-2.58h6.405c-3.26 3.186-7.711 5.16-12.618 5.16-9.963 0-18.066-8.103-18.066-18.064zm21.936 11.613c0 .71-.578 1.29-1.29 1.29h-5.162c-.713 0-1.29-.58-1.29-1.29 0-.711.577-1.29 1.29-1.29h5.161c.712 0 1.29.58 1.29 1.29z" fill="#20160E"/>
    <path d="M30.968 2.58c9.325 0 17.65 5.912 20.717 14.709l2.437-.849C50.692 6.606 41.388 0 30.968 0S11.244 6.606 7.814 16.439l2.437.85C13.32 8.492 21.644 2.581 30.968 2.581z" fill="#20160E"/>
    <path d="M10.322 33.548h-1.29C4.052 33.548 0 29.496 0 24.516c0-4.979 4.053-9.032 9.032-9.032h1.29v18.064zM52.903 33.548h-1.29V15.484h1.29c4.979 0 9.032 4.053 9.032 9.032 0 4.98-4.053 9.032-9.032 9.032z" fill="#F89E9E"/>
</svg>
