<svg viewBox="0 0 103 15" fill="none" xmlns="http://www.w3.org/2000/svg">
    <path d="M7.086.257a.461.461 0 01.827 0L9.711 3.9c.17.342.496.58.874.635l4.02.584a.461.461 0 01.256.786l-2.909 2.836c-.274.267-.398.65-.334 1.027l.687 4.004a.46.46 0 01-.67.485l-3.595-1.89a1.16 1.16 0 00-1.08 0l-3.596 1.89a.461.461 0 01-.669-.486l.687-4.003a1.16 1.16 0 00-.334-1.027L.14 5.905a.461.461 0 01.256-.786l4.02-.584a1.16 1.16 0 00.874-.635L7.086.257zM29.086.257a.461.461 0 01.827 0L31.711 3.9c.17.342.496.58.874.635l4.02.584a.461.461 0 01.256.786l-2.909 2.836c-.273.267-.398.65-.334 1.027l.686 4.004a.46.46 0 01-.668.485l-3.596-1.89a1.16 1.16 0 00-1.08 0l-3.596 1.89a.461.461 0 01-.669-.486l.687-4.003a1.16 1.16 0 00-.334-1.027L22.14 5.905a.46.46 0 01.256-.786l4.02-.584a1.16 1.16 0 00.874-.635L29.086.257zM51.086.257a.461.461 0 01.827 0L53.711 3.9c.17.342.496.58.874.635l4.02.584a.461.461 0 01.256.786l-2.909 2.836c-.273.267-.398.65-.334 1.027l.686 4.004a.46.46 0 01-.668.485l-3.596-1.89a1.16 1.16 0 00-1.08 0l-3.596 1.89a.461.461 0 01-.669-.486l.687-4.003a1.16 1.16 0 00-.334-1.027L44.14 5.905a.46.46 0 01.256-.786l4.02-.584a1.16 1.16 0 00.874-.635L51.086.257zM73.086.257a.461.461 0 01.827 0L75.711 3.9c.17.342.496.58.874.635l4.02.584a.461.461 0 01.256.786l-2.909 2.836c-.273.267-.398.65-.334 1.027l.687 4.004a.46.46 0 01-.67.485l-3.595-1.89a1.16 1.16 0 00-1.08 0l-3.596 1.89a.461.461 0 01-.669-.486l.687-4.003a1.16 1.16 0 00-.334-1.027L66.14 5.905a.46.46 0 01.256-.786l4.02-.584a1.16 1.16 0 00.874-.635L73.086.257zM95.086.257a.461.461 0 01.827 0L97.711 3.9c.17.342.496.58.874.635l4.02.584a.46.46 0 01.256.786l-2.909 2.836c-.273.267-.398.65-.334 1.027l.687 4.004a.462.462 0 01-.67.485l-3.595-1.89a1.16 1.16 0 00-1.08 0l-3.596 1.89a.461.461 0 01-.669-.486l.687-4.003a1.16 1.16 0 00-.334-1.027L88.14 5.905a.46.46 0 01.256-.786l4.02-.584a1.16 1.16 0 00.874-.635L95.086.257z" fill="#ECE8E0"/>
</svg>
